<?xml version="1.0" encoding="UTF-8" standalone="no"?>
<!-- Created with Inkscape (http://www.inkscape.org/) -->

<svg
   xmlns:dc="http://purl.org/dc/elements/1.1/"
   xmlns:cc="http://creativecommons.org/ns#"
   xmlns:rdf="http://www.w3.org/1999/02/22-rdf-syntax-ns#"
   xmlns:svg="http://www.w3.org/2000/svg"
   xmlns="http://www.w3.org/2000/svg"
   xmlns:sodipodi="http://sodipodi.sourceforge.net/DTD/sodipodi-0.dtd"
   xmlns:inkscape="http://www.inkscape.org/namespaces/inkscape"
   width="640"
   height="424.65152"
   id="svg5115"
   version="1.1"
   inkscape:version="0.48.5 r10040"
   sodipodi:docname="Anti-Money Laundering Council.svg">
  <title
     id="title5991">Anti-Money Laundering Council of the Philippines</title>
  <defs
     id="defs5117" />
  <sodipodi:namedview
     id="base"
     pagecolor="#ffffff"
     bordercolor="#666666"
     borderopacity="1.0"
     inkscape:pageopacity="0.0"
     inkscape:pageshadow="2"
     inkscape:zoom="0.7"
     inkscape:cx="352.36845"
     inkscape:cy="242.81742"
     inkscape:document-units="px"
     inkscape:current-layer="layer1"
     showgrid="false"
     showguides="true"
     inkscape:guide-bbox="true"
     height="524.41px"
     fit-margin-top="0"
     fit-margin-left="0"
     fit-margin-right="0"
     fit-margin-bottom="0"
     inkscape:window-width="1366"
     inkscape:window-height="705"
     inkscape:window-x="-8"
     inkscape:window-y="-8"
     inkscape:window-maximized="1" />
  <metadata
     id="metadata5120">
    <rdf:RDF>
      <cc:Work
         rdf:about="">
        <dc:format>image/svg+xml</dc:format>
        <dc:type
           rdf:resource="http://purl.org/dc/dcmitype/StillImage" />
        <dc:title>Anti-Money Laundering Council of the Philippines</dc:title>
        <cc:license
           rdf:resource="" />
      </cc:Work>
    </rdf:RDF>
  </metadata>
  <g
     inkscape:label="Layer 1"
     inkscape:groupmode="layer"
     id="layer1"
     transform="translate(-35.875,-578.98588)">
    <path
       style="color:#000000;fill:#000000;stroke:none;stroke-width:1.41070879;marker:none;visibility:visible;display:inline;overflow:visible;enable-background:accumulate"
       d="m 457.53673,744.97694 c -31.90499,0 -57.77309,20.7749 -57.77309,46.40694 0,25.63184 25.8681,46.40687 57.77309,46.40687 20.03514,0 37.68745,-8.20463 48.05072,-20.64757 l -12.24825,-5.27217 c -8.04926,7.89582 -20.52562,13.15125 -34.65981,13.55121 -24.89524,0.70467 -45.49591,-13.92314 -46.02602,-32.65519 -0.53019,-18.73205 19.22637,-34.47641 44.1216,-35.18107 0.77799,-0.0219 1.55623,-0.0276 2.32536,-0.02 10.59176,0.10411 20.28436,2.98384 27.84417,7.73783 l 13.53114,-4.97145 c -10.57514,-9.43319 -25.89248,-15.35538 -42.93891,-15.35538 z"
       id="path5894"
       inkscape:connector-curvature="0" />
    <path
       style="fill:#000000;stroke:none"
       d="M 83.424535,747.83151 35.875,834.9923 l 16.197312,0 9.381612,-19.76554 59.517106,-0.14032 10.44406,19.90586 14.23278,-1.8e-4 -46.186392,-87.16078 z m 7.797963,11.44637 24.736982,43.76081 -48.35138,0 z"
       id="path5134"
       inkscape:connector-curvature="0"
       sodipodi:nodetypes="ccccccccccccc" />
    <path
       style="fill:#000000;stroke:none"
       d="m 162.87175,747.83134 17.81974,0 41.95744,54.10939 44.71126,-54.10939 15.06578,0 -0.486,87.16078 -13.1218,0 0.324,-71.60681 -46.49324,57.02314 -45.84539,-56.21316 -0.97198,70.79683 -12.95981,0 z"
       id="path5647"
       inkscape:connector-curvature="0"
       sodipodi:nodetypes="ccccccccccccc" />
    <path
       style="fill:#000000;stroke:none"
       d="m 312.52381,747.83134 c 1.3746,0 13.28757,0 13.28757,0 l 0,74.68697 68.50084,-0.45819 0,12.932 c 0,0 -82.24661,1.3746 -81.78841,0 0.4582,-1.37459 0,-87.16078 0,-87.16078 z"
       id="path5660"
       inkscape:connector-curvature="0"
       sodipodi:nodetypes="cccccsc" />
    <path
       style="fill:#ce1126;fill-opacity:1;stroke:none"
       d="m 121.40037,655.17092 c 124.42481,-2.41182 294.57015,8.88475 385.87824,97.84654 16.94651,17.61728 53.13521,50.54324 53.13521,50.54324 l -53.78319,-34.34348 -55.07918,23.97564 29.80755,-44.38733 c -51.69969,-56.3598 -202.488,-50.81668 -231.33255,-46.33132 -86.4302,13.43999 -84.5301,-22.91504 -128.62608,-47.30329 z"
       id="path5664"
       inkscape:connector-curvature="0"
       sodipodi:nodetypes="ccccccsc" />
    <path
       style="fill:#0038a8;fill-opacity:1;stroke:none"
       d="m 40.353889,581.27688 172.740781,-2.291 c 0,0 77.16791,1.60101 114.24304,11.04282 51.74218,13.17702 102.66504,33.55997 147.38823,62.72712 44.19157,28.82046 92.35383,69.47604 115.43901,108.28414 26.08949,43.8586 67.29772,59.82376 85.71005,101.57071 C 631.89716,819.40512 616.38277,820.69927 588.35913,797.5465 555.07476,770.04737 531.15651,732.88159 492.85947,710.04635 428.25944,671.52753 339.32316,641.92424 278.61703,635.80248 215.98635,629.48665 135.15336,635.54389 89.839312,630.7623 58.679021,625.28391 72.55233,596.41819 40.353889,581.27688 z"
       id="path5666"
       inkscape:connector-curvature="0"
       sodipodi:nodetypes="ccaascasscc" />
    <path
       style="fill:#fcd116;fill-opacity:1;stroke:none"
       d="M 73.802369,991.36441 C 216.64575,877.85797 288.01516,877.22799 415.61835,909.80511 c 42.15528,10.76225 71.75488,-6.61378 120.96437,-49.02723 -37.62388,39.30115 -66.02604,67.19255 -112.2586,67.81336 -50.06754,0.67231 -112.39848,-19.0821 -168.1588,2.29099 -38.71518,15.78722 -74.16681,43.46919 -104.01103,70.10437 -25.01925,7.9781 -53.571637,-4.0714 -78.351921,-9.62219 z"
       id="path5668"
       inkscape:connector-curvature="0"
       sodipodi:nodetypes="cscsccc" />
    <g
       style="font-size:53.36785507px;font-style:normal;font-variant:normal;font-weight:300;font-stretch:normal;text-align:center;line-height:125%;letter-spacing:0.53367853px;word-spacing:0px;writing-mode:lr-tb;text-anchor:middle;fill:#000000;fill-opacity:1;stroke:none;font-family:Swiss 721;-inkscape-font-specification:'Swiss 721 Light, Light'"
       id="text5890"
       transform="matrix(0.64147771,0,0,0.64147771,12.861987,359.82638)">
      <path
         d="m 35.995422,790.83917 3.682335,0 4.376108,-11.74077 17.290962,0 4.322741,11.74077 3.682334,0 -14.569236,-38.37099 -4.216007,0 z m 9.232521,-14.88944 7.418036,-19.74585 7.471403,19.74585 z"
         style="font-family:Swiss 721 Light;-inkscape-font-specification:'Swiss 721 Light, Light'"
         id="path5937"
         inkscape:connector-curvature="0" />
      <path
         d="m 73.205279,790.83917 3.20203,0 0,-16.33035 c 0.03446,-2.90627 0.806058,-5.16548 2.3148,-6.77763 1.508724,-1.61211 3.547793,-2.43041 6.117212,-2.45489 2.761733,-0.006 4.61624,0.67267 5.563527,2.03462 0.947245,1.362 1.387524,3.44109 1.320838,6.23729 l 0,17.29096 3.20203,0 0,-17.66453 c 0.01999,-1.46202 -0.03338,-2.75395 -0.160101,-3.87579 -0.126773,-1.1218 -0.446976,-2.10687 -0.960609,-2.95521 -0.760506,-1.23631 -1.854532,-2.19247 -3.282082,-2.86848 -1.427592,-0.67596 -3.108655,-1.0184 -5.043197,-1.02732 -4.047021,3e-5 -7.106736,1.70778 -9.179153,5.12325 l 0,-4.42948 -3.095295,0 z"
         style="font-family:Swiss 721 Light;-inkscape-font-specification:'Swiss 721 Light, Light'"
         id="path5939"
         inkscape:connector-curvature="0" />
      <path
         d="m 106.72357,755.1899 -3.20203,0 0,7.95171 -3.789066,0 0,2.61499 3.789066,0 0,20.17279 c -0.0411,1.89121 0.24126,3.29876 0.84721,4.22268 0.60593,0.92392 1.78223,1.38421 3.5289,1.38088 0.61149,-10e-4 1.243,-0.0523 1.89453,-0.15343 0.65152,-0.10118 1.3364,-0.24572 2.05464,-0.43361 l 0,-2.56163 c -0.61262,0.13898 -1.1752,0.26128 -1.68774,0.3669 -0.51255,0.10563 -0.98174,0.16122 -1.40755,0.16677 -0.855,0.002 -1.41313,-0.24237 -1.6744,-0.73379 -0.26129,-0.49142 -0.37914,-1.24301 -0.35356,-2.25477 l 0,-20.17279 5.12325,0 0,-2.61499 -5.12325,0 z"
         style="font-family:Swiss 721 Light;-inkscape-font-specification:'Swiss 721 Light, Light'"
         id="path5941"
         inkscape:connector-curvature="0" />
      <path
         d="m 117.84999,790.83917 3.20203,0 0,-27.69756 -3.20203,0 z m 0,-33.56795 3.20203,0 0,-4.80304 -3.20203,0 z"
         style="font-family:Swiss 721 Light;-inkscape-font-specification:'Swiss 721 Light, Light'"
         id="path5943"
         inkscape:connector-curvature="0" />
      <path
         d="m 127.51376,778.51136 12.91485,0 0,-3.14867 -12.91485,0 z"
         style="font-family:Swiss 721 Light;-inkscape-font-specification:'Swiss 721 Light, Light'"
         id="path5945"
         inkscape:connector-curvature="0" />
      <path
         d="m 147.58922,790.83917 3.52223,0 0,-33.46121 12.48792,33.46121 3.2554,0 12.22108,-33.46121 0,33.46121 3.52223,0 0,-38.37099 -4.96315,0 -12.43455,33.78142 -12.64801,-33.78142 -4.96315,0 z"
         style="font-family:Swiss 721 Light;-inkscape-font-specification:'Swiss 721 Light, Light'"
         id="path5947"
         inkscape:connector-curvature="0" />
      <path
         d="m 189.56056,777.01708 c 0.0256,4.66741 1.13516,8.24745 3.32877,10.74014 2.19361,2.49269 5.31781,3.75126 9.37261,3.77573 4.057,-0.0245 7.1901,-1.28304 9.39929,-3.77573 2.20916,-2.49269 3.32764,-6.07273 3.35547,-10.74014 -0.0278,-4.66961 -1.14631,-8.25855 -3.35546,-10.76683 -2.2092,-2.50823 -5.3423,-3.7757 -9.3993,-3.80241 -4.0548,0.0267 -7.179,1.29418 -9.37261,3.80241 -2.19361,2.50828 -3.3032,6.09722 -3.32877,10.76683 z m 3.30876,0 c 0.0245,-3.80462 0.85609,-6.70868 2.49492,-8.7122 1.6388,-2.00346 3.93804,-3.01299 6.8977,-3.02858 2.98521,0.0156 5.30001,1.02512 6.94441,3.02859 1.64435,2.00351 2.47821,4.90757 2.50158,8.71219 -0.0234,3.80242 -0.85723,6.69758 -2.50158,8.6855 -1.6444,1.98793 -3.9592,2.98857 -6.94441,3.00191 -2.95966,-0.0133 -5.2589,-1.01398 -6.89771,-3.00191 -1.63882,-1.98792 -2.47046,-4.88308 -2.49491,-8.6855 z"
         style="font-family:Swiss 721 Light;-inkscape-font-specification:'Swiss 721 Light, Light'"
         id="path5949"
         inkscape:connector-curvature="0" />
      <path
         d="m 221.29274,790.83917 3.20203,0 0,-16.33035 c 0.0345,-2.90627 0.80606,-5.16548 2.3148,-6.77763 1.50872,-1.61211 3.54779,-2.43041 6.11721,-2.45489 2.76173,-0.006 4.61624,0.67267 5.56353,2.03462 0.94724,1.362 1.38752,3.44109 1.32084,6.23729 l 0,17.29096 3.20203,0 0,-17.66453 c 0.02,-1.46202 -0.0334,-2.75395 -0.16011,-3.87579 -0.12677,-1.1218 -0.44697,-2.10687 -0.9606,-2.95521 -0.76051,-1.23631 -1.85454,-2.19247 -3.28209,-2.86848 -1.42759,-0.67596 -3.10865,-1.0184 -5.04319,-1.02732 -4.04702,3e-5 -7.10674,1.70778 -9.17916,5.12325 l 0,-4.42948 -3.09529,0 z"
         style="font-family:Swiss 721 Light;-inkscape-font-specification:'Swiss 721 Light, Light'"
         id="path5951"
         inkscape:connector-curvature="0" />
      <path
         d="m 252.51625,774.98912 c 0.19678,-3.06637 1.08401,-5.44565 2.66169,-7.13786 1.57765,-1.69216 3.62562,-2.55048 6.14389,-2.57496 2.51046,0.0212 4.52063,0.8728 6.03049,2.55495 1.50983,1.6822 2.34591,4.06816 2.50826,7.15787 z m 0,2.61499 20.65309,0 0,-1.06734 c -0.0312,-4.53285 -1.07626,-8.00839 -3.13532,-10.42661 -2.0591,-2.41817 -4.94537,-3.63895 -8.65882,-3.66232 -3.79909,0.0278 -6.76763,1.30641 -8.90565,3.83576 -2.13802,2.52941 -3.22538,6.14281 -3.26207,10.84021 0.0356,4.61849 1.11182,8.1763 3.22872,10.67343 2.11689,2.49714 5.06097,3.76016 8.83226,3.78907 3.21536,-0.0367 5.84369,-0.88389 7.885,-2.54161 2.04127,-1.65771 3.25538,-3.9058 3.64231,-6.74427 l -3.20203,0 c -0.34802,2.04352 -1.23969,3.62674 -2.67503,4.74967 -1.43537,1.12294 -3.24763,1.69219 -5.43678,1.70775 -2.70839,-0.0245 -4.86976,-0.98951 -6.48411,-2.89517 -1.61436,-1.90564 -2.44155,-4.60513 -2.48157,-8.09846 z"
         style="font-family:Swiss 721 Light;-inkscape-font-specification:'Swiss 721 Light, Light'"
         id="path5953"
         inkscape:connector-curvature="0" />
      <path
         d="m 287.96826,796.22926 12.27445,-33.08765 -3.30877,0 -8.75221,23.64166 -8.96569,-23.64166 -3.4155,0 10.78017,28.01777 -1.28081,3.46886 c -0.54369,1.57544 -1.15074,2.76063 -1.82116,3.55559 -0.67043,0.79494 -1.66439,1.19297 -2.98189,1.19409 -0.24127,-0.006 -0.5459,-0.0478 -0.91391,-0.12675 -0.36801,-0.0789 -0.79273,-0.16122 -1.27414,-0.24682 l 0,2.93519 c 0.39692,0.1045 0.77716,0.17566 1.14072,0.21347 0.36356,0.0378 0.73046,0.0556 1.1007,0.0534 1.89342,0.0144 3.4166,-0.45474 4.56956,-1.40756 1.15295,-0.95284 2.10244,-2.47602 2.84848,-4.56956 z"
         style="font-family:Swiss 721 Light;-inkscape-font-specification:'Swiss 721 Light, Light'"
         id="path5955"
         inkscape:connector-curvature="0" />
      <path
         d="m 320.22505,790.83917 23.21472,0 0,-3.14866 -19.69248,0 0,-35.22233 -3.52224,0 z"
         style="font-family:Swiss 721 Light;-inkscape-font-specification:'Swiss 721 Light, Light'"
         id="path5957"
         inkscape:connector-curvature="0" />
      <path
         d="m 365.82933,786.83663 0,0.42694 c 0.009,2.56163 1.32526,3.84244 3.94917,3.84244 0.24235,0.002 0.55811,-0.0156 0.94727,-0.0534 0.38911,-0.0378 0.83828,-0.10896 1.34752,-0.21347 l 0,-2.40152 c -0.26909,0.0256 -0.50479,0.0411 -0.70712,0.0467 -0.20238,0.006 -0.35803,0.008 -0.46696,0.007 -0.92283,0.007 -1.49208,-0.19346 -1.70775,-0.60038 -0.21572,-0.40693 -0.30466,-1.06067 -0.26683,-1.96125 l 0,-15.10291 c -0.009,-2.75394 -0.87169,-4.83748 -2.58831,-6.25063 -1.71667,-1.41309 -4.23382,-2.12242 -7.55146,-2.12801 -3.41662,0.0334 -6.08275,0.84723 -7.9984,2.44155 -1.91566,1.59437 -2.91407,3.76908 -2.99523,6.52413 l 3.14866,0 c 0.11006,-2.03015 0.82385,-3.56001 2.14136,-4.58957 1.31749,-1.02952 3.21869,-1.5454 5.70361,-1.54765 2.50491,-0.009 4.28604,0.47588 5.34339,1.45425 1.05732,0.97842 1.57098,2.50383 1.54098,4.57624 0.0411,1.33642 -0.28131,2.18585 -0.96728,2.54828 -0.68601,0.36247 -1.98239,0.70491 -3.88913,1.02732 -1.84341,0.12787 -3.60008,0.28575 -5.27001,0.47363 -1.66996,0.18792 -3.23984,0.59929 -4.70965,1.23412 -1.44537,0.67266 -2.54384,1.59547 -3.29543,2.76842 -0.75159,1.17298 -1.1296,2.56274 -1.13405,4.16931 0.0289,2.43488 0.85165,4.36944 2.46823,5.80368 1.61658,1.43424 3.85355,2.16804 6.71092,2.2014 3.89579,0.009 7.31129,-1.55655 10.2465,-4.69632 z m -0.1601,-10.56669 0.0534,3.8958 c -0.0467,2.6906 -0.95396,4.78081 -2.72173,6.27064 -1.7678,1.48984 -4.11596,2.24587 -7.04447,2.26811 -1.94124,-0.0211 -3.4622,-0.49921 -4.56289,-1.43425 -1.1007,-0.93503 -1.66106,-2.20028 -1.68106,-3.79574 0.004,-1.41533 0.52921,-2.61387 1.57433,-3.59561 1.0451,-0.98172 2.58385,-1.73998 4.61626,-2.27478 2.03461,-0.0923 3.87577,-0.2279 5.5235,-0.40692 1.64769,-0.17899 3.06192,-0.48807 4.24269,-0.92725 z"
         style="font-family:Swiss 721 Light;-inkscape-font-specification:'Swiss 721 Light, Light'"
         id="path5959"
         inkscape:connector-curvature="0" />
      <path
         d="m 398.55211,763.14161 -3.20203,0 0,16.38372 c -0.0278,2.88295 -0.79942,5.13549 -2.3148,6.75762 -1.51543,1.62214 -3.60786,2.44711 -6.27732,2.4749 -2.50048,0.008 -4.26382,-0.6215 -5.29002,-1.88786 -1.02621,-1.26635 -1.52208,-3.21648 -1.48761,-5.85038 l 0,-17.878 -3.20203,0 0,18.62514 c -0.002,3.25763 0.77605,5.70807 2.33482,7.35133 1.55876,1.64327 3.91136,2.46601 7.05781,2.46823 2.07463,0.004 3.87577,-0.41804 5.40342,-1.26747 1.52762,-0.84942 2.82177,-2.15247 3.88246,-3.90914 l 0,4.42947 3.0953,0 z"
         style="font-family:Swiss 721 Light;-inkscape-font-specification:'Swiss 721 Light, Light'"
         id="path5961"
         inkscape:connector-curvature="0" />
      <path
         d="m 406.29156,790.83917 3.20203,0 0,-16.33035 c 0.0345,-2.90627 0.80606,-5.16548 2.3148,-6.77763 1.50873,-1.61211 3.5478,-2.43041 6.11722,-2.45489 2.76173,-0.006 4.61624,0.67267 5.56352,2.03462 0.94725,1.362 1.38753,3.44109 1.32084,6.23729 l 0,17.29096 3.20203,0 0,-17.66453 c 0.02,-1.46202 -0.0334,-2.75395 -0.1601,-3.87579 -0.12677,-1.1218 -0.44698,-2.10687 -0.96061,-2.95521 -0.76051,-1.23631 -1.85453,-2.19247 -3.28208,-2.86848 -1.42759,-0.67596 -3.10866,-1.0184 -5.0432,-1.02732 -4.04702,3e-5 -7.10673,1.70778 -9.17915,5.12325 l 0,-4.42948 -3.0953,0 z"
         style="font-family:Swiss 721 Light;-inkscape-font-specification:'Swiss 721 Light, Light'"
         id="path5963"
         inkscape:connector-curvature="0" />
      <path
         d="m 459.34226,752.46818 -3.20203,0 0,15.47648 c -0.98843,-1.81669 -2.28036,-3.18644 -3.87579,-4.10927 -1.59548,-0.92278 -3.48778,-1.3853 -5.67693,-1.38755 -3.75906,0.0334 -6.74095,1.31419 -8.94568,3.84244 -2.20473,2.52829 -3.33211,6.10388 -3.38214,10.7268 0.0478,4.62294 1.15295,8.19853 3.31544,10.7268 2.16247,2.52827 5.09544,3.80908 8.79891,3.84243 2.16469,0 4.06589,-0.45362 5.70361,-1.36086 1.63769,-0.90724 2.99188,-2.2681 4.06258,-4.08259 l 0,4.69631 3.20203,0 z m -21.7738,24.5489 c 0.02,-3.80462 0.84719,-6.70868 2.48157,-8.7122 1.63436,-2.00346 3.95583,-3.01299 6.96441,-3.02858 2.98299,0.0156 5.28889,1.02512 6.91772,3.02859 1.62879,2.00351 2.45376,4.90757 2.47491,8.71219 -0.0178,3.82799 -0.83611,6.73872 -2.45489,8.7322 -1.61883,1.99349 -3.9314,2.99634 -6.93774,3.00857 -2.96189,-0.0222 -5.27001,-1.0451 -6.92439,-3.06861 -1.65439,-2.0235 -2.49492,-4.91422 -2.52159,-8.67216 z"
         style="font-family:Swiss 721 Light;-inkscape-font-specification:'Swiss 721 Light, Light'"
         id="path5965"
         inkscape:connector-curvature="0" />
      <path
         d="m 469.00627,774.98912 c 0.19678,-3.06637 1.08401,-5.44565 2.66169,-7.13786 1.57765,-1.69216 3.62562,-2.55048 6.14389,-2.57496 2.51047,0.0212 4.52063,0.8728 6.03049,2.55495 1.50983,1.6822 2.34591,4.06816 2.50826,7.15787 z m 0,2.61499 20.65309,0 0,-1.06734 c -0.0311,-4.53285 -1.07626,-8.00839 -3.13532,-10.42661 -2.0591,-2.41817 -4.94537,-3.63895 -8.65882,-3.66232 -3.79909,0.0278 -6.76763,1.30641 -8.90565,3.83576 -2.13802,2.52941 -3.22538,6.14281 -3.26207,10.84021 0.0356,4.61849 1.11182,8.1763 3.22872,10.67343 2.11689,2.49714 5.06097,3.76016 8.83226,3.78907 3.21536,-0.0367 5.84369,-0.88389 7.885,-2.54161 2.04127,-1.65771 3.25538,-3.9058 3.64231,-6.74427 l -3.20203,0 c -0.34802,2.04352 -1.23969,3.62674 -2.67503,4.74967 -1.43537,1.12294 -3.24763,1.69219 -5.43678,1.70775 -2.70839,-0.0245 -4.86976,-0.98951 -6.48411,-2.89517 -1.61436,-1.90564 -2.44155,-4.60513 -2.48157,-8.09846 z"
         style="font-family:Swiss 721 Light;-inkscape-font-specification:'Swiss 721 Light, Light'"
         id="path5967"
         inkscape:connector-curvature="0" />
      <path
         d="m 495.86618,790.83917 3.20203,0 0,-15.36974 c 0.006,-3.20646 0.71489,-5.62577 2.12802,-7.25794 1.4131,-1.63212 3.49664,-2.45041 6.25062,-2.45489 l 0.42694,0 0,-3.30876 -0.37357,0 c -2.0035,-0.009 -3.72015,0.43586 -5.14993,1.33418 -1.42981,0.89837 -2.55941,2.30371 -3.38882,4.216 l 0,-4.85641 -3.09529,0 z"
         style="font-family:Swiss 721 Light;-inkscape-font-specification:'Swiss 721 Light, Light'"
         id="path5969"
         inkscape:connector-curvature="0" />
      <path
         d="m 513.08482,790.83917 3.20203,0 0,-27.69756 -3.20203,0 z m 0,-33.56795 3.20203,0 0,-4.80304 -3.20203,0 z"
         style="font-family:Swiss 721 Light;-inkscape-font-specification:'Swiss 721 Light, Light'"
         id="path5971"
         inkscape:connector-curvature="0" />
      <path
         d="m 524.24286,790.83917 3.20203,0 0,-16.33035 c 0.0345,-2.90627 0.80606,-5.16548 2.3148,-6.77763 1.50872,-1.61211 3.54779,-2.43041 6.11721,-2.45489 2.76173,-0.006 4.61624,0.67267 5.56353,2.03462 0.94724,1.362 1.38752,3.44109 1.32083,6.23729 l 0,17.29096 3.20203,0 0,-17.66453 c 0.02,-1.46202 -0.0334,-2.75395 -0.1601,-3.87579 -0.12677,-1.1218 -0.44697,-2.10687 -0.96061,-2.95521 -0.7605,-1.23631 -1.85453,-2.19247 -3.28208,-2.86848 -1.42759,-0.67596 -3.10865,-1.0184 -5.04319,-1.02732 -4.04703,3e-5 -7.10674,1.70778 -9.17916,5.12325 l 0,-4.42948 -3.09529,0 z"
         style="font-family:Swiss 721 Light;-inkscape-font-specification:'Swiss 721 Light, Light'"
         id="path5973"
         inkscape:connector-curvature="0" />
      <path
         d="m 577.29352,763.14161 -3.20203,0 0,4.80305 c -2.13471,-3.67342 -5.33673,-5.50569 -9.60609,-5.49682 -3.73349,0.0367 -6.69981,1.3242 -8.89897,3.86245 -2.19918,2.5383 -3.32433,6.10722 -3.37548,10.70679 0.0445,4.62294 1.15629,8.19853 3.33545,10.7268 2.17915,2.52827 5.15882,3.80908 8.939,3.84243 4.21599,0.009 7.41802,-1.82337 9.60609,-5.49682 l 0,3.4155 c 10e-4,3.25985 -0.82832,5.71918 -2.48824,7.37801 -1.65996,1.65882 -4.1571,2.49046 -7.49142,2.49492 -2.35706,-0.0134 -4.19378,-0.48031 -5.51016,-1.40089 -1.3164,-0.92059 -2.05909,-2.21474 -2.22808,-3.88246 l -3.30876,0 c 0.21569,2.48601 1.29192,4.4517 3.22871,5.89707 1.93678,1.44535 4.56066,2.1836 7.87166,2.21474 4.32939,-0.003 7.59813,-1.07736 9.80622,-3.22204 2.20804,-2.1447 3.31541,-5.34006 3.3221,-9.58608 z m -21.7738,13.87547 c 0.0233,-3.82797 0.8572,-6.7387 2.50159,-8.73221 1.64436,-1.99346 3.95916,-2.99632 6.9444,-3.00857 2.95963,0.0156 5.25887,1.02512 6.8977,3.02859 1.6388,2.00351 2.47043,4.90757 2.49492,8.71219 -0.0278,3.80464 -0.86613,6.7087 -2.51493,8.71219 -1.64884,2.00349 -3.94141,3.01302 -6.87769,3.02858 -2.89185,-0.0222 -5.17996,-1.0451 -6.86436,-3.06861 -1.6844,-2.0235 -2.54495,-4.91422 -2.58163,-8.67216 z"
         style="font-family:Swiss 721 Light;-inkscape-font-specification:'Swiss 721 Light, Light'"
         id="path5975"
         inkscape:connector-curvature="0" />
      <path
         d="m 627.23246,778.29789 c -0.26798,3.30766 -1.41315,5.8715 -3.43552,7.69154 -2.02242,1.82005 -4.75526,2.74285 -8.19853,2.76842 -4.10261,-0.0278 -7.33132,-1.51985 -9.68614,-4.47617 -2.35483,-2.95631 -3.55559,-7.21011 -3.60228,-12.76142 0.0389,-5.49124 1.21521,-9.67833 3.5289,-12.5613 2.31368,-2.8829 5.53127,-4.33493 9.65279,-4.35609 3.26204,0.0278 5.89037,0.83945 7.885,2.43487 1.99457,1.59549 3.1553,3.808 3.48221,6.63754 l 3.46886,0 c -0.23463,-3.73122 -1.65997,-6.68865 -4.27604,-8.87229 -2.61613,-2.18357 -6.13614,-3.29983 -10.56003,-3.34879 -5.15995,0.0445 -9.23587,1.81008 -12.22775,5.29669 -2.9919,3.48669 -4.51954,8.42759 -4.58291,14.82273 0.0589,6.45077 1.56877,11.4406 4.52954,14.96949 2.96076,3.52891 7.01888,5.31671 12.17439,5.36341 4.57065,-0.0367 8.18404,-1.24413 10.8402,-3.6223 2.6561,-2.37817 4.14815,-5.70694 4.47617,-9.98633 z"
         style="font-family:Swiss 721 Light;-inkscape-font-specification:'Swiss 721 Light, Light'"
         id="path5977"
         inkscape:connector-curvature="0" />
      <path
         d="m 635.89514,777.01708 c 0.0256,4.66741 1.13516,8.24745 3.32877,10.74014 2.19361,2.49269 5.31781,3.75126 9.37261,3.77573 4.057,-0.0245 7.19009,-1.28304 9.39929,-3.77573 2.20916,-2.49269 3.32764,-6.07273 3.35547,-10.74014 -0.0278,-4.66961 -1.14631,-8.25855 -3.35546,-10.76683 -2.20921,-2.50823 -5.3423,-3.7757 -9.3993,-3.80241 -4.0548,0.0267 -7.179,1.29418 -9.37261,3.80241 -2.19361,2.50828 -3.30321,6.09722 -3.32877,10.76683 z m 3.30876,0 c 0.0245,-3.80462 0.85609,-6.70868 2.49492,-8.7122 1.6388,-2.00346 3.93804,-3.01299 6.8977,-3.02858 2.98521,0.0156 5.30001,1.02512 6.9444,3.02859 1.64436,2.00351 2.47822,4.90757 2.50159,8.71219 -0.0234,3.80242 -0.85723,6.69758 -2.50158,8.6855 -1.6444,1.98793 -3.9592,2.98857 -6.94441,3.00191 -2.95966,-0.0133 -5.2589,-1.01398 -6.89771,-3.00191 -1.63882,-1.98792 -2.47046,-4.88308 -2.49491,-8.6855 z"
         style="font-family:Swiss 721 Light;-inkscape-font-specification:'Swiss 721 Light, Light'"
         id="path5979"
         inkscape:connector-curvature="0" />
      <path
         d="m 689.29436,763.14161 -3.20203,0 0,16.38372 c -0.0278,2.88295 -0.79942,5.13549 -2.3148,6.75762 -1.51543,1.62214 -3.60786,2.44711 -6.27732,2.4749 -2.50048,0.008 -4.26382,-0.6215 -5.29002,-1.88786 -1.02621,-1.26635 -1.52208,-3.21648 -1.48761,-5.85038 l 0,-17.878 -3.20203,0 0,18.62514 c -0.002,3.25763 0.77605,5.70807 2.33482,7.35133 1.55876,1.64327 3.91136,2.46601 7.0578,2.46823 2.07464,0.004 3.87578,-0.41804 5.40343,-1.26747 1.52761,-0.84942 2.82177,-2.15247 3.88246,-3.90914 l 0,4.42947 3.0953,0 z"
         style="font-family:Swiss 721 Light;-inkscape-font-specification:'Swiss 721 Light, Light'"
         id="path5981"
         inkscape:connector-curvature="0" />
      <path
         d="m 697.03384,790.83917 3.20203,0 0,-16.33035 c 0.0345,-2.90627 0.80606,-5.16548 2.3148,-6.77763 1.50873,-1.61211 3.5478,-2.43041 6.11722,-2.45489 2.76173,-0.006 4.61623,0.67267 5.56352,2.03462 0.94725,1.362 1.38753,3.44109 1.32084,6.23729 l 0,17.29096 3.20203,0 0,-17.66453 c 0.02,-1.46202 -0.0334,-2.75395 -0.1601,-3.87579 -0.12677,-1.1218 -0.44698,-2.10687 -0.96061,-2.95521 -0.76051,-1.23631 -1.85453,-2.19247 -3.28208,-2.86848 -1.42759,-0.67596 -3.10866,-1.0184 -5.0432,-1.02732 -4.04702,3e-5 -7.10674,1.70778 -9.17915,5.12325 l 0,-4.42948 -3.0953,0 z"
         style="font-family:Swiss 721 Light;-inkscape-font-specification:'Swiss 721 Light, Light'"
         id="path5983"
         inkscape:connector-curvature="0" />
      <path
         d="m 745.38817,781.28645 c -0.37248,2.36373 -1.26861,4.1871 -2.68837,5.47013 -1.41981,1.28304 -3.20983,1.93234 -5.37007,1.94791 -2.7362,-0.0211 -4.92202,-1.04622 -6.5575,-3.07529 -1.63548,-2.02905 -2.47379,-4.93534 -2.51492,-8.71886 0.0422,-3.73012 0.87833,-6.59638 2.50825,-8.59878 1.62992,-2.00236 3.80018,-3.01411 6.5108,-3.03526 2.11466,0.0245 3.87577,0.62931 5.28335,1.81448 1.40754,1.18522 2.26141,2.80402 2.56162,4.85641 l 3.0953,0 c -0.20571,-2.87068 -1.28862,-5.16102 -3.24873,-6.87102 -1.96015,-1.70994 -4.524,-2.58605 -7.69154,-2.62833 -3.80576,0.0334 -6.80099,1.32753 -8.9857,3.88246 -2.18472,2.55498 -3.29876,6.1706 -3.34212,10.84688 0.0445,4.544 1.14295,8.064 3.29543,10.56003 2.15246,2.49602 5.0921,3.76127 8.81892,3.79574 3.31542,-0.03 5.98377,-0.94394 8.00507,-2.74174 2.02126,-1.79781 3.19534,-4.29939 3.52224,-7.50476 z"
         style="font-family:Swiss 721 Light;-inkscape-font-specification:'Swiss 721 Light, Light'"
         id="path5985"
         inkscape:connector-curvature="0" />
      <path
         d="m 754.70781,790.83917 3.20203,0 0,-27.69756 -3.20203,0 z m 0,-33.56795 3.20203,0 0,-4.80304 -3.20203,0 z"
         style="font-family:Swiss 721 Light;-inkscape-font-specification:'Swiss 721 Light, Light'"
         id="path5987"
         inkscape:connector-curvature="0" />
      <path
         d="m 766.18602,790.83917 3.20203,0 0,-38.37099 -3.20203,0 z"
         style="font-family:Swiss 721 Light;-inkscape-font-specification:'Swiss 721 Light, Light'"
         id="path5989"
         inkscape:connector-curvature="0" />
    </g>
  </g>
</svg>
