<?xml version="1.0" encoding="UTF-8" standalone="no"?>
<!-- Created with Inkscape (http://www.inkscape.org/) -->

<svg
   xmlns:dc="http://purl.org/dc/elements/1.1/"
   xmlns:cc="http://creativecommons.org/ns#"
   xmlns:rdf="http://www.w3.org/1999/02/22-rdf-syntax-ns#"
   xmlns:svg="http://www.w3.org/2000/svg"
   xmlns="http://www.w3.org/2000/svg"
   xmlns:sodipodi="http://sodipodi.sourceforge.net/DTD/sodipodi-0.dtd"
   xmlns:inkscape="http://www.inkscape.org/namespaces/inkscape"
   width="490"
   height="207.24323"
   id="svg4445"
   version="1.1"
   inkscape:version="0.48.5 r10040"
   sodipodi:docname="New document 4">
  <title
     id="title5226">Bases Conversion and Development Authority (BCDA)</title>
  <defs
     id="defs4447" />
  <sodipodi:namedview
     id="base"
     pagecolor="#ffffff"
     bordercolor="#666666"
     borderopacity="1.0"
     inkscape:pageopacity="0.0"
     inkscape:pageshadow="2"
     inkscape:zoom="1.2306122"
     inkscape:cx="245"
     inkscape:cy="103.62161"
     inkscape:document-units="px"
     inkscape:current-layer="layer1"
     showgrid="false"
     inkscape:snap-object-midpoints="true"
     inkscape:snap-center="true"
     fit-margin-top="0"
     fit-margin-left="0"
     fit-margin-right="0"
     fit-margin-bottom="0"
     inkscape:window-width="1366"
     inkscape:window-height="705"
     inkscape:window-x="-8"
     inkscape:window-y="-8"
     inkscape:window-maximized="1" />
  <metadata
     id="metadata4450">
    <rdf:RDF>
      <cc:Work
         rdf:about="">
        <dc:format>image/svg+xml</dc:format>
        <dc:type
           rdf:resource="http://purl.org/dc/dcmitype/StillImage" />
        <cc:license
           rdf:resource="" />
        <dc:title>Bases Conversion and Development Authority (BCDA)</dc:title>
      </cc:Work>
    </rdf:RDF>
  </metadata>
  <g
     inkscape:label="Layer 1"
     inkscape:groupmode="layer"
     id="layer1"
     transform="translate(4305.0714,-2378.8233)">
    <g
       id="g5179"
       transform="matrix(0.06255339,0,0,0.06255339,-4035.7746,2424.2993)">
      <path
         transform="matrix(0.75250001,0,0,0.79210528,-143.96282,-1116.9976)"
         d="m 4879.9998,926.64789 c 0,239.84941 -204.6698,434.28571 -457.1429,434.28571 -252.473,0 -457.1428,-194.4363 -457.1428,-434.28571 0,-239.84937 204.6698,-434.28571 457.1428,-434.28571 252.4731,0 457.1429,194.43634 457.1429,434.28571 z"
         sodipodi:ry="434.28571"
         sodipodi:rx="457.14285"
         sodipodi:cy="926.64789"
         sodipodi:cx="4422.8569"
         id="path5071"
         style="color:#000000;fill:#009246;fill-opacity:1;fill-rule:nonzero;stroke:none;stroke-width:5;marker:none;visibility:visible;display:inline;overflow:visible;enable-background:accumulate"
         sodipodi:type="arc" />
      <path
         id="path4559"
         d="m -1478.8214,-593.8085 c -253.25,14.125 -465.375,95.125 -634,242 -19.75,17.125 -68,65.375 -85.125,85.125 -141.125,162 -227,370 -247.75,599.625 -4.5,50.375 -5.875,121.125 -3.125,170.625 12.375,226.625 80.875,426.625 200.25,585.625 184.625,245.625 474.375,374.375 842.875,374.375 107.75,0 201.125,-11.375 297.5,-36.25 168.375,-43.25 315.75,-124.75 442.25,-244.5 l 13.625,-12.75 -124.625,-126.125 c -68.625,-69.25 -126,-127.375 -127.625,-129 l -2.875,-3.125 -12.875,12.5 c -70.375,67.75 -171,124.75 -276.75,156.75 -51.25,15.5 -104.375,25.625 -158,30 -35.625,3 -103.125,1.5 -147.5,-3.25 -175.875,-18.5 -317.375,-87 -418.875,-202.75 -85.5,-97.375 -139.75,-227.75 -156,-374.625 -8.875,-80 -5.875,-162.75 8.75,-238.125 32.875,-169.25 118.875,-311.5 244.25,-404.375 85.625,-63.375 186.25,-103 303.125,-119.25 40.125,-5.625 61,-6.875 112.5,-6.875 50.375,-0.125 65.75,0.75 102.75,5.625 138.75,18.25 269,78 365.25,167.25 l 13.75,12.75 10,-9.875 c 5.625,-5.5 61.375,-59.375 123.875,-119.625 62.625,-60.375 113.875,-110.375 114.125,-111.25 0.375,-1.5 -33.125,-33.125 -56,-52.75 -111.75,-95.75 -237.25,-165.25 -372,-206 -76,-23 -151.125,-36.375 -234.875,-41.875 -21.875,-1.375 -110.625,-1.375 -136.875,0.125 z"
         inkscape:connector-curvature="0"
         style="fill:#0038a8;fill-opacity:1;stroke:none" />
      <path
         id="path4561"
         d="m 2199.1786,-552.4335 c -2.5,5 -231.75,449.75 -509.5,988.25 -277.625,538.5 -505.25,980 -505.625,981 -0.5,1.5 26.75,1.75 210.125,1.5 l 210.75,-0.375 299.75,-586.5 c 164.75,-322.625 300,-586.125 300.375,-585.625 1,1 408.625,808.75 408.625,809.625 0,0.375 -146.125,0.625 -324.75,0.625 l -324.75,0 -94.5,180.875 -94.5,181 363.125,0.375 c 199.75,0.125 526.125,0.125 725.375,0 l 362.375,-0.375 -510.125,-989.75 c -280.625,-544.25 -510.625,-989.625 -511.125,-989.625 -0.625,0 -3.125,4.125 -5.625,9 z"
         inkscape:connector-curvature="0"
         style="fill:#0038a8;fill-opacity:1;stroke:none" />
      <path
         id="path4563"
         d="m -4305.0714,431.0665 0,987.625 507.875,-0.5 c 367.5,-0.375 512.625,-0.875 525.25,-1.875 67.75,-5.625 95.25,-8.75 135,-15.375 290.875,-48.625 459.25,-198.125 498.625,-442.375 6.125,-37.375 9.5,-79 9.5,-115.625 0,-102.75 -44.25,-222 -114.75,-309.375 -22.125,-27.25 -56.625,-59.75 -84.625,-79.5 -31.125,-22.125 -72.125,-43 -104,-53.125 -5,-1.625 -9.125,-3.125 -9.125,-3.625 0,-0.375 8.25,-4.75 18.5,-9.875 33.125,-16.5 60.125,-33.625 87.5,-55.375 18.875,-15.125 47,-43 60.875,-60.375 46.875,-58.625 75.5,-129 83.875,-206.875 2.5,-22.75 2.75,-75.75 0.625,-103.125 -11.375,-142.5 -58.625,-253.125 -145.125,-339.375 -99.375,-99.25 -245.875,-158.375 -432.25,-174.375 -47.75,-4.125 -80.75,-4.375 -558,-4.375 l -479.75,0 0,987.5 z m 998.75,-644 c 71,10.25 124.125,32.75 168.375,71.375 37.375,32.625 64.75,79.875 75.5,130.125 4.125,19.125 4.125,56.875 0.125,77.125 -12,60.125 -46.125,103.25 -105,132.75 -40,20 -93.875,32.5 -157.75,36.375 -12.875,0.75 -131.625,1.25 -316.5,1.25 l -296,0 0,-226.25 0,-226.375 306,0.5 305.875,0.375 19.375,2.75 z m -20.625,779.625 c 101.375,10.75 199.375,53.375 258.75,112.5 20.625,20.625 37,43.125 48.125,66.25 7.75,16.25 11.5,26.75 15.75,45 3.375,14.25 3.625,16.5 3.5,44.375 0,25.625 -0.25,30.875 -2.625,41.625 -5.5,24.25 -13.875,44.75 -26.375,64 -48.5,75.125 -158.75,121.75 -306.5,129.375 -15,0.75 -136,1.25 -312.75,1.25 l -288.5,0 0,-253.125 0,-253.125 296.625,0 c 253.125,0 299,0.25 314,1.875 z"
         inkscape:connector-curvature="0"
         style="fill:#0038a8;fill-opacity:1;stroke:none" />
      <path
         id="path4565"
         d="m -498.8214,431.0665 0,987.625 422.25,-0.5 c 318.75,-0.25 426.625,-0.75 440.25,-1.875 61.375,-5.25 102.375,-10.375 144.625,-18.375 130.875,-24.875 247.125,-71 349.5,-139 239.375,-158.875 385.625,-432.875 404.625,-758.5 1.625,-27.5 1.625,-105.5 0,-131.875 -9.875,-161.375 -46.5,-302 -112.625,-432.5 -42.75,-84.375 -93.375,-155.375 -157.375,-220.5 -54.375,-55.375 -106,-96 -171.25,-135 -138.75,-83 -300.75,-127.625 -491.875,-135.75 -17.125,-0.75 -191,-1.25 -428.375,-1.25 l -399.75,0 0,987.5 z m 818.125,-632.5 c 161.125,8.875 292.25,61.625 391.125,157.5 99.375,96.25 162.125,234.375 178.75,393.75 16.375,155.5 -13.25,311.5 -82.125,431.25 -91.875,159.875 -245.875,254.125 -448.5,274.375 -37.875,3.75 -76.125,4.375 -280.75,4.375 l -206.625,0 0,-631.25 0,-631.25 212.25,0 c 130.375,0 221.25,0.5 235.875,1.25 z"
         inkscape:connector-curvature="0"
         style="fill:#0038a8;fill-opacity:1;stroke:none" />
      <path
         id="path4567"
         d="m -321.3214,1596.6915 c -31.5,4.5 -56.25,13.625 -80.25,29.625 -14.625,9.625 -35.375,30.375 -45,44.875 -24.25,36.25 -35.875,82.625 -32.25,128.125 3.875,49.75 20.5,88.625 50.625,118.625 24.125,24.25 50.25,38.25 85.625,46 49.5,11 100,6.375 141,-12.875 18,-8.5 49,-30.875 49,-35.375 0,-0.875 -10.375,-11.875 -23,-24.5 l -23,-23 -6.75,5.625 c -18.5,15.625 -38.75,24.875 -63.625,29.25 -13.875,2.375 -37.875,1.875 -51.75,-1.25 -45.125,-9.875 -74.875,-38.375 -86.5,-83.125 -4.625,-17.875 -5.375,-44.625 -1.625,-62.625 10.25,-49.75 42.75,-82.75 91.25,-92.75 16.25,-3.375 46.875,-2.625 61.875,1.5 17.5,4.75 35.125,14 48,25.25 l 5.375,4.625 23,-22.125 23,-22.125 -4.125,-4.125 c -14.75,-15.625 -42.375,-32.625 -66.5,-41.125 -20,-7 -33.5,-9.25 -58.75,-9.75 -16.125,-0.375 -27.625,0 -35.625,1.25 z"
         inkscape:connector-curvature="0"
         style="fill:#000000;stroke:none" />
      <path
         id="path4569"
         d="m 1540.0536,1601.6915 c -9.5,2.625 -17.25,8.625 -21.875,16.875 -3.625,6.375 -3.875,7.75 -3.875,18.75 0,11 0.25,12.375 3.875,18.75 7.125,12.5 22.625,20 37.5,18.125 9.5,-1.125 21.125,-7.25 25.625,-13.5 8.25,-11.5 9.5,-28.375 3,-41.625 -7.125,-14.625 -26.625,-22.25 -44.25,-17.375 z"
         inkscape:connector-curvature="0"
         style="fill:#000000;stroke:none" />
      <path
         id="path4571"
         d="m -2038.8214,1781.6915 0,179.375 96,0 c 58.625,0 100,-0.5 106.5,-1.25 54.375,-6.75 87.125,-30.375 98.75,-71.25 1.75,-6.125 2.875,-14.75 3.375,-25 0.625,-13.375 0.375,-17.125 -2,-26.25 -6.5,-26.125 -22.75,-47.5 -44.125,-57.875 l -8.25,-4.125 5.875,-3.25 c 16.75,-9.5 29.125,-24.25 34.625,-41.5 2.875,-8.75 3.375,-12.25 3.25,-25.75 0,-29.875 -8.125,-51.625 -25.875,-69.5 -17.5,-17.75 -39.125,-27.5 -69.75,-31.625 -6.25,-0.875 -44.25,-1.375 -104.125,-1.375 l -94.25,0 0,179.375 z m 188.5,-115 c 10.25,2.5 16.75,5.875 24.125,12.75 15.75,14.625 17.75,36.875 4.75,51 -5.375,5.875 -12.125,9.625 -22.75,12.875 -5.375,1.625 -16.5,2 -66.75,2.375 l -60.375,0.5 0,-40.625 0,-40.75 56.625,0 c 45.5,0 58,0.375 64.375,1.875 z m 2.125,142.25 c 18.5,5.25 35.875,17.25 41.625,28.75 5.375,10.75 5.75,24 0.875,33.375 -5,9.75 -19,18.875 -35.75,23.375 -6.875,1.75 -16.625,2.125 -68.875,2.5 l -61,0.5 0,-45.75 0,-45.75 57.875,0.375 c 49.75,0.5 58.75,0.75 65.25,2.625 z"
         inkscape:connector-curvature="0"
         style="fill:#000000;stroke:none" />
      <path
         id="path4573"
         d="m 3157.4286,1670.1915 0,67.75 -8.75,-8.375 c -10.875,-10.375 -28.5,-19.5 -46.875,-24.25 -11.625,-3 -14,-3.125 -33.125,-2.625 -16.75,0.5 -22.875,1.125 -32.625,3.75 -44.25,11.625 -73.25,41.25 -85,86.75 -3.75,15.125 -5.5,39 -3.875,56.25 3.375,35.25 13.875,59 35.875,81 22,22 45.125,32.375 79.75,35.875 25.625,2.625 50.5,-1.875 68.25,-12.375 8.125,-4.875 20.125,-15.5 24.75,-22.125 l 2.5,-3.625 1.5,14.25 c 0.875,7.875 1.875,15.25 2.125,16.375 0.625,2.125 3.125,2.25 30,2.25 l 29.25,0 0,-179.375 0,-179.375 -31.875,0 -31.875,0 0,67.875 z m -53,95.125 c 18.375,5.875 33.875,19.375 41.875,36.375 6,12.75 7.75,22 7,36.875 -1.25,27.25 -14.375,48.5 -36.75,60.25 -29.75,15.75 -64.25,10.5 -87,-13.25 -11.125,-11.625 -19.5,-33.75 -19.5,-51.375 0,-2.75 0.75,-9.5 1.75,-15 7.625,-42.875 49.75,-67.375 92.625,-53.875 z"
         inkscape:connector-curvature="0"
         style="fill:#000000;stroke:none" />
      <path
         id="path4575"
         d="m -1023.8214,1701.1915 c -46.375,5.375 -83.375,30.875 -101.875,70.125 -20.375,43.25 -16.25,104.125 9.375,142.375 12.25,18.25 34.125,35.5 55.375,43.625 27.5,10.625 60.75,13.5 93.125,8 28,-4.75 59.25,-19.5 73.75,-34.5 l 4.125,-4.375 -20.25,-20 -20.25,-20 -5.75,4.375 c -14,10.75 -35.25,17.625 -57.75,18.625 -31.125,1.5 -56,-8.875 -70,-29.125 -3.125,-4.5 -8.625,-18.375 -8.625,-21.75 0,-0.875 32.25,-1.375 98.5,-1.5 l 98.375,-0.375 0.375,-20 c 0.25,-11 -0.25,-24.625 -1,-30.25 -7,-53.875 -37.25,-89.25 -86.5,-101.5 -18.75,-4.75 -40.875,-6 -61,-3.75 z m 43.5,58 c 10.75,2.5 21.875,8.5 28.625,15.125 5.875,5.875 12.5,18.375 13.75,26 l 0.75,4.5 -67.125,0 -67.125,0 0.875,-2.875 c 6.25,-20.25 25.25,-37.25 47.5,-42.625 9.875,-2.375 32.875,-2.5 42.75,-0.125 z"
         inkscape:connector-curvature="0"
         style="fill:#000000;stroke:none" />
      <path
         id="path4577"
         d="m 850.5536,1701.3165 c -34.625,3.875 -67.5,21.125 -86.75,45.625 -9.75,12.375 -19.125,31.25 -23.5,47.25 -3.125,11.75 -3.375,14.125 -3.375,39.375 0,25 0.25,27.75 3.25,38.875 14.125,52 48.125,82.875 102.875,93.125 15.375,3 47.25,2.875 62.5,0 30.375,-5.75 56.25,-17.5 73.5,-33.375 l 6,-5.5 -20.625,-20.5 -20.5,-20.5 -5.5,4.625 c -6.75,5.875 -17.125,10.875 -31.625,15.25 -10,3 -13.375,3.375 -30,3.5 -14.375,0.125 -20.625,-0.375 -26.75,-2.125 -24.5,-6.75 -41.5,-22.375 -47,-43.5 l -1.625,-6.125 98.5,0 98.5,0 1,-9.625 c 2.875,-31.25 -4.875,-70.5 -18.375,-93.25 -6.25,-10.625 -20.5,-25.75 -30.375,-32.5 -25.375,-17.25 -62.5,-24.875 -100.125,-20.625 z m 43.75,57.875 c 11.75,3 22.125,8.75 28.625,15.625 6,6.375 12.375,18.5 13.75,25.875 l 0.75,4.125 -67.5,0 -67.5,0 1.375,-3.375 c 8,-21.25 25,-36.25 47.375,-42.125 9.375,-2.5 33.625,-2.5 43.125,-0.125 z"
         inkscape:connector-curvature="0"
         style="fill:#000000;stroke:none" />
      <path
         id="path4579"
         d="m -1304.8214,1703.0665 c -40.875,6.875 -70,29.375 -77.125,59.5 -5.5,23.375 0.25,47.25 15.125,63.375 18.375,19.875 44.375,29.25 94.25,33.875 17.5,1.625 23.875,3.125 31.625,7.25 22.125,11.75 10.875,39.375 -18.75,46 -25.375,5.625 -69.125,-7 -93.875,-27.125 -4.375,-3.5 -8.375,-5.875 -9,-5.375 -2.25,2.5 -30,43.25 -30,44.25 0,0.5 3,3.75 6.625,7 29.75,26.875 61.25,38 108.25,38 29,0 46.875,-3.5 65.875,-12.625 20,-9.75 35.875,-27.125 41.875,-45.875 3.75,-11.875 4.625,-32 1.875,-44.5 -8.375,-37.5 -37.75,-55.375 -100.75,-61.25 -32.75,-3.125 -44.125,-7.25 -49.75,-18.25 -10.375,-20.125 11.25,-35.125 47.875,-33.375 21.375,1.125 35.25,5.625 49.125,16.125 4.375,3.375 8.125,6 8.375,6 0.25,0 8.5,-9.375 18.25,-20.75 l 17.875,-20.875 -3.75,-3 c -18.875,-15.625 -39.75,-24.875 -64.25,-28.5 -14.75,-2.25 -45.875,-2.25 -59.75,0.125 z"
         inkscape:connector-curvature="0"
         style="fill:#000000;stroke:none" />
      <path
         id="path4581"
         d="m -754.8214,1703.0665 c -23.625,4 -44.875,13.875 -58.5,27.375 -14.125,13.875 -20.5,29.25 -20.5,50 0,19.625 5.875,34.25 19.25,47.5 18,18 43.125,27.125 86.375,31.25 22.5,2.125 29,3.5 37.25,7.875 22.125,11.75 10.875,39.375 -18.75,46 -25.5,5.625 -69.5,-7.25 -94.75,-27.75 -3.875,-3.25 -7.5,-5.375 -8.125,-4.75 -2.25,2.5 -30,43.25 -30,44.25 0,0.5 3,3.75 6.625,7 29.75,26.875 61.25,38 108.25,38 29,0 46.875,-3.5 65.875,-12.625 20.25,-9.875 36,-27.25 42,-46.5 4.125,-13 4.125,-37.5 0,-50.5 -5.375,-17 -18.375,-31.625 -35.625,-40 -16.75,-8.125 -32.5,-11.75 -63.375,-14.625 -32.75,-3.125 -44.125,-7.25 -49.75,-18.25 -10.375,-20.125 11.25,-35.125 47.875,-33.375 7.625,0.375 17.125,1.625 21.25,2.75 10,2.5 23.75,9.375 30.25,14.875 2.75,2.5 5.5,4.5 5.75,4.5 0.375,0 8.75,-9.375 18.5,-20.875 l 17.75,-20.75 -3.625,-3 c -18.875,-15.625 -39.75,-24.875 -64.25,-28.5 -14.75,-2.25 -45.875,-2.25 -59.75,0.125 z"
         inkscape:connector-curvature="0"
         style="fill:#000000;stroke:none" />
      <path
         id="path4583"
         d="m 1160.5536,1702.1915 c -20.25,3.375 -35.875,12.25 -46.5,26.375 -2.5,3.375 -4.75,6 -5,5.875 -0.125,-0.25 -1.25,-6.375 -2.375,-13.75 l -2.125,-13.375 -29.125,0 -29.25,0 0,126.875 0,126.875 31.125,0 31.125,0 0.625,-73.5 c 0.375,-62.625 0.75,-74.375 2.5,-80.125 6.625,-22.25 20,-35.25 42.125,-40.875 6,-1.5 11.625,-1.875 21.875,-1.5 15.25,0.75 23.25,3.125 33.125,10.25 3.125,2.25 6.25,4.375 7.125,4.875 0.875,0.625 6.125,-8.125 15.25,-25.875 7.625,-14.75 13.875,-27.625 13.875,-28.5 0,-2.375 -11.75,-10.75 -21.125,-15 -12.875,-5.875 -25.25,-8.625 -42,-9.125 -8.25,-0.25 -17.75,0 -21.25,0.5 z"
         inkscape:connector-curvature="0"
         style="fill:#000000;stroke:none" />
      <path
         id="path4585"
         d="m 1341.8036,1703.0665 c -32.75,5.75 -57.625,20.5 -70.25,41.75 -5.875,9.75 -8.25,19.75 -8.375,35 0,11.875 0.375,15.875 2.75,22.75 11.5,33.5 42.875,50.875 102.25,56.625 36.625,3.5 47.5,8.875 48.875,24.125 1.125,11.25 -7.625,21.875 -23,27.875 -10.625,4.125 -31.25,4 -48.125,-0.5 -22.75,-6 -46.125,-17.5 -55.25,-27 -2.125,-2.125 -4.375,-3.875 -5,-3.875 -0.75,0 -5.125,5.5 -9.75,12.125 -4.5,6.75 -11.5,17 -15.5,22.75 l -7.25,10.375 7.5,6.75 c 17.375,15.75 37.125,26.75 57.875,32.25 17.75,4.75 32.5,6.125 58,5.375 18.75,-0.5 24.875,-1.125 34.625,-3.75 27,-7 46.125,-19.75 57.75,-38.375 8.5,-13.625 11.25,-23.75 11.125,-42.5 -0.125,-22.75 -5.5,-36.625 -19.5,-50.625 -15.625,-15.625 -37.125,-23.75 -72.75,-27.5 -38.875,-4 -46.125,-5.75 -54.625,-13.25 -12.375,-10.875 -9.625,-26 6,-33.625 24.125,-11.75 65,-6.5 87.25,11.25 3.5,2.75 6.875,4.875 7.25,4.75 1.25,-0.5 35,-40.125 35,-41.125 0,-1.5 -11.625,-10.375 -21.25,-16.125 -11.875,-7.125 -29.625,-13.25 -46,-15.625 -15.125,-2.375 -46.25,-2.25 -59.625,0.125 z"
         inkscape:connector-curvature="0"
         style="fill:#000000;stroke:none" />
      <path
         id="path4587"
         d="m -1607.4464,1704.9415 c -24,5 -44.125,15.375 -60.25,30.75 -25.625,24.5 -37.375,55.625 -37.375,98.625 0,29.5 4,48.75 14.375,70.125 18.375,37.375 54.25,60.25 100.25,64 24.5,2 41.75,-1.125 62.375,-11.125 13.125,-6.375 23.875,-14.875 30.75,-24.25 1.875,-2.625 3.625,-4.625 3.625,-4.375 0.125,0.25 0.875,7.5 1.625,16.125 l 1.375,15.625 30.375,0.375 30.25,0.25 0,-126.875 0,-126.875 -30.5,0 -30.375,0 -0.875,4.625 c -0.375,2.625 -0.75,8.25 -0.75,12.375 0,4.25 -0.375,9.375 -0.75,11.625 l -0.75,3.875 -3.5,-4.75 c -9.25,-12.875 -30.25,-25.5 -50,-30.25 -14.625,-3.375 -43.125,-3.375 -59.875,0.125 z m 61.125,56.875 c 23,6.875 39.625,23.25 47.5,46.75 3.875,11.625 4.75,31.625 2,44.25 -8.75,38.875 -42,62.25 -81,57 -31.25,-4.375 -53.5,-23.625 -61,-53.25 -3,-11.875 -3.25,-31.375 -0.625,-42.875 6.375,-26.75 27.5,-47.25 55,-53.25 10.625,-2.25 28.125,-1.625 38.125,1.375 z"
         inkscape:connector-curvature="0"
         style="fill:#000000;stroke:none" />
      <path
         id="path4589"
         d="m -23.0714,1703.5665 c -22.25,2.75 -40.125,9.125 -57.25,20.25 -25.75,16.75 -43.875,42.875 -52.375,75.375 -2.75,10.125 -3,13.75 -2.875,36.875 0.125,27.75 1.125,34 8.75,53.375 7.875,20.125 24.375,41.625 41.125,53.5 39,27.875 98.875,32.125 143.75,10.125 39.5,-19.375 63.375,-55.875 68.25,-104.625 6.875,-69.125 -35.5,-129 -100.75,-142.5 -13.375,-2.75 -36.625,-3.875 -48.625,-2.375 z m 33.625,59.375 c 43.375,11.375 64.875,65 43.625,109.125 -18.875,39.25 -72.75,48.875 -104.875,18.875 -14.5,-13.625 -22.125,-33.125 -22.125,-56.375 0.125,-22.25 7.25,-40.5 21.5,-54.875 12.375,-12.5 26.75,-18.375 45,-18.5 5.25,-0.125 12.75,0.75 16.875,1.75 z"
         inkscape:connector-curvature="0"
         style="fill:#000000;stroke:none" />
      <path
         id="path4591"
         d="m 1744.9286,1703.6915 c -54,6.25 -94,41.375 -109,95.75 -2.375,8.5 -2.75,13 -2.75,35.375 0,23.75 0.25,26.5 3.25,37.75 10.25,37.875 33,65.875 66.125,81.5 36.75,17.375 85.375,17.375 122.25,0 20.875,-9.875 37.25,-24.125 49.875,-43.25 27.75,-42.625 28.375,-104.5 1.375,-148.375 -26.25,-42.625 -76.25,-65 -131.125,-58.75 z m 34.125,59.25 c 19.875,5.125 34.5,17.625 44.5,37.75 10.75,21.5 10.125,51.375 -1.375,73.25 -5.25,10.125 -18.25,23 -27.625,27.5 -19,9.125 -42.75,9.125 -61.75,0 -9.75,-4.625 -22.625,-17.5 -27.75,-27.75 -8.5,-16.75 -11.25,-40.375 -6.875,-58.875 6,-25.75 24.375,-45.375 48.25,-51.75 8.75,-2.375 23.75,-2.5 32.625,-0.125 z"
         inkscape:connector-curvature="0"
         style="fill:#000000;stroke:none" />
      <path
         id="path4593"
         d="m 2427.5536,1704.9415 c -26.25,5.625 -45,15.625 -62.625,33.5 -24.375,24.625 -35,54 -35,96.25 0,46.875 14.125,82.125 42.625,106.125 28.875,24.375 77.5,34.5 115.625,24 19.5,-5.25 43.125,-20.75 50.125,-32.625 1.25,-2 2.5,-3.625 3,-3.625 0.375,0 1.25,7.125 1.875,15.875 l 1.125,16 30.375,0.375 30.25,0.25 0,-126.875 0,-126.875 -30.5,0 -30.375,0 -0.875,5.75 c -0.375,3.25 -0.75,9.375 -0.75,13.75 0,12.5 -0.25,12.5 -11.125,1.75 -7.75,-7.75 -11.875,-10.75 -21.375,-15.375 -17.75,-8.75 -23.375,-10 -48.75,-10.375 -18.25,-0.375 -23.75,0 -33.625,2.125 z m 61.125,56.875 c 25,7.375 43.25,27.25 49.5,53.625 3.125,13.375 1.875,34.625 -2.625,46.875 -11.375,31 -35.375,47.875 -68.125,47.875 -35.375,0 -62.875,-20.625 -71.25,-53.625 -3,-11.75 -3.25,-31.375 -0.625,-42.625 6.625,-28.25 28.875,-48.75 58.375,-54.125 8.875,-1.5 26.25,-0.5 34.75,2 z"
         inkscape:connector-curvature="0"
         style="fill:#000000;stroke:none" />
      <path
         id="path4595"
         d="m 291.6786,1705.3165 c -20.375,3.875 -36.375,12 -55.125,27.875 -4.25,3.625 -8,6.125 -8.25,5.625 -0.375,-0.5 -1.25,-7.75 -2.125,-16.25 l -1.625,-15.25 -28.5,0 -28.625,0 0,126.875 0,126.875 31.125,0 31.25,0 0.5,-71 c 0.5,-78.75 0.375,-77.25 9.25,-94.25 11.25,-21.625 31,-33.5 55.375,-33.5 29,0 48.5,15.25 57.125,44.625 1.875,6.375 2.25,15.75 2.625,80.625 l 0.375,73.5 31.875,0 31.875,0 -0.5,-77.875 c -0.375,-74.875 -0.5,-78.25 -3.25,-90.125 -5.625,-25.125 -13.875,-41.5 -29.25,-57.75 -14,-14.875 -29.625,-24.125 -48.625,-28.625 -11.375,-2.75 -34.75,-3.5 -45.5,-1.375 z"
         inkscape:connector-curvature="0"
         style="fill:#000000;stroke:none" />
      <path
         id="path4597"
         d="m 2059.3036,1705.5665 c -17.5,3.125 -35.75,12.375 -52.375,26.375 -10.875,9 -9.875,9.75 -12.125,-10.625 l -1.5,-14 -28.625,0 -28.5,0 0,126.875 0,126.875 31.875,0 31.875,0 0,-70.375 c 0,-58.75 0.375,-71.625 1.875,-77.75 6.125,-24.125 23.125,-42.5 44.875,-48.75 10.25,-3 29.875,-2.125 39.875,1.75 19,7.375 31.875,25.125 35.875,49.5 0.75,4.25 1.25,37.375 1.25,76.5 l 0,69.125 31.875,0 31.875,0 0,-70.625 c 0,-86.875 -1,-97.75 -11.375,-122.5 -19.375,-46.75 -65.75,-71.5 -116.75,-62.375 z"
         inkscape:connector-curvature="0"
         style="fill:#000000;stroke:none" />
      <path
         id="path4599"
         d="m 2779.1786,1705.3165 c -11.75,2.25 -16.875,4 -27.375,9.25 -10.875,5.375 -20.625,11.875 -29.125,19.625 -3.625,3.25 -6.75,5.75 -7,5.5 -0.25,-0.25 -1.25,-7.5 -2.125,-16.125 l -1.75,-15.625 -28.375,-0.375 -28.5,-0.25 0,126.875 0,126.875 31.25,0 31.25,0 0,-66.625 c 0.125,-74.125 0.5,-79.75 7.875,-95 11.5,-24.125 31.25,-37.125 56.375,-37.125 24.375,0 42,10.25 52.125,30.25 7.875,15.625 7.875,14.625 8.375,95 l 0.375,73.5 31.875,0 31.875,0 -0.5,-77.25 c -0.625,-85.25 -0.75,-86.625 -8.875,-109.625 -6.25,-17.625 -13.125,-28.25 -26.25,-41.25 -13.125,-13 -26.875,-21.125 -43.875,-25.625 -12.875,-3.375 -35.375,-4.375 -47.625,-2 z"
         inkscape:connector-curvature="0"
         style="fill:#000000;stroke:none" />
      <path
         id="path4601"
         d="m 434.3036,1709.8165 c 0.5,1.375 23,54.75 50.125,118.5 27.25,63.75 51.125,120 53.25,124.875 l 3.75,9.125 34.5,0 34.625,0 53,-125.125 c 29.125,-68.75 53.125,-126.125 53.5,-127.5 0.625,-2.375 -0.125,-2.375 -34,-2.125 l -34.625,0.375 -16.875,40.625 c -9.25,22.375 -25,63.125 -35,90.625 -10,27.5 -18.75,51.375 -19.375,53.125 -1,2.625 -4,-4.375 -20.375,-49.375 -10.625,-28.875 -27,-71.25 -36.5,-94 l -17.25,-41.625 -34.75,0 c -34.375,0 -34.75,0 -34,2.5 z"
         inkscape:connector-curvature="0"
         style="fill:#000000;stroke:none" />
      <path
         id="path4603"
         d="m 1518.6786,1834.1915 0,126.875 31.875,0 31.875,0 0,-126.875 0,-126.875 -31.875,0 -31.875,0 0,126.875 z"
         inkscape:connector-curvature="0"
         style="fill:#000000;stroke:none" />
      <path
         id="path4605"
         d="m 2655.5536,2125.8165 c -13.625,6.625 -19.25,16.125 -19.375,32.75 0,8.625 0.625,11.875 3,16.875 6,12.75 17.75,19.875 32.625,19.875 16.25,0 27,-5.625 33.75,-18 3.375,-6.25 3.75,-7.875 3.75,-18.75 0,-13.25 -2,-18.625 -9.5,-26.125 -6.875,-7 -13,-9.25 -25.5,-9.75 -10.375,-0.5 -11.875,-0.25 -18.75,3.125 z"
         inkscape:connector-curvature="0"
         style="fill:#000000;stroke:none" />
      <path
         id="path4607"
         d="m -2365.0714,2302.1915 0,178.875 74.875,0 c 91.25,0 103,-1 132.25,-10.625 41.25,-13.75 72.375,-40.875 91.625,-80 12.875,-26.125 18.5,-48.75 19.625,-79.375 2.5,-64.125 -21.75,-120.375 -66.125,-153.875 -12.25,-9.125 -36.5,-21.125 -51.25,-25.375 -26,-7.5 -25.875,-7.375 -116.875,-7.875 l -84.125,-0.5 0,178.75 z m 163,-111.75 c 23.375,4.125 40.5,12.75 55.875,28 10.875,10.875 18.25,22.5 23.75,37.75 15.375,41.875 9,89.75 -16.25,121.375 -12.5,15.75 -31.375,27.75 -53.25,33.75 -9.25,2.5 -13.375,2.75 -57.75,3.25 l -47.875,0.5 0,-113.25 0,-113.25 42.375,0 c 32.25,0 44.875,0.5 53.125,1.875 z"
         inkscape:connector-curvature="0"
         style="fill:#000000;stroke:none" />
      <path
         id="path4609"
         d="m -1120.0714,2302.3165 0,178.75 31.875,0 31.875,0 0,-178.75 0,-178.75 -31.875,0 -31.875,0 0,178.75 z"
         inkscape:connector-curvature="0"
         style="fill:#000000;stroke:none" />
      <path
         id="path4611"
         d="m 1002.4286,2300.4415 c -43.625,97.375 -79.5,177.75 -79.75,178.75 -0.375,1.625 4.375,1.875 36.625,1.625 l 37,-0.375 15.125,-33.5 15.25,-33.375 92.5,0.25 92.5,0.375 15,33.375 14.875,33.5 37.375,0 c 20.5,0 37.25,-0.25 37.25,-0.5 0,-0.25 -35.875,-80.625 -79.75,-178.5 l -79.875,-177.875 -37.375,-0.375 -37.375,-0.25 -79.375,176.875 z m 149.375,-24.375 c 17,38.875 31.125,71.375 31.5,72.125 0.5,1.25 -12.75,1.625 -63.875,1.625 -35.5,0 -64.5,-0.375 -64.5,-1 0,-0.5 14.5,-34 32.125,-74.5 22.875,-52.375 32.375,-72.875 33,-71.25 0.5,1.375 14.75,34.125 31.75,73 z"
         inkscape:connector-curvature="0"
         style="fill:#000000;stroke:none" />
      <path
         id="path4613"
         d="m 1832.4286,2302.3165 0,178.75 31.875,0 31.875,0 0,-69.125 c 0,-57.125 0.375,-70.375 1.875,-77 9.25,-38.875 45.625,-59.75 81.75,-47 11.5,4 21.375,13.25 27.125,25.375 6.25,13.375 6.75,19.625 6.75,96.625 l 0,71.125 32,0 31.875,0 -0.375,-78.5 c -0.5,-68.25 -0.875,-79.875 -2.75,-90.25 -8.75,-47 -32.125,-74.375 -71.375,-83.875 -15.625,-3.875 -43.125,-3.875 -57.25,0 -14.625,3.875 -28.25,11.5 -39.75,22.375 l -9.875,9.25 0,-68.25 0,-68.25 -31.875,0 -31.875,0 0,178.75 z"
         inkscape:connector-curvature="0"
         style="fill:#000000;stroke:none" />
      <path
         id="path4615"
         d="m 701.1786,2161.8165 c -14.125,1.5 -26,2.875 -26.5,2.875 -0.625,0.125 -1,14.75 -1,32.625 l 0,32.5 -23.125,0 -23.125,0 0,26.875 0,26.875 23,0 23.125,0 0.5,64.625 c 0.375,61.625 0.5,65.25 3.125,75.125 8.25,31.5 27.125,50.625 56.875,57.75 14.25,3.5 39,3.375 56,0 14.5,-3 26.125,-7 26.125,-9.125 0,-3.25 -17.25,-52.75 -18.25,-52.375 -0.625,0.125 -5.25,1.75 -10.375,3.5 -11.25,3.875 -24.25,4.375 -32.375,1.125 -6.25,-2.5 -14,-10.875 -16.5,-17.75 -1.375,-3.75 -1.875,-17.5 -2.125,-63.875 l -0.5,-59 35,0 35.125,0 0,-26.875 0,-26.875 -34.375,0 -34.375,0 0,-35.625 0,-35.625 -5.25,0.125 c -3,0.125 -16.875,1.5 -31,3.125 z"
         inkscape:connector-curvature="0"
         style="fill:#000000;stroke:none" />
      <path
         id="path4617"
         d="m 1682.4286,2161.8165 c -14.125,1.5 -26,2.875 -26.5,2.875 -0.625,0.125 -1,14.75 -1,32.625 l 0,32.5 -23.125,0 -23.125,0 0,26.875 0,26.875 23,0 23.125,0 0.375,64.625 c 0.5,61.875 0.625,65.25 3.25,74.75 8.875,32.625 28.625,52.125 59.5,58.75 14.75,3.25 45.875,2 61.75,-2.375 10.25,-2.875 15.75,-4.875 17.625,-6.625 0.375,-0.25 -3.25,-12.5 -8.125,-27.25 -6.875,-21.5 -9,-26.625 -10.5,-26 -10.125,4.375 -20.125,6.75 -28,6.875 -14.875,0 -24,-5.625 -29.75,-18.25 -2.875,-6.375 -2.875,-6.75 -3.25,-65.5 l -0.375,-59 35,0 35.125,0 0,-26.875 0,-26.875 -34.375,0 -34.375,0 0,-35.625 0,-35.625 -5.25,0.125 c -3,0.125 -16.875,1.5 -31,3.125 z"
         inkscape:connector-curvature="0"
         style="fill:#000000;stroke:none" />
      <path
         id="path4619"
         d="m 2812.4286,2161.6915 c -14.125,1.625 -26,3 -26.5,3 -0.625,0.125 -1,14.75 -1,32.625 l 0,32.5 -23.75,0 -23.75,0 0,26.875 0,26.875 23.75,0 23.75,0 0,62.125 c 0,56.875 0.25,63.25 2.5,74.125 6.125,29.625 23.125,49.875 50,59.25 9.375,3.25 12.75,3.75 28.375,4.25 20.75,0.625 33.75,-0.875 50.125,-6.125 10.75,-3.5 11.5,-4 10.75,-6.5 -0.5,-1.5 -4.375,-13.875 -8.875,-27.375 l -7.875,-24.625 -5.375,2.25 c -20.5,8.75 -41.125,6.625 -49.75,-5.25 -7.125,-9.875 -7.375,-12.125 -7.375,-74.875 l 0,-57.25 35,0 35,0 0,-26.875 0,-26.875 -35,0 -35,0 0,-35.625 0,-35.625 -4.625,0.125 c -2.625,0.125 -16.25,1.5 -30.375,3 z"
         inkscape:connector-curvature="0"
         style="fill:#000000;stroke:none" />
      <path
         id="path4621"
         d="m -1895.5714,2222.4415 c -32.125,4.375 -55.375,15.5 -75.875,36 -22.125,22.125 -32.875,46.125 -36.125,81 -4,43 9.25,84.5 35.5,110.75 26.125,26.125 63.5,38.625 109.5,36.625 26.125,-1 46.5,-6 67.625,-16.375 12.75,-6.25 19.625,-10.875 28.125,-18.625 l 6.125,-5.75 -20.375,-20 -20.25,-20 -6,4.625 c -8,6.125 -21.125,12 -34.625,15.5 -14.5,3.75 -39.25,4.125 -51.875,0.75 -22.75,-6.125 -39.875,-20.625 -46.375,-39.25 -1.25,-3.875 -2.375,-7.75 -2.375,-8.75 0,-1.375 17.125,-1.625 97.875,-1.875 l 97.75,-0.375 0,-25 c -0.125,-26.5 -1.5,-36.75 -7.375,-54.125 -13.5,-39.375 -43.375,-64.625 -87,-73.375 -11.75,-2.375 -42.75,-3.375 -54.25,-1.75 z m 46.625,57.875 c 20.75,5.75 34.375,18.875 39.5,38.25 l 1.625,6.25 -66.875,0 -66.75,0 0.75,-2.875 c 2.25,-7 9.375,-18.375 15.875,-24.875 8,-8 21.125,-14.875 32.25,-17.125 3.75,-0.75 8,-1.625 9.375,-1.875 4.625,-1.125 27.5,0.375 34.25,2.25 z"
         inkscape:connector-curvature="0"
         style="fill:#000000;stroke:none" />
      <path
         id="path4623"
         d="m -1308.8214,2221.8165 c -1.75,0.25 -7.375,1.125 -12.5,1.875 -42.5,6.25 -79.375,34.375 -95.125,72.625 -17.75,43.125 -13.25,99.875 10.875,136.25 23.625,35.5 64.625,54.75 116.5,54.75 39.75,0 79.5,-13.75 104,-36.125 l 5.625,-5.125 -20.625,-19.75 -20.625,-19.875 -6.25,4.625 c -8.125,6.125 -14,9 -26.25,12.875 -43.875,13.875 -88,1.25 -103,-29.375 -2.125,-4.375 -4.25,-10 -4.75,-12.625 l -0.75,-4.625 97.625,0 97.625,0 0.875,-5.875 c 1.5,-10.125 -0.375,-43.75 -3.25,-57 -10.5,-49.5 -41.875,-80.375 -91.25,-90.25 -9.25,-1.875 -42.625,-3.5 -48.75,-2.375 z m 41.25,58.625 c 21,6.375 36.75,22.25 39.625,40 l 0.75,4.375 -66.5,0 c -48.375,0 -66.375,-0.375 -66.375,-1.375 0,-0.75 1.875,-5.125 4.125,-9.75 8.25,-17 25.875,-30 46.5,-34.5 10.75,-2.25 32,-1.625 41.875,1.25 z"
         inkscape:connector-curvature="0"
         style="fill:#000000;stroke:none" />
      <path
         id="path4625"
         d="m 163.6786,2222.3165 c -58.125,8.125 -97.375,43.75 -109.5,99.25 -3,13.375 -3.625,41.375 -1.375,56.375 9.25,60.375 48.125,98.5 109.75,107.625 10.75,1.5 18.875,1.875 33,1.375 28.375,-1.125 50,-6.5 72.125,-18.125 11.25,-5.875 29.75,-19.5 29.75,-22 0,-0.75 -8.875,-10.25 -19.75,-21.125 l -19.625,-19.625 -6.375,4.75 c -11.25,8.375 -25.5,14.125 -42.875,17.125 -30,5.25 -59.75,-2.25 -76.375,-19.25 -7.125,-7.375 -12.875,-17.375 -14.875,-26.25 l -1.125,-5.125 97.875,0 97.75,0 0.875,-7.625 c 3,-29.125 -2.5,-63.125 -14.125,-86.75 -15.5,-31.5 -42.5,-51.25 -80.5,-58.75 -11.25,-2.25 -43.75,-3.375 -54.625,-1.875 z m 40.75,56.875 c 23.25,4.5 39.125,17.5 44.75,36.75 1.125,3.75 2,7.25 2,7.875 0,0.5 -29.75,1 -66.25,1 -52.125,0 -66.25,-0.375 -66.25,-1.625 0,-4 7.875,-17.375 14.125,-24.25 16.375,-17.5 43.625,-25.125 71.625,-19.75 z"
         inkscape:connector-curvature="0"
         style="fill:#000000;stroke:none" />
      <path
         id="path4627"
         d="m 2530.3036,2224.0665 c -16.125,3.125 -30.875,11.625 -40.25,23.375 -2.75,3.5 -5.375,6.375 -6,6.5 -0.5,0.125 -1.875,-5.375 -2.875,-12.25 l -2,-12.5 -29.625,-0.375 -29.625,-0.25 0,126.25 0,126.25 31.875,0 31.875,0 0,-71 c 0,-77.25 0.375,-80.875 7.125,-94.75 9.625,-19.875 33.75,-31.875 59.875,-30 12.5,0.875 22.375,4.25 32,10.875 4.125,2.75 8,4.625 8.5,4 1.625,-1.625 27.5,-52.375 27.5,-53.75 0,-1.875 -14,-11.375 -22.75,-15.25 -4.375,-2 -11.5,-4.5 -16,-5.75 -10.875,-2.875 -37.75,-3.625 -49.625,-1.375 z"
         inkscape:connector-curvature="0"
         style="fill:#000000;stroke:none" />
      <path
         id="path4629"
         d="m -900.0714,2224.3165 c -32.75,4.125 -57.75,15.5 -78.125,36.125 -15.875,15.75 -26.125,34.25 -32.875,59.25 -3,11 -3.25,14 -3.25,35.75 0.125,21.5 0.375,24.875 3.25,35.75 13.875,51.5 49.125,84.125 100.25,93 14.25,2.375 39.5,2.375 53.75,-0.125 67.5,-11.75 110.375,-70.875 103.375,-142.5 -5.75,-58.125 -43.5,-102 -98.5,-114.25 -10.75,-2.5 -38.5,-4.125 -47.875,-3 z m 35.5,60.5 c 27.625,8.625 47.375,38 47.25,70.625 0,48 -36.25,80.125 -80.625,71.375 -25.875,-5.125 -44.5,-23.75 -51.625,-52 -3,-11.625 -1.875,-35 2.125,-46.875 12,-35.75 47.25,-54.125 82.875,-43.125 z"
         inkscape:connector-curvature="0"
         style="fill:#000000;stroke:none" />
      <path
         id="path4631"
         d="m -588.8214,2225.4415 c -22.625,4.875 -44.25,17 -55.375,31.375 l -4.25,5.375 -1.5,-14.625 c -0.875,-8 -1.875,-15.625 -2.125,-16.875 -0.625,-2 -3.125,-2.125 -30,-2.125 l -29.25,0 0,178.75 0,178.75 31.875,0 31.875,0 0,-65.625 0,-65.5 5.625,5.5 c 11.125,11.25 27.375,19.125 48.875,23.875 13.5,3 43.5,3 57.25,0 56.375,-12.25 91.625,-54.125 97,-115.125 2.375,-27.25 -2.5,-54.75 -13.75,-77.5 -16.25,-32.875 -43.5,-54.625 -81,-64.625 -12.625,-3.25 -43.25,-4.25 -55.25,-1.625 z m 36.75,61.875 c 13,3.25 21,7.875 30.25,17 24.625,24.5 27.125,65.75 5.625,94.25 -24.625,32.75 -76.25,36.25 -105.5,7 -27.5,-27.5 -27.625,-74.25 -0.25,-101.375 4.125,-4.125 10.5,-9.125 14,-11 15.25,-8.125 37.75,-10.5 55.875,-5.875 z"
         inkscape:connector-curvature="0"
         style="fill:#000000;stroke:none" />
      <path
         id="path4633"
         d="m 2226.8036,2224.9415 c -51.375,6.625 -91.625,41.75 -105.125,91.75 -8.5,31.625 -5.875,69 7,97.5 8.875,19.625 25.625,39.625 42.875,51 10.5,7 24.5,13.125 38.25,16.875 11.125,3 14,3.25 37.625,3.25 23.625,0 26.5,-0.25 37.625,-3.25 23.875,-6.5 42.125,-17.125 58.125,-33.75 16.25,-16.875 25.875,-34.75 32,-59.375 2.375,-9.5 2.75,-14.25 2.75,-34.125 -0.125,-20.875 -0.375,-24.375 -3.375,-35.25 -17.5,-65.5 -76.875,-103.625 -147.75,-94.625 z m 30.625,57.375 c 33.875,5.25 59.25,39.625 57.125,77.5 -1.25,24 -10.875,43.625 -27.375,55.75 -23.125,17 -57.125,16.75 -80.125,-0.5 -10,-7.5 -18.375,-20 -23,-34 -3.125,-9.5 -3.5,-12.375 -3.375,-26.25 0,-13.375 0.5,-17 3.375,-25.75 8.125,-24.625 26.875,-42 50.25,-46.125 11.125,-2.125 13.25,-2.125 23.125,-0.625 z"
         inkscape:connector-curvature="0"
         style="fill:#000000;stroke:none" />
      <path
         id="path4635"
         d="m -288.5714,2227.3165 c -14.25,3.75 -25.375,10.375 -34.5,20.125 l -7.875,8.5 -1.5,-12 c -0.875,-6.625 -1.875,-12.75 -2.25,-13.75 -0.5,-1.25 -6.5,-1.625 -29.875,-1.625 l -29.25,0 0,126.25 0,126.25 31.875,0 31.875,0 0,-72.25 c 0,-78.125 0.25,-80.375 7,-94.75 4.75,-10.125 15.375,-20.875 25.25,-25.75 7.625,-3.75 9.25,-4.125 20.25,-4.125 10.25,0 12.875,0.5 19,3.375 9.75,4.5 19,13.5 23.5,22.75 8.125,16.375 7.875,14.125 8.375,96 l 0.5,74.75 31.125,0 31.125,0 0.375,-74.125 c 0.5,-72.125 0.5,-74.25 3.125,-82.125 9,-26.5 29,-41.25 54.25,-39.75 20.625,1.25 33.75,13.125 40.75,36.875 1.875,6.375 2.125,16.375 2.625,83.125 l 0.375,76 31.25,0 31.125,0 0,-77.875 c 0,-44.75 -0.625,-81.5 -1.25,-86.5 -2.125,-14.75 -6.125,-28.25 -11.875,-40 -15,-30.75 -40.125,-46.75 -79.75,-50.75 -15,-1.5 -34.25,0 -46.125,3.375 -16.125,4.75 -34.625,17.75 -44.75,31.5 -3.125,4.25 -5.875,7.625 -6.25,7.625 -0.375,0.125 -2.125,-2.625 -3.875,-5.875 -8.875,-16.125 -22.5,-27.25 -40.5,-33.5 -8.625,-3 -12.25,-3.5 -27.5,-3.875 -14.375,-0.25 -19.125,0.125 -26.625,2.125 z"
         inkscape:connector-curvature="0"
         style="fill:#000000;stroke:none" />
      <path
         id="path4637"
         d="m 482.1786,2226.0665 c -18.125,3.125 -35.75,11.625 -53,25.5 l -11.375,9.25 -1.5,-14 c -0.875,-7.625 -1.875,-14.875 -2.125,-16.125 -0.625,-1.875 -3.125,-2.125 -28.75,-2.125 l -28,0 0,126.25 0,126.25 31.125,0 31.25,0 0.375,-71.625 c 0.375,-65.125 0.625,-72.125 2.75,-78.375 11.125,-33.625 38.5,-52.25 70,-47.75 24,3.5 39.25,17.125 47.75,42.75 2.125,6.25 2.375,13.25 2.75,80.875 l 0.375,74.125 31.875,0 31.75,0 0,-65.5 c 0,-35.875 -0.625,-72.5 -1.25,-81.125 -4.875,-60.125 -37.75,-100.25 -88.75,-108.375 -9.25,-1.375 -26.625,-1.375 -35.25,0 z"
         inkscape:connector-curvature="0"
         style="fill:#000000;stroke:none" />
      <path
         id="path4639"
         d="m 2641.1786,2354.1915 0,126.875 31.875,0 31.875,0 0,-126.875 0,-126.875 -31.875,0 -31.875,0 0,126.875 z"
         inkscape:connector-curvature="0"
         style="fill:#000000;stroke:none" />
      <path
         id="path4641"
         d="m -1727.5714,2228.9415 c 0,0.25 24.125,57.125 53.625,126.625 l 53.75,126.125 34.125,0.375 34.125,0.25 52.75,-124.625 c 29,-68.625 53.125,-125.75 53.625,-127 0.75,-2 -1.25,-2.125 -33.875,-1.875 l -34.75,0.375 -17,41.375 c -9.375,22.75 -25.5,64.5 -35.75,92.75 -10.375,28.25 -18.875,51.125 -19.125,50.875 -0.25,-0.125 -8.75,-23.375 -19,-51.375 -10.375,-28.125 -26.5,-69.875 -35.875,-92.625 l -17.25,-41.625 -34.625,0 c -19.125,0 -34.75,0.125 -34.75,0.375 z"
         inkscape:connector-curvature="0"
         style="fill:#000000;stroke:none" />
      <path
         id="path4643"
         d="m 1326.1786,2298.1915 c 0,38.375 0.625,75.125 1.25,81.625 5.75,54 32.5,89.875 76.375,102 6.125,1.75 12.625,2.25 28,2.375 17.125,0 21.375,-0.5 29.875,-2.875 14,-4 29.875,-12.625 42.125,-22.75 5.75,-4.875 10.875,-8.75 11.25,-8.75 0.375,0 1.5,7 2.375,15.625 l 1.625,15.625 28.5,0 28.625,0 0,-126.25 0,-126.25 -31.125,0 -31.25,0 -0.5,70.875 c -0.375,63.25 -0.625,71.875 -2.625,78.375 -9.875,33.375 -38.625,53.25 -70.25,48.625 -19.375,-2.75 -34.625,-13.625 -43,-30.75 -7.125,-14.75 -7.5,-18.25 -7.5,-96.25 l 0,-70.875 -31.875,0 -31.875,0 0,69.625 z"
         inkscape:connector-curvature="0"
         style="fill:#000000;stroke:none" />
      <path
         id="path4645"
         d="m 2946.1786,2229.6915 c 0,0.625 22.375,56.375 49.75,123.875 l 49.875,122.625 -23.5,54.625 -23.5,54.625 34.5,0.375 c 26.875,0.25 34.75,-0.125 35.5,-1.25 2,-3.25 152.375,-353.125 152.375,-354.5 0,-1.125 -9.125,-1.5 -34.625,-1.5 l -34.75,0 -24,57.875 c -13.125,31.75 -29.125,71.75 -35.5,88.875 l -11.5,31 -15.25,-44.75 c -8.375,-24.75 -22.125,-64.75 -30.75,-88.875 l -15.5,-44.125 -36.5,0 c -21.125,0 -36.625,0.5 -36.625,1.125 z"
         inkscape:connector-curvature="0"
         style="fill:#000000;stroke:none" />
    </g>
  </g>
</svg>
