<?xml version="1.0" encoding="UTF-8" standalone="no"?>
<!-- Created with Inkscape (http://www.inkscape.org/) -->

<svg
   xmlns:dc="http://purl.org/dc/elements/1.1/"
   xmlns:cc="http://creativecommons.org/ns#"
   xmlns:rdf="http://www.w3.org/1999/02/22-rdf-syntax-ns#"
   xmlns:svg="http://www.w3.org/2000/svg"
   xmlns="http://www.w3.org/2000/svg"
   xmlns:sodipodi="http://sodipodi.sourceforge.net/DTD/sodipodi-0.dtd"
   xmlns:inkscape="http://www.inkscape.org/namespaces/inkscape"
   width="480"
   height="480.00012"
   id="svg11135"
   version="1.1"
   inkscape:version="0.48.5 r10040"
   sodipodi:docname="Bureau of Agricultural Research (BAR).svg">
  <title
     id="title23595">Bureau of Agricultural Research (BAR)</title>
  <defs
     id="defs11137" />
  <sodipodi:namedview
     id="base"
     pagecolor="#ffffff"
     bordercolor="#666666"
     borderopacity="1.0"
     inkscape:pageopacity="0.0"
     inkscape:pageshadow="2"
     inkscape:zoom="1.0624998"
     inkscape:cx="458.72722"
     inkscape:cy="34.548661"
     inkscape:document-units="px"
     inkscape:current-layer="layer1"
     showgrid="false"
     inkscape:snap-object-midpoints="true"
     inkscape:snap-center="true"
     inkscape:snap-bbox="true"
     inkscape:bbox-paths="true"
     inkscape:bbox-nodes="true"
     inkscape:snap-bbox-edge-midpoints="true"
     inkscape:snap-bbox-midpoints="true"
     inkscape:object-paths="true"
     inkscape:snap-intersection-paths="true"
     inkscape:object-nodes="true"
     inkscape:snap-smooth-nodes="true"
     inkscape:snap-midpoints="true"
     inkscape:snap-global="true"
     showguides="true"
     inkscape:guide-bbox="true"
     fit-margin-top="0"
     fit-margin-left="0"
     fit-margin-right="0"
     fit-margin-bottom="0"
     inkscape:window-width="1366"
     inkscape:window-height="705"
     inkscape:window-x="-8"
     inkscape:window-y="-8"
     inkscape:window-maximized="1" />
  <metadata
     id="metadata11140">
    <rdf:RDF>
      <cc:Work
         rdf:about="">
        <dc:format>image/svg+xml</dc:format>
        <dc:type
           rdf:resource="http://purl.org/dc/dcmitype/StillImage" />
        <dc:title>Bureau of Agricultural Research (BAR)</dc:title>
        <cc:license
           rdf:resource="http://creativecommons.org/licenses/publicdomain/" />
      </cc:Work>
      <cc:License
         rdf:about="http://creativecommons.org/licenses/publicdomain/">
        <cc:permits
           rdf:resource="http://creativecommons.org/ns#Reproduction" />
        <cc:permits
           rdf:resource="http://creativecommons.org/ns#Distribution" />
        <cc:permits
           rdf:resource="http://creativecommons.org/ns#DerivativeWorks" />
      </cc:License>
    </rdf:RDF>
  </metadata>
  <g
     inkscape:label="Layer 1"
     inkscape:groupmode="layer"
     id="layer1"
     transform="translate(226.55199,-652.39185)">
    <path
       sodipodi:type="arc"
       style="color:#000000;fill:#ffffff;fill-opacity:1;stroke:none;stroke-width:0.18278196;marker:none;visibility:visible;display:inline;overflow:visible;enable-background:accumulate"
       id="path20747-1"
       sodipodi:cx="783.1806"
       sodipodi:cy="790.84198"
       sodipodi:rx="8.9703503"
       sodipodi:ry="246.33963"
       d="m 792.15095,790.84198 c 0,136.04962 -4.01616,246.33962 -8.97035,246.33962 -4.95418,0 -8.97035,-110.29 -8.97035,-246.33962 0,-136.04962 4.01617,-246.33963 8.97035,-246.33963 4.95419,0 8.97035,110.29001 8.97035,246.33963 z"
       transform="matrix(22.369311,0,0,0.81581156,-17505.765,245.96371)" />
    <path
       style="color:#000000;fill:#aa7f56;fill-opacity:1;stroke:none;stroke-width:0.18278196;marker:none;visibility:visible;display:inline;overflow:visible;enable-background:accumulate"
       d="m 39.928782,691.90925 0,116.60343 160.743928,155.03561 c 8.66853,-22.46697 13.43561,-46.88127 13.43561,-72.41127 0,-102.0017 -75.87185,-186.24955 -174.179538,-199.22777 z m 160.743928,271.63904 -374.45701,0 c 29.01763,75.20751 101.897828,128.55911 187.22851,128.55911 85.330683,0 158.21089,-53.3516 187.2285,-128.55911 z m -374.45701,0 160.526458,-155.03561 0,-116.55502 C -111.4585,705.03262 -187.2199,789.21157 -187.2199,891.13702 c 0,25.53 4.76708,49.9443 13.4356,72.41127 z"
       id="path20747"
       inkscape:connector-curvature="0" />
    <path
       style="color:#000000;fill:#009246;fill-opacity:1;fill-rule:nonzero;stroke:none;stroke-width:1.00899994;marker:none;visibility:visible;display:inline;overflow:visible;enable-background:accumulate"
       d="m 39.928782,691.90925 0,116.60343 0.604118,0.58084 156.12847,0 C 168.7738,746.70639 110.06483,701.17256 39.928782,691.90925 z m -53.186624,0.0242 c -70.040427,9.3283 -128.656248,54.83709 -156.515098,117.1601 l 155.910979,0 0.604119,-0.58084 0,-116.57922 z"
       id="rect20892"
       inkscape:connector-curvature="0" />
    <path
       style="color:#000000;fill:#ffffff;fill-opacity:1;stroke:none;stroke-width:0.9735691;marker:none;visibility:visible;display:inline;overflow:visible;enable-background:accumulate"
       d="m -13.261478,691.93952 0.0036,116.57318 -160.526452,155.03561 374.45697,0 -160.74389,-155.03561 0,-116.62763 c -15.045483,-3.04169 -46.1925418,-2.10909 -53.19026,0.0544 z"
       id="rect20896"
       inkscape:connector-curvature="0"
       sodipodi:nodetypes="cccccccc" />
    <path
       style="color:#000000;fill:#4b92db;fill-opacity:1;stroke:none;stroke-width:1.00899994;marker:none;visibility:visible;display:inline;overflow:visible;enable-background:accumulate"
       d="m -173.7843,963.54829 c 29.0161,75.21061 101.895598,128.55911 187.22851,128.55911 85.332912,0 158.21245,-53.3485 187.2285,-128.55911 l -374.45701,0 z"
       id="rect20860"
       inkscape:connector-curvature="0" />
    <path
       style="color:#000000;fill:#009246;fill-opacity:1;stroke:none;stroke-width:1.28168809;marker:none;visibility:visible;display:inline;overflow:visible;enable-background:accumulate"
       d="m -20.748916,930.65829 c -15.606285,0 -28.151937,12.70882 -28.151937,28.50951 l 0,4.18688 -0.07249,0 0,118.83002 c 19.649292,6.4365 40.6209973,9.9227 62.417557,9.9227 22.491901,0 44.114755,-3.6918 64.302409,-10.5278 l 0,-118.22492 -0.04831,0 0,-4.18688 c 0,-15.80069 -12.569814,-28.50951 -28.1761,-28.50951 l -18.051074,0 -18.727703,25.62951 -18.9693314,-25.62951 -14.5230166,0 z"
       id="rect18919-6"
       inkscape:connector-curvature="0" />
    <path
       style="color:#000000;fill:#9a6636;fill-opacity:1;stroke:none;stroke-width:1;marker:none;visibility:visible;display:inline;overflow:visible;enable-background:accumulate"
       d="m -13.195808,857.45311 0,40.10209 0.169154,0 c -0.0058,0.22804 -0.02416,0.44821 -0.02416,0.67764 0,14.68346 11.8959721,26.59759 26.557064,26.59759 14.661087,0 26.532896,-11.91413 26.532896,-26.59759 0,-0.22935 0.0054,-0.44967 0,-0.67764 l 0.04831,0 0,-40.10209 -53.283274,0 z"
       id="path18272"
       inkscape:connector-curvature="0" />
    <path
       sodipodi:type="arc"
       style="color:#000000;fill:#9a6636;fill-opacity:1;stroke:none;stroke-width:0.95492923;marker:none;visibility:visible;display:inline;overflow:visible;enable-background:accumulate"
       id="path18785"
       sodipodi:cx="674.84637"
       sodipodi:cy="846.21661"
       sodipodi:rx="23.115904"
       sodipodi:ry="23.633423"
       d="m 697.96228,846.21661 a 23.115904,23.633423 0 1 1 -46.23181,0 23.115904,23.633423 0 1 1 46.23181,0 z"
       transform="matrix(0.81878338,0,0,0.80207582,-634.55314,252.32984)" />
    <path
       style="color:#000000;fill:#9a6636;fill-opacity:1;stroke:none;stroke-width:0.90085036;marker:none;visibility:visible;display:inline;overflow:visible;enable-background:accumulate"
       d="m 112.60589,901.50007 c -4.44914,-0.002 -8.93217,2.42616 -12.17903,5.46956 -3.275947,3.07067 -5.840262,9.4097 -6.69364,14.7388 -1.172771,7.3236 -5.461231,15.92465 -5.461231,15.92465 l 11.429923,0 c 3.116218,3.3938 7.599108,5.54218 12.565668,5.54218 4.96588,0 9.42536,-2.14921 12.54151,-5.54218 l 12.13071,0 c 0,0 -4.28846,-8.60105 -5.46124,-15.92465 -0.85337,-5.3291 -3.44185,-11.66813 -6.7178,-14.7388 -3.24686,-3.0434 -7.71306,-5.46791 -12.15487,-5.46956 z"
       id="path18785-4"
       inkscape:connector-curvature="0" />
    <path
       style="fill:#009246;fill-opacity:1;stroke:none"
       d="m 13.579223,826.26185 c 0,0 -8.428911,10.38495 -14.07135284,13.43183 -15.18051416,8.1974 -30.51791616,8.735 -50.07971916,11.32227 -21.090241,3.02163 -36.228366,16.77456 -52.454741,32.28449 l 116.605813,0 116.605807,0 C 113.95867,867.79051 98.820539,854.03758 77.730284,851.01595 58.168495,848.42868 42.831086,847.89108 27.650575,839.69368 22.008143,836.6468 13.579223,826.26185 13.579223,826.26185 z"
       id="path18887"
       inkscape:connector-curvature="0" />
    <path
       style="color:#000000;fill:#009246;fill-opacity:1;stroke:none;stroke-width:1.05673575;marker:none;visibility:visible;display:inline;overflow:visible;enable-background:accumulate"
       d="m 84.996044,941.93624 c -11.971905,0 -21.603291,11.2648 -21.603291,25.26649 l 0,3.70286 -0.04831,0 0,114.93351 c 37.870437,-9.7085 71.432627,-30.21 97.214797,-58.0355 l 0,-56.89801 -0.0483,0 0,-3.70286 c 0,-14.00169 -9.63139,-25.26649 -21.60329,-25.26649 l -3.18975,0 c -0.35001,12.30095 -10.42048,22.16869 -22.78736,22.16869 -12.36676,0 -22.413009,-9.8679 -22.7632,-22.16869 l -5.171256,0 z"
       id="rect18919-1"
       inkscape:connector-curvature="0" />
    <path
       style="fill:#006c35;fill-opacity:1;stroke:none"
       d="m 40.557063,1007.2806 c -50.935631,0.1261 -20.782438,16.5129 -24.720543,67.6435 -0.231647,4.6886 -1.908673,11.666 -3.40723,17.1591 0.339495,0 0.675028,0.024 1.01492,0.024 22.046236,0 43.250817,-3.5619 63.094172,-10.1405 -0.503691,-2.5697 -0.86712,-5.0293 -0.966589,-7.0427 -4.062774,-52.7494 28.144157,-68.5088 -29.819311,-67.5951 -0.03375,-6e-4 -0.06294,5e-4 -0.09666,0 -1.778694,-0.028 -3.48624,-0.052 -5.098761,-0.048 z"
       id="path19001"
       inkscape:connector-curvature="0" />
    <path
       style="color:#000000;fill:#006c35;fill-opacity:1;stroke:none;stroke-width:0.97788739;marker:none;visibility:visible;display:inline;overflow:visible;enable-background:accumulate"
       d="m -108.53946,950.49284 c -11.97191,0 -21.60329,10.67927 -21.60329,23.95372 l 0,3.50999 -0.0483,0 -0.0183,53.48595 c 26.09826,29.6612 59.631525,45.3667 97.233052,55.2437 l 0,-108.72965 -0.04833,0 0,-3.50999 c 0,-13.27445 -9.631381,-23.95372 -21.603288,-23.95372 l -12.928143,0 -14.208875,12.86105 -14.378028,-12.86105 -12.396518,0 z"
       id="rect18919"
       inkscape:connector-curvature="0"
       sodipodi:nodetypes="ssccccccssccccs" />
    <path
       style="color:#000000;fill:#9a6636;fill-opacity:1;stroke:none;stroke-width:0.93622601;marker:none;visibility:visible;display:inline;overflow:visible;enable-background:accumulate"
       d="m 45.403716,965.24714 c -11.915752,0 -17.83166,14.99567 -20.322554,29.45338 l 9.641733,0 c 1.460609,4.51728 5.683897,7.79288 10.680821,7.79288 4.996924,0 9.220211,-3.2756 10.680821,-7.79288 l 9.641736,0 C 63.235375,980.24281 57.319468,965.24714 45.403716,965.24714 z"
       id="path18823"
       inkscape:connector-curvature="0" />
    <path
       sodipodi:type="arc"
       style="color:#000000;fill:none;stroke:none;stroke-width:0.18278196;marker:none;visibility:visible;display:inline;overflow:visible;enable-background:accumulate"
       id="path20747-9"
       sodipodi:cx="783.1806"
       sodipodi:cy="790.84198"
       sodipodi:rx="8.9703503"
       sodipodi:ry="246.33963"
       d="m 792.15095,790.84198 c 0,136.04962 -4.01616,246.33962 -8.97035,246.33962 -4.95418,0 -8.97035,-110.29 -8.97035,-246.33962 0,-136.04962 4.01617,-246.33963 8.97035,-246.33963 4.95419,0 8.97035,110.29001 8.97035,246.33963 z"
       transform="matrix(-0.65061678,-26.703858,-0.97092797,0.02372808,1290.8451,21787.186)" />
    <g
       style="font-size:50px;font-style:normal;font-variant:normal;font-weight:normal;font-stretch:normal;text-align:center;line-height:0%;letter-spacing:4px;word-spacing:0px;writing-mode:lr-tb;text-anchor:middle;fill:#000000;fill-opacity:1;stroke:none;font-family:Swiss 721;-inkscape-font-specification:'Swiss 721,'"
       id="text23471"
       transform="matrix(0.7732721,0,0,0.77445205,-51.365658,255.40875)">
      <path
         d="m -186.58664,778.84437 -35.73735,-3.9001 -1.70867,15.65684 c -0.39147,4.04801 0.25342,7.24094 1.93469,9.57881 1.68127,2.3378 4.11154,3.68858 7.2908,4.05234 2.29224,0.24384 4.22896,-0.0855 5.81016,-0.98798 1.58117,-0.90255 2.77169,-2.34438 3.57155,-4.3255 0.47377,1.57314 1.30725,2.84606 2.50043,3.81877 1.19315,0.97264 2.65474,1.55966 4.38477,1.76107 3.02986,0.33063 5.39725,-0.35407 7.10217,-2.05409 1.70487,-1.70007 2.75969,-4.41412 3.16448,-8.14214 z m -5.60507,5.27297 -0.94384,8.64854 c -0.22111,2.06419 -0.75903,3.57514 -1.61377,4.53286 -0.8548,0.95767 -2.05058,1.35319 -3.58736,1.18655 -1.77521,-0.19061 -3.00161,-0.85885 -3.67918,-2.00471 -0.67761,-1.14591 -0.89134,-2.79757 -0.64121,-4.955 l 0.92214,-8.44972 z m -14.41423,-1.57306 -0.98181,8.99647 c -0.2399,2.39011 -0.85028,4.14254 -1.83115,5.2573 -0.98089,1.1147 -2.45517,1.56575 -4.42285,1.35313 -1.88669,-0.20592 -3.2326,-0.93121 -4.03772,-2.17586 -0.80513,-1.24471 -1.08189,-3.01013 -0.8303,-5.29627 l 1.01978,-9.3444 z"
         style="font-size:50px;letter-spacing:4px"
         id="path23539"
         inkscape:connector-curvature="0" />
      <path
         d="m -189.82679,812.02234 -22.69692,0.35581 c -4.7055,0.0811 -8.23624,1.33445 -10.59222,3.7602 -2.35599,2.42573 -3.50041,5.97947 -3.43327,10.66124 0.0863,4.50849 1.35966,7.98266 3.82005,10.42251 2.46038,2.4398 6.01084,3.64053 10.65138,3.60219 l 22.69692,-0.35581 -0.094,-5.99919 -22.34696,0.35033 c -3.04732,0.0602 -5.33656,-0.56644 -6.86773,-1.88006 -1.53118,-1.31366 -2.31796,-3.38906 -2.36035,-6.22618 -0.0465,-2.83502 0.67494,-4.92572 2.16442,-6.27212 1.48947,-1.34642 3.75807,-2.03623 6.80581,-2.06941 l 22.34697,-0.35032 z"
         style="font-size:50px;letter-spacing:4px"
         id="path23541"
         inkscape:connector-curvature="0" />
      <path
         d="m -188.79333,847.39125 -35.59644,5.02622 0.83188,5.89149 14.65444,-2.06921 1.2653,8.96099 c 0.31683,2.28119 0.0444,3.85345 -0.81729,4.71679 -0.86172,0.8633 -2.22147,1.44032 -4.07924,1.73107 l -4.22974,0.79922 c -0.93336,0.16964 -1.78102,0.36507 -2.54298,0.5863 -0.76196,0.22118 -1.44012,0.54416 -2.03448,0.96895 l 0.93674,6.63411 1.03967,-0.1468 c 0.27571,-0.69225 0.73669,-1.16761 1.38293,-1.4261 0.64623,-0.25854 1.48507,-0.47166 2.51654,-0.63937 l 5.05741,-1.01708 c 1.91085,-0.32454 3.40133,-0.8548 4.47144,-1.59078 1.07008,-0.73602 1.75559,-1.96055 2.05656,-3.67357 0.86103,1.53106 2.06307,2.63845 3.60611,3.32215 1.54299,0.68365 3.33692,0.88691 5.3818,0.60978 3.11594,-0.46946 5.41336,-1.70698 6.89228,-3.71257 1.47885,-2.00563 2.00894,-4.5842 1.59028,-7.73572 -0.0121,-0.10036 -0.0333,-0.30987 -0.0635,-0.62854 -0.0303,-0.3187 -0.0812,-0.73862 -0.15263,-1.25977 z m -4.17545,6.54802 1.21636,8.61444 c 0.34739,2.22953 0.20107,3.97965 -0.43897,5.25038 -0.64011,1.27069 -1.97101,2.05193 -3.99273,2.34373 -2.05049,0.28951 -3.57662,-0.0883 -4.57839,-1.13349 -1.00181,-1.04521 -1.65255,-2.73328 -1.9522,-5.06423 l -1.19539,-8.46591 z"
         style="font-size:50px;letter-spacing:4px"
         id="path23543"
         inkscape:connector-curvature="0" />
      <path
         d="m -183.5554,880.93431 -34.73166,9.27799 6.82623,25.55361 5.21699,-1.39363 -5.30355,-19.85357 10.4823,-2.80017 4.73577,17.72812 4.87886,-1.3033 -4.73578,-17.72812 9.08144,-2.42596 5.1358,19.22559 5.07207,-1.35492 z"
         style="font-size:50px;letter-spacing:4px"
         id="path23545"
         inkscape:connector-curvature="0" />
      <path
         d="m -171.47293,920.29271 -38.26248,1.12719 2.31892,5.8038 9.84189,-0.43257 5.19437,13.00052 -7.44878,6.42209 2.37457,5.9431 28.48593,-25.59602 z m -4.37515,5.35555 -12.5013,10.75606 -3.96998,-9.93611 z"
         style="font-size:50px;letter-spacing:4px"
         id="path23547"
         inkscape:connector-curvature="0" />
      <path
         d="m -162.6214,941.53648 -19.87173,10.97229 c -4.11637,2.2812 -6.64503,5.0458 -7.586,8.29379 -0.94098,3.24798 -0.28259,6.92294 1.97518,11.02488 2.19332,3.93996 4.94896,6.40931 8.26693,7.40806 3.31794,0.9987 7.01643,0.39157 11.0955,-1.82141 l 19.87173,-10.97229 -2.90016,-5.25244 -19.56534,10.80311 c -2.66214,1.48417 -4.97757,2.00587 -6.94627,1.56511 -1.96874,-0.4408 -3.63796,-1.90367 -5.00765,-4.38863 -1.37237,-2.48114 -1.71715,-4.66579 -1.03436,-6.55395 0.68277,-1.88817 2.36177,-3.56249 5.037,-5.02296 l 19.56533,-10.80312 z"
         style="font-size:50px;letter-spacing:4px"
         id="path23549"
         inkscape:connector-curvature="0" />
      <path
         d="m -125.51027,996.48859 c -3.4839,-4.09737 -7.46674,-6.25181 -11.94851,-6.46333 -4.48183,-0.21149 -9.03283,1.5764 -13.65303,5.3637 -4.55214,3.86888 -7.12469,8.02704 -7.71765,12.47444 -0.59298,4.4475 0.81488,8.7512 4.22358,12.9114 3.48626,4.0953 7.47389,6.2458 11.96291,6.4513 4.48897,0.2055 9.03518,-1.5784 13.63864,-5.3517 4.53529,-3.8549 7.10304,-8.009 7.70326,-12.4624 0.60012,-4.4535 -0.80294,-8.7613 -4.2092,-12.92341 z m -3.99201,3.33214 c 2.21448,2.68887 3.04314,5.54117 2.486,8.55717 -0.55723,3.0159 -2.52286,5.9538 -5.89691,8.8136 -3.40005,2.7945 -6.63713,4.1994 -9.71127,4.2146 -3.07419,0.015 -5.73732,-1.306 -7.98941,-3.9635 -2.21212,-2.6908 -3.03599,-5.5472 -2.4716,-8.5691 0.56437,-3.022 2.52521,-5.9558 5.88252,-8.8016 3.41879,-2.8062 6.66468,-4.21027 9.73768,-4.21223 3.07295,-0.002 5.72728,1.31841 7.96299,3.96106 z"
         style="font-size:50px;letter-spacing:4px"
         id="path23551"
         inkscape:connector-curvature="0" />
      <path
         d="m -111.03658,1014.1656 -24.56721,26.2454 4.30732,4.0319 10.83143,-11.5713 11.93637,11.1731 3.55353,-3.7963 -11.93637,-11.1731 6.59454,-7.045 13.615492,12.7449 3.5877,-3.8328 z"
         style="font-size:50px;letter-spacing:4px"
         id="path23553"
         inkscape:connector-curvature="0" />
      <path
         d="m -69.064794,1048.777 -30.738913,22.8125 5.222063,3.4338 7.825091,-5.9848 11.697421,7.6919 -2.43592,9.5286 5.347393,3.5163 8.722694,-37.2897 z m -0.524972,6.8956 -4.100884,15.9736 -8.940173,-5.8788 z"
         style="font-size:50px;letter-spacing:4px"
         id="path23555"
         inkscape:connector-curvature="0" />
      <path
         d="m -26.584273,1084.6977 c 1.138694,-3.6003 0.972111,-6.9258 -0.499749,-9.9765 -1.471943,-3.0507 -4.190528,-5.5616 -8.155762,-7.5328 -4.719853,-2.2276 -9.187559,-2.5039 -13.403132,-0.829 -4.215613,1.6749 -7.638553,5.1334 -10.26883,10.3754 -2.470696,5.2688 -3.073338,10.0781 -1.807927,14.4278 1.265395,4.3498 4.113158,7.6421 8.543298,9.8769 2.164034,1.0496 4.30309,1.5726 6.417175,1.569 2.114039,0 4.164064,-0.5251 6.150081,-1.5644 l -1.093767,4.5283 3.550961,1.73 8.496534,-17.4402 -13.799303,-6.7228 -2.16793,4.45 8.854927,4.3139 c -1.531758,2.7612 -3.497122,4.5359 -5.896099,5.3242 -2.399031,0.7882 -4.927404,0.5506 -7.585127,-0.7129 -3.045544,-1.5069 -4.958268,-3.755 -5.738178,-6.7444 -0.779937,-2.9893 -0.223351,-6.4816 1.66976,-10.4768 1.939494,-3.9216 4.309256,-6.5074 7.109293,-7.7573 2.799992,-1.2498 5.8241,-1.0975 9.072332,0.4572 2.190021,1.0866 3.733647,2.5084 4.630881,4.2652 0.897161,1.7569 1.087709,3.7013 0.571647,5.8333 z"
         style="font-size:50px;letter-spacing:4px"
         id="path23557"
         inkscape:connector-curvature="0" />
      <path
         d="m -15.420832,1077.2461 -11.380851,34.1006 5.643896,1.8836 4.685302,-14.0386 8.5844148,2.865 c 2.1829654,0.734 3.468591,1.6792 3.8568807,2.8356 0.3882369,1.1563 0.2980952,2.6307 -0.2704254,4.423 l -1.1715593,4.1421 c -0.2645404,0.9111 -0.4677634,1.7569 -0.6096696,2.5375 -0.1419549,0.7806 -0.1554083,1.5316 -0.04036,2.2531 l 6.35531248,2.121 0.33240317,-0.996 c -0.49656005,-0.5555 -0.71636811,-1.1801 -0.65942485,-1.8738 0.05688265,-0.6937 0.24034168,-1.5396 0.55037767,-2.5375 l 1.34579213,-4.98 c 0.5619504,-1.855 0.7522652,-3.4255 0.5709448,-4.7116 -0.1813858,-1.286 -0.9715155,-2.4458 -2.37039133,-3.4793 1.75438243,-0.088 3.28169313,-0.6694 4.58193643,-1.7454 1.3001734,-1.076 2.2823437,-2.5909 2.9465138,-4.5447 0.9698341,-2.9981 0.8871309,-5.6063 -0.24811,-7.8246 -1.1353162,-2.2183 -3.2066373,-3.843 -6.2139696,-4.8741 -0.0952148,-0.034 -0.29216813,-0.1085 -0.5908605,-0.2236 -0.29875413,-0.115 -0.69727491,-0.2568 -1.19556353,-0.4254 z m 3.997768,6.658 8.2524208,2.7542 c 2.1503684,0.6837 3.65143365,1.5954 4.5032004,2.735 0.8517033,1.1398 0.9572006,2.6794 0.3164921,4.619 -0.65560421,1.9643 -1.67454995,3.1616 -3.0568402,3.592 -1.3823483,0.4303 -3.1834409,0.2597 -5.403283,-0.5119 l -8.1101371,-2.7067 z"
         style="font-size:50px;letter-spacing:4px"
         id="path23559"
         inkscape:connector-curvature="0" />
      <path
         d="m 18.157703,1087.5474 -8.2141627,34.9986 5.8412007,1.3709 8.214163,-34.9985 z"
         style="font-size:50px;letter-spacing:4px"
         id="path23561"
         inkscape:connector-curvature="0" />
      <path
         d="m 60.727566,1106.2373 c 0.158164,-3.8031 -0.896753,-6.9457 -3.164756,-9.4278 -2.26807,-2.4821 -5.583236,-4.0412 -9.945508,-4.6775 -5.323987,-0.6846 -9.67558,0.4006 -13.05479,3.2556 -3.379233,2.8551 -5.497494,7.2608 -6.35479,13.2172 -0.757596,5.9038 0.07836,10.6944 2.507869,14.3719 2.429496,3.6774 6.203828,5.8923 11.323009,6.6447 4.466878,0.5401 8.261041,-0.2512 11.3825,-2.374 3.1214,-2.1229 5.073728,-5.2224 5.85699,-9.2986 l -5.796026,-0.7923 c -0.58948,2.551 -1.820079,4.4623 -3.691803,5.734 -1.871776,1.2718 -4.12932,1.7433 -6.772638,1.4145 -3.276689,-0.4794 -5.690552,-2.0331 -7.241595,-4.6611 -1.551068,-2.628 -2.047977,-6.1149 -1.490728,-10.4607 0.594572,-4.2113 1.967806,-7.3353 4.119705,-9.372 2.151869,-2.0366 4.948086,-2.834 8.388661,-2.3921 2.565896,0.3644 4.544901,1.2384 5.937022,2.6219 1.392062,1.3836 2.109166,3.1827 2.151313,5.3973 z"
         style="font-size:50px;letter-spacing:4px"
         id="path23563"
         inkscape:connector-curvature="0" />
      <path
         d="m 67.442327,1095.3394 -0.165798,22.6991 c -0.02709,4.7062 1.144853,8.2648 3.515822,10.6759 2.370954,2.4111 5.897463,3.6368 10.579536,3.6773 4.509289,0.017 8.011798,-1.1759 10.507539,-3.5796 2.495685,-2.4036 3.777676,-5.9256 3.845978,-10.5658 l 0.165797,-22.6991 -5.999762,-0.044 -0.163242,22.3491 c -0.0098,3.0479 -0.688907,5.3222 -2.037361,6.8227 -1.348502,1.5006 -3.441426,2.2395 -6.278778,2.2167 -2.835334,-0.019 -4.908908,-0.7879 -6.220729,-2.308 -1.311843,-1.52 -1.949336,-3.8038 -1.912481,-6.8515 l 0.163241,-22.3491 z"
         style="font-size:50px;letter-spacing:4px"
         id="path23565"
         inkscape:connector-curvature="0" />
      <path
         d="m 103.19696,1094.9514 3.82121,35.7459 23.61515,-2.5245 -0.5793,-5.419 -17.64921,1.8867 -3.24192,-30.3268 z"
         style="font-size:50px;letter-spacing:4px"
         id="path23567"
         inkscape:connector-curvature="0" />
      <path
         d="m 127.70493,1092.3078 1.09989,5.1335 10.85353,-2.3255 6.43175,30.0183 5.81788,-1.2466 -6.43175,-30.0183 10.80463,-2.315 -1.09989,-5.1334 z"
         style="font-size:50px;letter-spacing:4px"
         id="path23569"
         inkscape:connector-curvature="0" />
      <path
         d="m 158.88094,1085.4085 7.33982,21.4804 c 1.52862,4.451 3.81003,7.4229 6.84423,8.9157 3.03419,1.4928 6.76765,1.4852 11.20039,-0.023 4.26201,-1.4729 7.17396,-3.7558 8.73587,-6.8488 1.56186,-3.0931 1.60881,-6.8408 0.14087,-11.2432 l -7.33982,-21.4803 -5.67761,1.9401 7.22665,21.1491 c 0.99732,2.8801 1.10736,5.251 0.33013,7.1127 -0.77728,1.8618 -2.50876,3.2504 -5.19446,4.1659 -2.68241,0.9188 -4.89371,0.8774 -6.63391,-0.1241 -1.74022,-1.0015 -3.09618,-2.9467 -4.06789,-5.8356 l -7.22665,-21.1491 z"
         style="font-size:50px;letter-spacing:4px"
         id="path23571"
         inkscape:connector-curvature="0" />
      <path
         d="m 192.12692,1073.5275 15.83205,32.2756 5.34186,-2.6203 -6.51778,-13.2874 8.12501,-3.9855 c 2.07001,-1.0096 3.64914,-1.2389 4.73739,-0.6879 1.08822,0.551 2.05898,1.6643 2.91227,3.34 l 2.07324,3.7724 c 0.4511,0.8345 0.90011,1.5796 1.34702,2.2352 0.44687,0.6556 0.96449,1.1999 1.55285,1.633 l 6.01521,-2.9507 -0.46241,-0.9426 c -0.74364,-0.047 -1.33866,-0.3377 -1.78505,-0.8717 -0.44645,-0.534 -0.90953,-1.2652 -1.38926,-2.1936 l -2.53735,-4.4915 c -0.90191,-1.7156 -1.86882,-2.9677 -2.90072,-3.7564 -1.03195,-0.7886 -2.40881,-1.0599 -4.1306,-0.814 1.18797,-1.294 1.86731,-2.7805 2.03803,-4.4595 0.17068,-1.679 -0.19321,-3.4474 -1.09167,-5.3051 -1.41389,-2.8161 -3.30368,-4.6156 -5.66938,-5.3986 -2.36572,-0.7829 -4.98142,-0.486 -7.84712,0.8906 -0.0916,0.043 -0.28421,0.1279 -0.57774,0.2556 -0.29353,0.1278 -0.67689,0.3065 -1.15008,0.5363 z m 7.52094,1.9355 7.81079,-3.8314 c 2.01142,-1.0226 3.72045,-1.427 5.12711,-1.2132 1.40665,0.2138 2.56257,1.2363 3.46779,3.0675 0.91196,1.8592 1.02674,3.4272 0.34435,4.704 -0.68242,1.2769 -2.08495,2.4197 -4.2076,3.4284 l -7.67612,3.7653 z"
         style="font-size:50px;letter-spacing:4px"
         id="path23573"
         inkscape:connector-curvature="0" />
      <path
         d="m 230.10577,1053.1052 8.6215,37.2955 5.2352,-3.4138 -2.35748,-9.5652 11.72683,-7.647 7.7602,6.0421 5.36084,-3.4958 -30.69308,-22.9028 z m 6.11065,3.2378 13.00225,10.1448 -8.96266,5.8445 z"
         style="font-size:50px;letter-spacing:4px"
         id="path23575"
         inkscape:connector-curvature="0" />
      <path
         d="m 249.63244,1039.6947 22.84195,27.76 18.33933,-15.0903 -3.46283,-4.2084 -13.70623,11.278 -19.37912,-23.5515 z"
         style="font-size:50px;letter-spacing:4px"
         id="path23577"
         inkscape:connector-curvature="0" />
      <path
         d="m 282.1062,1010.7606 27.20726,23.4976 3.88902,-4.503 -11.20076,-9.6736 5.91523,-6.8491 c 1.5093,-1.7396 2.87251,-2.569 4.08961,-2.4882 1.21709,0.081 2.54631,0.7251 3.98766,1.9327 l 3.385,2.6592 c 0.74189,0.5912 1.44681,1.1009 2.11476,1.5291 0.66793,0.4283 1.35737,0.7264 2.06833,0.8944 l 4.37924,-5.0706 -0.79465,-0.6863 c -0.70269,0.2479 -1.36397,0.2136 -1.98384,-0.103 -0.61991,-0.3165 -1.33235,-0.8079 -2.13734,-1.4743 l -4.09365,-3.1391 c -1.50173,-1.2253 -2.88176,-1.9988 -4.14009,-2.3203 -1.25835,-0.3215 -2.63151,-0.032 -4.11948,0.8686 0.58636,-1.6558 0.6293,-3.2897 0.12882,-4.9015 -0.50048,-1.61171 -1.52783,-3.09632 -3.08204,-4.45379 -2.4038,-2.03746 -4.84738,-2.95318 -7.33075,-2.74716 -2.48336,0.2061 -4.77387,1.50363 -6.87155,3.89259 -0.0676,0.0752 -0.21144,0.22894 -0.43152,0.46139 -0.22004,0.23253 -0.50277,0.54715 -0.84819,0.94386 z m 7.67822,-1.1644 5.68647,-6.5842 c 1.4503,-1.7286 2.86446,-2.77 4.24248,-3.1242 1.37804,-0.3541 2.84207,0.134 4.39209,1.4644 1.56722,1.3536 2.2869,2.7514 2.15903,4.1935 -0.12786,1.4421 -0.97083,3.0429 -2.52891,4.8023 l -5.58843,6.4707 z"
         style="font-size:50px;letter-spacing:4px"
         id="path23579"
         inkscape:connector-curvature="0" />
      <path
         d="m 303.93851,984.71966 29.82157,20.07594 14.77076,-21.94103 -4.47946,-3.01558 -11.47596,17.04681 -9.00039,-6.05908 10.24739,-15.22185 -4.18912,-2.82013 -10.24739,15.22186 -7.79757,-5.24935 11.11298,-16.50762 -4.35503,-2.93182 z"
         style="font-size:50px;letter-spacing:4px"
         id="path23581"
         inkscape:connector-curvature="0" />
      <path
         d="m 342.54891,939.8789 c -3.18056,-1.55473 -6.19697,-1.77436 -9.04924,-0.6589 -2.85223,1.11553 -5.20339,3.43011 -7.05349,6.94375 -1.89179,3.83423 -2.51788,7.2086 -1.87829,10.12313 0.63965,2.91457 2.2411,5.04449 4.80435,6.38977 2.61957,1.35432 5.06828,1.59844 7.34614,0.73235 2.27789,-0.86606 4.67731,-2.74126 7.19828,-5.62561 1.17326,-1.36926 2.2355,-2.55669 3.18672,-3.56228 0.95123,-1.00554 1.95233,-1.71845 3.00331,-2.13874 0.75534,-0.26883 1.52733,-0.39914 2.31596,-0.39093 0.78862,0.008 1.44032,0.13937 1.9551,0.39334 1.21442,0.64281 1.99062,1.73499 2.3286,3.27653 0.33798,1.54159 0.0222,3.30934 -0.9474,5.30326 -1.2542,2.41335 -2.80291,4.0324 -4.64614,4.85713 -1.84323,0.82476 -3.85999,0.78387 -6.0503,-0.12267 l -2.65089,5.15868 c 3.66337,1.66818 7.0085,1.90448 10.0354,0.70892 3.0269,-1.19556 5.58155,-3.79674 7.66395,-7.80354 1.96249,-3.94894 2.58557,-7.47242 1.86925,-10.57046 -0.71634,-3.09799 -2.54949,-5.42427 -5.49945,-6.97885 -3.09453,-1.54214 -5.80945,-1.64198 -8.14476,-0.29952 -2.33531,1.34252 -4.80205,3.57663 -7.40023,6.70233 -1.58529,1.89539 -3.11278,3.36373 -4.58245,4.40502 -1.46965,1.04132 -3.01599,1.17893 -4.63903,0.41281 -1.14216,-0.60331 -1.85762,-1.6268 -2.14639,-3.07048 -0.28873,-1.44363 0.0316,-3.11536 0.96099,-5.01519 1.09984,-2.10149 2.47294,-3.51096 4.1193,-4.22844 1.6464,-0.7174 3.41157,-0.67463 5.29552,0.12832 z"
         style="font-size:50px;letter-spacing:4px"
         id="path23583"
         inkscape:connector-curvature="0" />
      <path
         d="m 335.90529,928.8542 33.69213,12.53832 9.225,-24.78879 -5.06085,-1.88336 -7.16725,19.25934 -10.16855,-3.78416 6.39994,-17.19752 -4.73283,-1.76129 -6.39994,17.19751 -8.80963,-3.27845 6.94054,-18.65016 -4.92027,-1.83105 z"
         style="font-size:50px;letter-spacing:4px"
         id="path23585"
         inkscape:connector-curvature="0" />
      <path
         d="m 348.83508,889.76588 31.85328,21.22866 1.46853,-6.07494 -8.27588,-5.34414 3.2895,-13.60787 9.7914,-0.9252 1.50378,-6.22074 -38.0446,4.38329 z m 6.66767,-1.83463 16.42012,-1.5347 -2.51412,10.4003 z"
         style="font-size:50px;letter-spacing:4px"
         id="path23587"
         inkscape:connector-curvature="0" />
      <path
         d="m 353.91482,867.03428 35.71159,4.12927 0.68343,-5.91054 -14.70185,-1.69995 1.03949,-8.98998 c 0.26973,-2.28724 0.93051,-3.73968 1.98235,-4.35734 1.05186,-0.61761 2.51327,-0.83241 4.38423,-0.64441 l 4.29446,0.29523 c 0.94594,0.0717 1.81547,0.0967 2.6086,0.0751 0.79313,-0.0215 1.53089,-0.1627 2.21327,-0.42357 l 0.76958,-6.65557 -1.04304,-0.1206 c -0.44164,0.60014 -1.00776,0.94363 -1.69834,1.03048 -0.69058,0.0869 -1.55606,0.0812 -2.59643,-0.0171 l -5.15031,-0.29352 c -1.93086,-0.16871 -3.50696,-0.0322 -4.72828,0.40959 -1.2213,0.44183 -2.19393,1.45346 -2.91788,3.03489 -0.44632,-1.69892 -1.32962,-3.07405 -2.64989,-4.12538 -1.32024,-1.05127 -3.00464,-1.70112 -5.0532,-1.94956 -3.13347,-0.33293 -5.669,0.28407 -7.60661,1.851 -1.93755,1.56699 -3.10185,3.92801 -3.49292,7.08307 -0.0136,0.10016 -0.0461,0.30823 -0.0973,0.6242 -0.0512,0.31602 -0.10804,0.73517 -0.17056,1.25746 z m 5.69419,-5.28082 0.99929,-8.64231 c 0.22711,-2.24497 0.81081,-3.90136 1.7511,-4.96918 0.94035,-1.06777 2.42545,-1.48746 4.45531,-1.25906 2.05712,0.23788 3.4383,0.98899 4.14354,2.25333 0.70528,1.26438 0.90846,3.0621 0.60955,5.39314 l -0.98207,8.4933 z"
         style="font-size:50px;letter-spacing:4px"
         id="path23589"
         inkscape:connector-curvature="0" />
      <path
         d="m 368.32118,802.97417 c -3.78537,0.39969 -6.73994,1.90283 -8.86371,4.50943 -2.1237,2.60666 -3.18131,6.11419 -3.17282,10.52261 0.10131,5.36687 1.81122,9.51299 5.12972,12.43836 3.31856,2.92538 7.98669,4.3766 14.00441,4.35363 5.95113,-0.1139 10.568,-1.64143 13.85064,-4.5826 3.28264,-2.94116 4.92177,-6.99881 4.91739,-12.17298 -0.11888,-4.49784 -1.45655,-8.1355 -4.01302,-10.91297 -2.55646,-2.7774 -5.90816,-4.25548 -10.0551,-4.43423 l 0.0638,5.84958 c 2.60972,0.2101 4.68046,1.14796 6.21224,2.81359 1.5318,1.66568 2.32837,3.83 2.38972,6.49297 0.005,3.31158 -1.17913,5.9267 -3.55206,7.84538 -2.37291,1.9187 -5.74964,2.92018 -10.13019,3.00443 -4.253,0.0277 -7.54424,-0.87395 -9.87372,-2.70488 -2.32944,-1.8309 -3.52715,-4.48045 -3.59316,-7.94866 -0.0147,-2.59161 0.56048,-4.67715 1.72556,-6.25662 1.16514,-1.57943 2.84002,-2.55192 5.02465,-2.91747 z"
         style="font-size:50px;letter-spacing:4px"
         id="path23591"
         inkscape:connector-curvature="0" />
      <path
         d="m 356.58086,797.75365 35.59611,-5.02851 -0.83925,-5.94094 -16.28807,2.30095 -2.37788,-16.83266 16.28807,-2.30094 -0.83925,-5.94094 -35.59611,5.02851 0.83925,5.94094 14.01071,-1.97923 2.37788,16.83265 -14.01071,1.97923 z"
         style="font-size:50px;letter-spacing:4px"
         id="path23593"
         inkscape:connector-curvature="0" />
    </g>
  </g>
</svg>
