<?xml version="1.0" encoding="UTF-8" standalone="no"?>
<!-- Created with Inkscape (http://www.inkscape.org/) -->

<svg
   xmlns:dc="http://purl.org/dc/elements/1.1/"
   xmlns:cc="http://creativecommons.org/ns#"
   xmlns:rdf="http://www.w3.org/1999/02/22-rdf-syntax-ns#"
   xmlns:svg="http://www.w3.org/2000/svg"
   xmlns="http://www.w3.org/2000/svg"
   xmlns:sodipodi="http://sodipodi.sourceforge.net/DTD/sodipodi-0.dtd"
   xmlns:inkscape="http://www.inkscape.org/namespaces/inkscape"
   width="480"
   height="480"
   id="svg2"
   version="1.1"
   inkscape:version="0.48.5 r10040"
   sodipodi:docname="Bureau of Animal Industry (BAI).svg">
  <title
     id="title11133">Bureau of Animal Industry (BAI)</title>
  <defs
     id="defs4" />
  <sodipodi:namedview
     id="base"
     pagecolor="#ffffff"
     bordercolor="#666666"
     borderopacity="1.0"
     inkscape:pageopacity="0.0"
     inkscape:pageshadow="2"
     inkscape:zoom="1.0625"
     inkscape:cx="240"
     inkscape:cy="240"
     inkscape:document-units="px"
     inkscape:current-layer="layer1"
     showgrid="false"
     inkscape:snap-bbox="true"
     inkscape:bbox-paths="true"
     inkscape:bbox-nodes="true"
     inkscape:snap-bbox-edge-midpoints="true"
     inkscape:snap-bbox-midpoints="true"
     inkscape:object-paths="true"
     inkscape:snap-intersection-paths="true"
     inkscape:object-nodes="true"
     inkscape:snap-smooth-nodes="true"
     inkscape:snap-midpoints="true"
     inkscape:snap-object-midpoints="true"
     inkscape:snap-center="true"
     inkscape:snap-global="true"
     showguides="true"
     inkscape:guide-bbox="true"
     fit-margin-top="0"
     fit-margin-left="0"
     fit-margin-right="0"
     fit-margin-bottom="0"
     inkscape:window-width="1366"
     inkscape:window-height="705"
     inkscape:window-x="-8"
     inkscape:window-y="-8"
     inkscape:window-maximized="1" />
  <metadata
     id="metadata7">
    <rdf:RDF>
      <cc:Work
         rdf:about="">
        <dc:format>image/svg+xml</dc:format>
        <dc:type
           rdf:resource="http://purl.org/dc/dcmitype/StillImage" />
        <dc:title>Bureau of Animal Industry (BAI)</dc:title>
        <cc:license
           rdf:resource="http://creativecommons.org/licenses/publicdomain/" />
      </cc:Work>
      <cc:License
         rdf:about="http://creativecommons.org/licenses/publicdomain/">
        <cc:permits
           rdf:resource="http://creativecommons.org/ns#Reproduction" />
        <cc:permits
           rdf:resource="http://creativecommons.org/ns#Distribution" />
        <cc:permits
           rdf:resource="http://creativecommons.org/ns#DerivativeWorks" />
      </cc:License>
    </rdf:RDF>
  </metadata>
  <g
     inkscape:label="Layer 1"
     inkscape:groupmode="layer"
     id="layer1"
     transform="translate(360.79369,-220.13885)">
    <g
       id="g11070"
       transform="matrix(0.65753425,0,0,0.65753425,-123.55948,239.77358)">
      <path
         inkscape:connector-curvature="0"
         id="path10101-1-6"
         d="m 4.2063078,-29.861151 c -201.5839278,0 -364.9999978,163.416061 -364.9999978,365.000001 0,201.58395 163.41607,365 364.9999978,365 201.5839322,0 365.0000022,-163.41605 365.0000022,-365 0,-201.58394 -163.41607,-365.000001 -365.0000022,-365.000001 z m 0,27.0370372 c 186.6517922,0 337.9629622,151.3111738 337.9629622,337.9629638 0,186.6518 -151.31117,337.96297 -337.9629622,337.96297 -186.6517878,0 -337.9629678,-151.31117 -337.9629678,-337.96297 0,-186.65179 151.31118,-337.9629638 337.9629678,-337.9629638 z"
         style="color:#000000;fill:#009246;fill-opacity:1;stroke:none;stroke-width:0.96100003;marker:none;visibility:visible;display:inline;overflow:visible;enable-background:accumulate" />
      <path
         inkscape:connector-curvature="0"
         id="path10101-14"
         d="m 354.20631,335.13885 c 0,193.29959 -156.70027,349.99988 -350.0002721,349.99988 -193.2994479,0 -349.9997279,-156.70029 -349.9997279,-349.99988 0,-193.29959 156.70028,-349.999875 349.9997279,-349.999875 193.3000021,0 350.0002721,156.700285 350.0002721,349.999875 z"
         style="color:#000000;fill:#ffffff;fill-opacity:1;stroke:none;stroke-width:0.96100003;marker:none;visibility:visible;display:inline;overflow:visible;enable-background:accumulate" />
      <path
         id="path10101-1"
         d="m 4.2063129,55.138854 c -154.6397329,0 -280.0000029,125.360256 -280.0000029,279.999996 0,154.63974 125.36027,280 280.0000029,280 154.6397271,0 279.9999971,-125.36026 279.9999971,-280 0,-154.63974 -125.36027,-279.999996 -279.9999971,-279.999996 z m 0,20.740741 c 143.1849371,0 259.2592471,116.074315 259.2592471,259.259255 0,143.18494 -116.07431,259.25925 -259.2592471,259.25925 -143.1849429,0 -259.2592529,-116.07431 -259.2592529,-259.25925 0,-143.18494 116.07431,-259.259255 259.2592529,-259.259255 z"
         style="color:#000000;fill:#009246;fill-opacity:1;stroke:none;stroke-width:0.96100003;marker:none;visibility:visible;display:inline;overflow:visible;enable-background:accumulate"
         inkscape:connector-curvature="0" />
      <path
         id="path10101"
         d="m 269.20631,335.13885 c 0,146.35541 -118.64449,264.99991 -265.0002076,264.99991 -146.3553024,0 -264.9997924,-118.6445 -264.9997924,-264.99991 0,-146.3554 118.64449,-264.999909 264.9997924,-264.999909 146.3557176,0 265.0002076,118.644509 265.0002076,264.999909 z"
         style="color:#000000;fill:#ffffff;fill-opacity:1;stroke:none;stroke-width:0.96100003;marker:none;visibility:visible;display:inline;overflow:visible;enable-background:accumulate"
         inkscape:connector-curvature="0" />
      <path
         sodipodi:nodetypes="ccccc"
         inkscape:connector-curvature="0"
         id="path10093"
         d="m -178.94977,160.90935 0,330.7324 c 99.895232,118.94386 292.01832,92.36033 368.25348,0 l 0,-330.7324 z"
         style="color:#000000;fill:#009246;fill-opacity:1;stroke:none;stroke-width:0.98600644;marker:none;visibility:visible;display:inline;overflow:visible;enable-background:accumulate" />
      <path
         id="path7113"
         d="m -65.319901,266.70135 c 0,0 -7.54152,16.63478 3.15625,27.09375 5.8287,5.69859 21.46875,11.6875 21.46875,11.6875 0,0 -0.0543,5.00307 -1.21875,7.09375 -4.05634,7.28285 -13.08299,10.45111 -18.71875,16.59375 -6.06264,6.60791 -14.4562,12.76543 -16.03125,21.59375 -1.13892,6.38371 -2.72445,15.58094 5.46875,18.65625 6.21903,2.33431 13.29061,-6.81179 17.46875,-9.65625 2.83686,-1.93132 7.07958,-0.63504 10,-2.4375 3.31391,-2.04532 5.64402,-5.51734 7.5625,-8.90625 1.43792,-2.54 2.78125,-8.28125 2.78125,-8.28125 0,0 2.72929,7.5296 4.28125,11.21875 2.29269,5.44992 5.77338,10.42024 7.4375,16.09375 2.33381,7.95669 -0.28656,17.23205 3.40625,24.65625 1.48531,2.98613 3.9988,5.81976 7.09375,7.0625 3.4721705,1.39421 7.7866005,-1.74001 11.21875048,-0.25 1.90179002,0.82563 4.15625002,4.65625 4.15625002,4.65625 0,0 2.2232097,-3.83062 4.1249997,-4.65625 3.4321498,-1.49001 7.7778298,1.64421 11.2499998,0.25 3.09495,-1.24274 5.57719,-4.07637 7.0625,-7.0625 3.69281,-7.4242 1.07244,-16.69956 3.40625,-24.65625 1.66412,-5.67351 5.14481,-10.64383 7.4375,-16.09375 1.55196,-3.68915 4.28125,-11.21875 4.28125,-11.21875 0,0 1.37458,5.74125 2.8125,8.28125 1.91848,3.38891 4.24859,6.86093 7.5625,8.90625 2.92042,1.80246 7.16314,0.50618 10,2.4375 4.17814,2.84446 11.21847,11.99056 17.4375,9.65625 8.1932,-3.07531 6.63892,-12.27254 5.5,-18.65625 -1.57505,-8.82832 -9.99986,-14.98584 -16.0625,-21.59375 -5.63576,-6.14264 -14.66241,-9.3109 -18.71875,-16.59375 -1.1645,-2.09068 -1.21875,-7.09375 -1.21875,-7.09375 0,0 15.64005,-5.98891 21.46875,-11.6875 10.69777,-10.45897 3.1875,-27.09375 3.1875,-27.09375 0,0 -19.94462,14.23419 -31.59375,15.25 -6.39862,0.55796 -12.15932,-4.74709 -18.5625,-5.25 -6.49098,-0.5098 -19.3749995,2.3125 -19.3749995,2.3125 0,0 -12.91527,-2.8223 -19.4062505,-2.3125 -6.40318,0.50291 -12.13263,5.80796 -18.53125,5.25 -11.64913,-1.01581 -31.59375,-15.25 -31.59375,-15.25 z"
         style="fill:#ffffff;stroke:none"
         inkscape:connector-curvature="0" />
      <path
         id="path7070"
         d="m -131.1788,181.59237 c 0,0 -21.02625,4.32304 -17.25,23.78125 0.23699,1.22118 3.20877,-1.19135 2.0625,3.125 -0.35544,1.33845 -2.28491,1.78935 -2.75,3.09375 -0.92777,2.60205 1.23663,5.66702 0.34375,8.28125 -1.84663,5.40665 -8.70276,3.01281 -10,10.53125 -0.56917,3.29875 -1.73248,6.76419 -0.875,10 1.27067,4.79505 7.08272,5.01159 8.46875,12.25 0.8652,4.51845 -1.71784,9.47395 -0.1875,13.8125 2.43193,6.89459 13.96875,16.875 13.96875,16.875 0,0 -2.98153,8.59412 -1.375,12.4375 1.07367,2.5686 6.5625,5.1875 6.5625,5.1875 0,0 -0.70086,5.68628 1.03125,7.5625 2.55529,2.76791 11.03124,2.4375 11.03124,2.4375 0,0 8.47595,0.33041 11.03126,-2.4375 1.73211,-1.87622 1.0625,-7.5625 1.0625,-7.5625 0,0 5.45757,-2.6189 6.53124,-5.1875 1.606535,-3.84338 -1.375,-12.4375 -1.375,-12.4375 0,0 11.536825,-9.98041 13.968755,-16.875 1.53034,-4.33855 -1.02145,-9.29405 -0.15625,-13.8125 1.38603,-7.23841 7.16683,-7.45495 8.4375,-12.25 0.85748,-3.23581 -0.27458,-6.70125 -0.84375,-10 -1.29724,-7.51844 -8.15337,-5.1246 -10,-10.53125 -0.89288,-2.61423 1.27152,-5.6792 0.34375,-8.28125 -0.46509,-1.3044 -2.42581,-1.7553 -2.78125,-3.09375 -1.14627,-4.31635 1.82551,-1.90382 2.0625,-3.125 3.77625,-19.45821 -17.249995,-23.78125 -17.249995,-23.78125 0,0 4.64027,3.31922 4.84374,5.84375 0.25671,3.18506 -4.20309,5.15074 -4.84374,8.28125 -0.55769,2.72511 1.0625,8.28125 1.0625,8.28125 0,0 -3.23317,-2.1123 -5.06251,-2.625 -2.25594,-0.63225 -7.03125,-0.46875 -7.03125,-0.46875 0,0 -4.74406,-0.1635 -7,0.46875 -1.82933,0.5127 -5.06249,2.625 -5.06249,2.625 0,0 1.58894,-5.55614 1.03125,-8.28125 -0.64065,-3.13051 -5.10046,-5.09619 -4.84375,-8.28125 0.20347,-2.52453 4.84375,-5.84375 4.84375,-5.84375 z"
         style="fill:#ffffff;stroke:none"
         inkscape:connector-curvature="0" />
      <path
         sodipodi:nodetypes="sscsscssssscccccssssscsscssccss"
         inkscape:connector-curvature="0"
         id="path7091"
         d="m 92.053827,188.38079 c -2.44563,0.0515 -4.80032,0.3895 -6.6875,0.875 -18.40539,4.73503 -31.09375,21.0625 -31.09375,21.0625 0,0 20.84429,-8.05293 31.875,-9.59375 4.51698,-0.63095 9.818295,3.39891 11.281255,7.71875 1.02585,3.02914 -3,9.125 -3,9.125 0,0 -8.150705,-3.09792 -12.437505,-3.65625 -2.98475,-0.38875 -6.06393,0.75483 -9.03125,0.25 -3.81631,-0.64927 -7.24241,-5.57615 -10.84375,-4.15625 -3.87117,1.52628 -6.04292,7.09313 -5.5,11.21875 0.66175,5.02859 4.45806,11.16815 10,11.46875 6.77618,0.36755 19.03125,-1.46875 19.03125,-1.46875 8.556745,19.49929 11.727675,56.9619 27.593753,68.3125 1.6572,1.03098 5.34375,0.96875 5.34375,0.96875 0,0 3.80405,0.19158 5.46125,-0.83937 15.86608,-11.3506 18.91951,-48.94259 27.47625,-68.44188 0,0 12.25507,1.8363 19.03125,1.46875 5.54194,-0.3006 9.33825,-6.44016 10,-11.46875 0.54292,-4.12562 -1.62883,-9.69247 -5.5,-11.21875 -3.60134,-1.4199 -7.02744,3.50698 -10.84375,4.15625 -2.96732,0.50483 -6.0465,-0.63875 -9.03125,-0.25 -4.2868,0.55833 -12.4375,3.65625 -12.4375,3.65625 0,0 -4.02585,-6.09586 -3,-9.125 1.46296,-4.31984 6.79552,-8.3497 11.3125,-7.71875 11.03071,1.54082 31.84375,9.59375 31.84375,9.59375 0,0 -12.68836,-16.32747 -31.09375,-21.0625 -5.03249,-1.29467 -13.23782,-1.57668 -18.25,1.9375 -5.07421,3.55768 -8.15625,16.71875 -8.15625,16.71875 -4.59417,-0.37009 -8.56396,-0.38219 -13.59375,0 0,0 -3.08204,-13.16107 -8.15625,-16.71875 -3.13261,-2.19636 -7.517688,-2.89831 -11.593753,-2.8125 z"
         style="fill:#ffffff;stroke:none" />
      <path
         sodipodi:nodetypes="ccccccccsccccccccccccsccccsccccsccccccccccccccccssccccccccsccc"
         inkscape:connector-curvature="0"
         id="path3197"
         d="m 95.514495,385.52019 0.15625,4.125 c 0.25414,5.41104 0.007,5.59148 -2.84375,2.125 -2.59666,-3.12824 -3.23691,-2.9701 -2.53125,0.75 0.25399,1.32457 0.43146,2.9051 0.375,3.46875 -0.0843,0.9864 -0.18452,1.07172 -1.03125,1.15625 -0.81843,0.0844 -1.11493,-0.0662 -2.1875,-1.25 l -1.25,-1.375 0,3.4375 c 0,3.97372 -0.13106,4.19784 -1.9375,3.71875 -1.63718,-0.42275 -1.93662,-0.2222 -2.21875,1.46875 -0.11286,0.81729 -0.33062,1.49386 -0.5,1.4375 -0.47982,-0.1409 -0.56942,0.8031 -0.34375,3.875 0.22584,2.67733 0.20168,3.19498 -0.25,4.125 -0.53629,1.12732 -1.52428,1.68807 -2.625,1.40625 l -0.6875,-0.1875 0.21875,2.71875 0.1875,2.6875 -0.90625,0.5 c -0.47984,0.25363 -1.95175,1.22317 -3.25,2.125 -2.31453,1.60642 -2.40121,1.69327 -2.9375,3.46875 -0.31045,1.01457 -0.5625,2.06192 -0.5625,2.34375 0,1.18368 2.03329,1.14014 5.84375,-0.15625 3.95154,-1.2964 6.03116,-1.51091 7.78125,-0.75 1.58055,0.70457 1.63801,1.06652 0.59375,3.6875 -2.65312,6.65109 0.75511,14.04276 8.09375,17.59375 2.03223,0.98639 2.6382,1.15625 4.21875,1.15625 1.41133,0 2.05642,-0.14895 2.875,-0.65625 0.592755,-0.36639 0.987925,-0.76839 0.875005,-0.9375 -0.0843,-0.16908 -0.0139,-0.20663 0.15625,-0.0937 0.16937,0.11275 0.45854,-0.0993 0.65625,-0.4375 0.53628,-1.04277 1.43246,-1.9375 1.96875,-1.9375 0.84673,0 2.17349,1.36905 2.625,2.75 0.25398,0.73276 0.54023,2.32552 0.625,3.59375 -1.79746,9.60603 -2.60064,17.71857 -3.5625,28.25 -2.839,14.67585 -5.480655,29.44544 -8.572465,46.62289 37.370475,-14.88407 47.251745,-20.02381 76.706675,-50.45637 -4.66976,-6.19369 -11.58322,-18.07607 -14.38421,-25.07277 -1.80638,-4.67829 -2.1876,-5.49003 -6.5625,-13.4375 -3.49986,-6.36925 -4.31259,-7.57111 -8.6875,-12.53125 -3.97968,-4.53738 -6.28935,-6.81922 -6.65625,-6.59375 -0.16921,0.11274 -0.24052,0.0752 -0.15625,-0.0937 0.19752,-0.33821 -1.08164,-1.57877 -4.46875,-4.3125 -3.27385,-2.64914 -4.51934,-3.47467 -10.53125,-6.6875 -2.7379,-1.46548 -5.21477,-2.86829 -5.46875,-3.09375 -1.01613,-0.90184 -0.37787,-2.11465 1.34375,-2.59375 1.75009,-0.47911 2.95474,-1.34145 3.40625,-2.46875 0.5646,-1.2964 0.35383,-2.39359 -0.71875,-4 -0.47982,-0.67637 -0.875,-1.57725 -0.875,-2 0,-0.87364 -0.74703,-1.6875 -1.59375,-1.6875 -0.31045,0 -1.17554,0.43331 -1.9375,0.96875 -1.32657,0.95824 -2.72667,1.28242 -3.09375,0.71875 -0.0843,-0.14089 -0.29644,-1.43769 -0.4375,-2.875 -0.42336,-3.77647 -0.57469,-3.75498 -1.5625,0.21875 -0.3669,1.52186 -0.83061,2.89342 -1,3.0625 -0.42336,0.42274 -1.00809,-0.49961 -1.375,-2.21875 -0.16938,-0.78911 -0.39019,-1.58704 -0.53125,-1.8125 -0.42337,-0.67638 -1.08578,-0.15604 -1.59375,1.28125 -0.98797,2.73371 -1.56056,3.75 -2.125,3.75 -0.84672,0 -1.68154,-0.98752 -3.375005,-4.03125 -0.81842,-1.52185 -1.92935,-3.24884 -2.4375,-3.8125 z"
         style="fill:#ffffff;fill-opacity:1;stroke:none" />
      <path
         sodipodi:nodetypes="scccscccsccccccsscccccccscscccccssccaccs"
         inkscape:connector-curvature="0"
         id="path60537"
         d="m -30.58705,409.55051 c -0.11504,0.0262 -0.26028,0.0772 -0.40625,0.15625 -1.44573,0.85482 -9.40354,9.15222 -11.90625,12.40625 -1.26605,1.68447 -2.63408,2.98334 -3.03125,2.90625 -1.46257,-0.2271 -3.81096,-4.97947 -4.84375,-9.75 -0.89811,-4.1483 -1.08594,-4.53431 -1.96875,-4.34375 -0.57134,0.12336 -1.70528,1.17499 -2.59375,2.34375 -0.84776,1.10571 -2.41687,3.18214 -3.53125,4.5625 -1.07381,1.31732 -2.90946,4.7968 -4.125,7.71875 -1.21554,2.92195 -2.49329,5.53601 -2.875,5.78125 -1.09341,0.72448 -3.74309,-0.0129 -11.0625,-2.9375 -7.99163,-3.26849 -12.36041,-4.33005 -22.812502,-5.65625 -4.301988,-0.53694 -10.977378,-1.47779 -14.874998,-2.15625 -3.88646,-0.6266 -9.64098,-1.33113 -12.84375,-1.5625 -10.80525,-1.40869 -22.8428,1.54441 -32.97494,2.27459 -0.0373,12.82408 -3.13803,45.74451 4.92029,63.21333 6.733,14.59579 25.23977,34.01582 35.3984,39.73083 8.38154,4.71526 15.8125,1.9375 15.8125,1.9375 0.64466,-1.26204 1.46463,-2.69186 2.53125,-4.46875 l 1.874998,-3 3.281252,-0.34375 c 1.86249,-0.1849 5.78155,-0.43326 8.75,-0.53125 2.97978,-0.0461 6.94055,-0.31452 8.84375,-0.5625 1.91438,-0.19612 6.699,0.0898 10.03125,-0.15625 7.44232,-0.54952 14.82661,-1.71043 22.1875,-2.9375 9.87064,-1.64551 21.82178,-4.45649 29.4375,-5.9375 0,0 9.5573409,-0.61291 13.8125008,-2.59375 1.51476,-0.70513 3.90625012,-3.15625 3.90625012,-3.15625 0,0 3.13758998,-1.65866 3.87499998,-3.15625 1.23926,-2.51726 0.2422,-5.63251 0.25,-8.4375 0.0153,-3.00691 0.0276,-8.65005 -0.21875,-9.03125 -0.47997,-0.71054 -3.65199003,-1.02207 -5.78125,-0.5625 -5.40091,1.16578 -15.9664109,-5.3588 -22.2187509,-10.6875 -3.25511,-2.7743 -5.07488,-6.88856 -7.3125,-10.53125 -1.83999,-2.99537 -3.81262,-7.31217 -5,-9.28125 -1.18723,-1.96906 -2.22266,-3.92891 -2.3125,-4.34375 -0.10101,-0.46668 1.65351,-3.08144 2.25,-4.71875 2.05916,-5.65222 3.30408,-6.56562 4.53125,-17.46875 0.46757,-4.11741 1.06685,-8.87294 1.3125,-10.5 0.53314,-3.24957 0.49281,-4.40216 -0.3125,-4.21875 z"
         style="fill:#ffffff;fill-opacity:1;stroke:none" />
      <path
         transform="matrix(0,-32.318355,-0.98132665,0,334.04413,446.64153)"
         d="m 13.800539,336.1142 c 0,188.25913 -4.6340336,340.87332 -10.3504042,340.87332 -5.7163707,0 -10.3504048,-152.61419 -10.3504048,-340.87332 0,-188.25914 4.6340341,-340.8733248 10.3504048,-340.8733248 5.7163706,0 10.3504042,152.6141848 10.3504042,340.8733248 z"
         sodipodi:ry="340.87332"
         sodipodi:rx="10.350405"
         sodipodi:cy="336.1142"
         sodipodi:cx="3.4501348"
         id="path10901"
         style="color:#000000;fill:none;stroke:none;stroke-width:0.17470135;marker:none;visibility:visible;display:inline;overflow:visible;enable-background:accumulate"
         sodipodi:type="arc" />
      <path
         transform="matrix(0,28.218267,-0.85682997,0,292.19903,237.78203)"
         d="m 13.800539,336.1142 c 0,188.25913 -4.6340336,340.87332 -10.3504042,340.87332 -5.7163707,0 -10.3504048,-152.61419 -10.3504048,-340.87332 0,-188.25914 4.6340341,-340.8733248 10.3504048,-340.8733248 5.7163706,0 10.3504042,152.6141848 10.3504042,340.8733248 z"
         sodipodi:ry="340.87332"
         sodipodi:rx="10.350405"
         sodipodi:cy="336.1142"
         sodipodi:cx="3.4501348"
         id="path10901-3"
         style="color:#000000;fill:none;stroke:none;stroke-width:0.17470135;marker:none;visibility:visible;display:inline;overflow:visible;enable-background:accumulate"
         sodipodi:type="arc" />
      <g
         id="text10939"
         style="font-size:70px;font-style:normal;font-variant:normal;font-weight:normal;font-stretch:normal;text-align:center;line-height:0%;letter-spacing:4px;word-spacing:0px;writing-mode:lr-tb;text-anchor:middle;fill:#009246;fill-opacity:1;stroke:none;font-family:Swiss 721;-inkscape-font-specification:'Swiss 721,'">
        <path
           id="path11026"
           style="font-size:50px;letter-spacing:6px;fill:#009246"
           d="m -286.6531,404.1233 -34.58453,9.81221 4.29882,15.15178 c 1.15805,3.89853 2.95529,6.61526 5.39173,8.1502 2.43642,1.53488 5.19614,1.87365 8.27916,1.0163 2.21592,-0.63522 3.88703,-1.66805 5.01332,-3.09849 1.12624,-1.43048 1.68784,-3.21396 1.6848,-5.35045 1.03009,1.27989 2.28075,2.14642 3.75197,2.59958 1.47116,0.45312 3.04622,0.44802 4.72518,-0.0153 2.93211,-0.83192 4.86883,-2.35589 5.81015,-4.57191 0.94124,-2.21605 0.89912,-5.12757 -0.12637,-8.73455 z m -3.21338,6.9925 2.37458,8.36956 c 0.57061,1.99604 0.63976,3.5984 0.20746,4.80709 -0.43238,1.20866 -1.39196,2.02445 -2.87876,2.4474 -1.71678,0.4903 -3.10439,0.33177 -4.16282,-0.47558 -1.05849,-0.80738 -1.8771,-2.25774 -2.45584,-4.35109 l -2.31999,-8.17715 z m -13.94926,3.95764 2.47011,8.70626 c 0.67565,2.30514 0.76838,4.15852 0.27818,5.56012 -0.49023,1.40157 -1.68705,2.37346 -3.59045,2.91568 -1.82585,0.518 -3.34565,0.3515 -4.5594,-0.49948 -1.21378,-0.85103 -2.13354,-2.38314 -2.75929,-4.59633 l -2.56564,-9.04296 z"
           inkscape:connector-curvature="0" />
        <path
           id="path11028"
           style="font-size:50px;letter-spacing:6px;fill:#009246"
           d="m -276.52341,438.02744 -20.91346,8.82631 c -4.33304,1.83662 -7.13786,4.32058 -8.41449,7.45189 -1.27664,3.1313 -1.00754,6.85506 0.80729,11.17128 1.76774,4.14839 4.24903,6.89329 7.44386,8.23472 3.19481,1.34138 6.9366,1.12573 11.22538,-0.64696 l 20.91347,-8.82631 -2.33295,-5.52779 -20.59101,8.69022 c -2.8032,1.1966 -5.16058,1.47244 -7.07216,0.82751 -1.91161,-0.64497 -3.41809,-2.27494 -4.51945,-4.88992 -1.10441,-2.61146 -1.21802,-4.82023 -0.34085,-6.62631 0.87715,-1.80609 2.72258,-3.29497 5.53631,-4.46663 l 20.59101,-8.69022 z"
           inkscape:connector-curvature="0" />
        <path
           id="path11030"
           style="font-size:50px;letter-spacing:6px;fill:#009246"
           d="m -261.40546,472.27871 -31.15698,17.93354 2.96814,5.15672 12.8268,-7.38293 4.51456,7.84341 c 1.14437,1.99865 1.47768,3.55914 0.99994,4.68147 -0.47779,1.12231 -1.52442,2.16462 -3.1399,3.12695 l -3.62693,2.31838 c -0.80285,0.50534 -1.51655,1.00267 -2.14112,1.492 -0.62459,0.48928 -1.13347,1.04179 -1.52663,1.65752 l 3.34227,5.80673 0.91001,-0.52379 c -0.002,-0.74513 0.24833,-1.35807 0.75163,-1.83883 0.50327,-0.48081 1.2022,-0.99127 2.09681,-1.5314 l 4.31372,-2.82906 c 1.65214,-1.01348 2.83751,-2.06114 3.55614,-3.14298 0.71856,-1.08187 0.89819,-2.47368 0.53888,-4.17542 1.36972,1.09973 2.89792,1.6792 4.58461,1.73841 1.68663,0.0592 3.42702,-0.42096 5.22119,-1.4404 2.71634,-1.59718 4.38685,-3.60193 5.01153,-6.01426 0.62459,-2.41235 0.15524,-5.00267 -1.40807,-7.77096 -0.0486,-0.0886 -0.14638,-0.27513 -0.29323,-0.55956 -0.14693,-0.28443 -0.35067,-0.65512 -0.61124,-1.11207 z m -1.43351,7.63256 4.33997,7.54008 c 1.15347,1.93932 1.6701,3.61785 1.54989,5.03557 -0.12028,1.41772 -1.06402,2.63878 -2.83123,3.6632 -1.79478,1.03302 -3.35175,1.25134 -4.67093,0.65494 -1.31923,-0.59641 -2.55234,-1.92023 -3.69933,-3.97146 l -4.26513,-7.41007 z"
           inkscape:connector-curvature="0" />
        <path
           id="path11032"
           style="font-size:50px;letter-spacing:6px;fill:#009246"
           d="m -242.88069,503.23295 -28.84651,21.4534 15.78422,21.22364 4.33299,-3.22248 -12.26335,-16.48945 8.70611,-6.47481 10.95048,14.72416 4.05215,-3.01363 -10.95048,-14.72415 7.54262,-5.60951 11.87546,15.96788 4.21263,-3.13297 z"
           inkscape:connector-curvature="0" />
        <path
           id="path11034"
           style="font-size:50px;letter-spacing:6px;fill:#009246"
           d="m -215.76944,537.03119 -35.20481,15.03027 4.27927,4.55515 9.00328,-3.99886 9.58554,10.20354 -4.58708,8.69978 4.38196,4.66448 17.16344,-34.23479 z m -2.1157,6.58389 -7.70662,14.58024 -7.32609,-7.79842 z"
           inkscape:connector-curvature="0" />
        <path
           id="path11036"
           style="font-size:50px;letter-spacing:6px;fill:#009246"
           d="m -198.20447,555.06892 -14.56996,17.4067 c -3.01512,3.6135 -4.3751,7.10457 -4.07995,10.47322 0.29514,3.36863 2.23593,6.55801 5.82237,9.56813 3.46787,2.88234 6.92918,4.19024 10.38394,3.92371 3.45471,-0.26657 6.68455,-2.16806 9.68951,-5.70448 l 14.56996,-17.40669 -4.60088,-3.85109 -14.34532,17.13831 c -1.94674,2.3452 -3.91763,3.66767 -5.91268,3.96742 -1.99509,0.29973 -4.07988,-0.46183 -6.25436,-2.28466 -2.17559,-1.81831 -3.28586,-3.73113 -3.33082,-5.73845 -0.045,-2.00732 0.91626,-4.17489 2.88376,-6.50272 l 14.34531,-17.13831 z"
           inkscape:connector-curvature="0" />
        <path
           id="path11038"
           style="font-size:50px;letter-spacing:6px;fill:#009246"
           d="m -140.43367,595.30467 c -4.72158,-2.57539 -9.21212,-3.15817 -13.47163,-1.74834 -4.25955,1.40989 -7.86664,4.71097 -10.82128,9.90326 -2.86185,5.24405 -3.77205,10.04819 -2.7306,14.41244 1.04144,4.36425 3.8991,7.87685 8.573,10.5378 4.72305,2.57268 9.21663,3.15 13.48076,1.73196 4.26406,-1.41805 7.8681,-4.71368 10.81215,-9.88688 2.85115,-5.22492 3.7583,-10.0236 2.72147,-14.39605 -1.03692,-4.37243 -3.89154,-7.89049 -8.56387,-10.55419 z m -2.53147,4.54214 c 3.03146,1.71579 4.82794,4.08125 5.38946,7.09639 0.56144,3.01516 -0.21985,6.46252 -2.34386,10.34211 -2.17167,3.82802 -4.68961,6.30034 -7.55382,7.41697 -2.86427,1.11662 -5.82405,0.83842 -8.87935,-0.83458 -3.02999,-1.71851 -4.82343,-4.08943 -5.38033,-7.11277 -0.55693,-3.02334 0.22132,-6.46524 2.33473,-10.32573 2.185,-3.8456 4.71144,-6.32034 7.57933,-7.42423 2.86784,-1.10385 5.81912,-0.82324 8.85384,0.84184 z"
           inkscape:connector-curvature="0" />
        <path
           id="path11040"
           style="font-size:50px;letter-spacing:6px;fill:#009246"
           d="m -118.7214,607.52808 -13.59061,33.28159 5.46207,2.23045 5.99196,-14.67353 15.13642,6.18099 1.96582,-4.81403 -15.13642,-6.18099 3.64811,-8.93372 17.265695,7.05049 1.984721,-4.86032 z"
           inkscape:connector-curvature="0" />
        <path
           id="path11042"
           style="font-size:50px;letter-spacing:6px;fill:#009246"
           d="m -63.382615,626.04262 -20.54386,32.29918 6.104906,1.33852 5.166261,-8.38807 13.674988,2.99827 1.134002,9.76942 6.251423,1.37064 -5.194422,-37.94236 z m 1.976547,6.627 1.884865,16.38361 -10.451598,-2.29154 z"
           inkscape:connector-curvature="0" />
        <path
           id="path11044"
           style="font-size:50px;letter-spacing:6px;fill:#009246"
           d="m -38.575158,631.01131 -3.372946,35.79096 5.724561,0.53948 2.523846,-26.78099 14.251609,28.36191 6.272128,0.59109 3.3729468,-35.79095 -5.7743408,-0.54418 -2.523845,26.78099 -14.152052,-28.35253 z"
           inkscape:connector-curvature="0" />
        <path
           id="path11046"
           style="font-size:50px;letter-spacing:6px;fill:#009246"
           d="m 0.67384808,633.69199 -0.0588957,35.94949 5.99991472,0.01 0.058896,-35.94949 z"
           inkscape:connector-curvature="0" />
        <path
           id="path11048"
           style="font-size:50px;letter-spacing:6px;fill:#009246"
           d="m 16.894537,633.93768 3.566719,35.77216 5.522546,-0.55063 -2.946636,-29.55308 11.703104,28.68 5.821062,-0.5804 5.909338,-30.43608 2.946636,29.55309 5.671803,-0.56552 -3.566718,-35.77217 -8.656964,0.86316 -5.854333,29.4759 -11.459593,-27.74959 z"
           inkscape:connector-curvature="0" />
        <path
           id="path11050"
           style="font-size:50px;letter-spacing:6px;fill:#009246"
           d="m 69.278232,626.61341 -4.603989,38.00119 6.085192,-1.42546 1.043213,-9.796 13.630828,-3.19304 5.236705,8.32493 6.231236,-1.45967 -21.051178,-31.99145 z m 4.64151,5.12642 8.766875,13.96844 -10.417848,2.44039 z"
           inkscape:connector-curvature="0" />
        <path
           id="path11052"
           style="font-size:50px;letter-spacing:6px;fill:#009246"
           d="m 94.170277,620.09402 11.971853,33.89755 22.39407,-7.90909 -1.81492,-5.13885 -16.73662,5.911 -10.156934,-28.7587 z"
           inkscape:connector-curvature="0" />
        <path
           id="path11054"
           style="font-size:50px;letter-spacing:6px;fill:#009246"
           d="m 139.15904,601.55399 16.5995,31.88771 5.32201,-2.77043 -16.5995,-31.88771 z"
           inkscape:connector-curvature="0" />
        <path
           id="path11056"
           style="font-size:50px;letter-spacing:6px;fill:#009246"
           d="m 153.79574,593.98681 19.50337,30.19913 4.83019,-3.11945 -14.59363,-22.59685 28.74816,13.45549 5.29219,-3.41784 -19.50337,-30.19913 -4.87218,3.14658 14.59362,22.59685 -28.66415,-13.50974 z"
           inkscape:connector-curvature="0" />
        <path
           id="path11058"
           style="font-size:50px;letter-spacing:6px;fill:#009246"
           d="m 185.40862,572.86059 23.13492,27.51626 9.87371,-8.30154 c 4.18334,-3.55943 6.36827,-7.45142 6.5548,-11.67599 0.1865,-4.22453 -1.58205,-8.56496 -5.30565,-13.02131 -3.81574,-4.5367 -7.69603,-7.09619 -11.6409,-7.67848 -3.94486,-0.5822 -7.93745,0.82312 -11.97777,4.21598 z m 7.79789,0.10673 5.93188,-4.98736 c 2.51831,-2.10505 5.10038,-2.89603 7.74622,-2.37296 2.64584,0.52315 5.28576,2.34546 7.91977,5.46693 2.87904,3.40814 4.35663,6.47988 4.43276,9.21523 0.0761,2.7354 -1.2448,5.23682 -3.96271,7.50427 l -5.62572,4.72995 z"
           inkscape:connector-curvature="0" />
        <path
           id="path11060"
           style="font-size:50px;letter-spacing:6px;fill:#009246"
           d="m 213.52335,548.50373 16.64572,15.43362 c 3.45601,3.19442 6.87365,4.72963 10.25293,4.60562 3.37927,-0.12399 6.66293,-1.90061 9.85099,-5.32985 3.05443,-3.3173 4.53611,-6.70785 4.44505,-10.17168 -0.0911,-3.46379 -1.82641,-6.78586 -5.20595,-9.96624 l -16.64573,-15.43362 -4.07937,4.39975 16.38907,15.19566 c 2.2435,2.06312 3.46437,4.09852 3.66259,6.1062 0.19821,2.00772 -0.66805,4.05122 -2.59877,6.1305 -1.92626,2.08062 -3.8929,3.0925 -5.89992,3.03565 -2.00702,-0.0568 -4.12308,-1.12673 -6.34817,-3.2097 l -16.38907,-15.19566 z"
           inkscape:connector-curvature="0" />
        <path
           id="path11062"
           style="font-size:50px;letter-spacing:6px;fill:#009246"
           d="m 262.1805,505.90478 c -2.90562,-2.0225 -5.85304,-2.70051 -8.84227,-2.03402 -2.9892,0.66657 -5.66645,2.59468 -8.03175,5.78433 -2.45549,3.50009 -3.58989,6.73916 -3.40319,9.71719 0.18675,2.97809 1.44391,5.32772 3.77147,7.04891 2.38185,1.73872 4.76449,2.35417 7.14795,1.84634 2.38348,-0.50779 5.04128,-1.9943 7.9734,-4.45953 1.36874,-1.1739 2.59996,-2.18505 3.69367,-3.03347 1.09371,-0.84837 2.192,-1.39992 3.29486,-1.65467 0.78756,-0.15025 1.57039,-0.16106 2.3485,-0.0324 0.7781,0.12868 1.40211,0.35784 1.87204,0.68749 1.10192,0.82085 1.7021,2.01881 1.80054,3.5939 0.0984,1.57512 -0.4838,3.27385 -1.74668,5.09619 -1.60827,2.19335 -3.38621,3.55671 -5.33382,4.09009 -1.94761,0.5334 -3.93444,0.1848 -5.96049,-1.0458 l -3.40807,4.69299 c 3.36542,2.2084 6.63515,2.95311 9.8092,2.23414 3.17404,-0.71896 6.09618,-2.89919 8.76643,-6.54072 2.54289,-3.60265 3.69709,-6.98954 3.46261,-10.16066 -0.23451,-3.17107 -1.69064,-5.75016 -4.36839,-7.73728 -2.82252,-1.99691 -5.49029,-2.51046 -8.00333,-1.54064 -2.51303,0.96989 -5.2922,2.8008 -8.33752,5.49276 -1.85632,1.63087 -3.59025,2.84854 -5.20179,3.653 -1.61151,0.80452 -3.16072,0.7042 -4.64762,-0.30094 -1.03655,-0.77076 -1.5872,-1.89156 -1.65197,-3.36241 -0.0647,-1.4708 0.50731,-3.07395 1.71611,-4.80944 1.40805,-1.90873 2.98041,-3.09183 4.71708,-3.54929 1.73669,-0.45738 3.47459,-0.14537 5.21371,0.93605 z"
           inkscape:connector-curvature="0" />
        <path
           id="path11064"
           style="font-size:50px;letter-spacing:6px;fill:#009246"
           d="m 256.8367,494.94634 4.56114,2.59959 5.49625,-9.64355 26.67179,15.20136 2.94619,-5.16928 -26.67178,-15.20137 5.4715,-9.6001 -4.56114,-2.59958 z"
           inkscape:connector-curvature="0" />
        <path
           id="path11066"
           style="font-size:50px;letter-spacing:6px;fill:#009246"
           d="m 273.48656,464.9479 33.0403,14.16715 2.34477,-5.46843 -13.60213,-5.83237 3.56642,-8.31751 c 0.91241,-2.11464 1.96087,-3.31753 3.1454,-3.60868 1.18453,-0.29109 2.64635,-0.0791 4.38546,0.63598 l 4.03079,1.51072 c 0.88596,0.33912 1.71204,0.61172 2.47823,0.81782 0.76617,0.20615 1.5135,0.28178 2.24198,0.2269 l 2.64033,-6.15772 -0.96501,-0.41378 c -0.5948,0.44882 -1.23548,0.61612 -1.92207,0.5019 -0.6866,-0.11417 -1.51432,-0.36708 -2.48316,-0.75873 l -4.8514,-1.75379 c -1.80203,-0.71372 -3.35136,-1.0335 -4.64801,-0.95936 -1.29665,0.0742 -2.5179,0.76552 -3.66378,2.07396 0.058,-1.75561 -0.39522,-3.32588 -1.3598,-4.71081 -0.96456,-1.38485 -2.39284,-2.48916 -4.28486,-3.31293 -2.90748,-1.21491 -5.51358,-1.3486 -7.81831,-0.40106 -2.30468,0.94762 -4.09542,2.8772 -5.37222,5.78876 -0.0417,0.0921 -0.13229,0.28217 -0.27174,0.5703 -0.1394,0.2882 -0.31372,0.6736 -0.52296,1.15621 z m 6.96633,-3.43237 3.42849,-7.99584 c 0.85949,-2.08633 1.8924,-3.5067 3.09874,-4.26111 1.20638,-0.75434 2.74948,-0.7319 4.6293,0.0673 1.90324,0.8161 3.01201,1.93075 3.32633,3.34394 0.31434,1.41325 -0.005,3.19402 -0.95784,5.34229 l -3.36938,7.85799 z"
           inkscape:connector-curvature="0" />
        <path
           id="path11068"
           style="font-size:50px;letter-spacing:6px;fill:#009246"
           d="m 285.87873,435.66368 24.86592,-6.42116 13.36981,3.98067 1.71212,-5.75045 -13.60941,-4.05201 -17.32129,-18.04278 -1.96894,6.61303 13.24449,12.81199 -18.18109,3.76848 z"
           inkscape:connector-curvature="0" />
      </g>
      <g
         id="text10946"
         style="font-size:50px;font-style:normal;font-variant:normal;font-weight:bold;font-stretch:normal;text-align:center;line-height:0%;letter-spacing:1px;word-spacing:0px;writing-mode:lr-tb;text-anchor:middle;fill:#009246;fill-opacity:1;stroke:none;font-family:Gill Sans MT;-inkscape-font-specification:Sans Bold">
        <path
           id="path10979"
           style="font-weight:normal;letter-spacing:2px;fill:#009246;font-family:Swiss 721;-inkscape-font-specification:'Swiss 721,'"
           d="m -319.83645,282.00591 35.19933,7.30594 2.6216,-12.63063 c 1.08463,-5.38456 0.39345,-9.79407 -2.07355,-13.22856 -2.46701,-3.43442 -6.54173,-5.75041 -12.22416,-6.94797 -5.80454,-1.20369 -10.43658,-0.81402 -13.89615,1.16901 -3.45952,1.9831 -5.72693,5.55725 -6.80224,10.72246 z m 6.19254,-4.74035 1.57499,-7.58818 c 0.67625,-3.21182 2.21554,-5.43068 4.61788,-6.65658 2.40238,-1.22585 5.60385,-1.42733 9.6044,-0.60445 4.37042,0.89651 7.43166,2.39574 9.18371,4.49771 1.75207,2.10202 2.2618,4.88447 1.52921,8.34737 l -1.49371,7.19653 z"
           inkscape:connector-curvature="0" />
        <path
           id="path10981"
           style="font-weight:normal;letter-spacing:2px;fill:#009246;font-family:Swiss 721;-inkscape-font-specification:'Swiss 721,'"
           d="m -310.27558,240.79165 34.0226,11.6117 8.54324,-25.03193 -5.11049,-1.74418 -6.63756,19.44825 -10.2683,-3.5045 5.92697,-17.3662 -4.77925,-1.63113 -5.92697,17.3662 -8.89604,-3.03616 6.42762,-18.8331 -4.96854,-1.69573 z"
           inkscape:connector-curvature="0" />
        <path
           id="path10983"
           style="font-weight:normal;letter-spacing:2px;fill:#009246;font-family:Swiss 721;-inkscape-font-specification:'Swiss 721,'"
           d="m -297.07705,204.64897 32.41755,15.53936 2.5935,-5.41044 -12.75962,-6.11633 3.52283,-7.34917 c 0.77118,-1.56057 1.33326,-3.00305 1.68625,-4.32747 0.35299,-1.32437 0.4085,-2.63542 0.1665,-3.93316 -0.30984,-1.62362 -0.98719,-3.07341 -2.03205,-4.3494 -1.04484,-1.27591 -2.43688,-2.33363 -4.17612,-3.17314 -2.10442,-1.00295 -4.08123,-1.47693 -5.93044,-1.42194 -1.84918,0.0551 -3.52344,0.62714 -5.02277,1.7162 -1.03635,0.77161 -1.89672,1.70377 -2.58113,2.7965 -0.68436,1.09281 -1.33859,2.31785 -1.96268,3.67515 z m 7.28255,-3.16275 3.50122,-7.30409 c 0.91436,-1.94358 2.00791,-3.19831 3.28064,-3.76419 1.27277,-0.56581 2.81465,-0.41352 4.62567,0.45688 1.90869,0.91496 2.99938,2.06155 3.27205,3.43979 0.27269,1.3783 -0.0923,3.07468 -1.0949,5.08916 l -3.34994,6.98849 z"
           inkscape:connector-curvature="0" />
        <path
           id="path10985"
           style="font-weight:normal;letter-spacing:2px;fill:#009246;font-family:Swiss 721;-inkscape-font-specification:'Swiss 721,'"
           d="m -274.70797,162.39102 23.29968,30.37124 3.35017,-5.27616 -6.10882,-7.72866 7.50439,-11.81859 9.56621,2.28367 3.43058,-5.40278 -37.42402,-8.12697 z m 6.90302,0.41495 16.03703,3.84565 -5.7355,9.03278 z"
           inkscape:connector-curvature="0" />
        <path
           id="path10987"
           style="font-weight:normal;letter-spacing:2px;fill:#009246;font-family:Swiss 721;-inkscape-font-specification:'Swiss 721,'"
           d="m -257.92794,137.47578 27.78922,22.80633 3.77462,-4.59933 -11.44035,-9.38897 5.74124,-6.99562 c 1.4651,-1.77698 2.80703,-2.64038 4.02577,-2.5902 1.21874,0.0502 2.56373,0.66085 4.03498,1.83187 l 3.45076,2.57328 c 0.75651,0.57238 1.47402,1.06421 2.15253,1.47549 0.67848,0.41132 1.37519,0.69204 2.09015,0.84216 l 4.25042,-5.17907 -0.81165,-0.66611 c -0.69624,0.26546 -1.35817,0.24776 -1.9858,-0.0531 -0.62766,-0.30082 -1.35224,-0.77419 -2.17372,-1.42012 l -4.17124,-3.03521 c -1.53206,-1.18723 -2.93109,-1.92575 -4.19711,-2.21557 -1.26603,-0.28975 -2.63148,0.0342 -4.09635,0.97185 0.54456,-1.67003 0.54643,-3.30441 0.006,-4.90313 -0.54083,-1.59866 -1.60517,-3.05698 -3.193,-4.37496 -2.45425,-1.97641 -4.92007,-2.83042 -7.39748,-2.56205 -2.47739,0.26845 -4.73457,1.62313 -6.77155,4.06406 -0.0657,0.0768 -0.20562,0.23418 -0.41978,0.47209 -0.21413,0.23798 -0.48887,0.55961 -0.82421,0.96488 z m 7.64653,-1.35701 5.5192,-6.72506 c 1.40639,-1.76453 2.79393,-2.84113 4.16262,-3.22983 1.3687,-0.38862 2.84454,0.0626 4.4275,1.35358 1.60075,1.31375 2.35533,2.69304 2.26375,4.13786 -0.0916,1.44489 -0.89406,3.06634 -2.40742,4.86435 l -5.42404,6.60912 z"
           inkscape:connector-curvature="0" />
        <path
           id="path10989"
           style="font-weight:normal;letter-spacing:2px;fill:#009246;font-family:Swiss 721;-inkscape-font-specification:'Swiss 721,'"
           d="m -233.99247,109.18474 3.65108,3.77246 7.97604,-7.71943 21.35013,22.05987 4.27544,-4.13789 -21.35012,-22.05987 7.94011,-7.684654 -3.65108,-3.772454 z"
           inkscape:connector-curvature="0" />
        <path
           id="path10991"
           style="font-weight:normal;letter-spacing:2px;fill:#009246;font-family:Swiss 721;-inkscape-font-specification:'Swiss 721,'"
           d="m -205.63369,82.411942 21.48755,28.821078 4.44943,-3.31727 -17.75189,-23.810461 24.80684,18.550641 4.68994,-3.496584 -10.61677,-29.130046 17.75189,23.810458 4.56968,-3.406927 -21.48755,-28.821076 -6.97478,5.200047 10.1692,28.278776 -24.11876,-17.878683 z"
           inkscape:connector-curvature="0" />
        <path
           id="path10993"
           style="font-weight:normal;letter-spacing:2px;fill:#009246;font-family:Swiss 721;-inkscape-font-specification:'Swiss 721,'"
           d="m -165.4125,54.057024 17.43109,31.440839 23.13241,-12.824821 -2.6183,-4.722685 -17.97244,9.964086 -5.26084,-9.489099 16.04838,-8.897371 -2.44859,-4.416585 -16.04839,8.897371 -4.55778,-8.220971 17.40397,-9.64892 -2.54557,-4.591499 z"
           inkscape:connector-curvature="0" />
        <path
           id="path10995"
           style="font-weight:normal;letter-spacing:2px;fill:#009246;font-family:Swiss 721;-inkscape-font-specification:'Swiss 721,'"
           d="m -131.17765,35.930062 13.37191,33.370065 5.33735,-2.138762 -10.00569,-24.969534 25.646458,18.702033 5.847883,-2.343339 -13.371911,-33.370065 -5.38376,2.157359 10.005681,24.969534 -25.553631,-18.739228 z"
           inkscape:connector-curvature="0" />
        <path
           id="path10997"
           style="font-weight:normal;letter-spacing:2px;fill:#009246;font-family:Swiss 721;-inkscape-font-specification:'Swiss 721,'"
           d="m -94.274768,21.851903 1.355794,5.071845 10.723329,-2.866536 7.928167,29.658218 5.748091,-1.536566 -7.928167,-29.658218 10.675027,-2.853624 -1.355794,-5.071845 z"
           inkscape:connector-curvature="0" />
        <path
           id="path10999"
           style="font-weight:normal;letter-spacing:2px;fill:#009246;font-family:Swiss 721;-inkscape-font-specification:'Swiss 721,'"
           d="m -23.450037,7.316972 c -5.355336,0.4964045 -9.407366,2.5176993 -12.156103,6.06389 -2.748745,3.546256 -3.901003,8.298154 -3.456778,14.255707 0.550104,5.948748 2.474593,10.443698 5.773472,13.484864 3.298866,3.041175 7.630036,4.362365 12.993522,3.963576 5.355039,-0.499479 9.406548,-2.527002 12.1545413,-6.082574 2.7479295,-3.555559 3.9007084,-8.301229 3.4583401,-14.237024 C -5.2313616,18.8385 -7.1553298,14.349778 -10.454953,11.299231 -13.754635,8.2487528 -18.086325,6.9213344 -23.450037,7.316972 z m 0.432755,5.181894 c 3.473091,-0.26702 6.283621,0.694063 8.431597,2.883252 2.147925,2.18925 3.422551,5.486229 3.823882,9.890947 0.333017,4.388508 -0.377607,7.845009 -2.131875,10.369513 -1.754321,2.524523 -4.365985,3.944701 -7.835,4.260536 -3.473388,0.263945 -6.284439,-0.703366 -8.433159,-2.901937 -2.148742,-2.198553 -3.422848,-5.489303 -3.82232,-9.872262 -0.331759,-4.410527 0.384574,-7.873777 2.148999,-10.389758 1.764408,-2.515924 4.370364,-3.929353 7.817876,-4.240291 z"
           inkscape:connector-curvature="0" />
        <path
           id="path11001"
           style="font-weight:normal;letter-spacing:2px;fill:#009246;font-family:Swiss 721;-inkscape-font-specification:'Swiss 721,'"
           d="m 6.2685855,6.9444011 -1.4051319,35.9220659 5.8954154,0.230606 0.619509,-15.837684 16.337296,0.639051 0.203245,-5.195959 -16.337295,-0.639052 0.377177,-9.642502 18.635509,0.728949 0.2052,-5.2459203 z"
           inkscape:connector-curvature="0" />
        <path
           id="path11003"
           style="font-weight:normal;letter-spacing:2px;fill:#009246;font-family:Swiss 721;-inkscape-font-specification:'Swiss 721,'"
           d="M 68.489862,13.404043 48.24173,45.88943 l 6.116871,1.282726 5.089468,-8.434887 13.701791,2.873305 1.223142,9.758659 6.263676,1.313511 -5.540595,-37.893357 z m 2.036965,6.608672 2.034359,16.365723 -10.472083,-2.196026 z"
           inkscape:connector-curvature="0" />
        <path
           id="path11005"
           style="font-weight:normal;letter-spacing:2px;fill:#009246;font-family:Swiss 721;-inkscape-font-specification:'Swiss 721,'"
           d="m 123.65978,40.986586 c 0.71191,-3.708358 0.15941,-6.991864 -1.65752,-9.850529 -1.81701,-2.858622 -4.80937,-5.036087 -8.97708,-6.532403 -4.94704,-1.663064 -9.41655,-1.417519 -13.408527,0.736635 -3.992015,2.15421 -6.98916,5.987564 -8.991445,11.500075 -1.840667,5.520555 -1.879459,10.367299 -0.116376,14.540243 1.763067,4.172949 4.974663,7.111392 9.634798,8.81534 2.27149,0.790637 4.45689,1.061132 6.55618,0.811488 2.09925,-0.249661 4.07465,-1.00619 5.9262,-2.269588 l -0.55928,4.62484 3.72818,1.30491 6.40892,-18.310543 -14.48798,-5.070979 -1.63526,4.67202 9.29684,3.254016 c -1.19998,2.920649 -2.94542,4.912044 -5.23635,5.97419 -2.29098,1.062141 -4.82982,1.120415 -7.61654,0.174821 -3.200236,-1.14219 -5.361619,-3.152409 -6.484158,-6.030662 -1.122567,-2.878246 -0.97623,-6.411568 0.439011,-10.599977 1.469875,-4.12069 3.522577,-6.964689 6.158107,-8.532005 2.63549,-1.567271 5.65678,-1.767902 9.06388,-0.601893 2.30161,0.82439 4.00022,2.056816 5.09584,3.697281 1.09554,1.640504 1.51111,3.549534 1.2467,5.727096 z"
           inkscape:connector-curvature="0" />
        <path
           id="path11007"
           style="font-weight:normal;letter-spacing:2px;fill:#009246;font-family:Swiss 721;-inkscape-font-specification:'Swiss 721,'"
           d="m 140.35403,36.331034 -16.24423,32.070147 5.30785,2.688544 6.68747,-13.202731 8.0733,4.089298 c 2.05218,1.045331 3.1858,2.168332 3.40086,3.369006 0.215,1.200676 -0.0897,2.646013 -0.9142,4.336013 l -1.76457,3.9263 c -0.39489,0.862551 -0.71959,1.669572 -0.97411,2.421066 -0.25456,0.751475 -0.37767,1.492463 -0.36933,2.222967 l 5.97691,3.027436 0.47445,-0.93668 c -0.41,-0.622192 -0.53612,-1.27224 -0.37837,-1.950146 0.15769,-0.67793 0.46284,-1.487848 0.91545,-2.429756 l 2.05944,-4.72975 c 0.82712,-1.752876 1.245,-3.278681 1.25366,-4.577418 0.009,-1.298738 -0.60349,-2.561575 -1.83622,-3.788513 1.74834,0.169819 3.3443,-0.182442 4.78789,-1.056785 1.44352,-0.874332 2.63661,-2.229329 3.5793,-4.064994 1.39776,-2.824138 1.69728,-5.416418 0.89856,-7.776847 -0.7988,-2.360395 -2.61032,-4.270479 -5.43458,-5.730257 -0.0892,-0.04749 -0.27317,-0.150004 -0.55182,-0.307537 -0.27873,-0.157487 -0.65224,-0.356018 -1.12053,-0.595593 z m 2.98137,7.170937 7.76107,3.931148 c 2.02731,0.990711 3.37895,2.112052 4.05493,3.364025 0.67592,1.252005 0.55518,2.790536 -0.36222,4.615599 -0.93575,1.84735 -2.1188,2.882828 -3.54915,3.106437 -1.43042,0.223624 -3.18721,-0.208507 -5.27038,-1.296395 l -7.62726,-3.86337 z"
           inkscape:connector-curvature="0" />
        <path
           id="path11009"
           style="font-weight:normal;letter-spacing:2px;fill:#009246;font-family:Swiss 721;-inkscape-font-specification:'Swiss 721,'"
           d="m 175.22799,55.165026 -19.04846,30.488117 5.08842,3.179159 19.04846,-30.488116 z"
           inkscape:connector-curvature="0" />
        <path
           id="path11011"
           style="font-weight:normal;letter-spacing:2px;fill:#009246;font-family:Swiss 721;-inkscape-font-specification:'Swiss 721,'"
           d="m 208.7591,92.733868 c 2.0118,-3.231322 2.64255,-6.485712 1.89225,-9.763181 -0.75039,-3.277451 -2.86671,-6.267858 -6.34895,-8.971232 -4.29526,-3.219361 -8.61656,-4.419533 -12.96391,-3.600519 -4.3474,0.819056 -8.36173,3.608795 -12.04299,8.369225 -3.56861,4.763818 -5.20202,9.344306 -4.90024,13.741475 0.30176,4.397169 2.49448,8.184424 6.57815,11.361774 3.62064,2.67128 7.31208,3.85247 11.07432,3.54356 3.76218,-0.30894 6.98843,-2.04386 9.67874,-5.20477 l -4.65295,-3.545661 c -1.77003,1.929181 -3.78273,2.985881 -6.0381,3.170091 -2.25543,0.18419 -4.45218,-0.51805 -6.59024,-2.106716 -2.61493,-2.031926 -3.94966,-4.573429 -4.00422,-7.624519 -0.0546,-3.05109 1.23137,-6.330049 3.85785,-9.836888 2.59269,-3.371451 5.32711,-5.413057 8.20325,-6.124823 2.87609,-0.711735 5.70215,-0.0276 8.47818,2.052416 2.05311,1.581584 3.34443,3.317327 3.87397,5.207233 0.52946,1.889922 0.26686,3.808775 -0.78782,5.756564 z"
           inkscape:connector-curvature="0" />
        <path
           id="path11013"
           style="font-weight:normal;letter-spacing:2px;fill:#009246;font-family:Swiss 721;-inkscape-font-specification:'Swiss 721,'"
           d="m 224.9057,92.051517 -15.97265,16.129213 c -3.30633,3.3491 -4.95309,6.71441 -4.94027,10.09593 0.0128,3.38152 1.68048,6.72183 5.00303,10.02093 3.21507,3.16186 6.55507,4.75423 10.02002,4.77713 3.4649,0.0228 6.84224,-1.60228 10.13203,-4.87542 l 15.97264,-16.12921 -4.26323,-4.22184 -15.72637,15.88052 c -2.13578,2.17445 -4.21022,3.32772 -6.22333,3.45982 -2.01316,0.13207 -4.02707,-0.80091 -6.04173,-2.79896 -2.01615,-1.99364 -2.96282,-3.99249 -2.84,-5.99655 0.1228,-2.00407 1.2617,-4.0838 3.41672,-6.2392 l 15.72636,-15.880519 z"
           inkscape:connector-curvature="0" />
        <path
           id="path11015"
           style="font-weight:normal;letter-spacing:2px;fill:#009246;font-family:Swiss 721;-inkscape-font-specification:'Swiss 721,'"
           d="m 254.00087,122.29037 -28.05297,22.48109 14.85191,18.53292 4.25281,-3.40813 -11.09984,-13.85091 23.80016,-19.07298 z"
           inkscape:connector-curvature="0" />
        <path
           id="path11017"
           style="font-weight:normal;letter-spacing:2px;fill:#009246;font-family:Swiss 721;-inkscape-font-specification:'Swiss 721,'"
           d="m 272.59803,145.99284 -4.4145,2.84148 6.0077,9.33351 -25.81431,16.61588 3.22034,5.00309 25.81431,-16.61587 5.98063,9.29147 4.4145,-2.84148 z"
           inkscape:connector-curvature="0" />
        <path
           id="path11019"
           style="font-weight:normal;letter-spacing:2px;fill:#009246;font-family:Swiss 721;-inkscape-font-specification:'Swiss 721,'"
           d="m 292.8797,178.59955 -20.39824,9.95934 c -4.22585,2.07137 -6.89031,4.70533 -7.99338,7.90191 -1.10309,3.19656 -0.63029,6.89997 1.4184,11.11024 1.99246,4.04525 4.62047,6.65002 7.88403,7.81432 3.26352,1.16425 6.98787,0.74383 11.17304,-1.26127 l 20.39824,-9.95935 -2.63243,-5.39161 -20.08373,9.80579 c -2.73339,1.34845 -5.07211,1.75309 -7.01617,1.2139 -1.94409,-0.53922 -3.53765,-2.08416 -4.78068,-4.63484 -1.24589,-2.547 -1.4804,-4.74622 -0.70354,-6.59767 0.77683,-1.85145 2.53789,-3.43924 5.28316,-4.76337 l 20.08373,-9.80579 z"
           inkscape:connector-curvature="0" />
        <path
           id="path11021"
           style="font-weight:normal;letter-spacing:2px;fill:#009246;font-family:Swiss 721;-inkscape-font-specification:'Swiss 721,'"
           d="m 310.64106,217.13158 -34.0461,11.54264 1.9104,5.63489 14.01619,-4.75191 2.90573,8.57072 c 0.73452,2.18281 0.7585,3.77832 0.0719,4.78653 -0.6866,1.00817 -1.9157,1.82743 -3.68728,2.45778 l -4.00806,1.57003 c -0.88569,0.33984 -1.68237,0.68913 -2.39006,1.04788 -0.70771,0.35869 -1.31418,0.80188 -1.81942,1.32956 l 2.15121,6.34517 0.99439,-0.33713 c 0.1425,-0.73138 0.50729,-1.28401 1.09436,-1.65789 0.58705,-0.37394 1.37179,-0.73899 2.35424,-1.09513 l 4.78094,-1.93765 c 1.81748,-0.6734 3.18371,-1.47096 4.09871,-2.39268 0.91496,-0.92177 1.36141,-2.25221 1.33936,-3.99133 1.13012,1.34475 2.51673,2.20991 4.15982,2.59549 1.64303,0.38554 3.44353,0.25247 5.4015,-0.39921 2.97476,-1.03936 5.00273,-2.68161 6.08391,-4.92674 1.0811,-2.24517 1.12363,-4.87732 0.12758,-7.89647 -0.0305,-0.0964 -0.0902,-0.29831 -0.179,-0.60584 -0.0889,-0.30755 -0.2168,-0.71074 -0.38369,-1.20959 z m -2.88821,7.20897 2.79335,8.23925 c 0.75497,2.12638 0.93586,3.87327 0.54267,5.24067 -0.39327,1.36738 -1.55614,2.38197 -3.48862,3.04376 -1.9612,0.66488 -3.53093,0.57673 -4.7092,-0.26446 -1.17833,-0.84121 -2.13093,-2.37926 -2.85781,-4.61415 l -2.74519,-8.0972 z"
           inkscape:connector-curvature="0" />
        <path
           id="path11023"
           style="font-weight:normal;letter-spacing:2px;fill:#009246;font-family:Swiss 721;-inkscape-font-specification:'Swiss 721,'"
           d="m 322.82498,255.91337 -35.1945,7.32914 5.39237,25.89415 5.28652,-1.1009 -4.18954,-20.11814 10.62199,-2.21199 3.74102,17.96437 4.94387,-1.02955 -3.74102,-17.96437 9.20246,-1.91638 4.05702,19.4818 5.13967,-1.07032 z"
           inkscape:connector-curvature="0" />
      </g>
      <path
         transform="matrix(1.1830357,0,0,2.5015644,-57.490943,-492.73258)"
         d="m 325.3477,331.14136 c 0,2.20775 -3.78446,3.9975 -8.45283,3.9975 -4.66837,0 -8.45283,-1.78975 -8.45283,-3.9975 0,-2.20776 3.78446,-3.9975 8.45283,-3.9975 4.66837,0 8.45283,1.78974 8.45283,3.9975 z"
         sodipodi:ry="3.9974985"
         sodipodi:rx="8.4528303"
         sodipodi:cy="331.14136"
         sodipodi:cx="316.89487"
         id="path10958"
         style="color:#000000;fill:#009246;fill-opacity:1;stroke:none;stroke-width:1;marker:none;visibility:visible;display:inline;overflow:visible;enable-background:accumulate"
         sodipodi:type="arc" />
      <path
         transform="matrix(1.1830357,0,0,2.5015644,-686.02386,-492.73258)"
         d="m 325.3477,331.14136 c 0,2.20775 -3.78446,3.9975 -8.45283,3.9975 -4.66837,0 -8.45283,-1.78975 -8.45283,-3.9975 0,-2.20776 3.78446,-3.9975 8.45283,-3.9975 4.66837,0 8.45283,1.78974 8.45283,3.9975 z"
         sodipodi:ry="3.9974985"
         sodipodi:rx="8.4528303"
         sodipodi:cy="331.14136"
         sodipodi:cx="316.89487"
         id="path10958-9"
         style="color:#000000;fill:#009246;fill-opacity:1;stroke:none;stroke-width:1;marker:none;visibility:visible;display:inline;overflow:visible;enable-background:accumulate"
         sodipodi:type="arc" />
    </g>
  </g>
</svg>
