<?xml version="1.0" encoding="UTF-8" standalone="no"?>
<!-- Created with Inkscape (http://www.inkscape.org/) -->

<svg
   xmlns:dc="http://purl.org/dc/elements/1.1/"
   xmlns:cc="http://creativecommons.org/ns#"
   xmlns:rdf="http://www.w3.org/1999/02/22-rdf-syntax-ns#"
   xmlns:svg="http://www.w3.org/2000/svg"
   xmlns="http://www.w3.org/2000/svg"
   xmlns:sodipodi="http://sodipodi.sourceforge.net/DTD/sodipodi-0.dtd"
   xmlns:inkscape="http://www.inkscape.org/namespaces/inkscape"
   width="445.25"
   height="480.01501"
   id="svg20197"
   version="1.1"
   inkscape:version="0.48.5 r10040"
   sodipodi:docname="New document 23">
  <title
     id="title35786">Bureau of Soils and Water Management (BSWM)</title>
  <defs
     id="defs20199" />
  <sodipodi:namedview
     id="base"
     pagecolor="#ffffff"
     bordercolor="#666666"
     borderopacity="1.0"
     inkscape:pageopacity="0.0"
     inkscape:pageshadow="2"
     inkscape:zoom="0.75130095"
     inkscape:cx="368.22381"
     inkscape:cy="190.89048"
     inkscape:document-units="px"
     inkscape:current-layer="layer1"
     showgrid="false"
     inkscape:snap-bbox="true"
     inkscape:bbox-paths="true"
     inkscape:bbox-nodes="true"
     inkscape:snap-bbox-edge-midpoints="true"
     inkscape:snap-bbox-midpoints="true"
     inkscape:object-paths="true"
     inkscape:snap-intersection-paths="true"
     inkscape:object-nodes="true"
     inkscape:snap-smooth-nodes="true"
     inkscape:snap-midpoints="true"
     inkscape:snap-object-midpoints="true"
     inkscape:snap-center="true"
     showguides="true"
     inkscape:guide-bbox="true"
     inkscape:snap-global="false"
     inkscape:window-width="1366"
     inkscape:window-height="705"
     inkscape:window-x="-8"
     inkscape:window-y="-8"
     inkscape:window-maximized="1"
     fit-margin-top="0"
     fit-margin-left="0"
     fit-margin-right="0"
     fit-margin-bottom="0" />
  <metadata
     id="metadata20202">
    <rdf:RDF>
      <cc:Work
         rdf:about="">
        <dc:format>image/svg+xml</dc:format>
        <dc:type
           rdf:resource="http://purl.org/dc/dcmitype/StillImage" />
        <cc:license
           rdf:resource="http://creativecommons.org/licenses/publicdomain/" />
        <dc:title>Bureau of Soils and Water Management (BSWM)</dc:title>
      </cc:Work>
      <cc:License
         rdf:about="http://creativecommons.org/licenses/publicdomain/">
        <cc:permits
           rdf:resource="http://creativecommons.org/ns#Reproduction" />
        <cc:permits
           rdf:resource="http://creativecommons.org/ns#Distribution" />
        <cc:permits
           rdf:resource="http://creativecommons.org/ns#DerivativeWorks" />
      </cc:License>
    </rdf:RDF>
  </metadata>
  <g
     inkscape:label="Layer 1"
     inkscape:groupmode="layer"
     id="layer1"
     transform="translate(-542.96875,-1129.5475)">
    <g
       id="g35780">
      <path
         inkscape:connector-curvature="0"
         id="rect34682"
         d="m 714.97044,1129.5475 c -9.45529,0 -17.70464,4.3149 -22.13481,10.7194 l -138.70932,0 c -0.22667,0 -0.45146,0.01 -0.67464,0.021 -0.85294,-5.5862 -2.72841,-9.4772 -4.90457,-9.4772 -2.9794,0 -5.38646,7.2763 -5.38646,16.2451 0,0.9293 0.0252,1.8227 0.075,2.7093 -0.0562,0.4478 -0.0857,0.9073 -0.0857,1.3707 l 0,24.3943 c 0,6.0261 4.89445,10.88 10.97638,10.88 l 24.19088,0 141.85766,0 1.83117,0 0,0.075 c 12.69721,0.9299 22.64884,11.4517 22.64884,24.3943 l 0,2.2381 c 0.024,0.4739 0.0428,0.955 0.0428,1.435 l -0.0428,95.1893 0,96.4101 c 0.63186,10.922 9.66322,19.5895 20.73197,19.6397 0.0214,10e-5 0.0428,0 0.0643,0 0.0214,0 0.0428,10e-5 0.0642,0 11.06875,-0.05 20.10011,-8.7177 20.73197,-19.6397 l 0,-96.4101 -0.0428,-95.1893 c 0,-0.48 0.0188,-0.9611 0.0428,-1.435 l 0,-2.2381 c 0,-12.9426 9.95166,-23.4644 22.64885,-24.3943 l 0,-0.075 1.83116,0 141.85765,0 24.19089,0 c 6.08193,0 10.97636,-4.8539 10.97636,-10.88 l 0,-24.3943 c 0,-0.4634 -0.0295,-0.9229 -0.0857,-1.3707 0.05,-0.8866 0.075,-1.78 0.075,-2.7093 0,-8.9688 -2.40704,-16.2451 -5.38648,-16.2451 -2.17617,0 -4.05161,3.891 -4.90453,9.4772 -0.22319,-0.013 -0.44802,-0.021 -0.67466,-0.021 l -138.70931,0 c -4.4302,-6.4045 -12.67953,-10.7194 -22.13482,-10.7194 -9.45529,0 -17.70449,4.3149 -22.13482,10.7194 l -0.0214,0 c -5.05178,7.2324 -15.83559,12.2186 -28.32443,12.2186 -12.48884,0 -23.27265,-4.9862 -28.32443,-12.2186 l -0.0214,0 c -4.43038,-6.4045 -12.67954,-10.7194 -22.13483,-10.7194 z"
         style="color:#000000;fill:#d4af37;fill-opacity:1;stroke:none;stroke-width:0.18060954;marker:none;visibility:visible;display:inline;overflow:visible;enable-background:accumulate" />
      <path
         inkscape:connector-curvature="0"
         id="path35317"
         d="m 711.86493,1194.6455 c -8.71494,0 -16.27076,4.9052 -20.05733,12.1008 l -11.11559,0 -126.5657,0 c -0.22667,0 -0.45146,0.01 -0.67464,0.021 -0.85294,-5.5862 -2.72841,-9.4772 -4.90457,-9.4772 -2.9794,0 -5.38646,7.2762 -5.38646,16.2451 0,0.9293 0.0252,1.8226 0.075,2.7093 -0.0562,0.4478 -0.0857,0.9072 -0.0857,1.3707 l 0,24.3943 c 0,6.026 4.89445,10.88 10.97638,10.88 l 24.19088,0 9.63779,0 104.82711,0 1.04945,0 c 12.04175,0 21.73859,9.6968 21.73859,21.7386 l 0,100.7685 0,37.2019 0,13.418 c 0,9.2626 7.4536,16.7162 16.7162,16.7162 l 16.65199,0 c 0.30385,0 0.59975,-0.01 0.89953,-0.021 l 0,0.021 15.81668,0 15.81671,0 0,-0.021 c 0.29977,0.016 0.59568,0.021 0.89953,0.021 l 16.65195,0 c 9.26264,0 16.71624,-7.4536 16.71624,-16.7162 l 0,-13.418 0,-37.2019 0,-100.7685 c 0,-12.0418 9.69684,-21.7386 21.73859,-21.7386 l 1.04945,0 104.82712,0 9.6378,0 24.19085,0 c 6.08191,0 10.9764,-4.854 10.9764,-10.88 l 0,-24.3943 c 0,-0.4635 -0.0295,-0.9229 -0.0857,-1.3707 0.05,-0.8867 0.075,-1.78 0.075,-2.7093 0,-8.9689 -2.40704,-16.2451 -5.38644,-16.2451 -2.17621,0 -4.05165,3.891 -4.90461,9.4772 -0.22315,-0.013 -0.44798,-0.021 -0.67463,-0.021 l -126.56567,0 -11.11563,0 c -3.78651,-7.1956 -11.34238,-12.1008 -20.05731,-12.1008 -12.50744,0 -22.64884,10.1025 -22.64884,22.5738 l 0,0.1928 0,7.1855 0,195.4331 c 0,7.8598 -6.32914,14.189 -14.18896,14.189 l -16.95183,0 -16.9518,0 c -7.85982,0 -14.189,-6.3292 -14.189,-14.189 l 0,-195.4331 0,-7.1855 0,-0.1928 c 0,-12.4713 -10.14136,-22.5738 -22.6488,-22.5738 z"
         style="color:#000000;fill:#006c35;fill-opacity:1;stroke:#000000;stroke-width:0.06189078;stroke-opacity:1;marker:none;visibility:visible;display:inline;overflow:visible;enable-background:accumulate" />
      <path
         inkscape:connector-curvature="0"
         id="rect35438-9"
         d="m 543.14993,1272.6153 0,284.7433 c 0,28.8194 23.19266,52.0227 52.01198,52.0227 l 170.22492,0 0,-127.2296 -57.26993,0 -15.52757,0.1285 c -0.0108,3e-4 -0.0213,-2e-4 -0.0321,0 l -0.92095,0.011 c -0.0648,0 -0.12807,3e-4 -0.19275,0 l -0.28914,0 0.0107,-0.011 c -19.35787,-0.2538 -34.97449,-16.0168 -34.97449,-35.435 0,-5.4464 1.22132,-10.6064 3.41606,-15.217 l 0.0321,-0.054 c 0.69483,-1.4531 1.48786,-2.8517 2.36661,-4.1871 l 41.63528,-73.7292 0,-81.0431 -160.49074,0 z"
         style="color:#000000;fill:#0038a8;fill-opacity:1;stroke:#0038a8;stroke-width:0.33241147;stroke-linecap:square;stroke-linejoin:bevel;stroke-miterlimit:4;stroke-opacity:1;stroke-dasharray:none;stroke-dashoffset:0;marker:none;visibility:visible;display:inline;overflow:visible;enable-background:accumulate" />
      <path
         id="rect35438-9-3"
         d="m 987.62377,1272.6153 0,284.7433 c 0,28.8194 -23.19267,52.0227 -52.01199,52.0227 l -170.22495,0 0,-127.2296 57.26993,0 15.5276,0.1285 c 0.011,0 0.0212,-2e-4 0.0322,0 l 0.92094,0.011 c 0.0648,0 0.12806,3e-4 0.19276,0 l 0.28912,0 -0.0106,-0.011 c 19.35787,-0.2538 34.9745,-16.0168 34.9745,-35.435 0,-5.4464 -1.2213,-10.6064 -3.41605,-15.217 l -0.0322,-0.054 c -0.69485,-1.4531 -1.48787,-2.8517 -2.36663,-4.1871 l -41.63532,-73.7292 0,-81.0431 160.49079,0 z"
         style="color:#000000;fill:#ce1126;fill-opacity:1;stroke:#ce1126;stroke-width:0.33241147;stroke-linecap:square;stroke-linejoin:bevel;stroke-miterlimit:4;stroke-opacity:1;stroke-dasharray:none;stroke-dashoffset:0;marker:none;visibility:visible;display:inline;overflow:visible;enable-background:accumulate"
         inkscape:connector-curvature="0" />
    </g>
  </g>
</svg>
