<?xml version="1.0" encoding="UTF-8" standalone="no"?>
<!-- Created with Inkscape (http://www.inkscape.org/) -->

<svg
   xmlns:dc="http://purl.org/dc/elements/1.1/"
   xmlns:cc="http://creativecommons.org/ns#"
   xmlns:rdf="http://www.w3.org/1999/02/22-rdf-syntax-ns#"
   xmlns:svg="http://www.w3.org/2000/svg"
   xmlns="http://www.w3.org/2000/svg"
   xmlns:sodipodi="http://sodipodi.sourceforge.net/DTD/sodipodi-0.dtd"
   xmlns:inkscape="http://www.inkscape.org/namespaces/inkscape"
   width="284.54184"
   height="480"
   id="svg2"
   version="1.1"
   inkscape:version="0.48.5 r10040"
   sodipodi:docname="New document 1">
  <title
     id="title4252">Bureau of Plant Industry (BPI)</title>
  <defs
     id="defs4" />
  <sodipodi:namedview
     id="base"
     pagecolor="#ffffff"
     bordercolor="#666666"
     borderopacity="1.0"
     inkscape:pageopacity="0.0"
     inkscape:pageshadow="2"
     inkscape:zoom="0.72460937"
     inkscape:cx="50.576495"
     inkscape:cy="202.79915"
     inkscape:document-units="px"
     inkscape:current-layer="layer1"
     showgrid="false"
     fit-margin-top="0"
     fit-margin-left="0"
     fit-margin-right="0"
     fit-margin-bottom="0"
     inkscape:window-width="1366"
     inkscape:window-height="705"
     inkscape:window-x="-8"
     inkscape:window-y="-8"
     inkscape:window-maximized="1" />
  <metadata
     id="metadata7">
    <rdf:RDF>
      <cc:Work
         rdf:about="">
        <dc:format>image/svg+xml</dc:format>
        <dc:type
           rdf:resource="http://purl.org/dc/dcmitype/StillImage" />
        <dc:title>Bureau of Plant Industry (BPI)</dc:title>
        <cc:license
           rdf:resource="http://creativecommons.org/licenses/publicdomain/" />
      </cc:Work>
      <cc:License
         rdf:about="http://creativecommons.org/licenses/publicdomain/">
        <cc:permits
           rdf:resource="http://creativecommons.org/ns#Reproduction" />
        <cc:permits
           rdf:resource="http://creativecommons.org/ns#Distribution" />
        <cc:permits
           rdf:resource="http://creativecommons.org/ns#DerivativeWorks" />
      </cc:License>
    </rdf:RDF>
  </metadata>
  <g
     inkscape:label="Layer 1"
     inkscape:groupmode="layer"
     id="layer1"
     transform="translate(-314.64355,-118.32444)">
    <g
       id="g4247"
       transform="matrix(2.2532123,0,0,2.2532123,-394.3152,-749.82758)">
      <path
         sodipodi:nodetypes="cacacascccac"
         inkscape:connector-curvature="0"
         id="path2996"
         d="m 359.50404,593.32175 c 0,0 5.1126,-0.62882 7.24529,0.51752 1.66142,0.89303 3.45013,4.48518 3.45013,4.48518 0,0 0.40839,-4.09898 1.89758,-5.17521 1.44551,-1.04467 5.3477,-0.1725 5.3477,-0.1725 0,0 -5.21317,-5.91129 -6.29649,-9.57413 -2.3002,-7.77726 -1.65147,-16.42514 0.16095,-24.33032 9.56201,-41.70644 72.46492,-34.94425 69.51674,-173.77703 -11.8904,43.25796 -54.54964,72.40572 -71.22447,107.17558 -10.27222,25.542 -7.53641,42.72016 -3.41545,66.60145 1.14629,7.97036 1.77776,16.42513 -0.48793,24.15218 -1.11101,3.78905 -6.19405,10.09728 -6.19405,10.09728 z"
         style="fill:#006c35;fill-opacity:1;stroke:none" />
      <path
         sodipodi:nodetypes="cscscc"
         inkscape:connector-curvature="0"
         id="path3766"
         d="m 365.94205,557.60852 c 0,0 -7.04858,-6.6407 -7.80676,-11.10024 -6.80056,-40.00018 -35.8474,-27.70568 -41.0679,-63.76335 -11.79507,54.79318 22.42963,54.28118 38.77934,67.025 3.96606,3.09136 10.55758,10.77554 10.55758,10.77554 z"
         style="fill:#009246;fill-opacity:1;stroke:none" />
      <path
         sodipodi:nodetypes="ccccc"
         inkscape:connector-curvature="0"
         id="path3768"
         d="m 352.03626,519.79451 c 6.42536,-9.84329 12.47167,-15.88991 11.87524,-32.49705 -0.19718,-10.27791 -5.08289,-18.2934 -11.63128,-25.80972 -7.20765,7.14094 -13.99174,15.76887 -13.61744,25.84765 -0.30907,17.6396 6.46998,22.09563 13.37348,32.45912 z"
         style="fill:#fcd116;fill-opacity:1;stroke:none" />
    </g>
  </g>
</svg>
