<?xml version="1.0" encoding="UTF-8" standalone="no"?>
<!-- Created with Inkscape (http://www.inkscape.org/) -->

<svg
   xmlns:dc="http://purl.org/dc/elements/1.1/"
   xmlns:cc="http://creativecommons.org/ns#"
   xmlns:rdf="http://www.w3.org/1999/02/22-rdf-syntax-ns#"
   xmlns:svg="http://www.w3.org/2000/svg"
   xmlns="http://www.w3.org/2000/svg"
   xmlns:sodipodi="http://sodipodi.sourceforge.net/DTD/sodipodi-0.dtd"
   xmlns:inkscape="http://www.inkscape.org/namespaces/inkscape"
   width="480.00003"
   height="480.00003"
   id="svg5828"
   version="1.1"
   inkscape:version="0.48.5 r10040"
   sodipodi:docname="New document 19">
  <title
     id="title20195">Bureau of Agricultural and Fisheries Product Standards (BAFPS)</title>
  <defs
     id="defs5830" />
  <sodipodi:namedview
     id="base"
     pagecolor="#ffffff"
     bordercolor="#666666"
     borderopacity="1.0"
     inkscape:pageopacity="0.0"
     inkscape:pageshadow="2"
     inkscape:zoom="0.81258311"
     inkscape:cx="218.03779"
     inkscape:cy="231.14282"
     inkscape:document-units="px"
     inkscape:current-layer="layer1"
     showgrid="false"
     inkscape:snap-bbox="true"
     inkscape:bbox-paths="true"
     inkscape:bbox-nodes="true"
     inkscape:snap-bbox-edge-midpoints="true"
     inkscape:snap-bbox-midpoints="true"
     inkscape:object-paths="true"
     inkscape:snap-intersection-paths="true"
     inkscape:snap-smooth-nodes="true"
     inkscape:object-nodes="true"
     inkscape:snap-midpoints="true"
     inkscape:snap-object-midpoints="true"
     inkscape:snap-center="true"
     inkscape:snap-global="false"
     fit-margin-top="0"
     fit-margin-left="0"
     fit-margin-right="0"
     fit-margin-bottom="0"
     inkscape:window-width="1366"
     inkscape:window-height="705"
     inkscape:window-x="-8"
     inkscape:window-y="-8"
     inkscape:window-maximized="1" />
  <metadata
     id="metadata5833">
    <rdf:RDF>
      <cc:Work
         rdf:about="">
        <dc:format>image/svg+xml</dc:format>
        <dc:type
           rdf:resource="http://purl.org/dc/dcmitype/StillImage" />
        <cc:license
           rdf:resource="http://creativecommons.org/licenses/publicdomain/" />
        <dc:title>Bureau of Agricultural and Fisheries Product Standards (BAFPS)</dc:title>
      </cc:Work>
      <cc:License
         rdf:about="http://creativecommons.org/licenses/publicdomain/">
        <cc:permits
           rdf:resource="http://creativecommons.org/ns#Reproduction" />
        <cc:permits
           rdf:resource="http://creativecommons.org/ns#Distribution" />
        <cc:permits
           rdf:resource="http://creativecommons.org/ns#DerivativeWorks" />
      </cc:License>
    </rdf:RDF>
  </metadata>
  <g
     inkscape:label="Layer 1"
     inkscape:groupmode="layer"
     id="layer1"
     transform="translate(-293.7242,-135.27145)">
    <g
       id="g20188"
       transform="matrix(1.0815681,0,0,1.0815681,-23.958509,-50.186493)">
      <path
         transform="matrix(25.265846,0,0,0.99781474,-12576.479,-2.2494523)"
         d="m 526.95656,396.48727 c 0,122.82041 -3.93211,222.38602 -8.78261,222.38602 -4.8505,0 -8.78261,-99.56561 -8.78261,-222.38602 0,-122.8204 3.93211,-222.38601 8.78261,-222.38601 4.8505,0 8.78261,99.56561 8.78261,222.38601 z"
         sodipodi:ry="222.38602"
         sodipodi:rx="8.782609"
         sodipodi:cy="396.48727"
         sodipodi:cx="518.17395"
         id="path5873"
         style="color:#000000;fill:#cfb53b;fill-opacity:1;stroke:none;stroke-width:0.03983255;marker:none;visibility:visible;display:inline;overflow:visible;enable-background:accumulate"
         sodipodi:type="arc" />
      <path
         sodipodi:nodetypes="cacccacc"
         inkscape:connector-curvature="0"
         id="path5847"
         d="m 308.85509,327.30899 c 5.44606,-6.51325 15.60721,-10.5645 23.90822,-8.78261 32.27292,6.92769 70.7488,69.28503 70.7488,69.28503 C 470.75673,326.4478 535.9451,221.12753 678.21261,243.8742 568.52334,298.32784 501.43808,369.95539 430.83578,459.04813 c 0,0 -55.9348,-51.44578 -91.24155,-54.64734 -9.68749,-0.87845 -27.32368,10.24637 -27.32368,10.24637 -8.36781,-25.25466 -18.82409,-67.72914 -3.41546,-87.33817 z"
         style="fill:#ffffff;stroke:none" />
      <path
         sodipodi:nodetypes="cacccacc"
         inkscape:connector-curvature="0"
         id="path5849"
         d="m 312.27055,414.64716 c 0,0 17.63619,-11.12482 27.32368,-10.24637 35.30675,3.20156 91.24155,54.64734 91.24155,54.64734 78.14744,-77.77079 167.20418,-147.04512 268.3575,-134.66667 -114.54772,52.10991 -195.14951,107.15602 -254.69566,202.97586 0,0 -46.93179,-41.27276 -76.11595,-48.79228 -11.99565,-3.09077 -37.08213,2.43962 -37.08213,2.43962 -10.41185,-21.26867 -16.06361,-42.91354 -19.02899,-66.3575 z"
         style="fill:#006c35;fill-opacity:1;stroke:none" />
      <path
         sodipodi:nodetypes="cccccc"
         inkscape:connector-curvature="0"
         id="path5869"
         d="M 722.61358,351.21721 C 608.91106,401.10919 531.4288,463.2037 463.5266,561.51191 428.5308,533.96732 398.3154,518.29218 353.25606,518.08678 l -21.95652,-37.08212 c 41.65459,-19.27333 79.37869,17.06806 113.19808,46.35266 38.75179,-74.25131 162.01995,-192.43247 278.11596,-176.14011 z"
         style="fill:#ce1126;fill-opacity:1;stroke:none" />
      <path
         sodipodi:nodetypes="ccccccc"
         inkscape:connector-curvature="0"
         id="path5871"
         d="m 372.77297,539.06746 c 43.07279,0.80384 75.38778,16.15364 109.78262,41.96136 88.34048,-109.52036 147.81504,-153.97031 250.74645,-207.85509 0,0 -50.45535,-0.43079 -73.25397,8.7914 C 576.12208,424.84158 517.00199,480.9821 463.5266,561.51191 420.10732,527.98387 397.40525,517.19063 353.25606,518.08678 z"
         style="fill:#0038a8;fill-opacity:1;stroke:none" />
    </g>
  </g>
</svg>
