<?xml version="1.0" encoding="UTF-8" standalone="no"?>
<svg
   xmlns:dc="http://purl.org/dc/elements/1.1/"
   xmlns:cc="http://creativecommons.org/ns#"
   xmlns:rdf="http://www.w3.org/1999/02/22-rdf-syntax-ns#"
   xmlns:svg="http://www.w3.org/2000/svg"
   xmlns="http://www.w3.org/2000/svg"
   xmlns:sodipodi="http://sodipodi.sourceforge.net/DTD/sodipodi-0.dtd"
   xmlns:inkscape="http://www.inkscape.org/namespaces/inkscape"
   version="1.0"
   width="480"
   height="346.57825"
   viewBox="0 0 4800 3465.7825"
   preserveAspectRatio="xMidYMid meet"
   id="svg9117"
   inkscape:version="0.48.5 r10040"
   sodipodi:docname="CITEMxx.svg">
  <metadata
     id="metadata9137">
    <rdf:RDF>
      <cc:Work
         rdf:about="">
        <dc:format>image/svg+xml</dc:format>
        <dc:type
           rdf:resource="http://purl.org/dc/dcmitype/StillImage" />
        <dc:title></dc:title>
      </cc:Work>
    </rdf:RDF>
  </metadata>
  <defs
     id="defs9135" />
  <sodipodi:namedview
     pagecolor="#ffffff"
     bordercolor="#666666"
     borderopacity="1"
     objecttolerance="10"
     gridtolerance="10"
     guidetolerance="10"
     inkscape:pageopacity="0"
     inkscape:pageshadow="2"
     inkscape:window-width="1366"
     inkscape:window-height="705"
     id="namedview9133"
     showgrid="false"
     inkscape:snap-object-midpoints="true"
     inkscape:snap-center="true"
     inkscape:snap-bbox="true"
     inkscape:bbox-paths="true"
     inkscape:bbox-nodes="true"
     inkscape:snap-bbox-midpoints="true"
     inkscape:snap-bbox-edge-midpoints="true"
     inkscape:snap-nodes="true"
     inkscape:object-paths="true"
     inkscape:snap-intersection-paths="true"
     inkscape:object-nodes="true"
     inkscape:snap-smooth-nodes="true"
     inkscape:snap-midpoints="true"
     inkscape:snap-global="true"
     fit-margin-top="0"
     fit-margin-left="0"
     fit-margin-right="0"
     fit-margin-bottom="0"
     inkscape:zoom="1.4715292"
     inkscape:cx="240"
     inkscape:cy="173.28913"
     inkscape:window-x="-8"
     inkscape:window-y="-8"
     inkscape:window-maximized="1"
     inkscape:current-layer="svg9117" />
  <g
     id="g10173">
    <path
       inkscape:connector-curvature="0"
       id="path9143-1"
       d="M 840.03616,1202.5324 C 355.43904,1339.119 -2.0287626e-5,1784.1585 -2.0287626e-5,2312.4511 -2.0287626e-5,2949.4294 516.35315,3465.7824 1153.3313,3465.7824 c 636.9782,0 1153.3313,-516.353 1153.3313,-1153.3313 0,-74.7917 -7.3859,-147.6856 -20.9827,-218.5107 l -209.8282,70.9074 c 7.6068,48.0244 11.5767,97.4474 11.5767,147.6033 0,515.9878 -418.1093,934.0971 -934.0971,934.0971 -515.98777,0 -934.09707,-418.1093 -934.09707,-934.0971 0,-432.4616 293.56329,-796.4012 692.43292,-902.9846 l -71.63099,-206.9341 z"
       style="color:#000000;fill:#cd7f32;fill-opacity:1;stroke:none;stroke-width:0.2;marker:none;visibility:visible;display:inline;overflow:visible;enable-background:accumulate" />
    <path
       inkscape:connector-curvature="0"
       id="path9953"
       d="m 2704.6126,582.45406 c -337.4734,0 -611.3959,273.92261 -611.3959,611.39584 0,337.4732 273.9225,610.6724 611.3959,610.6724 337.4733,0 610.6723,-273.1992 610.6723,-610.6724 0,-55.071 -7.3403,-108.4078 -20.9828,-159.18 l -193.1867,83.2077 c 4.7335,24.7124 7.2355,49.8869 7.2355,75.9723 0,222.8597 -180.8787,403.0148 -403.7383,403.0148 -78.3371,0 -151.5155,-22.2282 -213.4458,-60.7779 l 551.3415,-562.91823 146.8797,-149.77389 0.7224,-0.72355 -5.0649,-4.34127 c -42.788,-54.79806 -94.7297,-102.02419 -153.3915,-139.64426 -0.5673,-0.36305 -0.8799,-1.0859 -1.4472,-1.4471 -94.1514,-59.94217 -205.6378,-94.78444 -325.5953,-94.78444 z m 0,207.65753 c 63.0283,0 122.6693,14.69153 175.8215,40.51854 L 2345.734,1379.0775 c -28.7352,-55.4054 -44.8598,-118.46 -44.8598,-185.2276 0,-222.85968 180.8788,-403.73831 403.7384,-403.73831 z"
       style="color:#000000;fill:#cd7f32;fill-opacity:1;stroke:none;stroke-width:0.2;marker:none;visibility:visible;display:inline;overflow:visible;enable-background:accumulate" />
    <path
       sodipodi:nodetypes="ccccc"
       inkscape:connector-curvature="0"
       id="path9983"
       d="m 975.18869,1154.9387 221.75241,-78.0899 384.6928,1122.0234 -214.5446,76.82 z"
       style="fill:#cd7f32;fill-opacity:1;stroke:none" />
    <path
       sodipodi:nodetypes="ccccccccccc"
       inkscape:connector-curvature="0"
       id="path9983-0"
       d="m 2501.4631,617.06134 -661.9197,233.49564 -221.6766,78.06324 -279.0419,98.26428 78.2493,204.1358 283.1803,-99.9837 327.5207,908.0899 210.705,-75.4452 -324.024,-908.2738 574.3857,-202.80079 z"
       style="fill:#cd7f32;fill-opacity:1;stroke:none" />
    <path
       sodipodi:nodetypes="csssscsccccccscsscccccccsccccscccc"
       inkscape:connector-curvature="0"
       id="path9983-9"
       d="m 4501.1758,248.89964 c 0,0 -19.1563,-47.4617 -31.836,-69.4603 -8.913,-15.46306 -22.0641,-32.52113 -31.1125,-44.13628 -20.0546,-25.74332 -44.6447,-47.19694 -70.9074,-66.56618 -20.8451,-15.3736 -44.3348,-27.85124 -68.0133,-38.34792 -17.4728,-7.74578 -54.2658,-18.0886 -54.2658,-18.0886 C 4215.4908,4.65961 4184.3647,0 4152.4269,0 4031.8291,0 3925.1202,58.03189 3857.9439,147.60331 l -0.7223,0 -21.7064,32.55956 -21.7064,43.41274 -47.0304,-17.36519 -44.1363,-10.12954 c -19.5271,-3.19893 -39.6211,-5.06483 -60.0543,-5.06483 -116.9969,0 -221.2256,54.59106 -288.6946,139.64425 0,0 -20.7862,26.03878 -38.3479,58.60712 -13.4276,24.90161 -23.7325,54.25762 -28.9418,75.24877 -27.0879,109.14956 -2.8055,179.79547 -2.1694,181.60986 l 0,0.72356 2.8941,7.95899 c 5.113,19.13284 11.5529,37.21788 19.5358,54.98945 l 272.0531,766.95815 204.7632,-73.0781 -282.1826,-782.15259 c -29.6876,-82.36393 12.4204,-172.90517 94.7844,-202.59266 82.364,-29.68759 172.9051,13.14393 202.5927,95.50797 l 282.1804,782.15248 192.463,-68.0132 -286.5239,-795.17641 c -29.6876,-82.36393 13.1439,-172.18165 95.508,-201.86913 82.364,-29.68759 172.1815,12.42051 201.8691,94.78444 l 286.524,795.1764 L 4800,1046.2467 C 4726.7585,853.00613 4501.1758,248.89964 4501.1758,248.89964 z"
       style="fill:#cd7f32;fill-opacity:1;stroke:none" />
    <path
       sodipodi:nodetypes="cc"
       inkscape:connector-curvature="0"
       id="path10049"
       d="M 1184.5091,2434.6335 4800,1140.0679"
       style="fill:#cd7f32;fill-opacity:1;stroke:none" />
  </g>
</svg>
