<?xml version="1.0" encoding="UTF-8" standalone="no"?>
<!-- Created with Inkscape (http://www.inkscape.org/) -->

<svg
   xmlns:dc="http://purl.org/dc/elements/1.1/"
   xmlns:cc="http://creativecommons.org/ns#"
   xmlns:rdf="http://www.w3.org/1999/02/22-rdf-syntax-ns#"
   xmlns:svg="http://www.w3.org/2000/svg"
   xmlns="http://www.w3.org/2000/svg"
   xmlns:sodipodi="http://sodipodi.sourceforge.net/DTD/sodipodi-0.dtd"
   xmlns:inkscape="http://www.inkscape.org/namespaces/inkscape"
   width="250"
   height="250"
   viewBox="0 0 250 250.00001"
   id="svg2"
   version="1.1"
   inkscape:version="0.91 r13725"
   sodipodi:docname="Civil Service Commission.svg">
  <defs
     id="defs4" />
  <sodipodi:namedview
     id="base"
     pagecolor="#ffffff"
     bordercolor="#666666"
     borderopacity="1.0"
     inkscape:pageopacity="0.0"
     inkscape:pageshadow="2"
     inkscape:zoom="1.7001692"
     inkscape:cx="172.22615"
     inkscape:cy="104.65035"
     inkscape:document-units="px"
     inkscape:current-layer="layer1"
     showgrid="false"
     fit-margin-top="0"
     fit-margin-left="0"
     fit-margin-right="0"
     fit-margin-bottom="0"
     units="px"
     inkscape:window-width="1366"
     inkscape:window-height="705"
     inkscape:window-x="-4"
     inkscape:window-y="-4"
     inkscape:window-maximized="1" />
  <metadata
     id="metadata7">
    <rdf:RDF>
      <cc:Work
         rdf:about="">
        <dc:format>image/svg+xml</dc:format>
        <dc:type
           rdf:resource="http://purl.org/dc/dcmitype/StillImage" />
        <dc:title></dc:title>
      </cc:Work>
    </rdf:RDF>
  </metadata>
  <g
     inkscape:label="Layer 1"
     inkscape:groupmode="layer"
     id="layer1"
     transform="translate(-314.0864,-340.1273)">
    <g
       transform="matrix(1.0542648,0,0,0.94852828,3.5290607,-9.9990054)"
       style="font-style:italic;font-variant:normal;font-weight:bold;font-stretch:normal;font-size:34.36027527px;line-height:125%;font-family:'Segoe UI';-inkscape-font-specification:'Segoe UI Bold Italic';text-align:start;letter-spacing:0px;word-spacing:0px;writing-mode:lr-tb;text-anchor:start;fill:#000000;fill-opacity:1;stroke:#000000;stroke-width:4.29503441;stroke-linecap:butt;stroke-linejoin:miter;stroke-miterlimit:4;stroke-dasharray:none;stroke-opacity:1"
       id="text4136">
      <path
         d="m 385.0884,476.40744 q -1.25831,-0.6711 -2.72634,-1.3422 -1.42608,-0.67109 -3.14577,-1.17442 -1.7197,-0.54527 -3.73299,-0.88082 -1.97136,-0.33555 -4.3202,-0.33555 -5.45269,0 -9.64706,1.88747 -4.15242,1.84552 -7.00459,4.9913 -2.85217,3.14578 -4.3202,7.2982 -1.46803,4.15243 -1.46803,8.76624 0,3.81687 1.13248,6.75293 1.13248,2.93606 3.22966,4.94936 2.09719,1.97135 5.03325,3.01995 2.93605,1.00664 6.58516,1.00664 2.3069,0 4.3202,-0.2936 2.01329,-0.33555 3.81687,-0.83888 1.80358,-0.54526 3.39744,-1.21636 1.63581,-0.6711 3.10384,-1.42609 l -2.85217,12.79283 q -3.10384,1.30025 -6.87877,1.97135 -3.73299,0.71305 -8.43068,0.71305 -6.29156,0 -11.28286,-1.84553 -4.9913,-1.88746 -8.43068,-5.32685 -3.43939,-3.43938 -5.28491,-8.22096 -1.80358,-4.82353 -1.80358,-10.73759 0,-4.73964 1.00665,-9.22761 1.00665,-4.52992 3.01995,-8.51457 2.05524,-4.0266 5.11713,-7.38209 3.10383,-3.3555 7.25626,-5.78823 4.19437,-2.43274 9.47927,-3.77494 5.32685,-1.38414 11.74424,-1.38414 2.43273,0 4.69769,0.25166 2.26496,0.25167 4.32021,0.6711 2.05524,0.3775 3.77493,0.88082 1.76163,0.46138 3.10383,0.92276 l -2.81023,12.83477 z"
         style="font-size:85.9006958px;fill:#0038a8;fill-opacity:1;stroke:#0038a8;stroke-width:4.29503441;stroke-linejoin:miter;stroke-miterlimit:4;stroke-dasharray:none;stroke-opacity:1"
         id="path4299"
         inkscape:connector-curvature="0" />
      <path
         d="m 429.29706,475.77829 q -1.30025,-0.79693 -2.89411,-1.55192 -1.55192,-0.79693 -3.3555,-1.38414 -1.76163,-0.58721 -3.73299,-0.96471 -1.97135,-0.37749 -4.11048,-0.37749 -2.39079,0 -4.02659,0.6711 -1.63581,0.62916 -2.60051,1.59386 -0.96471,0.96471 -1.38415,2.09719 -0.41943,1.09053 -0.41943,2.05524 0,1.38414 0.41943,2.55856 0.46138,1.13248 1.38415,2.22302 0.9647,1.04859 2.47467,2.18107 1.55192,1.09054 3.73299,2.43273 2.85218,1.76164 5.03325,3.56522 2.22301,1.76163 3.77493,3.81688 1.55192,2.01329 2.34885,4.40408 0.79693,2.3908 0.79693,5.3688 0,1.71969 -0.41944,3.77493 -0.37749,2.05524 -1.3422,4.15243 -0.9647,2.05524 -2.68439,3.98465 -1.67775,1.92941 -4.23632,3.39744 -2.55856,1.46803 -6.16572,2.34885 -3.56522,0.92276 -8.3468,0.92276 -2.68439,0 -5.24296,-0.3775 -2.51662,-0.33555 -4.82353,-0.92276 -2.26496,-0.62915 -4.23631,-1.38414 -1.97135,-0.75499 -3.48133,-1.55192 l 2.30691,-11.91201 q 1.55191,1.13248 3.35549,2.13913 1.84553,1.00665 3.81688,1.76164 2.0133,0.75498 4.15243,1.17442 2.13912,0.41944 4.3202,0.41944 2.39079,0 4.06854,-0.50333 1.67774,-0.54527 2.72634,-1.46803 1.04859,-0.92276 1.50997,-2.13913 0.46138,-1.21636 0.46138,-2.6005 0,-1.38415 -0.46138,-2.47468 -0.41944,-1.13248 -1.42609,-2.13913 -1.00665,-1.04859 -2.68439,-2.13913 -1.63581,-1.13248 -4.0266,-2.51662 -2.55856,-1.42609 -4.65575,-3.06189 -2.09718,-1.67775 -3.60716,-3.69105 -1.50997,-2.05524 -2.34884,-4.52992 -0.83888,-2.51662 -0.83888,-5.57851 0,-3.48133 1.30026,-6.83682 1.30025,-3.3555 4.06854,-5.99795 2.76828,-2.64245 7.04654,-4.23631 4.3202,-1.63581 10.2762,-1.63581 2.47468,0 4.78158,0.29361 2.30691,0.25166 4.40409,0.71304 2.09719,0.46138 3.94271,1.04859 1.84552,0.58721 3.3555,1.21637 l -2.30691,11.66035 z"
         style="font-size:85.9006958px;fill:#ce1126;fill-opacity:1;stroke:#ce1126;stroke-width:4.29503441;stroke-linejoin:miter;stroke-miterlimit:4;stroke-dasharray:none;stroke-opacity:1"
         id="path4301"
         inkscape:connector-curvature="0" />
      <path
         d="m 485.75328,476.40744 q -1.25831,-0.6711 -2.72634,-1.3422 -1.42608,-0.67109 -3.14578,-1.17442 -1.71969,-0.54527 -3.73298,-0.88082 -1.97136,-0.33555 -4.32021,-0.33555 -5.45268,0 -9.64705,1.88747 -4.15242,1.84552 -7.00459,4.9913 -2.85218,3.14578 -4.3202,7.2982 -1.46803,4.15243 -1.46803,8.76624 0,3.81687 1.13248,6.75293 1.13248,2.93606 3.22966,4.94936 2.09719,1.97135 5.03324,3.01995 2.93606,1.00664 6.58516,1.00664 2.30691,0 4.32021,-0.2936 2.01329,-0.33555 3.81687,-0.83888 1.80358,-0.54526 3.39744,-1.21636 1.63581,-0.6711 3.10384,-1.42609 l -2.85218,12.79283 q -3.10383,1.30025 -6.87876,1.97135 -3.73299,0.71305 -8.43069,0.71305 -6.29155,0 -11.28285,-1.84553 -4.9913,-1.88746 -8.43068,-5.32685 -3.43939,-3.43938 -5.28491,-8.22096 -1.80358,-4.82353 -1.80358,-10.73759 0,-4.73964 1.00665,-9.22761 1.00665,-4.52992 3.01995,-8.51457 2.05524,-4.0266 5.11713,-7.38209 3.10383,-3.3555 7.25626,-5.78823 4.19437,-2.43274 9.47927,-3.77494 5.32685,-1.38414 11.74424,-1.38414 2.43273,0 4.69769,0.25166 2.26496,0.25167 4.3202,0.6711 2.05525,0.3775 3.77494,0.88082 1.76163,0.46138 3.10383,0.92276 l -2.81023,12.83477 z"
         style="font-size:85.9006958px;fill:#0038a8;fill-opacity:1;stroke:#0038a8;stroke-width:4.29503441;stroke-linejoin:miter;stroke-miterlimit:4;stroke-dasharray:none;stroke-opacity:1"
         id="path4303"
         inkscape:connector-curvature="0" />
    </g>
    <path
       style="fill:#ce1126;fill-opacity:1;fill-rule:evenodd;stroke:none;stroke-width:1px;stroke-linecap:butt;stroke-linejoin:miter;stroke-opacity:1"
       d="m 335.83617,451.77984 c 58.2473,-129.69852 163.16146,8.17083 195.05887,-98.98509 -0.58466,19.73746 -5.48601,33.05673 -13.45047,42.07775 -36.43575,41.26929 -136.97883,-7.41846 -181.6084,56.90734 z"
       id="path4171"
       inkscape:connector-curvature="0"
       sodipodi:nodetypes="ccsc" />
    <path
       style="fill:#0038a8;fill-opacity:1;fill-rule:evenodd;stroke:none;stroke-width:1px;stroke-linecap:butt;stroke-linejoin:miter;stroke-opacity:1"
       d="m 321.10882,423.19147 c 11.98573,-31.42481 42.76159,-53.62737 102.37844,-50.76159 54.71774,6.55699 91.03197,23.49627 108.0418,-23.78982 -6.45537,51.3225 -46.09801,53.81336 -85.90964,51.41626 -42.56037,-2.5626 -93.29867,-18.70589 -124.5106,23.13515 z"
       id="path4169"
       inkscape:connector-curvature="0"
       sodipodi:nodetypes="cccsc" />
    <rect
       style="fill:#0038a8;fill-opacity:1;stroke:none;stroke-width:5;stroke-linecap:round;stroke-linejoin:miter;stroke-miterlimit:4;stroke-dasharray:none;stroke-dashoffset:0;stroke-opacity:1"
       id="rect4173"
       width="239.97612"
       height="28.232485"
       x="317.61545"
       y="495.94702" />
    <g
       style="font-style:normal;font-variant:normal;font-weight:bold;font-stretch:normal;font-size:40px;line-height:125%;font-family:'Swis721 BT';-inkscape-font-specification:'Swis721 BT, Bold';text-align:start;letter-spacing:0px;word-spacing:0px;writing-mode:lr-tb;text-anchor:start;fill:#ffffff;fill-opacity:1;stroke:none;stroke-width:1px;stroke-linecap:butt;stroke-linejoin:miter;stroke-opacity:1"
       id="text4175"
       transform="translate(4.1172374,-9.9990054)">
      <path
         d="m 332.4696,516.11127 q 0,1.61133 -1.07116,2.65503 -1.07117,1.0437 -2.81983,1.23596 l 0,0.0366 q 1.03455,0.33874 1.42823,1.91345 l 1.00708,3.9917 -2.42615,0 -0.84229,-3.6438 q -0.19226,-0.84228 -0.63171,-1.24512 -0.4303,-0.41198 -1.17188,-0.41198 l -0.82397,0 -1.13525,5.3009 -2.27967,0 2.78321,-13.12866 4.05578,0 q 1.84937,0 2.88391,0.86975 1.0437,0.86975 1.0437,2.42615 z m -2.38037,0.32959 q 0,-0.82398 -0.51269,-1.31836 -0.50354,-0.50354 -1.5564,-0.50354 l -1.62964,0 -0.89721,4.21142 1.51062,0 q 1.44653,0 2.26135,-0.64087 0.82397,-0.65002 0.82397,-1.74865 z"
         style="font-style:italic;font-variant:normal;font-weight:600;font-stretch:normal;font-size:18.75px;font-family:'Segoe UI';-inkscape-font-specification:'Segoe UI Semi-Bold Italic';fill:#ffffff;fill-opacity:1"
         id="path4250"
         inkscape:connector-curvature="0" />
      <path
         d="m 341.79883,518.87616 q 0,1.69373 -1.57471,2.49939 -1.57471,0.79651 -4.77905,0.83313 l -0.0183,0.10071 0,0.1831 q 0,0.95215 0.56762,1.48316 0.56763,0.52185 1.58387,0.52185 0.6958,0 1.48315,-0.24719 0.79651,-0.25635 1.45569,-0.65003 l -0.36621,1.8219 q -1.38245,0.75073 -3.04871,0.75073 -1.8219,0 -2.84729,-1.01623 -1.01623,-1.01624 -1.01623,-2.8656 0,-1.59302 0.6958,-2.97547 0.6958,-1.3916 1.94092,-2.17895 1.24511,-0.79651 2.72827,-0.79651 1.474,0 2.33459,0.6958 0.8606,0.6958 0.8606,1.84021 z m -2.14234,0.0549 q 0,-0.45776 -0.33874,-0.72327 -0.32959,-0.27465 -0.91553,-0.27465 -0.97046,0 -1.75781,0.79651 -0.78735,0.7965 -1.03455,1.95922 4.04663,0 4.04663,-1.75781 z"
         style="font-style:italic;font-variant:normal;font-weight:600;font-stretch:normal;font-size:18.75px;font-family:'Segoe UI';-inkscape-font-specification:'Segoe UI Semi-Bold Italic';fill:#ffffff;fill-opacity:1"
         id="path4252"
         inkscape:connector-curvature="0" />
      <path
         d="m 352.05273,519.82831 q 0,1.71203 -0.75073,3.2135 -0.75073,1.50146 -2.05993,2.31628 -1.30005,0.81482 -2.92054,0.81482 -0.93383,0 -1.77612,-0.2655 l -0.92468,4.36707 -2.22473,0 2.2705,-10.71167 q 0.10987,-0.47608 0.22889,-1.43738 0.12817,-0.96131 0.15564,-1.5564 l 2.18811,0 q 0,0.23804 -0.0733,0.85144 -0.0732,0.60425 -0.12817,0.93384 l 0.0366,0 q 1.25427,-2.01416 3.18604,-2.01416 1.32751,0 2.05993,0.93384 0.73242,0.93383 0.73242,2.55432 z m -2.21557,0.20141 q 0,-0.97045 -0.37537,-1.45568 -0.37536,-0.48523 -1.07117,-0.48523 -0.64086,0 -1.23596,0.46692 -0.59509,0.46691 -1.08032,1.3916 -0.47607,0.92468 -0.67749,1.88598 l -0.53101,2.43531 q 0.19227,0.0732 0.66834,0.16479 0.47607,0.0824 0.84228,0.0824 0.97962,0 1.76697,-0.61341 0.79651,-0.6134 1.24512,-1.6571 0.44861,-1.05286 0.44861,-2.21558 z"
         style="font-style:italic;font-variant:normal;font-weight:600;font-stretch:normal;font-size:18.75px;font-family:'Segoe UI';-inkscape-font-specification:'Segoe UI Semi-Bold Italic';fill:#ffffff;fill-opacity:1"
         id="path4254"
         inkscape:connector-curvature="0" />
      <path
         d="m 361.32703,525.94403 -2.19727,0 0.28381,-1.98669 -0.0366,0 q -0.74157,1.0437 -1.6571,1.62964 -0.91553,0.58593 -1.86768,0.58593 -1.16272,0 -1.77612,-0.65918 -0.6134,-0.66833 -0.6134,-1.86767 0,-0.44861 0.28381,-1.79444 l 1.11694,-5.28259 2.21558,0 -1.14441,5.39246 q -0.19226,1.02539 -0.19226,1.2268 0,0.54932 0.27466,0.86975 0.27466,0.32044 0.82397,0.32044 0.63172,0 1.2909,-0.46692 0.66833,-0.46692 1.18103,-1.25427 0.51269,-0.79651 0.67749,-1.58386 l 0.9613,-4.5044 2.21558,0 -1.34583,6.29883 q -0.35705,1.70288 -0.49438,3.07617 z"
         style="font-style:italic;font-variant:normal;font-weight:600;font-stretch:normal;font-size:18.75px;font-family:'Segoe UI';-inkscape-font-specification:'Segoe UI Semi-Bold Italic';fill:#ffffff;fill-opacity:1"
         id="path4256"
         inkscape:connector-curvature="0" />
      <path
         d="m 373.54932,519.84662 q 0,1.7395 -0.7782,3.26843 -0.76904,1.51978 -2.09656,2.28882 -1.31836,0.76904 -3.03039,0.76904 -0.96131,0 -1.95923,-0.24719 -0.98877,-0.25635 -1.67542,-0.68665 l 2.79236,-13.17443 2.22473,0 -0.91553,4.31213 -0.42114,1.80359 0.0458,0 q 0.65918,-0.9613 1.3916,-1.40076 0.74158,-0.43945 1.62048,-0.43945 1.32752,0 2.05994,0.92468 0.74158,0.92468 0.74158,2.58179 z m -2.21558,0.1831 q 0,-1.94091 -1.474,-1.94091 -0.93384,0 -1.74866,1.02539 -0.80566,1.01623 -1.10778,2.47192 l -0.54932,2.60925 q 0.59509,0.32044 1.49231,0.32044 0.97046,0 1.73035,-0.60425 0.76904,-0.60425 1.20849,-1.67541 0.44861,-1.07117 0.44861,-2.20643 z"
         style="font-style:italic;font-variant:normal;font-weight:600;font-stretch:normal;font-size:18.75px;font-family:'Segoe UI';-inkscape-font-specification:'Segoe UI Semi-Bold Italic';fill:#ffffff;fill-opacity:1"
         id="path4258"
         inkscape:connector-curvature="0" />
      <path
         d="m 377.08325,526.09967 q -1.01623,0 -1.54724,-0.50354 -0.53101,-0.50354 -0.53101,-1.42822 0,-0.61341 0.34791,-2.20642 0.3479,-1.60218 2.10571,-9.89685 l 2.22473,0 -2.21558,10.40954 q -0.19226,0.91553 -0.19226,1.18103 0,0.6958 0.79651,0.6958 0.46692,0 0.83313,-0.14648 l -0.3479,1.68457 q -0.70496,0.21057 -1.474,0.21057 z"
         style="font-style:italic;font-variant:normal;font-weight:600;font-stretch:normal;font-size:18.75px;font-family:'Segoe UI';-inkscape-font-specification:'Segoe UI Semi-Bold Italic';fill:#ffffff;fill-opacity:1"
         id="path4260"
         inkscape:connector-curvature="0" />
      <path
         d="m 384.99341,513.39215 q 0,0.54932 -0.39368,0.91553 -0.39368,0.35705 -0.9613,0.35705 -0.54932,0 -0.93384,-0.32959 -0.37537,-0.32959 -0.37537,-0.86975 0,-0.55847 0.40284,-0.90637 0.40283,-0.3479 0.97045,-0.3479 0.53101,0 0.90638,0.33875 0.38452,0.32959 0.38452,0.84228 z m -2.49024,12.70752 q -1.00708,0 -1.53808,-0.50354 -0.52185,-0.51269 -0.52185,-1.45569 0,-0.47607 0.10071,-0.93384 l 1.36413,-6.63757 2.22473,0 -1.24511,5.90515 q -0.19227,0.91553 -0.19227,1.18103 0,0.6958 0.79651,0.6958 0.46692,0 0.83313,-0.14648 l -0.3479,1.68457 q -0.78735,0.21057 -1.474,0.21057 z"
         style="font-style:italic;font-variant:normal;font-weight:600;font-stretch:normal;font-size:18.75px;font-family:'Segoe UI';-inkscape-font-specification:'Segoe UI Semi-Bold Italic';fill:#ffffff;fill-opacity:1"
         id="path4262"
         inkscape:connector-curvature="0" />
      <path
         d="m 393.12329,518.78461 q -0.3479,-0.29297 -0.86975,-0.49439 -0.5127,-0.20141 -1.13525,-0.20141 -0.86975,0 -1.59302,0.51269 -0.71411,0.5127 -1.17188,1.48316 -0.45776,0.9613 -0.45776,2.02331 0,1.13526 0.50354,1.73035 0.5127,0.58594 1.45569,0.58594 0.56763,0 1.19934,-0.22889 0.64087,-0.22888 1.14441,-0.55847 l -0.38452,1.85852 q -1.30005,0.67749 -2.58179,0.67749 -1.66626,0 -2.60925,-1.01623 -0.943,-1.02539 -0.943,-2.82898 0,-1.62964 0.70496,-3.02124 0.70496,-1.40076 1.95923,-2.17896 1.26343,-0.78735 2.85644,-0.78735 0.66834,0 1.32752,0.16479 0.65918,0.15564 1.02539,0.40284 l -0.4303,1.87683 z"
         style="font-style:italic;font-variant:normal;font-weight:600;font-stretch:normal;font-size:18.75px;font-family:'Segoe UI';-inkscape-font-specification:'Segoe UI Semi-Bold Italic';fill:#ffffff;fill-opacity:1"
         id="path4264"
         inkscape:connector-curvature="0" />
      <path
         d="m 408.40344,520.16705 q 0,1.70288 -0.68664,3.1128 -0.67749,1.40075 -1.88599,2.15149 -1.19934,0.74157 -2.77405,0.74157 -1.76697,0 -2.7832,-1.01623 -1.00708,-1.01624 -1.00708,-2.81067 0,-1.70288 0.67749,-3.09448 0.68665,-1.39161 1.88599,-2.15149 1.19934,-0.75989 2.7832,-0.75989 1.7395,0 2.76489,1.02539 1.02539,1.01623 1.02539,2.80151 z m -2.23388,0.0549 q 0,-0.97961 -0.45777,-1.55639 -0.44861,-0.57678 -1.25427,-0.57678 -0.83313,0 -1.51062,0.57678 -0.67749,0.56763 -1.07117,1.54724 -0.38452,0.97961 -0.38452,2.09656 0,0.98877 0.45776,1.55639 0.46692,0.55848 1.26343,0.55848 0.85144,0 1.52893,-0.56763 0.68665,-0.57678 1.05286,-1.5564 0.37537,-0.97961 0.37537,-2.07825 z"
         style="font-style:italic;font-variant:normal;font-weight:600;font-stretch:normal;font-size:18.75px;font-family:'Segoe UI';-inkscape-font-specification:'Segoe UI Semi-Bold Italic';fill:#ffffff;fill-opacity:1"
         id="path4266"
         inkscape:connector-curvature="0" />
      <path
         d="m 417.10095,513.84076 q -0.51269,-0.24719 -1.13525,-0.24719 -0.70496,0 -1.08948,0.42114 -0.37537,0.42114 -0.55847,1.29089 l -0.27466,1.26343 2.1698,0 -0.37537,1.70288 -2.19726,0 -2.30713,10.78491 -2.20642,0 2.31628,-10.78491 -1.60217,0 0.37537,-1.70288 1.59301,0 0.33875,-1.53809 q 0.36621,-1.6571 1.32751,-2.41699 0.96131,-0.76904 2.50855,-0.76904 0.82397,0 1.46484,0.21973 l -0.3479,1.77612 z"
         style="font-style:italic;font-variant:normal;font-weight:600;font-stretch:normal;font-size:18.75px;font-family:'Segoe UI';-inkscape-font-specification:'Segoe UI Semi-Bold Italic';fill:#ffffff;fill-opacity:1"
         id="path4268"
         inkscape:connector-curvature="0" />
      <path
         d="m 427.20837,518.27191 -2.27966,0 -0.89722,4.23889 q -0.16479,0.79651 -0.16479,1.07117 0,0.42114 0.19226,0.6134 0.19226,0.18311 0.63171,0.18311 0.42115,0 1.28174,-0.32959 l -0.36621,1.73035 q -0.91553,0.35705 -1.81274,0.35705 -2.1698,0 -2.1698,-2.11487 0,-0.531 0.19226,-1.3916 l 0.91553,-4.35791 -1.50147,0 0.40283,-1.70288 1.45569,0 0.48523,-2.24304 2.32544,-0.6134 -0.59509,2.85644 2.29797,0 -0.39368,1.70288 z"
         style="font-style:italic;font-variant:normal;font-weight:600;font-stretch:normal;font-size:18.75px;font-family:'Segoe UI';-inkscape-font-specification:'Segoe UI Semi-Bold Italic';fill:#ffffff;fill-opacity:1"
         id="path4270"
         inkscape:connector-curvature="0" />
      <path
         d="m 437.05945,518.867 q 0,0.49439 -0.27466,1.80359 l -1.11694,5.27344 -2.21558,0 1.13525,-5.41992 q 0.18311,-0.97962 0.18311,-1.19934 0,-1.23596 -1.11694,-1.23596 -0.5951,0 -1.26343,0.47607 -0.65918,0.46692 -1.17188,1.23596 -0.50354,0.76905 -0.66833,1.56555 l -0.97962,4.57764 -2.22473,0 2.95716,-13.87939 2.21557,0 -1.3916,6.5094 0.0366,0 q 0.75989,-1.06202 1.68457,-1.64795 0.92469,-0.58594 1.84937,-0.58594 1.17187,0 1.76697,0.66833 0.59509,0.65918 0.59509,1.85852 z"
         style="font-style:italic;font-variant:normal;font-weight:600;font-stretch:normal;font-size:18.75px;font-family:'Segoe UI';-inkscape-font-specification:'Segoe UI Semi-Bold Italic';fill:#ffffff;fill-opacity:1"
         id="path4272"
         inkscape:connector-curvature="0" />
      <path
         d="m 447.08447,518.87616 q 0,1.69373 -1.5747,2.49939 -1.57471,0.79651 -4.77906,0.83313 l -0.0183,0.10071 0,0.1831 q 0,0.95215 0.56763,1.48316 0.56763,0.52185 1.58386,0.52185 0.6958,0 1.48316,-0.24719 0.7965,-0.25635 1.45568,-0.65003 l -0.36621,1.8219 q -1.38244,0.75073 -3.0487,0.75073 -1.8219,0 -2.84729,-1.01623 -1.01624,-1.01624 -1.01624,-2.8656 0,-1.59302 0.6958,-2.97547 0.6958,-1.3916 1.94092,-2.17895 1.24512,-0.79651 2.72827,-0.79651 1.474,0 2.3346,0.6958 0.86059,0.6958 0.86059,1.84021 z m -2.14233,0.0549 q 0,-0.45776 -0.33875,-0.72327 -0.32959,-0.27465 -0.91552,-0.27465 -0.97046,0 -1.75782,0.79651 -0.78735,0.7965 -1.03454,1.95922 4.04663,0 4.04663,-1.75781 z"
         style="font-style:italic;font-variant:normal;font-weight:600;font-stretch:normal;font-size:18.75px;font-family:'Segoe UI';-inkscape-font-specification:'Segoe UI Semi-Bold Italic';fill:#ffffff;fill-opacity:1"
         id="path4274"
         inkscape:connector-curvature="0" />
      <path
         d="m 463.91187,516.41339 q 0,1.42822 -0.66834,2.5177 -0.66833,1.08032 -1.94092,1.67542 -1.27258,0.59509 -3.03955,0.59509 l -1.92261,0 -0.99792,4.74243 -2.27966,0 2.7832,-13.12866 3.95508,0 q 1.9226,0 3.01208,0.95215 1.09864,0.95215 1.09864,2.64587 z m -2.37122,0.1648 q 0,-0.87891 -0.59509,-1.40076 -0.5951,-0.53101 -1.73035,-0.53101 l -1.474,0 -1.00708,4.74243 1.60217,0 q 1.50147,0 2.35291,-0.74157 0.85144,-0.74158 0.85144,-2.06909 z"
         style="font-style:italic;font-variant:normal;font-weight:600;font-stretch:normal;font-size:18.75px;font-family:'Segoe UI';-inkscape-font-specification:'Segoe UI Semi-Bold Italic';fill:#ffffff;fill-opacity:1"
         id="path4276"
         inkscape:connector-curvature="0" />
      <path
         d="m 473.82703,518.867 q 0,0.49439 -0.27466,1.80359 l -1.11695,5.27344 -2.21557,0 1.13525,-5.41992 q 0.18311,-0.97962 0.18311,-1.19934 0,-1.23596 -1.11695,-1.23596 -0.59509,0 -1.26342,0.47607 -0.65918,0.46692 -1.17188,1.23596 -0.50354,0.76905 -0.66833,1.56555 l -0.97962,4.57764 -2.22473,0 2.95715,-13.87939 2.21558,0 -1.3916,6.5094 0.0366,0 q 0.75989,-1.06202 1.68457,-1.64795 0.92468,-0.58594 1.84937,-0.58594 1.17187,0 1.76696,0.66833 0.5951,0.65918 0.5951,1.85852 z"
         style="font-style:italic;font-variant:normal;font-weight:600;font-stretch:normal;font-size:18.75px;font-family:'Segoe UI';-inkscape-font-specification:'Segoe UI Semi-Bold Italic';fill:#ffffff;fill-opacity:1"
         id="path4278"
         inkscape:connector-curvature="0" />
      <path
         d="m 480.02515,513.39215 q 0,0.54932 -0.39368,0.91553 -0.39368,0.35705 -0.9613,0.35705 -0.54932,0 -0.93384,-0.32959 -0.37537,-0.32959 -0.37537,-0.86975 0,-0.55847 0.40283,-0.90637 0.40284,-0.3479 0.97046,-0.3479 0.53101,0 0.90637,0.33875 0.38453,0.32959 0.38453,0.84228 z m -2.49024,12.70752 q -1.00708,0 -1.53808,-0.50354 -0.52185,-0.51269 -0.52185,-1.45569 0,-0.47607 0.1007,-0.93384 l 1.36414,-6.63757 2.22473,0 -1.24512,5.90515 q -0.19226,0.91553 -0.19226,1.18103 0,0.6958 0.79651,0.6958 0.46692,0 0.83313,-0.14648 l -0.3479,1.68457 q -0.78735,0.21057 -1.474,0.21057 z"
         style="font-style:italic;font-variant:normal;font-weight:600;font-stretch:normal;font-size:18.75px;font-family:'Segoe UI';-inkscape-font-specification:'Segoe UI Semi-Bold Italic';fill:#ffffff;fill-opacity:1"
         id="path4280"
         inkscape:connector-curvature="0" />
      <path
         d="m 482.95483,526.09967 q -1.01623,0 -1.54724,-0.50354 -0.531,-0.50354 -0.531,-1.42822 0,-0.61341 0.3479,-2.20642 0.3479,-1.60218 2.10571,-9.89685 l 2.22473,0 -2.21557,10.40954 q -0.19227,0.91553 -0.19227,1.18103 0,0.6958 0.79651,0.6958 0.46692,0 0.83313,-0.14648 l -0.3479,1.68457 q -0.70495,0.21057 -1.474,0.21057 z"
         style="font-style:italic;font-variant:normal;font-weight:600;font-stretch:normal;font-size:18.75px;font-family:'Segoe UI';-inkscape-font-specification:'Segoe UI Semi-Bold Italic';fill:#ffffff;fill-opacity:1"
         id="path4282"
         inkscape:connector-curvature="0" />
      <path
         d="m 490.86499,513.39215 q 0,0.54932 -0.39368,0.91553 -0.39367,0.35705 -0.9613,0.35705 -0.54932,0 -0.93384,-0.32959 -0.37536,-0.32959 -0.37536,-0.86975 0,-0.55847 0.40283,-0.90637 0.40283,-0.3479 0.97046,-0.3479 0.531,0 0.90637,0.33875 0.38452,0.32959 0.38452,0.84228 z m -2.49023,12.70752 q -1.00708,0 -1.53809,-0.50354 -0.52185,-0.51269 -0.52185,-1.45569 0,-0.47607 0.10071,-0.93384 l 1.36413,-6.63757 2.22473,0 -1.24511,5.90515 q -0.19226,0.91553 -0.19226,1.18103 0,0.6958 0.79651,0.6958 0.46691,0 0.83313,-0.14648 l -0.34791,1.68457 q -0.78735,0.21057 -1.47399,0.21057 z"
         style="font-style:italic;font-variant:normal;font-weight:600;font-stretch:normal;font-size:18.75px;font-family:'Segoe UI';-inkscape-font-specification:'Segoe UI Semi-Bold Italic';fill:#ffffff;fill-opacity:1"
         id="path4284"
         inkscape:connector-curvature="0" />
      <path
         d="m 500.91748,519.82831 q 0,1.71203 -0.75073,3.2135 -0.75073,1.50146 -2.05994,2.31628 -1.30005,0.81482 -2.92053,0.81482 -0.93384,0 -1.77612,-0.2655 l -0.92469,4.36707 -2.22473,0 2.27051,-10.71167 q 0.10986,-0.47608 0.22888,-1.43738 0.12818,-0.96131 0.15564,-1.5564 l 2.18811,0 q 0,0.23804 -0.0732,0.85144 -0.0732,0.60425 -0.12817,0.93384 l 0.0366,0 q 1.25427,-2.01416 3.18603,-2.01416 1.32752,0 2.05994,0.93384 0.73242,0.93383 0.73242,2.55432 z m -2.21558,0.20141 q 0,-0.97045 -0.37536,-1.45568 -0.37537,-0.48523 -1.07117,-0.48523 -0.64087,0 -1.23596,0.46692 -0.59509,0.46691 -1.08032,1.3916 -0.47608,0.92468 -0.67749,1.88598 l -0.53101,2.43531 q 0.19226,0.0732 0.66834,0.16479 0.47607,0.0824 0.84228,0.0824 0.97962,0 1.76697,-0.61341 0.79651,-0.6134 1.24512,-1.6571 0.4486,-1.05286 0.4486,-2.21558 z"
         style="font-style:italic;font-variant:normal;font-weight:600;font-stretch:normal;font-size:18.75px;font-family:'Segoe UI';-inkscape-font-specification:'Segoe UI Semi-Bold Italic';fill:#ffffff;fill-opacity:1"
         id="path4286"
         inkscape:connector-curvature="0" />
      <path
         d="m 511.57422,519.82831 q 0,1.71203 -0.75073,3.2135 -0.75074,1.50146 -2.05994,2.31628 -1.30005,0.81482 -2.92053,0.81482 -0.93384,0 -1.77613,-0.2655 l -0.92468,4.36707 -2.22473,0 2.27051,-10.71167 q 0.10986,-0.47608 0.22888,-1.43738 0.12817,-0.96131 0.15564,-1.5564 l 2.18811,0 q 0,0.23804 -0.0732,0.85144 -0.0732,0.60425 -0.12818,0.93384 l 0.0366,0 q 1.25427,-2.01416 3.18603,-2.01416 1.32751,0 2.05994,0.93384 0.73242,0.93383 0.73242,2.55432 z m -2.21558,0.20141 q 0,-0.97045 -0.37536,-1.45568 -0.37537,-0.48523 -1.07117,-0.48523 -0.64087,0 -1.23596,0.46692 -0.5951,0.46691 -1.08032,1.3916 -0.47608,0.92468 -0.6775,1.88598 l -0.531,2.43531 q 0.19226,0.0732 0.66833,0.16479 0.47608,0.0824 0.84229,0.0824 0.97961,0 1.76697,-0.61341 0.79651,-0.6134 1.24511,-1.6571 0.44861,-1.05286 0.44861,-2.21558 z"
         style="font-style:italic;font-variant:normal;font-weight:600;font-stretch:normal;font-size:18.75px;font-family:'Segoe UI';-inkscape-font-specification:'Segoe UI Semi-Bold Italic';fill:#ffffff;fill-opacity:1"
         id="path4288"
         inkscape:connector-curvature="0" />
      <path
         d="m 517.59839,513.39215 q 0,0.54932 -0.39368,0.91553 -0.39367,0.35705 -0.9613,0.35705 -0.54932,0 -0.93384,-0.32959 -0.37537,-0.32959 -0.37537,-0.86975 0,-0.55847 0.40284,-0.90637 0.40283,-0.3479 0.97046,-0.3479 0.531,0 0.90637,0.33875 0.38452,0.32959 0.38452,0.84228 z m -2.49024,12.70752 q -1.00708,0 -1.53808,-0.50354 -0.52185,-0.51269 -0.52185,-1.45569 0,-0.47607 0.10071,-0.93384 l 1.36413,-6.63757 2.22473,0 -1.24511,5.90515 q -0.19226,0.91553 -0.19226,1.18103 0,0.6958 0.7965,0.6958 0.46692,0 0.83313,-0.14648 l -0.3479,1.68457 q -0.78735,0.21057 -1.474,0.21057 z"
         style="font-style:italic;font-variant:normal;font-weight:600;font-stretch:normal;font-size:18.75px;font-family:'Segoe UI';-inkscape-font-specification:'Segoe UI Semi-Bold Italic';fill:#ffffff;fill-opacity:1"
         id="path4290"
         inkscape:connector-curvature="0" />
      <path
         d="m 527.70581,518.85785 q 0,0.46692 -0.28381,1.81274 l -1.11695,5.27344 -2.21557,0 1.13525,-5.41992 q 0.18311,-0.97962 0.18311,-1.19934 0,-0.54932 -0.29297,-0.88806 -0.28382,-0.3479 -0.81482,-0.3479 -0.58594,0 -1.25427,0.46692 -0.65918,0.45776 -1.17188,1.23596 -0.51269,0.7782 -0.67749,1.54724 l -0.97961,4.6051 -2.23389,0 1.41907,-6.55518 q 0.32959,-1.5747 0.48523,-2.81982 l 2.16064,0 q -0.0732,0.7782 -0.28381,2.01416 l 0.0366,0 q 0.73242,-1.07117 1.66626,-1.6571 0.94299,-0.58594 1.86767,-0.58594 1.13526,0 1.74866,0.65002 0.62256,0.65003 0.62256,1.86768 z"
         style="font-style:italic;font-variant:normal;font-weight:600;font-stretch:normal;font-size:18.75px;font-family:'Segoe UI';-inkscape-font-specification:'Segoe UI Semi-Bold Italic';fill:#ffffff;fill-opacity:1"
         id="path4292"
         inkscape:connector-curvature="0" />
      <path
         d="m 537.72168,518.87616 q 0,1.69373 -1.57471,2.49939 -1.5747,0.79651 -4.77905,0.83313 l -0.0183,0.10071 0,0.1831 q 0,0.95215 0.56763,1.48316 0.56762,0.52185 1.58386,0.52185 0.6958,0 1.48315,-0.24719 0.79651,-0.25635 1.45569,-0.65003 l -0.36621,1.8219 q -1.38245,0.75073 -3.04871,0.75073 -1.8219,0 -2.84729,-1.01623 -1.01623,-1.01624 -1.01623,-2.8656 0,-1.59302 0.6958,-2.97547 0.6958,-1.3916 1.94092,-2.17895 1.24511,-0.79651 2.72827,-0.79651 1.474,0 2.33459,0.6958 0.8606,0.6958 0.8606,1.84021 z m -2.14233,0.0549 q 0,-0.45776 -0.33875,-0.72327 -0.32959,-0.27465 -0.91553,-0.27465 -0.97046,0 -1.75781,0.79651 -0.78735,0.7965 -1.03455,1.95922 4.04664,0 4.04664,-1.75781 z"
         style="font-style:italic;font-variant:normal;font-weight:600;font-stretch:normal;font-size:18.75px;font-family:'Segoe UI';-inkscape-font-specification:'Segoe UI Semi-Bold Italic';fill:#ffffff;fill-opacity:1"
         id="path4294"
         inkscape:connector-curvature="0" />
      <path
         d="m 545.03674,518.56488 q -0.40283,-0.23804 -0.9613,-0.41199 -0.54932,-0.17395 -1.09863,-0.17395 -0.76905,0 -1.15357,0.32959 -0.37536,0.32044 -0.37536,0.83313 0,0.45777 0.31128,0.75989 0.31127,0.30212 0.89721,0.62256 1.19019,0.66833 1.62049,1.27258 0.43945,0.60425 0.43945,1.41907 0,0.88806 -0.46692,1.54724 -0.45776,0.65918 -1.34583,1.03455 -0.88806,0.37536 -2.1698,0.37536 -0.6958,0 -1.47399,-0.15564 -0.7782,-0.15564 -1.19019,-0.37536 l 0.36621,-1.81275 q 0.50354,0.30213 1.19019,0.5127 0.6958,0.21057 1.33667,0.21057 0.80566,0 1.19934,-0.30212 0.39367,-0.30213 0.39367,-0.83313 0,-0.41199 -0.27465,-0.71412 -0.26551,-0.30212 -1.04371,-0.72326 -1.03454,-0.55847 -1.51062,-1.18103 -0.46691,-0.62256 -0.46691,-1.46485 0,-0.86059 0.43945,-1.53808 0.44861,-0.68665 1.28174,-1.07117 0.84228,-0.38452 1.99585,-0.38452 0.68664,0 1.33667,0.12817 0.65918,0.11902 1.10778,0.30213 l -0.38452,1.79443 z"
         style="font-style:italic;font-variant:normal;font-weight:600;font-stretch:normal;font-size:18.75px;font-family:'Segoe UI';-inkscape-font-specification:'Segoe UI Semi-Bold Italic';fill:#ffffff;fill-opacity:1"
         id="path4296"
         inkscape:connector-curvature="0" />
    </g>
    <g
       transform="matrix(1.0424904,0,0,0.95924147,3.5290607,-9.9990054)"
       style="font-style:normal;font-variant:normal;font-weight:bold;font-stretch:normal;font-size:34.07862473px;line-height:125%;font-family:'Swis721 BT';-inkscape-font-specification:'Swis721 BT, Bold';text-align:start;letter-spacing:0px;word-spacing:0px;writing-mode:lr-tb;text-anchor:start;fill:#726a65;fill-opacity:1;stroke:none;stroke-width:1px;stroke-linecap:butt;stroke-linejoin:miter;stroke-opacity:1"
       id="text4179">
      <path
         d="m 325.60769,568.31337 q -0.4992,-0.26624 -1.0816,-0.53248 -0.56576,-0.26624 -1.24799,-0.46592 -0.68224,-0.21632 -1.48096,-0.34943 -0.78208,-0.13312 -1.71392,-0.13312 -2.16319,0 -3.82719,0.74879 -1.64735,0.73216 -2.77887,1.98016 -1.13151,1.24799 -1.71391,2.89535 -0.5824,1.64736 -0.5824,3.47775 0,1.51424 0.44928,2.67903 0.44928,1.1648 1.28127,1.96352 0.832,0.78208 1.9968,1.19807 1.1648,0.39936 2.61247,0.39936 0.9152,0 1.71392,-0.11648 0.79871,-0.13312 1.51423,-0.3328 0.71552,-0.21632 1.34784,-0.48255 0.64896,-0.26624 1.23136,-0.56576 l -1.13152,5.07518 q -1.23136,0.51584 -2.72895,0.78208 -1.48096,0.28288 -3.34463,0.28288 -2.496,0 -4.47615,-0.73216 -1.98016,-0.7488 -3.34463,-2.11327 -1.36448,-1.36448 -2.09664,-3.26143 -0.71551,-1.9136 -0.71551,-4.25983 0,-1.88032 0.39935,-3.66079 0.39936,-1.79712 1.19808,-3.37791 0.81536,-1.59744 2.03007,-2.92863 1.23136,-1.3312 2.87872,-2.29632 1.66399,-0.96511 3.76063,-1.49759 2.11327,-0.54912 4.65918,-0.54912 0.96512,0 1.86368,0.0998 0.89856,0.0998 1.71391,0.26624 0.81536,0.14976 1.4976,0.34944 0.69888,0.18304 1.23136,0.36608 l -1.11488,5.09182 z"
         style="font-style:italic;font-variant:normal;font-weight:bold;font-stretch:normal;font-family:'Segoe UI';-inkscape-font-specification:'Segoe UI Bold Italic';fill:#726a65;fill-opacity:1"
         id="path4225"
         inkscape:connector-curvature="0" />
      <path
         d="m 331.63135,586.401 -5.42462,0 5.0419,-23.86169 5.42463,0 -5.04191,23.86169 z"
         style="font-style:italic;font-variant:normal;font-weight:bold;font-stretch:normal;font-family:'Segoe UI';-inkscape-font-specification:'Segoe UI Bold Italic';fill:#726a65;fill-opacity:1"
         id="path4227"
         inkscape:connector-curvature="0" />
      <path
         d="m 348.47098,586.401 -5.92382,0 -3.06175,-23.86169 5.50782,0 1.61408,16.50683 q 0.0499,0.5824 0.0499,1.19808 0.0166,0.59904 -0.0832,1.11488 l 0.13312,0 q 0.14976,-0.48256 0.38272,-1.0816 0.2496,-0.59904 0.59903,-1.29792 l 8.2867,-16.44027 5.92383,0 -13.42845,23.86169 z"
         style="font-style:italic;font-variant:normal;font-weight:bold;font-stretch:normal;font-family:'Segoe UI';-inkscape-font-specification:'Segoe UI Bold Italic';fill:#726a65;fill-opacity:1"
         id="path4229"
         inkscape:connector-curvature="0" />
      <path
         d="m 365.1775,586.401 -5.42463,0 5.04191,-23.86169 5.42462,0 -5.0419,23.86169 z"
         style="font-style:italic;font-variant:normal;font-weight:bold;font-stretch:normal;font-family:'Segoe UI';-inkscape-font-specification:'Segoe UI Bold Italic';fill:#726a65;fill-opacity:1"
         id="path4231"
         inkscape:connector-curvature="0" />
      <path
         d="m 384.77937,586.401 -14.24381,0 5.07519,-23.86169 5.42463,0 -4.12671,19.43546 8.80253,0 -0.93183,4.42623 z"
         style="font-style:italic;font-variant:normal;font-weight:bold;font-stretch:normal;font-family:'Segoe UI';-inkscape-font-specification:'Segoe UI Bold Italic';fill:#726a65;fill-opacity:1"
         id="path4233"
         inkscape:connector-curvature="0" />
      <path
         d="m 414.29864,568.06377 q -0.51584,-0.31616 -1.14816,-0.61568 -0.61568,-0.31616 -1.33119,-0.54911 -0.69888,-0.23296 -1.48096,-0.38272 -0.78208,-0.14976 -1.63072,-0.14976 -0.94847,0 -1.59743,0.26624 -0.64896,0.2496 -1.03168,0.63231 -0.38272,0.38272 -0.54912,0.832 -0.1664,0.43264 -0.1664,0.81536 0,0.54912 0.1664,1.01504 0.18304,0.44928 0.54912,0.88191 0.38272,0.416 0.98176,0.86528 0.61568,0.43264 1.48095,0.96512 1.13152,0.69888 1.9968,1.4144 0.88192,0.69887 1.49759,1.51423 0.61568,0.79872 0.93184,1.7472 0.31616,0.94847 0.31616,2.12991 0,0.68224 -0.1664,1.4976 -0.14976,0.81535 -0.53248,1.64735 -0.38272,0.81536 -1.06495,1.5808 -0.6656,0.76544 -1.68064,1.34783 -1.01504,0.5824 -2.44607,0.93184 -1.4144,0.36608 -3.31135,0.36608 -1.06496,0 -2.08,-0.14976 -0.99839,-0.13312 -1.91359,-0.36608 -0.89856,-0.2496 -1.68064,-0.54912 -0.78208,-0.29952 -1.38111,-0.61568 l 0.91519,-4.72574 q 0.61568,0.44928 1.3312,0.84864 0.73216,0.39935 1.51424,0.69887 0.79871,0.29952 1.64735,0.46592 0.84864,0.1664 1.71392,0.1664 0.94847,0 1.61407,-0.19968 0.6656,-0.21632 1.0816,-0.5824 0.416,-0.36608 0.59904,-0.84863 0.18304,-0.48256 0.18304,-1.03168 0,-0.54912 -0.18304,-0.98176 -0.1664,-0.44928 -0.56576,-0.84864 -0.39936,-0.41599 -1.06496,-0.84863 -0.64896,-0.44928 -1.59743,-0.9984 -1.01504,-0.56576 -1.84704,-1.21472 -0.832,-0.6656 -1.43103,-1.46431 -0.59904,-0.81536 -0.93184,-1.79712 -0.3328,-0.9984 -0.3328,-2.21311 0,-1.38112 0.51584,-2.71231 0.51584,-1.3312 1.61407,-2.37952 1.09824,-1.04831 2.79552,-1.68063 1.71391,-0.64896 4.07678,-0.64896 0.98176,0 1.89696,0.11648 0.9152,0.0998 1.74719,0.28288 0.832,0.18304 1.56416,0.416 0.73216,0.23296 1.3312,0.48256 l -0.9152,4.6259 z"
         style="font-style:italic;font-variant:normal;font-weight:bold;font-stretch:normal;font-family:'Segoe UI';-inkscape-font-specification:'Segoe UI Bold Italic';fill:#726a65;fill-opacity:1"
         id="path4235"
         inkscape:connector-curvature="0" />
      <path
         d="m 433.55107,566.91562 -8.33662,0 -1.13151,5.3747 7.77086,0 -0.94848,4.39295 -7.73758,0 -1.1648,5.35806 8.90238,0 -0.93184,4.35967 -14.31036,0 5.07519,-23.86169 13.7446,0 -0.93184,4.37631 z"
         style="font-style:italic;font-variant:normal;font-weight:bold;font-stretch:normal;font-family:'Segoe UI';-inkscape-font-specification:'Segoe UI Bold Italic';fill:#726a65;fill-opacity:1"
         id="path4237"
         inkscape:connector-curvature="0" />
      <path
         d="m 454.60061,568.61289 q 0,1.51424 -0.54912,2.74559 -0.54912,1.21472 -1.4976,2.11328 -0.94847,0.89855 -2.22975,1.46431 -1.26464,0.56576 -2.71231,0.76544 l 0,0.0666 q 1.03167,0.3328 1.76383,1.26464 0.73216,0.93183 1.09824,2.47935 l 1.66399,6.88894 -5.75742,0 -1.29792,-6.14014 q -0.29952,-1.48096 -1.04831,-2.22976 -0.7488,-0.76543 -2.04672,-0.76543 l -0.9152,0 -1.94687,9.13533 -5.42462,0 5.07518,-23.86169 8.15358,0 q 2.07999,0 3.54431,0.4992 1.46431,0.48255 2.37951,1.33119 0.9152,0.832 1.3312,1.93024 0.416,1.09823 0.416,2.31295 z m -5.72415,0.88192 q 0,-1.38112 -0.81535,-2.14656 -0.81536,-0.78207 -2.46272,-0.78207 l -2.24639,0 -1.43104,6.63934 2.17984,0 q 1.23135,0 2.12991,-0.29952 0.89856,-0.31616 1.48096,-0.81536 0.58239,-0.51584 0.86527,-1.18144 0.29952,-0.68223 0.29952,-1.41439 z"
         style="font-style:italic;font-variant:normal;font-weight:bold;font-stretch:normal;font-family:'Segoe UI';-inkscape-font-specification:'Segoe UI Bold Italic';fill:#726a65;fill-opacity:1"
         id="path4239"
         inkscape:connector-curvature="0" />
      <path
         d="m 467.01401,586.401 -5.92382,0 -3.06175,-23.86169 5.50782,0 1.61408,16.50683 q 0.0499,0.5824 0.0499,1.19808 0.0166,0.59904 -0.0832,1.11488 l 0.13312,0 q 0.14976,-0.48256 0.38272,-1.0816 0.2496,-0.59904 0.59903,-1.29792 l 8.2867,-16.44027 5.92382,0 -13.42844,23.86169 z"
         style="font-style:italic;font-variant:normal;font-weight:bold;font-stretch:normal;font-family:'Segoe UI';-inkscape-font-specification:'Segoe UI Bold Italic';fill:#726a65;fill-opacity:1"
         id="path4241"
         inkscape:connector-curvature="0" />
      <path
         d="m 483.72053,586.401 -5.42463,0 5.04191,-23.86169 5.42462,0 -5.0419,23.86169 z"
         style="font-style:italic;font-variant:normal;font-weight:bold;font-stretch:normal;font-family:'Segoe UI';-inkscape-font-specification:'Segoe UI Bold Italic';fill:#726a65;fill-opacity:1"
         id="path4243"
         inkscape:connector-curvature="0" />
      <path
         d="m 510.11149,568.31337 q -0.4992,-0.26624 -1.0816,-0.53248 -0.56576,-0.26624 -1.248,-0.46592 -0.68223,-0.21632 -1.48095,-0.34943 -0.78208,-0.13312 -1.71392,-0.13312 -2.16319,0 -3.82719,0.74879 -1.64735,0.73216 -2.77887,1.98016 -1.13151,1.24799 -1.71391,2.89535 -0.5824,1.64736 -0.5824,3.47775 0,1.51424 0.44928,2.67903 0.44928,1.1648 1.28127,1.96352 0.832,0.78208 1.9968,1.19807 1.16479,0.39936 2.61247,0.39936 0.9152,0 1.71392,-0.11648 0.79871,-0.13312 1.51423,-0.3328 0.71552,-0.21632 1.34784,-0.48255 0.64896,-0.26624 1.23135,-0.56576 l -1.13151,5.07518 q -1.23136,0.51584 -2.72895,0.78208 -1.48096,0.28288 -3.34464,0.28288 -2.49599,0 -4.47614,-0.73216 -1.98016,-0.7488 -3.34463,-2.11327 -1.36448,-1.36448 -2.09664,-3.26143 -0.71552,-1.9136 -0.71552,-4.25983 0,-1.88032 0.39936,-3.66079 0.39936,-1.79712 1.19808,-3.37791 0.81536,-1.59744 2.03007,-2.92863 1.23136,-1.3312 2.87872,-2.29632 1.66399,-0.96511 3.76063,-1.49759 2.11327,-0.54912 4.65918,-0.54912 0.96512,0 1.86368,0.0998 0.89856,0.0998 1.71391,0.26624 0.81536,0.14976 1.4976,0.34944 0.69888,0.18304 1.23136,0.36608 l -1.11488,5.09182 z"
         style="font-style:italic;font-variant:normal;font-weight:bold;font-stretch:normal;font-family:'Segoe UI';-inkscape-font-specification:'Segoe UI Bold Italic';fill:#726a65;fill-opacity:1"
         id="path4245"
         inkscape:connector-curvature="0" />
      <path
         d="m 528.59848,566.91562 -8.33662,0 -1.13151,5.3747 7.77085,0 -0.94847,4.39295 -7.73758,0 -1.1648,5.35806 8.90238,0 -0.93184,4.35967 -14.31036,0 5.07519,-23.86169 13.7446,0 -0.93184,4.37631 z"
         style="font-style:italic;font-variant:normal;font-weight:bold;font-stretch:normal;font-family:'Segoe UI';-inkscape-font-specification:'Segoe UI Bold Italic';fill:#726a65;fill-opacity:1"
         id="path4247"
         inkscape:connector-curvature="0" />
    </g>
    <g
       transform="matrix(1.0135018,0,0,0.98667806,3.5290607,-9.9990054)"
       style="font-style:normal;font-variant:normal;font-weight:bold;font-stretch:normal;font-size:35.60068893px;line-height:125%;font-family:'Swis721 BT';-inkscape-font-specification:'Swis721 BT, Bold';text-align:start;letter-spacing:0px;word-spacing:0px;writing-mode:lr-tb;text-anchor:start;fill:#726a65;fill-opacity:1;stroke:none;stroke-width:1px;stroke-linecap:butt;stroke-linejoin:miter;stroke-opacity:1"
       id="text4179-5">
      <path
         d="m 335.82478,581.74563 q -0.5215,-0.27813 -1.12991,-0.55626 -0.59103,-0.27813 -1.30373,-0.48673 -0.71271,-0.22598 -1.5471,-0.36504 -0.81701,-0.13907 -1.79047,-0.13907 -2.25981,0 -3.99812,0.78224 -1.72094,0.76486 -2.90299,2.0686 -1.18205,1.30373 -1.79046,3.02466 -0.60841,1.72094 -0.60841,3.63308 0,1.58187 0.46934,2.79869 0.46935,1.21682 1.3385,2.05121 0.86916,0.81701 2.08598,1.25159 1.21682,0.41719 2.72916,0.41719 0.95607,0 1.79046,-0.12168 0.83439,-0.13906 1.58187,-0.34766 0.74747,-0.22598 1.40803,-0.50411 0.67794,-0.27813 1.28636,-0.59103 l -1.18206,5.30186 q -1.28635,0.53888 -2.85084,0.81701 -1.5471,0.29551 -3.49401,0.29551 -2.60747,0 -4.67607,-0.76486 -2.06859,-0.78224 -3.49401,-2.20766 -1.42542,-1.42541 -2.19028,-3.40709 -0.74747,-1.99907 -0.74747,-4.45009 0,-1.9643 0.41719,-3.82429 0.4172,-1.87738 1.25159,-3.52878 0.85178,-1.66878 2.12075,-3.05944 1.28635,-1.39065 3.00728,-2.39887 1.73832,-1.00822 3.92859,-1.56448 2.20766,-0.57365 4.86728,-0.57365 1.00823,0 1.94692,0.1043 0.93869,0.1043 1.79046,0.27813 0.85178,0.15645 1.56448,0.36505 0.7301,0.19121 1.28636,0.38243 l -1.16467,5.31924 z"
         style="font-style:italic;font-variant:normal;font-weight:bold;font-stretch:normal;font-family:'Segoe UI';-inkscape-font-specification:'Segoe UI Bold Italic';fill:#726a65;fill-opacity:1"
         id="path4204"
         inkscape:connector-curvature="0" />
      <path
         d="m 361.86473,586.0045 q 0,1.49495 -0.26074,3.00729 -0.26075,1.51233 -0.78225,2.93775 -0.50411,1.40803 -1.28635,2.71177 -0.76486,1.30374 -1.79046,2.38149 -0.86916,0.92131 -1.89477,1.66878 -1.0256,0.74748 -2.24242,1.26897 -1.19944,0.5215 -2.60748,0.79963 -1.40803,0.29551 -3.04205,0.29551 -2.4684,0 -4.41532,-0.81701 -1.92953,-0.817 -3.26803,-2.24242 -1.3385,-1.4428 -2.05121,-3.4071 -0.69533,-1.9643 -0.69533,-4.25887 0,-1.61663 0.27813,-3.18112 0.27814,-1.58186 0.8344,-3.02467 0.57364,-1.46018 1.40803,-2.76392 0.85178,-1.32112 1.9643,-2.41625 0.86915,-0.83439 1.87738,-1.49495 1.00822,-0.67795 2.17289,-1.16468 1.16467,-0.48672 2.50317,-0.74747 1.33851,-0.26075 2.86822,-0.26075 2.31196,0 4.22411,0.73009 1.92953,0.7301 3.3028,2.12075 1.37327,1.37327 2.13812,3.37233 0.76486,1.98168 0.76486,4.48485 z m -5.94503,0.19122 q 0,-1.40804 -0.36505,-2.52056 -0.34766,-1.11252 -1.00822,-1.87738 -0.66056,-0.78224 -1.61664,-1.18205 -0.93869,-0.4172 -2.13812,-0.4172 -1.39065,0 -2.64224,0.64318 -1.25159,0.64317 -2.22504,1.79046 -0.59103,0.69533 -1.04299,1.59925 -0.45197,0.90392 -0.76486,1.91215 -0.3129,1.00822 -0.48673,2.06859 -0.15645,1.04299 -0.15645,2.0686 0,1.40803 0.34766,2.52055 0.36505,1.11252 1.02561,1.87738 0.66056,0.74748 1.58187,1.14729 0.93869,0.39981 2.08597,0.39981 1.42542,0 2.71178,-0.62579 1.30373,-0.62579 2.27719,-1.86 0.60841,-0.73009 1.06037,-1.63401 0.45196,-0.92131 0.74748,-1.91215 0.29551,-0.99084 0.45196,-2.01644 0.15645,-1.02561 0.15645,-1.98168 z"
         style="font-style:italic;font-variant:normal;font-weight:bold;font-stretch:normal;font-family:'Segoe UI';-inkscape-font-specification:'Segoe UI Bold Italic';fill:#726a65;fill-opacity:1"
         id="path4206"
         inkscape:connector-curvature="0" />
      <path
         d="m 388.80861,600.64111 -5.04111,0 3.16373,-14.91474 q 0.5215,-2.38149 1.35589,-5.33663 l -0.13907,0 q -0.24336,0.55627 -0.52149,1.11253 -0.26075,0.55626 -0.5215,1.06037 -0.26074,0.48673 -0.48673,0.88654 -0.22598,0.38243 -0.39981,0.62579 l -6.67513,9.09139 -3.92859,0 -2.59009,-8.91756 q -0.0869,-0.26074 -0.17383,-0.817 -0.0695,-0.57365 -0.0695,-1.18206 l 0,-1.86 -0.15645,0 q -0.24336,1.63402 -0.48673,3.00729 -0.22598,1.37327 -0.41719,2.31196 l -3.18112,14.93212 -5.0585,0 5.30186,-24.92743 6.67513,0 2.55533,8.65681 q 0.12168,0.41719 0.22598,0.90392 0.1043,0.46934 0.17383,0.95607 0.0695,0.46935 0.1043,0.92131 0.0348,0.43458 0.0348,0.78224 l 0.0869,0 q 0.19121,-0.38243 0.39981,-0.85177 0.22598,-0.48673 0.45196,-0.97346 0.24337,-0.50411 0.50412,-0.95607 0.26074,-0.46935 0.52149,-0.81701 l 6.36223,-8.62204 7.23139,0 -5.30186,24.92743 z"
         style="font-style:italic;font-variant:normal;font-weight:bold;font-stretch:normal;font-family:'Segoe UI';-inkscape-font-specification:'Segoe UI Bold Italic';fill:#726a65;fill-opacity:1"
         id="path4208"
         inkscape:connector-curvature="0" />
      <path
         d="m 419.75062,600.64111 -5.04111,0 3.16373,-14.91474 q 0.5215,-2.38149 1.35589,-5.33663 l -0.13907,0 q -0.24336,0.55627 -0.52149,1.11253 -0.26075,0.55626 -0.5215,1.06037 -0.26075,0.48673 -0.48673,0.88654 -0.22598,0.38243 -0.39981,0.62579 l -6.67513,9.09139 -3.92859,0 -2.59009,-8.91756 q -0.0869,-0.26074 -0.17383,-0.817 -0.0695,-0.57365 -0.0695,-1.18206 l 0,-1.86 -0.15645,0 q -0.24336,1.63402 -0.48673,3.00729 -0.22598,1.37327 -0.41719,2.31196 l -3.18112,14.93212 -5.0585,0 5.30186,-24.92743 6.67513,0 2.55533,8.65681 q 0.12168,0.41719 0.22598,0.90392 0.1043,0.46934 0.17383,0.95607 0.0695,0.46935 0.1043,0.92131 0.0348,0.43458 0.0348,0.78224 l 0.0869,0 q 0.19121,-0.38243 0.39981,-0.85177 0.22598,-0.48673 0.45196,-0.97346 0.24337,-0.50411 0.50411,-0.95607 0.26075,-0.46935 0.5215,-0.81701 l 6.36223,-8.62204 7.23139,0 -5.30186,24.92743 z"
         style="font-style:italic;font-variant:normal;font-weight:bold;font-stretch:normal;font-family:'Segoe UI';-inkscape-font-specification:'Segoe UI Bold Italic';fill:#726a65;fill-opacity:1"
         id="path4210"
         inkscape:connector-curvature="0" />
      <path
         d="m 431.04966,600.64111 -5.6669,0 5.26709,-24.92743 5.66691,0 -5.2671,24.92743 z"
         style="font-style:italic;font-variant:normal;font-weight:bold;font-stretch:normal;font-family:'Segoe UI';-inkscape-font-specification:'Segoe UI Bold Italic';fill:#726a65;fill-opacity:1"
         id="path4212"
         inkscape:connector-curvature="0" />
      <path
         d="m 454.34309,581.48488 q -0.53888,-0.33028 -1.19944,-0.64317 -0.64318,-0.33028 -1.39065,-0.57365 -0.7301,-0.24336 -1.5471,-0.39981 -0.81701,-0.15645 -1.70355,-0.15645 -0.99084,0 -1.66879,0.27813 -0.67794,0.26075 -1.07775,0.66056 -0.39981,0.39981 -0.57364,0.86916 -0.17384,0.45196 -0.17384,0.85177 0,0.57365 0.17384,1.06038 0.19121,0.46934 0.57364,0.9213 0.39981,0.43458 1.02561,0.90393 0.64317,0.45196 1.5471,1.00822 1.18205,0.73009 2.08597,1.47757 0.92131,0.73009 1.56449,1.58186 0.64317,0.83439 0.97345,1.82523 0.33028,0.99084 0.33028,2.22505 0,0.71271 -0.17383,1.56448 -0.15645,0.85177 -0.55626,1.72093 -0.39981,0.85178 -1.11252,1.6514 -0.69533,0.79963 -1.7557,1.40804 -1.06037,0.60841 -2.55532,0.97345 -1.47757,0.38243 -3.45925,0.38243 -1.11252,0 -2.17289,-0.15645 -1.04299,-0.13906 -1.99906,-0.38243 -0.93869,-0.26074 -1.7557,-0.57364 -0.81701,-0.3129 -1.4428,-0.64318 l 0.95607,-4.93681 q 0.64318,0.46934 1.39065,0.88654 0.76486,0.4172 1.58187,0.73009 0.83439,0.3129 1.72093,0.48673 0.88654,0.17383 1.79046,0.17383 0.99084,0 1.68617,-0.2086 0.69533,-0.22598 1.1299,-0.60841 0.43458,-0.38243 0.6258,-0.88654 0.19121,-0.50411 0.19121,-1.07775 0,-0.57365 -0.19121,-1.02561 -0.17383,-0.46934 -0.59103,-0.88654 -0.41719,-0.43458 -1.11252,-0.88654 -0.67794,-0.46934 -1.66878,-1.04299 -1.06038,-0.59102 -1.92953,-1.26897 -0.86916,-0.69532 -1.49495,-1.52971 -0.6258,-0.85178 -0.97346,-1.87738 -0.34766,-1.04299 -0.34766,-2.31196 0,-1.4428 0.53887,-2.83346 0.53888,-1.39065 1.68617,-2.48579 1.14729,-1.09514 2.92037,-1.75569 1.79046,-0.67795 4.25887,-0.67795 1.02561,0 1.98168,0.12168 0.95607,0.1043 1.82523,0.29552 0.86916,0.19121 1.63402,0.43458 0.76485,0.24336 1.39065,0.50411 l -0.95607,4.83251 z"
         style="font-style:italic;font-variant:normal;font-weight:bold;font-stretch:normal;font-family:'Segoe UI';-inkscape-font-specification:'Segoe UI Bold Italic';fill:#726a65;fill-opacity:1"
         id="path4214"
         inkscape:connector-curvature="0" />
      <path
         d="m 473.46455,581.48488 q -0.53887,-0.33028 -1.19943,-0.64317 -0.64318,-0.33028 -1.39066,-0.57365 -0.73009,-0.24336 -1.5471,-0.39981 -0.817,-0.15645 -1.70355,-0.15645 -0.99083,0 -1.66878,0.27813 -0.67794,0.26075 -1.07775,0.66056 -0.39982,0.39981 -0.57365,0.86916 -0.17383,0.45196 -0.17383,0.85177 0,0.57365 0.17383,1.06038 0.19122,0.46934 0.57365,0.9213 0.39981,0.43458 1.0256,0.90393 0.64318,0.45196 1.5471,1.00822 1.18206,0.73009 2.08598,1.47757 0.92131,0.73009 1.56448,1.58186 0.64318,0.83439 0.97346,1.82523 0.33028,0.99084 0.33028,2.22505 0,0.71271 -0.17383,1.56448 -0.15645,0.85177 -0.55626,1.72093 -0.39981,0.85178 -1.11252,1.6514 -0.69533,0.79963 -1.7557,1.40804 -1.06037,0.60841 -2.55532,0.97345 -1.47757,0.38243 -3.45925,0.38243 -1.11252,0 -2.17289,-0.15645 -1.04299,-0.13906 -1.99907,-0.38243 -0.93869,-0.26074 -1.75569,-0.57364 -0.81701,-0.3129 -1.44281,-0.64318 l 0.95608,-4.93681 q 0.64317,0.46934 1.39065,0.88654 0.76486,0.4172 1.58187,0.73009 0.83439,0.3129 1.72093,0.48673 0.88654,0.17383 1.79046,0.17383 0.99084,0 1.68617,-0.2086 0.69532,-0.22598 1.1299,-0.60841 0.43458,-0.38243 0.6258,-0.88654 0.19121,-0.50411 0.19121,-1.07775 0,-0.57365 -0.19121,-1.02561 -0.17384,-0.46934 -0.59103,-0.88654 -0.4172,-0.43458 -1.11252,-0.88654 -0.67795,-0.46934 -1.66879,-1.04299 -1.06037,-0.59102 -1.92953,-1.26897 -0.86915,-0.69532 -1.49495,-1.52971 -0.62579,-0.85178 -0.97345,-1.87738 -0.34767,-1.04299 -0.34767,-2.31196 0,-1.4428 0.53888,-2.83346 0.53888,-1.39065 1.68617,-2.48579 1.14729,-1.09514 2.92037,-1.75569 1.79046,-0.67795 4.25887,-0.67795 1.0256,0 1.98168,0.12168 0.95607,0.1043 1.82523,0.29552 0.86916,0.19121 1.63401,0.43458 0.76486,0.24336 1.39066,0.50411 l -0.95608,4.83251 z"
         style="font-style:italic;font-variant:normal;font-weight:bold;font-stretch:normal;font-family:'Segoe UI';-inkscape-font-specification:'Segoe UI Bold Italic';fill:#726a65;fill-opacity:1"
         id="path4216"
         inkscape:connector-curvature="0" />
      <path
         d="m 480.55687,600.64111 -5.6669,0 5.26709,-24.92743 5.66691,0 -5.2671,24.92743 z"
         style="font-style:italic;font-variant:normal;font-weight:bold;font-stretch:normal;font-family:'Segoe UI';-inkscape-font-specification:'Segoe UI Bold Italic';fill:#726a65;fill-opacity:1"
         id="path4218"
         inkscape:connector-curvature="0" />
      <path
         d="m 511.56841,586.0045 q 0,1.49495 -0.26074,3.00729 -0.26075,1.51233 -0.78225,2.93775 -0.50411,1.40803 -1.28635,2.71177 -0.76486,1.30374 -1.79046,2.38149 -0.86916,0.92131 -1.89477,1.66878 -1.0256,0.74748 -2.24242,1.26897 -1.19944,0.5215 -2.60748,0.79963 -1.40803,0.29551 -3.04205,0.29551 -2.4684,0 -4.41532,-0.81701 -1.92953,-0.817 -3.26803,-2.24242 -1.3385,-1.4428 -2.05121,-3.4071 -0.69533,-1.9643 -0.69533,-4.25887 0,-1.61663 0.27813,-3.18112 0.27814,-1.58186 0.8344,-3.02467 0.57364,-1.46018 1.40803,-2.76392 0.85178,-1.32112 1.9643,-2.41625 0.86915,-0.83439 1.87738,-1.49495 1.00822,-0.67795 2.17289,-1.16468 1.16467,-0.48672 2.50317,-0.74747 1.33851,-0.26075 2.86822,-0.26075 2.31196,0 4.22411,0.73009 1.92953,0.7301 3.3028,2.12075 1.37327,1.37327 2.13812,3.37233 0.76486,1.98168 0.76486,4.48485 z m -5.94503,0.19122 q 0,-1.40804 -0.36505,-2.52056 -0.34766,-1.11252 -1.00822,-1.87738 -0.66056,-0.78224 -1.61664,-1.18205 -0.93869,-0.4172 -2.13812,-0.4172 -1.39065,0 -2.64224,0.64318 -1.25159,0.64317 -2.22504,1.79046 -0.59103,0.69533 -1.04299,1.59925 -0.45197,0.90392 -0.76486,1.91215 -0.3129,1.00822 -0.48673,2.06859 -0.15645,1.04299 -0.15645,2.0686 0,1.40803 0.34766,2.52055 0.36505,1.11252 1.02561,1.87738 0.66056,0.74748 1.58187,1.14729 0.93869,0.39981 2.08597,0.39981 1.42542,0 2.71178,-0.62579 1.30373,-0.62579 2.27719,-1.86 0.60841,-0.73009 1.06037,-1.63401 0.45196,-0.92131 0.74748,-1.91215 0.29551,-0.99084 0.45196,-2.01644 0.15645,-1.02561 0.15645,-1.98168 z"
         style="font-style:italic;font-variant:normal;font-weight:bold;font-stretch:normal;font-family:'Segoe UI';-inkscape-font-specification:'Segoe UI Bold Italic';fill:#726a65;fill-opacity:1"
         id="path4220"
         inkscape:connector-curvature="0" />
      <path
         d="m 536.0265,600.64111 -5.12803,0 -7.80504,-15.83605 q -0.1043,-0.20859 -0.22598,-0.48672 -0.12168,-0.27813 -0.24336,-0.55626 -0.12168,-0.29552 -0.22598,-0.55627 -0.1043,-0.26074 -0.15645,-0.46934 l -0.1043,0 q -0.0869,0.64318 -0.19121,1.4428 -0.1043,0.79963 -0.29552,1.58187 l -3.18111,14.87997 -5.2671,0 5.2671,-24.92743 5.5626,0 7.47476,15.24502 q 0.0869,0.19121 0.20859,0.46934 0.13907,0.26075 0.26075,0.55627 0.13907,0.27813 0.24337,0.55626 0.12168,0.27813 0.17383,0.48672 l 0.0695,0 q 0.0174,-0.26074 0.0521,-0.57364 0.0348,-0.33028 0.0869,-0.66056 0.0521,-0.33028 0.10429,-0.64318 0.0695,-0.31289 0.12169,-0.55626 l 3.16373,-14.87997 5.30186,0 -5.26709,24.92743 z"
         style="font-style:italic;font-variant:normal;font-weight:bold;font-stretch:normal;font-family:'Segoe UI';-inkscape-font-specification:'Segoe UI Bold Italic';fill:#726a65;fill-opacity:1"
         id="path4222"
         inkscape:connector-curvature="0" />
    </g>
  </g>
</svg>
