<?xml version="1.0" encoding="UTF-8" standalone="no"?>
<!-- Created with Inkscape (http://www.inkscape.org/) -->

<svg
   xmlns:dc="http://purl.org/dc/elements/1.1/"
   xmlns:cc="http://creativecommons.org/ns#"
   xmlns:rdf="http://www.w3.org/1999/02/22-rdf-syntax-ns#"
   xmlns:svg="http://www.w3.org/2000/svg"
   xmlns="http://www.w3.org/2000/svg"
   xmlns:sodipodi="http://sodipodi.sourceforge.net/DTD/sodipodi-0.dtd"
   xmlns:inkscape="http://www.inkscape.org/namespaces/inkscape"
   width="490"
   height="245"
   id="svg2"
   version="1.1"
   inkscape:version="0.48.5 r10040"
   sodipodi:docname="Clark International Airport (CRK).svg">
  <title
     id="title4278">Clark International Airport (CRK)</title>
  <defs
     id="defs4" />
  <sodipodi:namedview
     id="base"
     pagecolor="#ffffff"
     bordercolor="#666666"
     borderopacity="1.0"
     inkscape:pageopacity="0.0"
     inkscape:pageshadow="2"
     inkscape:zoom="0.74776806"
     inkscape:cx="244.99999"
     inkscape:cy="-20.721563"
     inkscape:document-units="px"
     inkscape:current-layer="layer1"
     showgrid="false"
     fit-margin-top="0"
     fit-margin-left="0"
     fit-margin-right="0"
     fit-margin-bottom="0"
     inkscape:window-width="1366"
     inkscape:window-height="705"
     inkscape:window-x="-8"
     inkscape:window-y="-8"
     inkscape:window-maximized="1" />
  <metadata
     id="metadata7">
    <rdf:RDF>
      <cc:Work
         rdf:about="">
        <dc:format>image/svg+xml</dc:format>
        <dc:type
           rdf:resource="http://purl.org/dc/dcmitype/StillImage" />
        <dc:title>Clark International Airport (CRK)</dc:title>
      </cc:Work>
    </rdf:RDF>
  </metadata>
  <g
     inkscape:label="Layer 1"
     inkscape:groupmode="layer"
     id="layer1"
     transform="translate(-6.9275558,-125.98896)">
    <g
       id="g4410">
      <path
         sodipodi:nodetypes="ccccc"
         inkscape:connector-curvature="0"
         id="path3179"
         d="m 200.71851,158.49466 -129.384885,88.7725 -63.3411141,0 187.9883091,-89.39455 z"
         style="fill:#0038a8;fill-opacity:1;stroke:none" />
      <path
         sodipodi:nodetypes="ccccc"
         inkscape:connector-curvature="0"
         id="path3181"
         d="m 221.84375,160.01748 -107.4095,87.24968 62.25646,0 51.99441,-86.22877 z"
         style="fill:#ce1126;fill-opacity:1;stroke:none" />
      <path
         sodipodi:nodetypes="ccccc"
         inkscape:connector-curvature="0"
         id="path3183"
         d="m 276.28814,159.72386 55.01752,87.5433 59.51992,0 -109.38133,-88.56422 z"
         style="fill:#fcd116;fill-opacity:1;stroke:none" />
      <path
         sodipodi:nodetypes="ccccc"
         inkscape:connector-curvature="0"
         id="path3185"
         d="m 302.41609,156.2922 132.87839,90.97496 61.34186,0 -184.82858,-90.60604 z"
         style="fill:#009246;fill-opacity:1;stroke:none" />
      <path
         sodipodi:nodetypes="cccsccccccccccscccscccccc"
         id="path3053"
         d="m 248.48812,129.06315 c -3.87575,5.2945 -4.47092,11.47788 -5.81673,17.72186 l -0.90886,4.52088 -44.53434,0 c -44.71611,0 -59.62149,2.17002 -30.35607,4.34005 18.64672,3.89629 73.22449,0.96676 79.07118,12.8393 5.26722,8.05887 0.75963,7.99792 -12.36055,9.40343 l 8.36155,0.18084 c 6.18028,0.36167 8.90687,1.26584 9.81573,3.43587 1.09064,3.0742 2.57309,3.01508 3.55871,0.17736 1.2724,-2.17002 3.7122,-3.4324 9.71071,-3.61323 l 8.54332,-0.18084 c -13.68785,-0.99621 -17.88056,-1.21352 -12.7241,-10.30761 5.67708,-10.91752 50.76204,-9.58323 77.79877,-11.75429 29.99252,-2.35086 16.17778,-4.52088 -28.72011,-4.52088 l -44.53434,0 -0.72709,-4.15921 c -2.54482,-12.65847 -3.45368,-15.19016 -5.9985,-18.08353 -1.63595,-1.62751 -3.48279,-2.99058 -4.7552,-2.99058 -1.27241,0 -3.78813,1.36307 -5.42408,2.99058 z m 5.02777,49.45656 c -2.04997,0.45353 -1.70563,-10.52018 -1.0923,-15.44218 l 1.15417,-12.67582 0.90886,12.65847 c 0.25477,5.84117 1.16478,15.97687 -0.97073,15.45953 z"
         inkscape:connector-curvature="0"
         style="fill:#000000;stroke:none" />
      <g
         id="text4254"
         style="font-size:111.3637619px;font-style:normal;font-variant:normal;font-weight:bold;font-stretch:normal;line-height:125%;letter-spacing:13.92047024px;word-spacing:0px;fill:#0038a8;fill-opacity:1;stroke:none;font-family:Gotham Bold;-inkscape-font-specification:Gotham Bold"
         transform="scale(1.243605,0.80411387)">
        <path
           id="path4291"
           style="letter-spacing:0px;fill:#0038a8;font-family:Gotham Bold;-inkscape-font-specification:Gotham Bold"
           d="m 45.547714,404.19302 c -5.716405,0 -11.024372,-1.03939 -15.923917,-3.11817 -4.899604,-2.07878 -9.131364,-4.91826 -12.695292,-8.51847 -3.563962,-3.60019 -6.34794,-7.85064 -8.3519419,-12.75137 C 6.5725432,374.90433 5.5705377,369.67056 5.5705436,364.1037 l 0,-0.22431 c -5.9e-6,-5.56678 1.0019996,-10.78185 3.0060195,-15.64523 2.0040019,-4.86327 4.7879799,-9.13241 8.3519419,-12.80744 3.563928,-3.6749 7.833072,-6.57047 12.807445,-8.6867 4.974312,-2.11609 10.468067,-3.17417 16.481279,-3.17425 3.638667,8e-5 6.961315,0.29688 9.967954,0.89042 3.006526,0.59369 5.734995,1.41047 8.185413,2.45035 2.450289,1.04004 4.714856,2.3026 6.793706,3.78769 2.078708,1.48524 4.008517,3.11824 5.789434,4.89901 l -10.912751,12.58484 c -3.045166,-2.74824 -6.14521,-4.90178 -9.300139,-6.46064 -3.155043,-1.55874 -6.700296,-2.33815 -10.635769,-2.33821 -3.267185,6e-5 -6.29246,0.63106 -9.075834,1.893 -2.783449,1.26205 -5.177727,3.00664 -7.18284,5.23377 -2.005174,2.22723 -3.564542,4.8073 -4.678108,7.7402 -1.113616,2.93299 -1.670412,6.07042 -1.670388,9.41229 l 0,0.2209 c -2.4e-5,3.34195 0.556772,6.4975 1.670388,9.46667 1.113566,2.96923 2.654242,5.56742 4.622032,7.79458 1.967729,2.22721 4.343881,3.99049 7.128463,5.28985 2.784507,1.29939 5.8466,1.94908 9.186287,1.94907 4.454318,10e-6 8.222176,-0.81677 11.303585,-2.45036 3.081293,-1.63355 6.144519,-3.86073 9.189685,-6.68155 l 10.912752,11.0249 c -2.005222,2.15243 -4.084001,4.0828 -6.236344,5.79114 -2.152486,1.70834 -4.509379,3.17481 -7.070688,4.39942 -2.561437,1.22461 -5.364107,2.15242 -8.408018,2.78342 -3.044023,0.63099 -6.460131,0.94649 -10.248335,0.94649 z"
           inkscape:connector-curvature="0" />
        <path
           id="path4293"
           style="letter-spacing:0px;fill:#0038a8;font-family:Gotham Bold;-inkscape-font-specification:Gotham Bold"
           d="m 91.241254,324.9014 17.149096,0 0,62.36343 38.86584,0 0,15.59256 -56.014936,0 z"
           inkscape:connector-curvature="0" />
        <path
           id="path4295"
           style="letter-spacing:0px;fill:#0038a8;font-family:Gotham Bold;-inkscape-font-specification:Gotham Bold"
           d="m 204.95681,370.22789 -10.35539,-25.27843 -10.35879,25.27843 z m -18.03952,-45.88046 15.81346,0 33.40777,78.50996 -17.92736,0 -7.13016,-17.48555 -32.96256,0 -7.12677,17.48555 -17.48555,0 z"
           inkscape:connector-curvature="0" />
        <path
           id="path4297"
           style="letter-spacing:0px;fill:#0038a8;font-family:Gotham Bold;-inkscape-font-specification:Gotham Bold"
           d="m 282.58656,362.76807 c 4.23001,4e-5 7.47733,-1.00253 9.74195,-3.00772 2.26451,-2.0051 3.39679,-4.67863 3.39685,-8.02058 l 0,-0.22091 c -6e-5,-3.71116 -1.18785,-6.49514 -3.56338,-8.35194 -2.37564,-1.85668 -5.6796,-2.78505 -9.91188,-2.78512 l -17.03694,0 0,22.38627 z m -34.5225,-37.86667 35.63382,0 c 9.87387,8e-5 17.44697,2.63622 22.71932,7.90843 4.4543,4.45443 6.68148,10.39397 6.68156,17.81861 l 0,0.22091 c -8e-5,6.31229 -1.54075,11.45429 -4.62203,15.42602 -3.08142,3.97181 -7.1087,6.8855 -12.08186,8.74108 l 19.04209,27.84094 -20.04466,0 -16.70388,-24.94537 -0.22431,0 -13.25095,0 0,24.94537 -17.1491,0 z"
           inkscape:connector-curvature="0" />
        <path
           id="path4299"
           style="letter-spacing:0px;fill:#0038a8;font-family:Gotham Bold;-inkscape-font-specification:Gotham Bold"
           d="m 328.54178,324.9014 17.1491,0 0,34.07728 31.62693,-34.07728 20.71417,0 -31.73908,33.07471 33.18687,44.88128 -20.60203,0 -24.1671,-33.18686 -9.01976,9.35621 0,23.83065 -17.1491,0 z"
           inkscape:connector-curvature="0" />
      </g>
      <rect
         y="338.2258"
         x="7.9925108"
         height="6.7376776"
         width="488.93503"
         id="rect4260"
         style="color:#000000;fill:#0038a8;fill-opacity:1;fill-rule:nonzero;stroke:none;stroke-width:5;marker:none;visibility:visible;display:inline;overflow:visible;enable-background:accumulate" />
      <g
         id="text4262"
         style="font-size:28.50296783px;font-style:normal;font-weight:normal;line-height:125%;letter-spacing:3.56287098px;word-spacing:0px;fill:#0038a8;fill-opacity:1;stroke:none;font-family:Gotham Bold;-inkscape-font-specification:Gotham Bold"
         transform="scale(1.0575962,0.94554043)">
        <path
           id="path4302"
           style="letter-spacing:2.72558284px;word-spacing:6.81395769px"
           d="m 12.854522,372.06225 4.38922,0 0,19.95243 -4.38922,0 z"
           inkscape:connector-curvature="0" />
        <path
           id="path4304"
           style="letter-spacing:2.72558284px;word-spacing:6.81395769px"
           d="m 24.956127,372.06225 4.047372,0 9.348187,12.28478 0,-12.28478 4.332681,0 0,19.95243 -3.73336,0 -9.663069,-12.68403 0,12.68403 -4.331811,0 z"
           inkscape:connector-curvature="0" />
        <path
           id="path4306"
           style="letter-spacing:2.72558284px;word-spacing:6.81395769px"
           d="m 54.818158,376.10963 -6.071494,0 0,-4.04738 16.532208,0 0,4.04738 -6.071494,0 0,15.90505 -4.38922,0 z"
           inkscape:connector-curvature="0" />
        <path
           id="path4308"
           style="letter-spacing:2.72558284px;word-spacing:6.81395769px"
           d="m 71.380308,372.06225 15.049128,0 0,3.90559 -10.688613,0 0,4.04737 9.405597,0 0,3.90472 -9.405597,0 0,4.19003 10.831267,0 0,3.90472 -15.191782,0 z"
           inkscape:connector-curvature="0" />
        <path
           id="path4310"
           style="letter-spacing:2.72558284px;word-spacing:6.81395769px"
           d="m 102.0365,381.75403 c 1.08266,10e-6 1.91379,-0.25659 2.49341,-0.76981 0.57959,-0.5132 0.86939,-1.19747 0.8694,-2.05283 l 0,-0.0565 c -1e-5,-0.94985 -0.30402,-1.66239 -0.91203,-2.13763 -0.60803,-0.47521 -1.45366,-0.71282 -2.53689,-0.71284 l -4.360515,0 0,5.72965 z m -8.835846,-9.69178 9.120286,0 c 2.52717,2e-5 4.46546,0.67473 5.81489,2.02412 1.14006,1.14009 1.71009,2.66029 1.71011,4.56058 l 0,0.0565 c -2e-5,1.6156 -0.39434,2.93167 -1.18298,3.94821 -0.78868,1.01657 -1.81944,1.76231 -3.09229,2.23724 l 4.87372,7.12574 -5.13032,0 -4.27527,-6.38464 -0.0574,0 -3.391515,0 0,6.38464 -4.389221,0 z"
           inkscape:connector-curvature="0" />
        <path
           id="path4312"
           style="letter-spacing:2.72558284px;word-spacing:6.81395769px"
           d="m 116.52408,372.06225 4.04737,0 9.34819,12.28478 0,-12.28478 4.33268,0 0,19.95243 -3.73336,0 -9.66307,-12.68403 0,12.68403 -4.33181,0 z"
           inkscape:connector-curvature="0" />
        <path
           id="path4314"
           style="letter-spacing:2.72558284px;word-spacing:6.81395769px"
           d="m 153.19784,383.66333 -2.65041,-6.46988 -2.65127,6.46988 z m -4.61712,-11.74286 4.04738,0 8.55054,20.09421 -4.58842,0 -1.82492,-4.47534 -8.4366,0 -1.82405,4.47534 -4.47534,0 z"
           inkscape:connector-curvature="0" />
        <path
           id="path4316"
           style="letter-spacing:2.72558284px;word-spacing:6.81395769px"
           d="m 171.60231,376.10963 -6.07149,0 0,-4.04738 16.53221,0 0,4.04738 -6.07149,0 0,15.90505 -4.38923,0 z"
           inkscape:connector-curvature="0" />
        <path
           id="path4318"
           style="letter-spacing:2.72558284px;word-spacing:6.81395769px"
           d="m 188.36366,372.06225 4.38922,0 0,19.95243 -4.38922,0 z"
           inkscape:connector-curvature="0" />
        <path
           id="path4320"
           style="letter-spacing:2.72558284px;word-spacing:6.81395769px"
           d="m 210.21271,388.30915 c 0.87389,1e-5 1.68139,-0.16149 2.42251,-0.4845 0.74109,-0.32299 1.37303,-0.76951 1.89582,-1.33955 0.52276,-0.57003 0.93129,-1.23039 1.2256,-1.98107 0.29428,-0.75066 0.44143,-1.55338 0.44145,-2.40815 l 0,-0.0574 c -2e-5,-0.85476 -0.14717,-1.66226 -0.44145,-2.42251 -0.29431,-0.76023 -0.71227,-1.42537 -1.25387,-1.99542 -0.54164,-0.57002 -1.183,-1.02132 -1.92409,-1.35391 -0.74112,-0.33255 -1.54862,-0.49884 -2.42251,-0.49885 -0.89305,1e-5 -1.70548,0.16152 -2.4373,0.4845 -0.73183,0.32302 -1.35899,0.76954 -1.88146,1.33956 -0.5225,0.57005 -0.93103,1.2304 -1.22561,1.98106 -0.29459,0.75069 -0.44189,1.55369 -0.44188,2.40903 l 0,0.0565 c -1e-5,0.85535 0.14729,1.663 0.44188,2.42294 0.29458,0.75996 0.71268,1.42495 1.25431,1.99498 0.54161,0.57004 1.17819,1.02134 1.90974,1.35391 0.73152,0.33257 1.54381,0.49886 2.43686,0.49885 z m -0.0565,4.04738 c -1.53963,0 -2.95544,-0.27081 -4.24744,-0.81244 -1.29201,-0.54162 -2.4083,-1.27315 -3.34889,-2.19461 -0.94059,-0.92144 -1.67213,-2.00454 -2.19461,-3.24929 -0.52248,-1.24473 -0.78373,-2.57951 -0.78372,-4.00431 l 0,-0.0574 c -1e-5,-1.42479 0.26602,-2.75956 0.79808,-4.00432 0.53205,-1.24473 1.26837,-2.33739 2.20896,-3.278 0.94058,-0.94057 2.06166,-1.68167 3.36324,-2.22331 1.30156,-0.5416 2.72187,-0.81241 4.26092,-0.81243 1.53903,2e-5 2.95469,0.27083 4.247,0.81243 1.29228,0.54164 2.40872,1.27317 3.34933,2.19461 0.94056,0.92147 1.6721,2.00456 2.19461,3.24929 0.52246,1.24476 0.7837,2.57982 0.78372,4.00519 l 0,0.0565 c -2e-5,1.42539 -0.26605,2.7603 -0.79808,4.00475 -0.53207,1.24445 -1.26839,2.33697 -2.20896,3.27756 -0.94061,0.94059 -2.06169,1.68169 -3.36324,2.22331 -1.30159,0.54163 -2.72189,0.81244 -4.26092,0.81244 z"
           inkscape:connector-curvature="0" />
        <path
           id="path4322"
           style="letter-spacing:2.72558284px;word-spacing:6.81395769px"
           d="m 227.40724,372.06225 4.04737,0 9.34819,12.28478 0,-12.28478 4.33268,0 0,19.95243 -3.73336,0 -9.66307,-12.68403 0,12.68403 -4.33181,0 z"
           inkscape:connector-curvature="0" />
        <path
           id="path4324"
           style="letter-spacing:2.72558284px;word-spacing:6.81395769px"
           d="m 264.08101,383.66333 -2.65041,-6.46988 -2.65128,6.46988 z m -4.61712,-11.74286 4.04737,0 8.55054,20.09421 -4.58841,0 -1.82493,-4.47534 -8.43659,0 -1.82406,4.47534 -4.47534,0 z"
           inkscape:connector-curvature="0" />
        <path
           id="path4326"
           style="letter-spacing:2.72558284px;word-spacing:6.81395769px"
           d="m 277.83965,372.06225 4.38922,0 0,15.9616 9.94751,0 0,3.99083 -14.33673,0 z"
           inkscape:connector-curvature="0" />
        <path
           id="path4328"
           style="letter-spacing:2.72558284px;word-spacing:6.81395769px"
           d="m 327.78283,383.66333 -2.6504,-6.46988 -2.65128,6.46988 z m -4.61712,-11.74286 4.04738,0 8.55054,20.09421 -4.58841,0 -1.82493,-4.47534 -8.4366,0 -1.82405,4.47534 -4.47534,0 z"
           inkscape:connector-curvature="0" />
        <path
           id="path4330"
           style="letter-spacing:2.72558284px;word-spacing:6.81395769px"
           d="m 341.74069,372.06225 4.38922,0 0,19.95243 -4.38922,0 z"
           inkscape:connector-curvature="0" />
        <path
           id="path4332"
           style="letter-spacing:2.72558284px;word-spacing:6.81395769px"
           d="m 362.67813,381.75403 c 1.08265,10e-6 1.91378,-0.25659 2.4934,-0.76981 0.57959,-0.5132 0.86939,-1.19747 0.86941,-2.05283 l 0,-0.0565 c -2e-5,-0.94985 -0.30403,-1.66239 -0.91203,-2.13763 -0.60803,-0.47521 -1.45366,-0.71282 -2.53689,-0.71284 l -4.36052,0 0,5.72965 z m -8.83585,-9.69178 9.12029,0 c 2.52716,2e-5 4.46546,0.67473 5.81489,2.02412 1.14005,1.14009 1.71009,2.66029 1.71011,4.56058 l 0,0.0565 c -2e-5,1.6156 -0.39435,2.93167 -1.18299,3.94821 -0.78867,1.01657 -1.81943,1.76231 -3.09228,2.23724 l 4.87372,7.12574 -5.13033,0 -4.27527,-6.38464 -0.0574,0 -3.39151,0 0,6.38464 -4.38922,0 z"
           inkscape:connector-curvature="0" />
        <path
           id="path4334"
           style="letter-spacing:2.72558284px;word-spacing:6.81395769px"
           d="m 385.03168,382.12458 c 1.10237,1e-5 1.95757,-0.28979 2.5656,-0.86941 0.608,-0.57959 0.91201,-1.29706 0.91203,-2.15242 l 0,-0.0565 c -2e-5,-0.98812 -0.31823,-1.7388 -0.95465,-2.25202 -0.63645,-0.51319 -1.50586,-0.76979 -2.60822,-0.76981 l -3.39152,0 0,6.1002 z m -7.86598,-10.06233 8.15129,0 c 1.19747,2e-5 2.2665,0.16631 3.20711,0.49886 0.94057,0.33259 1.73865,0.80288 2.39423,1.41088 0.65556,0.60804 1.15905,1.33493 1.51048,2.18069 0.3514,0.84579 0.52711,1.7816 0.52713,2.80742 l 0,0.0574 c -2e-5,1.15922 -0.20907,2.17577 -0.62716,3.04966 -0.41812,0.87391 -0.99294,1.60545 -1.72446,2.19461 -0.73155,0.58918 -1.5866,1.03106 -2.56516,1.32564 -0.97859,0.29459 -2.02834,0.44189 -3.14926,0.44188 l -3.33498,0 0,5.98538 -4.38922,0 z"
           inkscape:connector-curvature="0" />
        <path
           id="path4336"
           style="letter-spacing:2.72558284px;word-spacing:6.81395769px"
           d="m 408.67783,388.30915 c 0.87389,1e-5 1.68139,-0.16149 2.42251,-0.4845 0.74109,-0.32299 1.37303,-0.76951 1.89582,-1.33955 0.52275,-0.57003 0.93129,-1.23039 1.2256,-1.98107 0.29428,-0.75066 0.44143,-1.55338 0.44145,-2.40815 l 0,-0.0574 c -2e-5,-0.85476 -0.14717,-1.66226 -0.44145,-2.42251 -0.29431,-0.76023 -0.71227,-1.42537 -1.25387,-1.99542 -0.54164,-0.57002 -1.183,-1.02132 -1.92409,-1.35391 -0.74112,-0.33255 -1.54862,-0.49884 -2.42251,-0.49885 -0.89305,1e-5 -1.70548,0.16152 -2.4373,0.4845 -0.73183,0.32302 -1.35899,0.76954 -1.88147,1.33956 -0.52249,0.57005 -0.93102,1.2304 -1.2256,1.98106 -0.29459,0.75069 -0.44189,1.55369 -0.44188,2.40903 l 0,0.0565 c -1e-5,0.85535 0.14729,1.663 0.44188,2.42294 0.29458,0.75996 0.71268,1.42495 1.25431,1.99498 0.54161,0.57004 1.17819,1.02134 1.90974,1.35391 0.73152,0.33257 1.54381,0.49886 2.43686,0.49885 z m -0.0565,4.04738 c -1.53963,0 -2.95544,-0.27081 -4.24744,-0.81244 -1.29201,-0.54162 -2.40831,-1.27315 -3.34889,-2.19461 -0.94059,-0.92144 -1.67213,-2.00454 -2.19461,-3.24929 -0.52249,-1.24473 -0.78373,-2.57951 -0.78373,-4.00431 l 0,-0.0574 c 0,-1.42479 0.26603,-2.75956 0.79808,-4.00432 0.53205,-1.24473 1.26837,-2.33739 2.20897,-3.278 0.94058,-0.94057 2.06166,-1.68167 3.36324,-2.22331 1.30156,-0.5416 2.72187,-0.81241 4.26092,-0.81243 1.53902,2e-5 2.95469,0.27083 4.247,0.81243 1.29228,0.54164 2.40872,1.27317 3.34932,2.19461 0.94057,0.92147 1.67211,2.00456 2.19461,3.24929 0.52247,1.24476 0.78371,2.57982 0.78373,4.00519 l 0,0.0565 c -2e-5,1.42539 -0.26605,2.7603 -0.79808,4.00475 -0.53207,1.24445 -1.26839,2.33697 -2.20896,3.27756 -0.94061,0.94059 -2.06169,1.68169 -3.36324,2.22331 -1.30159,0.54163 -2.7219,0.81244 -4.26092,0.81244 z"
           inkscape:connector-curvature="0" />
        <path
           id="path4338"
           style="letter-spacing:2.72558284px;word-spacing:6.81395769px"
           d="m 434.70822,381.75403 c 1.08265,10e-6 1.91378,-0.25659 2.4934,-0.76981 0.57959,-0.5132 0.86939,-1.19747 0.86941,-2.05283 l 0,-0.0565 c -2e-5,-0.94985 -0.30403,-1.66239 -0.91203,-2.13763 -0.60803,-0.47521 -1.45366,-0.71282 -2.53689,-0.71284 l -4.36052,0 0,5.72965 z m -8.83585,-9.69178 9.12029,0 c 2.52716,2e-5 4.46546,0.67473 5.81489,2.02412 1.14005,1.14009 1.71009,2.66029 1.71011,4.56058 l 0,0.0565 c -2e-5,1.6156 -0.39435,2.93167 -1.18299,3.94821 -0.78867,1.01657 -1.81943,1.76231 -3.09228,2.23724 l 4.87372,7.12574 -5.13033,0 -4.27527,-6.38464 -0.0574,0 -3.39151,0 0,6.38464 -4.38922,0 z"
           inkscape:connector-curvature="0" />
        <path
           id="path4340"
           style="letter-spacing:2.72558284px;word-spacing:6.81395769px"
           d="m 453.84162,376.10963 -6.0715,0 0,-4.04738 16.53221,0 0,4.04738 -6.07149,0 0,15.90505 -4.38922,0 z"
           inkscape:connector-curvature="0" />
      </g>
    </g>
  </g>
</svg>
