<?xml version="1.0" encoding="UTF-8" standalone="no"?>
<!-- Created with Inkscape (http://www.inkscape.org/) -->

<svg
   xmlns:dc="http://purl.org/dc/elements/1.1/"
   xmlns:cc="http://creativecommons.org/ns#"
   xmlns:rdf="http://www.w3.org/1999/02/22-rdf-syntax-ns#"
   xmlns:svg="http://www.w3.org/2000/svg"
   xmlns="http://www.w3.org/2000/svg"
   xmlns:sodipodi="http://sodipodi.sourceforge.net/DTD/sodipodi-0.dtd"
   xmlns:inkscape="http://www.inkscape.org/namespaces/inkscape"
   width="640"
   height="260.00009"
   id="svg3137"
   version="1.1"
   inkscape:version="0.48.5 r10040"
   sodipodi:docname="Clark Freeport Zone Philippines.svg">
  <title
     id="title5152">Clark Freeport Zone Philippines</title>
  <defs
     id="defs3139" />
  <sodipodi:namedview
     id="base"
     pagecolor="#ffffff"
     bordercolor="#666666"
     borderopacity="1.0"
     inkscape:pageopacity="0.0"
     inkscape:pageshadow="2"
     inkscape:zoom="1.0247524"
     inkscape:cx="270.55277"
     inkscape:cy="89.717663"
     inkscape:document-units="px"
     inkscape:current-layer="layer1"
     showgrid="false"
     inkscape:snap-global="true"
     inkscape:snap-bbox="true"
     inkscape:bbox-paths="true"
     inkscape:bbox-nodes="true"
     inkscape:snap-bbox-edge-midpoints="true"
     inkscape:snap-bbox-midpoints="true"
     inkscape:object-paths="true"
     inkscape:snap-intersection-paths="true"
     inkscape:snap-smooth-nodes="true"
     inkscape:object-nodes="true"
     inkscape:snap-midpoints="true"
     inkscape:snap-object-midpoints="true"
     inkscape:snap-center="true"
     fit-margin-top="0"
     fit-margin-left="0"
     fit-margin-right="0"
     fit-margin-bottom="0"
     inkscape:window-width="1366"
     inkscape:window-height="705"
     inkscape:window-x="-8"
     inkscape:window-y="-8"
     inkscape:window-maximized="1" />
  <metadata
     id="metadata3142">
    <rdf:RDF>
      <cc:Work
         rdf:about="">
        <dc:format>image/svg+xml</dc:format>
        <dc:type
           rdf:resource="http://purl.org/dc/dcmitype/StillImage" />
        <cc:license
           rdf:resource="http://creativecommons.org/licenses/publicdomain/" />
        <dc:title>Clark Freeport Zone Philippines</dc:title>
      </cc:Work>
      <cc:License
         rdf:about="http://creativecommons.org/licenses/publicdomain/">
        <cc:permits
           rdf:resource="http://creativecommons.org/ns#Reproduction" />
        <cc:permits
           rdf:resource="http://creativecommons.org/ns#Distribution" />
        <cc:permits
           rdf:resource="http://creativecommons.org/ns#DerivativeWorks" />
      </cc:License>
    </rdf:RDF>
  </metadata>
  <g
     inkscape:label="Layer 1"
     inkscape:groupmode="layer"
     id="layer1"
     transform="translate(-4.5855692,-74.882882)">
    <path
       style="fill:#0038a8;fill-opacity:1;stroke:none"
       d="m 263.38082,74.882882 c 0,0 -266.5999667,122.974638 -215.177268,214.588968 23.480603,41.8329 128.623628,26.82152 195.571098,9.90253 74.27956,-18.77193 180.21398,-78.71586 180.21398,-78.71586 C 348.13081,281.03483 271.34468,313.68404 182.21744,328.51171 7.1707585,357.6334 -41.71861,282.6255 49.902867,190.9118 86.257655,154.52043 171.97594,99.181807 263.38082,74.882882 z"
       id="path4113"
       inkscape:connector-curvature="0"
       sodipodi:nodetypes="csscssc" />
    <path
       style="fill:#fcd116;fill-opacity:1;stroke:none"
       d="m 255.31943,99.32973 c 0,0 -102.13765,46.89889 -137.66385,87.52574 -53.325987,60.9822 -34.022434,101.06904 46.62163,99.05736 C 310.95769,282.25387 426.33412,200.36363 495.30098,117.4385 434.64295,207.43693 319.25726,281.68719 208.81136,300.33712 92.919128,319.90671 -0.00752472,288.22195 105.87354,183.23371 146.15999,143.28696 255.31943,99.32973 255.31943,99.32973 z"
       id="path4883"
       inkscape:connector-curvature="0"
       sodipodi:nodetypes="csscssc" />
    <path
       style="fill:#006c35;fill-opacity:1;stroke:none"
       d="m 263.10609,115.26125 c 0,0 -83.89598,38.65269 -112.25143,72.56074 -12.62807,15.1009 -31.22734,36.75209 -22.36259,54.20713 12.83923,25.28097 54.77912,22.80053 83.75008,22.62189 58.62574,-0.36148 153.03028,-54.20713 153.03028,-54.20713 0,0 -72.42856,55.47385 -142.94519,64.02418 -35.44258,4.2975 -108.38075,12.19732 -115.3208,-23.90238 -11.512088,-59.88191 108.2577,-117.66836 156.09965,-135.30443 z"
       id="path4885"
       inkscape:connector-curvature="0"
       sodipodi:nodetypes="caascssc" />
    <path
       style="fill:#ce1126;fill-opacity:1;stroke:none"
       d="m 199.52617,167.76108 c 0,0 -70.56937,58.21679 -34.64008,75.12169 50.04863,23.54817 124.09044,-17.92676 124.09044,-17.92676 0,0 -25.25907,22.60294 -64.78625,29.06484 -37.36107,6.1078 -73.35473,6.23353 -80.78982,-12.41855 -14.10744,-35.39073 56.12571,-73.84122 56.12571,-73.84122 z"
       id="path4887"
       inkscape:connector-curvature="0"
       sodipodi:nodetypes="cscssc" />
    <path
       style="fill:#000000;fill-opacity:1;stroke:none"
       d="m 228.88629,143.72629 c -27.81245,13.65085 -34.56144,53.41422 -1.06718,70.63896 14.31822,7.36328 43.61365,2.89774 43.61365,2.89774 l 8.76202,-17.05834 c 0,0 -13.12766,7.99103 -27.24095,8.58385 -1.27665,0.0967 -2.60566,0.2157 -3.70703,0.21869 -17.26695,0 -31.25691,-13.61812 -31.25691,-30.42614 0,-16.80804 13.98996,-30.45349 31.25691,-30.45349 6.526,0 12.59554,1.97452 17.60835,5.3034 1.53374,0.64274 2.38709,1.09347 2.38709,1.09347 l -0.44933,-13.64119 c -13.37556,-0.82815 -28.13379,-2.74576 -39.90662,2.84305 z"
       id="path4889"
       inkscape:connector-curvature="0"
       sodipodi:nodetypes="csccccsscccc" />
    <path
       style="fill:#000000;fill-opacity:1;stroke:none"
       d="m 296.40152,140.87115 c 0,0 4.49325,3.36678 4.49579,6.74863 0.0161,21.34353 0.2489,39.75799 0.46508,61.87165 0.0288,2.93814 -5.11588,6.94198 -5.11588,6.94198 l 49.76361,0 5.1159,-16.29817 c 0,0 -7.23522,5.96373 -11.62701,6.03606 -9.31159,0.15333 -24.95934,0 -24.95934,0 0,0 -0.30268,-40.04466 -0.31005,-58.2497 -9e-4,-3.10736 4.65081,-7.05045 4.65081,-7.05045 z"
       id="path4891"
       inkscape:connector-curvature="0"
       sodipodi:nodetypes="csscccscscc" />
    <path
       style="fill:#000000;fill-opacity:1;stroke:none"
       d="m 393.13828,216.43341 c 0,0 -5.5877,-4.89986 -4.65079,-7.24378 6.7289,-16.83436 23.87413,-55.8354 23.87413,-55.8354 0,0 13.99078,35.1094 22.16884,55.08087 1.16532,2.8458 -4.65081,7.99831 -4.65081,7.99831 l 25.73465,0 c 0,0 -6.49382,-3.63651 -7.75153,-6.79108 -9.25112,-23.20341 -27.28474,-69.11497 -27.28474,-69.11497 l -20.46353,-1.7e-4 c 0,0 5.69733,2.44049 4.96085,4.52718 -7.75803,21.98119 -15.74477,41.31284 -26.35456,63.98435 -1.53599,3.28216 -8.52648,7.39469 -8.52648,7.39469 z"
       id="path4893"
       inkscape:connector-curvature="0"
       sodipodi:nodetypes="cscsccsccsscc" />
    <path
       style="fill:#000000;fill-opacity:1;stroke:none"
       d="m 475.61257,140.52736 c 17.60902,-0.24067 58.44995,-4.02696 58.75517,19.16495 0.59926,16.45655 -20.61857,19.16511 -20.61857,19.16511 0,0 21.14177,23.23895 33.17574,33.35034 1.87813,1.57806 6.04607,4.22565 6.04607,4.22565 0,0 -17.84991,0.4552 -20.30853,-0.6036 -12.71122,-5.47409 -34.26093,-39.08507 -34.26093,-39.08507 0,0 19.0958,-0.913 21.23868,-13.58158 0.98909,-12.67133 -15.12796,-14.6208 -24.80431,-13.73251 0,0 0.21901,38.6903 0.31005,60.81531 0.0105,2.52563 5.58098,6.18745 5.58098,6.18745 l -26.19953,0 c 0,0 6.19491,-3.19102 6.20106,-6.03654 0.0528,-24.47564 0.21094,-44.12613 0,-64.28615 -0.0249,-2.38327 -5.11588,-5.58336 -5.11588,-5.58336 z"
       id="path4895"
       inkscape:connector-curvature="0"
       sodipodi:nodetypes="cccacscccsccssc" />
    <path
       style="fill:#000000;fill-opacity:1;stroke:none"
       d="m 570.04359,140.52736 c 0,0 5.02397,2.72495 5.04254,5.03876 0.1816,22.63177 0.13385,42.83252 -0.65773,65.7314 -0.0802,2.32131 -4.60405,5.13589 -4.60405,5.13589 l 22.80106,0 c 0,0 -3.72617,-2.98521 -3.7271,-5.13589 -0.009,-21.59177 -0.14724,-44.04097 0.21925,-65.7314 0.0341,-2.02186 3.94633,-5.03876 3.94633,-5.03876 z"
       id="path4897"
       inkscape:connector-curvature="0"
       sodipodi:nodetypes="cssccsscc" />
    <path
       style="fill:#000000;fill-opacity:1;stroke:none"
       d="m 610.1647,140.52736 24.99349,0 c 0,0 -2.98407,1.86719 -4.16559,3.33135 -7.86246,9.74332 -27.40514,30.5182 -27.40514,30.5182 0,0 19.12869,27.96753 34.6401,38.2011 1.97514,1.30309 6.35798,3.8554 6.35798,3.8554 0,0 -16.19658,0.0596 -19.07397,0 -13.03834,-7.34362 -35.95554,-39.49553 -35.95554,-39.49553 0,0 15.95135,-18.33369 23.89728,-29.23772 0.7188,-0.98639 0.44609,-2.49934 0,-3.62803 -0.58727,-1.48594 -3.28861,-3.54477 -3.28861,-3.54477 z"
       id="path4899"
       inkscape:connector-curvature="0"
       sodipodi:nodetypes="ccscscccsac" />
    <g
       style="font-size:100px;font-style:normal;font-variant:normal;font-weight:bold;font-stretch:normal;text-align:center;line-height:0%;letter-spacing:15px;word-spacing:0px;writing-mode:lr-tb;text-anchor:middle;fill:#000000;fill-opacity:1;stroke:none;font-family:Trajan Pro;-inkscape-font-specification:Trajan Pro Bold"
       id="text4901"
       transform="matrix(0.89867124,0,0,0.87478582,-20.553089,50.821304)">
      <path
         d="m 475.59725,227.22735 c -5.9e-4,-0.0962 0.0146,-0.16274 0.0455,-0.1995 0.0309,-0.0367 0.0811,-0.0542 0.1505,-0.0525 0.18804,-5.1e-4 0.56482,5.2e-4 1.13035,0.003 0.56552,0.003 1.14348,0.01 1.73391,0.0218 0.5904,0.0119 1.01696,0.0316 1.27969,0.0591 0.43048,0.0665 0.75947,0.19951 0.98698,0.399 0.22749,0.19951 0.37448,0.4025 0.441,0.60899 0.056,0.17093 0.098,0.33309 0.126,0.48649 0.028,0.15343 0.042,0.28059 0.042,0.3815 -0.001,0.10209 0.0152,0.19192 0.049,0.2695 0.0338,0.0776 0.0922,0.11842 0.175,0.1225 0.13415,-0.006 0.21582,-0.0636 0.245,-0.1715 0.0292,-0.10791 0.0408,-0.22807 0.035,-0.3605 0.001,-0.1359 0.0128,-0.43107 0.035,-0.88549 0.0221,-0.4544 0.0478,-0.84056 0.077,-1.15848 0.0461,-0.44157 0.0939,-0.8184 0.1435,-1.13049 0.0496,-0.31206 0.0764,-0.51389 0.0805,-0.60549 -10e-6,-0.16798 -0.056,-0.25198 -0.16799,-0.252 -0.0799,0.001 -0.1441,0.0268 -0.1925,0.077 -0.0484,0.0502 -0.1056,0.11785 -0.1715,0.203 -0.13943,0.17851 -0.30859,0.30451 -0.50749,0.37799 -0.19893,0.0735 -0.43109,0.11552 -0.69649,0.126 -0.19426,0.0134 -0.39376,0.0216 -0.5985,0.0245 -0.20476,0.003 -0.42525,0.004 -0.66149,0.004 l -3.58395,0.028 c -0.0817,1e-5 -0.13534,-0.021 -0.161,-0.063 -0.0257,-0.042 -0.0373,-0.10498 -0.035,-0.18899 l 0,-6.99991 c -10e-6,-0.15107 0.021,-0.2549 0.063,-0.3115 0.042,-0.0566 0.10499,-0.0834 0.189,-0.0805 l 4.31194,0.084 c 0.53023,0.0228 0.94673,0.11727 1.24949,0.2835 0.30273,0.16626 0.50223,0.35176 0.59849,0.55649 0.0805,0.20185 0.12948,0.40018 0.147,0.59499 0.0175,0.19485 0.0245,0.35118 0.021,0.469 0.0117,0.15343 0.0373,0.26659 0.077,0.33949 0.0396,0.0729 0.10731,0.1091 0.20299,0.1085 0.0957,-0.002 0.16332,-0.0396 0.203,-0.112 0.0396,-0.0723 0.0653,-0.16565 0.077,-0.27999 0.0286,-0.22398 0.0554,-0.60898 0.0805,-1.15499 0.0251,-0.54597 0.0449,-0.91697 0.0595,-1.11299 0.0461,-0.35872 0.0939,-0.63522 0.1435,-0.82949 0.0496,-0.19422 0.0764,-0.33772 0.0805,-0.43049 -10e-4,-0.0717 -0.0198,-0.13123 -0.056,-0.1785 -0.0362,-0.0472 -0.0829,-0.0717 -0.14,-0.0735 -0.0694,0.004 -0.1406,0.0245 -0.2135,0.063 -0.0729,0.0385 -0.1511,0.0735 -0.2345,0.105 -0.13709,0.0397 -0.29693,0.0654 -0.47949,0.077 -0.1826,0.0117 -0.40543,0.0233 -0.66849,0.035 -0.27431,0.009 -0.92971,0.0157 -1.9662,0.0197 -1.03652,0.004 -2.09635,0.006 -3.17951,0.007 -1.08318,8.9e-4 -1.83191,0.001 -2.2462,0.001 -0.1995,-5.6e-4 -0.4515,-0.006 -0.75599,-0.0175 -0.3045,-0.0111 -0.64049,-0.0239 -1.00798,-0.0385 -0.3675,-0.001 -0.7455,-0.006 -1.13399,-0.014 -0.3885,-0.008 -0.76649,-0.0128 -1.13399,-0.014 -0.21058,-0.002 -0.37041,0.0164 -0.47949,0.056 -0.10908,0.0397 -0.16392,0.11435 -0.1645,0.224 0.002,0.0829 0.0467,0.14118 0.133,0.17499 0.0863,0.0339 0.20066,0.0502 0.343,0.049 0.20299,3e-5 0.40599,0.007 0.60899,0.021 0.20299,0.014 0.36399,0.035 0.48299,0.063 0.45091,0.0928 0.76007,0.26427 0.92749,0.5145 0.16741,0.25026 0.25958,0.61076 0.2765,1.08148 0.0268,0.37335 0.0432,0.94268 0.049,1.70798 0.006,0.76534 0.008,2.17465 0.007,4.22795 l 0,4.92793 c 0.003,1.35099 -0.003,2.53398 -0.0175,3.54896 -0.0146,1.01499 -0.0554,1.81998 -0.1225,2.41497 -0.0478,0.41241 -0.12717,0.75657 -0.238,1.03248 -0.11084,0.27592 -0.30217,0.44508 -0.57399,0.5075 -0.126,0.0292 -0.273,0.0548 -0.441,0.077 -0.168,0.0222 -0.35699,0.0338 -0.56699,0.035 -0.15225,5.9e-4 -0.26075,0.0204 -0.32549,0.0595 -0.0648,0.0391 -0.0962,0.0939 -0.0945,0.1645 0,0.10967 0.049,0.18433 0.147,0.224 0.098,0.0397 0.24499,0.0583 0.44099,0.056 0.56816,-0.004 1.20282,-0.0175 1.90399,-0.042 0.70115,-0.0245 1.25181,-0.0385 1.65198,-0.042 0.38557,0.004 0.9654,0.0175 1.73948,0.042 0.77407,0.0245 1.61289,0.0385 2.51648,0.042 0.41529,0.005 0.62061,-0.0887 0.61596,-0.28 0.003,-0.0706 -0.0309,-0.12541 -0.1015,-0.1645 -0.0706,-0.0391 -0.19542,-0.0589 -0.37449,-0.0595 -0.20534,-0.001 -0.43867,-0.0128 -0.69999,-0.035 -0.26134,-0.0222 -0.49467,-0.0478 -0.69999,-0.077 -0.40776,-0.0624 -0.68425,-0.23158 -0.82949,-0.5075 -0.14526,-0.27591 -0.23276,-0.62007 -0.2625,-1.03248 -0.0671,-0.59499 -0.10792,-1.39998 -0.1225,-2.41497 -0.0146,-1.01498 -0.0204,-2.19797 -0.0175,-3.54896 z"
         style="font-size:28px;line-height:0%;fill:#000000;font-family:Trajan Pro;-inkscape-font-specification:Trajan Pro Bold"
         id="path5130"
         inkscape:connector-curvature="0" />
      <path
         d="m 504.45992,229.49532 c 0.003,1.30199 -0.003,2.47098 -0.0175,3.50696 -0.0146,1.03599 -0.0554,1.85498 -0.1225,2.45697 -0.0478,0.41241 -0.12717,0.75657 -0.23799,1.03248 -0.11084,0.27592 -0.30217,0.44508 -0.574,0.5075 -0.126,0.0292 -0.273,0.0548 -0.44099,0.077 -0.168,0.0222 -0.357,0.0338 -0.56699,0.035 -0.16567,5.9e-4 -0.28234,0.0204 -0.35,0.0595 -0.0677,0.0391 -0.10033,0.0939 -0.098,0.1645 0.005,0.19133 0.19133,0.28466 0.56,0.28 0.59907,-0.004 1.2419,-0.0175 1.92848,-0.042 0.68657,-0.0245 1.1824,-0.0385 1.48749,-0.042 0.25374,0.004 0.78923,0.0175 1.60648,0.042 0.81724,0.0245 1.65373,0.0385 2.50948,0.042 0.36862,0.005 0.55528,-0.0887 0.55996,-0.28 -1e-5,-0.14466 -0.11201,-0.21933 -0.33599,-0.224 -0.17793,-0.001 -0.39609,-0.0128 -0.6545,-0.035 -0.25842,-0.0222 -0.49758,-0.0478 -0.71749,-0.077 -0.40775,-0.0624 -0.68425,-0.23158 -0.82949,-0.5075 -0.14525,-0.27591 -0.23275,-0.62007 -0.26249,-1.03248 -0.0671,-0.60141 -0.10793,-1.42157 -0.1225,-2.46047 -0.0146,-1.0389 -0.0204,-2.21605 -0.0175,-3.53146 l 0,-0.39199 c 5.7e-4,-0.0828 0.0204,-0.14116 0.0595,-0.175 0.0391,-0.0338 0.0939,-0.0502 0.1645,-0.049 l 2.43597,0.056 c 0.098,-0.002 0.18898,0.009 0.27299,0.035 0.084,0.0257 0.16099,0.0793 0.231,0.161 0.20473,0.2485 0.57223,0.7525 1.10248,1.51198 0.53023,0.75949 1.08673,1.54348 1.66948,2.35197 0.77056,1.07449 1.45539,1.94948 2.05448,2.62496 0.59906,0.6755 1.19288,1.17249 1.78147,1.49099 0.34531,0.19366 0.73964,0.33132 1.18299,0.41299 0.44331,0.0817 1.04763,0.12133 1.81297,0.119 l 2.65997,0 c 0.16914,0.002 0.29981,-0.0163 0.392,-0.056 0.0921,-0.0397 0.1388,-0.11433 0.13999,-0.224 -2e-5,-0.14466 -0.11202,-0.21933 -0.33599,-0.224 -0.21936,1e-5 -0.48069,-0.028 -0.78399,-0.084 -0.21644,-0.0146 -0.5956,-0.13942 -1.13749,-0.3745 -0.54193,-0.23508 -1.20809,-0.7449 -1.99847,-1.52948 -0.82018,-0.87032 -1.72783,-1.92264 -2.72297,-3.15696 -0.99517,-1.23431 -2.11282,-2.63662 -3.35295,-4.20694 1.39121,-1.13631 2.3607,-2.20963 2.90846,-3.21996 0.54773,-1.01031 0.81022,-2.02763 0.78749,-3.05196 -0.0303,-0.94731 -0.24968,-1.75463 -0.65799,-2.42197 -0.40835,-0.66731 -0.82367,-1.13864 -1.24599,-1.41398 -0.76592,-0.50339 -1.59307,-0.83356 -2.48146,-0.99049 -0.88842,-0.1569 -1.77858,-0.22806 -2.67047,-0.2135 -0.48474,0.003 -1.13223,0.0175 -1.94246,0.042 -0.81024,0.0245 -1.47873,0.0385 -2.00547,0.042 -0.32434,-0.003 -0.85167,-0.0175 -1.58199,-0.042 -0.73033,-0.0245 -1.48165,-0.0385 -2.25397,-0.042 -0.20942,-0.002 -0.36459,0.0158 -0.4655,0.0525 -0.10092,0.0368 -0.15109,0.10328 -0.1505,0.19951 5.8e-4,0.0963 0.0414,0.16277 0.1225,0.19949 0.0811,0.0368 0.19891,0.0543 0.35349,0.0525 0.203,3e-5 0.40599,0.007 0.60899,0.021 0.203,0.014 0.364,0.035 0.483,0.063 0.4509,0.0928 0.76007,0.26427 0.92749,0.5145 0.16741,0.25026 0.25957,0.61076 0.27649,1.08148 0.0268,0.37335 0.0432,0.94268 0.049,1.70798 0.006,0.76534 0.008,2.17465 0.007,4.22795 z m 3.30396,-11.22785 c -0.002,-0.11082 0.0157,-0.19715 0.0525,-0.259 0.0367,-0.0618 0.10324,-0.10615 0.1995,-0.133 0.28465,-0.0793 0.77931,-0.11664 1.48398,-0.112 0.90122,-0.035 1.82171,0.32202 2.76146,1.07099 0.93973,0.74901 1.44722,2.09999 1.52248,4.05295 -0.0163,1.141 -0.18668,2.05098 -0.51099,2.72996 -0.32434,0.679 -0.70467,1.169 -1.14099,1.46998 -0.23334,0.17909 -0.48767,0.30393 -0.76299,0.3745 -0.27534,0.0706 -0.68367,0.10442 -1.22498,0.1015 -0.35817,5.9e-4 -0.72684,-0.0216 -1.10599,-0.0665 -0.37917,-0.0449 -0.71983,-0.11607 -1.02198,-0.2135 -0.0963,-0.0385 -0.16276,-0.0945 -0.1995,-0.168 -0.0368,-0.0735 -0.0543,-0.18548 -0.0525,-0.33599 z"
         style="font-size:28px;line-height:0%;fill:#000000;font-family:Trajan Pro;-inkscape-font-specification:Trajan Pro Bold"
         id="path5132"
         inkscape:connector-curvature="0" />
      <path
         d="m 540.62398,229.49532 c 0.003,1.30199 -0.003,2.47098 -0.0175,3.50696 -0.0146,1.03599 -0.0554,1.85498 -0.12249,2.45697 -0.0478,0.41241 -0.12717,0.75657 -0.238,1.03248 -0.11084,0.27592 -0.30217,0.44508 -0.57399,0.5075 -0.12601,0.0292 -0.273,0.0548 -0.441,0.077 -0.168,0.0222 -0.357,0.0338 -0.56699,0.035 -0.16567,5.9e-4 -0.28233,0.0204 -0.35,0.0595 -0.0677,0.0391 -0.10033,0.0939 -0.098,0.1645 0.005,0.19133 0.19132,0.28466 0.55999,0.28 0.28524,-0.002 0.59674,-0.0117 0.93449,-0.028 0.33774,-0.0163 0.67023,-0.0257 0.99748,-0.028 0.34124,-0.0134 0.65274,-0.0216 0.93449,-0.0245 0.28174,-0.003 0.50224,-0.004 0.66149,-0.004 0.41357,0 0.8534,0.007 1.31949,0.021 0.46607,0.014 0.99689,0.035 1.59248,0.063 0.59731,0.0157 1.29263,0.0333 2.08597,0.0525 0.79331,0.0192 1.71263,0.0298 2.75796,0.0315 0.51623,0.0152 0.87673,-0.0152 1.08149,-0.091 0.20473,-0.0758 0.34823,-0.28816 0.43049,-0.63699 0.0764,-0.33425 0.15457,-0.84174 0.2345,-1.52248 0.0799,-0.68074 0.12307,-1.20924 0.1295,-1.58548 0.005,-0.1435 -0.005,-0.2625 -0.028,-0.357 -0.0233,-0.0945 -0.0887,-0.14349 -0.196,-0.147 -0.0951,-0.002 -0.16393,0.0298 -0.2065,0.0945 -0.0426,0.0648 -0.0764,0.17325 -0.10149,0.3255 -0.0928,0.56758 -0.23627,1.0144 -0.4305,1.34048 -0.19426,0.32608 -0.47076,0.56991 -0.82949,0.73149 -0.38267,0.161 -0.82133,0.259 -1.31598,0.294 -0.49467,0.035 -0.93333,0.049 -1.31598,0.042 -1.386,0.0228 -2.29598,-0.12775 -2.72997,-0.4515 -0.434,-0.32374 -0.644,-0.95723 -0.62999,-1.90047 -0.0123,-0.47658 -0.0158,-1.1824 -0.0105,-2.11748 0.005,-0.93506 0.009,-1.67588 0.0105,-2.22247 l 0,-2.21197 c -0.002,-0.0851 0.009,-0.15282 0.0315,-0.203 0.0227,-0.0502 0.0682,-0.0758 0.1365,-0.077 0.4264,1e-5 1.10656,0.007 2.04047,0.021 0.93389,0.014 1.57905,0.035 1.93548,0.063 0.50981,0.0595 0.88314,0.18551 1.11998,0.378 0.23682,0.19251 0.38615,0.4305 0.448,0.71399 0.0396,0.18376 0.0653,0.36225 0.077,0.53549 0.0117,0.17326 0.0233,0.33076 0.035,0.4725 -0.002,0.0718 0.0157,0.13125 0.0525,0.17849 0.0367,0.0473 0.10324,0.0718 0.1995,0.0735 0.12073,-0.008 0.19423,-0.0688 0.2205,-0.18199 0.0262,-0.11316 0.0367,-0.22983 0.0315,-0.35 0.003,-0.12891 0.0181,-0.39607 0.0455,-0.80149 0.0274,-0.4054 0.0496,-0.76356 0.0665,-1.07449 0.0583,-0.69939 0.10965,-1.19755 0.15399,-1.49448 0.0443,-0.2969 0.0676,-0.48006 0.07,-0.54949 -10e-4,-0.0828 -0.0198,-0.14115 -0.056,-0.175 -0.0362,-0.0338 -0.0828,-0.0502 -0.13999,-0.049 -0.0677,0.001 -0.13535,0.0339 -0.203,0.098 -0.0677,0.0642 -0.14935,0.15285 -0.245,0.266 -0.12426,0.13651 -0.29576,0.23451 -0.51449,0.29399 -0.21876,0.0595 -0.49526,0.10152 -0.82949,0.126 -0.24665,0.0183 -0.68359,0.0315 -1.3108,0.0394 -0.62724,0.008 -1.25291,0.0128 -1.87701,0.0145 -0.62413,0.002 -1.05484,0.002 -1.29213,0.002 -0.0817,-5.7e-4 -0.13534,-0.0274 -0.161,-0.0805 -0.0257,-0.0531 -0.0373,-0.1289 -0.035,-0.22749 l 0,-7.08391 c -0.005,-0.19131 0.0607,-0.28465 0.196,-0.28 0.21655,3.7e-4 0.60786,0.006 1.17391,0.0166 0.56603,0.0107 1.1274,0.0246 1.68412,0.0415 0.5567,0.017 0.92934,0.0349 1.11792,0.0539 0.67839,0.084 1.14155,0.21002 1.38948,0.378 0.2479,0.16801 0.41006,0.37801 0.48649,0.62999 0.0682,0.17676 0.11374,0.36226 0.1365,0.55649 0.0227,0.19427 0.0332,0.34476 0.0315,0.45149 -0.002,0.1266 0.0157,0.22343 0.0525,0.2905 0.0367,0.0671 0.10323,0.10093 0.1995,0.1015 0.0956,-0.004 0.16331,-0.0379 0.20299,-0.1015 0.0396,-0.0636 0.0653,-0.1324 0.077,-0.2065 0.0286,-0.20648 0.0554,-0.52147 0.0805,-0.94498 0.0251,-0.42348 0.0449,-0.72448 0.0595,-0.90299 0.0461,-0.62706 0.0939,-1.06689 0.1435,-1.31949 0.0496,-0.25255 0.0764,-0.41939 0.0805,-0.50049 0.002,-0.0717 -0.009,-0.13123 -0.0315,-0.1785 -0.0228,-0.0472 -0.0683,-0.0717 -0.1365,-0.0735 -0.0712,0.003 -0.14585,0.0181 -0.224,0.0455 -0.0782,0.0274 -0.15284,0.0496 -0.22399,0.0665 -0.11493,0.028 -0.2771,0.056 -0.4865,0.084 -0.20943,0.028 -0.44859,0.056 -0.71749,0.084 -0.23732,0.009 -0.85469,0.0157 -1.85212,0.0197 -0.99746,0.004 -2.01512,0.006 -3.053,0.007 -1.0379,8.9e-4 -1.73616,0.001 -2.09479,0.001 -0.1995,-5.6e-4 -0.4515,-0.006 -0.75599,-0.0175 -0.3045,-0.0111 -0.6405,-0.0239 -1.00799,-0.0385 -0.3535,-0.001 -0.72449,-0.006 -1.11298,-0.014 -0.3885,-0.008 -0.77349,-0.0128 -1.15499,-0.014 -0.20941,-0.002 -0.36458,0.0158 -0.46549,0.0525 -0.10092,0.0368 -0.15108,0.10327 -0.1505,0.1995 5.8e-4,0.0963 0.0414,0.16277 0.1225,0.19949 0.0811,0.0368 0.19891,0.0543 0.35349,0.0525 0.203,3e-5 0.406,0.007 0.609,0.021 0.20299,0.014 0.36399,0.035 0.48299,0.063 0.45091,0.0928 0.76007,0.26427 0.92749,0.5145 0.16741,0.25026 0.25957,0.61076 0.2765,1.08148 0.0268,0.37335 0.0432,0.94268 0.049,1.70798 0.006,0.76534 0.008,2.17465 0.007,4.22795 z"
         style="font-size:28px;line-height:0%;fill:#000000;font-family:Trajan Pro;-inkscape-font-specification:Trajan Pro Bold"
         id="path5134"
         inkscape:connector-curvature="0" />
      <path
         d="m 573.34273,229.49532 c 0.003,1.30199 -0.003,2.47098 -0.0175,3.50696 -0.0146,1.03599 -0.0554,1.85498 -0.12249,2.45697 -0.0478,0.41241 -0.12717,0.75657 -0.238,1.03248 -0.11084,0.27592 -0.30217,0.44508 -0.57399,0.5075 -0.12601,0.0292 -0.273,0.0548 -0.441,0.077 -0.168,0.0222 -0.357,0.0338 -0.56699,0.035 -0.16567,5.9e-4 -0.28233,0.0204 -0.35,0.0595 -0.0677,0.0391 -0.10033,0.0939 -0.098,0.1645 0.005,0.19133 0.19132,0.28466 0.55999,0.28 0.28524,-0.002 0.59674,-0.0117 0.93449,-0.028 0.33774,-0.0163 0.67023,-0.0257 0.99748,-0.028 0.34124,-0.0134 0.65274,-0.0216 0.93449,-0.0245 0.28174,-0.003 0.50224,-0.004 0.66149,-0.004 0.41357,0 0.8534,0.007 1.31949,0.021 0.46607,0.014 0.99689,0.035 1.59248,0.063 0.59731,0.0157 1.29263,0.0333 2.08597,0.0525 0.79331,0.0192 1.71263,0.0298 2.75796,0.0315 0.51623,0.0152 0.87673,-0.0152 1.08149,-0.091 0.20473,-0.0758 0.34823,-0.28816 0.43049,-0.63699 0.0764,-0.33425 0.15457,-0.84174 0.2345,-1.52248 0.0799,-0.68074 0.12307,-1.20924 0.1295,-1.58548 0.005,-0.1435 -0.005,-0.2625 -0.028,-0.357 -0.0233,-0.0945 -0.0887,-0.14349 -0.196,-0.147 -0.0951,-0.002 -0.16393,0.0298 -0.2065,0.0945 -0.0426,0.0648 -0.0764,0.17325 -0.10149,0.3255 -0.0928,0.56758 -0.23627,1.0144 -0.4305,1.34048 -0.19426,0.32608 -0.47076,0.56991 -0.82949,0.73149 -0.38267,0.161 -0.82133,0.259 -1.31598,0.294 -0.49467,0.035 -0.93333,0.049 -1.31598,0.042 -1.386,0.0228 -2.29598,-0.12775 -2.72997,-0.4515 -0.434,-0.32374 -0.644,-0.95723 -0.62999,-1.90047 -0.0123,-0.47658 -0.0158,-1.1824 -0.0105,-2.11748 0.005,-0.93506 0.009,-1.67588 0.0105,-2.22247 l 0,-2.21197 c -0.002,-0.0851 0.009,-0.15282 0.0315,-0.203 0.0227,-0.0502 0.0682,-0.0758 0.1365,-0.077 0.4264,1e-5 1.10656,0.007 2.04047,0.021 0.93389,0.014 1.57905,0.035 1.93548,0.063 0.50981,0.0595 0.88314,0.18551 1.11998,0.378 0.23682,0.19251 0.38615,0.4305 0.448,0.71399 0.0396,0.18376 0.0653,0.36225 0.077,0.53549 0.0117,0.17326 0.0233,0.33076 0.035,0.4725 -0.002,0.0718 0.0157,0.13125 0.0525,0.17849 0.0367,0.0473 0.10324,0.0718 0.1995,0.0735 0.12073,-0.008 0.19423,-0.0688 0.2205,-0.18199 0.0262,-0.11316 0.0367,-0.22983 0.0315,-0.35 0.003,-0.12891 0.0181,-0.39607 0.0455,-0.80149 0.0274,-0.4054 0.0496,-0.76356 0.0665,-1.07449 0.0583,-0.69939 0.10965,-1.19755 0.15399,-1.49448 0.0443,-0.2969 0.0676,-0.48006 0.07,-0.54949 -10e-4,-0.0828 -0.0198,-0.14115 -0.056,-0.175 -0.0362,-0.0338 -0.0828,-0.0502 -0.13999,-0.049 -0.0677,0.001 -0.13535,0.0339 -0.203,0.098 -0.0677,0.0642 -0.14935,0.15285 -0.245,0.266 -0.12426,0.13651 -0.29576,0.23451 -0.51449,0.29399 -0.21876,0.0595 -0.49526,0.10152 -0.82949,0.126 -0.24665,0.0183 -0.68359,0.0315 -1.3108,0.0394 -0.62724,0.008 -1.25291,0.0128 -1.87701,0.0145 -0.62413,0.002 -1.05484,0.002 -1.29213,0.002 -0.0817,-5.7e-4 -0.13534,-0.0274 -0.161,-0.0805 -0.0257,-0.0531 -0.0373,-0.1289 -0.035,-0.22749 l 0,-7.08391 c -0.005,-0.19131 0.0607,-0.28465 0.196,-0.28 0.21655,3.7e-4 0.60786,0.006 1.17391,0.0166 0.56603,0.0107 1.1274,0.0246 1.68412,0.0415 0.5567,0.017 0.92934,0.0349 1.11792,0.0539 0.67839,0.084 1.14155,0.21002 1.38948,0.378 0.2479,0.16801 0.41006,0.37801 0.48649,0.62999 0.0682,0.17676 0.11374,0.36226 0.1365,0.55649 0.0227,0.19427 0.0332,0.34476 0.0315,0.45149 -0.002,0.1266 0.0157,0.22343 0.0525,0.2905 0.0367,0.0671 0.10323,0.10093 0.1995,0.1015 0.0956,-0.004 0.16331,-0.0379 0.20299,-0.1015 0.0396,-0.0636 0.0653,-0.1324 0.077,-0.2065 0.0286,-0.20648 0.0554,-0.52147 0.0805,-0.94498 0.0251,-0.42348 0.0449,-0.72448 0.0595,-0.90299 0.0461,-0.62706 0.0939,-1.06689 0.1435,-1.31949 0.0496,-0.25255 0.0764,-0.41939 0.0805,-0.50049 0.002,-0.0717 -0.009,-0.13123 -0.0315,-0.1785 -0.0228,-0.0472 -0.0683,-0.0717 -0.1365,-0.0735 -0.0712,0.003 -0.14585,0.0181 -0.224,0.0455 -0.0782,0.0274 -0.15284,0.0496 -0.22399,0.0665 -0.11493,0.028 -0.2771,0.056 -0.4865,0.084 -0.20943,0.028 -0.44859,0.056 -0.71749,0.084 -0.23732,0.009 -0.85469,0.0157 -1.85212,0.0197 -0.99746,0.004 -2.01512,0.006 -3.053,0.007 -1.0379,8.9e-4 -1.73616,0.001 -2.09479,0.001 -0.1995,-5.6e-4 -0.4515,-0.006 -0.75599,-0.0175 -0.3045,-0.0111 -0.6405,-0.0239 -1.00799,-0.0385 -0.3535,-0.001 -0.72449,-0.006 -1.11298,-0.014 -0.3885,-0.008 -0.77349,-0.0128 -1.15499,-0.014 -0.20941,-0.002 -0.36458,0.0158 -0.46549,0.0525 -0.10092,0.0368 -0.15108,0.10327 -0.1505,0.1995 5.8e-4,0.0963 0.0414,0.16277 0.1225,0.19949 0.0811,0.0368 0.19891,0.0543 0.35349,0.0525 0.203,3e-5 0.406,0.007 0.609,0.021 0.20299,0.014 0.36399,0.035 0.48299,0.063 0.45091,0.0928 0.76007,0.26427 0.92749,0.5145 0.16741,0.25026 0.25957,0.61076 0.2765,1.08148 0.0268,0.37335 0.0432,0.94268 0.049,1.70798 0.006,0.76534 0.008,2.17465 0.007,4.22795 z"
         style="font-size:28px;line-height:0%;fill:#000000;font-family:Trajan Pro;-inkscape-font-specification:Trajan Pro Bold"
         id="path5136"
         inkscape:connector-curvature="0" />
      <path
         d="m 606.06148,229.49532 c 0.003,1.30199 -0.003,2.47098 -0.0175,3.50696 -0.0146,1.03599 -0.0554,1.85498 -0.12249,2.45697 -0.0478,0.41241 -0.12717,0.75657 -0.238,1.03248 -0.11084,0.27592 -0.30217,0.44508 -0.57399,0.5075 -0.12601,0.0292 -0.273,0.0548 -0.441,0.077 -0.168,0.0222 -0.357,0.0338 -0.56699,0.035 -0.16567,5.9e-4 -0.28233,0.0204 -0.35,0.0595 -0.0677,0.0391 -0.10033,0.0939 -0.098,0.1645 0.005,0.19133 0.19132,0.28466 0.55999,0.28 0.59674,-0.004 1.24424,-0.0175 1.94248,-0.042 0.69824,-0.0245 1.22674,-0.0385 1.58549,-0.042 0.38382,0.004 0.96715,0.0175 1.74998,0.042 0.78282,0.0245 1.64614,0.0385 2.58998,0.042 0.15689,5.8e-4 0.28404,-0.0216 0.38147,-0.0665 0.0974,-0.0449 0.14756,-0.11608 0.15049,-0.2135 0.005,-0.14466 -0.14468,-0.21933 -0.44799,-0.224 -0.21876,-0.001 -0.46026,-0.0128 -0.7245,-0.035 -0.26425,-0.0222 -0.49875,-0.0478 -0.70349,-0.077 -0.40775,-0.063 -0.68425,-0.231 -0.82949,-0.504 -0.14525,-0.27299 -0.23275,-0.60899 -0.26249,-1.00798 -0.0671,-0.61541 -0.10793,-1.44257 -0.1225,-2.48147 -0.0146,-1.0389 -0.0204,-2.20905 -0.0175,-3.51046 l 0,-11.19985 c 0.005,-0.30331 0.0793,-0.48064 0.224,-0.532 0.12949,-0.0414 0.29048,-0.0706 0.48299,-0.0875 0.19249,-0.0169 0.39549,-0.0251 0.60899,-0.0245 0.33541,-0.0122 0.75657,0.0543 1.26349,0.19949 0.5069,0.14527 1.01906,0.44277 1.53648,0.89249 0.75481,0.72976 1.22613,1.48925 1.41398,2.27847 0.18782,0.78926 0.26715,1.42975 0.238,1.92148 -0.0584,1.44199 -0.48768,2.56898 -1.28799,3.38095 -0.80033,0.812 -1.62165,1.225 -2.46397,1.23899 -0.28992,-0.001 -0.49408,0.0222 -0.61249,0.07 -0.11842,0.0478 -0.17559,0.12717 -0.1715,0.23799 0.005,0.0945 0.0437,0.15751 0.1155,0.189 0.0717,0.0315 0.14524,0.0525 0.2205,0.063 0.077,0.0134 0.17499,0.0216 0.294,0.0245 0.11898,0.003 0.21698,0.004 0.29399,0.004 2.02646,-0.0338 3.67144,-0.66615 4.93494,-1.89698 1.26347,-1.2308 1.91446,-2.85711 1.95297,-4.87893 -0.0199,-0.75131 -0.17618,-1.41863 -0.46899,-2.00198 -0.29285,-0.5833 -0.60318,-1.02663 -0.93099,-1.32998 -0.19426,-0.25023 -0.68076,-0.56872 -1.45948,-0.95549 -0.77875,-0.38672 -2.02824,-0.60022 -3.74845,-0.64049 -0.66091,0.003 -1.35506,0.0175 -2.08246,0.042 -0.72741,0.0245 -1.38657,0.0385 -1.97747,0.042 -0.41825,-0.003 -1.00275,-0.0175 -1.75348,-0.042 -0.75075,-0.0245 -1.51024,-0.0385 -2.27848,-0.042 -0.20942,-0.002 -0.36459,0.0158 -0.4655,0.0525 -0.10092,0.0368 -0.15108,0.10328 -0.1505,0.19951 5.8e-4,0.0963 0.0414,0.16277 0.1225,0.19949 0.0811,0.0368 0.19891,0.0543 0.35349,0.0525 0.203,3e-5 0.406,0.007 0.609,0.021 0.20299,0.014 0.36399,0.035 0.48299,0.063 0.45091,0.0928 0.76007,0.26427 0.92749,0.5145 0.16741,0.25026 0.25957,0.61076 0.2765,1.08148 0.0268,0.37335 0.0432,0.94268 0.049,1.70798 0.006,0.76534 0.008,2.17465 0.007,4.22795 z"
         style="font-size:28px;line-height:0%;fill:#000000;font-family:Trajan Pro;-inkscape-font-specification:Trajan Pro Bold"
         id="path5138"
         inkscape:connector-curvature="0" />
      <path
         d="m 647.61369,238.00721 c 3.59444,-0.0776 6.4154,-1.1894 8.46289,-3.33545 2.04745,-2.14606 3.09044,-4.86085 3.12896,-8.1444 -0.0356,-3.24153 -1.04942,-5.78832 -3.04146,-7.6404 -1.99208,-1.85204 -4.74887,-2.79586 -8.27039,-2.83146 -2.78719,0.0469 -5.03096,0.64072 -6.73132,1.7816 -1.70038,1.14092 -2.93409,2.54781 -3.70114,4.22069 -0.76705,1.6729 -1.14419,3.33076 -1.13139,4.97356 -0.01,1.69572 0.37038,3.37846 1.13969,5.04824 0.76929,1.66978 1.98503,3.06423 3.64721,4.18335 1.66217,1.11912 3.82781,1.70054 6.49695,1.74427 z m 1.17599,-1.39998 c -2.71015,-0.0712 -4.81478,-1.08382 -6.31392,-3.03796 -1.49916,-1.95414 -2.25981,-4.42277 -2.28197,-7.4059 0.0857,-3.41536 0.83123,-5.7475 2.23647,-6.99641 1.40522,-1.24889 2.9557,-1.83804 4.65144,-1.76748 2.35079,0.0315 4.29209,0.94151 5.82392,2.72996 1.5318,1.7885 2.32512,4.26646 2.37997,7.43391 -0.0439,2.65911 -0.46011,4.63947 -1.24857,5.94111 -0.78851,1.30164 -1.68588,2.15372 -2.69212,2.55626 -1.00627,0.40254 -1.85801,0.58471 -2.55522,0.54651 z"
         style="font-size:28px;line-height:0%;fill:#000000;font-family:Trajan Pro;-inkscape-font-specification:Trajan Pro Bold"
         id="path5140"
         inkscape:connector-curvature="0" />
      <path
         d="m 680.35836,229.49532 c 0.003,1.30199 -0.003,2.47098 -0.0175,3.50696 -0.0146,1.03599 -0.0554,1.85498 -0.1225,2.45697 -0.0478,0.41241 -0.12717,0.75657 -0.238,1.03248 -0.11083,0.27592 -0.30216,0.44508 -0.57399,0.5075 -0.126,0.0292 -0.273,0.0548 -0.44099,0.077 -0.168,0.0222 -0.357,0.0338 -0.567,0.035 -0.16566,5.9e-4 -0.28233,0.0204 -0.34999,0.0595 -0.0677,0.0391 -0.10034,0.0939 -0.098,0.1645 0.005,0.19133 0.19133,0.28466 0.55999,0.28 0.59908,-0.004 1.24191,-0.0175 1.92849,-0.042 0.68657,-0.0245 1.1824,-0.0385 1.48749,-0.042 0.25374,0.004 0.78923,0.0175 1.60648,0.042 0.81723,0.0245 1.65372,0.0385 2.50947,0.042 0.36863,0.005 0.55529,-0.0887 0.55997,-0.28 -10e-6,-0.14466 -0.11201,-0.21933 -0.336,-0.224 -0.17792,-0.001 -0.39609,-0.0128 -0.65449,-0.035 -0.25842,-0.0222 -0.49758,-0.0478 -0.71749,-0.077 -0.40775,-0.0624 -0.68425,-0.23158 -0.82949,-0.5075 -0.14525,-0.27591 -0.23275,-0.62007 -0.2625,-1.03248 -0.0671,-0.60141 -0.10792,-1.42157 -0.12249,-2.46047 -0.0146,-1.0389 -0.0204,-2.21605 -0.0175,-3.53146 l 0,-0.39199 c 5.7e-4,-0.0828 0.0204,-0.14116 0.0595,-0.175 0.0391,-0.0338 0.0939,-0.0502 0.16449,-0.049 l 2.43597,0.056 c 0.098,-0.002 0.18899,0.009 0.273,0.035 0.084,0.0257 0.16099,0.0793 0.231,0.161 0.20473,0.2485 0.57223,0.7525 1.10248,1.51198 0.53023,0.75949 1.08672,1.54348 1.66948,2.35197 0.77056,1.07449 1.45538,1.94948 2.05447,2.62496 0.59906,0.6755 1.19289,1.17249 1.78148,1.49099 0.34531,0.19366 0.73964,0.33132 1.18299,0.41299 0.4433,0.0817 1.04763,0.12133 1.81297,0.119 l 2.65997,0 c 0.16914,0.002 0.2998,-0.0163 0.39199,-0.056 0.0921,-0.0397 0.13881,-0.11433 0.14,-0.224 -2e-5,-0.14466 -0.11202,-0.21933 -0.33599,-0.224 -0.21936,1e-5 -0.48069,-0.028 -0.78399,-0.084 -0.21644,-0.0146 -0.5956,-0.13942 -1.13749,-0.3745 -0.54193,-0.23508 -1.20809,-0.7449 -1.99847,-1.52948 -0.82018,-0.87032 -1.72783,-1.92264 -2.72297,-3.15696 -0.99517,-1.23431 -2.11282,-2.63662 -3.35296,-4.20694 1.39122,-1.13631 2.36071,-2.20963 2.90847,-3.21996 0.54772,-1.01031 0.81022,-2.02763 0.78749,-3.05196 -0.0303,-0.94731 -0.24968,-1.75463 -0.658,-2.42197 -0.40834,-0.66731 -0.82367,-1.13864 -1.24598,-1.41398 -0.76592,-0.50339 -1.59308,-0.83356 -2.48147,-0.99049 -0.88841,-0.1569 -1.77857,-0.22806 -2.67046,-0.2135 -0.48474,0.003 -1.13223,0.0175 -1.94246,0.042 -0.81024,0.0245 -1.47874,0.0385 -2.00547,0.042 -0.32434,-0.003 -0.85167,-0.0175 -1.58199,-0.042 -0.73033,-0.0245 -1.48165,-0.0385 -2.25398,-0.042 -0.20942,-0.002 -0.36458,0.0158 -0.4655,0.0525 -0.10091,0.0368 -0.15108,0.10328 -0.15049,0.19951 5.8e-4,0.0963 0.0414,0.16277 0.12249,0.19949 0.0811,0.0368 0.19892,0.0543 0.3535,0.0525 0.20299,3e-5 0.40599,0.007 0.60899,0.021 0.203,0.014 0.36399,0.035 0.483,0.063 0.4509,0.0928 0.76006,0.26427 0.92748,0.5145 0.16741,0.25026 0.25958,0.61076 0.2765,1.08148 0.0268,0.37335 0.0432,0.94268 0.049,1.70798 0.006,0.76534 0.008,2.17465 0.007,4.22795 z m 3.30396,-11.22785 c -0.002,-0.11082 0.0157,-0.19715 0.0525,-0.259 0.0367,-0.0618 0.10324,-0.10615 0.19949,-0.133 0.28466,-0.0793 0.77932,-0.11664 1.48398,-0.112 0.90123,-0.035 1.82172,0.32202 2.76147,1.07099 0.93972,0.74901 1.44722,2.09999 1.52248,4.05295 -0.0163,1.141 -0.18668,2.05098 -0.51099,2.72996 -0.32435,0.679 -0.70467,1.169 -1.14099,1.46998 -0.23334,0.17909 -0.48767,0.30393 -0.76299,0.3745 -0.27534,0.0706 -0.68367,0.10442 -1.22498,0.1015 -0.35818,5.9e-4 -0.72684,-0.0216 -1.10599,-0.0665 -0.37917,-0.0449 -0.71983,-0.11607 -1.02199,-0.2135 -0.0963,-0.0385 -0.16275,-0.0945 -0.19949,-0.168 -0.0368,-0.0735 -0.0543,-0.18548 -0.0525,-0.33599 z"
         style="font-size:28px;line-height:0%;fill:#000000;font-family:Trajan Pro;-inkscape-font-specification:Trajan Pro Bold"
         id="path5142"
         inkscape:connector-curvature="0" />
      <path
         d="m 720.24637,229.49532 c 0.003,1.30199 -0.003,2.47098 -0.0175,3.50696 -0.0146,1.03599 -0.0554,1.85498 -0.12249,2.45697 -0.0356,0.41241 -0.11143,0.75657 -0.2275,1.03248 -0.11609,0.27592 -0.31092,0.44508 -0.58449,0.5075 -0.12601,0.0292 -0.27301,0.0548 -0.441,0.077 -0.168,0.0222 -0.357,0.0338 -0.56699,0.035 -0.16567,5.9e-4 -0.28234,0.0204 -0.35,0.0595 -0.0677,0.0391 -0.10033,0.0939 -0.098,0.1645 0.005,0.19133 0.19133,0.28466 0.56,0.28 0.59674,-0.004 1.24424,-0.0175 1.94249,-0.042 0.69824,-0.0245 1.22673,-0.0385 1.58549,-0.042 0.41065,0.004 1.01031,0.0175 1.79898,0.042 0.78865,0.0245 1.6543,0.0385 2.59698,0.042 0.15688,5.8e-4 0.28403,-0.0216 0.38146,-0.0665 0.0974,-0.0449 0.14756,-0.11608 0.15049,-0.2135 0.005,-0.14466 -0.14468,-0.21933 -0.448,-0.224 -0.21876,-0.001 -0.46025,-0.0128 -0.72449,-0.035 -0.26426,-0.0222 -0.49875,-0.0478 -0.70349,-0.077 -0.40775,-0.063 -0.68425,-0.231 -0.82949,-0.504 -0.14526,-0.27299 -0.23276,-0.60899 -0.26249,-1.00798 -0.0671,-0.61541 -0.10793,-1.44257 -0.1225,-2.48147 -0.0146,-1.0389 -0.0204,-2.20905 -0.0175,-3.51046 l 0,-11.47985 3.52795,0.084 c 1.22439,0.0444 2.07954,0.22168 2.56547,0.53199 0.48589,0.31035 0.73206,0.65568 0.73849,1.03599 l 0.028,0.308 c 0.0111,0.20709 0.0379,0.35292 0.0805,0.43749 0.0426,0.0846 0.1184,0.12543 0.2275,0.1225 0.0822,-0.001 0.14173,-0.0408 0.17849,-0.119 0.0367,-0.0781 0.0612,-0.18781 0.0735,-0.329 0.003,-0.41706 0.0175,-0.97588 0.042,-1.67647 0.0245,-0.70056 0.0385,-1.22439 0.042,-1.57148 0.003,-0.20823 -0.01,-0.35873 -0.0385,-0.4515 -0.0286,-0.0927 -0.0904,-0.13823 -0.18549,-0.1365 -0.0543,6.1e-4 -0.14177,0.0134 -0.2625,0.0385 -0.12077,0.0251 -0.28527,0.0589 -0.4935,0.1015 -0.20826,0.0304 -0.47076,0.0607 -0.78749,0.091 -0.31676,0.0303 -0.69825,0.0467 -1.14448,0.049 l -11.08786,0 c -0.47016,-5.6e-4 -0.95082,-0.0134 -1.44198,-0.0385 -0.49116,-0.0251 -0.94382,-0.0589 -1.35798,-0.1015 -0.34242,-0.0385 -0.60258,-0.10148 -0.78049,-0.189 -0.17792,-0.0875 -0.31908,-0.13647 -0.4235,-0.14699 -0.0822,-5.7e-4 -0.14874,0.0426 -0.19949,0.12949 -0.0507,0.0869 -0.0962,0.22111 -0.1365,0.4025 -0.0249,0.10199 -0.084,0.38026 -0.17733,0.8348 -0.0933,0.45458 -0.18356,0.92159 -0.27067,1.40102 -0.0871,0.47947 -0.13377,0.80752 -0.13999,0.98414 -0.002,0.15343 0.0157,0.26659 0.0525,0.33949 0.0367,0.0729 0.10324,0.1091 0.19949,0.1085 0.0828,2e-5 0.14817,-0.028 0.196,-0.084 0.0478,-0.056 0.0852,-0.13998 0.112,-0.25199 0.0268,-0.11257 0.0782,-0.2514 0.154,-0.4165 0.0758,-0.16506 0.18316,-0.35289 0.32199,-0.56349 0.19541,-0.29981 0.49758,-0.50514 0.90649,-0.61599 0.40891,-0.11082 1.01207,-0.17615 1.80948,-0.196 l 4.17194,-0.112 z"
         style="font-size:28px;line-height:0%;fill:#000000;font-family:Trajan Pro;-inkscape-font-specification:Trajan Pro Bold"
         id="path5144"
         inkscape:connector-curvature="0" />
    </g>
    <g
       style="font-size:20px;font-style:normal;font-variant:normal;font-weight:normal;font-stretch:normal;text-align:center;line-height:0%;letter-spacing:12.5px;word-spacing:0px;writing-mode:lr-tb;text-anchor:middle;fill:#000000;fill-opacity:1;stroke:none;font-family:Swiss 721;-inkscape-font-specification:'Swiss 721,'"
       id="text4905"
       transform="matrix(0.89867124,0,0,0.87478582,-22.607125,42.8213)">
      <path
         d="m 471.3344,268.3855 c 0.002,0.92999 -0.002,1.76498 -0.0125,2.50497 -0.0104,0.73999 -0.0396,1.32498 -0.0875,1.75498 -0.0342,0.29458 -0.0908,0.54041 -0.17,0.73749 -0.0792,0.19708 -0.21583,0.31791 -0.40999,0.36249 -0.09,0.0208 -0.195,0.0392 -0.315,0.055 -0.12,0.0158 -0.25499,0.0242 -0.40499,0.025 -0.11833,4.2e-4 -0.20167,0.0146 -0.25,0.0425 -0.0483,0.0279 -0.0717,0.0671 -0.07,0.1175 0.003,0.13666 0.13667,0.20333 0.4,0.2 0.42624,-0.002 0.88874,-0.0125 1.38749,-0.03 0.49874,-0.0175 0.87624,-0.0275 1.13249,-0.03 0.27416,0.002 0.69082,0.0125 1.24999,0.03 0.55915,0.0175 1.17581,0.0275 1.84998,0.03 0.11206,4.1e-4 0.20289,-0.0154 0.27247,-0.0475 0.0696,-0.0321 0.10541,-0.0829 0.1075,-0.1525 0.003,-0.10333 -0.10334,-0.15667 -0.32,-0.16 -0.15625,-8.3e-4 -0.32875,-0.009 -0.51749,-0.025 -0.18875,-0.0158 -0.35625,-0.0342 -0.50249,-0.055 -0.29125,-0.045 -0.48875,-0.16499 -0.59249,-0.35999 -0.10376,-0.195 -0.16626,-0.435 -0.1875,-0.71999 -0.0479,-0.43958 -0.0771,-1.03041 -0.0875,-1.77248 -0.0104,-0.74207 -0.0146,-1.57789 -0.0125,-2.50747 l 0,-7.9999 c 0.003,-0.21665 0.0567,-0.34331 0.16,-0.37999 0.0925,-0.0296 0.20749,-0.0504 0.34499,-0.0625 0.13749,-0.0121 0.28249,-0.0179 0.435,-0.0175 0.23957,-0.009 0.5404,0.0388 0.90249,0.1425 0.36207,0.10376 0.72789,0.31626 1.09748,0.63749 0.53915,0.52126 0.87581,1.06375 1.00999,1.62748 0.13415,0.56375 0.19082,1.02125 0.17,1.37248 -0.0417,1.03 -0.34834,1.83499 -0.91999,2.41497 -0.57167,0.58 -1.15833,0.875 -1.75998,0.88499 -0.20709,-8.3e-4 -0.35292,0.0158 -0.43749,0.05 -0.0846,0.0342 -0.12543,0.0908 -0.1225,0.17 0.004,0.0675 0.0312,0.1125 0.0825,0.13499 0.0512,0.0225 0.10374,0.0375 0.1575,0.045 0.055,0.01 0.12499,0.0154 0.20999,0.0175 0.085,0.002 0.15499,0.003 0.21,0.002 1.44747,-0.0242 2.62246,-0.47582 3.52495,-1.35498 0.90248,-0.87915 1.36747,-2.0408 1.39499,-3.48495 -0.0142,-0.53665 -0.12585,-1.01331 -0.335,-1.42999 -0.20918,-0.41664 -0.43084,-0.73331 -0.66499,-0.94998 -0.13876,-0.17874 -0.48626,-0.40623 -1.04249,-0.6825 -0.55625,-0.27623 -1.44874,-0.42872 -2.67746,-0.45749 -0.47208,0.002 -0.9679,0.0125 -1.48747,0.03 -0.51958,0.0175 -0.99041,0.0275 -1.41248,0.03 -0.29875,-0.002 -0.71625,-0.0125 -1.25249,-0.03 -0.53625,-0.0175 -1.07874,-0.0275 -1.62748,-0.03 -0.14959,-10e-4 -0.26042,0.0113 -0.3325,0.0375 -0.0721,0.0263 -0.10792,0.0738 -0.1075,0.1425 4.1e-4,0.0688 0.0296,0.11626 0.0875,0.1425 0.0579,0.0263 0.14208,0.0388 0.25249,0.0375 0.145,1e-5 0.29,0.005 0.435,0.015 0.14499,0.01 0.25999,0.025 0.34499,0.045 0.32208,0.0663 0.54291,0.18876 0.66249,0.36749 0.11958,0.17876 0.18542,0.43626 0.1975,0.77249 0.0192,0.26668 0.0308,0.67334 0.035,1.21999 0.004,0.54667 0.006,1.55332 0.005,3.01996 z"
         style="font-weight:bold;line-height:0%;fill:#000000;font-family:Trajan Pro;-inkscape-font-specification:Trajan Pro Bold"
         id="path5107"
         inkscape:connector-curvature="0" />
      <path
         d="m 499.5403,265.42554 c -0.0312,4.2e-4 -0.0587,-0.0104 -0.0825,-0.0325 -0.0238,-0.0221 -0.0363,-0.0579 -0.0375,-0.1075 l 0,-0.41999 c -8.4e-4,-1.46664 8.2e-4,-2.47329 0.005,-3.01996 0.004,-0.54665 0.0158,-0.95331 0.035,-1.21999 0.0146,-0.34748 0.0754,-0.61248 0.18249,-0.79499 0.10708,-0.18248 0.29291,-0.29748 0.5575,-0.34499 0.11915,-0.02 0.22582,-0.035 0.31999,-0.045 0.0942,-0.01 0.18083,-0.015 0.26,-0.015 0.11999,0.001 0.20999,-0.0112 0.27,-0.0375 0.06,-0.0262 0.09,-0.0737 0.09,-0.1425 0,-0.0687 -0.035,-0.11623 -0.10499,-0.1425 -0.07,-0.0262 -0.17501,-0.0387 -0.315,-0.0375 -0.41624,0.002 -0.87373,0.0125 -1.37247,0.03 -0.49875,0.0175 -0.88124,0.0275 -1.14749,0.03 -0.28875,-0.002 -0.70124,-0.0125 -1.23748,-0.03 -0.53625,-0.0175 -1.08374,-0.0275 -1.64249,-0.03 -0.14,-0.001 -0.245,0.0113 -0.315,0.0375 -0.07,0.0263 -0.105,0.0738 -0.105,0.1425 4.2e-4,0.0688 0.0296,0.11626 0.0875,0.1425 0.0579,0.0263 0.14208,0.0388 0.2525,0.0375 0.145,1e-5 0.28999,0.005 0.43499,0.015 0.145,0.01 0.26,0.025 0.345,0.045 0.32208,0.0663 0.54291,0.18876 0.66249,0.36749 0.11958,0.17876 0.18541,0.43626 0.1975,0.77249 0.0192,0.26668 0.0308,0.67334 0.035,1.21999 0.004,0.54667 0.006,1.55332 0.005,3.01996 l 0,3.51995 c 0.002,0.92999 -0.002,1.76498 -0.0125,2.50497 -0.0104,0.73999 -0.0396,1.32498 -0.0875,1.75498 -0.0342,0.29458 -0.0908,0.54041 -0.17,0.73749 -0.0792,0.19708 -0.21583,0.31791 -0.40999,0.36249 -0.09,0.0208 -0.195,0.0392 -0.315,0.055 -0.12,0.0158 -0.255,0.0242 -0.40499,0.025 -0.11834,4.2e-4 -0.20167,0.0146 -0.25,0.0425 -0.0483,0.0279 -0.0717,0.0671 -0.07,0.1175 0.003,0.13666 0.13666,0.20333 0.4,0.2 0.42624,-0.002 0.88874,-0.0125 1.38749,-0.03 0.49874,-0.0175 0.87623,-0.0275 1.13249,-0.03 0.29374,0.002 0.72123,0.0125 1.28248,0.03 0.56124,0.0175 1.17373,0.0275 1.83748,0.03 0.12165,4.1e-4 0.21831,-0.0154 0.28998,-0.0475 0.0717,-0.0321 0.10832,-0.0829 0.11,-0.1525 0.003,-0.10333 -0.10334,-0.15667 -0.32,-0.16 -0.15625,-8.3e-4 -0.32875,-0.009 -0.51749,-0.025 -0.18876,-0.0158 -0.35625,-0.0342 -0.50249,-0.055 -0.29126,-0.045 -0.48876,-0.16499 -0.5925,-0.35999 -0.10375,-0.195 -0.16625,-0.435 -0.18749,-0.71999 -0.0479,-0.43958 -0.0771,-1.03041 -0.0875,-1.77248 -0.0104,-0.74207 -0.0146,-1.57789 -0.0125,-2.50747 l 0,-1.75998 c 0.001,-0.0487 0.0137,-0.0812 0.0375,-0.0975 0.0237,-0.0162 0.0512,-0.0237 0.0825,-0.0225 l 7.63991,0 c 0.0312,0 0.0587,0.01 0.0825,0.03 0.0237,0.02 0.0362,0.05 0.0375,0.09 l 0,1.75998 c 0.002,0.92999 -0.002,1.76498 -0.0125,2.50497 -0.0104,0.73999 -0.0396,1.32498 -0.0875,1.75498 -0.0342,0.29458 -0.0909,0.54041 -0.17,0.73749 -0.0792,0.19708 -0.21585,0.31791 -0.41,0.36249 -0.09,0.0208 -0.19501,0.0392 -0.31499,0.055 -0.12001,0.0158 -0.25501,0.0242 -0.405,0.025 -0.11834,4.2e-4 -0.20167,0.0146 -0.24999,0.0425 -0.0484,0.0279 -0.0717,0.0671 -0.07,0.1175 -1e-5,0.13666 0.13998,0.20333 0.41999,0.2 0.41667,-0.002 0.87334,-0.0125 1.37002,-0.03 0.49665,-0.0175 0.87331,-0.0275 1.12999,-0.03 0.29373,0.002 0.72123,0.0125 1.28249,0.03 0.56122,0.0175 1.17372,0.0275 1.83748,0.03 0.12162,4.1e-4 0.21827,-0.0154 0.28995,-0.0475 0.0716,-0.0321 0.10831,-0.0829 0.10999,-0.1525 0.003,-0.10333 -0.10335,-0.15667 -0.31999,-0.16 -0.15627,-8.3e-4 -0.32877,-0.009 -0.5175,-0.025 -0.18876,-0.0158 -0.35626,-0.0342 -0.50249,-0.055 -0.29126,-0.045 -0.48876,-0.16499 -0.59249,-0.35999 -0.10377,-0.195 -0.16626,-0.435 -0.1875,-0.71999 -0.0479,-0.43958 -0.0771,-1.03041 -0.0875,-1.77248 -0.0104,-0.74207 -0.0146,-1.57789 -0.0125,-2.50747 l 0,-3.51995 c -8.5e-4,-1.46664 8.2e-4,-2.47329 0.005,-3.01996 0.004,-0.54665 0.0158,-0.95331 0.035,-1.21999 0.0146,-0.34748 0.0754,-0.61248 0.1825,-0.79499 0.10707,-0.18248 0.2929,-0.29748 0.55749,-0.34499 0.11915,-0.02 0.22582,-0.035 0.32,-0.045 0.0941,-0.01 0.18081,-0.015 0.26,-0.015 0.11998,0.001 0.20997,-0.0112 0.26999,-0.0375 0.06,-0.0262 0.09,-0.0737 0.09,-0.1425 -2e-5,-0.0687 -0.035,-0.11623 -0.105,-0.1425 -0.07,-0.0262 -0.17501,-0.0387 -0.31499,-0.0375 -0.41624,0.002 -0.87373,0.0125 -1.37245,0.03 -0.49875,0.0175 -0.88125,0.0275 -1.14748,0.03 -0.28876,-0.002 -0.70126,-0.0125 -1.23749,-0.03 -0.53626,-0.0175 -1.08375,-0.0275 -1.64248,-0.03 -0.14003,-0.001 -0.24504,0.0113 -0.31503,0.0375 -0.07,0.0263 -0.10501,0.0738 -0.105,0.1425 4.1e-4,0.0688 0.0296,0.11626 0.0875,0.1425 0.0579,0.0263 0.14207,0.0388 0.2525,0.0375 0.14498,1e-5 0.28998,0.005 0.43499,0.015 0.14499,0.01 0.25998,0.025 0.345,0.045 0.32206,0.0663 0.54289,0.18876 0.66249,0.36749 0.11957,0.17876 0.1854,0.43626 0.1975,0.77249 0.0192,0.26668 0.0308,0.67334 0.035,1.21999 0.004,0.54667 0.006,1.55332 0.005,3.01996 l 0,0.41999 c -0.001,0.0496 -0.0138,0.0854 -0.0375,0.1075 -0.0238,0.0221 -0.0513,0.0329 -0.0825,0.0325 z"
         style="font-weight:bold;line-height:0%;fill:#000000;font-family:Trajan Pro;-inkscape-font-specification:Trajan Pro Bold"
         id="path5109"
         inkscape:connector-curvature="0" />
      <path
         d="m 528.87346,268.3855 c 0.002,0.97791 -0.002,1.84206 -0.0125,2.59247 -0.0104,0.75041 -0.0396,1.33957 -0.0875,1.76748 -0.0254,0.29041 -0.0796,0.51957 -0.16249,0.68749 -0.0829,0.16791 -0.22209,0.27208 -0.4175,0.31249 -0.09,0.0208 -0.195,0.0392 -0.31499,0.055 -0.12,0.0158 -0.255,0.0242 -0.405,0.025 -0.11833,4.2e-4 -0.20166,0.0146 -0.25,0.0425 -0.0483,0.0279 -0.0717,0.0671 -0.07,0.1175 0.003,0.13666 0.13666,0.20333 0.39999,0.2 0.42625,-0.002 0.88874,-0.0125 1.38749,-0.03 0.49874,-0.0175 0.87624,-0.0275 1.13249,-0.03 0.28374,0.002 0.70624,0.0125 1.26749,0.03 0.56124,0.0175 1.17873,0.0275 1.85248,0.03 0.11206,4.1e-4 0.20289,-0.0154 0.27248,-0.0475 0.0696,-0.0321 0.1054,-0.0829 0.10749,-0.1525 0.003,-0.10333 -0.10334,-0.15667 -0.31999,-0.16 -0.15626,-8.3e-4 -0.32876,-0.009 -0.5175,-0.025 -0.18875,-0.0158 -0.35625,-0.0342 -0.50249,-0.055 -0.29209,-0.0421 -0.49292,-0.14791 -0.60249,-0.31749 -0.10959,-0.16958 -0.17542,-0.39041 -0.1975,-0.6625 -0.0383,-0.43749 -0.0617,-1.03248 -0.07,-1.78497 -0.008,-0.75249 -0.0117,-1.61748 -0.01,-2.59497 l 0,-3.51995 c -8.4e-4,-1.46664 8.3e-4,-2.47329 0.005,-3.01996 0.004,-0.54665 0.0158,-0.95331 0.035,-1.21999 0.0146,-0.34748 0.0754,-0.61248 0.1825,-0.79499 0.10707,-0.18248 0.29291,-0.29748 0.55749,-0.34499 0.11749,-0.02 0.22249,-0.035 0.315,-0.045 0.0925,-0.01 0.18749,-0.015 0.28499,-0.015 0.10083,0.002 0.17916,-0.0117 0.235,-0.04 0.0558,-0.0283 0.0842,-0.0817 0.085,-0.16 -10e-4,-0.0591 -0.0388,-0.10082 -0.1125,-0.125 -0.0738,-0.0242 -0.17625,-0.0358 -0.30749,-0.035 -0.40291,0.002 -0.84207,0.0125 -1.31747,0.03 -0.47542,0.0175 -0.84958,0.0275 -1.12249,0.03 -0.31459,-0.002 -0.72541,-0.0125 -1.23249,-0.03 -0.50708,-0.0175 -0.96291,-0.0275 -1.36748,-0.03 -0.16001,-8e-4 -0.28001,0.0109 -0.36001,0.035 -0.08,0.0242 -0.12,0.0659 -0.11999,0.125 8.3e-4,0.0784 0.0292,0.13168 0.085,0.16 0.0558,0.0283 0.13416,0.0417 0.23499,0.04 0.12125,-4.1e-4 0.24375,0.005 0.3675,0.0175 0.12374,0.0121 0.24124,0.0329 0.35249,0.0625 0.21833,0.0479 0.38166,0.16209 0.49,0.34249 0.10833,0.18043 0.17166,0.43959 0.18999,0.77749 0.0192,0.26668 0.0308,0.67334 0.035,1.21999 0.004,0.54667 0.006,1.55332 0.005,3.01996 z"
         style="font-weight:bold;line-height:0%;fill:#000000;font-family:Trajan Pro;-inkscape-font-specification:Trajan Pro Bold"
         id="path5111"
         inkscape:connector-curvature="0" />
      <path
         d="m 552.89687,264.86555 c -8.4e-4,-1.46664 8.3e-4,-2.47329 0.005,-3.01996 0.004,-0.54665 0.0158,-0.95331 0.035,-1.21999 0.0146,-0.34748 0.0754,-0.61248 0.1825,-0.79499 0.10707,-0.18248 0.2929,-0.29748 0.55749,-0.34499 0.12374,-0.02 0.25624,-0.035 0.39749,-0.045 0.14125,-0.01 0.26874,-0.015 0.3825,-0.015 0.11999,0.001 0.20999,-0.0112 0.27,-0.0375 0.06,-0.0262 0.09,-0.0737 0.09,-0.1425 0,-0.0687 -0.035,-0.11623 -0.10499,-0.1425 -0.07,-0.0262 -0.17501,-0.0387 -0.315,-0.0375 -0.42458,0.002 -0.9154,0.0125 -1.47247,0.03 -0.55708,0.0175 -0.97291,0.0275 -1.24748,0.03 -0.29167,-0.002 -0.69833,-0.0125 -1.21999,-0.03 -0.52167,-0.0175 -1.02833,-0.0275 -1.51999,-0.03 -0.14958,-0.001 -0.26041,0.0113 -0.3325,0.0375 -0.0721,0.0263 -0.10791,0.0738 -0.10749,0.1425 4.1e-4,0.0688 0.0296,0.11626 0.0875,0.1425 0.0579,0.0263 0.14208,0.0388 0.2525,0.0375 0.13125,1e-5 0.25375,0.005 0.3675,0.015 0.11374,0.01 0.21124,0.025 0.29249,0.045 0.32208,0.0663 0.54291,0.18876 0.66249,0.36749 0.11958,0.17876 0.18542,0.43626 0.1975,0.77249 0.0192,0.26668 0.0308,0.67334 0.035,1.21999 0.004,0.54667 0.006,1.55332 0.005,3.01996 l 0,3.51995 c 0.002,0.92999 -0.002,1.76498 -0.0125,2.50497 -0.0104,0.73999 -0.0396,1.32498 -0.0875,1.75498 -0.0342,0.29458 -0.0908,0.54041 -0.17,0.73749 -0.0792,0.19708 -0.21583,0.31791 -0.40999,0.36249 -0.09,0.0208 -0.195,0.0392 -0.315,0.055 -0.12,0.0158 -0.25499,0.0242 -0.40499,0.025 -0.11833,4.2e-4 -0.20167,0.0146 -0.25,0.0425 -0.0483,0.0279 -0.0717,0.0671 -0.07,0.1175 0.003,0.13666 0.13667,0.20333 0.4,0.2 0.20374,-0.002 0.42624,-0.008 0.66749,-0.02 0.24124,-0.0117 0.47874,-0.0183 0.71249,-0.02 0.24374,-0.01 0.46624,-0.0154 0.66749,-0.0175 0.20124,-0.002 0.35874,-0.003 0.4725,-0.002 0.40415,0 0.80081,0.005 1.18998,0.015 0.38916,0.01 0.80582,0.025 1.24998,0.045 0.44457,0.0113 0.9404,0.0238 1.48748,0.0375 0.54707,0.0137 1.1779,0.0212 1.89248,0.0225 0.49998,0.005 0.82498,-0.03 0.97499,-0.105 0.14998,-0.075 0.24498,-0.22 0.28499,-0.435 0.0825,-0.33583 0.15249,-0.76415 0.21,-1.28498 0.0575,-0.52083 0.0875,-0.85915 0.09,-1.01499 0.002,-0.11916 -0.007,-0.20583 -0.0275,-0.25999 -0.0204,-0.0542 -0.0646,-0.0808 -0.1325,-0.08 -0.0779,0.001 -0.13209,0.0288 -0.1625,0.0825 -0.0304,0.0538 -0.0496,0.12625 -0.0575,0.21749 -0.0242,0.2 -0.0859,0.415 -0.185,0.64499 -0.0992,0.23 -0.21084,0.415 -0.335,0.555 -0.25001,0.25958 -0.57,0.42041 -0.95999,0.48249 -0.39,0.0621 -0.84999,0.0879 -1.37998,0.0775 -0.76208,4.2e-4 -1.31791,-0.0354 -1.66748,-0.1075 -0.34958,-0.0721 -0.60041,-0.18291 -0.75249,-0.33249 -0.20125,-0.17667 -0.32375,-0.61833 -0.36749,-1.32499 -0.0438,-0.70665 -0.0613,-1.6983 -0.0525,-2.97496 z"
         style="font-weight:bold;line-height:0%;fill:#000000;font-family:Trajan Pro;-inkscape-font-specification:Trajan Pro Bold"
         id="path5113"
         inkscape:connector-curvature="0" />
      <path
         d="m 575.00628,268.3855 c 0.002,0.97791 -0.002,1.84206 -0.0125,2.59247 -0.0104,0.75041 -0.0396,1.33957 -0.0875,1.76748 -0.0254,0.29041 -0.0796,0.51957 -0.1625,0.68749 -0.0829,0.16791 -0.22208,0.27208 -0.4175,0.31249 -0.09,0.0208 -0.195,0.0392 -0.31499,0.055 -0.12,0.0158 -0.255,0.0242 -0.405,0.025 -0.11833,4.2e-4 -0.20166,0.0146 -0.24999,0.0425 -0.0483,0.0279 -0.0717,0.0671 -0.07,0.1175 0.003,0.13666 0.13666,0.20333 0.39999,0.2 0.42625,-0.002 0.88875,-0.0125 1.38749,-0.03 0.49874,-0.0175 0.87624,-0.0275 1.13249,-0.03 0.28374,0.002 0.70624,0.0125 1.26749,0.03 0.56124,0.0175 1.17873,0.0275 1.85248,0.03 0.11207,4.1e-4 0.20289,-0.0154 0.27248,-0.0475 0.0696,-0.0321 0.1054,-0.0829 0.1075,-0.1525 0.003,-0.10333 -0.10334,-0.15667 -0.32,-0.16 -0.15626,-8.3e-4 -0.32875,-0.009 -0.51749,-0.025 -0.18876,-0.0158 -0.35626,-0.0342 -0.5025,-0.055 -0.29208,-0.0421 -0.49291,-0.14791 -0.60249,-0.31749 -0.10959,-0.16958 -0.17542,-0.39041 -0.1975,-0.6625 -0.0383,-0.43749 -0.0617,-1.03248 -0.07,-1.78497 -0.008,-0.75249 -0.0117,-1.61748 -0.01,-2.59497 l 0,-3.51995 c -8.3e-4,-1.46664 8.3e-4,-2.47329 0.005,-3.01996 0.004,-0.54665 0.0158,-0.95331 0.035,-1.21999 0.0146,-0.34748 0.0754,-0.61248 0.1825,-0.79499 0.10708,-0.18248 0.29291,-0.29748 0.55749,-0.34499 0.1175,-0.02 0.22249,-0.035 0.315,-0.045 0.0925,-0.01 0.18749,-0.015 0.285,-0.015 0.10082,0.002 0.17915,-0.0117 0.23499,-0.04 0.0558,-0.0283 0.0842,-0.0817 0.085,-0.16 -0.001,-0.0591 -0.0388,-0.10082 -0.1125,-0.125 -0.0738,-0.0242 -0.17625,-0.0358 -0.30749,-0.035 -0.40291,0.002 -0.84207,0.0125 -1.31747,0.03 -0.47542,0.0175 -0.84958,0.0275 -1.12249,0.03 -0.31458,-0.002 -0.72541,-0.0125 -1.23249,-0.03 -0.50708,-0.0175 -0.96291,-0.0275 -1.36748,-0.03 -0.16,-8e-4 -0.28001,0.0109 -0.36,0.035 -0.08,0.0242 -0.12,0.0659 -0.12,0.125 8.3e-4,0.0784 0.0292,0.13168 0.085,0.16 0.0558,0.0283 0.13416,0.0417 0.23499,0.04 0.12125,-4.1e-4 0.24375,0.005 0.3675,0.0175 0.12375,0.0121 0.24124,0.0329 0.3525,0.0625 0.21832,0.0479 0.38165,0.16209 0.48999,0.34249 0.10833,0.18043 0.17166,0.43959 0.19,0.77749 0.0192,0.26668 0.0308,0.67334 0.035,1.21999 0.004,0.54667 0.006,1.55332 0.005,3.01996 z"
         style="font-weight:bold;line-height:0%;fill:#000000;font-family:Trajan Pro;-inkscape-font-specification:Trajan Pro Bold"
         id="path5115"
         inkscape:connector-curvature="0" />
      <path
         d="m 596.52971,268.3855 c 0.002,0.92999 -0.002,1.76498 -0.0125,2.50497 -0.0104,0.73999 -0.0396,1.32498 -0.0875,1.75498 -0.0342,0.29458 -0.0908,0.54041 -0.16999,0.73749 -0.0792,0.19708 -0.21584,0.31791 -0.41,0.36249 -0.09,0.0208 -0.195,0.0392 -0.31499,0.055 -0.12,0.0158 -0.255,0.0242 -0.405,0.025 -0.11833,4.2e-4 -0.20166,0.0146 -0.25,0.0425 -0.0483,0.0279 -0.0717,0.0671 -0.07,0.1175 0.003,0.13666 0.13666,0.20333 0.39999,0.2 0.42625,-0.002 0.88874,-0.0125 1.38749,-0.03 0.49874,-0.0175 0.87624,-0.0275 1.13249,-0.03 0.27416,0.002 0.69082,0.0125 1.24999,0.03 0.55915,0.0175 1.17581,0.0275 1.84998,0.03 0.11206,4.1e-4 0.20289,-0.0154 0.27248,-0.0475 0.0696,-0.0321 0.1054,-0.0829 0.10749,-0.1525 0.003,-0.10333 -0.10334,-0.15667 -0.31999,-0.16 -0.15626,-8.3e-4 -0.32876,-0.009 -0.5175,-0.025 -0.18875,-0.0158 -0.35625,-0.0342 -0.50249,-0.055 -0.29125,-0.045 -0.48875,-0.16499 -0.59249,-0.35999 -0.10376,-0.195 -0.16626,-0.435 -0.1875,-0.71999 -0.0479,-0.43958 -0.0771,-1.03041 -0.0875,-1.77248 -0.0104,-0.74207 -0.0146,-1.57789 -0.0125,-2.50747 l 0,-7.9999 c 0.003,-0.21665 0.0567,-0.34331 0.16,-0.37999 0.0925,-0.0296 0.20749,-0.0504 0.345,-0.0625 0.13749,-0.0121 0.28249,-0.0179 0.43499,-0.0175 0.23957,-0.009 0.5404,0.0388 0.90249,0.1425 0.36207,0.10376 0.7279,0.31626 1.09748,0.63749 0.53915,0.52126 0.87582,1.06375 1.00999,1.62748 0.13416,0.56375 0.19082,1.02125 0.17,1.37248 -0.0417,1.03 -0.34834,1.83499 -0.91999,2.41497 -0.57167,0.58 -1.15833,0.875 -1.75998,0.88499 -0.20708,-8.3e-4 -0.35292,0.0158 -0.43749,0.05 -0.0846,0.0342 -0.12542,0.0908 -0.1225,0.17 0.004,0.0675 0.0312,0.1125 0.0825,0.13499 0.0512,0.0225 0.10374,0.0375 0.1575,0.045 0.055,0.01 0.12499,0.0154 0.20999,0.0175 0.085,0.002 0.155,0.003 0.21,0.002 1.44747,-0.0242 2.62246,-0.47582 3.52496,-1.35498 0.90247,-0.87915 1.36747,-2.0408 1.39498,-3.48495 -0.0142,-0.53665 -0.12584,-1.01331 -0.335,-1.42999 -0.20917,-0.41664 -0.43084,-0.73331 -0.66499,-0.94998 -0.13876,-0.17874 -0.48625,-0.40623 -1.04249,-0.6825 -0.55625,-0.27623 -1.44874,-0.42872 -2.67746,-0.45749 -0.47208,0.002 -0.9679,0.0125 -1.48747,0.03 -0.51958,0.0175 -0.99041,0.0275 -1.41248,0.03 -0.29875,-0.002 -0.71625,-0.0125 -1.25249,-0.03 -0.53625,-0.0175 -1.07874,-0.0275 -1.62748,-0.03 -0.14959,-10e-4 -0.26042,0.0113 -0.3325,0.0375 -0.0721,0.0263 -0.10792,0.0738 -0.1075,0.1425 4.1e-4,0.0688 0.0296,0.11626 0.0875,0.1425 0.0579,0.0263 0.14208,0.0388 0.2525,0.0375 0.14499,1e-5 0.28999,0.005 0.43499,0.015 0.145,0.01 0.25999,0.025 0.345,0.045 0.32207,0.0663 0.5429,0.18876 0.66249,0.36749 0.11958,0.17876 0.18541,0.43626 0.19749,0.77249 0.0192,0.26668 0.0308,0.67334 0.035,1.21999 0.004,0.54667 0.006,1.55332 0.005,3.01996 z"
         style="font-weight:bold;line-height:0%;fill:#000000;font-family:Trajan Pro;-inkscape-font-specification:Trajan Pro Bold"
         id="path5117"
         inkscape:connector-curvature="0" />
      <path
         d="m 622.11565,268.3855 c 0.002,0.92999 -0.002,1.76498 -0.0125,2.50497 -0.0104,0.73999 -0.0396,1.32498 -0.0875,1.75498 -0.0342,0.29458 -0.0908,0.54041 -0.17,0.73749 -0.0792,0.19708 -0.21583,0.31791 -0.40999,0.36249 -0.09,0.0208 -0.195,0.0392 -0.315,0.055 -0.12,0.0158 -0.25499,0.0242 -0.40499,0.025 -0.11833,4.2e-4 -0.20167,0.0146 -0.25,0.0425 -0.0483,0.0279 -0.0717,0.0671 -0.07,0.1175 0.003,0.13666 0.13667,0.20333 0.4,0.2 0.42624,-0.002 0.88874,-0.0125 1.38749,-0.03 0.49874,-0.0175 0.87624,-0.0275 1.13249,-0.03 0.27416,0.002 0.69082,0.0125 1.24999,0.03 0.55915,0.0175 1.17581,0.0275 1.84998,0.03 0.11206,4.1e-4 0.20289,-0.0154 0.27247,-0.0475 0.0696,-0.0321 0.10541,-0.0829 0.1075,-0.1525 0.003,-0.10333 -0.10334,-0.15667 -0.32,-0.16 -0.15625,-8.3e-4 -0.32875,-0.009 -0.51749,-0.025 -0.18875,-0.0158 -0.35625,-0.0342 -0.50249,-0.055 -0.29125,-0.045 -0.48875,-0.16499 -0.59249,-0.35999 -0.10376,-0.195 -0.16626,-0.435 -0.1875,-0.71999 -0.0479,-0.43958 -0.0771,-1.03041 -0.0875,-1.77248 -0.0104,-0.74207 -0.0146,-1.57789 -0.0125,-2.50747 l 0,-7.9999 c 0.003,-0.21665 0.0567,-0.34331 0.16,-0.37999 0.0925,-0.0296 0.20749,-0.0504 0.34499,-0.0625 0.13749,-0.0121 0.28249,-0.0179 0.435,-0.0175 0.23957,-0.009 0.5404,0.0388 0.90249,0.1425 0.36207,0.10376 0.72789,0.31626 1.09748,0.63749 0.53915,0.52126 0.87581,1.06375 1.00999,1.62748 0.13415,0.56375 0.19082,1.02125 0.17,1.37248 -0.0417,1.03 -0.34834,1.83499 -0.91999,2.41497 -0.57167,0.58 -1.15833,0.875 -1.75998,0.88499 -0.20709,-8.3e-4 -0.35292,0.0158 -0.43749,0.05 -0.0846,0.0342 -0.12543,0.0908 -0.1225,0.17 0.004,0.0675 0.0312,0.1125 0.0825,0.13499 0.0512,0.0225 0.10374,0.0375 0.1575,0.045 0.055,0.01 0.12499,0.0154 0.20999,0.0175 0.085,0.002 0.15499,0.003 0.21,0.002 1.44747,-0.0242 2.62246,-0.47582 3.52495,-1.35498 0.90248,-0.87915 1.36747,-2.0408 1.39499,-3.48495 -0.0142,-0.53665 -0.12585,-1.01331 -0.335,-1.42999 -0.20918,-0.41664 -0.43084,-0.73331 -0.66499,-0.94998 -0.13876,-0.17874 -0.48626,-0.40623 -1.04249,-0.6825 -0.55625,-0.27623 -1.44874,-0.42872 -2.67746,-0.45749 -0.47208,0.002 -0.9679,0.0125 -1.48747,0.03 -0.51958,0.0175 -0.99041,0.0275 -1.41248,0.03 -0.29875,-0.002 -0.71625,-0.0125 -1.25249,-0.03 -0.53625,-0.0175 -1.07874,-0.0275 -1.62748,-0.03 -0.14959,-10e-4 -0.26042,0.0113 -0.3325,0.0375 -0.0721,0.0263 -0.10792,0.0738 -0.1075,0.1425 4.1e-4,0.0688 0.0296,0.11626 0.0875,0.1425 0.0579,0.0263 0.14208,0.0388 0.25249,0.0375 0.145,1e-5 0.29,0.005 0.435,0.015 0.14499,0.01 0.25999,0.025 0.34499,0.045 0.32208,0.0663 0.54291,0.18876 0.66249,0.36749 0.11958,0.17876 0.18542,0.43626 0.1975,0.77249 0.0192,0.26668 0.0308,0.67334 0.035,1.21999 0.004,0.54667 0.006,1.55332 0.005,3.01996 z"
         style="font-weight:bold;line-height:0%;fill:#000000;font-family:Trajan Pro;-inkscape-font-specification:Trajan Pro Bold"
         id="path5119"
         inkscape:connector-curvature="0" />
      <path
         d="m 647.70159,268.3855 c 0.002,0.97791 -0.002,1.84206 -0.0125,2.59247 -0.0104,0.75041 -0.0396,1.33957 -0.0875,1.76748 -0.0254,0.29041 -0.0796,0.51957 -0.1625,0.68749 -0.0829,0.16791 -0.22208,0.27208 -0.41749,0.31249 -0.09,0.0208 -0.195,0.0392 -0.315,0.055 -0.12,0.0158 -0.255,0.0242 -0.40499,0.025 -0.11834,4.2e-4 -0.20167,0.0146 -0.25,0.0425 -0.0483,0.0279 -0.0717,0.0671 -0.07,0.1175 0.003,0.13666 0.13666,0.20333 0.4,0.2 0.42624,-0.002 0.88874,-0.0125 1.38749,-0.03 0.49874,-0.0175 0.87623,-0.0275 1.13249,-0.03 0.28374,0.002 0.70623,0.0125 1.26748,0.03 0.56124,0.0175 1.17873,0.0275 1.85248,0.03 0.11207,4.1e-4 0.20289,-0.0154 0.27248,-0.0475 0.0696,-0.0321 0.10541,-0.0829 0.1075,-0.1525 0.003,-0.10333 -0.10334,-0.15667 -0.32,-0.16 -0.15625,-8.3e-4 -0.32875,-0.009 -0.51749,-0.025 -0.18876,-0.0158 -0.35625,-0.0342 -0.50249,-0.055 -0.29209,-0.0421 -0.49292,-0.14791 -0.6025,-0.31749 -0.10958,-0.16958 -0.17542,-0.39041 -0.19749,-0.6625 -0.0383,-0.43749 -0.0617,-1.03248 -0.07,-1.78497 -0.008,-0.75249 -0.0117,-1.61748 -0.01,-2.59497 l 0,-3.51995 c -8.4e-4,-1.46664 8.2e-4,-2.47329 0.005,-3.01996 0.004,-0.54665 0.0158,-0.95331 0.035,-1.21999 0.0146,-0.34748 0.0754,-0.61248 0.18249,-0.79499 0.10708,-0.18248 0.29291,-0.29748 0.5575,-0.34499 0.11749,-0.02 0.22249,-0.035 0.31499,-0.045 0.0925,-0.01 0.18749,-0.015 0.285,-0.015 0.10082,0.002 0.17916,-0.0117 0.235,-0.04 0.0558,-0.0283 0.0841,-0.0817 0.085,-0.16 -10e-4,-0.0591 -0.0388,-0.10082 -0.11249,-0.125 -0.0738,-0.0242 -0.17626,-0.0358 -0.3075,-0.035 -0.40291,0.002 -0.84207,0.0125 -1.31747,0.03 -0.47541,0.0175 -0.84958,0.0275 -1.12249,0.03 -0.31458,-0.002 -0.72541,-0.0125 -1.23248,-0.03 -0.50708,-0.0175 -0.96291,-0.0275 -1.36749,-0.03 -0.16,-8e-4 -0.28,0.0109 -0.36,0.035 -0.08,0.0242 -0.12,0.0659 -0.12,0.125 8.3e-4,0.0784 0.0292,0.13168 0.085,0.16 0.0558,0.0283 0.13416,0.0417 0.235,0.04 0.12124,-4.1e-4 0.24374,0.005 0.36749,0.0175 0.12375,0.0121 0.24125,0.0329 0.3525,0.0625 0.21833,0.0479 0.38166,0.16209 0.48999,0.34249 0.10833,0.18043 0.17166,0.43959 0.19,0.77749 0.0192,0.26668 0.0308,0.67334 0.035,1.21999 0.004,0.54667 0.006,1.55332 0.005,3.01996 z"
         style="font-weight:bold;line-height:0%;fill:#000000;font-family:Trajan Pro;-inkscape-font-specification:Trajan Pro Bold"
         id="path5121"
         inkscape:connector-curvature="0" />
      <path
         d="m 670.12501,263.12557 0.06,0 c 0.21958,0.23876 0.78541,0.84625 1.69748,1.82248 0.91207,0.97624 1.93289,2.02873 3.06246,3.15745 1.07706,1.07125 2.16288,2.15873 3.25746,3.26246 1.09456,1.10374 1.97538,1.97623 2.64247,2.61747 0.11081,0.11458 0.22415,0.21541 0.33999,0.3025 0.11582,0.0871 0.22915,0.13291 0.34,0.13749 0.0896,0.002 0.1554,-0.0467 0.1975,-0.145 0.0421,-0.0983 0.0629,-0.25666 0.0625,-0.47499 l 0.22,-12.61984 c 0.005,-0.55081 0.0604,-0.95414 0.1675,-1.20998 0.10706,-0.25582 0.2979,-0.41915 0.57249,-0.48999 0.11748,-0.0287 0.22248,-0.0462 0.315,-0.0525 0.0925,-0.006 0.18748,-0.009 0.28499,-0.007 0.23998,10e-6 0.35998,-0.06 0.36,-0.18 -0.003,-0.0775 -0.0471,-0.12748 -0.1325,-0.15 -0.0854,-0.0225 -0.1946,-0.0325 -0.32749,-0.03 -0.49666,0.002 -0.91831,0.0125 -1.26495,0.03 -0.34667,0.0175 -0.57834,0.0275 -0.69499,0.03 -0.21959,-0.002 -0.54542,-0.0125 -0.97749,-0.03 -0.43209,-0.0175 -0.91292,-0.0275 -1.44248,-0.03 -0.15295,-0.002 -0.27712,0.008 -0.37253,0.03 -0.0954,0.0225 -0.1446,0.0725 -0.1475,0.15 -0.002,0.06 0.0217,0.10501 0.07,0.135 0.0483,0.03 0.13165,0.045 0.24999,0.045 0.14791,-0.002 0.32207,0.003 0.5225,0.015 0.2004,0.0125 0.37956,0.0475 0.53749,0.10499 0.23707,0.0863 0.4079,0.25877 0.51249,0.5175 0.10457,0.25876 0.1604,0.68625 0.1675,1.28248 l 0.2,8.97989 -0.1,0 c -0.13618,-0.13185 -0.46606,-0.47259 -0.98962,-1.02221 -0.52358,-0.54962 -1.10382,-1.15702 -1.74071,-1.8222 -0.63692,-0.66517 -1.19346,-1.23702 -1.66961,-1.71554 -0.99136,-0.98664 -1.94196,-1.94663 -2.85182,-2.87996 -0.90987,-0.93331 -1.67085,-1.71996 -2.28293,-2.35997 -0.6121,-0.63998 -0.96715,-1.0133 -1.06517,-1.11998 -0.16584,-0.18332 -0.30417,-0.33165 -0.415,-0.445 -0.11083,-0.11331 -0.21916,-0.17165 -0.32499,-0.175 -0.0983,0.003 -0.16667,0.0667 -0.205,0.19 -0.0383,0.12335 -0.0567,0.28668 -0.055,0.49 l -0.18,11.77984 c -0.002,0.85458 -0.0429,1.4654 -0.1225,1.83248 -0.0796,0.36708 -0.24541,0.58291 -0.49749,0.64749 -0.14375,0.0392 -0.29625,0.0658 -0.45749,0.08 -0.16125,0.0142 -0.30875,0.0208 -0.4425,0.02 -0.10083,-8.3e-4 -0.17916,0.0108 -0.235,0.035 -0.0558,0.0242 -0.0842,0.0658 -0.085,0.125 0.002,0.0871 0.0429,0.14291 0.12249,0.1675 0.0796,0.0246 0.18542,0.0354 0.3175,0.0325 0.53375,-0.002 1.00124,-0.0125 1.40249,-0.03 0.40124,-0.0175 0.65374,-0.0275 0.75749,-0.03 0.18833,0.002 0.48666,0.0125 0.89499,0.03 0.40833,0.0175 0.93666,0.0275 1.58499,0.03 0.14165,0.002 0.25331,-0.0117 0.33498,-0.04 0.0817,-0.0283 0.12332,-0.0817 0.12499,-0.16 -4.2e-4,-0.0592 -0.0296,-0.10083 -0.0875,-0.125 -0.0579,-0.0242 -0.14209,-0.0358 -0.2525,-0.035 -0.16209,0.002 -0.33292,-0.007 -0.51249,-0.025 -0.17959,-0.0183 -0.35542,-0.0567 -0.5275,-0.115 -0.20167,-0.0562 -0.36333,-0.24874 -0.48499,-0.57749 -0.12167,-0.32874 -0.19334,-0.87624 -0.215,-1.64248 z"
         style="font-weight:bold;line-height:0%;fill:#000000;font-family:Trajan Pro;-inkscape-font-specification:Trajan Pro Bold"
         id="path5123"
         inkscape:connector-curvature="0" />
      <path
         d="m 700.67034,268.3855 c 0.002,0.92999 -0.002,1.76498 -0.0125,2.50497 -0.0104,0.73999 -0.0396,1.32498 -0.0875,1.75498 -0.0342,0.29458 -0.0908,0.54041 -0.17,0.73749 -0.0792,0.19708 -0.21583,0.31791 -0.40999,0.36249 -0.09,0.0208 -0.195,0.0392 -0.315,0.055 -0.12,0.0158 -0.255,0.0242 -0.40499,0.025 -0.11834,4.2e-4 -0.20167,0.0146 -0.25,0.0425 -0.0483,0.0279 -0.0717,0.0671 -0.07,0.1175 0.003,0.13666 0.13666,0.20333 0.4,0.2 0.20374,-0.002 0.42624,-0.008 0.66749,-0.02 0.24124,-0.0117 0.47874,-0.0183 0.71249,-0.02 0.24374,-0.01 0.46624,-0.0154 0.66749,-0.0175 0.20124,-0.002 0.35874,-0.003 0.47249,-0.002 0.29541,0 0.60957,0.005 0.94249,0.015 0.33291,0.01 0.71207,0.025 1.13749,0.045 0.42665,0.0113 0.92331,0.0238 1.48998,0.0375 0.56665,0.0137 1.22331,0.0212 1.96997,0.0225 0.36874,0.0108 0.62623,-0.0108 0.77249,-0.065 0.14624,-0.0542 0.24874,-0.20583 0.3075,-0.455 0.0546,-0.23874 0.1104,-0.60124 0.1675,-1.08748 0.0571,-0.48625 0.0879,-0.86374 0.0925,-1.13249 0.003,-0.1025 -0.003,-0.18749 -0.02,-0.255 -0.0167,-0.0675 -0.0633,-0.10249 -0.13999,-0.10499 -0.0679,-10e-4 -0.1171,0.0213 -0.1475,0.0675 -0.0304,0.0463 -0.0546,0.12376 -0.0725,0.2325 -0.0663,0.40542 -0.16876,0.72458 -0.3075,0.95749 -0.13876,0.23291 -0.33625,0.40708 -0.59249,0.52249 -0.27334,0.115 -0.58667,0.185 -0.93999,0.21 -0.35333,0.025 -0.66666,0.035 -0.93998,0.03 -0.99,0.0163 -1.63999,-0.0913 -1.94998,-0.3225 -0.31,-0.23124 -0.46,-0.68374 -0.44999,-1.35748 -0.009,-0.34041 -0.0113,-0.84457 -0.007,-1.51248 0.004,-0.6679 0.006,-1.19706 0.007,-1.58748 l 0,-1.57998 c -0.001,-0.0608 0.006,-0.10916 0.0225,-0.145 0.0162,-0.0358 0.0487,-0.0542 0.0975,-0.055 0.30458,1e-5 0.7904,0.005 1.45749,0.015 0.66706,0.01 1.12789,0.025 1.38248,0.045 0.36415,0.0425 0.63081,0.13251 0.79999,0.27 0.16915,0.1375 0.27582,0.3075 0.31999,0.50999 0.0283,0.13126 0.0467,0.25876 0.055,0.3825 0.008,0.12375 0.0167,0.23625 0.025,0.33749 -10e-4,0.0513 0.0112,0.0938 0.0375,0.1275 0.0262,0.0338 0.0737,0.0513 0.1425,0.0525 0.0862,-0.006 0.13874,-0.0492 0.1575,-0.13 0.0187,-0.0808 0.0262,-0.16416 0.0225,-0.24999 0.002,-0.0921 0.0129,-0.28291 0.0325,-0.5725 0.0196,-0.28957 0.0354,-0.5454 0.0475,-0.76749 0.0417,-0.49957 0.0783,-0.85539 0.11,-1.06748 0.0317,-0.21207 0.0483,-0.34291 0.05,-0.3925 -8.4e-4,-0.0592 -0.0142,-0.10082 -0.04,-0.125 -0.0258,-0.0242 -0.0592,-0.0358 -0.1,-0.035 -0.0484,8.5e-4 -0.0967,0.0242 -0.145,0.07 -0.0483,0.0459 -0.10668,0.10918 -0.175,0.19 -0.0888,0.0975 -0.21126,0.16751 -0.36749,0.21 -0.15626,0.0425 -0.35376,0.0725 -0.5925,0.09 -0.17618,0.0131 -0.48827,0.0225 -0.93628,0.0281 -0.44803,0.006 -0.89494,0.009 -1.34072,0.0104 -0.44581,10e-4 -0.75346,0.002 -0.92296,10e-4 -0.0583,-4.1e-4 -0.0967,-0.0196 -0.11499,-0.0575 -0.0183,-0.0379 -0.0267,-0.0921 -0.025,-0.1625 l 0,-5.05994 c -0.003,-0.13665 0.0433,-0.20331 0.13999,-0.19999 0.15469,2.6e-4 0.43419,0.004 0.83851,0.0118 0.40431,0.008 0.80529,0.0175 1.20295,0.0296 0.39764,0.0121 0.66381,0.025 0.79851,0.0385 0.48457,0.06 0.81539,0.15001 0.99248,0.26999 0.17708,0.12001 0.29291,0.27001 0.3475,0.45 0.0487,0.12626 0.0812,0.25876 0.0975,0.39749 0.0162,0.13876 0.0237,0.24626 0.0225,0.3225 -10e-4,0.0904 0.0112,0.15959 0.0375,0.20749 0.0262,0.0479 0.0737,0.0721 0.1425,0.0725 0.0683,-0.003 0.11665,-0.0271 0.14499,-0.0725 0.0283,-0.0454 0.0467,-0.0946 0.055,-0.1475 0.0204,-0.14749 0.0396,-0.37249 0.0575,-0.67499 0.0179,-0.30249 0.0321,-0.51748 0.0425,-0.645 0.0329,-0.44789 0.0671,-0.76205 0.1025,-0.94248 0.0354,-0.1804 0.0546,-0.29957 0.0575,-0.3575 10e-4,-0.0512 -0.006,-0.0937 -0.0225,-0.1275 -0.0163,-0.0337 -0.0488,-0.0512 -0.0975,-0.0525 -0.0508,0.002 -0.10417,0.0129 -0.16,0.0325 -0.0558,0.0196 -0.10917,0.0354 -0.15999,0.0475 -0.0821,0.02 -0.19793,0.04 -0.3475,0.06 -0.14959,0.02 -0.32042,0.04 -0.51249,0.06 -0.16952,0.007 -0.6105,0.0113 -1.32295,0.0141 -0.71247,0.003 -1.43937,0.005 -2.18071,0.005 -0.74136,6.3e-4 -1.24011,8.8e-4 -1.49628,7.4e-4 -0.1425,-4e-4 -0.3225,-0.005 -0.53999,-0.0125 -0.2175,-0.008 -0.4575,-0.0171 -0.71999,-0.0275 -0.2525,-8.2e-4 -0.5175,-0.004 -0.79499,-0.01 -0.2775,-0.006 -0.5525,-0.009 -0.82499,-0.01 -0.14958,-10e-4 -0.26042,0.0113 -0.3325,0.0375 -0.0721,0.0263 -0.10791,0.0738 -0.1075,0.1425 4.2e-4,0.0688 0.0296,0.11626 0.0875,0.1425 0.0579,0.0263 0.14208,0.0388 0.2525,0.0375 0.145,10e-6 0.28999,0.005 0.43499,0.015 0.145,0.01 0.26,0.025 0.345,0.045 0.32208,0.0663 0.54291,0.18876 0.66249,0.36749 0.11958,0.17876 0.18541,0.43626 0.1975,0.77249 0.0192,0.26668 0.0308,0.67334 0.035,1.21999 0.004,0.54667 0.006,1.55332 0.005,3.01996 z"
         style="font-weight:bold;line-height:0%;fill:#000000;font-family:Trajan Pro;-inkscape-font-specification:Trajan Pro Bold"
         id="path5125"
         inkscape:connector-curvature="0" />
      <path
         d="m 727.64657,274.46542 c 0.53373,0.006 1.07123,-0.0508 1.61247,-0.17 0.54124,-0.11916 1.06373,-0.33582 1.56748,-0.64999 0.70832,-0.48374 1.20165,-1.03623 1.47999,-1.65748 0.27831,-0.62123 0.41165,-1.22873 0.39999,-1.82247 0.0146,-0.92999 -0.22959,-1.78997 -0.73249,-2.57997 -0.50292,-0.78998 -1.35207,-1.62997 -2.54747,-2.51997 l -0.55999,-0.41999 c -0.81458,-0.61373 -1.3754,-1.13623 -1.68248,-1.56748 -0.30708,-0.43123 -0.45291,-0.86873 -0.43749,-1.31248 0.007,-0.61082 0.21832,-1.10414 0.63499,-1.47998 0.41665,-0.37582 0.99831,-0.56915 1.74498,-0.58 0.64081,0.0171 1.12914,0.13293 1.46498,0.3475 0.33582,0.21459 0.57415,0.42542 0.71499,0.63249 0.2054,0.27126 0.34457,0.53376 0.41749,0.78749 0.0729,0.25376 0.10708,0.43126 0.1025,0.53249 -0.003,0.24001 0.0633,0.36001 0.2,0.36 0.0791,0.003 0.13582,-0.0425 0.17,-0.135 0.0341,-0.0925 0.0508,-0.24748 0.05,-0.46499 0.003,-0.76623 0.0167,-1.32872 0.04,-1.68748 0.0233,-0.35873 0.0367,-0.59623 0.04,-0.71249 -4.2e-4,-0.0687 -0.0246,-0.12124 -0.0725,-0.1575 -0.0479,-0.0362 -0.1171,-0.0637 -0.2075,-0.0825 -0.25709,-0.0754 -0.60292,-0.14957 -1.03749,-0.2225 -0.43458,-0.0729 -0.97541,-0.11206 -1.62248,-0.1175 -1.40873,0.02 -2.52622,0.37501 -3.35245,1.06499 -0.82625,0.69001 -1.24874,1.59499 -1.26749,2.71497 -0.0142,0.79875 0.20416,1.57624 0.65499,2.33247 0.45083,0.75624 1.21915,1.55873 2.30497,2.40747 l 0.91999,0.71999 c 0.8079,0.64083 1.34206,1.21415 1.60248,1.71997 0.26041,0.50583 0.37957,0.99916 0.3575,1.47998 8.2e-4,0.55875 -0.22084,1.07124 -0.66499,1.53748 -0.44417,0.46625 -1.11583,0.71375 -2.01498,0.7425 -0.63416,0.008 -1.21082,-0.14334 -1.72998,-0.455 -0.51916,-0.31166 -0.89582,-0.83332 -1.12998,-1.56498 -0.0512,-0.17499 -0.0937,-0.35499 -0.1275,-0.53999 -0.0338,-0.185 -0.0513,-0.34499 -0.0525,-0.48 0.003,-0.0842 -0.008,-0.16082 -0.0325,-0.22999 -0.0246,-0.0692 -0.0804,-0.10583 -0.1675,-0.11 -0.0788,0.003 -0.13625,0.0521 -0.17249,0.1475 -0.0363,0.0954 -0.0588,0.21958 -0.0675,0.37249 -0.0129,0.18042 -0.0321,0.51958 -0.0575,1.01749 -0.0254,0.49791 -0.0396,1.03207 -0.0425,1.60248 -0.004,0.21208 0.0192,0.36291 0.07,0.45249 0.0508,0.0896 0.15416,0.16542 0.30999,0.2275 0.42541,0.18791 0.87457,0.32208 1.34749,0.40249 0.4729,0.0804 0.99706,0.11959 1.57248,0.1175 z"
         style="font-weight:bold;line-height:0%;fill:#000000;font-family:Trajan Pro;-inkscape-font-specification:Trajan Pro Bold"
         id="path5127"
         inkscape:connector-curvature="0" />
    </g>
    <path
       style="fill:none;stroke:#000000;stroke-width:1.55327785;stroke-linecap:butt;stroke-linejoin:miter;stroke-miterlimit:4;stroke-opacity:1;stroke-dasharray:none"
       d="m 642.09822,263.57388 -253.53955,0"
       id="path5150"
       inkscape:connector-curvature="0"
       sodipodi:nodetypes="cc" />
  </g>
</svg>
