<?xml version="1.0" encoding="UTF-8" standalone="no"?>
<!-- Created with Inkscape (http://www.inkscape.org/) -->

<svg
   xmlns:dc="http://purl.org/dc/elements/1.1/"
   xmlns:cc="http://creativecommons.org/ns#"
   xmlns:rdf="http://www.w3.org/1999/02/22-rdf-syntax-ns#"
   xmlns:svg="http://www.w3.org/2000/svg"
   xmlns="http://www.w3.org/2000/svg"
   xmlns:sodipodi="http://sodipodi.sourceforge.net/DTD/sodipodi-0.dtd"
   xmlns:inkscape="http://www.inkscape.org/namespaces/inkscape"
   width="480"
   height="640"
   id="svg2"
   version="1.1"
   inkscape:version="0.48.5 r10040"
   sodipodi:docname="New document 1">
  <title
     id="title4362">Development Academy of the Philippines (DAP)</title>
  <defs
     id="defs4" />
  <sodipodi:namedview
     id="base"
     pagecolor="#ffffff"
     bordercolor="#666666"
     borderopacity="1.0"
     inkscape:pageopacity="0.0"
     inkscape:pageshadow="2"
     inkscape:zoom="0.3984375"
     inkscape:cx="-151.76471"
     inkscape:cy="291.50333"
     inkscape:document-units="px"
     inkscape:current-layer="layer1"
     showgrid="false"
     inkscape:snap-bbox="false"
     inkscape:bbox-paths="true"
     inkscape:bbox-nodes="true"
     inkscape:snap-bbox-edge-midpoints="true"
     inkscape:snap-bbox-midpoints="true"
     inkscape:object-paths="false"
     inkscape:snap-intersection-paths="true"
     inkscape:object-nodes="false"
     inkscape:snap-smooth-nodes="false"
     inkscape:snap-midpoints="false"
     inkscape:snap-object-midpoints="true"
     inkscape:snap-center="true"
     inkscape:snap-global="true"
     fit-margin-top="0"
     fit-margin-left="0"
     fit-margin-right="0"
     fit-margin-bottom="0"
     inkscape:window-width="1366"
     inkscape:window-height="705"
     inkscape:window-x="-8"
     inkscape:window-y="-8"
     inkscape:window-maximized="1" />
  <metadata
     id="metadata7">
    <rdf:RDF>
      <cc:Work
         rdf:about="">
        <dc:format>image/svg+xml</dc:format>
        <dc:type
           rdf:resource="http://purl.org/dc/dcmitype/StillImage" />
        <dc:title>Development Academy of the Philippines (DAP)</dc:title>
        <dc:description>Development Academy of the Philippines (DAP)</dc:description>
      </cc:Work>
    </rdf:RDF>
  </metadata>
  <g
     inkscape:label="Layer 1"
     inkscape:groupmode="layer"
     id="layer1"
     transform="translate(-1932.2706,-779.28015)">
    <text
       xml:space="preserve"
       style="font-size:80px;font-style:normal;font-variant:normal;font-weight:normal;font-stretch:normal;text-align:center;line-height:125%;letter-spacing:0px;word-spacing:0px;writing-mode:lr-tb;text-anchor:middle;fill:#000000;fill-opacity:1;stroke:none;font-family:Nirmala UI;-inkscape-font-specification:Nirmala UI"
       x="166.98653"
       y="998.5401"
       id="text4304"
       sodipodi:linespacing="125%"><tspan
         sodipodi:role="line"
         id="tspan4306"
         x="166.98653"
         y="998.5401" /></text>
    <g
       id="g4352">
      <rect
         ry="111.03133"
         y="779.28015"
         x="1932.2706"
         height="640"
         width="480"
         id="rect4314"
         style="color:#000000;fill:#002868;fill-opacity:1;fill-rule:nonzero;stroke:none;stroke-width:4;marker:none;visibility:visible;display:inline;overflow:visible;enable-background:accumulate" />
      <path
         inkscape:connector-curvature="0"
         id="path3947"
         d="m 2172.8644,938.97583 c -51.9458,0 -94.06,42.10471 -94.06,94.05397 0,51.9492 42.1142,94.0661 94.06,94.0661 51.9459,0 94.0601,-42.1169 94.0601,-94.0661 0,-51.94926 -42.1142,-94.05397 -94.0601,-94.05397 z m -1.601,4.13128 c 0.4038,0.003 0.6233,0.0122 0.6233,0.0122 0,0 14.2364,-0.44138 21.6817,4.31462 7.4453,4.75599 18.0762,24.68993 18.0762,24.68993 12.6511,24.11159 25.3729,50.18484 39.4525,76.25764 3.7872,7.7824 2.6976,18.0188 -0.77,25.9488 -3.7127,8.4903 -11.5407,15.367 -19.8485,19.4709 -8.8719,4.3825 -29.3815,4.1924 -29.3815,4.1924 l -29.2104,0 -29.2105,0 c 0,0 -20.5095,0.1901 -29.3815,-4.1924 -8.3078,-4.1039 -16.1358,-10.9806 -19.8484,-19.4709 -3.4678,-7.93 -4.5573,-18.1664 -0.77,-25.9488 14.0795,-26.0728 26.8013,-52.14605 39.4524,-76.25764 0,0 10.631,-19.93394 18.0762,-24.68993 6.5146,-4.1615 18.2319,-4.34562 21.0585,-4.32684 z"
         style="color:#000000;fill:#fcd116;fill-opacity:1;stroke:none;stroke-width:4.01930094;marker:none;visibility:visible;display:inline;overflow:visible;enable-background:accumulate" />
      <path
         inkscape:connector-curvature="0"
         id="path3944"
         d="m 2172.8644,967.07169 c -36.4304,0 -65.9642,29.52396 -65.9642,65.95781 0,36.4339 29.5338,65.9706 65.9642,65.9706 36.4304,0 65.9642,-29.5367 65.9642,-65.9706 0,-36.43385 -29.5338,-65.95781 -65.9642,-65.95781 z m 0.051,5.03853 c 3.0021,-0.0112 6.0719,1.78792 8.3375,5.41928 15.6508,26.7859 29.4412,50.2161 45.1775,78.1798 4.0234,7.5559 0.069,14.2251 -8.1345,14.0876 -30.5177,0.2095 -56.773,0.1209 -90.3549,0.2157 -8.203,0.1376 -12.158,-6.5317 -8.1346,-14.0876 16.2082,-27.6409 29.3647,-50.0633 45.1775,-78.3955 1.9913,-3.58674 4.9294,-5.40811 7.9315,-5.41928 z"
         style="color:#000000;fill:#fcd116;fill-opacity:1;stroke:none;stroke-width:4.13064957;marker:none;visibility:visible;display:inline;overflow:visible;enable-background:accumulate" />
      <path
         id="path3947-5"
         d="m 2172.8644,898.25719 c -74.4332,0 -134.7787,60.33187 -134.7787,134.76991 0,74.4381 60.3455,134.7875 134.7787,134.7875 74.4333,0 134.7787,-60.3494 134.7787,-134.7875 0,-74.43804 -60.3454,-134.76991 -134.7787,-134.76991 z m -2.2941,5.91973 c 0.5786,0.004 0.8931,0.0174 0.8931,0.0174 0,0 20.3995,-0.63244 31.0678,6.18243 10.6683,6.81487 25.9014,35.37821 25.9014,35.37821 18.1277,34.54951 36.3567,71.90994 56.5314,109.26964 5.4268,11.1514 3.8655,25.8192 -1.1033,37.1821 -5.3199,12.1657 -16.5366,22.0193 -28.4408,27.8998 -12.7127,6.2797 -42.1008,6.0072 -42.1008,6.0072 l -41.8557,0 -41.8556,0 c 0,0 -29.3882,0.2725 -42.1009,-6.0072 -11.9042,-5.8805 -23.1209,-15.7341 -28.4408,-27.8998 -4.9688,-11.3629 -6.5301,-26.0307 -1.1033,-37.1821 20.1747,-37.3597 38.4037,-74.72013 56.5314,-109.26964 0,0 15.2331,-28.56334 25.9014,-35.37821 9.3348,-5.96301 26.1245,-6.22683 30.1747,-6.19994 z"
         style="color:#000000;fill:#fcd116;fill-opacity:1;stroke:none;stroke-width:4.01930094;marker:none;visibility:visible;display:inline;overflow:visible;enable-background:accumulate"
         inkscape:connector-curvature="0" />
      <path
         id="path3947-51"
         d="m 2172.8644,843.28703 c -104.7912,0 -189.7488,84.93851 -189.7488,189.73647 0,104.798 84.9576,189.7612 189.7488,189.7612 104.7913,0 189.7489,-84.9632 189.7489,-189.7612 0,-104.79796 -84.9576,-189.73647 -189.7489,-189.73647 z m -3.2299,8.33411 c 0.8146,0.006 1.2575,0.0246 1.2575,0.0246 0,0 28.7194,-0.89039 43.7389,8.70396 15.0194,9.59435 36.4655,49.80738 36.4655,49.80738 25.5211,48.64071 51.185,101.23872 79.5879,153.83572 7.6403,15.6997 5.4422,36.3497 -1.5532,52.3471 -7.4897,17.1275 -23.2812,31 -40.0405,39.2788 -17.8976,8.841 -59.2719,8.4574 -59.2719,8.4574 l -58.9267,0 -58.9267,0 c 0,0 -41.3743,0.3836 -59.2719,-8.4574 -16.7594,-8.2788 -32.5509,-22.1513 -40.0405,-39.2788 -6.9954,-15.9974 -9.1935,-36.6474 -1.5533,-52.3471 28.403,-52.597 54.0668,-105.19501 79.5879,-153.83571 0,0 21.4462,-40.21304 36.4656,-49.80739 13.142,-8.39506 36.7795,-8.76648 42.4814,-8.72861 z"
         style="color:#000000;fill:#fcd116;fill-opacity:1;stroke:none;stroke-width:4.01930094;marker:none;visibility:visible;display:inline;overflow:visible;enable-background:accumulate"
         inkscape:connector-curvature="0" />
      <path
         sodipodi:nodetypes="ccsassssaaaccssaaaaaassac"
         inkscape:connector-curvature="0"
         id="path4308"
         d="m 2076.2106,1247.8269 -2.3883,-2.318 c 0,0 -12.0647,8.6925 -18.4737,14.3295 -1.8448,1.6225 -3.2732,4.4009 -2.8097,6.8135 0.4248,2.2115 2.6625,3.9009 4.7062,4.8467 11.4997,5.3221 23.8771,9.1404 33.8568,13.3461 7.8517,3.3089 16.5435,8.0192 19.4572,16.5772 1.9772,5.8076 1.9412,14.6648 -0.2107,18.4035 -2.0157,3.5019 -6.2182,6.2985 -10.2554,6.4623 -6.5715,0.2667 -13.2108,-4.1375 -17.4904,-9.1315 -3.4112,-3.9806 -4.8972,-9.6516 -5.0575,-14.8914 -0.1387,-4.5362 3.5824,-13.1353 3.5824,-13.1353 l -1.4751,-1.6156 c 0,0 -14.3879,7.2213 -17.6308,15.3129 -2.718,6.7817 -3.4341,14.7517 0.3512,21.9156 2.3131,4.3777 5.0583,8.9498 9.2017,11.6602 4.8001,3.14 10.9282,4.7914 16.6475,4.3551 5.6467,-0.4308 10.8315,-3.6788 15.5938,-6.7433 6.6912,-4.3059 12.6922,-9.8327 17.7011,-16.0153 3.256,-4.019 6.5496,-8.3965 7.7969,-13.4163 1.4353,-5.7762 2.4018,-12.7634 -0.7024,-17.8415 -6.6709,-10.9128 -21.6957,-14.0709 -33.4354,-18.825 -6.1153,-2.4765 -11.4528,-4.7854 -17.5606,-9.1316 -2.1255,-1.5124 -3.7509,-4.2752 -3.7228,-6.8837 0.017,-1.5624 2.318,-4.0741 2.318,-4.0741 z"
         style="fill:#fcd116;fill-opacity:1;stroke:none" />
      <path
         sodipodi:nodetypes="ccaaaccaazsaaccaaazzcaac"
         inkscape:connector-curvature="0"
         id="path4310"
         d="m 2152.3511,1285.8215 -1.5894,-2.1358 c 0,0 10.9843,-9.9181 17.3841,-13.51 1.4667,-0.8232 3.0399,-1.8938 4.7185,-1.788 2.1141,0.1332 4.0582,1.5411 5.6126,2.9801 16.6738,15.4362 36.5066,57.5662 36.5066,57.5662 l -17.2847,12.5166 c 0,0 -4.9824,-16.5396 -11.0265,-22.1523 -6.7363,-6.2554 -16.3374,-10.513 -25.5298,-10.4305 -3.1627,0.029 -7.5483,0.7465 -8.7177,3.7458 -1.1694,2.9992 1.3289,6.4569 3.6514,8.4728 2.1905,1.9012 4.4429,3.2888 7.053,3.9735 4.2599,1.1174 8.9425,1.08 13.2119,0 1.3502,-0.3416 3.6755,-1.9868 3.6755,-1.9868 l 1.9868,2.6821 c 0,0 -11.8373,12.4209 -19.6689,15 -4.1205,1.357 -8.8566,1.0437 -13.0132,-0.1986 -4.3215,-1.2917 -9.2224,-3.3151 -11.4238,-7.2517 -2.2144,-3.9598 -2.1252,-8.67 -0.1987,-13.6093 1.9265,-4.9393 5.0444,-7.7763 12.5165,-13.2119 7.4721,-5.4356 23.7418,-7.7484 23.7418,-7.7484 0,0 -5.9768,-9.9575 -10.7285,-12.9138 -2.1686,-1.3492 -4.9156,-2.1006 -7.4504,-1.7881 -1.2788,0.1577 -3.4271,1.7881 -3.4271,1.7881 z"
         style="fill:#fcd116;fill-opacity:1;stroke:none" />
      <path
         sodipodi:nodetypes="cczsccczzzcczzzzzsczcczac"
         inkscape:connector-curvature="0"
         id="path4312"
         d="m 2212.5159,1289.27 -2.318,-3.3717 c 0,0 14.5825,-9.7012 19.939,-13.8248 5.3566,-4.1236 10.4135,-4.7547 12.4247,0.6584 1.4598,3.9289 1.0365,11.4104 1.0365,11.4104 0,0 14.8377,-11.4385 23.461,-14.7509 5.7556,-2.3016 9.5936,1.1098 12.4329,4.4955 3.4151,4.1319 8.7965,13.3783 9.4125,20.862 0.616,7.4836 -1.4977,15.3436 -5.6896,21.4239 -4.1919,6.0803 -13.0619,10.1924 -17.9821,12.9246 -4.9202,2.7322 -10.7471,4.4253 -10.7471,4.4253 l -2.4585,-2.9502 c 0,0 9.3891,-5.6842 12.152,-8.5696 2.7629,-2.8853 4.0823,-4.6122 4.917,-7.6564 0.8346,-3.0442 0.431,-5.7802 -0.3512,-9.8339 -0.7823,-4.0538 -2.2603,-10.595 -5.0575,-14.0485 -2.7972,-3.4536 -5.7096,-6.4224 -9.9744,-6.1813 -4.2649,0.241 -9.012,5.3788 -9.1897,9.3572 -1.1095,24.832 0.058,69.8762 0.058,69.8762 0,0 -6.8376,0.838 -10.0446,1.8263 -3.207,0.9883 -9.0613,3.8633 -9.0613,3.8633 l -0.7024,-65.1147 c 0,0 -0.2906,-7.6693 -1.4048,-10.6768 -1.1143,-3.0075 -1.9168,-6.3289 -4.6361,-7.0945 -2.2078,-0.6216 -6.2164,2.9502 -6.2164,2.9502 z"
         style="fill:#fcd116;fill-opacity:1;stroke:none" />
    </g>
  </g>
</svg>
