<?xml version="1.0" encoding="UTF-8" standalone="no"?>
<!-- Created with Inkscape (http://www.inkscape.org/) -->

<svg
   xmlns:dc="http://purl.org/dc/elements/1.1/"
   xmlns:cc="http://creativecommons.org/ns#"
   xmlns:rdf="http://www.w3.org/1999/02/22-rdf-syntax-ns#"
   xmlns:svg="http://www.w3.org/2000/svg"
   xmlns="http://www.w3.org/2000/svg"
   xmlns:sodipodi="http://sodipodi.sourceforge.net/DTD/sodipodi-0.dtd"
   xmlns:inkscape="http://www.inkscape.org/namespaces/inkscape"
   width="480.15219"
   height="480.96057"
   id="svg2"
   version="1.1"
   inkscape:version="0.48.5 r10040"
   sodipodi:docname="Fertilizer and Pestiside Authority (FPA).svg">
  <title
     id="title7022">Fertilizer and Pestiside Authority (FPA)</title>
  <defs
     id="defs4" />
  <sodipodi:namedview
     id="base"
     pagecolor="#ffffff"
     bordercolor="#666666"
     borderopacity="1.0"
     inkscape:pageopacity="0.0"
     inkscape:pageshadow="2"
     inkscape:zoom="0.74981321"
     inkscape:cx="517.91373"
     inkscape:cy="173.31207"
     inkscape:document-units="px"
     inkscape:current-layer="layer1"
     showgrid="false"
     inkscape:snap-bbox="true"
     inkscape:bbox-paths="true"
     inkscape:bbox-nodes="true"
     inkscape:snap-bbox-edge-midpoints="true"
     inkscape:snap-bbox-midpoints="true"
     inkscape:object-paths="true"
     inkscape:snap-intersection-paths="true"
     inkscape:object-nodes="true"
     inkscape:snap-smooth-nodes="true"
     inkscape:snap-midpoints="true"
     inkscape:snap-object-midpoints="true"
     inkscape:snap-center="true"
     inkscape:snap-global="false"
     fit-margin-top="0"
     fit-margin-left="0"
     fit-margin-right="0"
     fit-margin-bottom="0"
     inkscape:window-width="1366"
     inkscape:window-height="705"
     inkscape:window-x="-8"
     inkscape:window-y="-8"
     inkscape:window-maximized="1" />
  <metadata
     id="metadata7">
    <rdf:RDF>
      <cc:Work
         rdf:about="">
        <dc:format>image/svg+xml</dc:format>
        <dc:type
           rdf:resource="http://purl.org/dc/dcmitype/StillImage" />
        <dc:title>Fertilizer and Pestiside Authority (FPA)</dc:title>
        <cc:license
           rdf:resource="http://creativecommons.org/licenses/publicdomain/" />
      </cc:Work>
      <cc:License
         rdf:about="http://creativecommons.org/licenses/publicdomain/">
        <cc:permits
           rdf:resource="http://creativecommons.org/ns#Reproduction" />
        <cc:permits
           rdf:resource="http://creativecommons.org/ns#Distribution" />
        <cc:permits
           rdf:resource="http://creativecommons.org/ns#DerivativeWorks" />
      </cc:License>
    </rdf:RDF>
  </metadata>
  <g
     inkscape:label="Layer 1"
     inkscape:groupmode="layer"
     id="layer1"
     transform="translate(-570.38884,-1433.9456)">
    <g
       id="g7055">
      <rect
         transform="translate(570.38884,1433.9456)"
         y="138.63564"
         x="164.08965"
         height="39.607845"
         width="237.64706"
         id="rect7051"
         style="color:#000000;fill:#ffffff;fill-opacity:1;fill-rule:nonzero;stroke:none;stroke-width:14;stroke-linecap:round;stroke-linejoin:round;stroke-miterlimit:4;stroke-opacity:1;stroke-dasharray:none;stroke-dashoffset:0;marker:none;visibility:visible;display:inline;overflow:visible;enable-background:accumulate" />
      <path
         id="rect6541"
         d="m 756.16464,1540.5992 0,32.865 127.37962,0 c 8.82857,0 15.93645,-7.1254 15.93645,-15.9757 l 0,-0.9137 c 0,-8.8503 -7.10788,-15.9756 -15.93645,-15.9756 l -127.37962,0 z"
         style="color:#000000;fill:#ffffff;stroke:#006c35;stroke-width:4.78755426000000030;stroke-miterlimit:4;stroke-opacity:1;stroke-dasharray:none;marker:none;visibility:visible;display:inline;overflow:visible;enable-background:accumulate;fill-opacity:1"
         inkscape:connector-curvature="0" />
      <g
         transform="matrix(0.25480348,0,0,0.2259666,405.61857,1460.9079)"
         style="fill:#ffffff;fill-opacity:1;stroke:#006c35;stroke-width:20;stroke-miterlimit:4;stroke-opacity:1;stroke-dasharray:none"
         id="g6662">
        <path
           inkscape:connector-curvature="0"
           id="rect6541-7"
           d="m 1002.4688,190.125 c -191.58628,0 -345.81255,155.56083 -345.81255,348.8125 l 0,19.96875 c 0,193.25167 154.22627,348.8125 345.81255,348.8125 l 64.0312,0 28.4062,0 649.0313,0 c 38.6048,0 69.6875,-31.08272 69.6875,-69.6875 l 0,-3.96875 c 0,-38.60478 -31.0827,-69.6875 -69.6875,-69.6875 l -649.0313,0 0,-410.59375 331.4376,0 c 44.0309,0 79.4687,-35.43756 79.4687,-79.46875 l 0,-4.53125 c 0,-44.03119 -35.4378,-79.5 -79.4687,-79.5 l -331.4376,0 0,-0.15625 -92.4374,0 z"
           style="color:#000000;fill:#ffffff;fill-opacity:1;stroke:#006c35;stroke-width:20;stroke-miterlimit:4;stroke-opacity:1;stroke-dasharray:none;marker:none;visibility:visible;display:inline;overflow:visible;enable-background:accumulate" />
      </g>
      <path
         id="path4352"
         d="m 806.56659,1748.8588 c -7.04159,0.045 -36.15127,1.0668 -51.23127,14.56 -10.02157,6.8674 -19.75804,28.7259 -14.46459,39.9053 l -20.65091,10.5456 c 2.00616,-6.2962 1.05515,-15.3906 -4.14663,-27.1353 -4.48039,-7.5991 -13.59646,-9.9132 -23.42279,-12.2383 -5.35315,-1.2666 -10.89218,-1.7516 -16.16808,-3.3104 -9.09837,-2.6882 -17.49049,-11.0774 -17.49049,-11.0774 0,0 2.1961,37.6097 14.51691,49.4473 17.0572,15.1787 34.484,18.3729 42.75123,10.7178 l 8.55474,6.6509 0.17183,46.3015 -3.88512,-1.4979 c -2.48035,-36.0281 -22.89004,-42.0303 -44.94784,-43.3207 -7.8161,-0.4205 -22.43655,-6.943 -22.43655,-6.943 0,0 6.66611,39.42 21.44287,49.7768 12.78376,8.96 32.22397,8.4174 41.25698,7.5647 l -0.0148,0.045 8.58461,7.4448 0,28.6108 c 8.2974,-2.5901 13.08652,-5.5991 19.46297,-11.5791 l 0,-93.7715 0,-1.9174 c 4.3465,3.0724 11.78766,3.5347 23.43025,-0.5617 8.62138,-2.5395 17.51257,-8.701 22.60095,-16.5374 4.66618,-7.1861 1.90904,-17.3254 5.43917,-25.1355 2.82337,-6.2466 12.20821,-16.5448 12.20821,-16.5448 0,0 -0.55556,-0.01 -1.5615,0 z"
         style="fill:#006c35;fill-opacity:1;stroke:none"
         inkscape:connector-curvature="0" />
      <rect
         ry="0"
         y="1516.9999"
         x="653.87921"
         height="141.56512"
         width="109.7513"
         id="rect6670"
         style="color:#000000;fill:#ffffff;fill-opacity:1;stroke:none;stroke-width:20;marker:none;visibility:visible;display:inline;overflow:visible;enable-background:accumulate" />
      <path
         sodipodi:open="true"
         sodipodi:end="1.2963393"
         sodipodi:start="0.170016"
         transform="matrix(0.23845061,0,0,0.27626327,421.83688,1441.0315)"
         d="M 1157.2885,364.66861 A 275.18842,238.10629 0 0 1 960.65044,553.57604"
         sodipodi:ry="238.10629"
         sodipodi:rx="275.18842"
         sodipodi:cy="324.38147"
         sodipodi:cx="886.06769"
         id="path6575"
         style="color:#000000;fill:none;stroke:#006c35;stroke-width:18.65318108;stroke-linecap:round;stroke-linejoin:round;stroke-miterlimit:4;stroke-opacity:1;stroke-dasharray:none;stroke-dashoffset:0;marker:none;visibility:visible;display:inline;overflow:visible;enable-background:accumulate"
         sodipodi:type="arc" />
      <path
         sodipodi:nodetypes="cc"
         inkscape:connector-curvature="0"
         id="path6672"
         d="m 881.18691,1540.5546 c -1.86646,0 -183.07071,0.4998 -183.07071,0.4998"
         style="fill:none;stroke:#006c35;stroke-width:4.78755426;stroke-linecap:round;stroke-linejoin:round;stroke-miterlimit:4;stroke-opacity:1;stroke-dasharray:none" />
      <path
         sodipodi:nodetypes="cc"
         inkscape:connector-curvature="0"
         id="path6672-8"
         d="m 961.68747,1573.2804 c -2.77216,0 -231.24098,0.094 -231.24098,0.094"
         style="fill:none;stroke:#006c35;stroke-width:4.83059263;stroke-linecap:round;stroke-linejoin:round;stroke-miterlimit:4;stroke-opacity:1;stroke-dasharray:none" />
      <path
         sodipodi:nodetypes="ccsccc"
         inkscape:connector-curvature="0"
         id="path6692-2-4"
         d="m 763.64989,1621.8401 284.40401,-0.5931 c 0,0 6.4258,-107.2394 -38.028,-113.4342 -26.91077,-3.7502 -109.89013,99.7605 -109.89013,99.7605 l -136.48588,0 z"
         style="fill:#ffffff;fill-opacity:1;stroke:none" />
      <path
         sodipodi:nodetypes="ccsccc"
         inkscape:connector-curvature="0"
         id="path6692-2"
         d="m 763.63188,1620.3286 284.40402,0.593 c 0,0 9.0931,104.2387 -35.3607,110.4336 -26.91074,3.7501 -112.55743,-96.7598 -112.55743,-96.7598 l -136.48589,0 z"
         style="fill:#fcd116;fill-opacity:1;stroke:none" />
      <path
         sodipodi:nodetypes="sccccccscss"
         inkscape:connector-curvature="0"
         id="path6692"
         d="m 1012.6719,1507.7273 c -28.31097,-0.4151 -112.55442,98.2192 -112.55442,98.2192 l -136.49387,0 0,13.7154 0,0.4617 0,13.7228 136.49387,0 c 0,0 86.94137,101.789 113.86192,98.1225 38.3897,-5.2286 34.0209,-113.3915 34.0209,-113.3915 0,0 4.3688,-105.5247 -34.0209,-110.7533 -0.4206,-0.057 -0.8581,-0.09 -1.3075,-0.097 z"
         style="fill:none;stroke:#000000;stroke-width:4.77364969;stroke-linecap:butt;stroke-linejoin:miter;stroke-miterlimit:4;stroke-opacity:1;stroke-dasharray:none" />
      <path
         sodipodi:nodetypes="scsas"
         inkscape:connector-curvature="0"
         id="path6808"
         d="m 732.14822,1712.3645 c -1.31875,-16.2949 27.71572,-67.61 27.71572,-67.61 0,0 28.59792,50.942 27.82895,68.5455 -0.62678,14.3491 -13.42171,30.8341 -27.10235,30.8968 -14.20981,0.065 -27.29329,-17.6341 -28.44232,-31.8323 z"
         style="fill:#fcd116;fill-opacity:1;stroke:#000000;stroke-width:4.78755426;stroke-linecap:butt;stroke-linejoin:miter;stroke-miterlimit:4;stroke-opacity:1;stroke-dasharray:none" />
      <g
         transform="matrix(0.23908426,0,0,0.23967152,428.85389,1453.9731)"
         id="g6962">
        <path
           sodipodi:type="arc"
           style="color:#000000;fill:#000000;fill-opacity:1;fill-rule:nonzero;stroke:none;stroke-width:20;marker:none;visibility:visible;display:inline;overflow:visible;enable-background:accumulate"
           id="path6810"
           sodipodi:cx="-2460.9812"
           sodipodi:cy="477.2247"
           sodipodi:rx="3.7951481"
           sodipodi:ry="56.927223"
           d="m -2457.1861,477.2247 c 0,31.44004 -1.6991,56.92722 -3.7951,56.92722 -2.096,0 -3.7951,-25.48718 -3.7951,-56.92722 0,-31.44004 1.6991,-56.92722 3.7951,-56.92722 2.096,0 3.7951,25.48718 3.7951,56.92722 z"
           transform="matrix(16.468395,0,0,1.097893,41615.365,49.512759)" />
        <path
           sodipodi:type="arc"
           style="color:#000000;fill:#000000;fill-opacity:1;fill-rule:nonzero;stroke:none;stroke-width:20;marker:none;visibility:visible;display:inline;overflow:visible;enable-background:accumulate"
           id="path6810-5"
           sodipodi:cx="-2460.9812"
           sodipodi:cy="477.2247"
           sodipodi:rx="3.7951481"
           sodipodi:ry="56.927223"
           d="m -2457.1861,477.2247 c 0,31.44004 -1.6991,56.92722 -3.7951,56.92722 -2.096,0 -3.7951,-25.48718 -3.7951,-56.92722 0,-31.44004 1.6991,-56.92722 3.7951,-56.92722 2.096,0 3.7951,25.48718 3.7951,56.92722 z"
           transform="matrix(16.468395,0,0,1.097893,41538.332,175.1926)" />
        <path
           sodipodi:type="arc"
           style="color:#000000;fill:#000000;fill-opacity:1;fill-rule:nonzero;stroke:none;stroke-width:20;marker:none;visibility:visible;display:inline;overflow:visible;enable-background:accumulate"
           id="path6810-5-1"
           sodipodi:cx="-2460.9812"
           sodipodi:cy="477.2247"
           sodipodi:rx="3.7951481"
           sodipodi:ry="56.927223"
           d="m -2457.1861,477.2247 c 0,31.44004 -1.6991,56.92722 -3.7951,56.92722 -2.096,0 -3.7951,-25.48718 -3.7951,-56.92722 0,-31.44004 1.6991,-56.92722 3.7951,-56.92722 2.096,0 3.7951,25.48718 3.7951,56.92722 z"
           transform="matrix(16.468395,0,0,1.097893,41615.365,300.87258)" />
        <path
           sodipodi:type="arc"
           style="color:#000000;fill:#000000;fill-opacity:1;fill-rule:nonzero;stroke:none;stroke-width:20;marker:none;visibility:visible;display:inline;overflow:visible;enable-background:accumulate"
           id="path6810-5-7"
           sodipodi:cx="-2460.9812"
           sodipodi:cy="477.2247"
           sodipodi:rx="3.7951481"
           sodipodi:ry="56.927223"
           d="m -2457.1861,477.2247 c 0,31.44004 -1.6991,56.92722 -3.7951,56.92722 -2.096,0 -3.7951,-25.48718 -3.7951,-56.92722 0,-31.44004 1.6991,-56.92722 3.7951,-56.92722 2.096,0 3.7951,25.48718 3.7951,56.92722 z"
           transform="matrix(16.468395,0,0,1.097893,41461.299,300.87245)" />
        <path
           sodipodi:type="arc"
           style="color:#000000;fill:#000000;fill-opacity:1;fill-rule:nonzero;stroke:none;stroke-width:20;marker:none;visibility:visible;display:inline;overflow:visible;enable-background:accumulate"
           id="path6810-5-11"
           sodipodi:cx="-2460.9812"
           sodipodi:cy="477.2247"
           sodipodi:rx="3.7951481"
           sodipodi:ry="56.927223"
           d="m -2457.1861,477.2247 c 0,31.44004 -1.6991,56.92722 -3.7951,56.92722 -2.096,0 -3.7951,-25.48718 -3.7951,-56.92722 0,-31.44004 1.6991,-56.92722 3.7951,-56.92722 2.096,0 3.7951,25.48718 3.7951,56.92722 z"
           transform="matrix(16.468395,0,0,1.097893,41691.666,175.19258)" />
        <path
           sodipodi:type="arc"
           style="color:#000000;fill:#000000;fill-opacity:1;fill-rule:nonzero;stroke:none;stroke-width:20;marker:none;visibility:visible;display:inline;overflow:visible;enable-background:accumulate"
           id="path6810-5-7-5"
           sodipodi:cx="-2460.9812"
           sodipodi:cy="477.2247"
           sodipodi:rx="3.7951481"
           sodipodi:ry="56.927223"
           d="m -2457.1861,477.2247 c 0,31.44004 -1.6991,56.92722 -3.7951,56.92722 -2.096,0 -3.7951,-25.48718 -3.7951,-56.92722 0,-31.44004 1.6991,-56.92722 3.7951,-56.92722 2.096,0 3.7951,25.48718 3.7951,56.92722 z"
           transform="matrix(16.468395,0,0,1.097893,41766.446,300.87245)" />
        <path
           sodipodi:type="arc"
           style="color:#000000;fill:#000000;fill-opacity:1;fill-rule:nonzero;stroke:none;stroke-width:20;marker:none;visibility:visible;display:inline;overflow:visible;enable-background:accumulate"
           id="path6810-5-1-2"
           sodipodi:cx="-2460.9812"
           sodipodi:cy="477.2247"
           sodipodi:rx="3.7951481"
           sodipodi:ry="56.927223"
           d="m -2457.1861,477.2247 c 0,31.44004 -1.6991,56.92722 -3.7951,56.92722 -2.096,0 -3.7951,-25.48718 -3.7951,-56.92722 0,-31.44004 1.6991,-56.92722 3.7951,-56.92722 2.096,0 3.7951,25.48718 3.7951,56.92722 z"
           transform="matrix(16.468395,0,0,1.097893,41538.332,449.3335)" />
        <path
           sodipodi:type="arc"
           style="color:#000000;fill:#000000;fill-opacity:1;fill-rule:nonzero;stroke:none;stroke-width:20;marker:none;visibility:visible;display:inline;overflow:visible;enable-background:accumulate"
           id="path6810-5-11-7"
           sodipodi:cx="-2460.9812"
           sodipodi:cy="477.2247"
           sodipodi:rx="3.7951481"
           sodipodi:ry="56.927223"
           d="m -2457.1861,477.2247 c 0,31.44004 -1.6991,56.92722 -3.7951,56.92722 -2.096,0 -3.7951,-25.48718 -3.7951,-56.92722 0,-31.44004 1.6991,-56.92722 3.7951,-56.92722 2.096,0 3.7951,25.48718 3.7951,56.92722 z"
           transform="matrix(16.468395,0,0,1.097893,41691.666,449.33358)" />
        <path
           sodipodi:type="arc"
           style="color:#000000;fill:#000000;fill-opacity:1;fill-rule:nonzero;stroke:none;stroke-width:20;marker:none;visibility:visible;display:inline;overflow:visible;enable-background:accumulate"
           id="path6810-5-1-2-6"
           sodipodi:cx="-2460.9812"
           sodipodi:cy="477.2247"
           sodipodi:rx="3.7951481"
           sodipodi:ry="56.927223"
           d="m -2457.1861,477.2247 c 0,31.44004 -1.6991,56.92722 -3.7951,56.92722 -2.096,0 -3.7951,-25.48718 -3.7951,-56.92722 0,-31.44004 1.6991,-56.92722 3.7951,-56.92722 2.096,0 3.7951,25.48718 3.7951,56.92722 z"
           transform="matrix(16.468395,0,0,1.097893,41538.332,594.23916)" />
        <path
           sodipodi:type="arc"
           style="color:#000000;fill:#000000;fill-opacity:1;fill-rule:nonzero;stroke:none;stroke-width:20;marker:none;visibility:visible;display:inline;overflow:visible;enable-background:accumulate"
           id="path6810-5-11-7-1"
           sodipodi:cx="-2460.9812"
           sodipodi:cy="477.2247"
           sodipodi:rx="3.7951481"
           sodipodi:ry="56.927223"
           d="m -2457.1861,477.2247 c 0,31.44004 -1.6991,56.92722 -3.7951,56.92722 -2.096,0 -3.7951,-25.48718 -3.7951,-56.92722 0,-31.44004 1.6991,-56.92722 3.7951,-56.92722 2.096,0 3.7951,25.48718 3.7951,56.92722 z"
           transform="matrix(16.468395,0,0,1.097893,41691.666,594.23924)" />
      </g>
      <g
         style="stroke:#000000;stroke-opacity:1"
         transform="matrix(0.26620952,0,0,0.2668634,414.69116,1459.8516)"
         id="g6988">
        <path
           inkscape:connector-curvature="0"
           id="path6979"
           style="font-size:300px;font-style:normal;font-variant:normal;font-weight:bold;font-stretch:normal;text-align:center;line-height:0%;letter-spacing:30px;word-spacing:0px;writing-mode:lr-tb;text-anchor:middle;fill:#fcd116;fill-opacity:1;stroke:#000000;stroke-width:14;stroke-miterlimit:4;stroke-opacity:1;font-family:Swiss 721;-inkscape-font-specification:Swiss 721"
           d="m 1196.471,129.21237 43.7994,0 0,-91.798816 93.5988,0 0,-37.49951749 -93.5988,0 0,-48.89937051 106.7986,0 0,-37.499517 -150.598,0 z" />
        <path
           inkscape:connector-curvature="0"
           id="path6981"
           style="font-size:300px;font-style:normal;font-variant:normal;font-weight:bold;font-stretch:normal;text-align:center;line-height:0%;letter-spacing:30px;word-spacing:0px;writing-mode:lr-tb;text-anchor:middle;fill:#fcd116;fill-opacity:1;stroke:#000000;stroke-width:14;stroke-miterlimit:4;stroke-opacity:1;font-family:Swiss 721;-inkscape-font-specification:Swiss 721"
           d="m 1450.1673,52.413361 54.5993,0 c 21.387,-0.12492 37.7118,-6.174838 48.9743,-18.149771 11.2622,-11.974744 16.9371,-29.1245041 17.0248,-51.449333 -0.025,-22.705792 -5.8251,-39.918053 -17.3998,-51.636838 -11.575,-11.718388 -28.7747,-17.605806 -51.5993,-17.66227 l -95.9988,0 0,215.697221 44.3995,0 z m 0,-38.999498 0,-62.399197 45.5994,0 c 10.3435,0.02518 18.0808,2.675138 23.2122,7.949893 5.131,5.275096 7.6935,13.02499 7.6874,23.249705 0.037,11.0124939 -2.6626,18.9873832 -8.0999,23.9246924 -5.4376,4.9375556 -13.8375,7.3625216 -25.1997,7.2749066 z" />
        <path
           inkscape:connector-curvature="0"
           id="path6983"
           style="font-size:300px;font-style:normal;font-variant:normal;font-weight:bold;font-stretch:normal;text-align:center;line-height:0%;letter-spacing:30px;word-spacing:0px;writing-mode:lr-tb;text-anchor:middle;fill:#fcd116;fill-opacity:1;stroke:#000000;stroke-width:14;stroke-miterlimit:4;stroke-opacity:1;font-family:Swiss 721;-inkscape-font-specification:Swiss 721"
           d="m 1672.7578,-86.484851 -76.7991,215.697221 46.7994,0 14.0999,-44.399427 83.6989,0 14.6998,44.399427 46.4994,0 -77.699,-215.697221 z m 25.7996,43.199444 29.9996,91.798818 -59.9992,0 z" />
      </g>
    </g>
  </g>
</svg>
