<?xml version="1.0" encoding="UTF-8" standalone="no"?>
<!-- Created with Inkscape (http://www.inkscape.org/) -->

<svg
   xmlns:dc="http://purl.org/dc/elements/1.1/"
   xmlns:cc="http://creativecommons.org/ns#"
   xmlns:rdf="http://www.w3.org/1999/02/22-rdf-syntax-ns#"
   xmlns:svg="http://www.w3.org/2000/svg"
   xmlns="http://www.w3.org/2000/svg"
   xmlns:sodipodi="http://sodipodi.sourceforge.net/DTD/sodipodi-0.dtd"
   xmlns:inkscape="http://www.inkscape.org/namespaces/inkscape"
   width="640"
   height="170.50233"
   viewBox="0 0 640.00002 170.50233"
   id="svg2"
   version="1.1"
   inkscape:version="0.48.5 r10040"
   sodipodi:docname="Film_Development_Council_of_the_Philippines_(FDCP).svg">
  <title
     id="title4735">Film Development Council of the Philippines (FDCP)</title>
  <defs
     id="defs4" />
  <sodipodi:namedview
     id="base"
     pagecolor="#ffffff"
     bordercolor="#666666"
     borderopacity="1.0"
     inkscape:pageopacity="0.0"
     inkscape:pageshadow="2"
     inkscape:zoom="1.4015625"
     inkscape:cx="320"
     inkscape:cy="85.251169"
     inkscape:document-units="px"
     inkscape:current-layer="layer1"
     showgrid="false"
     inkscape:snap-bbox="true"
     inkscape:bbox-nodes="true"
     inkscape:object-nodes="true"
     inkscape:snap-smooth-nodes="true"
     inkscape:snap-global="true"
     fit-margin-top="0"
     fit-margin-left="0"
     fit-margin-right="0"
     fit-margin-bottom="0"
     units="px"
     inkscape:window-width="1366"
     inkscape:window-height="705"
     inkscape:window-x="-8"
     inkscape:window-y="-8"
     inkscape:window-maximized="1"
     inkscape:bbox-paths="true"
     inkscape:snap-bbox-edge-midpoints="true"
     inkscape:snap-bbox-midpoints="true"
     inkscape:object-paths="true"
     inkscape:snap-intersection-paths="true"
     inkscape:snap-midpoints="true"
     inkscape:snap-object-midpoints="true"
     inkscape:snap-center="true"
     inkscape:snap-page="true" />
  <metadata
     id="metadata7">
    <rdf:RDF>
      <cc:Work
         rdf:about="">
        <dc:format>image/svg+xml</dc:format>
        <dc:type
           rdf:resource="http://purl.org/dc/dcmitype/StillImage" />
        <dc:title>Film Development Council of the Philippines (FDCP)</dc:title>
      </cc:Work>
    </rdf:RDF>
  </metadata>
  <g
     inkscape:label="Layer 1"
     inkscape:groupmode="layer"
     id="layer1"
     transform="translate(-22.975952,-653.23389)">
    <g
       id="g16549">
      <rect
         ry="0"
         y="653.23389"
         x="22.975952"
         height="170.30183"
         width="177.22453"
         id="rect4523"
         style="color:#000000;fill:#000000;fill-opacity:1;fill-rule:nonzero;stroke:none;visibility:visible;display:inline;overflow:visible;enable-background:accumulate" />
      <path
         sodipodi:nodetypes="csscccsasssaaaccaaasaassscccsscc"
         inkscape:connector-curvature="0"
         id="path4241"
         d="m 92.533145,823.53514 c 0,0 -0.691212,-9.43062 5.616735,-13.06123 12.0884,-6.95762 30.00725,-1.88653 42.12557,-1.57883 7.60596,0.19314 11.61279,-3.44561 12.41596,-8.25297 -2.32828,-22.30332 -23.0623,-10.14941 -34.88293,-2.15294 -10.92047,5.98445 -22.393062,6.9612 -22.393062,6.9612 0,0 -20.357252,1.76966 -28.822751,-2.44001 -7.735535,-3.84667 -13.334852,-9.54677 -14.189664,-16.72123 -0.792644,-6.65269 3.314486,-14.75693 9.164155,-18.013 9.533204,-5.30641 15.594658,-6.24335 23.945062,-6.45885 18.79429,-0.48502 31.98591,1.16177 49.3682,3.37296 11.93206,1.51787 26.17288,5.07521 36.0654,-1.57882 4.11891,-2.77054 6.93918,-8.6578 5.91235,-13.42005 -1.12862,-5.23437 -6.73184,-9.57771 -12.04643,-10.98004 -11.60346,-3.06174 -35.17854,7.75061 -35.17854,7.75061 l 4.9516,-5.0953 c 0,0 14.51839,-4.29236 22.02353,-4.7365 6.39821,-0.37862 13.33958,-0.85265 19.14127,1.79413 4.90331,2.23693 11.06166,5.88255 11.52911,11.12357 0.61454,6.89021 -3.06955,13.33586 -12.34205,16.93652 -6.47775,2.51542 -13.86462,1.84557 -20.84107,1.86589 -8.03594,0.0234 -16.00961,-1.37474 -24.01896,-2.00941 -14.06146,-1.11426 -27.14939,-4.35921 -42.19947,-3.15766 -6.164653,0.49216 -13.003404,1.91591 -17.589269,5.74119 -4.221122,3.52103 -7.101117,8.96453 -7.316545,14.35299 -0.346036,8.65531 5.591984,18.47039 21.727919,19.0177 19.710775,1.76841 31.082465,-10.31888 46.781555,-16.5777 14.16644,-5.87586 31.10465,1.49677 30.89207,13.06122 -0.68543,12.79406 -16.05668,12.17589 -21.3584,12.05651 -10.0116,-0.22543 -8.93118,-2.1555 -29.93132,-2.51176 -11.216638,-0.19029 -9.53368,14.64004 -9.53368,14.64004 z"
         style="fill:#ffffff;fill-opacity:1;fill-rule:evenodd;stroke:none" />
      <path
         sodipodi:nodetypes="csssasac"
         inkscape:connector-curvature="0"
         id="path4245"
         d="m 86.103451,732.39366 c 0,0 9.30143,9.11743 23.797249,2.44 9.19316,-4.23477 17.2538,-16.47616 15.22433,-25.69185 -3.48712,-15.83481 -16.83385,-20.48755 -29.511078,-21.57873 -17.925032,-1.54286 -26.079651,10.88847 -29.612521,22.58345 -3.127147,10.35192 2.469294,23.24441 10.937866,30.57186 9.783462,8.46517 24.454163,8.04965 37.100053,7.75062 6.8818,-0.16273 19.95421,-5.16708 19.95421,-5.16708"
         style="fill:none;stroke:#ffffff;stroke-width:1.48695755;stroke-linecap:round;stroke-linejoin:round;stroke-miterlimit:4;stroke-opacity:1;stroke-dasharray:none" />
      <path
         id="path4243"
         d="m 95.697422,659.01928 a 51.930637,50.427233 0 0 0 -51.930641,50.42723 51.930637,50.427233 0 0 0 51.930641,50.42723 51.930637,50.427233 0 0 0 51.930638,-50.42723 51.930637,50.427233 0 0 0 -51.930638,-50.42723 z m -0.583544,5.71915 a 11.145858,10.823183 0 0 1 11.145672,10.82301 11.145858,10.823183 0 0 1 -11.145672,10.82358 11.145858,10.823183 0 0 1 -11.145682,-10.82358 11.145858,10.823183 0 0 1 11.145682,-10.82301 z m -29.999431,16.78714 a 11.145858,10.823183 0 0 1 11.146266,10.823 11.145858,10.823183 0 0 1 -11.146266,10.82358 11.145858,10.823183 0 0 1 -11.145677,-10.82358 11.145858,10.823183 0 0 1 11.145677,-10.823 z m 59.938733,0.0607 a 11.145858,10.823183 0 0 1 11.14568,10.82301 11.145858,10.823183 0 0 1 -11.14568,10.82358 11.145858,10.823183 0 0 1 -11.14626,-10.82358 11.145858,10.823183 0 0 1 11.14626,-10.82301 z m -27.246163,15.26405 a 2.9498483,2.8644493 0 0 1 2.950133,2.86415 2.9498483,2.8644493 0 0 1 -2.950133,2.86474 2.9498483,2.8644493 0 0 1 -2.949549,-2.86474 2.9498483,2.8644493 0 0 1 2.949549,-2.86415 z m -9.976821,2.51157 a 2.9498483,2.8644493 0 0 1 2.949541,2.86473 2.9498483,2.8644493 0 0 1 -2.949541,2.86416 2.9498483,2.8644493 0 0 1 -2.950137,-2.86416 2.9498483,2.8644493 0 0 1 2.950137,-2.86473 z m 17.071884,4.44964 a 2.9498483,2.8644493 0 0 1 2.94954,2.86415 2.9498483,2.8644493 0 0 1 -2.94954,2.86473 2.9498483,2.8644493 0 0 1 -2.95014,-2.86473 2.9498483,2.8644493 0 0 1 2.95014,-2.86415 z m -9.607247,3.9116 a 1.4334798,1.3919802 0 0 1 1.433512,1.392 1.4334798,1.3919802 0 0 1 -1.433512,1.39202 1.4334798,1.3919802 0 0 1 -1.433511,-1.39202 1.4334798,1.3919802 0 0 1 1.433511,-1.392 z m -10.051681,1.32733 a 2.9498483,2.8644493 0 0 1 2.950137,2.86416 2.9498483,2.8644493 0 0 1 -2.950137,2.86472 2.9498483,2.8644493 0 0 1 -2.949547,-2.86472 2.9498483,2.8644493 0 0 1 2.949547,-2.86416 z m 16.998198,4.23385 a 2.9498483,2.8644493 0 0 1 2.95014,2.86472 2.9498483,2.8644493 0 0 1 -2.95014,2.86415 2.9498483,2.8644493 0 0 1 -2.949544,-2.86415 2.9498483,2.8644493 0 0 1 2.949544,-2.86472 z m -37.422213,1.82757 a 11.145858,10.823183 0 0 1 11.145678,10.82301 11.145858,10.823183 0 0 1 -11.145678,10.82302 11.145858,10.823183 0 0 1 -11.146265,-10.82302 11.145858,10.823183 0 0 1 11.146265,-10.82301 z m 60.399673,0.0853 a 11.145858,10.823183 0 0 1 11.14568,10.82301 11.145858,10.823183 0 0 1 -11.14568,10.82358 11.145858,10.823183 0 0 1 -11.14627,-10.82358 11.145858,10.823183 0 0 1 11.14627,-10.82301 z m -32.658968,0.52716 a 2.9498483,2.8644493 0 0 1 2.950132,2.86473 2.9498483,2.8644493 0 0 1 -2.950132,2.86416 2.9498483,2.8644493 0 0 1 -2.949546,-2.86416 2.9498483,2.8644493 0 0 1 2.949546,-2.86473 z m 2.855823,16.32409 a 11.145858,10.823183 0 0 1 11.145675,10.823 11.145858,10.823183 0 0 1 -11.145675,10.82301 11.145858,10.823183 0 0 1 -11.146266,-10.82301 11.145858,10.823183 0 0 1 11.146266,-10.823 z"
         style="color:#000000;fill:#fcd116;fill-opacity:1;fill-rule:nonzero;stroke:none;visibility:visible;display:inline;overflow:visible;enable-background:accumulate"
         inkscape:connector-curvature="0" />
      <g
         transform="matrix(0.96120869,0,0,0.96120869,0.89126738,31.953811)"
         id="text15694"
         style="font-size:52.00330353px;font-style:normal;font-variant:normal;font-weight:bold;font-stretch:normal;text-align:start;line-height:89.99999762%;letter-spacing:0.52003306px;word-spacing:0px;writing-mode:lr-tb;text-anchor:start;fill:#848482;fill-opacity:1;stroke:none;font-family:Gotham Bold;-inkscape-font-specification:Gotham Bold">
        <path
           inkscape:connector-curvature="0"
           id="path16473"
           style="line-height:89.99999762%;fill:#848482;font-family:Gotham Bold;-inkscape-font-specification:Gotham Bold"
           d="m 220.52568,646.40382 27.71722,0 0,7.28122 -19.70914,0 0,7.74781 17.36829,0 0,7.28122 -17.36829,0 0,14.09269 -8.00808,0 z" />
        <path
           inkscape:connector-curvature="0"
           id="path16475"
           style="line-height:89.99999762%;fill:#848482;font-family:Gotham Bold;-inkscape-font-specification:Gotham Bold"
           d="m 255.53631,646.40382 8.00808,0 0,36.40294 -8.00808,0 z" />
        <path
           inkscape:connector-curvature="0"
           id="path16477"
           style="line-height:89.99999762%;fill:#848482;font-family:Gotham Bold;-inkscape-font-specification:Gotham Bold"
           d="m 273.16278,646.40382 8.00807,0 0,29.12172 18.14911,0 0,7.28122 -26.15718,0 z" />
        <path
           inkscape:connector-curvature="0"
           id="path16479"
           style="line-height:89.99999762%;fill:#848482;font-family:Gotham Bold;-inkscape-font-specification:Gotham Bold"
           d="m 305.88017,646.40382 8.63177,0 9.56811,15.39404 9.5697,-15.39404 8.63178,0 0,36.40294 -7.95571,0 0,-23.76555 -10.24577,15.54958 -0.20789,0 -10.14103,-15.39405 0,23.61002 -7.85096,0 z" />
        <path
           inkscape:connector-curvature="0"
           id="path16481"
           style="line-height:89.99999762%;fill:#848482;font-family:Gotham Bold;-inkscape-font-specification:Gotham Bold"
           d="m 234.72153,722.38088 c 1.62932,10e-6 3.12005,-0.26 4.47221,-0.78002 1.35211,-0.52 2.50481,-1.26537 3.4581,-2.2361 0.95324,-0.97071 1.69861,-2.11468 2.23611,-3.43192 0.53744,-1.31721 0.80617,-2.79048 0.8062,-4.41984 l 0,-0.10474 c -3e-5,-1.5944 -0.26876,-3.06768 -0.8062,-4.41984 -0.5375,-1.35211 -1.28287,-2.51354 -2.23611,-3.48429 -0.95329,-0.97069 -2.10599,-1.72479 -3.4581,-2.26229 -1.35216,-0.53744 -2.84289,-0.80617 -4.47221,-0.8062 l -6.18777,0 0,21.94524 z m -14.19585,-29.17409 14.19585,0 c 2.84285,3e-5 5.45164,0.45947 7.82637,1.37832 2.37467,0.91892 4.42007,2.19302 6.13619,3.82233 1.71606,1.62936 3.04227,3.54489 3.97864,5.74658 0.93631,2.20174 1.40447,4.58543 1.40451,7.15109 l 0,0.10315 c -4e-5,2.56569 -0.4682,4.95785 -1.40451,7.17648 -0.93637,2.21866 -2.26258,4.14291 -3.97864,5.77277 -1.71612,1.62987 -3.76152,2.9127 -6.13619,3.84851 -2.37473,0.93581 -4.98352,1.40371 -7.82637,1.40371 l -14.19585,0 z" />
        <path
           inkscape:connector-curvature="0"
           id="path16483"
           style="line-height:89.99999762%;fill:#848482;font-family:Gotham Bold;-inkscape-font-specification:Gotham Bold"
           d="m 261.6733,693.20679 27.45695,0 0,7.12569 -19.50124,0 0,7.38438 17.16039,0 0,7.12411 -17.16039,0 0,7.64465 19.76151,0 0,7.12411 -27.71722,0 z" />
        <path
           inkscape:connector-curvature="0"
           id="path16485"
           style="line-height:89.99999762%;fill:#848482;font-family:Gotham Bold;-inkscape-font-specification:Gotham Bold"
           d="m 293.90982,693.20679 8.84126,0 9.51733,25.63822 9.51574,-25.63822 8.63336,0 -14.71797,36.66322 -7.07174,0 z" />
        <path
           inkscape:connector-curvature="0"
           id="path16487"
           style="line-height:89.99999762%;fill:#848482;font-family:Gotham Bold;-inkscape-font-specification:Gotham Bold"
           d="m 336.554,693.20679 27.45694,0 0,7.12569 -19.50124,0 0,7.38438 17.16039,0 0,7.12411 -17.16039,0 0,7.64465 19.76151,0 0,7.12411 -27.71721,0 z" />
        <path
           inkscape:connector-curvature="0"
           id="path16489"
           style="line-height:89.99999762%;fill:#848482;font-family:Gotham Bold;-inkscape-font-specification:Gotham Bold"
           d="m 371.91217,693.20679 8.00808,0 0,29.12172 18.1491,0 0,7.28122 -26.15718,0 z" />
        <path
           inkscape:connector-curvature="0"
           id="path16491"
           style="line-height:89.99999762%;fill:#848482;font-family:Gotham Bold;-inkscape-font-specification:Gotham Bold"
           d="m 422.41365,722.84905 c 1.5944,10e-6 3.06768,-0.29465 4.41984,-0.88397 1.35211,-0.5893 2.50507,-1.40397 3.4589,-2.444 0.95376,-1.04001 1.69913,-2.24482 2.2361,-3.61443 0.53691,-1.36957 0.80538,-2.83412 0.80541,-4.39365 l 0,-0.10474 c -3e-5,-1.55949 -0.2685,-3.03276 -0.80541,-4.41984 -0.53697,-1.38702 -1.29953,-2.60056 -2.28768,-3.64061 -0.98821,-1.03999 -2.15837,-1.86339 -3.51048,-2.47019 -1.35216,-0.60674 -2.82543,-0.91012 -4.41983,-0.91015 -1.62936,3e-5 -3.11163,0.29469 -4.44682,0.88397 -1.33522,0.58934 -2.47946,1.404 -3.43271,2.444 -0.95328,1.04005 -1.69865,2.24486 -2.2361,3.61443 -0.53749,1.36961 -0.80622,2.83469 -0.80621,4.39524 l 0,0.10315 c -1e-5,1.56058 0.26872,3.03412 0.80621,4.42063 0.53745,1.38654 1.30028,2.59981 2.28847,3.63982 0.98817,1.04003 2.1496,1.86343 3.48429,2.47019 1.33466,0.60677 2.81667,0.91016 4.44602,0.91015 z m -0.10315,7.38438 c -2.80904,0 -5.39217,-0.49409 -7.7494,-1.48227 -2.35725,-0.98818 -4.39392,-2.32286 -6.11,-4.00404 -1.7161,-1.68117 -3.05078,-3.65727 -4.00404,-5.92829 -0.95327,-2.27101 -1.4299,-4.70628 -1.4299,-7.30583 l 0,-0.10474 c 0,-2.59951 0.48536,-5.03478 1.45608,-7.30582 0.97072,-2.27099 2.31413,-4.26455 4.03023,-5.98067 1.71608,-1.71606 3.76148,-3.06819 6.13619,-4.05641 2.37469,-0.98814 4.96602,-1.48223 7.77399,-1.48227 2.80794,4e-5 5.3908,0.49413 7.7486,1.48227 2.35775,0.98822 4.39468,2.3229 6.1108,4.00404 1.71606,1.68121 3.05074,3.6573 4.00404,5.9283 0.95323,2.27104 1.42986,4.70684 1.4299,7.30741 l 0,0.10315 c -4e-5,2.6006 -0.4854,5.03614 -1.45608,7.30662 -0.97077,2.2705 -2.31417,4.26378 -4.03023,5.97987 -1.71612,1.71609 -3.76152,3.06823 -6.13619,4.05641 -2.37473,0.98818 -4.96606,1.48227 -7.77399,1.48227 z" />
        <path
           inkscape:connector-curvature="0"
           id="path16493"
           style="line-height:89.99999762%;fill:#848482;font-family:Gotham Bold;-inkscape-font-specification:Gotham Bold"
           d="m 463.68347,711.56538 c 2.01126,10e-6 3.57156,-0.52873 4.6809,-1.58623 1.1093,-1.05746 1.66396,-2.36648 1.66399,-3.92706 l 0,-0.10316 c -3e-5,-1.80282 -0.58061,-3.17242 -1.74175,-4.10878 -1.16119,-0.93631 -2.74741,-1.40448 -4.75867,-1.40451 l -6.18777,0 0,11.12974 z m -14.35137,-18.35859 14.87191,0 c 2.18477,3e-5 4.13521,0.30342 5.85133,0.91015 1.71606,0.6068 3.17215,1.46485 4.36825,2.57414 1.19605,1.10935 2.11467,2.43557 2.75586,3.97864 0.64112,1.54314 0.96169,3.2505 0.96173,5.1221 l 0,0.10474 c -4e-5,2.11498 -0.38145,3.96967 -1.14424,5.56407 -0.76286,1.59444 -1.81161,2.92912 -3.14626,4.00404 -1.33471,1.07495 -2.89474,1.88115 -4.68011,2.41861 -1.78541,0.53748 -3.70067,0.80622 -5.74578,0.80621 l -6.08462,0 0,10.92024 -8.00807,0 z" />
        <path
           inkscape:connector-curvature="0"
           id="path16495"
           style="line-height:89.99999762%;fill:#848482;font-family:Gotham Bold;-inkscape-font-specification:Gotham Bold"
           d="m 484.5887,693.20679 8.63178,0 9.56811,15.39404 9.5697,-15.39404 8.63177,0 0,36.40294 -7.9557,0 0,-23.76554 -10.24577,15.54957 -0.2079,0 -10.14103,-15.39405 0,23.61002 -7.85096,0 z" />
        <path
           inkscape:connector-curvature="0"
           id="path16497"
           style="line-height:89.99999762%;fill:#848482;font-family:Gotham Bold;-inkscape-font-specification:Gotham Bold"
           d="m 530.20537,693.20679 27.45695,0 0,7.12569 -19.50124,0 0,7.38438 17.16039,0 0,7.12411 -17.16039,0 0,7.64465 19.76151,0 0,7.12411 -27.71722,0 z" />
        <path
           inkscape:connector-curvature="0"
           id="path16499"
           style="line-height:89.99999762%;fill:#848482;font-family:Gotham Bold;-inkscape-font-specification:Gotham Bold"
           d="m 565.56353,693.20679 7.38438,0 17.05564,22.41341 0,-22.41341 7.90493,0 0,36.40294 -6.81147,0 -17.63015,-23.14185 0,23.14185 -7.90333,0 z" />
        <path
           inkscape:connector-curvature="0"
           id="path16501"
           style="line-height:89.99999762%;fill:#848482;font-family:Gotham Bold;-inkscape-font-specification:Gotham Bold"
           d="m 615.59367,700.59117 -11.07737,0 0,-7.38438 30.16281,0 0,7.38438 -11.07737,0 0,29.01856 -8.00807,0 z" />
        <path
           inkscape:connector-curvature="0"
           id="path16503"
           style="line-height:89.99999762%;fill:#848482;font-family:Gotham Bold;-inkscape-font-specification:Gotham Bold"
           d="m 237.58133,777.0364 c -2.66938,0 -5.14803,-0.48536 -7.43596,-1.45608 -2.28795,-0.97073 -4.26405,-2.29667 -5.92829,-3.97786 -1.66426,-1.68117 -2.96428,-3.66599 -3.90009,-5.95448 -0.93581,-2.28846 -1.40372,-4.73246 -1.40371,-7.332 l 0,-0.10475 c -10e-6,-2.59951 0.4679,-5.03478 1.40371,-7.30582 0.93581,-2.27099 2.23583,-4.26454 3.90009,-5.98067 1.66424,-1.71605 3.65779,-3.06819 5.98067,-4.05641 2.32284,-0.98814 4.88825,-1.48223 7.69622,-1.48227 1.69914,4e-5 3.25071,0.13864 4.65472,0.4158 1.40395,0.27724 2.67806,0.65865 3.82232,1.14424 1.14421,0.48566 2.20169,1.07524 3.17245,1.76873 0.97069,0.69355 1.87185,1.45611 2.70348,2.28768 l -5.09591,5.87671 c -1.42199,-1.28334 -2.86961,-2.28897 -4.34286,-3.01691 -1.47331,-0.72788 -3.12883,-1.09184 -4.96657,-1.09187 -1.52567,3e-5 -2.93837,0.29469 -4.23812,0.88397 -1.29978,0.58934 -2.41783,1.40401 -3.35416,2.444 -0.93635,1.04005 -1.66452,2.24486 -2.18452,3.61443 -0.52003,1.36961 -0.78003,2.83469 -0.78002,4.39524 l 0,0.10315 c -1e-5,1.56058 0.25999,3.03413 0.78002,4.42063 0.52,1.38654 1.23944,2.59981 2.15834,3.63982 0.91886,1.04003 2.02845,1.86343 3.32876,2.47019 1.30028,0.60678 2.73018,0.91016 4.2897,0.91015 2.08003,10e-6 3.8395,-0.3814 5.27841,-1.14423 1.43887,-0.76282 2.8693,-1.80284 4.29129,-3.12008 l 5.09591,5.14828 c -0.93638,1.00511 -1.9071,1.90654 -2.91218,2.70427 -1.00514,0.79775 -2.10573,1.48254 -3.30178,2.05439 -1.19611,0.57186 -2.50487,1.00511 -3.92627,1.29977 -1.42147,0.29466 -3.01668,0.44198 -4.78565,0.44198 z" />
        <path
           inkscape:connector-curvature="0"
           id="path16505"
           style="line-height:89.99999762%;fill:#848482;font-family:Gotham Bold;-inkscape-font-specification:Gotham Bold"
           d="m 277.22287,769.65202 c 1.5944,10e-6 3.06767,-0.29465 4.41984,-0.88396 1.3521,-0.58931 2.50507,-1.40397 3.45889,-2.44401 0.95377,-1.04001 1.69914,-2.24482 2.23611,-3.61442 0.53691,-1.36958 0.80538,-2.83413 0.80541,-4.39365 l 0,-0.10475 c -3e-5,-1.55948 -0.2685,-3.03276 -0.80541,-4.41983 -0.53697,-1.38703 -1.29953,-2.60057 -2.28768,-3.64062 -0.98821,-1.03999 -2.15837,-1.86339 -3.51048,-2.47018 -1.35216,-0.60674 -2.82544,-0.91013 -4.41984,-0.91016 -1.62935,3e-5 -3.11162,0.29469 -4.44681,0.88397 -1.33523,0.58934 -2.47946,1.40401 -3.43272,2.444 -0.95328,1.04005 -1.69864,2.24486 -2.2361,3.61443 -0.53748,1.36961 -0.80621,2.83469 -0.8062,4.39524 l 0,0.10315 c -10e-6,1.56058 0.26872,3.03413 0.8062,4.42063 0.53746,1.38654 1.30028,2.59981 2.28848,3.63982 0.98816,1.04003 2.14959,1.86343 3.48429,2.47019 1.33466,0.60678 2.81666,0.91016 4.44602,0.91015 z m -0.10316,7.38438 c -2.80903,0 -5.39216,-0.49409 -7.74939,-1.48227 -2.35726,-0.98818 -4.39393,-2.32286 -6.11001,-4.00404 -1.7161,-1.68117 -3.05077,-3.65726 -4.00404,-5.92829 -0.95327,-2.27101 -1.4299,-4.70628 -1.4299,-7.30582 l 0,-0.10475 c 0,-2.59951 0.48536,-5.03478 1.45609,-7.30582 0.97072,-2.27099 2.31413,-4.26454 4.03022,-5.98067 1.71609,-1.71605 3.76148,-3.06819 6.1362,-4.05641 2.37468,-0.98814 4.96601,-1.48223 7.77399,-1.48227 2.80793,4e-5 5.3908,0.49413 7.7486,1.48227 2.35774,0.98822 4.39467,2.3229 6.1108,4.00404 1.71605,1.68121 3.05073,3.65731 4.00404,5.9283 0.95322,2.27104 1.42986,4.70684 1.4299,7.30741 l 0,0.10315 c -4e-5,2.60061 -0.4854,5.03614 -1.45609,7.30662 -0.97076,2.2705 -2.31417,4.26379 -4.03022,5.97987 -1.71613,1.7161 -3.76152,3.06823 -6.13619,4.05641 -2.37473,0.98818 -4.96606,1.48227 -7.774,1.48227 z" />
        <path
           inkscape:connector-curvature="0"
           id="path16507"
           style="line-height:89.99999762%;fill:#848482;font-family:Gotham Bold;-inkscape-font-specification:Gotham Bold"
           d="m 319.32587,776.98403 c -4.88908,0 -8.73759,-1.35187 -11.54554,-4.05561 -2.80796,-2.70374 -4.21194,-6.74243 -4.21194,-12.11607 l 0,-20.80259 8.00808,0 0,20.59469 c -10e-6,2.98149 0.69351,5.22605 2.08058,6.73371 1.38703,1.50767 3.31102,2.2615 5.77197,2.26149 2.46197,10e-6 4.38622,-0.7279 5.77277,-2.18373 1.38649,-1.45581 2.07975,-3.64007 2.07978,-6.55279 l 0,-20.85337 8.00966,0 0,20.54232 c -3e-5,2.77306 -0.37271,5.18241 -1.11805,7.22806 -0.7454,2.04567 -1.81161,3.75303 -3.19863,5.12209 -1.38708,1.36907 -3.06852,2.39163 -5.04432,3.0677 -1.97586,0.67607 -4.17731,1.0141 -6.60436,1.0141 z" />
        <path
           inkscape:connector-curvature="0"
           id="path16509"
           style="line-height:89.99999762%;fill:#848482;font-family:Gotham Bold;-inkscape-font-specification:Gotham Bold"
           d="m 343.96852,740.00976 7.38438,0 17.05565,22.41341 0,-22.41341 7.90492,0 0,36.40295 -6.81146,0 -17.63015,-23.14185 0,23.14185 -7.90334,0 z" />
        <path
           inkscape:connector-curvature="0"
           id="path16511"
           style="line-height:89.99999762%;fill:#848482;font-family:Gotham Bold;-inkscape-font-specification:Gotham Bold"
           d="m 402.57807,777.0364 c -2.66938,0 -5.14803,-0.48536 -7.43596,-1.45608 -2.28796,-0.97073 -4.26406,-2.29667 -5.9283,-3.97786 -1.66425,-1.68117 -2.96428,-3.66599 -3.90008,-5.95448 -0.93582,-2.28846 -1.40372,-4.73246 -1.40372,-7.332 l 0,-0.10475 c 0,-2.59951 0.4679,-5.03478 1.40372,-7.30582 0.9358,-2.27099 2.23583,-4.26454 3.90008,-5.98067 1.66424,-1.71605 3.6578,-3.06819 5.98067,-4.05641 2.32284,-0.98814 4.88825,-1.48223 7.69623,-1.48227 1.69914,4e-5 3.25071,0.13864 4.65471,0.4158 1.40395,0.27724 2.67806,0.65865 3.82233,1.14424 1.14421,0.48566 2.20169,1.07524 3.17244,1.76873 0.97069,0.69355 1.87185,1.45611 2.70348,2.28768 l -5.0959,5.87671 c -1.422,-1.28334 -2.86962,-2.28897 -4.34287,-3.01691 -1.4733,-0.72788 -3.12882,-1.09184 -4.96656,-1.09187 -1.52567,3e-5 -2.93838,0.29469 -4.23813,0.88397 -1.29978,0.58934 -2.41783,1.40401 -3.35415,2.444 -0.93635,1.04005 -1.66453,2.24486 -2.18453,3.61443 -0.52002,1.36961 -0.78003,2.83469 -0.78002,4.39524 l 0,0.10315 c -1e-5,1.56058 0.26,3.03413 0.78002,4.42063 0.52,1.38654 1.23945,2.59981 2.15834,3.63982 0.91887,1.04003 2.02846,1.86343 3.32877,2.47019 1.30027,0.60678 2.73017,0.91016 4.2897,0.91015 2.08002,10e-6 3.83949,-0.3814 5.27841,-1.14423 1.43886,-0.76282 2.86929,-1.80284 4.29129,-3.12008 l 5.0959,5.14828 c -0.93637,1.00511 -1.9071,1.90654 -2.91217,2.70427 -1.00514,0.79775 -2.10574,1.48254 -3.30178,2.05439 -1.19611,0.57186 -2.50487,1.00511 -3.92628,1.29977 -1.42146,0.29466 -3.01667,0.44198 -4.78564,0.44198 z" />
        <path
           inkscape:connector-curvature="0"
           id="path16513"
           style="line-height:89.99999762%;fill:#848482;font-family:Gotham Bold;-inkscape-font-specification:Gotham Bold"
           d="m 424.79893,740.00976 8.00808,0 0,36.40295 -8.00808,0 z" />
        <path
           inkscape:connector-curvature="0"
           id="path16515"
           style="line-height:89.99999762%;fill:#848482;font-family:Gotham Bold;-inkscape-font-specification:Gotham Bold"
           d="m 442.4254,740.00976 8.00808,0 0,29.12172 18.1491,0 0,7.28123 -26.15718,0 z" />
        <path
           inkscape:connector-curvature="0"
           id="path16517"
           style="line-height:89.99999762%;fill:#848482;font-family:Gotham Bold;-inkscape-font-specification:Gotham Bold"
           d="m 509.08852,769.65202 c 1.5944,10e-6 3.06767,-0.29465 4.41984,-0.88396 1.3521,-0.58931 2.50507,-1.40397 3.4589,-2.44401 0.95376,-1.04001 1.69913,-2.24482 2.2361,-3.61442 0.53691,-1.36958 0.80538,-2.83413 0.80541,-4.39365 l 0,-0.10475 c -3e-5,-1.55948 -0.2685,-3.03276 -0.80541,-4.41983 -0.53697,-1.38703 -1.29953,-2.60057 -2.28768,-3.64062 -0.98821,-1.03999 -2.15837,-1.86339 -3.51048,-2.47018 -1.35216,-0.60674 -2.82544,-0.91013 -4.41984,-0.91016 -1.62935,3e-5 -3.11162,0.29469 -4.44681,0.88397 -1.33523,0.58934 -2.47946,1.40401 -3.43272,2.444 -0.95328,1.04005 -1.69864,2.24486 -2.2361,3.61443 -0.53748,1.36961 -0.80621,2.83469 -0.8062,4.39524 l 0,0.10315 c -1e-5,1.56058 0.26872,3.03413 0.8062,4.42063 0.53746,1.38654 1.30028,2.59981 2.28848,3.63982 0.98816,1.04003 2.14959,1.86343 3.48429,2.47019 1.33466,0.60678 2.81666,0.91016 4.44602,0.91015 z m -0.10316,7.38438 c -2.80903,0 -5.39216,-0.49409 -7.74939,-1.48227 -2.35726,-0.98818 -4.39393,-2.32286 -6.11001,-4.00404 -1.7161,-1.68117 -3.05077,-3.65726 -4.00404,-5.92829 -0.95327,-2.27101 -1.4299,-4.70628 -1.4299,-7.30582 l 0,-0.10475 c 0,-2.59951 0.48536,-5.03478 1.45609,-7.30582 0.97072,-2.27099 2.31413,-4.26454 4.03022,-5.98067 1.71609,-1.71605 3.76148,-3.06819 6.1362,-4.05641 2.37468,-0.98814 4.96601,-1.48223 7.77399,-1.48227 2.80793,4e-5 5.3908,0.49413 7.7486,1.48227 2.35774,0.98822 4.39467,2.3229 6.1108,4.00404 1.71606,1.68121 3.05073,3.65731 4.00404,5.9283 0.95323,2.27104 1.42986,4.70684 1.4299,7.30741 l 0,0.10315 c -4e-5,2.60061 -0.4854,5.03614 -1.45609,7.30662 -0.97076,2.2705 -2.31417,4.26379 -4.03022,5.97987 -1.71613,1.7161 -3.76152,3.06823 -6.13619,4.05641 -2.37473,0.98818 -4.96606,1.48227 -7.774,1.48227 z" />
        <path
           inkscape:connector-curvature="0"
           id="path16519"
           style="line-height:89.99999762%;fill:#848482;font-family:Gotham Bold;-inkscape-font-specification:Gotham Bold"
           d="m 536.00698,740.00976 27.71721,0 0,7.28122 -19.70914,0 0,7.74781 17.36829,0 0,7.28122 -17.36829,0 0,14.0927 -8.00807,0 z" />
        <path
           inkscape:connector-curvature="0"
           id="path16521"
           style="line-height:89.99999762%;fill:#848482;font-family:Gotham Bold;-inkscape-font-specification:Gotham Bold"
           d="m 595.29206,747.39414 -11.07736,0 0,-7.38438 30.1628,0 0,7.38438 -11.07736,0 0,29.01857 -8.00808,0 z" />
        <path
           inkscape:connector-curvature="0"
           id="path16523"
           style="line-height:89.99999762%;fill:#848482;font-family:Gotham Bold;-inkscape-font-specification:Gotham Bold"
           d="m 621.05675,740.00976 8.00808,0 0,14.40533 14.76876,0 0,-14.40533 8.00807,0 0,36.40295 -8.00807,0 0,-14.61324 -14.76876,0 0,14.61324 -8.00808,0 z" />
        <path
           inkscape:connector-curvature="0"
           id="path16525"
           style="line-height:89.99999762%;fill:#848482;font-family:Gotham Bold;-inkscape-font-specification:Gotham Bold"
           d="m 661.08712,740.00976 27.45694,0 0,7.1257 -19.50124,0 0,7.38438 17.16039,0 0,7.12411 -17.16039,0 0,7.64465 19.76151,0 0,7.12411 -27.71721,0 z" />
        <path
           inkscape:connector-curvature="0"
           id="path16527"
           style="line-height:89.99999762%;fill:#848482;font-family:Gotham Bold;-inkscape-font-specification:Gotham Bold"
           d="m 234.87706,805.17132 c 2.01126,2e-5 3.57155,-0.52872 4.6809,-1.58622 1.1093,-1.05746 1.66396,-2.36648 1.66398,-3.92707 l 0,-0.10316 c -2e-5,-1.80282 -0.5806,-3.17241 -1.74174,-4.10878 -1.16119,-0.93631 -2.74741,-1.40448 -4.75867,-1.40451 l -6.18777,0 0,11.12974 z m -14.35138,-18.35859 14.87192,0 c 2.18477,4e-5 4.13521,0.30342 5.85132,0.91015 1.71607,0.60681 3.17215,1.46485 4.36826,2.57414 1.19605,1.10936 2.11467,2.43557 2.75585,3.97865 0.64112,1.54313 0.9617,3.2505 0.96173,5.12209 l 0,0.10474 c -3e-5,2.11499 -0.38144,3.96968 -1.14423,5.56408 -0.76286,1.59443 -1.81161,2.92911 -3.14626,4.00403 -1.33471,1.07496 -2.89474,1.88116 -4.68011,2.41862 -1.78541,0.53748 -3.70067,0.80621 -5.74578,0.8062 l -6.08462,0 0,10.92025 -8.00808,0 z" />
        <path
           inkscape:connector-curvature="0"
           id="path16529"
           style="line-height:89.99999762%;fill:#848482;font-family:Gotham Bold;-inkscape-font-specification:Gotham Bold"
           d="m 255.7823,786.81273 8.00808,0 0,14.40534 14.76876,0 0,-14.40534 8.00807,0 0,36.40295 -8.00807,0 0,-14.61323 -14.76876,0 0,14.61323 -8.00808,0 z" />
        <path
           inkscape:connector-curvature="0"
           id="path16531"
           style="line-height:89.99999762%;fill:#848482;font-family:Gotham Bold;-inkscape-font-specification:Gotham Bold"
           d="m 296.17608,786.81273 8.00808,0 0,36.40295 -8.00808,0 z" />
        <path
           inkscape:connector-curvature="0"
           id="path16533"
           style="line-height:89.99999762%;fill:#848482;font-family:Gotham Bold;-inkscape-font-specification:Gotham Bold"
           d="m 313.80255,786.81273 8.00807,0 0,29.12172 18.14911,0 0,7.28123 -26.15718,0 z" />
        <path
           inkscape:connector-curvature="0"
           id="path16535"
           style="line-height:89.99999762%;fill:#848482;font-family:Gotham Bold;-inkscape-font-specification:Gotham Bold"
           d="m 346.88336,786.81273 8.00808,0 0,36.40295 -8.00808,0 z" />
        <path
           inkscape:connector-curvature="0"
           id="path16537"
           style="line-height:89.99999762%;fill:#848482;font-family:Gotham Bold;-inkscape-font-specification:Gotham Bold"
           d="m 378.86121,805.17132 c 2.01125,2e-5 3.57155,-0.52872 4.6809,-1.58622 1.10929,-1.05746 1.66396,-2.36648 1.66398,-3.92707 l 0,-0.10316 c -2e-5,-1.80282 -0.58061,-3.17241 -1.74175,-4.10878 -1.16119,-0.93631 -2.74741,-1.40448 -4.75866,-1.40451 l -6.18777,0 0,11.12974 z m -14.35138,-18.35859 14.87192,0 c 2.18477,4e-5 4.1352,0.30342 5.85132,0.91015 1.71607,0.60681 3.17215,1.46485 4.36826,2.57414 1.19605,1.10936 2.11466,2.43557 2.75585,3.97865 0.64112,1.54313 0.9617,3.2505 0.96173,5.12209 l 0,0.10474 c -3e-5,2.11499 -0.38144,3.96968 -1.14424,5.56408 -0.76285,1.59443 -1.8116,2.92911 -3.14625,4.00403 -1.33471,1.07496 -2.89475,1.88116 -4.68011,2.41862 -1.78542,0.53748 -3.70068,0.80621 -5.74579,0.8062 l -6.08461,0 0,10.92025 -8.00808,0 z" />
        <path
           inkscape:connector-curvature="0"
           id="path16539"
           style="line-height:89.99999762%;fill:#848482;font-family:Gotham Bold;-inkscape-font-specification:Gotham Bold"
           d="m 414.11781,805.17132 c 2.01126,2e-5 3.57156,-0.52872 4.6809,-1.58622 1.1093,-1.05746 1.66396,-2.36648 1.66399,-3.92707 l 0,-0.10316 c -3e-5,-1.80282 -0.58061,-3.17241 -1.74175,-4.10878 -1.16119,-0.93631 -2.74741,-1.40448 -4.75867,-1.40451 l -6.18777,0 0,11.12974 z m -14.35137,-18.35859 14.87191,0 c 2.18477,4e-5 4.13521,0.30342 5.85133,0.91015 1.71606,0.60681 3.17215,1.46485 4.36826,2.57414 1.19604,1.10936 2.11466,2.43557 2.75585,3.97865 0.64112,1.54313 0.96169,3.2505 0.96173,5.12209 l 0,0.10474 c -4e-5,2.11499 -0.38145,3.96968 -1.14424,5.56408 -0.76286,1.59443 -1.81161,2.92911 -3.14626,4.00403 -1.3347,1.07496 -2.89474,1.88116 -4.6801,2.41862 -1.78542,0.53748 -3.70068,0.80621 -5.74579,0.8062 l -6.08462,0 0,10.92025 -8.00807,0 z" />
        <path
           inkscape:connector-curvature="0"
           id="path16541"
           style="line-height:89.99999762%;fill:#848482;font-family:Gotham Bold;-inkscape-font-specification:Gotham Bold"
           d="m 435.38649,786.81273 8.00807,0 0,36.40295 -8.00807,0 z" />
        <path
           inkscape:connector-curvature="0"
           id="path16543"
           style="line-height:89.99999762%;fill:#848482;font-family:Gotham Bold;-inkscape-font-specification:Gotham Bold"
           d="m 453.01294,786.81273 7.38438,0 17.05565,22.41341 0,-22.41341 7.90492,0 0,36.40295 -6.81147,0 -17.63014,-23.14185 0,23.14185 -7.90334,0 z" />
        <path
           inkscape:connector-curvature="0"
           id="path16545"
           style="line-height:89.99999762%;fill:#848482;font-family:Gotham Bold;-inkscape-font-specification:Gotham Bold"
           d="m 494.56682,786.81273 27.45695,0 0,7.1257 -19.50124,0 0,7.38438 17.16039,0 0,7.12411 -17.16039,0 0,7.64465 19.76151,0 0,7.12411 -27.71722,0 z" />
        <path
           inkscape:connector-curvature="0"
           id="path16547"
           style="line-height:89.99999762%;fill:#848482;font-family:Gotham Bold;-inkscape-font-specification:Gotham Bold"
           d="m 542.87346,823.73622 c -2.77412,0 -5.49584,-0.4769 -8.16519,-1.43069 -2.66937,-0.9538 -5.09591,-2.41835 -7.27964,-4.39366 l 4.73248,-5.66881 c 1.66318,1.35214 3.37028,2.42682 5.1213,3.22402 1.75099,0.79722 3.66651,1.19582 5.74658,1.19581 1.66423,1e-5 2.95579,-0.30337 3.87469,-0.91015 0.91886,-0.60676 1.3783,-1.44708 1.37833,-2.52097 l 0,-0.10475 c -3e-5,-0.52053 -0.0955,-0.97997 -0.28646,-1.37832 -0.19099,-0.39833 -0.55521,-0.77101 -1.09266,-1.11805 -0.53749,-0.34701 -1.28286,-0.69378 -2.2361,-1.04029 -0.95329,-0.34648 -2.19275,-0.71017 -3.71838,-1.09107 -1.83672,-0.4507 -3.50044,-0.95352 -4.99116,-1.50846 -1.49075,-0.55491 -2.75639,-1.2397 -3.79693,-2.05439 -1.04056,-0.81465 -1.84676,-1.82875 -2.41861,-3.04231 -0.57186,-1.21351 -0.85779,-2.7217 -0.85779,-4.52458 l 0,-0.10315 c 0,-1.66422 0.31211,-3.16369 0.93634,-4.4984 0.62422,-1.33464 1.49973,-2.48734 2.62651,-3.4581 1.12678,-0.97069 2.47018,-1.71606 4.03023,-2.2361 1.56002,-0.51998 3.27585,-0.77999 5.14748,-0.78002 2.66934,3e-5 5.12233,0.39864 7.35899,1.19581 2.2366,0.79725 4.29073,1.94122 6.16238,3.43192 l -4.15957,6.03225 c -1.63042,-1.10877 -3.22563,-1.98401 -4.78564,-2.62572 -1.56006,-0.64165 -3.11983,-0.96249 -4.67932,-0.96252 -1.56058,3e-5 -2.73073,0.30341 -3.51047,0.91015 -0.77977,0.6068 -1.16964,1.36089 -1.16963,2.26229 l 0,0.10474 c -10e-6,0.58934 0.11266,1.10062 0.33803,1.53385 0.22535,0.43328 0.63268,0.82316 1.222,1.16963 0.5893,0.34652 1.39524,0.67583 2.41782,0.98792 1.02255,0.31213 2.31411,0.67609 3.8747,1.09186 1.83668,0.48565 3.47448,1.03185 4.91339,1.6386 1.43887,0.60679 2.65241,1.3347 3.64062,2.18373 0.98815,0.84907 1.73352,1.84571 2.2361,2.98994 0.50252,1.14425 0.7538,2.51358 0.75383,4.10798 l 0,0.10475 c -3e-5,1.80285 -0.32933,3.40627 -0.98791,4.81024 -0.65864,1.40398 -1.57726,2.5826 -2.75586,3.53587 -1.17864,0.95327 -2.58262,1.68144 -4.21193,2.18452 -1.62936,0.50309 -3.43221,0.75463 -5.40855,0.75463 z" />
      </g>
    </g>
  </g>
</svg>
