<?xml version="1.0" encoding="UTF-8" standalone="no"?>
<!-- Created with Inkscape (http://www.inkscape.org/) -->

<svg
   xmlns:dc="http://purl.org/dc/elements/1.1/"
   xmlns:cc="http://creativecommons.org/ns#"
   xmlns:rdf="http://www.w3.org/1999/02/22-rdf-syntax-ns#"
   xmlns:svg="http://www.w3.org/2000/svg"
   xmlns="http://www.w3.org/2000/svg"
   xmlns:sodipodi="http://sodipodi.sourceforge.net/DTD/sodipodi-0.dtd"
   xmlns:inkscape="http://www.inkscape.org/namespaces/inkscape"
   width="640"
   height="640"
   id="svg5154"
   version="1.1"
   inkscape:version="0.48.5 r10040"
   sodipodi:docname="Governance Commission for Government-Owned or -Controlled Corporations (GCG).svg">
  <title
     id="title6138">Governance Commission for Government-Owned or -Controlled Corporations (GCG)</title>
  <defs
     id="defs5156" />
  <sodipodi:namedview
     id="base"
     pagecolor="#ffffff"
     bordercolor="#666666"
     borderopacity="1.0"
     inkscape:pageopacity="0.0"
     inkscape:pageshadow="2"
     inkscape:zoom="0.75008393"
     inkscape:cx="372.32214"
     inkscape:cy="599.86653"
     inkscape:document-units="px"
     inkscape:current-layer="layer1"
     showgrid="false"
     inkscape:snap-global="true"
     inkscape:snap-bbox="true"
     inkscape:bbox-paths="true"
     inkscape:bbox-nodes="true"
     inkscape:snap-bbox-edge-midpoints="true"
     inkscape:snap-bbox-midpoints="true"
     inkscape:object-paths="true"
     inkscape:snap-intersection-paths="true"
     inkscape:object-nodes="true"
     inkscape:snap-smooth-nodes="true"
     inkscape:snap-midpoints="true"
     inkscape:snap-object-midpoints="true"
     inkscape:snap-center="true"
     fit-margin-top="0"
     fit-margin-left="0"
     fit-margin-right="0"
     fit-margin-bottom="0"
     inkscape:window-width="1366"
     inkscape:window-height="705"
     inkscape:window-x="-8"
     inkscape:window-y="-8"
     inkscape:window-maximized="1" />
  <metadata
     id="metadata5159">
    <rdf:RDF>
      <cc:Work
         rdf:about="">
        <dc:format>image/svg+xml</dc:format>
        <dc:type
           rdf:resource="http://purl.org/dc/dcmitype/StillImage" />
        <cc:license
           rdf:resource="http://creativecommons.org/licenses/publicdomain/" />
        <dc:title>Governance Commission for Government-Owned or -Controlled Corporations (GCG)</dc:title>
      </cc:Work>
      <cc:License
         rdf:about="http://creativecommons.org/licenses/publicdomain/">
        <cc:permits
           rdf:resource="http://creativecommons.org/ns#Reproduction" />
        <cc:permits
           rdf:resource="http://creativecommons.org/ns#Distribution" />
        <cc:permits
           rdf:resource="http://creativecommons.org/ns#DerivativeWorks" />
      </cc:License>
    </rdf:RDF>
  </metadata>
  <g
     inkscape:label="Layer 1"
     inkscape:groupmode="layer"
     id="layer1"
     transform="translate(-3.4245217,-98.425537)">
    <rect
       style="color:#000000;fill:#0038a8;fill-opacity:1;stroke:none;stroke-width:5;marker:none;visibility:visible;display:inline;overflow:visible;enable-background:accumulate"
       id="rect6009"
       width="639.99316"
       height="639.96063"
       x="3.4245217"
       y="98.464928"
       ry="69.983704" />
    <path
       style="fill:#fcd116;fill-opacity:1;stroke:none"
       d="m 327.38471,98.425537 -0.0271,0.02709 19.42069,19.446783 147.23966,-9.64214 c 0.21193,3.2785 0.5283,6.53303 0.94801,9.75047 l -134.34671,17.68629 15.84533,15.8716 120.09946,-23.88867 c 3.88673,19.64381 11.61385,37.9131 22.37306,53.97972 l -101.81639,68.00957 0,22.42609 107.53154,-82.47277 c 1.99003,2.58918 4.07846,5.07801 6.22979,7.52953 l -110.97147,97.31517 0,27.49092 27.49232,0 97.32011,-110.96583 c 2.45444,2.15512 4.96482,4.23584 7.55701,6.22947 l -82.50406,107.52608 22.42724,0 68.04011,-101.81121 c 16.0573,10.76336 34.31206,18.51271 53.95537,22.399 l -23.88988,120.06627 15.87242,15.84452 17.68718,-134.33988 c 3.2155,0.41903 6.47323,0.73604 9.75097,0.94796 l -9.64263,147.23218 19.44777,19.44678 c 0,0 -0.78818,-163.4473 0,-245.54947 -0.17512,-25.88935 -9.31433,-39.15831 -22.70811,-52.90017 -15.99438,-16.410045 -36.91137,-18.161437 -51.85973,-17.655349 -76.52331,-0.320327 -241.47197,0 -241.47196,-4e-6 z"
       id="circle3059"
       inkscape:connector-curvature="0"
       sodipodi:nodetypes="cccccccccccccccccccccccccccccscc" />
    <path
       sodipodi:type="star"
       style="color:#000000;fill:#fcd116;fill-opacity:1;stroke:none;stroke-width:1;marker:none;visibility:visible;display:inline;overflow:visible;enable-background:accumulate"
       id="path6100"
       sodipodi:sides="5"
       sodipodi:cx="242.19946"
       sodipodi:cy="61.483475"
       sodipodi:r1="36.753246"
       sodipodi:r2="14.039742"
       sodipodi:arg1="0.69233443"
       sodipodi:arg2="1.320653"
       inkscape:flatsided="false"
       inkscape:rounded="0"
       inkscape:randomized="0"
       d="m 270.49057,84.94439 -24.81567,-9.858132 -17.04566,20.553477 1.70718,-26.647432 -24.81492,-9.860014 25.87076,-6.610886 1.7092,-26.647301 14.28183,22.561679 25.87126,-6.608924 -17.0441,20.554771 z"
       inkscape:transform-center-x="2.2893969"
       inkscape:transform-center-y="-1.2078392"
       transform="matrix(0.98443189,0.04346396,-0.04346617,0.98438181,-17.219551,117.26997)" />
    <path
       sodipodi:type="star"
       style="color:#000000;fill:#fcd116;fill-opacity:1;stroke:none;stroke-width:1;marker:none;visibility:visible;display:inline;overflow:visible;enable-background:accumulate"
       id="path6100-4"
       sodipodi:sides="5"
       sodipodi:cx="242.19946"
       sodipodi:cy="61.483475"
       sodipodi:r1="36.753246"
       sodipodi:r2="14.039742"
       sodipodi:arg1="0.69233443"
       sodipodi:arg2="1.320653"
       inkscape:flatsided="false"
       inkscape:rounded="0"
       inkscape:randomized="0"
       d="m 270.49057,84.94439 -24.81567,-9.858132 -17.04566,20.553477 1.70718,-26.647432 -24.81492,-9.860014 25.87076,-6.610886 1.7092,-26.647301 14.28183,22.561679 25.87126,-6.608924 -17.0441,20.554771 z"
       inkscape:transform-center-x="1.6944765"
       inkscape:transform-center-y="1.8068755"
       transform="matrix(0.96029204,-0.22097429,0.22098553,0.96024319,18.420077,302.4114)" />
    <path
       sodipodi:type="star"
       style="color:#000000;fill:#fcd116;fill-opacity:1;stroke:none;stroke-width:1;marker:none;visibility:visible;display:inline;overflow:visible;enable-background:accumulate"
       id="path6100-0"
       sodipodi:sides="5"
       sodipodi:cx="242.19946"
       sodipodi:cy="61.483475"
       sodipodi:r1="36.753246"
       sodipodi:r2="14.039742"
       sodipodi:arg1="0.69233443"
       sodipodi:arg2="1.320653"
       inkscape:flatsided="false"
       inkscape:rounded="0"
       inkscape:randomized="0"
       d="m 270.49057,84.94439 -24.81567,-9.858132 -17.04566,20.553477 1.70718,-26.647432 -24.81492,-9.860014 25.87076,-6.610886 1.7092,-26.647301 14.28183,22.561679 25.87126,-6.608924 -17.0441,20.554771 z"
       inkscape:transform-center-x="-1.5239209"
       inkscape:transform-center-y="1.9766851"
       transform="matrix(0.85769001,-0.48511787,0.48514255,0.85764638,108.96883,476.54286)" />
    <g
       transform="matrix(0.86156003,0,0,0.87193291,0.45630722,98.425537)"
       style="font-size:229.42105103px;font-style:normal;font-variant:normal;font-weight:normal;font-stretch:normal;text-align:center;line-height:125%;letter-spacing:2.29421043px;word-spacing:0px;writing-mode:lr-tb;text-anchor:middle;fill:#ffffff;fill-opacity:1;stroke:none;font-family:Swiss 721;-inkscape-font-specification:'Swiss 721,'"
       id="text6127">
      <path
         d="m 251.44257,605.81648 c -0.0384,-11.47085 0.0381,-20.64757 0.22942,-27.53017 0.0763,-3.98607 0.78366,-7.02586 2.12212,-9.11937 1.33809,-2.09336 3.53668,-3.41252 6.59577,-3.95746 1.34764,-0.22934 2.49473,-0.40141 3.44127,-0.5162 0.94616,-0.11463 1.86383,-0.17198 2.75302,-0.17206 0.82666,0.01 1.52448,-0.12418 2.09344,-0.40148 0.56857,-0.27713 0.8649,-0.75508 0.88899,-1.43386 -0.005,-0.89847 -0.3969,-1.51025 -1.17577,-1.83535 -0.77926,-0.32492 -1.91679,-0.47787 -3.41259,-0.45883 -3.98608,0.0286 -8.51695,0.14329 -13.5926,0.34392 -5.07601,0.20081 -9.49229,0.3155 -13.24887,0.3441 -3.65174,-0.0286 -8.56512,-0.1433 -14.74016,-0.34413 -6.17533,-0.20066 -12.35051,-0.31537 -18.52555,-0.34413 -1.60623,-0.0189 -2.81078,0.1341 -3.61365,0.45904 -0.80313,0.32512 -1.20463,0.93691 -1.20449,1.83538 0.0142,0.67877 0.32966,1.15672 0.94635,1.43386 0.61643,0.27729 1.44807,0.41112 2.49492,0.40148 1.66315,9e-5 3.32643,0.0574 4.98984,0.17207 1.66315,0.11479 2.9823,0.28685 3.95747,0.51619 3.70878,0.76002 6.27061,2.16521 7.6855,4.21555 1.4146,2.0505 2.14109,5.00426 2.17947,8.86128 0.10979,3.42221 0.1767,7.36055 0.20074,11.81503 0.0238,4.45458 0.0333,9.54002 0.0287,15.2563 l 0,21.56531 c 0.0333,1.95962 -0.26302,3.66114 -0.88899,5.10454 -0.62627,1.44344 -1.78292,2.57141 -3.46995,3.38393 -2.84875,1.20923 -6.04148,1.94527 -9.57821,2.20814 -3.53699,0.26288 -6.84443,0.36803 -9.92233,0.31545 -24.50482,-0.5114 -43.86195,-8.72265 -58.07146,-24.63377 -14.20963,-15.91105 -21.46497,-36.45351 -21.76604,-61.62743 0.0764,-14.01352 1.98825,-25.56088 5.73546,-34.64213 3.7471,-9.08099 8.87077,-16.26942 15.37101,-21.5653 8.12992,-6.414 16.13087,-10.44793 24.00286,-12.10181 7.87181,-1.65356 15.01245,-2.36093 21.42192,-2.12212 13.04325,0.28694 23.95015,2.3517 32.72075,6.19429 8.77031,3.84291 14.9168,7.74301 18.43949,11.70033 2.89145,3.27412 4.85106,6.59112 5.87883,9.951 1.02743,3.36016 1.66789,6.39038 1.92138,9.0907 0.0954,0.92735 0.30572,1.65384 0.6309,2.17947 0.32484,0.52587 0.87927,0.79352 1.66328,0.80296 0.90794,0.0288 1.55796,-0.31533 1.95005,-1.03238 0.39175,-0.71681 0.58293,-1.97861 0.57355,-3.7854 0.0667,-13.95612 0.33439,-23.49608 0.80296,-28.61991 0.46822,-5.1235 0.73587,-8.12505 0.80297,-9.00466 0.0381,-0.8028 -0.15313,-1.4337 -0.57355,-1.8927 -0.42077,-0.45867 -1.30021,-0.74544 -2.6383,-0.86031 -2.76275,-0.148 -5.84078,-0.48257 -9.23409,-1.00371 -3.39364,-0.5208 -6.35695,-1.02743 -8.88994,-1.51989 -2.71016,-0.55425 -8.0728,-1.28075 -16.08795,-2.17948 -8.01543,-0.89838 -16.18844,-1.39545 -24.51906,-1.49121 -9.6261,-0.21012 -19.56754,0.61196 -29.82435,2.46625 -10.25698,1.85463 -20.88667,6.00327 -31.88912,12.44593 -10.79703,6.35216 -20.05977,15.84432 -27.788264,28.47651 -7.728539,12.63246 -11.772028,28.14684 -12.13048,46.5432 0.267643,21.04422 5.263854,38.19675 14.988644,51.45763 9.72474,13.26096 22.57214,23.00413 38.54224,29.22957 15.96997,6.22544 33.45671,9.307 52.46028,9.2447 9.20049,0.0573 18.78824,-0.68826 28.76329,-2.23683 9.97475,-1.54857 18.8169,-4.24423 26.52647,-8.08699 1.32854,-0.65957 2.16974,-1.46253 2.5236,-2.40889 0.3535,-0.94634 0.50645,-2.89639 0.45883,-5.85016 z"
         style="font-weight:bold;fill:#ffffff;font-family:Trajan Pro;-inkscape-font-specification:Trajan Pro Bold"
         id="path6132"
         inkscape:connector-curvature="0" />
      <path
         d="m 400.04362,649.63534 c 7.57067,0.01 15.14146,-0.41105 22.71239,-1.26181 7.57065,-0.85076 13.76493,-2.18903 18.58287,-4.01481 1.88297,-0.73605 3.22124,-1.55813 4.01481,-2.46625 0.79324,-0.90811 1.44326,-2.30373 1.95006,-4.18687 1.21383,-4.51188 2.3418,-10.22821 3.38391,-17.14901 1.04177,-6.92075 1.5962,-11.37528 1.66328,-13.3636 0.0142,-0.94631 -0.12921,-1.74927 -0.43015,-2.40889 -0.30129,-0.65954 -0.84615,-1.00367 -1.63461,-1.03238 -0.88438,-0.0382 -1.52484,0.2677 -1.92138,0.91767 -0.39687,0.65006 -0.75055,1.87362 -1.06105,3.67069 -0.48291,2.16517 -1.41014,4.66009 -2.7817,7.48477 -1.3719,2.82473 -3.04474,5.37701 -5.01852,7.65682 -4.48815,5.15237 -10.08021,8.61275 -16.7762,10.38117 -6.69628,1.76844 -15.09871,2.59052 -25.20731,2.46625 -10.57033,0.003 -21.36997,-3.01075 -32.39893,-9.04078 -11.02914,-6.02999 -20.3503,-15.09341 -27.96352,-27.19029 -7.61333,-12.09679 -11.58141,-27.24404 -11.90425,-45.44178 -0.16733,-11.25094 1.25698,-22.01446 4.27292,-32.29059 3.01584,-10.27589 8.62701,-19.31878 16.83354,-27.12869 4.96588,-4.60733 10.92119,-8.12507 17.86594,-10.55323 6.94458,-2.42785 15.36613,-3.65141 25.26467,-3.67069 10.70127,0.091 20.1552,1.45792 28.36181,4.10085 8.20633,2.64324 14.27634,6.0176 18.21006,10.12307 2.86756,3.04471 5.04703,6.41907 6.53841,10.12307 1.49106,3.70428 2.29402,7.36541 2.40889,10.98339 -0.0193,1.61562 0.13367,2.85829 0.45884,3.72804 0.32484,0.87 0.93662,1.30972 1.83535,1.31916 1.00353,-0.005 1.69178,-0.45393 2.06476,-1.34783 0.37263,-0.89365 0.60205,-2.20324 0.68825,-3.92879 0.20057,-2.56648 0.31528,-6.3232 0.34413,-11.27016 0.0285,-4.94669 0.14321,-9.44901 0.34413,-13.50699 0.24836,-3.92385 0.4969,-6.80114 0.7456,-8.63186 0.24837,-1.8304 0.38219,-3.15911 0.40149,-3.98614 0.0142,-0.70242 -0.24393,-1.30464 -0.77429,-1.80666 -0.5307,-0.50169 -1.4197,-0.81714 -2.66698,-0.94635 -3.42232,-0.39176 -7.01654,-0.98442 -10.78265,-1.778 -3.76644,-0.79323 -7.81949,-1.5006 -12.15916,-2.12211 -5.11426,-0.69764 -10.19969,-1.25207 -15.25631,-1.66329 -5.05688,-0.41086 -11.05998,-0.62116 -18.00932,-0.63089 -16.94357,0.0671 -31.2344,2.22744 -42.87251,6.48106 -11.63824,4.25396 -21.51277,10.19971 -29.62361,17.83726 -10.754,10.4769 -17.98066,21.52719 -21.68001,33.15091 -3.69938,11.62395 -5.42001,21.52716 -5.1619,29.70965 -0.21988,11.32281 1.71106,22.91797 5.7928,34.78552 4.08171,11.86765 11.63338,22.83191 22.65504,32.89281 10.44803,8.97122 22.24393,15.40448 35.38774,19.2998 13.14366,3.89532 27.57787,5.79758 43.30267,5.70678 z"
         style="font-weight:bold;fill:#ffffff;font-family:Trajan Pro;-inkscape-font-specification:Trajan Pro Bold"
         id="path6134"
         inkscape:connector-curvature="0" />
      <path
         d="m 643.17902,605.81648 c -0.0384,-11.47085 0.0381,-20.64757 0.22942,-27.53017 0.0763,-3.98607 0.78366,-7.02586 2.12212,-9.11937 1.33809,-2.09336 3.53668,-3.41252 6.59577,-3.95746 1.34765,-0.22934 2.49473,-0.40141 3.44127,-0.5162 0.94616,-0.11463 1.86383,-0.17198 2.75302,-0.17206 0.82666,0.01 1.52448,-0.12418 2.09344,-0.40148 0.56857,-0.27713 0.8649,-0.75508 0.88899,-1.43386 -0.005,-0.89847 -0.3969,-1.51025 -1.17577,-1.83535 -0.77926,-0.32492 -1.91679,-0.47787 -3.41259,-0.45883 -3.98608,0.0286 -8.51695,0.14329 -13.5926,0.34392 -5.07601,0.20081 -9.49229,0.3155 -13.24886,0.3441 -3.65175,-0.0286 -8.56513,-0.1433 -14.74017,-0.34413 -6.17533,-0.20066 -12.35051,-0.31537 -18.52555,-0.34413 -1.60623,-0.0189 -2.81078,0.1341 -3.61365,0.45904 -0.80313,0.32512 -1.20463,0.93691 -1.20449,1.83538 0.0142,0.67877 0.32966,1.15672 0.94635,1.43386 0.61643,0.27729 1.44807,0.41112 2.49492,0.40148 1.66315,9e-5 3.32643,0.0574 4.98984,0.17207 1.66315,0.11479 2.9823,0.28685 3.95747,0.51619 3.70878,0.76002 6.27061,2.16521 7.6855,4.21555 1.4146,2.0505 2.14109,5.00426 2.17948,8.86128 0.10978,3.42221 0.17669,7.36055 0.20073,11.81503 0.0238,4.45458 0.0333,9.54002 0.0287,15.2563 l 0,21.56531 c 0.0333,1.95962 -0.26302,3.66114 -0.88899,5.10454 -0.62627,1.44344 -1.78292,2.57141 -3.46995,3.38393 -2.84875,1.20923 -6.04148,1.94527 -9.57821,2.20814 -3.53699,0.26288 -6.84443,0.36803 -9.92233,0.31545 -24.50482,-0.5114 -43.86195,-8.72265 -58.07146,-24.63377 -14.20963,-15.91105 -21.46497,-36.45351 -21.76604,-61.62743 0.0764,-14.01352 1.98825,-25.56088 5.73546,-34.64213 3.7471,-9.08099 8.87077,-16.26942 15.37101,-21.5653 8.12992,-6.414 16.13087,-10.44793 24.00286,-12.10181 7.87181,-1.65356 15.01245,-2.36093 21.42192,-2.12212 13.04325,0.28694 23.95015,2.3517 32.72075,6.19429 8.77031,3.84291 14.9168,7.74301 18.43949,11.70033 2.89145,3.27412 4.85106,6.59112 5.87883,9.951 1.02743,3.36016 1.66789,6.39038 1.92138,9.0907 0.0954,0.92735 0.30572,1.65384 0.6309,2.17947 0.32484,0.52587 0.87927,0.79352 1.66328,0.80296 0.90794,0.0288 1.55796,-0.31533 1.95005,-1.03238 0.39175,-0.71681 0.58293,-1.97861 0.57355,-3.7854 0.0667,-13.95612 0.3344,-23.49608 0.80296,-28.61991 0.46822,-5.1235 0.73587,-8.12505 0.80297,-9.00466 0.0381,-0.8028 -0.15313,-1.4337 -0.57355,-1.8927 -0.42077,-0.45867 -1.30021,-0.74544 -2.6383,-0.86031 -2.76275,-0.148 -5.84078,-0.48257 -9.23409,-1.00371 -3.39364,-0.5208 -6.35695,-1.02743 -8.88994,-1.51989 -2.71016,-0.55425 -8.0728,-1.28075 -16.08795,-2.17948 -8.01543,-0.89838 -16.18844,-1.39545 -24.51906,-1.49121 -9.6261,-0.21012 -19.56754,0.61196 -29.82435,2.46625 -10.25698,1.85463 -20.88667,6.00327 -31.88912,12.44593 -10.79703,6.35216 -20.05977,15.84432 -27.78826,28.47651 -7.72854,12.63246 -11.77203,28.14684 -12.13048,46.5432 0.26764,21.04422 5.26385,38.19675 14.98864,51.45763 9.72474,13.26096 22.57214,23.00413 38.54224,29.22957 15.96997,6.22544 33.45671,9.307 52.46028,9.2447 9.20049,0.0573 18.78824,-0.68826 28.76329,-2.23683 9.97475,-1.54857 18.8169,-4.24423 26.52647,-8.08699 1.32854,-0.65957 2.16974,-1.46253 2.5236,-2.40889 0.3535,-0.94634 0.50645,-2.89639 0.45883,-5.85016 z"
         style="font-weight:bold;fill:#ffffff;font-family:Trajan Pro;-inkscape-font-specification:Trajan Pro Bold"
         id="path6136"
         inkscape:connector-curvature="0" />
    </g>
  </g>
</svg>
