<?xml version="1.0" encoding="UTF-8" standalone="no"?>
<!-- Created with Inkscape (http://www.inkscape.org/) -->

<svg
   xmlns:dc="http://purl.org/dc/elements/1.1/"
   xmlns:cc="http://creativecommons.org/ns#"
   xmlns:rdf="http://www.w3.org/1999/02/22-rdf-syntax-ns#"
   xmlns:svg="http://www.w3.org/2000/svg"
   xmlns="http://www.w3.org/2000/svg"
   xmlns:sodipodi="http://sodipodi.sourceforge.net/DTD/sodipodi-0.dtd"
   xmlns:inkscape="http://www.inkscape.org/namespaces/inkscape"
   version="1.1"
   id="svg2"
   width="324"
   height="324"
   viewBox="0 0 324 324"
   sodipodi:docname="Inter-Agency_Task_Force_on_the_Emerging_Infectious_Diseases_Philippines_logo.svg"
   inkscape:version="0.92.4 (5da689c313, 2019-01-14)">
  <metadata
     id="metadata8">
    <rdf:RDF>
      <cc:Work
         rdf:about="">
        <dc:format>image/svg+xml</dc:format>
        <dc:type
           rdf:resource="http://purl.org/dc/dcmitype/StillImage" />
        <dc:title />
      </cc:Work>
    </rdf:RDF>
  </metadata>
  <defs
     id="defs6">
    <inkscape:path-effect
       effect="spiro"
       id="path-effect42"
       is_visible="true" />
    <ellipse
       style="opacity:0.25;fill:#ff0000;fill-opacity:1;stroke:none;stroke-width:1.08218586;stroke-miterlimit:4;stroke-dasharray:none;stroke-opacity:1"
       id="path24-9"
       cx="-104.09245"
       cy="190.91325"
       transform="matrix(-0.94078807,0.33899528,0.32254334,0.9465547,0,0)"
       rx="160.56659"
       ry="164.10847" />
    <ellipse
       style="opacity:0.25;fill:#ff0000;fill-opacity:1;stroke:none;stroke-width:1.08218586;stroke-miterlimit:4;stroke-dasharray:none;stroke-opacity:1"
       id="ellipse1034-9"
       cx="309.49579"
       cy="18.157291"
       transform="matrix(-0.94078807,0.33899528,0.32254334,0.9465547,0,0)"
       rx="160.56659"
       ry="164.10847" />
  </defs>
  <sodipodi:namedview
     pagecolor="#ffffff"
     bordercolor="#666666"
     borderopacity="1"
     objecttolerance="10"
     gridtolerance="10"
     guidetolerance="10"
     inkscape:pageopacity="0"
     inkscape:pageshadow="2"
     inkscape:window-width="1366"
     inkscape:window-height="705"
     id="namedview4"
     showgrid="false"
     inkscape:zoom="1.654321"
     inkscape:cx="162"
     inkscape:cy="162"
     inkscape:window-x="-8"
     inkscape:window-y="-8"
     inkscape:window-maximized="1"
     inkscape:current-layer="svg2" />
  <path
     id="path16"
     style="fill:#ec1d25;stroke-width:1.33333337;fill-opacity:1"
     d="m 125.33333,64.159291 c 0,-1.997724 2.64239,-3.354918 13,-6.677103 13.11991,-4.208185 16.96543,-6.92836 18.52108,-13.101075 0.77311,-3.067606 4.7961,-5.166512 7.13366,-3.721821 2.20758,1.364363 1.44046,9.120319 -1.21702,12.304732 -1.60093,1.918364 -8.24206,4.858227 -18.82494,8.333333 -8.99326,2.95312 -16.86018,5.36931 -17.48207,5.36931 -0.62189,0 -1.13071,-1.128319 -1.13071,-2.507376 z m -1.02749,7.507376 c 0.74283,-2.344476 37.02749,-14.364856 37.02749,-12.266463 0,2.135765 -5.77614,4.746088 -21.68261,9.798688 -14.50996,4.609009 -16.10456,4.865453 -15.34488,2.467775 z M 106.66667,84.16326 c 0,-1.745437 2.90688,-3.714509 6.66666,-4.515891 3.64322,-0.776534 10.40869,-3.06667 16.67201,-5.64353 2.20294,-0.906335 6.10294,-2.088235 8.66667,-2.626447 4.4209,-0.928093 4.54506,-0.857847 2.40711,1.361953 -1.23983,1.287286 -9.33982,4.644632 -18,7.46077 -18.0194,5.859586 -16.41245,5.471554 -16.41245,3.963145 z m -45.925727,49.29026 c -0.4995,-0.80821 0.66394,-8.81589 2.585422,-17.79483 1.921483,-8.97895 4.392407,-20.525357 5.490942,-25.65869 3.755382,-17.548489 4.807012,-20.458059 8.91182,-24.656556 5.715574,-5.846027 7.809921,-6.765416 37.751863,-16.572548 14.58546,-4.777295 28.36161,-9.305095 30.61368,-10.061776 6.85244,-2.302388 8.572,-1.805599 8.572,2.476501 0,6.397538 -3.86818,9.514382 -17.42523,14.040676 -9.60139,3.20562 -13.38195,3.911274 -15.9884,2.984291 C 116.1737,56.404125 94.223325,63.443691 89.305775,68.456195 84.581216,73.271979 80.521271,88 83.918303,88 c 0.6884,0 1.647228,-2.637995 2.130729,-5.862211 C 87.358415,73.406197 90.83888,68.625741 97.553789,66.33588 100.73254,65.251891 105.43333,63.592639 108,62.648655 c 2.56667,-0.943984 6.76667,-1.776107 9.33333,-1.849162 4.30648,-0.122573 4.69849,0.195954 5.07899,4.12687 C 122.86159,69.567829 119.46141,76 116.55856,76 c -0.99078,0 -3.93252,1.016251 -6.5372,2.258336 -5.04634,2.406431 -5.11474,2.561535 -9.29356,21.074997 -2.61788,11.597997 -7.628431,19.889437 -15.697359,25.975907 -8.678762,6.54648 -22.427814,11.15655 -24.289498,8.14428 z" />
  <path
     inkscape:connector-curvature="0"
     id="path16-0"
     style="fill:#2f309b;stroke-width:1.33333337;fill-opacity:1"
     d="m 238.46091,109.23262 c 1.99464,0.11119 3.20265,2.82502 5.94321,13.35147 3.47146,13.33379 5.97337,17.32474 12.04995,19.22154 3.01982,0.94263 4.89157,5.07621 3.319,7.32975 -1.4851,2.12821 -9.18634,0.93062 -12.21791,-1.89998 -1.82628,-1.70522 -4.39198,-8.49967 -7.27267,-19.25956 -2.44801,-9.14369 -4.42262,-17.1329 -4.38799,-17.75382 0.0346,-0.62093 1.18951,-1.06615 2.56641,-0.9894 z m -7.43855,-1.44374 c 2.2995,0.87217 12.28175,37.76961 10.18662,37.65281 -2.13244,-0.11887 -4.41725,-6.03133 -8.57672,-22.19437 -3.79429,-14.74398 -3.96158,-16.35039 -1.6099,-15.45844 z M 219.52687,89.481527 c 1.74273,0.09711 3.54697,3.109115 4.13786,6.907666 0.57255,3.680787 2.48261,10.563247 4.70687,16.960267 0.78232,2.24998 1.74532,6.20972 2.14,8.79942 0.68061,4.46571 0.60356,4.58576 -1.4938,2.32759 -1.21629,-1.30956 -4.11762,-9.58386 -6.44739,-18.38735 -4.8476,-18.317616 -4.5496,-16.691552 -3.04354,-16.607593 z M 172.86909,40.883652 c 0.83477,-0.453738 8.76528,1.153567 17.62336,3.571813 8.85809,2.418246 20.24906,5.527974 25.3133,6.910525 17.31228,4.726238 20.1588,5.938173 24.12234,10.270299 5.51885,6.032086 6.32025,8.174361 14.44572,38.615721 3.95811,14.82875 7.71214,28.83555 8.34232,31.12624 1.91744,6.96996 1.3257,8.6592 -2.94976,8.42087 -6.38763,-0.35606 -9.28434,-4.39171 -13.04908,-18.17967 -2.66626,-9.76491 -3.16041,-13.5789 -2.0898,-16.12971 2.08636,-4.97093 -3.7206,-27.279075 -8.45164,-32.46799 -4.54538,-4.985271 -19.02461,-9.858639 -19.21368,-6.466863 -0.0383,0.687314 2.54224,1.791495 5.73455,2.453689 8.64519,1.793328 13.22451,5.534469 15.13709,12.366412 0.9054,3.234145 2.30044,8.020011 3.10012,10.63524 0.79966,2.615219 1.39674,6.85503 1.32681,9.421782 -0.11729,4.30662 -0.45713,4.68029 -4.40315,4.84144 -4.65926,0.19024 -10.89222,-3.56266 -10.73068,-6.461024 0.0551,-0.989246 -0.79579,-3.982984 -1.89097,-6.652759 -2.12184,-5.172451 -2.2729,-5.249377 -20.52508,-10.452124 -11.43432,-3.259331 -19.43404,-8.723577 -25.06199,-17.118753 -6.0533,-9.029679 -9.89099,-23.013992 -6.77978,-24.705138 z" />
  <path
     inkscape:connector-curvature="0"
     id="path16-0-2"
     style="fill:#009447;stroke-width:1.33333337;fill-opacity:1"
     d="m 197.8151,226.99096 c -0.0839,1.99598 -2.781,3.24096 -13.26902,6.1251 -13.28511,3.65332 -17.2415,6.20953 -19.05509,12.31147 -0.90128,3.03241 -5.00889,4.96047 -7.28372,3.41885 -2.1483,-1.45589 -1.05605,-9.17278 1.73286,-12.24273 1.68011,-1.84942 8.43887,-4.50772 19.15838,-7.53517 9.10939,-2.57272 17.07088,-4.65632 17.69221,-4.63017 0.62135,0.0261 1.08231,1.17483 1.02438,2.55265 z m 1.34196,-7.45759 c -0.84067,2.31121 -37.59826,12.79671 -37.51011,10.70017 0.0897,-2.13386 5.97042,-4.49924 22.07511,-8.87918 14.69075,-3.99541 16.29473,-4.18463 15.435,-1.82099 z m 18.14856,-11.74457 c -0.0733,1.7439 -3.06035,3.58913 -6.85048,4.23187 -3.67261,0.62279 -10.52833,2.62671 -16.89436,4.93818 -2.23908,0.81299 -6.1853,1.83001 -8.76936,2.26003 -4.45599,0.74157 -4.57709,0.66617 -2.34778,-1.46185 1.29281,-1.23407 9.52669,-4.24819 18.29753,-6.69804 18.24967,-5.09744 16.62782,-4.77725 16.56445,-3.27019 z m 47.9558,-47.31747 c 0.4651,0.82848 -1.03369,8.78022 -3.33067,17.67051 -2.29698,8.89031 -5.25077,20.32271 -6.56399,25.40537 -4.48924,17.37524 -5.66217,20.23806 -9.93973,24.26043 -5.95611,5.60075 -8.08724,6.43135 -38.41472,14.97202 -14.77329,4.16037 -28.72748,8.10544 -31.00934,8.76686 -6.94311,2.01251 -8.64028,1.4439 -8.4604,-2.83442 0.26874,-6.39189 4.26444,-9.34349 17.99967,-13.29627 9.72756,-2.79945 13.53445,-3.34567 16.09965,-2.31001 4.99897,2.01825 27.22569,-4.093 32.34948,-8.8945 4.92269,-4.61307 9.59775,-19.15755 6.2037,-19.30026 -0.68777,-0.0289 -1.75658,2.56649 -2.3751,5.76755 -1.67502,8.66888 -5.35323,13.2989 -12.15841,15.30466 -3.22147,0.9495 -7.98783,2.40981 -10.5919,3.24515 -2.60404,0.83532 -6.8353,1.49027 -9.40276,1.45542 -4.30783,-0.0581 -4.68611,-0.39313 -4.90115,-4.33658 -0.25389,-4.65623 3.41349,-10.93988 6.31378,-10.81796 0.98992,0.0416 3.97175,-0.85014 6.6263,-1.9817 5.14298,-2.19232 5.21784,-2.34442 10.1707,-20.66598 3.10279,-11.4778 8.4572,-19.55143 16.77469,-25.29357 8.94613,-6.17612 22.87669,-10.20453 24.6102,-7.11672 z" />
  <path
     inkscape:connector-curvature="0"
     id="path16-0-2-6"
     style="fill:#f7921e;stroke-width:1.33333337;fill-opacity:1"
     d="m 83.615895,184.39713 c -1.996498,-0.0705 -3.259565,-2.75917 -6.21408,-13.22758 -3.742465,-13.26027 -6.325189,-17.19941 -12.439172,-18.97198 -3.038395,-0.8809 -4.993999,-4.97546 -3.467692,-7.2606 1.441428,-2.15803 9.16548,-1.11763 12.254091,1.6506 1.860664,1.66766 4.564298,8.4084 7.663674,19.10734 2.633843,9.0919 4.770868,17.03923 4.748895,17.66073 -0.02196,0.6215 -1.167538,1.09016 -2.545716,1.04149 z m 7.466436,1.29185 c -2.316808,-0.82514 -13.048943,-37.51147 -10.951859,-37.4374 2.134412,0.0754 4.539238,5.94005 9.027238,22.01497 4.093993,14.66358 4.293983,16.26626 1.924621,15.42243 z m 11.866199,18.06926 c -1.74435,-0.0616 -3.609606,-3.03617 -4.277784,-6.8219 -0.647445,-3.66834 -2.697367,-10.51045 -5.051541,-16.86081 -0.828006,-2.23357 -1.871514,-6.17287 -2.318878,-8.754 -0.771483,-4.45091 -0.696892,-4.5725 1.44605,-2.35753 1.242725,1.28449 4.312074,9.49795 6.820788,18.25214 5.219895,18.21501 4.888825,16.59535 3.381365,16.5421 z m 47.63849,47.63692 c -0.82534,0.47065 -8.78696,-0.97471 -17.69248,-3.21192 -8.90554,-2.23722 -20.35752,-5.11415 -25.44889,-6.3932 -17.405,-4.37244 -20.275628,-5.52612 -24.326644,-9.77657 -5.640624,-5.91835 -6.485519,-8.04386 -15.229683,-38.31329 -4.259498,-14.74503 -8.298199,-28.67241 -8.97493,-30.94977 -2.059098,-6.92944 -1.5019,-8.63039 2.777533,-8.47924 6.393551,0.2258 9.37192,4.20158 13.416862,17.90995 2.864719,9.70856 3.436495,13.51169 2.418086,16.08379 -1.984629,5.01241 4.275765,27.19758 9.111566,32.28901 4.646034,4.89159 19.22159,9.46886 19.3415,6.07393 0.0243,-0.68794 -2.57823,-1.7393 -5.78337,-2.33631 -8.679941,-1.61675 -13.33456,-5.26379 -15.385982,-12.05534 -0.971121,-3.21502 -2.463405,-7.97147 -3.316216,-10.56987 -0.85279,-2.59837 -1.536144,-6.82514 -1.518538,-9.39277 0.02916,-4.30813 0.361646,-4.68865 4.303563,-4.93017 4.654418,-0.28516 10.962557,3.33994 10.860121,6.24099 -0.03494,0.99017 0.876795,3.96594 2.026163,6.61283 2.226822,5.12814 2.379408,5.20199 20.733829,10.03167 11.49837,3.02563 19.60779,8.3257 25.40565,16.60444 6.23607,8.90445 10.35796,22.80762 7.28186,24.56184 z" />
  <g
     aria-label="IATF"
     style="font-style:normal;font-variant:normal;font-weight:normal;font-stretch:normal;font-size:40px;line-height:1.25;font-family:'Futura Condensed PT';-inkscape-font-specification:'Futura Condensed PT';letter-spacing:0px;word-spacing:0px;fill:#000000;fill-opacity:1;stroke:none"
     id="text14">
    <path
       d="m 113.39791,178.77678 v -71.14667 h -9.6 v 71.14667 z"
       style="font-size:106.66666412px"
       id="path1476" />
    <path
       d="m 157.27624,178.77678 -15.14666,-71.14667 h -7.57334 l -15.46666,71.14667 h 9.28 l 2.66666,-13.86667 h 14.08 l 2.66667,13.86667 z m -24.85333,-21.22667 c 2.24,-11.94666 4.58667,-23.89333 5.76,-36.05333 1.28,12.05333 3.41333,24.10667 5.54667,36.05333 z"
       style="font-size:106.66666412px"
       id="path1478" />
    <path
       d="m 185.95791,116.05678 v -8.42667 h -31.14667 v 8.42667 h 10.88 v 62.72 h 9.38667 v -62.72 z"
       style="font-size:106.66666412px"
       id="path1480" />
    <path
       d="m 216.68957,115.73678 v -8.10667 h -25.6 v 71.14667 h 9.6 v -32.42667 h 14.50667 v -8.10666 h -14.50667 v -22.50667 z"
       style="font-size:106.66666412px"
       id="path1482" />
  </g>
  <g
     id="g1641">
    <path
       d="m 10.824732,199.05749 16.802654,-5.83406 -0.787206,-2.26723 -16.802653,5.83407 z"
       style="font-style:normal;font-variant:normal;font-weight:normal;font-stretch:normal;font-size:26.66666603px;line-height:1.25;font-family:'Futura Condensed PT';-inkscape-font-specification:'Futura Condensed PT';letter-spacing:0px;word-spacing:0px;fill:#000000;fill-opacity:1;stroke:none"
       id="path1051"
       inkscape:connector-curvature="0" />
    <path
       d="m 14.294975,208.10371 8.180492,-3.24339 c 1.561731,-0.61919 2.946112,-1.54099 2.189323,-3.44977 -0.452108,-1.14031 -1.223529,-1.49424 -2.366789,-1.70074 l 1.289047,-0.51108 -0.805932,-2.03273 -11.080849,4.39331 0.805932,2.03273 7.164128,-2.84042 c 0.941996,-0.37348 2.305412,-0.91404 2.816491,0.375 0.452108,1.14031 -0.752743,1.6467 -1.808858,2.09411 l -7.188917,2.85025 z"
       style="font-style:normal;font-variant:normal;font-weight:normal;font-stretch:normal;font-size:26.66666603px;line-height:1.25;font-family:'Futura Condensed PT';-inkscape-font-specification:'Futura Condensed PT';letter-spacing:0px;word-spacing:0px;fill:#000000;fill-opacity:1;stroke:none"
       id="path1053"
       inkscape:connector-curvature="0" />
    <path
       d="m 26.12243,209.54145 1.557653,-0.69745 -0.490389,-1.09522 3.090968,-1.38399 -0.893599,-1.99574 -3.090968,1.38398 -0.501287,-1.11956 -1.557654,0.69744 0.501287,1.11957 -9.321582,4.17376 0.893599,1.99574 9.321582,-4.17376 z"
       style="font-style:normal;font-variant:normal;font-weight:normal;font-stretch:normal;font-size:26.66666603px;line-height:1.25;font-family:'Futura Condensed PT';-inkscape-font-specification:'Futura Condensed PT';letter-spacing:0px;word-spacing:0px;fill:#000000;fill-opacity:1;stroke:none"
       id="path1055"
       inkscape:connector-curvature="0" />
    <path
       d="m 25.345257,218.58585 c 2.219562,-1.10632 5.799798,-3.12922 4.300913,-6.13637 -1.475094,-2.95942 -4.923359,-1.56841 -7.142921,-0.46209 -2.291161,1.142 -5.334518,2.98669 -3.835632,5.99384 0.5829,1.16945 1.655318,1.88633 2.955248,1.8641 0.858664,-0.0109 1.574577,-0.30811 2.350194,-0.66491 l -0.915986,-1.8377 c -0.787587,0.39256 -2.159636,0.86788 -2.683056,-0.18223 -0.678067,-1.36038 1.804023,-2.59756 2.734808,-3.0615 z M 24.5408,213.38524 c 0.835245,-0.35673 2.82804,-1.32023 3.41094,-0.15078 0.594796,1.19331 -1.362238,2.16878 -2.173765,2.63287 z"
       style="font-style:normal;font-variant:normal;font-weight:normal;font-stretch:normal;font-size:26.66666603px;line-height:1.25;font-family:'Futura Condensed PT';-inkscape-font-specification:'Futura Condensed PT';letter-spacing:0px;word-spacing:0px;fill:#000000;fill-opacity:1;stroke:none"
       id="path1057"
       inkscape:connector-curvature="0" />
    <path
       d="m 34.333628,221.03281 c -0.71761,-1.12659 -1.492081,-1.36737 -2.794904,-1.40604 l 1.305309,-0.72541 -1.062199,-1.91134 -10.419167,5.79028 1.062199,1.91134 6.316766,-3.51044 c 1.398546,-0.77721 2.53557,-0.98199 3.416418,0.60303 0.06477,0.11655 0.129536,0.23309 0.170995,0.36259 z"
       style="font-style:normal;font-variant:normal;font-weight:normal;font-stretch:normal;font-size:26.66666603px;line-height:1.25;font-family:'Futura Condensed PT';-inkscape-font-specification:'Futura Condensed PT';letter-spacing:0px;word-spacing:0px;fill:#000000;fill-opacity:1;stroke:none"
       id="path1059"
       inkscape:connector-curvature="0" />
    <path
       d="m 31.590494,228.30581 -2.155877,-3.52656 -1.774657,1.08489 2.155878,3.52656 z"
       style="font-style:normal;font-variant:normal;font-weight:normal;font-stretch:normal;font-size:26.66666603px;line-height:1.25;font-family:'Futura Condensed PT';-inkscape-font-specification:'Futura Condensed PT';letter-spacing:0px;word-spacing:0px;fill:#000000;fill-opacity:1;stroke:none"
       id="path1061"
       inkscape:connector-curvature="0" />
    <path
       d="m 31.622939,242.22454 12.857191,-13.5236 -1.098393,-1.60244 -17.297173,7.0461 1.345918,1.96356 3.320816,-1.4469 2.042082,2.97919 -2.547301,2.57539 z m 0.886782,-8.33733 c 2.852681,-1.25871 5.720832,-2.49485 8.463948,-4.0102 -2.364729,2.01898 -4.605697,4.21852 -6.824094,6.40259 z"
       style="font-style:normal;font-variant:normal;font-weight:normal;font-stretch:normal;font-size:26.66666603px;line-height:1.25;font-family:'Futura Condensed PT';-inkscape-font-specification:'Futura Condensed PT';letter-spacing:0px;word-spacing:0px;fill:#000000;fill-opacity:1;stroke:none;stroke-width:1.02610385"
       id="path1063"
       inkscape:connector-curvature="0" />
    <path
       d="m 46.380772,241.30156 -1.39022,-1.7959 -1.168411,0.90448 c 0.43906,-0.99734 0.683385,-1.84394 -0.03685,-2.77434 -1.808962,-2.33683 -5.179485,0.23773 -6.845554,1.52746 -1.622794,1.25622 -4.92143,3.87894 -3.129219,6.19413 0.720235,0.9304 1.629658,0.98767 2.698231,0.71414 l -2.077176,1.60796 c -0.800579,0.61974 -1.721205,1.2632 -2.525188,0.22461 -0.736984,-0.95203 -0.130428,-1.73301 0.670151,-2.35275 l -1.339972,-1.73097 c -0.108186,0.0837 -0.233121,0.14585 -0.341307,0.2296 -1.644432,1.27297 -1.872062,3.21395 -0.599089,4.85838 1.825711,2.35846 3.578272,2.07449 5.763635,0.38277 z m -6.090391,1.87716 c -0.497657,0.38524 -0.973676,0.75374 -1.488083,1.11734 -0.747528,0.50947 -2.100899,1.48792 -2.854633,0.51424 -0.921231,-1.19004 1.312293,-2.95365 2.112872,-3.57339 0.843852,-0.65322 3.599472,-2.994 4.554201,-1.76068 0.921231,1.19005 -1.502141,3.06601 -2.324357,3.70249 z"
       style="font-style:normal;font-variant:normal;font-weight:normal;font-stretch:normal;font-size:26.66666603px;line-height:1.25;font-family:'Futura Condensed PT';-inkscape-font-specification:'Futura Condensed PT';letter-spacing:0px;word-spacing:0px;fill:#000000;fill-opacity:1;stroke:none;stroke-width:1.02610385"
       id="path1065"
       inkscape:connector-curvature="0" />
    <path
       d="m 47.10315,252.22458 c 1.923004,-1.66665 4.963964,-4.59192 2.705912,-7.19728 -2.22221,-2.564 -5.293508,-0.30042 -7.216511,1.36623 -1.985036,1.72043 -4.538007,4.33138 -2.279954,6.93674 0.878131,1.01319 2.127074,1.45153 3.413224,1.09724 0.850541,-0.23023 1.486029,-0.70859 2.165629,-1.26138 l -1.379921,-1.59216 c -0.682356,0.59139 -1.924386,1.41439 -2.712912,0.50457 -1.0215,-1.17861 1.128955,-3.04239 1.935377,-3.74132 z m -2.128509,-4.96262 c 0.738875,-0.56796 2.473026,-2.03473 3.351157,-1.02154 0.896053,1.03387 -0.799499,2.5034 -1.487368,3.172 z"
       style="font-style:normal;font-variant:normal;font-weight:normal;font-stretch:normal;font-size:26.66666603px;line-height:1.25;font-family:'Futura Condensed PT';-inkscape-font-specification:'Futura Condensed PT';letter-spacing:0px;word-spacing:0px;fill:#000000;fill-opacity:1;stroke:none;stroke-width:1.02610385"
       id="path1067"
       inkscape:connector-curvature="0" />
    <path
       d="m 49.229162,262.613 6.47986,-6.28865 c 1.237065,-1.20057 2.187122,-2.61828 0.71977,-4.13025 -0.8766,-0.90326 -1.746891,-0.93564 -2.911721,-0.68217 l 1.021069,-0.99094 -1.562634,-1.61015 -8.777266,8.51827 1.562635,1.61014 5.674787,-5.50733 c 0.746166,-0.72415 1.826142,-1.77226 2.817082,-0.75119 0.876599,0.90326 -0.0665,1.85666 -0.891794,2.69573 l -5.694422,5.52639 z"
       style="font-style:normal;font-variant:normal;font-weight:normal;font-stretch:normal;font-size:26.66666603px;line-height:1.25;font-family:'Futura Condensed PT';-inkscape-font-specification:'Futura Condensed PT';letter-spacing:0px;word-spacing:0px;fill:#000000;fill-opacity:1;stroke:none;stroke-width:1.02610385"
       id="path1069"
       inkscape:connector-curvature="0" />
    <path
       d="m 56.36643,266.00905 c -0.465443,-0.0222 -0.817615,-0.12585 -1.158005,-0.44288 -1.301492,-1.21222 0.709904,-3.45204 1.56778,-4.3731 0.876525,-0.94109 2.780145,-2.94475 4.121682,-1.69523 0.360413,0.33569 0.470142,0.69964 0.429301,1.18511 l 1.566556,-1.68193 c -0.236734,-0.66921 -0.46248,-1.02905 -0.983077,-1.51393 -2.482845,-2.31254 -5.314024,0.28553 -7.048425,2.14766 -1.678452,1.80207 -3.971758,4.82632 -1.589026,7.04561 0.540619,0.50354 0.91556,0.70319 1.657205,0.87046 z"
       style="font-style:normal;font-variant:normal;font-weight:normal;font-stretch:normal;font-size:26.66666603px;line-height:1.25;font-family:'Futura Condensed PT';-inkscape-font-specification:'Futura Condensed PT';letter-spacing:0px;word-spacing:0px;fill:#000000;fill-opacity:1;stroke:none;stroke-width:1.02610385"
       id="path1071"
       inkscape:connector-curvature="0" />
    <path
       d="m 69.855603,264.62109 -1.755142,-1.48406 -7.121128,5.15871 4.154104,-7.66749 -1.964087,-1.66074 -4.774877,10.69008 -5.441025,3.426 1.817825,1.53706 z"
       style="font-style:normal;font-variant:normal;font-weight:normal;font-stretch:normal;font-size:26.66666603px;line-height:1.25;font-family:'Futura Condensed PT';-inkscape-font-specification:'Futura Condensed PT';letter-spacing:0px;word-spacing:0px;fill:#000000;fill-opacity:1;stroke:none;stroke-width:1.02610385"
       id="path1073"
       inkscape:connector-curvature="0" />
    <path
       d="m 81.961779,270.56651 1.21447,-1.72137 -6.362522,-4.48893 -1.214471,1.72137 2.222525,1.56805 -9.039349,12.8122 1.917473,1.35283 9.039349,-12.8122 z"
       style="font-style:normal;font-variant:normal;font-weight:normal;font-stretch:normal;font-size:26.66666603px;line-height:1.25;font-family:'Futura Condensed PT';-inkscape-font-specification:'Futura Condensed PT';letter-spacing:0px;word-spacing:0px;fill:#000000;fill-opacity:1;stroke:none"
       id="path1075"
       inkscape:connector-curvature="0" />
    <path
       d="m 79.1426,287.30036 6.366019,-10.0777 -1.871252,-1.18206 -0.726325,1.1498 c 0.09264,-1.04543 -0.07579,-1.87728 -1.000146,-2.46119 -2.389792,-1.50962 -4.57113,1.84368 -5.639254,3.53457 -1.053882,1.66835 -3.338485,5.33491 -0.948693,6.84453 1.03708,0.65511 1.835722,0.33953 2.760173,-0.27508 l -0.811774,1.28508 z m 1.030472,-5.62583 c -0.498458,0.78909 -1.924988,2.94749 -3.074794,2.22116 -1.172351,-0.74056 0.06431,-2.79811 0.577007,-3.60974 l 0.868741,-1.37526 c 0.512699,-0.81163 1.825297,-2.78967 2.997648,-2.0491 1.149805,0.72632 -0.186545,2.94169 -0.685002,3.73077 z"
       style="font-style:normal;font-variant:normal;font-weight:normal;font-stretch:normal;font-size:26.66666603px;line-height:1.25;font-family:'Futura Condensed PT';-inkscape-font-specification:'Futura Condensed PT';letter-spacing:0px;word-spacing:0px;fill:#000000;fill-opacity:1;stroke:none"
       id="path1077"
       inkscape:connector-curvature="0" />
    <path
       d="m 91.050551,280.63833 c -0.387741,-0.61598 -0.820547,-1.04313 -1.471257,-1.40931 -1.673257,-0.9416 -3.455729,-0.38411 -4.384252,1.26591 -1.595492,2.83524 1.540362,4.87529 0.48106,6.7577 -0.470801,0.83663 -1.243629,1.01371 -2.057018,0.55599 -0.627471,-0.3531 -0.948408,-0.8703 -1.227197,-1.51676 l -1.046224,1.85917 c 0.418227,0.72493 0.701433,1.0373 1.421862,1.44271 1.835934,1.03315 3.680879,0.41902 4.700948,-1.39368 1.66088,-2.95144 -1.441572,-4.94209 -0.486893,-6.63858 0.379257,-0.67395 1.234882,-0.83504 1.885593,-0.46886 0.534512,0.30078 0.941163,0.77441 1.176387,1.33517 z"
       style="font-style:normal;font-variant:normal;font-weight:normal;font-stretch:normal;font-size:26.66666603px;line-height:1.25;font-family:'Futura Condensed PT';-inkscape-font-specification:'Futura Condensed PT';letter-spacing:0px;word-spacing:0px;fill:#000000;fill-opacity:1;stroke:none"
       id="path1079"
       inkscape:connector-curvature="0" />
    <path
       d="m 94.421985,295.44142 -0.311013,-7.3934 5.265152,-3.4557 -2.220108,-1.10522 -4.800215,3.35948 5.644976,-11.33926 -1.957514,-0.9745 -8.663552,17.40277 1.957514,0.97451 2.590746,-5.20412 0.202291,6.59456 z"
       style="font-style:normal;font-variant:normal;font-weight:normal;font-stretch:normal;font-size:26.66666603px;line-height:1.25;font-family:'Futura Condensed PT';-inkscape-font-specification:'Futura Condensed PT';letter-spacing:0px;word-spacing:0px;fill:#000000;fill-opacity:1;stroke:none"
       id="path1081"
       inkscape:connector-curvature="0" />
    <path
       d="m 113.96092,286.14103 0.76335,-1.90573 -6.23108,-2.32816 -6.69936,16.72525 2.33665,0.87306 3.05338,-7.6229 3.53095,1.31929 0.76334,-1.90573 -3.53094,-1.31929 2.11928,-5.29089 z"
       style="font-style:normal;font-variant:normal;font-weight:normal;font-stretch:normal;font-size:26.66666603px;line-height:1.25;font-family:'Futura Condensed PT';-inkscape-font-specification:'Futura Condensed PT';letter-spacing:0px;word-spacing:0px;fill:#000000;fill-opacity:1;stroke:none;stroke-width:1.02592468"
       id="path1083"
       inkscape:connector-curvature="0" />
    <path
       d="m 118.2282,297.8916 c 0.83777,-2.47928 1.6246,-6.02104 -1.73636,-7.08043 -3.36095,-1.05938 -4.86231,2.25717 -5.70008,4.73645 -0.83778,2.47929 -1.61597,5.99549 1.71852,7.04653 3.36096,1.05938 4.88015,-2.22326 5.71792,-4.70255 z m -2.50048,-0.0528 c -0.31092,0.92015 -1.12334,3.23772 -2.49948,2.80397 -1.37614,-0.43377 -0.60801,-2.79359 -0.29709,-3.71374 l 0.46638,-1.38021 c 0.31094,-0.92015 1.12335,-3.23774 2.49949,-2.80397 1.37614,0.43375 0.60801,2.79358 0.29709,3.71373 z"
       style="font-style:normal;font-variant:normal;font-weight:normal;font-stretch:normal;font-size:26.66666603px;line-height:1.25;font-family:'Futura Condensed PT';-inkscape-font-specification:'Futura Condensed PT';letter-spacing:0px;word-spacing:0px;fill:#000000;fill-opacity:1;stroke:none;stroke-width:1.02592468"
       id="path1085"
       inkscape:connector-curvature="0" />
    <path
       d="m 126.5475,293.56149 c -1.3648,-0.27606 -2.10952,0.11292 -3.08871,1.02538 l 0.41039,-1.45254 -2.2022,-0.58037 -3.27571,11.5943 2.2022,0.58037 1.98594,-7.0292 c 0.43969,-1.55629 1.11613,-2.52066 2.94235,-2.03937 0.13428,0.0354 0.26856,0.0708 0.39551,0.13211 z"
       style="font-style:normal;font-variant:normal;font-weight:normal;font-stretch:normal;font-size:26.66666603px;line-height:1.25;font-family:'Futura Condensed PT';-inkscape-font-specification:'Futura Condensed PT';letter-spacing:0px;word-spacing:0px;fill:#000000;fill-opacity:1;stroke:none;stroke-width:1.02592468"
       id="path1087"
       inkscape:connector-curvature="0" />
    <path
       d="m 130.23596,304.55819 c -0.421,0.21047 -0.78387,0.29588 -1.24522,0.19407 -1.76402,-0.38925 -1.13625,-3.28443 -0.85103,-4.49013 0.29141,-1.23192 0.94479,-3.87324 2.76307,-3.47201 0.48849,0.10779 0.77076,0.36313 0.98248,0.79595 l 0.52083,-2.20172 c -0.54979,-0.45226 -0.93206,-0.64693 -1.63767,-0.80263 -3.36519,-0.74256 -4.53176,2.8611 -5.10839,5.29872 -0.55803,2.35898 -1.03375,6.05993 2.19575,6.77255 0.73275,0.16169 1.16463,0.14667 1.90276,-0.0765 z"
       style="font-style:normal;font-variant:normal;font-weight:normal;font-stretch:normal;font-size:26.66666603px;line-height:1.25;font-family:'Futura Condensed PT';-inkscape-font-specification:'Futura Condensed PT';letter-spacing:0px;word-spacing:0px;fill:#000000;fill-opacity:1;stroke:none;stroke-width:1.02592468"
       id="path1089"
       inkscape:connector-curvature="0" />
    <path
       d="m 139.56264,302.95727 c 0.45078,-2.46223 0.97794,-6.57693 -2.47606,-7.1668 -3.39917,-0.58049 -4.37446,3.04813 -4.82525,5.51036 -0.46532,2.54166 -0.80844,6.11442 2.64555,6.70428 1.34322,0.22939 2.61089,-0.20941 3.39982,-1.27602 0.52434,-0.70226 0.71975,-1.46069 0.90227,-2.30322 l -2.11078,-0.36048 c -0.15996,0.8737 -0.61359,2.27061 -1.81975,2.06463 -1.56252,-0.26684 -1.05842,-3.02031 -0.86939,-4.05286 z m -4.86276,-2.46864 c 0.21963,-0.89082 0.64935,-3.08362 1.99258,-2.85422 1.37063,0.23407 0.97316,2.40507 0.85834,3.34109 z"
       style="font-style:normal;font-variant:normal;font-weight:normal;font-stretch:normal;font-size:26.66666603px;line-height:1.25;font-family:'Futura Condensed PT';-inkscape-font-specification:'Futura Condensed PT';letter-spacing:0px;word-spacing:0px;fill:#000000;fill-opacity:1;stroke:none;stroke-width:1.02592468"
       id="path1091"
       inkscape:connector-curvature="0" />
    <path
       d="m 177.2804,309.93129 -0.2,-2.02462 -4.09897,0.37971 -0.59737,-6.0472 3.63129,-0.33639 -0.2,-2.0246 -3.63129,0.33638 -0.55791,-5.64761 4.09897,-0.37971 -0.2,-2.0246 -6.57486,0.60905 1.75528,17.76864 z"
       style="font-style:normal;font-variant:normal;font-weight:normal;font-stretch:normal;font-size:26.66666603px;line-height:1.25;font-family:'Futura Condensed PT';-inkscape-font-specification:'Futura Condensed PT';letter-spacing:0px;word-spacing:0px;fill:#000000;fill-opacity:1;stroke:none;stroke-width:1.01980627"
       id="path1097"
       inkscape:connector-curvature="0" />
    <path
       d="m 191.34608,307.77405 -1.65679,-9.39094 c -0.28853,-1.6355 -1.35502,-2.43643 -3.07119,-2.15251 -1.30756,0.21632 -1.85895,0.90482 -2.24484,2.05463 -0.60408,-1.04032 -1.24197,-1.47778 -2.4678,-1.27497 -1.22585,0.2028 -1.68155,0.95691 -2.08141,2.02758 l -0.25597,-1.45085 -2.23374,0.36954 2.08029,11.79144 2.23374,-0.36954 -1.36824,-7.75545 c -0.1815,-1.02877 -0.45007,-2.2332 0.93921,-2.46304 1.33481,-0.22082 1.50836,1.08076 1.6759,2.0304 l 1.36825,7.75545 2.23373,-0.36955 -1.36824,-7.75544 c -0.18149,-1.02879 -0.45006,-2.2332 0.96646,-2.46755 1.3348,-0.22083 1.48112,1.08526 1.64865,2.03491 l 1.36825,7.75544 z"
       style="font-style:normal;font-variant:normal;font-weight:normal;font-stretch:normal;font-size:26.66666603px;line-height:1.25;font-family:'Futura Condensed PT';-inkscape-font-specification:'Futura Condensed PT';letter-spacing:0px;word-spacing:0px;fill:#000000;fill-opacity:1;stroke:none;stroke-width:1.01980627"
       id="path1099"
       inkscape:connector-curvature="0" />
    <path
       d="m 199.44532,300.12322 c -0.61843,-2.41567 -1.85706,-6.3643 -5.23682,-5.55294 -3.32611,0.79848 -2.69687,4.47983 -2.07844,6.89551 0.63837,2.49359 1.81784,5.87743 5.1976,5.06607 1.31434,-0.31552 2.28134,-1.20937 2.55205,-2.4875 0.18269,-0.84343 0.0435,-1.60958 -0.14247,-2.44722 l -2.06542,0.49583 c 0.21945,0.85717 0.39076,2.3049 -0.78947,2.58823 -1.52894,0.36704 -2.2205,-2.33436 -2.47984,-3.34738 z m -5.44179,-0.3479 c -0.17245,-0.89602 -0.69754,-3.05839 0.6168,-3.37391 1.34118,-0.32197 1.88645,1.80798 2.17284,2.70423 z"
       style="font-style:normal;font-variant:normal;font-weight:normal;font-stretch:normal;font-size:26.66666603px;line-height:1.25;font-family:'Futura Condensed PT';-inkscape-font-specification:'Futura Condensed PT';letter-spacing:0px;word-spacing:0px;fill:#000000;fill-opacity:1;stroke:none;stroke-width:1.01980627"
       id="path1101"
       inkscape:connector-curvature="0" />
    <path
       d="m 203.91078,291.84692 c -1.30012,0.46018 -1.71641,1.16726 -2.04589,2.43576 l -0.44328,-1.43584 -2.17115,0.62855 3.53826,11.46108 2.17116,-0.62855 -2.14512,-6.94844 c -0.47494,-1.53839 -0.42879,-2.69695 1.37169,-3.21818 0.13239,-0.0383 0.26477,-0.0767 0.40508,-0.0893 z"
       style="font-style:normal;font-variant:normal;font-weight:normal;font-stretch:normal;font-size:26.66666603px;line-height:1.25;font-family:'Futura Condensed PT';-inkscape-font-specification:'Futura Condensed PT';letter-spacing:0px;word-spacing:0px;fill:#000000;fill-opacity:1;stroke:none;stroke-width:1.01980627"
       id="path1103"
       inkscape:connector-curvature="0" />
    <path
       d="m 211.59788,289.53994 -2.16287,0.73956 0.49687,1.36265 c -0.81715,-0.71391 -1.5515,-1.2007 -2.67202,-0.81754 -2.81433,0.96232 -1.41416,4.88254 -0.70565,6.82558 0.69011,1.89257 2.15926,5.76083 4.94753,4.80741 1.12052,-0.38314 1.46377,-1.21002 1.54025,-2.28627 l 0.88335,2.4225 c 0.34045,0.93367 0.66559,1.98609 -0.58522,2.4138 -1.14657,0.39205 -1.70315,-0.41096 -2.04361,-1.34463 l -2.08469,0.71284 c 0.046,0.12617 0.0659,0.26126 0.11197,0.38742 0.69931,1.91781 2.48837,2.72509 4.46882,2.0479 2.8404,-0.97123 3.12372,-2.68581 2.19437,-5.23447 z m -0.13089,6.23172 c 0.21164,0.58039 0.41407,1.13555 0.59965,1.72484 0.25153,0.85056 0.7607,2.40767 -0.41193,2.80864 -1.43323,0.49007 -2.41624,-2.12539 -2.7567,-3.05906 -0.35886,-0.98413 -1.72981,-4.26159 -0.24447,-4.76948 1.43322,-0.49008 2.46379,2.33616 2.81345,3.29506 z"
       style="font-style:normal;font-variant:normal;font-weight:normal;font-stretch:normal;font-size:26.66666603px;line-height:1.25;font-family:'Futura Condensed PT';-inkscape-font-specification:'Futura Condensed PT';letter-spacing:0px;word-spacing:0px;fill:#000000;fill-opacity:1;stroke:none;stroke-width:1.01980627"
       id="path1105"
       inkscape:connector-curvature="0" />
    <path
       d="m 214.49249,284.53515 c -0.31001,-0.7446 -1.21945,-1.13975 -1.98837,-0.83955 -0.79456,0.31021 -1.17698,1.18087 -0.85664,1.95029 0.32034,0.76942 1.21944,1.13975 2.014,0.82955 0.76892,-0.30021 1.14102,-1.19569 0.83101,-1.94029 z m 5.72189,14.53046 -4.61912,-11.09452 -2.10173,0.82055 4.61914,11.09453 z"
       style="font-style:normal;font-variant:normal;font-weight:normal;font-stretch:normal;font-size:26.66666603px;line-height:1.25;font-family:'Futura Condensed PT';-inkscape-font-specification:'Futura Condensed PT';letter-spacing:0px;word-spacing:0px;fill:#000000;fill-opacity:1;stroke:none;stroke-width:1.01980627"
       id="path1107"
       inkscape:connector-curvature="0" />
    <path
       d="m 229.25635,295.19328 -3.78455,-8.03489 c -0.7225,-1.53393 -1.74894,-2.87479 -3.68498,-2.01967 -1.1566,0.51086 -1.4826,1.30194 -1.63658,2.45825 l -0.59634,-1.2661 -2.06177,0.91065 5.12634,10.88362 2.06177,-0.91066 -3.31435,-7.03661 c -0.4358,-0.92523 -1.06655,-2.26437 0.2409,-2.84186 1.15661,-0.51086 1.7437,0.6711 2.26198,1.70696 l 3.32582,7.06096 z"
       style="font-style:normal;font-variant:normal;font-weight:normal;font-stretch:normal;font-size:26.66666603px;line-height:1.25;font-family:'Futura Condensed PT';-inkscape-font-specification:'Futura Condensed PT';letter-spacing:0px;word-spacing:0px;fill:#000000;fill-opacity:1;stroke:none;stroke-width:1.01980627"
       id="path1109"
       inkscape:connector-curvature="0" />
    <path
       d="m 232.03824,280.30703 -2.02665,1.04023 0.69887,1.27683 c -0.9169,-0.58945 -1.71733,-0.9661 -2.76729,-0.4272 -2.63711,1.35355 -0.65548,5.03108 0.34107,6.85176 0.97066,1.77339 3.01259,5.38968 5.62527,4.04867 1.04996,-0.53891 1.26359,-1.40576 1.17541,-2.48116 l 1.24244,2.26994 c 0.47887,0.87488 0.96066,1.86939 -0.21138,2.47097 -1.07437,0.55144 -1.74712,-0.16335 -2.22597,-1.03822 l -1.95341,1.00262 c 0.0648,0.11823 0.10501,0.24898 0.16972,0.36721 0.9836,1.79703 2.87601,2.34012 4.73174,1.38763 2.66151,-1.36607 2.68076,-3.10236 1.3736,-5.49052 z m 0.81916,6.18234 c 0.29766,0.54384 0.5824,1.06404 0.85564,1.6204 0.37826,0.80536 1.1189,2.27278 0.0201,2.83676 -1.34297,0.6893 -2.71337,-1.75726 -3.19223,-2.63213 -0.50475,-0.92216 -2.35961,-3.96813 -0.96781,-4.68251 1.34296,-0.68929 2.79248,1.95897 3.28429,2.85748 z"
       style="font-style:normal;font-variant:normal;font-weight:normal;font-stretch:normal;font-size:26.66666603px;line-height:1.25;font-family:'Futura Condensed PT';-inkscape-font-specification:'Futura Condensed PT';letter-spacing:0px;word-spacing:0px;fill:#000000;fill-opacity:1;stroke:none;stroke-width:1.01980627"
       id="path1111"
       inkscape:connector-curvature="0" />
    <path
       d="m 247.0414,285.0761 -9.9858,-15.51091 -2.09179,1.34813 9.9858,15.51092 z"
       style="font-style:normal;font-variant:normal;font-weight:normal;font-stretch:normal;font-size:26.66666603px;line-height:1.25;font-family:'Futura Condensed PT';-inkscape-font-specification:'Futura Condensed PT';letter-spacing:0px;word-spacing:0px;fill:#000000;fill-opacity:1;stroke:none;stroke-width:1.03702831"
       id="path1113"
       inkscape:connector-curvature="0" />
    <path
       d="m 255.29399,279.34629 -5.29,-7.43719 c -1.00991,-1.41983 -2.28059,-2.58607 -4.01498,-1.35107 -1.03614,0.73779 -1.20154,1.6025 -1.12649,2.80526 l -0.83358,-1.17192 -1.84702,1.31521 7.16555,10.074 1.84703,-1.31519 -4.63276,-6.51318 c -0.60916,-0.85641 -1.49082,-2.09593 -0.31954,-2.92996 1.03614,-0.73779 1.84415,0.35048 2.55598,1.30353 l 4.64879,6.5357 z"
       style="font-style:normal;font-variant:normal;font-weight:normal;font-stretch:normal;font-size:26.66666603px;line-height:1.25;font-family:'Futura Condensed PT';-inkscape-font-specification:'Futura Condensed PT';letter-spacing:0px;word-spacing:0px;fill:#000000;fill-opacity:1;stroke:none;stroke-width:1.03702831"
       id="path1115"
       inkscape:connector-curvature="0" />
    <path
       d="m 248.49569,259.09356 c -0.57132,0.16816 -0.94389,0.32066 -1.4219,0.69696 -1.95552,1.53936 -1.04453,3.14522 0.2034,4.73221 l 2.63261,3.34791 -0.91257,0.71836 1.12826,1.43482 0.91258,-0.71837 6.51315,8.28279 1.78168,-1.40254 -6.51315,-8.28279 1.52095,-1.1973 -1.12827,-1.4348 -1.52095,1.19728 -2.00009,-2.54353 c -0.18805,-0.23913 -0.35436,-0.49538 -0.54241,-0.73451 -0.45693,-0.62581 -0.87503,-1.24699 -0.11456,-1.84563 0.28246,-0.22236 0.60694,-0.30181 0.94852,-0.35951 z"
       style="font-style:normal;font-variant:normal;font-weight:normal;font-stretch:normal;font-size:26.66666603px;line-height:1.25;font-family:'Futura Condensed PT';-inkscape-font-specification:'Futura Condensed PT';letter-spacing:0px;word-spacing:0px;fill:#000000;fill-opacity:1;stroke:none;stroke-width:1.03702831"
       id="path1117"
       inkscape:connector-curvature="0" />
    <path
       d="m 263.56588,265.14216 c -1.67967,-1.9477 -4.6285,-5.02837 -7.2659,-2.75146 -2.59554,2.24076 -0.31532,5.35063 1.36435,7.29834 1.73384,2.01053 4.3662,4.59719 7.0036,2.32027 1.02565,-0.88545 1.47132,-2.14706 1.1162,-3.44804 -0.23071,-0.86034 -0.71262,-1.50383 -1.26964,-2.19208 l -1.61174,1.39144 c 0.59601,0.69113 1.42477,1.94854 0.50378,2.74366 -1.19311,1.03003 -3.07144,-1.14805 -3.77581,-1.96484 z m -5.01882,2.14072 c -0.57221,-0.74821 -2.05034,-2.50457 -1.02468,-3.39002 1.04659,-0.90354 2.52759,0.8138 3.20158,1.51066 z"
       style="font-style:normal;font-variant:normal;font-weight:normal;font-stretch:normal;font-size:26.66666603px;line-height:1.25;font-family:'Futura Condensed PT';-inkscape-font-specification:'Futura Condensed PT';letter-spacing:0px;word-spacing:0px;fill:#000000;fill-opacity:1;stroke:none;stroke-width:1.03702831"
       id="path1119"
       inkscape:connector-curvature="0" />
    <path
       d="m 270.77068,262.83877 c -0.051,0.46829 -0.17715,0.81728 -0.5178,1.14126 -1.30249,1.23875 -3.43777,-0.92854 -4.31396,-1.8508 -0.89523,-0.9423 -2.79898,-2.98632 -1.45641,-4.26318 0.36068,-0.34304 0.73447,-0.43139 1.22156,-0.36034 l -1.59999,-1.68413 c -0.68944,0.19775 -1.06621,0.40341 -1.5872,0.89892 -2.48474,2.36315 -0.0385,5.37967 1.73289,7.24423 1.71426,1.80442 4.62334,4.30438 7.00789,2.03651 0.54103,-0.51456 0.76541,-0.88061 0.97967,-1.61869 z"
       style="font-style:normal;font-variant:normal;font-weight:normal;font-stretch:normal;font-size:26.66666603px;line-height:1.25;font-family:'Futura Condensed PT';-inkscape-font-specification:'Futura Condensed PT';letter-spacing:0px;word-spacing:0px;fill:#000000;fill-opacity:1;stroke:none;stroke-width:1.03702831"
       id="path1121"
       inkscape:connector-curvature="0" />
    <path
       d="m 268.9155,253.07331 -1.26575,-1.23703 -0.86931,0.89047 -2.51174,-2.45471 -1.58408,1.62263 2.51174,2.45472 -0.88863,0.91025 1.26577,1.23702 0.88862,-0.91024 7.57478,7.40279 1.58408,-1.62263 -7.57478,-7.40281 z"
       style="font-style:normal;font-variant:normal;font-weight:normal;font-stretch:normal;font-size:26.66666603px;line-height:1.25;font-family:'Futura Condensed PT';-inkscape-font-specification:'Futura Condensed PT';letter-spacing:0px;word-spacing:0px;fill:#000000;fill-opacity:1;stroke:none;stroke-width:1.03702831"
       id="path1123"
       inkscape:connector-curvature="0" />
    <path
       d="m 267.49705,246.52358 c -0.61073,-0.56147 -1.60768,-0.53886 -2.16884,0.0722 -0.57987,0.63143 -0.53858,1.60854 0.0925,2.18873 0.63109,0.58019 1.60768,0.53886 2.18755,-0.0925 0.56117,-0.61106 0.4995,-1.60688 -0.11122,-2.16836 z m 11.62205,11.0979 -9.09988,-8.36593 -1.53386,1.67023 9.09987,8.36594 z"
       style="font-style:normal;font-variant:normal;font-weight:normal;font-stretch:normal;font-size:26.66666603px;line-height:1.25;font-family:'Futura Condensed PT';-inkscape-font-specification:'Futura Condensed PT';letter-spacing:0px;word-spacing:0px;fill:#000000;fill-opacity:1;stroke:none;stroke-width:1.03702831"
       id="path1125"
       inkscape:connector-curvature="0" />
    <path
       d="m 280.86307,246.14683 c -2.04973,-1.73016 -5.13091,-3.82427 -7.39494,-1.13913 -2.26402,2.68512 0.33583,5.3501 2.38557,7.08024 2.04974,1.73016 5.10978,3.80643 7.35598,1.14245 2.26403,-2.68514 -0.29686,-5.35341 -2.34661,-7.08356 z m -0.98369,2.28203 c 0.76072,0.64211 2.66585,2.28639 1.73884,3.38582 -0.927,1.09942 -2.88891,-0.5204 -3.64964,-1.16253 l -1.14109,-0.96317 c -0.76073,-0.64213 -2.66586,-2.2864 -1.73885,-3.38582 0.927,-1.09943 2.88891,0.5204 3.64964,1.16251 z"
       style="font-style:normal;font-variant:normal;font-weight:normal;font-stretch:normal;font-size:26.66666603px;line-height:1.25;font-family:'Futura Condensed PT';-inkscape-font-specification:'Futura Condensed PT';letter-spacing:0px;word-spacing:0px;fill:#000000;fill-opacity:1;stroke:none;stroke-width:1.03702831"
       id="path1127"
       inkscape:connector-curvature="0" />
    <path
       d="m 281.4404,235.12867 -1.37727,1.83637 5.92628,4.44952 c 0.92875,0.69731 2.58732,1.52759 1.55852,2.89934 -0.7965,1.062 -1.69761,0.42002 -2.53239,-0.17216 -0.22113,-0.16602 -0.48097,-0.32653 -0.7021,-0.49256 l -5.92627,-4.44951 -1.36068,1.81424 6.67811,5.01401 c 0.81818,0.6143 1.758,1.25076 2.80305,1.23997 1.18328,-0.0108 2.04048,-0.64676 2.72083,-1.55388 1.77552,-2.36738 1.07923,-3.92767 -1.10996,-5.57134 z"
       style="font-style:normal;font-variant:normal;font-weight:normal;font-stretch:normal;font-size:26.66666603px;line-height:1.25;font-family:'Futura Condensed PT';-inkscape-font-specification:'Futura Condensed PT';letter-spacing:0px;word-spacing:0px;fill:#000000;fill-opacity:1;stroke:none;stroke-width:1.03702831"
       id="path1129"
       inkscape:connector-curvature="0" />
    <path
       d="m 285.41755,229.70304 c -0.66911,0.34908 -1.14687,0.76064 -1.57994,1.40261 -1.11364,1.65079 -0.68737,3.54056 0.93961,4.63931 2.79565,1.888 5.16726,-1.18259 7.02339,0.071 0.82496,0.55712 0.94299,1.37103 0.40164,2.1735 -0.41761,0.61904 -0.97901,0.90737 -1.67047,1.14124 l 1.83322,1.23803 c 0.78426,-0.37144 1.13083,-0.63797 1.61031,-1.34873 1.2219,-1.81128 0.74236,-3.77041 -1.04503,-4.97748 -2.91023,-1.96537 -5.228,1.07484 -6.9008,-0.0549 -0.66455,-0.44879 -0.75909,-1.34696 -0.32602,-1.98893 0.35574,-0.52734 0.87934,-0.90794 1.47856,-1.10398 z"
       style="font-style:normal;font-variant:normal;font-weight:normal;font-stretch:normal;font-size:26.66666603px;line-height:1.25;font-family:'Futura Condensed PT';-inkscape-font-specification:'Futura Condensed PT';letter-spacing:0px;word-spacing:0px;fill:#000000;fill-opacity:1;stroke:none;stroke-width:1.03702831"
       id="path1131"
       inkscape:connector-curvature="0" />
    <path
       d="m 283.80833,220.14841 15.2602,9.0524 0.91838,-1.80176 c 0.80515,-1.57963 1.66747,-3.44677 1.11482,-5.2854 -0.71971,-2.38774 -3.4732,-4.11755 -5.39501,-5.25759 -2.01335,-1.19431 -4.85261,-2.81428 -7.20668,-2.34635 -1.71809,0.33089 -2.47753,1.29474 -3.29528,2.89904 z m 14.6079,5.77245 -11.73686,-6.96233 0.13839,-0.27151 c 1.14483,-2.24601 2.83781,-1.88463 4.72528,-1.08641 1.0467,0.46018 2.06595,1.03265 3.04974,1.61624 0.93803,0.55644 1.88637,1.15115 2.74891,1.85568 1.66676,1.4066 2.1942,2.65167 1.12485,4.74961 z"
       style="font-style:normal;font-variant:normal;font-weight:normal;font-stretch:normal;font-size:26.66666603px;line-height:1.25;font-family:'Futura Condensed PT';-inkscape-font-specification:'Futura Condensed PT';letter-spacing:0px;word-spacing:0px;fill:#000000;fill-opacity:1;stroke:none;stroke-width:1.01695359"
       id="path1133"
       inkscape:connector-curvature="0" />
    <path
       d="m 291.51447,209.55177 c -0.70324,-0.37214 -1.60018,-0.0624 -1.94514,0.6962 -0.35646,0.78393 -0.0579,1.72625 0.66878,2.11081 0.72668,0.38454 1.60018,0.0624 1.95664,-0.72149 0.34496,-0.75865 0.0229,-1.71337 -0.68028,-2.08552 z m 13.49288,7.48531 -10.47824,-5.5449 -0.94289,2.07364 10.47823,5.54491 z"
       style="font-style:normal;font-variant:normal;font-weight:normal;font-stretch:normal;font-size:26.66666603px;line-height:1.25;font-family:'Futura Condensed PT';-inkscape-font-specification:'Futura Condensed PT';letter-spacing:0px;word-spacing:0px;fill:#000000;fill-opacity:1;stroke:none;stroke-width:1.01695359"
       id="path1135"
       inkscape:connector-curvature="0" />
    <path
       d="m 297.46636,205.18659 c -0.56606,0.46705 -0.94399,0.96338 -1.24306,1.68304 -0.76901,1.85057 -0.0666,3.67193 1.62497,4.49001 2.90666,1.40572 4.61639,-2.0889 6.54622,-1.15559 0.8577,0.4148 1.09923,1.2107 0.7254,2.11029 -0.28838,0.69396 -0.76407,1.08126 -1.36957,1.43665 l 1.906,0.92178 c 0.66959,-0.5096 0.94893,-0.83751 1.28003,-1.63429 0.84378,-2.03048 0.0806,-3.91211 -1.77777,-4.81085 -3.02579,-1.46334 -4.69033,1.99141 -6.42956,1.15027 -0.69092,-0.33415 -0.92423,-1.21867 -0.62517,-1.93835 0.24566,-0.59114 0.67123,-1.06442 1.19704,-1.36575 z"
       style="font-style:normal;font-variant:normal;font-weight:normal;font-stretch:normal;font-size:26.66666603px;line-height:1.25;font-family:'Futura Condensed PT';-inkscape-font-specification:'Futura Condensed PT';letter-spacing:0px;word-spacing:0px;fill:#000000;fill-opacity:1;stroke:none;stroke-width:1.01695359"
       id="path1137"
       inkscape:connector-curvature="0" />
    <path
       d="m 306.1863,199.22041 c -2.25947,-0.95942 -6.07745,-2.33846 -7.28238,0.96395 -1.18579,3.25001 2.08607,4.97229 4.34553,5.93171 2.33236,0.99037 5.66883,2.07415 6.87375,-1.22827 0.46858,-1.28427 0.28713,-2.63267 -0.58103,-3.63699 -0.57069,-0.66612 -1.25613,-1.01771 -2.02402,-1.37405 l -0.73634,2.01815 c 0.80174,0.34044 2.04675,1.08099 1.62599,2.23421 -0.54508,1.49395 -3.07181,0.42106 -4.01932,0.0187 z m -3.25554,4.30844 c -0.80691,-0.40317 -2.81387,-1.28565 -2.34528,-2.56992 0.47814,-1.31048 2.47035,-0.46453 3.33982,-0.15588 z"
       style="font-style:normal;font-variant:normal;font-weight:normal;font-stretch:normal;font-size:26.66666603px;line-height:1.25;font-family:'Futura Condensed PT';-inkscape-font-specification:'Futura Condensed PT';letter-spacing:0px;word-spacing:0px;fill:#000000;fill-opacity:1;stroke:none;stroke-width:1.01695359"
       id="path1139"
       inkscape:connector-curvature="0" />
    <path
       d="m 313.97529,192.57406 -11.07298,-3.97859 -0.6848,2.21806 1.26336,0.45394 c -1.01552,0.1695 -1.76678,0.55271 -2.10505,1.64837 -0.87457,2.83271 2.8247,4.22125 4.68258,4.8888 1.83311,0.65865 5.85439,2.07383 6.72895,-0.75888 0.37952,-1.22928 -0.10778,-1.96845 -0.90885,-2.76097 l 1.412,0.50733 z m -5.58963,0.36666 c 0.86701,0.31152 3.25338,1.22833 2.8326,2.59124 -0.42903,1.38963 -2.67499,0.64202 -3.56678,0.32159 l -1.51108,-0.54293 c -0.89178,-0.32043 -3.07997,-1.16603 -2.65093,-2.55566 0.42077,-1.36291 2.84014,-0.55299 3.70715,-0.24147 z"
       style="font-style:normal;font-variant:normal;font-weight:normal;font-stretch:normal;font-size:26.66666603px;line-height:1.25;font-family:'Futura Condensed PT';-inkscape-font-specification:'Futura Condensed PT';letter-spacing:0px;word-spacing:0px;fill:#000000;fill-opacity:1;stroke:none;stroke-width:1.01695359"
       id="path1141"
       inkscape:connector-curvature="0" />
    <path
       d="m 304.87355,182.02136 c -0.49597,0.55206 -0.80187,1.10311 -0.99922,1.86251 -0.50745,1.95273 0.4364,3.64232 2.22136,4.18216 3.06712,0.92762 4.28011,-2.80092 6.31648,-2.18505 0.90506,0.27372 1.25281,1.02246 1.00612,1.9717 -0.1903,0.73227 -0.6078,1.19107 -1.15805,1.63895 l 2.01123,0.60828 c 0.59254,-0.61062 0.82396,-0.97943 1.04245,-1.82019 0.5568,-2.14258 -0.45543,-3.8821 -2.41638,-4.47517 -3.19282,-0.96563 -4.36658,2.71628 -6.20182,2.16124 -0.72907,-0.22051 -1.08082,-1.05821 -0.88348,-1.8176 0.16212,-0.6238 0.5183,-1.15964 0.99712,-1.54137 z"
       style="font-style:normal;font-variant:normal;font-weight:normal;font-stretch:normal;font-size:26.66666603px;line-height:1.25;font-family:'Futura Condensed PT';-inkscape-font-specification:'Futura Condensed PT';letter-spacing:0px;word-spacing:0px;fill:#000000;fill-opacity:1;stroke:none;stroke-width:1.01695359"
       id="path1143"
       inkscape:connector-curvature="0" />
    <path
       d="m 312.68322,174.73187 c -2.36589,-0.58959 -6.33061,-1.34634 -7.07107,2.11162 -0.7287,3.40309 2.74278,4.58618 5.10867,5.17576 2.44221,0.60862 5.89033,1.1499 6.63078,-2.30807 0.28795,-1.34476 -0.0758,-2.64956 -1.07172,-3.50484 -0.65548,-0.56807 -1.38148,-0.80681 -2.18967,-1.03712 l -0.4525,2.1132 c 0.83952,0.20921 2.17212,0.74366 1.91355,1.9512 -0.33497,1.56432 -2.98069,0.905 -3.97285,0.65776 z m -2.63118,4.77913 c -0.8532,-0.27045 -2.95882,-0.82407 -2.67087,-2.16884 0.29383,-1.37221 2.37989,-0.85236 3.28203,-0.68536 z"
       style="font-style:normal;font-variant:normal;font-weight:normal;font-stretch:normal;font-size:26.66666603px;line-height:1.25;font-family:'Futura Condensed PT';-inkscape-font-specification:'Futura Condensed PT';letter-spacing:0px;word-spacing:0px;fill:#000000;fill-opacity:1;stroke:none;stroke-width:1.01695359"
       id="path1145"
       inkscape:connector-curvature="0" />
    <path
       d="m 307.86732,167.00739 c -0.44651,0.5992 -0.70384,1.17842 -0.83523,1.95425 -0.33783,1.995 0.74685,3.58315 2.57046,3.94254 3.13351,0.61754 4.02158,-3.21606 6.10202,-2.80606 0.92464,0.18223 1.33512,0.89305 1.17089,1.86284 -0.12669,0.74813 -0.50307,1.24661 -1.01255,1.7475 l 2.05477,0.40495 c 0.53763,-0.66714 0.73644,-1.05745 0.8819,-1.91642 0.37067,-2.18895 -0.78638,-3.82 -2.78977,-4.21483 -3.26194,-0.64285 -4.11493,3.14041 -5.98991,2.7709 -0.74484,-0.1468 -1.16692,-0.94581 -1.03553,-1.72164 0.10791,-0.63729 0.41662,-1.20638 0.86065,-1.63427 z"
       style="font-style:normal;font-variant:normal;font-weight:normal;font-stretch:normal;font-size:26.66666603px;line-height:1.25;font-family:'Futura Condensed PT';-inkscape-font-specification:'Futura Condensed PT';letter-spacing:0px;word-spacing:0px;fill:#000000;fill-opacity:1;stroke:none;stroke-width:1.01695359"
       id="path1147"
       inkscape:connector-curvature="0" />
    <path
       d="m 153.6748,304.29995 c 0.17672,-2.58062 0.0484,-6.17111 -3.33037,-6.40248 -3.37876,-0.23137 -3.96874,3.30993 -4.14545,5.89055 -0.17672,2.58062 -0.0466,6.14451 3.30559,6.37406 3.37875,0.23137 3.99351,-3.28151 4.17023,-5.86213 z m -2.33534,0.53504 c -0.0656,0.95776 -0.25798,3.37693 -1.6414,3.2822 -1.38343,-0.0947 -1.24243,-2.54416 -1.17684,-3.50192 l 0.0984,-1.43663 c 0.0656,-0.95776 0.25797,-3.37694 1.6414,-3.2822 1.38343,0.0947 1.24242,2.54416 1.17684,3.50191 z"
       style="font-style:normal;font-variant:normal;font-weight:normal;font-stretch:normal;font-size:26.66666603px;line-height:1.25;font-family:'Futura Condensed PT';-inkscape-font-specification:'Futura Condensed PT';letter-spacing:0px;word-spacing:0px;fill:#000000;fill-opacity:1;stroke:none"
       id="path1303-3"
       inkscape:connector-curvature="0" />
    <path
       d="m 162.38359,310.3623 0.071,-8.79971 c 0.0136,-1.67994 -0.31996,-3.30936 -2.37322,-3.32593 -1.22663,-0.01 -1.84468,0.57179 -2.46596,1.55347 l 0.0112,-1.38662 -2.1866,-0.0177 -0.0962,11.91961 2.18659,0.0177 0.0622,-7.70641 c 0.008,-1.0133 0.02,-2.47992 1.40665,-2.46873 1.22662,0.01 1.24274,1.31674 1.26015,2.46359 l -0.0624,7.73308 z"
       style="font-style:normal;font-variant:normal;font-weight:normal;font-stretch:normal;font-size:26.66666603px;line-height:1.25;font-family:'Futura Condensed PT';-inkscape-font-specification:'Futura Condensed PT';letter-spacing:0px;word-spacing:0px;fill:#000000;fill-opacity:1;stroke:none"
       id="path1305-9"
       inkscape:connector-curvature="0" />
  </g>
  <path
     transform="matrix(0.35388728,0.85855173,-0.85855173,0.35388728,344.05759,-21.646483)"
     style="opacity:1;fill:none;fill-opacity:1;stroke:#d2d9db;stroke-width:2.15371829;stroke-miterlimit:4;stroke-dasharray:none;stroke-opacity:1;stroke-linejoin:round"
     inkscape:transform-center-x="-8.5309648"
     inkscape:transform-center-y="2.0068786"
     d="m 146.21165,381.8058 -109.59096,0.25293 -76.585973,-76.99338 -0.458119,-109.09316 77.198571,-77.08377 108.595361,-0.66331 77.58157,77.40376 0.45812,109.09316 z"
     id="path1501"
     inkscape:connector-curvature="0"
     sodipodi:nodetypes="ccccccccc" />
</svg>
