<?xml version="1.0" encoding="UTF-8" standalone="no"?>
<svg
   xmlns:dc="http://purl.org/dc/elements/1.1/"
   xmlns:cc="http://creativecommons.org/ns#"
   xmlns:rdf="http://www.w3.org/1999/02/22-rdf-syntax-ns#"
   xmlns:svg="http://www.w3.org/2000/svg"
   xmlns="http://www.w3.org/2000/svg"
   xmlns:sodipodi="http://sodipodi.sourceforge.net/DTD/sodipodi-0.dtd"
   xmlns:inkscape="http://www.inkscape.org/namespaces/inkscape"
   sodipodi:docname="Intellectual_Property_Office_Philippines_(IPO_PHL).svg"
   inkscape:version="1.0 (4035a4fb49, 2020-05-01)"
   id="svg8"
   version="1.1"
   viewBox="0 0 391.58329 285.75"
   height="1080"
   width="1480">
  <title
     id="title1579">Intellectual Property Office Philippines (IPO PHL)</title>
  <defs
     id="defs2" />
  <sodipodi:namedview
     inkscape:window-maximized="1"
     inkscape:window-y="-8"
     inkscape:window-x="-8"
     inkscape:window-height="1017"
     inkscape:window-width="1920"
     fit-margin-bottom="0"
     fit-margin-right="0"
     fit-margin-left="0"
     fit-margin-top="0"
     inkscape:snap-nodes="true"
     units="px"
     inkscape:snap-global="true"
     inkscape:snap-page="false"
     inkscape:snap-text-baseline="false"
     inkscape:snap-center="true"
     inkscape:snap-object-midpoints="true"
     inkscape:snap-midpoints="true"
     inkscape:snap-smooth-nodes="true"
     inkscape:snap-intersection-paths="true"
     inkscape:object-paths="true"
     inkscape:snap-bbox-midpoints="true"
     inkscape:snap-bbox-edge-midpoints="true"
     inkscape:bbox-nodes="true"
     inkscape:bbox-paths="true"
     inkscape:snap-bbox="true"
     showgrid="false"
     inkscape:document-rotation="0"
     inkscape:current-layer="layer1"
     inkscape:document-units="mm"
     inkscape:cy="639.86495"
     inkscape:cx="620.8625"
     inkscape:zoom="0.49497474"
     inkscape:pageshadow="2"
     inkscape:pageopacity="0.0"
     borderopacity="1.0"
     bordercolor="#666666"
     pagecolor="#ffffff"
     id="base"
     inkscape:object-nodes="true"
     inkscape:snap-grids="false"
     inkscape:snap-to-guides="false" />
  <metadata
     id="metadata5">
    <rdf:RDF>
      <cc:Work
         rdf:about="">
        <dc:format>image/svg+xml</dc:format>
        <dc:type
           rdf:resource="http://purl.org/dc/dcmitype/StillImage" />
        <dc:title>Intellectual Property Office Philippines (IPO PHL)</dc:title>
        <dc:publisher>
          <cc:Agent>
            <dc:title>Intellectual Property Office Philippines (IPO PHL)</dc:title>
          </cc:Agent>
        </dc:publisher>
        <dc:source>https://www.ipophil.gov.ph</dc:source>
        <dc:description>Logo of the Intellectual Property Office Philippines (IPO PHL)</dc:description>
        <cc:license
           rdf:resource="http://creativecommons.org/publicdomain/zero/1.0/" />
      </cc:Work>
      <cc:License
         rdf:about="http://creativecommons.org/publicdomain/zero/1.0/">
        <cc:permits
           rdf:resource="http://creativecommons.org/ns#Reproduction" />
        <cc:permits
           rdf:resource="http://creativecommons.org/ns#Distribution" />
        <cc:permits
           rdf:resource="http://creativecommons.org/ns#DerivativeWorks" />
      </cc:License>
    </rdf:RDF>
  </metadata>
  <g
     transform="translate(-2928.0571,67.681679)"
     id="layer1"
     inkscape:groupmode="layer"
     inkscape:label="Layer 1">
    <g
       transform="matrix(0.52447697,0,0,0.52447697,1896.1798,-51.073753)"
       id="g1805">
      <g
         id="g1357"
         transform="matrix(2.2603904,1.3816356e-8,-1.3816356e-8,2.2603904,2323.63,-1.876193)"
         style="fill:#a7aaaa;fill-opacity:1">
        <path
           d="M -5.2664488,19.039482 51.202571,3.908652 66.333399,60.377674 74.979281,58.061016 57.531795,-7.0538886 -7.5831037,10.393594 Z"
           style="fill:#a7aaaa;fill-opacity:1;stroke:none;stroke-width:0.0880462;stroke-miterlimit:4;stroke-dasharray:none;stroke-opacity:1"
           id="rect1216" />
        <path
           d="M 0.38644801,40.027394 35.833013,30.529514 45.330889,65.976076 51.60578,64.294724 40.426553,22.573268 -1.2949063,33.752498 Z"
           style="fill:#a7aaaa;fill-opacity:1;stroke:none;stroke-width:0.0564147;stroke-miterlimit:4;stroke-dasharray:none;stroke-opacity:1"
           id="rect1216-5-2" />
        <path
           d="M 4.0881866,53.951452 25.645234,48.175259 31.421429,69.732305 34.945472,68.788043 28.225014,43.706946 3.1439217,50.427404 Z"
           style="fill:#a7aaaa;fill-opacity:1;stroke:none;stroke-width:0.033914;stroke-miterlimit:4;stroke-dasharray:none;stroke-opacity:1"
           id="rect1216-5-2-3-3" />
        <path
           d="m 6.8602735,64.261117 11.2360035,-3.010677 3.010676,11.236 2.510258,-0.672622 -3.6833,-13.746255 -13.7462584,3.683298 z"
           style="fill:#a7aaaa;fill-opacity:1;stroke:none;stroke-width:0.0185875;stroke-miterlimit:4;stroke-dasharray:none;stroke-opacity:1"
           id="rect1216-5-2-3-3-3-4" />
        <rect
           transform="rotate(-150)"
           y="-59.198925"
           x="-47.558208"
           height="17.629892"
           width="2.5223117"
           id="rect1323"
           style="fill:#a7aaaa;fill-opacity:1;stroke:none;stroke-width:0.120522;stroke-miterlimit:4;stroke-dasharray:none;stroke-opacity:1" />
      </g>
      <rect
         style="fill:#ef6a31;fill-opacity:1;stroke:none;stroke-width:0.206153;stroke-miterlimit:4;stroke-dasharray:none;stroke-opacity:1"
         id="rect1359"
         width="150.81516"
         height="152.21849"
         x="2047.7881"
         y="594.66339"
         ry="20.785271"
         transform="matrix(0.96871136,-0.24819005,0.26979699,0.96291723,0,0)" />
      <rect
         transform="matrix(0.96871136,-0.24819005,0.26979699,0.96291723,0,0)"
         ry="20.785271"
         y="763.65302"
         x="2045.8634"
         height="152.21849"
         width="150.81516"
         id="rect1359-2"
         style="fill:#a7aaaa;fill-opacity:1;stroke:none;stroke-width:0.206152;stroke-miterlimit:4;stroke-dasharray:none;stroke-opacity:1" />
      <rect
         transform="matrix(0.96871136,-0.24819005,0.26979699,0.96291723,0,0)"
         ry="20.785271"
         y="761.80237"
         x="2214.2551"
         height="152.21849"
         width="150.81516"
         id="rect1359-8"
         style="fill:#ef6a31;fill-opacity:1;stroke:none;stroke-width:0.206152;stroke-miterlimit:4;stroke-dasharray:none;stroke-opacity:1" />
    </g>
    <g
       transform="matrix(0.52447697,0,0,0.52447697,1434.6096,-24.922834)"
       style="fill:#a7aaaa;fill-opacity:1;stroke:none"
       id="g1765">
      <path
         style="fill:#a7aaaa;fill-opacity:1;stroke:none;stroke-width:0.0264583;stroke-linecap:butt;stroke-linejoin:miter;stroke-miterlimit:4;stroke-dasharray:none;stroke-opacity:1"
         d="m 2904.4756,342.50245 v 41.08212 h 7.7507 v -27.63239 l 16.7378,27.63239 h 9.4546 v -41.16388 l -8.1852,0.0334 0.033,27.32831 -16.4705,-27.27993 z"
         id="path1135"
         sodipodi:nodetypes="ccccccccccc" />
      <path
         style="fill:#a7aaaa;fill-opacity:1;stroke:none;stroke-width:0.0264583;stroke-linecap:butt;stroke-linejoin:miter;stroke-miterlimit:4;stroke-dasharray:none;stroke-opacity:1"
         d="m 2891.3807,342.42075 v 41.08201 h 8.009 v -41.08212 z"
         id="path1137"
         sodipodi:nodetypes="ccccc" />
      <path
         style="fill:#a7aaaa;fill-opacity:1;stroke:none;stroke-width:0.0264583;stroke-linecap:butt;stroke-linejoin:miter;stroke-miterlimit:4;stroke-dasharray:none;stroke-opacity:1"
         d="m 2942.9624,342.42064 v 8.41904 h 11.5927 v 32.74484 h 8.1185 v -32.74484 h 11.3588 v -8.41904 z"
         id="path1139"
         sodipodi:nodetypes="ccccccccc" />
      <path
         style="fill:#a7aaaa;fill-opacity:1;stroke:none;stroke-width:0.0264583;stroke-linecap:butt;stroke-linejoin:miter;stroke-miterlimit:4;stroke-dasharray:none;stroke-opacity:1"
         d="m 2978.9101,342.42064 h 24.6556 v 8.41896 h -16.5372 v 8.0849 l 16.5372,-0.0669 v 8.31876 h -16.5372 v 8.31877 l 16.5372,2e-5 v 8.08937 l -24.789,-2e-5 z"
         id="path1141"
         sodipodi:nodetypes="ccccccccccccc" />
      <path
         style="fill:#a7aaaa;fill-opacity:1;stroke:none;stroke-width:0.0264583;stroke-linecap:butt;stroke-linejoin:miter;stroke-miterlimit:4;stroke-dasharray:none;stroke-opacity:1"
         d="m 3008.3433,342.42064 h 7.9349 v 33.07451 h 15.117 v 8.08937 h -23.0519 z"
         id="path1143"
         sodipodi:nodetypes="ccccccc" />
      <path
         id="path1145-3"
         style="fill:#a7aaaa;fill-opacity:1;stroke:none;stroke-width:0.0301445;stroke-miterlimit:4;stroke-dasharray:none;stroke-opacity:1"
         d="m 3113.6271,342.42248 a 20.476097,20.476097 0 0 0 -20.4763,20.47626 20.476097,20.476097 0 0 0 20.4763,20.47629 20.476097,20.476097 0 0 0 14.2353,-5.75831 l -5.9102,-5.73815 a 12.335402,12.335402 0 0 1 -8.3887,3.29179 12.335402,12.335402 0 0 1 -12.3356,-12.33517 12.335402,12.335402 0 0 1 12.3356,-12.33567 12.335402,12.335402 0 0 1 8.4305,3.33105 l 5.7247,-5.78776 a 20.476097,20.476097 0 0 0 -14.0916,-5.62033 z" />
      <path
         id="path1178"
         style="fill:#a7aaaa;fill-opacity:1;stroke:none;stroke-width:0.0352777;stroke-miterlimit:4;stroke-dasharray:none;stroke-opacity:1"
         d="m 3168.2372,342.42518 -0.1116,25.27649 v 0.13386 c 0,8.65277 7.0145,15.66724 15.6673,15.66724 8.6527,-2e-5 15.6672,-7.01447 15.6672,-15.66724 l -0.1126,-25.41043 -8.0848,8e-5 0.056,5.85081 0.057,5.85028 0.1312,13.54646 c 2e-4,0.006 0,0.0111 0,0.0164 v 0.23926 c -0.026,4.16534 -3.4099,7.52838 -7.5753,7.52875 -4.1841,1.1e-4 -7.5761,-3.39167 -7.5763,-7.57576 l -0.019,-13.82654 -0.01,-5.81515 -0.01,-5.81464 z"
         sodipodi:nodetypes="cccsccccccccsccccc" />
      <path
         id="path1240"
         style="fill:#a7aaaa;fill-opacity:1;stroke:none;stroke-width:0.0264583;stroke-linecap:butt;stroke-linejoin:miter;stroke-miterlimit:4;stroke-dasharray:none;stroke-opacity:1"
         d="m 3216.2787,342.42064 -14.8668,41.1639 h 8.6527 l 3.9424,-11.33007 h 12.8959 l 4.1429,11.33007 h 8.5524 l -14.566,-41.1639 z m 4.362,12.42766 3.1218,9.0873 h -6.5815 z" />
      <path
         id="path1246"
         style="fill:#a7aaaa;fill-opacity:1;stroke:none;stroke-width:0.0264583;stroke-linecap:butt;stroke-linejoin:miter;stroke-miterlimit:4;stroke-dasharray:none;stroke-opacity:1"
         d="m 3289.1533,342.43415 v 40.91633 h 8.1742 v -16.53699 c 19.2735,1.34631 20.2598,-21.10327 5.1811,-24.37934 -3.5101,-0.0304 -13.3553,0 -13.3553,0 z m 10.0294,8.10437 c 2.7136,-0.009 5.3873,0.31705 5.61,4.03799 -0.1933,3.81821 -3.7371,4.50276 -7.4652,4.15791 v -8.17367 c 0.6008,0 1.229,-0.0201 1.8552,-0.0222 z"
         sodipodi:nodetypes="ccccccscccs" />
      <path
         id="path1246-5"
         style="fill:#a7aaaa;fill-opacity:1;stroke:none;stroke-width:0.0264583;stroke-linecap:butt;stroke-linejoin:miter;stroke-miterlimit:4;stroke-dasharray:none;stroke-opacity:1"
         d="m 3317.596,342.4341 v 40.91638 h 8.1742 v -16.46724 c 0.5602,0.0426 1.1044,-0.007 1.6366,-0.003 l -0.012,0.003 7.6853,16.46724 h 8.7194 l -8.353,-18.18391 -0.01,0.003 c 10.1269,-5.11386 9.052,-20.11391 -4.4866,-22.73506 -3.5101,-0.0304 -13.3552,0 -13.3552,0 z m 10.0294,8.10442 c 2.7136,-0.009 6.0958,0.31705 6.3185,4.03799 -0.1933,3.81821 -3.0546,4.35423 -8.1737,4.15791 v -8.17367 c 0.6008,0 1.229,-0.0201 1.8552,-0.0222 z"
         sodipodi:nodetypes="scccccccccccscccsc" />
      <path
         id="path1271"
         style="fill:#a7aaaa;fill-opacity:1;stroke:none;stroke-width:0.0264583;stroke-miterlimit:4;stroke-dasharray:none;stroke-opacity:1"
         d="m 3365.3492,342.42064 a 20.451994,20.507082 0 0 0 -20.452,20.50727 20.451994,20.507082 0 0 0 20.452,20.50727 20.451994,20.507082 0 0 0 20.452,-20.50727 20.451994,20.507082 0 0 0 -20.452,-20.50727 z m 0,7.95144 a 12.556008,12.556008 0 0 1 12.5563,12.55583 12.556008,12.556008 0 0 1 -12.5563,12.55583 12.556008,12.556008 0 0 1 -12.5558,-12.55583 12.556008,12.556008 0 0 1 12.5558,-12.55583 z" />
      <path
         style="fill:#a7aaaa;fill-opacity:1;stroke:none;stroke-width:0.0264583;stroke-linecap:butt;stroke-linejoin:miter;stroke-miterlimit:4;stroke-dasharray:none;stroke-opacity:1"
         d="m 3512.4803,342.42064 h 9.0872 c 0,0 5.6795,11.57898 5.7463,11.24489 0.067,-0.33409 5.6127,-11.24489 5.6127,-11.24489 h 8.8867 l -10.5572,21.1672 v 19.84484 l -8.0848,-0.13361 v -19.71123 z"
         id="path1292"
         sodipodi:nodetypes="ccsccccccc" />
      <path
         style="fill:#a7aaaa;fill-opacity:1;stroke:none;stroke-width:0.0264583;stroke-linecap:butt;stroke-linejoin:miter;stroke-miterlimit:4;stroke-dasharray:none;stroke-opacity:1"
         d="m 2918.4739,404.06617 h 24.856 v 8.21875 h -16.5707 l -0.067,8.21849 h 16.6377 v 8.41904 h -16.6377 l -0.067,16.16971 -8.1513,0.26728 z"
         id="path1294"
         sodipodi:nodetypes="ccccccccccc" />
      <path
         style="fill:#a7aaaa;fill-opacity:1;stroke:none;stroke-width:0.0264583;stroke-linecap:butt;stroke-linejoin:miter;stroke-miterlimit:4;stroke-dasharray:none;stroke-opacity:1"
         d="m 3203.5833,445.27106 c -0.067,-1.06908 0,-41.02603 0,-41.02603 h 8.3524 v 16.50392 h 14.7667 v -16.50392 h 8.1518 v 41.02603 h -8.1518 V 428.9677 l -14.7667,-1.2e-4 v 16.30348 z"
         id="path1296"
         sodipodi:nodetypes="ccccccccccccc" />
      <path
         style="fill:#a7aaaa;fill-opacity:1;stroke:none;stroke-width:0.0266777;stroke-linecap:butt;stroke-linejoin:miter;stroke-miterlimit:4;stroke-dasharray:none;stroke-opacity:1"
         d="m 3565.6684,408.5502 -5.6026,6.04644 c -4.5739,-2.57014 -10.5572,-2.98086 -10.783,1.72262 -0.3732,9.66495 18.7581,-0.0545 17.9705,18.21398 -0.5839,13.54249 -18.5225,13.03922 -26.1308,5.71944 l 5.5751,-5.76406 c 0,0 4.109,2.5793 6.4256,3.07415 6.8877,1.20014 8.7162,-7.98977 1.6064,-8.35794 -25.5713,-1.73963 -11.8597,-37.05437 10.9392,-20.65463 1e-4,7e-5 -4e-4,0 -4e-4,0 z"
         id="path1298"
         sodipodi:nodetypes="cccscccccc" />
      <path
         sodipodi:nodetypes="ccccccc"
         id="path1143-2"
         d="m 3035.9283,342.42064 h 7.9349 v 33.07451 h 15.117 v 8.08937 h -23.0519 z"
         style="fill:#a7aaaa;fill-opacity:1;stroke:none;stroke-width:0.0264583;stroke-linecap:butt;stroke-linejoin:miter;stroke-miterlimit:4;stroke-dasharray:none;stroke-opacity:1" />
      <path
         sodipodi:nodetypes="ccccccccccccc"
         id="path1141-4"
         d="m 3063.8945,342.42064 h 24.6556 v 8.41896 h -16.5372 v 8.0849 l 16.5372,-0.0669 v 8.31876 h -16.5372 v 8.31877 l 16.5372,2e-5 v 8.08937 l -24.789,-3e-5 z"
         style="fill:#a7aaaa;fill-opacity:1;stroke:none;stroke-width:0.0264583;stroke-linecap:butt;stroke-linejoin:miter;stroke-miterlimit:4;stroke-dasharray:none;stroke-opacity:1" />
      <path
         sodipodi:nodetypes="ccccccccc"
         id="path1139-6"
         d="m 3132.2867,342.42064 v 8.41904 h 11.5927 v 32.74484 h 8.1185 v -32.74484 h 11.3588 v -8.41904 z"
         style="fill:#a7aaaa;fill-opacity:1;stroke:none;stroke-width:0.0264583;stroke-linecap:butt;stroke-linejoin:miter;stroke-miterlimit:4;stroke-dasharray:none;stroke-opacity:1" />
      <path
         sodipodi:nodetypes="ccccccc"
         id="path1143-4"
         d="m 3243.3734,342.42064 h 7.9349 v 33.07451 h 15.117 v 8.08937 h -23.0519 z"
         style="fill:#a7aaaa;fill-opacity:1;stroke:none;stroke-width:0.0264583;stroke-linecap:butt;stroke-linejoin:miter;stroke-miterlimit:4;stroke-dasharray:none;stroke-opacity:1" />
      <path
         sodipodi:nodetypes="ccccccscccs"
         d="m 3390.4899,342.43415 v 40.91633 h 8.1742 v -16.53699 c 19.2735,1.3463 20.2598,-21.10327 5.1811,-24.37934 -3.5101,-0.0304 -13.3553,0 -13.3553,0 z m 10.0294,8.10437 c 2.7136,-0.009 5.3873,0.31705 5.61,4.03799 -0.1933,3.8182 -3.7371,4.50276 -7.4652,4.1579 v -8.17367 c 0.6008,0 1.229,-0.0201 1.8552,-0.0222 z"
         style="fill:#a7aaaa;fill-opacity:1;stroke:none;stroke-width:0.0264583;stroke-linecap:butt;stroke-linejoin:miter;stroke-miterlimit:4;stroke-dasharray:none;stroke-opacity:1"
         id="path1246-4" />
      <path
         style="fill:#a7aaaa;fill-opacity:1;stroke:none;stroke-width:0.0264583;stroke-linecap:butt;stroke-linejoin:miter;stroke-miterlimit:4;stroke-dasharray:none;stroke-opacity:1"
         d="m 3418.9026,342.42064 h 24.6556 v 8.41896 h -16.5372 v 8.0849 l 16.5372,-0.0669 v 8.31876 h -16.5372 v 8.31877 l 16.5372,2e-5 v 8.08937 l -24.789,-3e-5 z"
         id="path1141-4-7"
         sodipodi:nodetypes="ccccccccccccc" />
      <path
         sodipodi:nodetypes="scccccccccccscccsc"
         d="m 3448.3265,342.43374 v 40.91638 h 8.1742 v -16.46724 c 0.5601,0.0426 1.1044,-0.007 1.6366,-0.003 l -0.012,0.003 7.6853,16.46724 h 8.7194 l -8.353,-18.18391 -0.01,0.003 c 10.1269,-5.11387 9.052,-20.11392 -4.4866,-22.73506 -3.5101,-0.0304 -13.3552,0 -13.3552,0 z m 10.0294,8.10443 c 2.7136,-0.009 6.0958,0.31705 6.3185,4.03799 -0.1933,3.8182 -3.0546,4.35422 -8.1737,4.1579 v -8.17367 c 0.6008,0 1.229,-0.0201 1.8552,-0.0222 z"
         style="fill:#a7aaaa;fill-opacity:1;stroke:none;stroke-width:0.0264583;stroke-linecap:butt;stroke-linejoin:miter;stroke-miterlimit:4;stroke-dasharray:none;stroke-opacity:1"
         id="path1246-5-2" />
      <path
         style="fill:#a7aaaa;fill-opacity:1;stroke:none;stroke-width:0.0264583;stroke-linecap:butt;stroke-linejoin:miter;stroke-miterlimit:4;stroke-dasharray:none;stroke-opacity:1"
         d="m 3476.566,342.42064 v 8.41904 h 11.5927 v 32.74484 h 8.1185 v -32.74484 h 11.3588 v -8.41904 z"
         id="path1139-6-1"
         sodipodi:nodetypes="ccccccccc" />
      <path
         d="m 2893.412,404.06617 a 20.451994,20.507082 0 0 0 -20.452,20.50727 20.451994,20.507082 0 0 0 20.452,20.50727 20.451994,20.507082 0 0 0 20.452,-20.50727 20.451994,20.507082 0 0 0 -20.452,-20.50727 z m 0,7.95144 a 12.556008,12.556008 0 0 1 12.5563,12.55583 12.556008,12.556008 0 0 1 -12.5563,12.55583 12.556008,12.556008 0 0 1 -12.5558,-12.55583 12.556008,12.556008 0 0 1 12.5558,-12.55583 z"
         style="fill:#a7aaaa;fill-opacity:1;stroke:none;stroke-width:0.0264583;stroke-miterlimit:4;stroke-dasharray:none;stroke-opacity:1"
         id="path1271-8" />
      <path
         sodipodi:nodetypes="ccccccccccc"
         id="path1294-8"
         d="m 2947.9676,404.06626 h 24.856 v 8.21875 h -16.5707 l -0.067,8.21849 h 16.6377 v 8.41904 h -16.6377 l -0.067,16.16971 -8.1513,0.26728 z"
         style="fill:#a7aaaa;fill-opacity:1;stroke:none;stroke-width:0.0264583;stroke-linecap:butt;stroke-linejoin:miter;stroke-miterlimit:4;stroke-dasharray:none;stroke-opacity:1" />
      <path
         sodipodi:nodetypes="ccccc"
         id="path1137-3"
         d="m 2977.3445,404.06628 v 41.08201 h 8.009 v -41.08212 z"
         style="fill:#a7aaaa;fill-opacity:1;stroke:none;stroke-width:0.0264583;stroke-linecap:butt;stroke-linejoin:miter;stroke-miterlimit:4;stroke-dasharray:none;stroke-opacity:1" />
      <path
         d="m 3010.6341,404.52522 a 20.476097,20.476097 0 0 0 -20.4763,20.47626 20.476097,20.476097 0 0 0 20.4763,20.47629 20.476097,20.476097 0 0 0 14.2353,-5.75831 l -5.9102,-5.73815 a 12.335402,12.335402 0 0 1 -8.3887,3.29179 12.335402,12.335402 0 0 1 -12.3356,-12.33517 12.335402,12.335402 0 0 1 12.3356,-12.33567 12.335402,12.335402 0 0 1 8.4305,3.33105 l 5.7247,-5.78776 a 20.476097,20.476097 0 0 0 -14.0916,-5.62033 z"
         style="fill:#a7aaaa;fill-opacity:1;stroke:none;stroke-width:0.0301445;stroke-miterlimit:4;stroke-dasharray:none;stroke-opacity:1"
         id="path1145-3-7" />
      <path
         sodipodi:nodetypes="ccccccccccccc"
         id="path1141-2"
         d="m 3029.248,404.06617 h 24.6556 v 8.41896 h -16.5372 v 8.0849 l 16.5372,-0.0669 v 8.31876 h -16.5372 v 8.31877 l 16.5372,2e-5 v 8.08937 l -24.789,-2e-5 z"
         style="fill:#a7aaaa;fill-opacity:1;stroke:none;stroke-width:0.0264583;stroke-linecap:butt;stroke-linejoin:miter;stroke-miterlimit:4;stroke-dasharray:none;stroke-opacity:1" />
      <path
         id="path1271-8-5"
         style="fill:#a7aaaa;fill-opacity:1;stroke:none;stroke-width:0.0264583;stroke-miterlimit:4;stroke-dasharray:none;stroke-opacity:1"
         d="m 3096.3417,404.58492 a 20.451994,20.507082 0 0 0 -20.452,20.50727 20.451994,20.507082 0 0 0 20.452,20.50727 20.451994,20.507082 0 0 0 20.452,-20.50727 20.451994,20.507082 0 0 0 -20.452,-20.50727 z m 0,7.95144 a 12.556008,12.556008 0 0 1 12.5563,12.55583 12.556008,12.556008 0 0 1 -12.5563,12.55583 12.556008,12.556008 0 0 1 -12.5558,-12.55583 12.556008,12.556008 0 0 1 12.5558,-12.55583 z" />
      <path
         style="fill:#a7aaaa;fill-opacity:1;stroke:none;stroke-width:0.0264583;stroke-linecap:butt;stroke-linejoin:miter;stroke-miterlimit:4;stroke-dasharray:none;stroke-opacity:1"
         d="m 3121.0642,404.06617 h 24.856 v 8.21875 h -16.5707 l -0.067,8.21849 h 16.6377 v 8.41904 h -16.6377 l -0.067,16.16971 -8.1513,0.26728 z"
         id="path1294-8-5"
         sodipodi:nodetypes="ccccccccccc" />
      <path
         style="fill:#a7aaaa;fill-opacity:1;stroke:none;stroke-width:0.0264583;stroke-linecap:butt;stroke-linejoin:miter;stroke-miterlimit:4;stroke-dasharray:none;stroke-opacity:1"
         d="m 3167.6888,404.06617 v 8.41904 h 11.5927 v 32.74484 h 8.1185 v -32.74484 h 11.3588 v -8.41904 z"
         id="path1139-6-2"
         sodipodi:nodetypes="ccccccccc" />
      <path
         style="fill:#a7aaaa;fill-opacity:1;stroke:none;stroke-width:0.0264583;stroke-linecap:butt;stroke-linejoin:miter;stroke-miterlimit:4;stroke-dasharray:none;stroke-opacity:1"
         d="m 3239.5154,404.24503 h 24.6556 v 8.41896 h -16.5372 v 8.0849 l 16.5372,-0.0669 v 8.31876 h -16.5372 v 8.31877 l 16.5372,2e-5 v 8.08937 l -24.789,-2e-5 z"
         id="path1141-2-1"
         sodipodi:nodetypes="ccccccccccccc" />
      <path
         sodipodi:nodetypes="ccccccscccs"
         d="m 3285.8539,404.25854 v 40.91633 h 8.1742 v -16.53699 c 19.2735,1.34631 20.2598,-21.10327 5.1811,-24.37934 -3.5101,-0.0304 -13.3553,0 -13.3553,0 z m 10.0294,8.10437 c 2.7136,-0.009 5.3873,0.31705 5.61,4.03799 -0.1933,3.81821 -3.7371,4.50276 -7.4652,4.15791 v -8.17367 c 0.6008,0 1.229,-0.0201 1.8552,-0.0222 z"
         style="fill:#a7aaaa;fill-opacity:1;stroke:none;stroke-width:0.0264583;stroke-linecap:butt;stroke-linejoin:miter;stroke-miterlimit:4;stroke-dasharray:none;stroke-opacity:1"
         id="path1246-43" />
      <path
         sodipodi:nodetypes="ccccccccccccc"
         id="path1296-9"
         d="m 3314.0805,445.27106 c -0.067,-1.06907 0,-41.02603 0,-41.02603 h 8.3524 v 16.50392 h 14.7667 v -16.50392 h 8.1518 v 41.02603 h -8.1518 V 428.9677 l -14.7667,-1.2e-4 v 16.30348 z"
         style="fill:#a7aaaa;fill-opacity:1;stroke:none;stroke-width:0.0264583;stroke-linecap:butt;stroke-linejoin:miter;stroke-miterlimit:4;stroke-dasharray:none;stroke-opacity:1" />
      <path
         style="fill:#a7aaaa;fill-opacity:1;stroke:none;stroke-width:0.0264583;stroke-linecap:butt;stroke-linejoin:miter;stroke-miterlimit:4;stroke-dasharray:none;stroke-opacity:1"
         d="m 3350.1348,404.06628 v 41.08201 h 8.009 v -41.08212 z"
         id="path1137-3-7"
         sodipodi:nodetypes="ccccc" />
      <path
         style="fill:#a7aaaa;fill-opacity:1;stroke:none;stroke-width:0.0264583;stroke-linecap:butt;stroke-linejoin:miter;stroke-miterlimit:4;stroke-dasharray:none;stroke-opacity:1"
         d="m 3362.9331,404.06617 h 7.9349 v 33.07451 h 15.117 v 8.08937 h -23.0519 z"
         id="path1143-4-7"
         sodipodi:nodetypes="ccccccc" />
      <path
         sodipodi:nodetypes="ccccc"
         id="path1137-3-7-2"
         d="m 3390.5573,404.06628 v 41.08201 h 8.009 v -41.08212 z"
         style="fill:#a7aaaa;fill-opacity:1;stroke:none;stroke-width:0.0264583;stroke-linecap:butt;stroke-linejoin:miter;stroke-miterlimit:4;stroke-dasharray:none;stroke-opacity:1" />
      <path
         id="path1246-43-5"
         style="fill:#a7aaaa;fill-opacity:1;stroke:none;stroke-width:0.0264583;stroke-linecap:butt;stroke-linejoin:miter;stroke-miterlimit:4;stroke-dasharray:none;stroke-opacity:1"
         d="m 3403.3806,404.25854 v 40.91633 h 8.1742 v -16.53699 c 19.2735,1.34631 20.2598,-21.10327 5.1811,-24.37934 -3.5101,-0.0304 -13.3553,0 -13.3553,0 z m 10.0294,8.10437 c 2.7136,-0.009 5.3873,0.31705 5.61,4.03799 -0.1933,3.81821 -3.7371,4.50276 -7.4652,4.15791 v -8.17367 c 0.6008,0 1.229,-0.0201 1.8552,-0.0222 z"
         sodipodi:nodetypes="ccccccscccs" />
      <path
         sodipodi:nodetypes="ccccccscccs"
         d="m 3431.8234,404.25854 v 40.91633 h 8.1742 v -16.53699 c 19.2735,1.34631 20.2598,-21.10327 5.1811,-24.37934 -3.5101,-0.0304 -13.3553,0 -13.3553,0 z m 10.0294,8.10437 c 2.7136,-0.009 5.3873,0.31705 5.61,4.03799 -0.1933,3.81821 -3.7371,4.50276 -7.4652,4.15791 v -8.17367 c 0.6008,0 1.229,-0.0201 1.8552,-0.0222 z"
         style="fill:#a7aaaa;fill-opacity:1;stroke:none;stroke-width:0.0264583;stroke-linecap:butt;stroke-linejoin:miter;stroke-miterlimit:4;stroke-dasharray:none;stroke-opacity:1"
         id="path1246-43-5-8" />
      <path
         style="fill:#a7aaaa;fill-opacity:1;stroke:none;stroke-width:0.0264583;stroke-linecap:butt;stroke-linejoin:miter;stroke-miterlimit:4;stroke-dasharray:none;stroke-opacity:1"
         d="m 3460.1994,404.06628 v 41.08201 h 8.009 v -41.08212 z"
         id="path1137-3-7-2-2"
         sodipodi:nodetypes="ccccc" />
      <path
         sodipodi:nodetypes="ccccccccccc"
         id="path1135-1"
         d="m 3472.9726,404.14799 v 41.08212 h 7.7507 v -27.63239 l 16.7378,27.63239 h 9.4546 v -41.16388 l -8.1852,0.0334 0.033,27.32831 -16.4705,-27.27993 z"
         style="fill:#a7aaaa;fill-opacity:1;stroke:none;stroke-width:0.0264583;stroke-linecap:butt;stroke-linejoin:miter;stroke-miterlimit:4;stroke-dasharray:none;stroke-opacity:1" />
      <path
         sodipodi:nodetypes="ccccccccccccc"
         id="path1141-4-7-9"
         d="m 3511.8455,404.06617 h 24.6556 v 8.41896 h -16.5372 v 8.0849 l 16.5372,-0.0669 v 8.31876 h -16.5372 v 8.31877 l 16.5372,2e-5 v 8.08937 l -24.789,-3e-5 z"
         style="fill:#a7aaaa;fill-opacity:1;stroke:none;stroke-width:0.0264583;stroke-linecap:butt;stroke-linejoin:miter;stroke-miterlimit:4;stroke-dasharray:none;stroke-opacity:1" />
    </g>
  </g>
</svg>
