<?xml version="1.0" encoding="UTF-8" standalone="no"?>
<!-- Created with Inkscape (http://www.inkscape.org/) -->

<svg
   xmlns:dc="http://purl.org/dc/elements/1.1/"
   xmlns:cc="http://creativecommons.org/ns#"
   xmlns:rdf="http://www.w3.org/1999/02/22-rdf-syntax-ns#"
   xmlns:svg="http://www.w3.org/2000/svg"
   xmlns="http://www.w3.org/2000/svg"
   xmlns:sodipodi="http://sodipodi.sourceforge.net/DTD/sodipodi-0.dtd"
   xmlns:inkscape="http://www.inkscape.org/namespaces/inkscape"
   width="313.59064"
   height="186.05005"
   id="svg2"
   version="1.1"
   inkscape:version="0.48.1 "
   sodipodi:docname="New document 1">
  <title
     id="title3018">Light Rail Transit Authority</title>
  <defs
     id="defs4" />
  <sodipodi:namedview
     id="base"
     pagecolor="#ffffff"
     bordercolor="#666666"
     borderopacity="1.0"
     inkscape:pageopacity="0.0"
     inkscape:pageshadow="2"
     inkscape:zoom="0.7"
     inkscape:cx="524.41788"
     inkscape:cy="227.17653"
     inkscape:document-units="px"
     inkscape:current-layer="layer1"
     showgrid="false"
     fit-margin-top="0"
     fit-margin-left="0"
     fit-margin-right="0"
     fit-margin-bottom="0"
     inkscape:window-width="1680"
     inkscape:window-height="988"
     inkscape:window-x="-8"
     inkscape:window-y="-8"
     inkscape:window-maximized="1" />
  <metadata
     id="metadata7">
    <rdf:RDF>
      <cc:Work
         rdf:about="">
        <dc:format>image/svg+xml</dc:format>
        <dc:type
           rdf:resource="http://purl.org/dc/dcmitype/StillImage" />
        <dc:title>Light Rail Transit Authority</dc:title>
      </cc:Work>
    </rdf:RDF>
  </metadata>
  <g
     inkscape:label="Layer 1"
     inkscape:groupmode="layer"
     id="layer1"
     transform="translate(-133.46641,-488.06572)">
    <path
       style="fill:#e08134;fill-opacity:1;stroke:none"
       d="m 197.9899,572.03465 -64.52349,-0.12627 87.33386,-79.83194 c 2.68182,-2.71347 6.66091,-3.77182 11.28228,-4.01072 l 117.43023,0.50507 c 5.73135,-0.46961 8.74702,1.77646 11.85886,3.92635 l 85.49459,79.53751 -60.73542,0.25253 -35.5144,-38.12978 c -2.39466,-3.30185 -4.7401,-4.16229 -8.54081,-4.34892 l -28.80204,0.17857 0.12627,42.30013 -45.83567,-0.25253 0.25253,-42.0476 -28.91487,-0.22242 c -3.50745,-0.19675 -5.96339,1.54424 -8.52204,4.57684 z"
       id="path2998"
       inkscape:connector-curvature="0"
       sodipodi:nodetypes="ccccccccccccccccc" />
    <path
       style="fill:#e08134;fill-opacity:1;stroke:none"
       d="m 198.18072,590.14684 -64.52349,0.12627 87.33387,79.83194 c 2.68182,2.71347 6.66091,3.77182 11.28228,4.01072 l 117.43023,-0.50507 c 5.73135,0.46961 8.74702,-1.77646 11.85886,-3.92635 l 85.49459,-79.53751 -60.73542,-0.25253 -35.5144,38.12978 c -2.39466,3.30185 -4.7401,4.16229 -8.54081,4.34892 l -28.80204,-0.17857 0.12627,-42.30013 -45.83567,0.25253 0.25253,42.0476 -28.91487,0.22242 c -3.50745,0.19675 -5.96339,-1.54424 -8.52204,-4.57684 z"
       id="path2998-7"
       inkscape:connector-curvature="0"
       sodipodi:nodetypes="ccccccccccccccccc" />
  </g>
</svg>
