<?xml version="1.0" encoding="UTF-8" standalone="no"?>
<!-- Created with Inkscape (http://www.inkscape.org/) -->

<svg
   xmlns:dc="http://purl.org/dc/elements/1.1/"
   xmlns:cc="http://creativecommons.org/ns#"
   xmlns:rdf="http://www.w3.org/1999/02/22-rdf-syntax-ns#"
   xmlns:svg="http://www.w3.org/2000/svg"
   xmlns="http://www.w3.org/2000/svg"
   xmlns:sodipodi="http://sodipodi.sourceforge.net/DTD/sodipodi-0.dtd"
   xmlns:inkscape="http://www.inkscape.org/namespaces/inkscape"
   width="490"
   height="250"
   id="svg2"
   version="1.1"
   inkscape:version="0.48.5 r10040"
   sodipodi:docname="New document 1">
  <title
     id="title4244">Lung Center of the Philippines (LCP)</title>
  <defs
     id="defs4" />
  <sodipodi:namedview
     id="base"
     pagecolor="#ffffff"
     bordercolor="#666666"
     borderopacity="1.0"
     inkscape:pageopacity="0.0"
     inkscape:pageshadow="2"
     inkscape:zoom="1.8244898"
     inkscape:cx="245"
     inkscape:cy="125"
     inkscape:document-units="px"
     inkscape:current-layer="layer1"
     showgrid="false"
     inkscape:snap-bbox="true"
     inkscape:bbox-paths="true"
     inkscape:bbox-nodes="true"
     inkscape:snap-bbox-edge-midpoints="true"
     inkscape:object-paths="true"
     inkscape:snap-intersection-paths="true"
     inkscape:object-nodes="true"
     inkscape:snap-smooth-nodes="true"
     inkscape:snap-global="true"
     fit-margin-top="0"
     fit-margin-left="0"
     fit-margin-right="0"
     fit-margin-bottom="0"
     inkscape:window-width="1366"
     inkscape:window-height="705"
     inkscape:window-x="-8"
     inkscape:window-y="-8"
     inkscape:window-maximized="1" />
  <metadata
     id="metadata7">
    <rdf:RDF>
      <cc:Work
         rdf:about="">
        <dc:format>image/svg+xml</dc:format>
        <dc:type
           rdf:resource="http://purl.org/dc/dcmitype/StillImage" />
        <dc:title>Lung Center of the Philippines (LCP)</dc:title>
      </cc:Work>
    </rdf:RDF>
  </metadata>
  <g
     inkscape:label="Layer 1"
     inkscape:groupmode="layer"
     id="layer1"
     transform="translate(0,-629.89515)">
    <g
       id="g4212"
       transform="matrix(0.48424954,0,0,0.4888458,0,449.7621)">
      <path
         inkscape:connector-curvature="0"
         id="path3790"
         d="m 340.28125,368.48645 0,47.46875 140.40625,0 0,153.5625 -20.25,0 -153.375,-94.34375 0,-60.21875 -101,0 0,61.21875 -158.71875,93.34375 -47.34375,0 0,103.46875 48.78125,0 157.28125,92.46875 0,49.53125 101,0 0,-48.53125 L 459,672.98645 l 21.6875,0 0,65.40625 -130.8125,76.96875 130.8125,0 25.25,0 25.25,0 130.8125,0 -130.8125,-76.96875 0,-65.40625 21.6875,0 151.9375,93.46875 0,48.53125 101,0 0,-49.53125 157.28125,-92.46875 48.78125,0 0,-103.46875 -47.34375,0 -158.71875,-93.34375 0,-61.21875 -101,0 0,60.21875 -153.375,94.34375 -20.25,0 0,-153.5625 140.40625,0 0,-47.46875 -165.65625,0 -165.65625,0 z M 239.4375,515.8927 l 33.34375,0 0,26.03125 42.375,24.71875 62.625,0 0,29.3125 -239.40625,0 0,-29.3125 62.8125,0 38.25,-23.625 0,-27.125 z m 499.65625,0 33.34375,0 0,27.125 38.25,23.625 62.8125,0 0,29.3125 -239.40625,0 0,-29.3125 62.625,0 42.375,-24.71875 0,-26.03125 z M 138.375,660.42395 l 239.40625,0 0,29.3125 -62.625,0 -42.375,24.71875 0,26.03125 -33.34375,0 0,-27.125 -38.25,-23.625 -62.8125,0 0,-29.3125 z m 495.71875,0 239.40625,0 0,29.3125 -62.8125,0 -38.25,23.625 0,27.125 -33.34375,0 0,-26.03125 -42.375,-24.71875 -62.625,0 0,-29.3125 z"
         style="color:#000000;fill:#0038a8;fill-opacity:1;stroke:none;stroke-width:0.56889307;marker:none;visibility:visible;display:inline;overflow:visible;enable-background:accumulate" />
      <g
         id="text4147"
         style="font-size:48.05690384px;font-style:normal;font-weight:bold;text-align:center;line-height:125%;letter-spacing:6.00711298px;word-spacing:0px;text-anchor:middle;fill:#0038a8;fill-opacity:1;stroke:none;font-family:Sans;-inkscape-font-specification:Sans Bold"
         transform="scale(0.99430956,1.005723)">
        <path
           id="path4160"
           d="m 4.1779131e-6,874.27808 0,-34.11853 6.9457244220869,0 0,28.3226 17.2704494,0 0,5.79593 z"
           inkscape:connector-curvature="0" />
        <path
           id="path4162"
           d="m 35.151002,839.87797 6.945724,0 0,18.63143 c -10e-6,2.95664 0.08603,4.87297 0.258118,5.749 0.297216,1.40793 1.005085,2.53817 2.123609,3.39073 1.118498,0.85258 2.647651,1.27887 4.587463,1.27886 1.971065,10e-6 3.457198,-0.40281 4.458404,-1.20846 1.001163,-0.80564 1.603438,-1.79509 1.806827,-2.96836 0.203342,-1.17325 0.305025,-3.12087 0.305049,-5.84286 l 0,-19.03034 6.945724,0 0,18.06827 c -3.1e-5,4.1299 -0.187753,7.04741 -0.563167,8.75255 -0.375474,1.70515 -1.067699,3.14435 -2.076677,4.31761 -1.009035,1.17327 -2.358287,2.10797 -4.047762,2.8041 -1.689523,0.69614 -3.895258,1.04421 -6.61721,1.04421 -3.285155,0 -5.776383,-0.37936 -7.473694,-1.13807 -1.69733,-0.75871 -3.038761,-1.74425 -4.024296,-2.95662 -0.985547,-1.21237 -1.634753,-2.48341 -1.947619,-3.81311 -0.453666,-1.97108 -0.680496,-4.88077 -0.680493,-8.72909 z"
           inkscape:connector-curvature="0" />
        <path
           id="path4164"
           d="m 76.004061,874.27808 0,-34.40011 6.758003,0 14.079171,22.97251 0,-22.97251 6.452955,0 0,34.40011 -6.969192,0 -13.867983,-22.43282 0,22.43282 z"
           inkscape:connector-curvature="0" />
        <path
           id="path4166"
           d="m 132.67272,861.63029 0,-5.79593 14.97085,0 0,13.70373 c -1.45488,1.40792 -3.56284,2.64767 -6.32389,3.71925 -2.76111,1.07158 -5.55738,1.60737 -8.38884,1.60737 -3.59803,0 -6.73455,-0.7548 -9.40958,-2.2644 -2.67505,-1.5096 -4.68524,-3.6684 -6.03058,-6.47642 -1.34534,-2.808 -2.01801,-5.8624 -2.01801,-9.16319 0,-3.58235 0.75089,-6.7658 2.25267,-9.55038 1.50177,-2.78451 3.69968,-4.91985 6.59374,-6.40602 2.20572,-1.14194 4.95116,-1.71293 8.23632,-1.71296 4.27065,3e-5 7.60663,0.89562 10.00794,2.68677 2.40125,1.79122 3.94605,4.2668 4.63439,7.42676 l -6.89879,1.29059 c -0.48498,-1.68947 -1.39621,-3.02308 -2.73371,-4.00083 -1.33754,-0.97769 -3.00748,-1.46655 -5.00983,-1.46658 -3.03486,3e-5 -5.44787,0.96211 -7.23904,2.88623 -1.7912,1.92418 -2.68679,4.77912 -2.68678,8.56483 -1e-5,4.08298 0.90731,7.14519 2.72197,9.18666 1.81464,2.04149 4.19245,3.06223 7.13345,3.06222 1.45483,10e-6 2.91358,-0.28549 4.37628,-0.85648 1.46264,-0.57098 2.71803,-1.26321 3.76617,-2.07668 l 0,-4.36454 z"
           inkscape:connector-curvature="0" />
        <path
           id="path4168"
           d="m 201.37909,861.63029 6.73453,2.13534 c -1.0325,3.75445 -2.74938,6.54291 -5.15063,8.36537 -2.4013,1.82247 -5.44788,2.73371 -9.13973,2.73371 -4.56792,0 -8.32236,-1.56044 -11.26333,-4.68133 -2.94099,-3.12087 -4.41148,-7.38764 -4.41148,-12.80031 0,-5.72551 1.47831,-10.17217 4.43494,-13.34001 2.95662,-3.16778 6.84403,-4.75169 11.66225,-4.75172 4.20808,3e-5 7.62619,1.24369 10.25433,3.73098 1.56432,1.47052 2.73758,3.58239 3.51979,6.33562 l -6.87533,1.64257 c -0.40675,-1.78333 -1.25541,-3.19125 -2.54598,-4.22375 -1.29061,-1.03244 -2.85887,-1.54868 -4.70479,-1.54871 -2.54991,3e-5 -4.61876,0.91518 -6.20657,2.74544 -1.58783,1.83032 -2.38173,4.79476 -2.38173,8.89334 0,4.34892 0.78217,7.44633 2.34653,9.29226 1.56434,1.84594 3.598,2.76891 6.10098,2.7689 1.84591,10e-6 3.43373,-0.58663 4.76345,-1.7599 1.32968,-1.17325 2.28393,-3.01919 2.86277,-5.5378 z"
           inkscape:connector-curvature="0" />
        <path
           id="path4170"
           d="m 220.10438,874.27808 0,-34.40011 25.50677,0 0,5.81939 -18.56104,0 0,7.62622 17.27045,0 0,5.79592 -17.27045,0 0,9.36265 19.21806,0 0,5.79593 z"
           inkscape:connector-curvature="0" />
        <path
           id="path4172"
           d="m 258.2824,874.27808 0,-34.40011 6.758,0 14.07917,22.97251 0,-22.97251 6.45295,0 0,34.40011 -6.96919,0 -13.86798,-22.43282 0,22.43282 z"
           inkscape:connector-curvature="0" />
        <path
           id="path4174"
           d="m 306.69129,874.27808 0,-28.58072 -10.2074,0 0,-5.81939 27.33706,0 0,5.81939 -10.18393,0 0,28.58072 z"
           inkscape:connector-curvature="0" />
        <path
           id="path4176"
           d="m 334.3334,874.27808 0,-34.40011 25.50676,0 0,5.81939 -18.56104,0 0,7.62622 17.27045,0 0,5.79592 -17.27045,0 0,9.36265 19.21807,0 0,5.79593 z"
           inkscape:connector-curvature="0" />
        <path
           id="path4178"
           d="m 372.46447,874.27808 0,-34.40011 14.61887,0 c 3.67621,3e-5 6.34734,0.30899 8.0134,0.92688 1.66601,0.61795 2.99961,1.71691 4.00083,3.29687 1.00115,1.58002 1.50175,3.38685 1.50178,5.42048 -3e-5,2.5812 -0.75874,4.71263 -2.27614,6.39429 -1.51745,1.6817 -3.78575,2.74154 -6.80493,3.17955 1.50176,0.87605 2.7415,1.83812 3.71925,2.88623 0.97769,1.04812 2.29566,2.9097 3.9539,5.58473 l 4.20029,6.71108 -8.30671,0 -5.02158,-7.48543 c -1.78338,-2.67503 -3.00357,-4.36062 -3.66058,-5.05677 -0.65705,-0.69612 -1.35318,-1.17325 -2.08841,-1.43138 -0.73526,-0.2581 -1.9007,-0.38716 -3.49633,-0.38718 l -1.40792,0 0,14.36076 z m 6.94572,-19.85164 5.1389,0 c 3.33205,2e-5 5.41264,-0.14077 6.24177,-0.42237 0.82908,-0.28156 1.47829,-0.76651 1.94762,-1.45485 0.46928,-0.68829 0.70393,-1.54868 0.70396,-2.58118 -3e-5,-1.15759 -0.30899,-2.09229 -0.92688,-2.8041 -0.61795,-0.71175 -1.49007,-1.1615 -2.61638,-1.34925 -0.56319,-0.0782 -2.25269,-0.1173 -5.0685,-0.11733 l -5.42049,0 z"
           inkscape:connector-curvature="0" />
        <path
           id="path4180"
           d="m 431.10422,857.28921 c 0,-3.50413 0.52406,-6.44511 1.57218,-8.82295 0.78217,-1.75204 1.84984,-3.32422 3.20301,-4.71652 1.35316,-1.39224 2.83538,-2.42471 4.44667,-3.09742 2.14315,-0.90729 4.61482,-1.36095 7.41503,-1.36098 5.06848,3e-5 9.12406,1.5722 12.16675,4.71652 3.04263,3.14437 4.56396,7.51673 4.564,13.11709 -4e-5,5.55347 -1.50963,9.89845 -4.5288,13.03497 -3.01923,3.13653 -7.05525,4.70479 -12.10809,4.70479 -5.11544,0 -9.18276,-1.56044 -12.20195,-4.68133 -3.0192,-3.12087 -4.5288,-7.41893 -4.5288,-12.89417 z m 7.15692,-0.23465 c -1e-5,3.89525 0.89949,6.84796 2.6985,8.85814 1.799,2.0102 4.08295,3.0153 6.85187,3.01529 2.76888,10e-6 5.0411,-0.99727 6.81666,-2.99182 1.77552,-1.99454 2.66328,-4.98636 2.66331,-8.97547 -3e-5,-3.94215 -0.86433,-6.88313 -2.59291,-8.82295 -1.72863,-1.93977 -4.02432,-2.90967 -6.88706,-2.9097 -2.86278,3e-5 -5.1702,0.98166 -6.92226,2.9449 -1.75209,1.96328 -2.62812,4.92382 -2.62811,8.88161 z"
           inkscape:connector-curvature="0" />
        <path
           id="path4182"
           d="m 475.92293,874.27808 0,-34.40011 23.58261,0 0,5.81939 -16.63688,0 0,8.14245 14.36075,0 0,5.81939 -14.36075,0 0,14.61888 z"
           inkscape:connector-curvature="0" />
        <path
           id="path4184"
           d="m 538.34055,874.27808 0,-28.58072 -10.20739,0 0,-5.81939 27.33705,0 0,5.81939 -10.18393,0 0,28.58072 z"
           inkscape:connector-curvature="0" />
        <path
           id="path4186"
           d="m 566.00616,874.27808 0,-34.40011 6.94572,0 0,13.53947 13.60987,0 0,-13.53947 6.94572,0 0,34.40011 -6.94572,0 0,-15.04125 -13.60987,0 0,15.04125 z"
           inkscape:connector-curvature="0" />
        <path
           id="path4188"
           d="m 606.71841,874.27808 0,-34.40011 25.50676,0 0,5.81939 -18.56104,0 0,7.62622 17.27045,0 0,5.79592 -17.27045,0 0,9.36265 19.21807,0 0,5.79593 z"
           inkscape:connector-curvature="0" />
        <path
           id="path4190"
           d="m 664.16146,874.27808 0,-34.40011 11.14601,0 c 4.22374,3e-5 6.97699,0.17211 8.25978,0.51623 1.97106,0.51627 3.62145,1.6387 4.95118,3.36727 1.32967,1.72864 1.99452,3.96175 1.99455,6.69934 -3e-5,2.1119 -0.3833,3.88744 -1.1498,5.32662 -0.76656,1.43922 -1.74037,2.56947 -2.92143,3.39074 -1.18111,0.82129 -2.38175,1.36491 -3.60192,1.63083 -1.65823,0.32853 -4.05951,0.49279 -7.20384,0.49277 l -4.5288,0 0,12.97631 z m 6.94573,-28.58072 0,9.76156 3.80137,0 c 2.7376,2e-5 4.56789,-0.17988 5.49088,-0.5397 0.92295,-0.35979 1.64646,-0.92295 2.17054,-1.6895 0.52404,-0.76652 0.78606,-1.6582 0.78609,-2.67505 -3e-5,-1.25145 -0.36765,-2.28393 -1.10287,-3.09741 -0.73527,-0.81344 -1.66606,-1.32185 -2.79237,-1.52525 -0.82912,-0.1564 -2.49516,-0.23462 -4.99811,-0.23465 z"
           inkscape:connector-curvature="0" />
        <path
           id="path4192"
           d="m 702.29253,874.27808 0,-34.40011 6.94573,0 0,13.53947 13.60986,0 0,-13.53947 6.94573,0 0,34.40011 -6.94573,0 0,-15.04125 -13.60986,0 0,15.04125 z"
           inkscape:connector-curvature="0" />
        <path
           id="path4194"
           d="m 742.7936,874.27808 0,-34.40011 6.94572,0 0,34.40011 z"
           inkscape:connector-curvature="0" />
        <path
           id="path4196"
           d="m 762.5279,874.27808 0,-34.11853 6.94572,0 0,28.3226 17.27045,0 0,5.79593 z"
           inkscape:connector-curvature="0" />
        <path
           id="path4198"
           d="m 797.51467,874.27808 0,-34.40011 6.94572,0 0,34.40011 z"
           inkscape:connector-curvature="0" />
        <path
           id="path4200"
           d="m 817.06124,874.27808 0,-34.40011 11.14601,0 c 4.22374,3e-5 6.97699,0.17211 8.25979,0.51623 1.97105,0.51627 3.62144,1.6387 4.95117,3.36727 1.32967,1.72864 1.99452,3.96175 1.99455,6.69934 -3e-5,2.1119 -0.3833,3.88744 -1.1498,5.32662 -0.76656,1.43922 -1.74037,2.56947 -2.92143,3.39074 -1.18111,0.82129 -2.38175,1.36491 -3.60192,1.63083 -1.65823,0.32853 -4.05951,0.49279 -7.20384,0.49277 l -4.5288,0 0,12.97631 z m 6.94573,-28.58072 0,9.76156 3.80137,0 c 2.7376,2e-5 4.56789,-0.17988 5.49088,-0.5397 0.92295,-0.35979 1.64646,-0.92295 2.17054,-1.6895 0.52404,-0.76652 0.78606,-1.6582 0.78609,-2.67505 -3e-5,-1.25145 -0.36765,-2.28393 -1.10287,-3.09741 -0.73527,-0.81344 -1.66606,-1.32185 -2.79237,-1.52525 -0.82912,-0.1564 -2.49516,-0.23462 -4.99811,-0.23465 z"
           inkscape:connector-curvature="0" />
        <path
           id="path4202"
           d="m 855.16885,874.27808 0,-34.40011 11.14601,0 c 4.22373,3e-5 6.97699,0.17211 8.25978,0.51623 1.97106,0.51627 3.62145,1.6387 4.95118,3.36727 1.32967,1.72864 1.99451,3.96175 1.99454,6.69934 -3e-5,2.1119 -0.38329,3.88744 -1.14979,5.32662 -0.76657,1.43922 -1.74037,2.56947 -2.92143,3.39074 -1.18111,0.82129 -2.38175,1.36491 -3.60192,1.63083 -1.65824,0.32853 -4.05952,0.49279 -7.20385,0.49277 l -4.5288,0 0,12.97631 z m 6.94572,-28.58072 0,9.76156 3.80138,0 c 2.7376,2e-5 4.56789,-0.17988 5.49088,-0.5397 0.92294,-0.35979 1.64646,-0.92295 2.17054,-1.6895 0.52403,-0.76652 0.78606,-1.6582 0.78608,-2.67505 -2e-5,-1.25145 -0.36764,-2.28393 -1.10287,-3.09741 -0.73526,-0.81344 -1.66605,-1.32185 -2.79236,-1.52525 -0.82913,-0.1564 -2.49516,-0.23462 -4.99811,-0.23465 z"
           inkscape:connector-curvature="0" />
        <path
           id="path4204"
           d="m 893.06527,874.27808 0,-34.40011 6.94572,0 0,34.40011 z"
           inkscape:connector-curvature="0" />
        <path
           id="path4206"
           d="m 912.6823,874.27808 0,-34.40011 6.758,0 14.07917,22.97251 0,-22.97251 6.45296,0 0,34.40011 -6.96919,0 -13.86799,-22.43282 0,22.43282 z"
           inkscape:connector-curvature="0" />
        <path
           id="path4208"
           d="m 953.34762,874.27808 0,-34.40011 25.50677,0 0,5.81939 -18.56104,0 0,7.62622 17.27045,0 0,5.79592 -17.27045,0 0,9.36265 19.21806,0 0,5.79593 z"
           inkscape:connector-curvature="0" />
        <path
           id="path4210"
           d="m 989.69533,863.08514 6.758,-0.65703 c 0.40672,2.26832 1.23192,3.93435 2.47559,4.9981 1.24368,1.06377 2.92138,1.59565 5.03328,1.59564 2.237,10e-6 3.9226,-0.47321 5.0568,-1.41965 1.1341,-0.94642 1.7012,-2.0532 1.7012,-3.32034 0,-0.81345 -0.2386,-1.50567 -0.7157,-2.07667 -0.4771,-0.57098 -1.3101,-1.06766 -2.499,-1.49005 -0.8135,-0.28157 -2.6673,-0.78216 -5.5613,-1.50178 -3.72316,-0.92295 -6.33563,-2.0571 -7.8374,-3.40246 -2.11188,-1.89285 -3.16781,-4.20027 -3.16781,-6.92226 0,-1.75205 0.49668,-3.39071 1.49005,-4.91598 0.99335,-1.52521 2.42473,-2.68674 4.29414,-3.48459 1.86939,-0.79779 4.12592,-1.1967 6.76972,-1.19673 4.3176,3e-5 7.5675,0.94646 9.7498,2.8393 2.1823,1.89289 3.3282,4.41932 3.4377,7.57928 l -6.9457,0.30505 c -0.2973,-1.76769 -0.9347,-3.03873 -1.9124,-3.81311 -0.9778,-0.77432 -2.4444,-1.1615 -4.3998,-1.16153 -2.018,3e-5 -3.598,0.41458 -4.73997,1.24366 -0.73525,0.53191 -1.10287,1.24369 -1.10286,2.13534 -10e-6,0.81349 0.34414,1.50963 1.03247,2.08841 0.87602,0.73527 3.00356,1.5018 6.38256,2.2996 3.379,0.79784 5.878,1.62304 7.4972,2.47559 1.619,0.85259 2.8862,2.01803 3.8013,3.49633 0.9151,1.47832 1.3727,3.3047 1.3727,5.47914 0,1.97109 -0.5475,3.81703 -1.6425,5.53781 -1.0951,1.72079 -2.6438,2.99964 -4.6461,3.83657 -2.0024,0.83693 -4.4976,1.25539 -7.4855,1.25539 -4.34888,0 -7.68877,-1.00509 -10.01965,-3.01529 -2.33089,-2.01018 -3.72316,-4.93943 -4.17682,-8.78774 z"
           inkscape:connector-curvature="0" />
      </g>
    </g>
  </g>
</svg>
