<?xml version="1.0" encoding="UTF-8" standalone="no"?>
<!-- Created with Inkscape (http://www.inkscape.org/) -->

<svg
   xmlns:dc="http://purl.org/dc/elements/1.1/"
   xmlns:cc="http://creativecommons.org/ns#"
   xmlns:rdf="http://www.w3.org/1999/02/22-rdf-syntax-ns#"
   xmlns:svg="http://www.w3.org/2000/svg"
   xmlns="http://www.w3.org/2000/svg"
   xmlns:sodipodi="http://sodipodi.sourceforge.net/DTD/sodipodi-0.dtd"
   xmlns:inkscape="http://www.inkscape.org/namespaces/inkscape"
   width="458.10715mm"
   height="264.58334mm"
   viewBox="0 0 458.10714 264.58334"
   version="1.1"
   id="svg8"
   inkscape:version="0.92.5 (2060ec1f9f, 2020-04-08)"
   sodipodi:docname="miaa.svg">
  <title
     id="title2103">Manila International Airport Authority</title>
  <defs
     id="defs2" />
  <sodipodi:namedview
     id="base"
     pagecolor="#ffffff"
     bordercolor="#666666"
     borderopacity="1.0"
     inkscape:pageopacity="0.0"
     inkscape:pageshadow="2"
     inkscape:zoom="0.24748737"
     inkscape:cx="593.43774"
     inkscape:cy="-293.29498"
     inkscape:document-units="mm"
     inkscape:current-layer="layer1"
     showgrid="false"
     inkscape:snap-bbox="true"
     inkscape:bbox-paths="true"
     inkscape:snap-bbox-edge-midpoints="true"
     inkscape:bbox-nodes="true"
     inkscape:snap-bbox-midpoints="true"
     inkscape:object-paths="true"
     inkscape:snap-intersection-paths="true"
     inkscape:snap-smooth-nodes="true"
     inkscape:snap-midpoints="true"
     inkscape:snap-object-midpoints="true"
     inkscape:snap-center="true"
     inkscape:snap-global="true"
     inkscape:window-width="1920"
     inkscape:window-height="1009"
     inkscape:window-x="-8"
     inkscape:window-y="1068"
     inkscape:window-maximized="1"
     fit-margin-top="0"
     fit-margin-left="0"
     fit-margin-right="0"
     fit-margin-bottom="0" />
  <metadata
     id="metadata5">
    <rdf:RDF>
      <cc:Work
         rdf:about="">
        <dc:format>image/svg+xml</dc:format>
        <dc:type
           rdf:resource="http://purl.org/dc/dcmitype/StillImage" />
        <dc:title>Manila International Airport Authority</dc:title>
      </cc:Work>
    </rdf:RDF>
  </metadata>
  <g
     inkscape:label="Layer 1"
     inkscape:groupmode="layer"
     id="layer1"
     transform="translate(139.99265,-38.394585)">
    <rect
       style="opacity:1;fill:#ffffff;fill-opacity:1;fill-rule:nonzero;stroke:none;stroke-width:0.1;stroke-linecap:square;stroke-linejoin:bevel;stroke-miterlimit:4;stroke-dasharray:none;stroke-dashoffset:0;stroke-opacity:1"
       id="rect2101"
       width="155.89983"
       height="150.36076"
       x="30.43535"
       y="52.341507" />
    <g
       id="g2097">
      <g
         id="g2051">
        <path
           inkscape:connector-curvature="0"
           style="opacity:1;fill:#614a3a;fill-opacity:1;fill-rule:nonzero;stroke:#f1f700;stroke-width:0.50476539;stroke-linecap:square;stroke-linejoin:bevel;stroke-miterlimit:4;stroke-dasharray:none;stroke-dashoffset:0;stroke-opacity:1"
           d="m -477.17578,197.82617 v 569.33594 h 148.18164 V 420.19727 L -182.14258,592.51953 -33.150391,420.19727 V 767.16211 H 115.03125 V 197.82617 H -33.150391 L -181.07227,370.37695 -328.99414,197.82617 Z"
           transform="scale(0.26458333)"
           id="rect1634" />
        <path
           style="opacity:1;fill:none;fill-opacity:1;fill-rule:nonzero;stroke:#f1f700;stroke-width:0.1324472;stroke-linecap:square;stroke-linejoin:bevel;stroke-miterlimit:4;stroke-dasharray:none;stroke-dashoffset:0;stroke-opacity:1"
           d="M 186.34219,52.474369 V 163.8532 h -0.007 v 38.84908 H 303.52248 V 163.8532 H 225.08499 V 52.474369 Z"
           id="rect1657"
           inkscape:connector-curvature="0" />
        <path
           style="opacity:1;fill:#614a3a;fill-opacity:1;fill-rule:nonzero;stroke:none;stroke-width:0.1324472;stroke-linecap:square;stroke-linejoin:bevel;stroke-miterlimit:4;stroke-dasharray:none;stroke-dashoffset:0;stroke-opacity:1"
           d="M 186.34219,52.474368 V 163.8532 h -0.007 v 38.84908 H 303.52248 V 163.8532 H 225.08499 V 52.474368 Z"
           id="rect1657-1"
           inkscape:connector-curvature="0" />
        <path
           inkscape:connector-curvature="0"
           style="opacity:1;fill:#ce1126;fill-opacity:1;fill-rule:nonzero;stroke:none;stroke-width:1.00312006;stroke-linecap:square;stroke-linejoin:bevel;stroke-miterlimit:4;stroke-dasharray:none;stroke-dashoffset:0;stroke-opacity:1"
           d="M 261.63086,198.08008 554.57227,542.69141 V 198.08008 Z m 0,222.38281 v 345.94727 h 292.94141 z"
           transform="scale(0.26458333)"
           id="rect1707" />
        <path
           inkscape:connector-curvature="0"
           style="opacity:1;fill:#0038a8;fill-opacity:1;fill-rule:nonzero;stroke:none;stroke-width:0.78334272;stroke-linecap:square;stroke-linejoin:bevel;stroke-miterlimit:4;stroke-dasharray:none;stroke-dashoffset:0;stroke-opacity:1"
           d="m 261.52148,197.96875 v 0.18555 l 0.10938,-0.0742 c 0,0 292.94148,346.20508 292.94141,346.20508 h 0.10937 V 197.96875 Z m 0,222.19531 v 124.1211 h 0.10938 V 420.46289 Z"
           transform="scale(0.26458333)"
           id="rect1707-9" />
      </g>
      <g
         transform="matrix(1.4660394,0,0,1.4660394,-41.064908,-190.46138)"
         id="g2010">
        <path
           style="opacity:1;fill:#614a3a;fill-opacity:1;fill-rule:nonzero;stroke:#f1f700;stroke-width:0.11352378;stroke-linecap:square;stroke-linejoin:bevel;stroke-miterlimit:4;stroke-dasharray:none;stroke-dashoffset:0;stroke-opacity:1"
           d="m -219.9043,1050.6523 v 5.7032 65.3535 h 3.29102 v -60.7598 l 29.35742,40.9863 29.35742,-40.9863 v 60.7598 h 3.29102 v -65.3592 -5.7035 l -3.29102,4.5843 -29.35742,40.8946 -29.35742,-40.8946 z"
           transform="scale(0.26458333)"
           id="rect828"
           inkscape:connector-curvature="0"
           sodipodi:nodetypes="ccccccccccccccc" />
        <path
           style="opacity:1;fill:#614a3a;fill-opacity:1;fill-rule:nonzero;stroke:#f10000;stroke-width:0.02645833;stroke-linecap:square;stroke-linejoin:bevel;stroke-miterlimit:4;stroke-dasharray:none;stroke-dashoffset:0;stroke-opacity:1"
           d="m -36.774343,296.786 h 0.902388"
           id="path872"
           inkscape:connector-curvature="0"
           sodipodi:nodetypes="cc" />
        <path
           inkscape:connector-curvature="0"
           style="opacity:1;fill:#614a3a;fill-opacity:1;fill-rule:nonzero;stroke:#f1f700;stroke-width:0.09999999;stroke-linecap:square;stroke-linejoin:bevel;stroke-miterlimit:4;stroke-dasharray:none;stroke-dashoffset:0;stroke-opacity:1"
           d="m -109.82227,1050.6484 -29.16796,71.0625 h 3.41211 l 7.69726,-19.4648 h 17.27734 0.69141 18.148438 l 7.697266,19.4648 h 3.412109 z m 0,5.9356 17.109379,43.2637 h -17.199219 -0.66797 -16.35156 z"
           transform="scale(0.26458333)"
           id="path876" />
        <path
           inkscape:connector-curvature="0"
           style="opacity:1;fill:#614a3a;fill-opacity:1;fill-rule:nonzero;stroke:#f1f700;stroke-width:0.12651148;stroke-linecap:square;stroke-linejoin:bevel;stroke-miterlimit:4;stroke-dasharray:none;stroke-dashoffset:0;stroke-opacity:1"
           d="m -65.433594,1050.5781 v 4.7657 66.2539 h 3.222656 v -61.5821 l 39.333985,57.0235 3.222656,4.6718 v -3.8339 -67.1856 h -3.222656 v 62.4473 l -39.333985,-57.8223 z m 45.779297,71.1328 -3.222656,-0.01 v 0.01 z"
           transform="scale(0.26458333)"
           id="rect900" />
        <rect
           style="opacity:1;fill:#614a3a;fill-opacity:1;fill-rule:nonzero;stroke:#f1f700;stroke-width:0.02494271;stroke-linecap:square;stroke-linejoin:bevel;stroke-miterlimit:4;stroke-dasharray:none;stroke-dashoffset:0;stroke-opacity:1"
           id="rect935"
           width="1.0030798"
           height="18.801996"
           x="0.90963286"
           y="277.98401" />
        <path
           inkscape:connector-curvature="0"
           style="opacity:1;fill:#614a3a;fill-opacity:1;fill-rule:nonzero;stroke:#f1f700;stroke-width:0.09427166;stroke-linecap:square;stroke-linejoin:bevel;stroke-miterlimit:4;stroke-dasharray:none;stroke-dashoffset:0;stroke-opacity:1"
           d="m 28.787109,1050.5508 v 67.2558 h -0.01563 v 3.8223 h 30.5625 v -3.8223 H 32.578125 v -67.2558 z"
           transform="scale(0.26458333)"
           id="rect935-0" />
        <path
           inkscape:connector-curvature="0"
           style="opacity:1;fill:#614a3a;fill-opacity:1;fill-rule:nonzero;stroke:#f1f700;stroke-width:0.02645833;stroke-linecap:square;stroke-linejoin:bevel;stroke-miterlimit:4;stroke-dasharray:none;stroke-dashoffset:0;stroke-opacity:1"
           d="m 25.796515,277.97679 -7.717356,18.80195 h 0.902787 l 2.036567,-5.15006 h 4.571296 0.182935 4.801774 l 2.036569,5.15006 h 0.902787 z m 0,1.57046 4.526856,11.44685 H 25.772744 25.596011 21.26966 Z"
           id="path876-7" />
        <rect
           style="opacity:1;fill:#614a3a;fill-opacity:1;fill-rule:nonzero;stroke:#f1f700;stroke-width:0.02494271;stroke-linecap:square;stroke-linejoin:bevel;stroke-miterlimit:4;stroke-dasharray:none;stroke-dashoffset:0;stroke-opacity:1"
           id="rect935-7"
           width="1.0030798"
           height="18.801996"
           x="44.533375"
           y="278.01071" />
        <path
           inkscape:connector-curvature="0"
           style="opacity:1;fill:#614a3a;fill-opacity:1;fill-rule:nonzero;stroke:#f1f700;stroke-width:0.03347283;stroke-linecap:square;stroke-linejoin:bevel;stroke-miterlimit:4;stroke-dasharray:none;stroke-dashoffset:0;stroke-opacity:1"
           d="m 51.407425,278.00764 v 1.26093 17.52968 h 0.852661 v -16.2936 l 10.407116,15.08747 0.852661,1.23608 v -1.01439 -17.77619 h -0.852661 v 16.52251 L 52.260086,279.26132 Z m 12.112438,18.82056 -0.852661,-0.003 v 0.003 z"
           id="rect900-7" />
        <path
           inkscape:connector-curvature="0"
           style="opacity:1;fill:#614a3a;fill-opacity:1;fill-rule:nonzero;stroke:#f1f700;stroke-width:0.09427166;stroke-linecap:square;stroke-linejoin:bevel;stroke-miterlimit:4;stroke-dasharray:none;stroke-dashoffset:0;stroke-opacity:1"
           d="m 254.40039,1050.6484 v 3.8106 h 20.26758 v 67.2519 h 3.79101 v -67.2519 h 20.26758 v -3.8106 h -20.26758 -3.79101 z"
           transform="scale(0.26458333)"
           id="rect935-7-6" />
        <path
           inkscape:connector-curvature="0"
           style="opacity:1;fill:#614a3a;fill-opacity:1;fill-rule:nonzero;stroke:#f1f700;stroke-width:0.09427166;stroke-linecap:square;stroke-linejoin:bevel;stroke-miterlimit:4;stroke-dasharray:none;stroke-dashoffset:0;stroke-opacity:1"
           d="m 313.88672,1050.6367 v 3.8223 h 0.0176 v 25.4902 h -0.0176 v 3.8223 h 0.0176 v 34.1172 3.8222 0 h 3.79101 v 0 h 27.52735 v -3.8222 h -27.52735 v -34.1172 h 27.51172 v -3.8223 h -27.51172 v -25.4902 h 27.51172 v -3.8223 z"
           transform="scale(0.26458333)"
           id="rect935-7-9" />
        <path
           inkscape:connector-curvature="0"
           style="opacity:1;fill:#614a3a;fill-opacity:1;fill-rule:nonzero;stroke:#f1f700;stroke-width:0.09427166;stroke-linecap:square;stroke-linejoin:bevel;stroke-miterlimit:4;stroke-dasharray:none;stroke-dashoffset:0;stroke-opacity:1"
           d="m 368.21875,1050.6055 c -1.93344,0.01 -3.96112,0.1445 -5.38281,0.1445 v 3.6445 41.2051 2.3516 23.8613 h 3.79101 v -23.8086 c 0.0841,0 0.1575,0 0.24024,0 l 31.70508,23.7031 h 5.26757 c -0.51766,0 -29.65527,-22.0908 -31.68359,-23.6289 8.08146,0.1388 16.03029,0.3908 22.02734,-3.3593 4.96763,-3.1065 9.23131,-9.1962 9.90821,-19.4356 h 0.0156 c -0.002,-0.03 -0.006,-0.058 -0.008,-0.088 0.002,-0.031 0.006,-0.059 0.008,-0.09 h -0.0156 c -0.6769,-10.2394 -4.94058,-16.3291 -9.90821,-19.4356 -6.56375,-4.1045 -15.19726,-4.4747 -24.08789,-5.0215 -0.59765,-0.037 -1.23247,-0.049 -1.87695,-0.047 z m 0.92773,3.5937 c 6.29506,-0.063 12.32707,0.2689 16.13672,0.9785 8.64677,1.6106 14.92514,7.8094 15.3418,20.0215 -0.41666,12.2121 -6.69503,18.409 -15.3418,20.0196 -4.31666,0.8039 -11.48365,0.8125 -18.65625,0.5351 V 1054.25 c 0.84115,-0.022 1.68305,-0.043 2.51953,-0.051 z"
           transform="scale(0.26458333)"
           id="rect935-7-3" />
        <path
           inkscape:connector-curvature="0"
           style="opacity:1;fill:#614a3a;fill-opacity:1;fill-rule:nonzero;stroke:#f1f700;stroke-width:0.03347283;stroke-linecap:square;stroke-linejoin:bevel;stroke-miterlimit:4;stroke-dasharray:none;stroke-dashoffset:0;stroke-opacity:1"
           d="m 111.87235,277.985 v 1.26093 17.52968 h 0.85266 v -16.2936 l 10.40712,15.08747 0.85266,1.23608 v -1.01439 -17.77619 h -0.85266 v 16.52251 l -10.40712,-15.29881 z m 12.11244,18.82056 -0.85266,-0.003 v 0.003 z"
           id="rect900-7-5" />
        <path
           inkscape:connector-curvature="0"
           style="opacity:1;fill:#614a3a;fill-opacity:1;fill-rule:nonzero;stroke:#f1f700;stroke-width:0.02645833;stroke-linecap:square;stroke-linejoin:bevel;stroke-miterlimit:4;stroke-dasharray:none;stroke-dashoffset:0;stroke-opacity:1"
           d="m 135.74864,277.985 -7.71735,18.80195 h 0.90278 l 2.03657,-5.15006 h 4.5713 0.18293 4.80177 l 2.03657,5.15006 h 0.90279 z m 0,1.57046 4.52686,11.44685 h -4.55063 -0.17673 -4.32635 z"
           id="path876-7-6" />
        <path
           inkscape:connector-curvature="0"
           style="opacity:1;fill:#614a3a;fill-opacity:1;fill-rule:nonzero;stroke:#f1f700;stroke-width:0.02494271;stroke-linecap:square;stroke-linejoin:bevel;stroke-miterlimit:4;stroke-dasharray:none;stroke-dashoffset:0;stroke-opacity:1"
           d="m 145.29478,277.985 v 1.00822 h 5.36246 v 17.79374 h 1.00304 v -17.79374 h 5.36247 V 277.985 h -5.36247 -1.00304 z"
           id="rect935-7-6-8" />
        <rect
           style="opacity:1;fill:#614a3a;fill-opacity:1;fill-rule:nonzero;stroke:#f1f700;stroke-width:0.02494271;stroke-linecap:square;stroke-linejoin:bevel;stroke-miterlimit:4;stroke-dasharray:none;stroke-dashoffset:0;stroke-opacity:1"
           id="rect935-7-4"
           width="1.0030798"
           height="18.801996"
           x="161.22502"
           y="278.01071" />
        <path
           inkscape:connector-curvature="0"
           style="opacity:1;fill:#614a3a;fill-opacity:1;fill-rule:nonzero;stroke:#f1f700;stroke-width:0.08223076;stroke-linecap:square;stroke-linejoin:bevel;stroke-miterlimit:4;stroke-dasharray:none;stroke-dashoffset:0;stroke-opacity:1"
           d="m 668.66016,1050.6426 a 38.312455,35.538349 0 0 0 -38.3125,35.539 38.312455,35.538349 0 0 0 38.3125,35.5391 38.312455,35.538349 0 0 0 38.3125,-35.5391 38.312455,35.538349 0 0 0 -38.3125,-35.539 z m -0.0488,2.6445 a 35.11051,32.684171 0 0 1 35.11133,32.6836 35.11051,32.684171 0 0 1 -35.11133,32.6855 35.11051,32.684171 0 0 1 -35.10938,-32.6855 35.11051,32.684171 0 0 1 35.10938,-32.6836 z"
           transform="scale(0.26458333)"
           id="path1192" />
        <path
           inkscape:connector-curvature="0"
           style="opacity:1;fill:#614a3a;fill-opacity:1;fill-rule:nonzero;stroke:#f1f700;stroke-width:0.03347283;stroke-linecap:square;stroke-linejoin:bevel;stroke-miterlimit:4;stroke-dasharray:none;stroke-dashoffset:0;stroke-opacity:1"
           d="m 191.36478,278.00764 v 1.26093 17.52968 h 0.85266 v -16.2936 l 10.40712,15.08747 0.85266,1.23608 v -1.01439 -17.77619 h -0.85266 v 16.52251 l -10.40712,-15.29881 z m 12.11244,18.82056 -0.85266,-0.003 v 0.003 z"
           id="rect900-7-5-0" />
        <path
           inkscape:connector-curvature="0"
           style="opacity:1;fill:#614a3a;fill-opacity:1;fill-rule:nonzero;stroke:#f1f700;stroke-width:0.02645833;stroke-linecap:square;stroke-linejoin:bevel;stroke-miterlimit:4;stroke-dasharray:none;stroke-dashoffset:0;stroke-opacity:1"
           d="m 215.458,277.97679 -7.71735,18.80195 h 0.90278 l 2.03657,-5.15006 h 4.5713 0.18293 4.80177 l 2.03657,5.15006 h 0.90279 z m 0,1.57046 4.52686,11.44685 h -4.55063 -0.17673 -4.32635 z"
           id="path876-7-6-0" />
        <path
           inkscape:connector-curvature="0"
           style="opacity:1;fill:#614a3a;fill-opacity:1;fill-rule:nonzero;stroke:#f1f700;stroke-width:0.02494271;stroke-linecap:square;stroke-linejoin:bevel;stroke-miterlimit:4;stroke-dasharray:none;stroke-dashoffset:0;stroke-opacity:1"
           d="m 226.95167,277.985 v 17.79477 h -0.004 v 1.01131 h 8.08633 v -1.01131 h -7.07915 V 277.985 Z"
           id="rect935-0-2" />
        <path
           inkscape:connector-curvature="0"
           style="opacity:1;fill:#614a3a;fill-opacity:1;fill-rule:nonzero;stroke:#f1f700;stroke-width:0.02494271;stroke-linecap:square;stroke-linejoin:bevel;stroke-miterlimit:4;stroke-dasharray:none;stroke-dashoffset:0;stroke-opacity:1"
           d="m -12.725654,309.41556 c -0.511556,0.003 -1.048046,0.0382 -1.424201,0.0382 v 0.96428 10.90218 0.62219 6.31331 h 1.003038 v -6.29936 c 0.02225,0 0.04167,0 0.06356,0 l 8.3886383,6.27144 h 1.39371 c -0.13696,0 -7.8462913,-5.84485 -8.3829513,-6.25181 2.1382211,0.0367 4.2413513,0.1034 5.8280713,-0.88882 1.31435,-0.82192 2.44245,-2.43316 2.62154,-5.14233 h 0.004 c -5.3e-4,-0.008 -0.002,-0.0153 -0.002,-0.0233 5.3e-4,-0.008 0.002,-0.0156 0.002,-0.0238 h -0.004 c -0.17909,-2.70917 -1.30719,-4.3204 -2.62154,-5.14233 -1.73666,-1.08598 -4.0209502,-1.18393 -6.3732583,-1.32861 -0.158128,-0.01 -0.326091,-0.013 -0.49661,-0.0124 z m 0.245462,0.95083 c 1.665568,-0.0167 3.2615361,0.0711 4.2695061,0.2589 2.2877902,0.42614 3.9489402,2.06624 4.0591902,5.29735 -0.11025,3.23112 -1.7714,4.87072 -4.0591902,5.29686 -1.14211,0.2127 -3.0383811,0.21497 -4.9361311,0.14158 v -10.98124 c 0.222554,-0.006 0.445307,-0.0114 0.666625,-0.0135 z"
           id="rect935-7-3-8" />
        <path
           inkscape:connector-curvature="0"
           style="opacity:1;fill:#614a3a;fill-opacity:1;fill-rule:nonzero;stroke:#f1f700;stroke-width:0.02645833;stroke-linecap:square;stroke-linejoin:bevel;stroke-miterlimit:4;stroke-dasharray:none;stroke-dashoffset:0;stroke-opacity:1"
           d="m -33.20824,309.44579 -7.717356,18.80195 h 0.902787 l 2.036567,-5.15006 h 4.571296 0.182935 4.801774 l 2.036569,5.15006 h 0.902787 z m 0,1.57046 4.526856,11.44685 h -4.550627 -0.176733 -4.326351 z"
           id="path876-3" />
        <path
           inkscape:connector-curvature="0"
           style="opacity:1;fill:#614a3a;fill-opacity:1;fill-rule:nonzero;stroke:#f1f700;stroke-width:0.02645833;stroke-linecap:square;stroke-linejoin:bevel;stroke-miterlimit:4;stroke-dasharray:none;stroke-dashoffset:0;stroke-opacity:1"
           d="m -29.057141,277.98405 -7.717356,18.80195 h 0.902787 l 2.036567,-5.15006 h 4.571296 0.182935 4.801774 l 2.036569,5.15006 h 0.902788 z m 0,1.57046 4.526856,11.44685 h -4.550627 -0.176733 -4.326351 z"
           id="path876-3-9" />
        <path
           inkscape:connector-curvature="0"
           style="opacity:1;fill:#614a3a;fill-opacity:1;fill-rule:nonzero;stroke:#f1f700;stroke-width:0.09427166;stroke-linecap:square;stroke-linejoin:bevel;stroke-miterlimit:4;stroke-dasharray:none;stroke-dashoffset:0;stroke-opacity:1"
           d="m 475.19336,1169.5898 v 29.0215 h -0.0176 v 3.8262 h 0.0176 v 38.2148 h 3.79102 v -38.2148 h 15.50976 7.31641 15.50976 v 38.2148 h 3.79102 v -38.2148 h 0.0176 v -3.8262 h -0.0176 v -29.0215 h -3.79102 v 29.0215 h -15.50976 -7.31641 -15.50976 v -29.0215 z"
           transform="scale(0.26458333)"
           id="rect935-4" />
        <path
           style="opacity:1;fill:#614a3a;fill-opacity:1;fill-rule:nonzero;stroke:#f1f700;stroke-width:0.02494271;stroke-linecap:square;stroke-linejoin:bevel;stroke-miterlimit:4;stroke-dasharray:none;stroke-dashoffset:0;stroke-opacity:1"
           d="m 2.8741692,309.40678 v 10e-4 c -0.5115558,0.003 -1.0480473,0.0382 -1.4242023,0.0382 v 0.9643 10.90215 0.6222 6.3133 h 1.0030395 v -6.29936 h 0.063562 3.9858032 c 1.1931676,-0.0724 2.3080262,-0.28535 3.2416625,-0.86918 1.3143499,-0.82193 2.4424559,-2.43316 2.6215449,-5.14234 h 0.0041 c -5.29e-4,-0.008 -0.0021,-0.0152 -0.0021,-0.0233 5.3e-4,-0.008 0.0021,-0.0156 0.0021,-0.0238 h -0.0041 c -0.179089,-2.70918 -1.307195,-4.32038 -2.6215449,-5.14234 -1.7366599,-1.08596 -4.0209462,-1.1839 -6.3732544,-1.32858 -0.158128,-0.01 -0.3260913,-0.013 -0.4966105,-0.0124 z m 0.2454632,0.95187 c 1.665568,-0.0167 3.2615367,0.0711 4.2695066,0.25892 2.2877907,0.42614 3.948934,2.06624 4.059184,5.29733 -0.11025,3.23114 -1.7713933,4.87071 -4.059184,5.29685 -1.1421097,0.2127 -3.0383826,0.21497 -4.9361326,0.14158 v -10.98124 c 0.2225539,-0.006 0.4453079,-0.0113 0.666626,-0.0134 z"
           id="rect935-7-3-8-9"
           inkscape:connector-curvature="0" />
        <path
           inkscape:connector-curvature="0"
           style="opacity:1;fill:#614a3a;fill-opacity:1;fill-rule:nonzero;stroke:#f1f700;stroke-width:0.02175689;stroke-linecap:square;stroke-linejoin:bevel;stroke-miterlimit:4;stroke-dasharray:none;stroke-dashoffset:0;stroke-opacity:1"
           d="m 25.264993,309.45165 a 10.136837,9.4028548 0 0 0 -10.136849,9.40303 10.136837,9.4028548 0 0 0 10.136849,9.40305 10.136837,9.4028548 0 0 0 10.13685,-9.40305 10.136837,9.4028548 0 0 0 -10.13685,-9.40303 z m -0.0129,0.69969 a 9.2896558,8.6476869 0 0 1 9.28987,8.64754 9.2896558,8.6476869 0 0 1 -9.28987,8.64804 9.2896558,8.6476869 0 0 1 -9.289359,-8.64804 9.2896558,8.6476869 0 0 1 9.289359,-8.64754 z"
           id="path1192-0" />
        <path
           inkscape:connector-curvature="0"
           style="opacity:1;fill:#614a3a;fill-opacity:1;fill-rule:nonzero;stroke:#f1f700;stroke-width:0.02494271;stroke-linecap:square;stroke-linejoin:bevel;stroke-miterlimit:4;stroke-dasharray:none;stroke-dashoffset:0;stroke-opacity:1"
           d="m 41.227047,309.40784 c -0.511556,0.003 -1.048046,0.0382 -1.424201,0.0382 v 0.96428 10.90218 0.62219 6.31331 h 1.003038 v -6.29936 h 0.06356 l 8.435885,6.29936 h 1.358991 c -0.13696,0 -7.85882,-5.87277 -8.395479,-6.27973 2.138221,0.0367 4.241351,0.1034 5.828071,-0.88882 1.31435,-0.82192 2.44245,-2.43316 2.62154,-5.14233 h 0.004 c -5.29e-4,-0.008 -0.002,-0.0153 -0.002,-0.0233 5.3e-4,-0.008 0.002,-0.0156 0.002,-0.0238 h -0.004 c -0.17909,-2.70917 -1.30719,-4.3204 -2.62154,-5.14233 -1.73666,-1.08598 -4.02095,-1.18393 -6.373258,-1.32861 -0.158128,-0.01 -0.326091,-0.013 -0.49661,-0.0124 z m 0.245462,0.95083 c 1.665567,-0.0167 3.261536,0.0711 4.269506,0.2589 2.28779,0.42614 3.94894,2.06624 4.05919,5.29735 -0.11025,3.23112 -1.7714,4.87072 -4.05919,5.29686 -1.14211,0.2127 -3.038382,0.21497 -4.936131,0.14158 v -10.98124 c 0.222554,-0.006 0.445307,-0.0114 0.666625,-0.0135 z"
           id="rect935-7-3-8-3"
           sodipodi:nodetypes="cccccccccccccccccccccccccccccc" />
        <path
           inkscape:connector-curvature="0"
           style="opacity:1;fill:#614a3a;fill-opacity:1;fill-rule:nonzero;stroke:#f1f700;stroke-width:0.02494271;stroke-linecap:square;stroke-linejoin:bevel;stroke-miterlimit:4;stroke-dasharray:none;stroke-dashoffset:0;stroke-opacity:1"
           d="m 53.870756,309.454 v 1.00822 h 5.362464 v 17.79373 h 1.003038 v -17.79373 h 5.362464 V 309.454 H 60.236258 59.23322 Z"
           id="rect935-7-6-6" />
        <path
           inkscape:connector-curvature="0"
           style="opacity:1;fill:#614a3a;fill-opacity:1;fill-rule:nonzero;stroke:#f1f700;stroke-width:0.02645833;stroke-linecap:square;stroke-linejoin:bevel;stroke-miterlimit:4;stroke-dasharray:none;stroke-dashoffset:0;stroke-opacity:1"
           d="m 82.758321,309.44579 -7.717356,18.80195 h 0.902787 l 2.036567,-5.15006 h 4.571296 0.182935 4.801774 l 2.036569,5.15006 h 0.902788 z m 0,1.57046 4.526856,11.44685 H 82.73455 82.557817 78.231466 Z"
           id="path876-7-0" />
        <path
           sodipodi:nodetypes="csssccssscc"
           inkscape:connector-curvature="0"
           style="opacity:1;fill:#614a3a;fill-opacity:1;fill-rule:nonzero;stroke:#f1f700;stroke-width:0.10604568;stroke-linecap:square;stroke-linejoin:bevel;stroke-miterlimit:4;stroke-dasharray:none;stroke-dashoffset:0;stroke-opacity:1"
           d="m 355.28711,1169.5898 v 49.2774 c 0,12.0508 10.59027,21.7519 23.74609,21.7519 13.15583,0 23.7461,-9.7011 23.7461,-21.7519 v -49.2774 l -2.86832,0.061 -0.0523,49.5315 c -0.0117,11.076 -10.33432,18.7021 -20.81868,18.7021 -10.48435,0 -20.98152,-7.6557 -21.0008,-18.7317 l -0.0861,-49.5019 z"
           transform="scale(0.26458333)"
           id="rect1412" />
        <path
           inkscape:connector-curvature="0"
           style="opacity:1;fill:#614a3a;fill-opacity:1;fill-rule:nonzero;stroke:#f1f700;stroke-width:0.02494271;stroke-linecap:square;stroke-linejoin:bevel;stroke-miterlimit:4;stroke-dasharray:none;stroke-dashoffset:0;stroke-opacity:1"
           d="m 109.90356,309.454 v 1.00822 h 5.36247 v 17.79373 h 1.00304 v -17.79373 h 5.36246 V 309.454 h -5.36246 -1.00304 z"
           id="rect935-7-6-6-7" />
        <path
           inkscape:connector-curvature="0"
           style="opacity:1;fill:#614a3a;fill-opacity:1;fill-rule:nonzero;stroke:#f1f700;stroke-width:0.02175689;stroke-linecap:square;stroke-linejoin:bevel;stroke-miterlimit:4;stroke-dasharray:none;stroke-dashoffset:0;stroke-opacity:1"
           d="m 152.6443,309.41781 a 10.136837,9.4028548 0 0 0 -10.13684,9.40303 10.136837,9.4028548 0 0 0 10.13684,9.40305 10.136837,9.4028548 0 0 0 10.13685,-9.40305 10.136837,9.4028548 0 0 0 -10.13685,-9.40303 z m -0.0129,0.6997 a 9.2896558,8.6476869 0 0 1 9.28987,8.64753 9.2896558,8.6476869 0 0 1 -9.28987,8.64804 9.2896558,8.6476869 0 0 1 -9.28935,-8.64804 9.2896558,8.6476869 0 0 1 9.28935,-8.64753 z"
           id="path1192-6" />
        <path
           inkscape:connector-curvature="0"
           style="opacity:1;fill:#614a3a;fill-opacity:1;fill-rule:nonzero;stroke:#f1f700;stroke-width:0.02494271;stroke-linecap:square;stroke-linejoin:bevel;stroke-miterlimit:4;stroke-dasharray:none;stroke-dashoffset:0;stroke-opacity:1"
           d="m 168.28642,309.45448 c -0.51155,0.003 -1.04804,0.0382 -1.4242,0.0382 v 0.96428 10.90218 0.62219 6.31331 h 1.00304 v -6.29936 h 0.0636 l 8.43589,6.29936 h 1.35899 c -0.13696,0 -7.85882,-5.87277 -8.39548,-6.27973 2.13822,0.0367 4.24135,0.1034 5.82807,-0.88882 1.31435,-0.82192 2.44245,-2.43316 2.62154,-5.14233 h 0.004 c -5.3e-4,-0.008 -0.002,-0.0153 -0.002,-0.0233 5.3e-4,-0.008 0.002,-0.0156 0.002,-0.0238 h -0.004 c -0.17909,-2.70917 -1.30719,-4.3204 -2.62154,-5.14233 -1.73666,-1.08598 -4.02095,-1.18393 -6.37326,-1.32861 -0.15813,-0.01 -0.32609,-0.013 -0.49661,-0.0124 z m 0.24547,0.95083 c 1.66556,-0.0167 3.26153,0.0711 4.2695,0.2589 2.28779,0.42614 3.94894,2.06624 4.05919,5.29735 -0.11025,3.23112 -1.7714,4.87072 -4.05919,5.29686 -1.14211,0.2127 -3.03838,0.21497 -4.93613,0.14158 v -10.98124 c 0.22255,-0.006 0.44531,-0.0114 0.66663,-0.0135 z"
           id="rect935-7-3-8-3-8"
           sodipodi:nodetypes="cccccccccccccccccccccccccccccc" />
        <rect
           style="opacity:1;fill:#614a3a;fill-opacity:1;fill-rule:nonzero;stroke:#f1f700;stroke-width:0.02494271;stroke-linecap:square;stroke-linejoin:bevel;stroke-miterlimit:4;stroke-dasharray:none;stroke-dashoffset:0;stroke-opacity:1"
           id="rect935-7-4-5"
           width="1.0030798"
           height="18.801996"
           x="182.87619"
           y="309.44598" />
        <path
           inkscape:connector-curvature="0"
           style="opacity:1;fill:#614a3a;fill-opacity:1;fill-rule:nonzero;stroke:#f1f700;stroke-width:0.02494271;stroke-linecap:square;stroke-linejoin:bevel;stroke-miterlimit:4;stroke-dasharray:none;stroke-dashoffset:0;stroke-opacity:1"
           d="m 188.22679,309.42034 v 1.00822 h 5.36246 v 17.79374 h 1.00304 v -17.79374 h 5.36247 v -1.00822 h -5.36247 -1.00304 z"
           id="rect935-7-6-8-6" />
        <path
           inkscape:connector-curvature="0"
           style="opacity:1;fill:#614a3a;fill-opacity:1;fill-rule:nonzero;stroke:#f1f700;stroke-width:0.09427166;stroke-linecap:square;stroke-linejoin:bevel;stroke-miterlimit:4;stroke-dasharray:none;stroke-dashoffset:0;stroke-opacity:1"
           d="m 764.04102,1169.5898 22.64453,39.2207 c -0.006,5.949 0.0645,11.9059 0.11328,17.8653 l 0.0137,13.9472 h 3.72852 l 0.0137,-13.7988 c 0.0487,-6.0095 0.11887,-12.0166 0.11328,-18.0156 l 22.64258,-39.2188 h -4.37696 l -18.36132,31.8028 c -0.48757,0.8444 -1.07431,1.8588 -1.89649,3.2832 -0.82218,-1.4242 -1.40709,-2.439 -1.89453,-3.2832 l -18.36133,-31.8028 z"
           transform="scale(0.26458333)"
           id="rect935-7-4-5-1" />
        <rect
           style="opacity:1;fill:#614a3a;fill-opacity:1;fill-rule:nonzero;stroke:#f1f700;stroke-width:0.02494271;stroke-linecap:square;stroke-linejoin:bevel;stroke-miterlimit:4;stroke-dasharray:none;stroke-dashoffset:0;stroke-opacity:1"
           id="rect935-7-45"
           width="1.0030798"
           height="18.801996"
           x="-21.081293"
           y="309.51508" />
      </g>
    </g>
  </g>
</svg>
