<?xml version="1.0" encoding="UTF-8" standalone="no"?>
<!-- Created with Inkscape (http://www.inkscape.org/) -->

<svg
   xmlns:dc="http://purl.org/dc/elements/1.1/"
   xmlns:cc="http://creativecommons.org/ns#"
   xmlns:rdf="http://www.w3.org/1999/02/22-rdf-syntax-ns#"
   xmlns:svg="http://www.w3.org/2000/svg"
   xmlns="http://www.w3.org/2000/svg"
   xmlns:sodipodi="http://sodipodi.sourceforge.net/DTD/sodipodi-0.dtd"
   xmlns:inkscape="http://www.inkscape.org/namespaces/inkscape"
   width="138.28889mm"
   height="84.77581mm"
   viewBox="0 0 490.00002 300.38673"
   id="svg2"
   version="1.1"
   inkscape:version="0.91 r13725"
   sodipodi:docname="Movie and Television Review and Classification Board (MTRCB).svg">
  <defs
     id="defs4" />
  <sodipodi:namedview
     id="base"
     pagecolor="#ffffff"
     bordercolor="#666666"
     borderopacity="1.0"
     inkscape:pageopacity="0.0"
     inkscape:pageshadow="2"
     inkscape:zoom="1.0208854"
     inkscape:cx="282.80612"
     inkscape:cy="77.966811"
     inkscape:document-units="px"
     inkscape:current-layer="layer1"
     showgrid="false"
     fit-margin-top="0"
     fit-margin-left="0"
     fit-margin-right="0"
     fit-margin-bottom="0"
     inkscape:window-width="1366"
     inkscape:window-height="705"
     inkscape:window-x="-4"
     inkscape:window-y="-4"
     inkscape:window-maximized="1" />
  <metadata
     id="metadata7">
    <rdf:RDF>
      <cc:Work
         rdf:about="">
        <dc:format>image/svg+xml</dc:format>
        <dc:type
           rdf:resource="http://purl.org/dc/dcmitype/StillImage" />
        <dc:title></dc:title>
      </cc:Work>
    </rdf:RDF>
  </metadata>
  <g
     inkscape:label="Layer 1"
     inkscape:groupmode="layer"
     id="layer1"
     transform="translate(-23.71051,-698.39269)">
    <g
       id="g4502">
      <path
         sodipodi:nodetypes="ccccsc"
         inkscape:connector-curvature="0"
         id="path4147"
         d="m 224.97764,698.39269 -56.19445,39.41119 c 0,0 146.71845,-4.19512 216.81694,1.40486 46.30687,4.0605 97.06812,41.09739 118.94493,66.02849 -7.13119,-64.30379 -60.24237,-104.68247 -99.31659,-105.78514 -40.95652,-1.1558 -91.14431,-0.69118 -180.25083,-1.0594 z"
         style="fill:#000000;fill-rule:evenodd;stroke:none;stroke-width:1;stroke-linecap:butt;stroke-linejoin:miter;stroke-miterlimit:4;stroke-dasharray:none;stroke-opacity:1" />
      <circle
         cx="440.90491"
         cy="825.3266"
         r="65.770348"
         id="path4149"
         style="fill:#000000;fill-opacity:1;stroke:#000000;stroke-width:14.07051945;stroke-linecap:square;stroke-linejoin:miter;stroke-miterlimit:4;stroke-dasharray:none;stroke-dashoffset:0;stroke-opacity:1" />
      <path
         d="m 457.31114,768.16194 a 58.893921,58.893921 0 0 1 25.84095,15.18711 l -41.77892,41.50923 z"
         sodipodi:end="5.5010252"
         sodipodi:start="4.9864277"
         sodipodi:ry="58.893921"
         sodipodi:rx="58.893921"
         sodipodi:cy="824.85828"
         sodipodi:cx="441.37317"
         sodipodi:type="arc"
         id="path4149-2-8"
         style="fill:#ffffff;fill-opacity:1;stroke:#000000;stroke-width:1.60469711;stroke-linecap:square;stroke-linejoin:miter;stroke-miterlimit:4;stroke-dasharray:none;stroke-dashoffset:0;stroke-opacity:1" />
      <path
         d="m 498.05143,808.85615 a 58.893921,58.893921 0 0 1 0.86528,28.54145 l -57.54354,-12.53932 z"
         sodipodi:end="0.21455602"
         sodipodi:start="6.0080148"
         sodipodi:ry="58.893921"
         sodipodi:rx="58.893921"
         sodipodi:cy="824.85828"
         sodipodi:cx="441.37317"
         sodipodi:type="arc"
         id="path4149-2-8-6"
         style="fill:#ffffff;fill-opacity:1;stroke:#000000;stroke-width:1.60469711;stroke-linecap:square;stroke-linejoin:miter;stroke-miterlimit:4;stroke-dasharray:none;stroke-dashoffset:0;stroke-opacity:1" />
      <path
         d="m 401.76132,781.27622 a 58.893921,58.893921 0 0 1 22.37461,-12.73287 l 17.23724,56.31493 z"
         sodipodi:end="4.4153576"
         sodipodi:start="3.9746769"
         sodipodi:ry="58.893921"
         sodipodi:rx="58.893921"
         sodipodi:cy="824.85828"
         sodipodi:cx="441.37317"
         sodipodi:type="arc"
         id="path4149-2-8-8"
         style="fill:#ffffff;fill-opacity:1;stroke:#000000;stroke-width:1.60469711;stroke-linecap:square;stroke-linejoin:miter;stroke-miterlimit:4;stroke-dasharray:none;stroke-dashoffset:0;stroke-opacity:1" />
      <path
         d="m 383.74641,837.00942 a 58.893921,58.893921 0 0 1 1.34448,-29.49469 l 56.28228,17.34355 z"
         sodipodi:end="3.4405123"
         sodipodi:start="2.9337775"
         sodipodi:ry="58.893921"
         sodipodi:rx="58.893921"
         sodipodi:cy="824.85828"
         sodipodi:cx="441.37317"
         sodipodi:type="arc"
         id="path4149-2-8-5"
         style="fill:#ffffff;fill-opacity:1;stroke:#000000;stroke-width:1.60469711;stroke-linecap:square;stroke-linejoin:miter;stroke-miterlimit:4;stroke-dasharray:none;stroke-dashoffset:0;stroke-opacity:1" />
      <path
         transform="scale(1,-1)"
         d="m 458.98013,-880.26475 a 58.893921,58.893921 0 0 1 24.17419,14.3719 l -41.31286,41.97311 z"
         sodipodi:end="5.4898598"
         sodipodi:start="5.0076704"
         sodipodi:ry="58.893921"
         sodipodi:rx="58.893921"
         sodipodi:cy="-823.91974"
         sodipodi:cx="441.84146"
         sodipodi:type="arc"
         id="path4149-2-8-62"
         style="fill:#ffffff;fill-opacity:1;stroke:#000000;stroke-width:1.60469711;stroke-linecap:square;stroke-linejoin:miter;stroke-miterlimit:4;stroke-dasharray:none;stroke-dashoffset:0;stroke-opacity:1" />
      <path
         transform="scale(1,-1)"
         d="m 402.56391,-867.80332 a 58.893921,58.893921 0 0 1 22.50867,-12.57258 l 16.76888,56.45616 z"
         sodipodi:end="4.4236639"
         sodipodi:start="3.9823211"
         sodipodi:ry="58.893921"
         sodipodi:rx="58.893921"
         sodipodi:cy="-823.91974"
         sodipodi:cx="441.84146"
         sodipodi:type="arc"
         id="path4149-2-8-8-8"
         style="fill:#ffffff;fill-opacity:1;stroke:#000000;stroke-width:1.60469711;stroke-linecap:square;stroke-linejoin:miter;stroke-miterlimit:4;stroke-dasharray:none;stroke-dashoffset:0;stroke-opacity:1" />
      <circle
         r="17.545536"
         cy="823.2193"
         cx="443.01218"
         id="path4149-2"
         style="fill:#ffffff;fill-opacity:1;stroke:#000000;stroke-width:6.27179623;stroke-linecap:square;stroke-linejoin:miter;stroke-miterlimit:4;stroke-dasharray:none;stroke-dashoffset:0;stroke-opacity:1" />
      <path
         sodipodi:nodetypes="ccccc"
         inkscape:connector-curvature="0"
         id="path4238"
         d="m 398.24388,699.40434 -47.83575,-1.01165 c -68.57237,42.44538 -100.84762,140.7393 -108.52132,215.13038 l 84.13988,0 c 8.07136,-84.75529 14.72596,-153.70793 72.21719,-214.11873 z"
         style="fill:#ce1126;fill-opacity:1;fill-rule:evenodd;stroke:none;stroke-width:1px;stroke-linecap:butt;stroke-linejoin:miter;stroke-opacity:1" />
      <path
         sodipodi:nodetypes="ccccc"
         inkscape:connector-curvature="0"
         id="path4238-7"
         d="m 324.59248,698.39269 -60.2365,0 c -85.43071,36.35764 -121.40452,140.7393 -129.07823,215.13038 l 84.61795,0 c 9.94451,-83.35042 24.25948,-161.74388 104.69678,-215.13038 z"
         style="fill:#006c35;fill-opacity:1;fill-rule:evenodd;stroke:none;stroke-width:1px;stroke-linecap:butt;stroke-linejoin:miter;stroke-opacity:1" />
      <path
         sodipodi:nodetypes="ccccc"
         inkscape:connector-curvature="0"
         id="path4238-9"
         d="m 238.55796,698.39269 -87.98205,0 C 74.042666,739.90149 36.742214,837.25884 25.322234,913.52307 l 90.354756,0 c 8.07136,-84.75529 29.79992,-165.02189 122.88097,-215.13038 z"
         style="fill:#0038a8;fill-opacity:1;fill-rule:evenodd;stroke:none;stroke-width:1px;stroke-linecap:butt;stroke-linejoin:miter;stroke-opacity:1" />
      <g
         id="text4457"
         style="font-style:normal;font-variant:normal;font-weight:bold;font-stretch:normal;font-size:39.33518219px;line-height:125%;font-family:'Swis721 BT';-inkscape-font-specification:'Swis721 BT, Bold';text-align:start;letter-spacing:19.66759109px;word-spacing:0px;writing-mode:lr-tb;text-anchor:start;fill:#000000;fill-opacity:1;stroke:none;stroke-width:1px;stroke-linecap:butt;stroke-linejoin:miter;stroke-opacity:1">
        <path
           id="path4492"
           style="font-style:normal;font-variant:normal;font-weight:bold;font-stretch:normal;font-size:118.00554657px;font-family:'Times New Roman';-inkscape-font-specification:'Times New Roman, Bold';letter-spacing:0px"
           d="m 77.585113,970.37283 21.204122,-51.51218 31.806185,0 0,2.13193 -2.53528,0 q -3.45719,0 -5.53151,1.21002 -1.4405,0.80668 -2.30479,2.70814 -0.63382,1.38287 -0.63382,7.20248 l 0,51.51219 q 0,5.99247 0.63382,7.49059 0.63381,1.49811 2.59289,2.65051 1.95908,1.09478 5.24341,1.09478 l 2.53528,0 0,2.13194 -40.794889,0 0,-2.13194 2.535276,0 q 3.457193,0 5.53151,-1.21002 1.440497,-0.80668 2.304793,-2.76575 0.63382,-1.38288 0.63382,-7.26011 l 0,-57.908 -29.962345,71.27582 -1.382877,0 -30.423305,-70.75724 0,55.027 q 0,5.76199 0.288099,7.08725 0.749059,2.881 3.226715,4.72483 2.535275,1.78622 7.893925,1.78622 l 0,2.13194 -26.735631,0 0,-2.13194 0.806678,0 q 2.592896,0.0576 4.840071,-0.80668 2.247176,-0.92192 3.399574,-2.42004 1.152398,-1.49811 1.786217,-4.20625 0.11524,-0.63382 0.11524,-5.87723 l 0,-49.43787 q 0,-5.93485 -0.633819,-7.37534 -0.633819,-1.49812 -2.592895,-2.5929 -1.959077,-1.1524 -5.243411,-1.1524 l -2.477655,0 0,-2.13193 31.921422,0 21.95318,51.51218 z" />
        <path
           id="path4494"
           style="font-style:normal;font-variant:normal;font-weight:bold;font-stretch:normal;font-size:118.00554657px;font-family:'Times New Roman';-inkscape-font-specification:'Times New Roman, Bold';letter-spacing:0px"
           d="m 207.11464,918.86065 0,21.1465 -2.07432,0 q -1.84383,-7.31773 -4.09101,-10.48682 -2.24717,-3.22672 -6.16533,-5.12817 -2.18955,-1.03716 -7.66344,-1.03716 l -5.81961,0 0,60.27041 q 0,5.99247 0.63382,7.49059 0.69143,1.49811 2.59289,2.65051 1.95908,1.09478 5.30103,1.09478 l 2.5929,0 0,2.13194 -40.91013,0 0,-2.13194 2.5929,0 q 3.39957,0 5.47389,-1.21002 1.49811,-0.80668 2.36241,-2.76575 0.63382,-1.38288 0.63382,-7.26011 l 0,-60.27041 -5.64675,0 q -7.89392,0 -11.46636,3.34195 -5.01293,4.66721 -6.33819,13.3102 l -2.18955,0 0,-21.1465 70.18103,0 z" />
        <path
           id="path4496"
           style="font-style:normal;font-variant:normal;font-weight:bold;font-stretch:normal;font-size:118.00554657px;font-family:'Times New Roman';-inkscape-font-specification:'Times New Roman, Bold';letter-spacing:0px"
           d="m 242.83898,961.38413 0,21.89556 q 0,6.33819 0.74906,8.00917 0.80668,1.61335 2.76575,2.59289 1.95908,0.97954 7.31773,0.97954 l 0,2.13194 -39.98821,0 0,-2.13194 q 5.41627,0 7.31773,-0.97954 1.95907,-1.03716 2.70813,-2.65051 0.80668,-1.61336 0.80668,-7.95155 l 0,-50.70551 q 0,-6.33819 -0.80668,-7.95154 -0.74906,-1.67098 -2.70813,-2.65052 -1.95908,-0.97954 -7.31773,-0.97954 l 0,-2.13193 36.30054,0 q 14.17449,0 20.74316,1.95907 6.56867,1.95908 10.7173,7.26011 4.14863,5.24341 4.14863,12.33066 0,8.64298 -6.22295,14.28973 -3.97577,3.57244 -11.12064,5.35865 l 18.78409,26.44753 q 3.68767,5.12817 5.24341,6.39581 2.36241,1.78622 5.47389,1.95908 l 0,2.13194 -24.6037,0 -25.17989,-35.6091 -5.12817,0 z m 0,-38.31723 0,34.22622 3.28433,0 q 8.00917,0 11.98494,-1.4405 3.97577,-1.49812 6.22295,-5.30103 2.3048,-3.86053 2.3048,-10.02586 0,-8.93109 -4.20626,-13.19496 -4.14863,-4.26387 -13.42543,-4.26387 l -6.16533,0 z" />
        <path
           id="path4498"
           style="font-style:normal;font-variant:normal;font-weight:bold;font-stretch:normal;font-size:118.00554657px;font-family:'Times New Roman';-inkscape-font-specification:'Times New Roman, Bold';letter-spacing:0px"
           d="m 375.53759,917.07443 0,27.08135 -2.24718,0 q -2.53527,-10.60206 -9.44966,-16.24881 -6.91439,-5.64675 -15.67261,-5.64675 -7.31773,0 -13.42544,4.20625 -6.10771,4.20626 -8.93108,11.0054 -3.63006,8.70061 -3.63006,19.36029 0,10.48682 2.65052,19.1298 2.65052,8.58537 8.29726,13.0221 5.64675,4.37911 14.63546,4.37911 7.37535,0 13.48305,-3.22671 6.16533,-3.22672 12.96448,-11.12064 l 0,6.74153 q -6.56867,6.85676 -13.71353,9.96824 -7.08725,3.05385 -16.59453,3.05385 -12.50352,0 -22.24128,-5.01293 -9.68015,-5.01293 -14.98118,-14.40497 -5.24341,-9.39205 -5.24341,-19.99411 0,-11.17826 5.81961,-21.20412 5.87723,-10.02586 15.78785,-15.55737 9.96825,-5.53151 21.1465,-5.53151 8.23965,0 17.40121,3.57243 5.30103,2.07432 6.74153,2.07432 1.84384,0 3.1691,-1.32526 1.38287,-1.38288 1.78621,-4.32149 l 2.24718,0 z" />
        <path
           id="path4500"
           style="font-style:normal;font-variant:normal;font-weight:bold;font-stretch:normal;font-size:118.00554657px;font-family:'Times New Roman';-inkscape-font-specification:'Times New Roman, Bold';letter-spacing:0px"
           d="m 434.54038,955.56452 q 11.12064,2.5929 15.61499,6.28057 6.45343,5.24341 6.45343,13.59829 0,8.81585 -7.08725,14.57784 -8.7006,6.97201 -25.29513,6.97201 l -39.70011,0 0,-2.13194 q 5.41627,0 7.31773,-0.97954 1.95908,-1.03716 2.70813,-2.65051 0.80668,-1.61336 0.80668,-7.95155 l 0,-50.70551 q 0,-6.33819 -0.80668,-7.95154 -0.74905,-1.67098 -2.70813,-2.65052 -1.95908,-0.97954 -7.31773,-0.97954 l 0,-2.13193 37.45293,0 q 13.42544,0 19.01457,2.42003 5.58913,2.36242 8.81584,7.14487 3.22672,4.72483 3.22672,10.08348 0,5.64675 -4.09101,10.08348 -4.09102,4.37911 -14.40498,6.97201 z m -20.97364,-1.55574 q 8.18202,0 12.04256,-1.84383 3.91815,-1.84384 5.99247,-5.18579 2.07431,-3.34196 2.07431,-8.52775 0,-5.18579 -2.07431,-8.47012 -2.0167,-3.34196 -5.81961,-5.07055 -3.80292,-1.7286 -12.21542,-1.67098 l 0,30.76902 z m 0,4.49435 0,25.06466 -0.0576,2.88099 q 0,3.11148 1.55574,4.72484 1.61335,1.55573 4.72483,1.55573 4.60959,0 8.47012,-2.01669 3.91816,-2.07432 5.99247,-5.93485 2.07432,-3.91816 2.07432,-8.70061 0,-5.47389 -2.53528,-9.79538 -2.53527,-4.37911 -6.972,-6.10771 -4.43674,-1.7286 -13.25258,-1.67098 z" />
      </g>
    </g>
  </g>
</svg>
