<?xml version="1.0" encoding="UTF-8" standalone="no"?>
<!-- Generator: Adobe Illustrator 16.0.0, SVG Export Plug-In . SVG Version: 6.00 Build 0)  -->

<svg
   xmlns:dc="http://purl.org/dc/elements/1.1/"
   xmlns:cc="http://creativecommons.org/ns#"
   xmlns:rdf="http://www.w3.org/1999/02/22-rdf-syntax-ns#"
   xmlns:svg="http://www.w3.org/2000/svg"
   xmlns="http://www.w3.org/2000/svg"
   xmlns:sodipodi="http://sodipodi.sourceforge.net/DTD/sodipodi-0.dtd"
   xmlns:inkscape="http://www.inkscape.org/namespaces/inkscape"
   version="1.1"
   id="Layer_1"
   x="0px"
   y="0px"
   width="180px"
   height="142px"
   viewBox="0 0 875 709.5"
   enable-background="new 0 0 875 709.5"
   xml:space="preserve"
   inkscape:version="0.91 r13725"
   sodipodi:docname="MRT-3 Manila Mass Rail Transit Line 3.svg"><title
     id="title4221">MRT-3 Manila Mass Rail Transit Line 3 O&amp;M logo</title><metadata
     id="metadata4219"><rdf:RDF><cc:Work
         rdf:about=""><dc:format>image/svg+xml</dc:format><dc:type
           rdf:resource="http://purl.org/dc/dcmitype/StillImage" /><dc:title>MRT-3 Manila Mass Rail Transit Line 3 O&amp;M logo</dc:title></cc:Work></rdf:RDF></metadata><defs
     id="defs4217" /><sodipodi:namedview
     pagecolor="#ffffff"
     bordercolor="#666666"
     borderopacity="1"
     objecttolerance="10"
     gridtolerance="10"
     guidetolerance="10"
     inkscape:pageopacity="0"
     inkscape:pageshadow="2"
     inkscape:window-width="1366"
     inkscape:window-height="705"
     id="namedview4215"
     showgrid="false"
     inkscape:zoom="3.5774648"
     inkscape:cx="90"
     inkscape:cy="4.3397276"
     inkscape:window-x="-4"
     inkscape:window-y="-4"
     inkscape:window-maximized="1"
     inkscape:current-layer="Layer_1" /><g
     id="g4137"
     style="fill:#000000"><path
       fill="#FFFFFF"
       d="M111.977,450.156c-1.056,2.637-2.075,4.975-3.063,7.017c-0.988,2.044-2.208,3.789-3.657,5.237   c-1.452,1.452-3.23,2.539-5.337,3.262c-2.109,0.723-4.679,1.087-7.708,1.087c-3.295,0-6.028-0.463-8.203-1.384   c-2.174-0.92-3.987-2.14-5.436-3.656c-1.452-1.514-2.638-3.262-3.558-5.238c-0.924-1.977-1.779-4.082-2.57-6.324l-35.38-92.306   c-0.266-0.791-0.726-1.745-1.384-2.866c-0.661-1.118-1.319-1.68-1.977-1.68c-1.056,0-1.68,0.627-1.877,1.877   c-0.198,1.254-0.297,2.011-0.297,2.273l0.593,107.723H6.033V343.421c0-4.479,0.988-7.938,2.965-10.377   c1.977-2.437,4.216-4.25,6.72-5.436c2.502-1.186,4.973-1.878,7.412-2.076c2.437-0.198,4.182-0.296,5.238-0.296   c3.953,0,7.279,0.463,9.981,1.384c2.699,0.923,4.941,2.208,6.72,3.854c1.779,1.649,3.261,3.558,4.447,5.732   c1.186,2.174,2.239,4.447,3.163,6.819l35.776,92.306c0.658,1.451,1.285,2.668,1.878,3.656c0.593,0.988,1.217,1.482,1.877,1.482   c0.658,0,1.285-0.494,1.878-1.482c0.593-0.988,1.217-2.205,1.877-3.656l35.776-92.306c1.449-3.953,3.064-7.082,4.843-9.389   c1.779-2.304,3.722-4.083,5.831-5.337c2.106-1.25,4.28-2.075,6.522-2.471c2.239-0.395,4.611-0.593,7.116-0.593   c6.455,0,11.792,1.452,16.01,4.349c4.215,2.9,6.325,7.511,6.325,13.836v121.756h-26.09l0.791-107.723   c0-1.844-0.296-2.996-0.89-3.459c-0.593-0.46-1.087-0.692-1.482-0.692c-0.661,0-1.318,0.562-1.977,1.68   c-0.661,1.121-1.121,2.075-1.383,2.866L111.977,450.156z"
       id="path4139"
       style="fill:#000000" /><path
       fill="#FFFFFF"
       d="M234.917,465.178c-2.638,0-5.405-0.099-8.302-0.297c-2.9-0.197-5.732-0.756-8.499-1.68   c-2.767-0.92-5.47-2.273-8.104-4.052c-2.637-1.779-5.009-4.182-7.116-7.215c-3.428-5.006-5.534-10.871-6.325-17.591   c-0.791-6.721-1.186-13.571-1.186-20.557c0-4.874,0.099-9.454,0.296-13.737c0.198-4.28,0.723-8.233,1.581-11.859   c0.855-3.623,2.106-6.949,3.756-9.981c1.646-3.03,3.919-5.797,6.819-8.302c2.897-2.501,6.094-4.413,9.586-5.732   c3.49-1.316,7.017-2.273,10.575-2.866c3.558-0.593,6.983-0.954,10.278-1.087c3.292-0.13,6.192-0.198,8.697-0.198   c6.192,0,12.286,0.364,18.283,1.087c5.995,0.726,11.43,2.604,16.307,5.633c3.03,1.977,5.5,4.219,7.412,6.72   c1.909,2.505,3.425,5.238,4.546,8.203c1.118,2.965,1.878,6.063,2.273,9.29c0.395,3.23,0.593,6.491,0.593,9.783   c0,2.638-0.266,5.371-0.791,8.203c-0.528,2.835-1.912,5.371-4.151,7.609c-1.581,1.582-3.329,2.638-5.238,3.163   c-1.912,0.528-3.922,0.791-6.029,0.791h-60.878c0,2.241,0.129,4.812,0.395,7.708c0.263,2.9,0.593,5.14,0.988,6.721   c0.791,2.767,1.909,4.976,3.36,6.621c1.448,1.649,3.163,2.9,5.139,3.756c1.977,0.858,4.052,1.417,6.226,1.68   c2.174,0.266,4.314,0.396,6.424,0.396h51.193v17.789H234.917z M267.333,402.718c2.239,0,3.657-0.657,4.25-1.977   c0.593-1.315,0.889-2.699,0.889-4.15c0-3.292-0.692-6.127-2.075-8.499c-1.384-2.372-2.934-4.216-4.645-5.534   c-2.9-2.239-6.097-3.589-9.586-4.053c-3.493-0.46-6.887-0.691-10.179-0.691c-1.582,0-3.295,0.034-5.139,0.099   c-1.847,0.068-3.755,0.297-5.732,0.692c-1.977,0.395-3.922,1.087-5.831,2.075c-1.912,0.988-3.657,2.341-5.238,4.052   c-2.372,2.638-3.725,5.436-4.052,8.4c-0.331,2.965-0.563,6.161-0.692,9.586H267.333z"
       id="path4141"
       style="fill:#000000" /><path
       fill="#FFFFFF"
       d="M354.497,465.178c-7.116,0-12.749-0.624-16.9-1.878c-4.151-1.251-7.875-3.193-11.167-5.831   c-3.428-2.767-6.029-6.191-7.808-10.277c-1.779-4.083-2.668-9.488-2.668-16.208v-52.774h-14.429V360.42h14.429v-33.602h23.126   v33.602h29.253v17.789H339.08v42.101c0,1.847,0,3.823,0,5.93c0,1.977,0.164,3.953,0.494,5.93c0.328,1.977,0.92,3.923,1.779,5.831   c0.855,1.912,2.141,3.527,3.854,4.843c2.634,2.242,5.763,3.558,9.389,3.953c3.623,0.396,6.489,0.593,8.598,0.593h5.732v17.789   H354.497z"
       id="path4143"
       style="fill:#000000" /><path
       fill="#FFFFFF"
       d="M376.83,399.951c0-5.797,0.692-11.365,2.075-16.702c1.384-5.337,4.314-9.914,8.796-13.737   c2.372-2.106,4.972-3.786,7.808-5.04c2.832-1.251,5.664-2.174,8.499-2.767c2.832-0.593,5.565-0.955,8.203-1.087   c2.635-0.129,4.941-0.197,6.918-0.197h15.615v17.789h-9.686c-3.033,0-6.393,0.396-10.08,1.186   c-3.691,0.791-6.918,2.835-9.686,6.128c-2.242,2.637-3.69,5.731-4.348,9.289c-0.661,3.559-0.988,7.313-0.988,11.267v59.1H376.83   V399.951z"
       id="path4145"
       style="fill:#000000" /><path
       fill="#FFFFFF"
       d="M501.947,359.432c3.688,0.133,7.443,0.562,11.266,1.285c3.82,0.726,7.512,1.847,11.068,3.36   c3.559,1.517,6.785,3.592,9.686,6.227c3.029,2.767,5.436,6.028,7.215,9.784c1.779,3.755,3.129,7.545,4.053,11.365   c0.92,3.823,1.512,7.578,1.777,11.266c0.264,3.691,0.396,6.918,0.396,9.686c0,11.202-1.285,20.195-3.855,26.98   c-2.568,6.788-5.766,12.026-9.586,15.714c-2.768,2.637-5.963,4.713-9.586,6.226c-3.625,1.517-7.381,2.638-11.266,3.36   c-3.889,0.723-7.678,1.186-11.365,1.384c-3.691,0.197-7.051,0.296-10.082,0.296c-3.162,0-6.59-0.099-10.277-0.296   c-3.691-0.198-7.445-0.661-11.266-1.384c-3.824-0.723-7.512-1.844-11.07-3.36c-3.557-1.513-6.787-3.589-9.684-6.226   c-3.164-2.897-5.635-6.192-7.412-9.883c-1.779-3.688-3.098-7.478-3.953-11.365c-0.859-3.886-1.418-7.642-1.682-11.267   c-0.266-3.623-0.395-6.752-0.395-9.389c0-2.897,0.129-6.258,0.395-10.081c0.264-3.82,0.855-7.675,1.779-11.563   c0.92-3.886,2.273-7.709,4.053-11.464c1.779-3.756,4.182-7.018,7.215-9.784c2.896-2.635,6.127-4.71,9.684-6.227   c3.559-1.513,7.246-2.634,11.07-3.36c3.82-0.723,7.574-1.152,11.266-1.285c3.688-0.13,7.115-0.198,10.277-0.198   C494.832,359.234,498.256,359.302,501.947,359.432z M460.736,426.832c0.592,4.877,2.535,9.226,5.83,13.046   c3.426,3.823,7.412,6.226,11.959,7.214c4.545,0.988,8.924,1.482,13.143,1.482c4.35,0,8.729-0.494,13.145-1.482   c4.414-0.988,8.332-3.391,11.762-7.214c3.424-3.82,5.436-8.104,6.027-12.848c0.594-4.744,0.891-9.42,0.891-14.034   c0-1.977,0-4.083,0-6.325c0-2.371-0.199-4.809-0.594-7.313c-0.395-2.502-1.057-4.973-1.977-7.412   c-0.924-2.438-2.307-4.646-4.15-6.622c-1.715-1.844-3.592-3.326-5.633-4.447c-2.045-1.118-4.152-1.977-6.326-2.569   s-4.383-0.954-6.621-1.087c-2.242-0.13-4.416-0.198-6.523-0.198c-1.846,0-3.922,0.068-6.225,0.198   c-2.309,0.133-4.58,0.494-6.82,1.087c-2.242,0.593-4.447,1.451-6.621,2.569c-2.174,1.121-4.053,2.604-5.633,4.447   c-1.582,1.847-2.836,4.021-3.756,6.522c-0.924,2.505-1.582,5.041-1.977,7.61s-0.627,5.04-0.691,7.412   c-0.068,2.372-0.1,4.416-0.1,6.127C459.846,417.345,460.143,421.959,460.736,426.832z"
       id="path4147"
       style="fill:#000000" /><path
       fill="#FFFFFF"
       d="M564.406,350.339c0-2.897,0.263-5.961,0.791-9.191c0.524-3.227,2.174-6.158,4.941-8.795   c2.501-2.372,5.237-3.885,8.202-4.546c2.965-0.658,5.763-0.988,8.4-0.988h65.622c2.372,0,4.874,0.099,7.511,0.297   c2.635,0.197,5.27,0.691,7.906,1.482c2.635,0.791,5.17,2.044,7.61,3.755c2.437,1.714,4.645,4.086,6.621,7.116   c3.293,4.744,5.27,9.753,5.93,15.022c0.658,5.271,0.988,10.411,0.988,15.417c0,5.01-0.296,10.18-0.89,15.516   c-0.593,5.337-2.272,10.575-5.04,15.714c-0.923,1.714-2.044,3.395-3.36,5.04c-1.318,1.649-2.998,3.163-5.04,4.547   c-2.044,1.383-4.515,2.504-7.412,3.359c-2.899,0.859-6.325,1.285-10.278,1.285H639.12v0.988l52.577,48.821h-32.812l-45.461-44.868   c-1.451-1.448-2.899-3.262-4.348-5.436c-1.452-2.174-2.175-4.25-2.175-6.227v-3.162c0-2.768,0.988-5.04,2.965-6.819   c1.977-1.778,4.874-2.668,8.697-2.668h26.091c2.238,0,4.709-0.327,7.412-0.988c2.699-0.658,4.972-2.372,6.818-5.14   c0.658-1.053,1.217-2.437,1.681-4.15c0.46-1.711,0.79-3.459,0.988-5.238c0.197-1.778,0.327-3.523,0.396-5.237   c0.064-1.711,0.099-3.163,0.099-4.349c0-5.534-0.464-9.75-1.384-12.65c-0.924-2.897-2.109-5.071-3.558-6.523   c-2.109-2.106-4.546-3.326-7.313-3.656c-2.768-0.328-5.207-0.494-7.313-0.494h-42.299c-1.451,0-2.702,0.099-3.755,0.296   c-1.057,0.198-2.109,0.824-3.163,1.877c-1.451,1.186-2.272,2.406-2.471,3.657c-0.197,1.254-0.296,2.604-0.296,4.052v107.723   h-26.091V350.339z"
       id="path4149"
       style="fill:#000000" /><path
       fill="#FFFFFF"
       d="M762.063,360.42c4.478,0,8.629,0.726,12.452,2.174c3.82,1.452,6.918,3.428,9.29,5.93   c2.238,2.242,4.082,5.436,5.534,9.587c1.448,4.15,2.174,9.19,2.174,15.12v54.355c0,1.848-0.231,4.086-0.691,6.721   c-0.464,2.638-1.615,4.877-3.459,6.721c-1.847,1.847-4.086,2.998-6.721,3.459c-2.638,0.463-5.207,0.691-7.708,0.691h-50.008   c-2.899,0-6.028-0.197-9.389-0.593s-6.557-1.909-9.586-4.546c-2.109-1.844-3.79-3.984-5.04-6.424   c-1.254-2.438-2.175-4.973-2.768-7.61c-0.593-2.634-0.957-5.204-1.087-7.708c-0.133-2.502-0.198-4.744-0.198-6.721   c0-4.611,0.494-9.157,1.482-13.639c0.988-4.478,3.459-8.431,7.412-11.859c3.293-2.896,6.622-4.645,9.982-5.237   c3.359-0.594,6.424-0.89,9.19-0.89h45.461v-7.313c0-1.581-0.166-3.228-0.494-4.941c-0.33-1.711-1.154-3.36-2.471-4.941   c-1.581-1.977-3.394-3.228-5.436-3.756c-2.044-0.524-3.986-0.79-5.83-0.79h-51.589V360.42H762.063z M729.845,417.74   c-0.79,0-2.075,0.167-3.854,0.494c-1.778,0.33-3.329,1.353-4.645,3.063c-0.396,0.528-0.924,1.581-1.581,3.163   c-0.661,1.581-0.988,4.283-0.988,8.104c0,1.581,0.163,3.558,0.494,5.93c0.327,2.372,1.217,4.283,2.668,5.732   c0.791,0.79,1.878,1.516,3.262,2.174c1.384,0.661,2.798,0.988,4.249,0.988h32.219c0.657,0,1.482-0.031,2.471-0.099   c0.988-0.065,1.878-0.427,2.668-1.087c0.791-0.658,1.251-1.35,1.384-2.076c0.13-0.723,0.197-1.482,0.197-2.272V417.74H729.845z"
       id="path4151"
       style="fill:#000000" /><path
       fill="#FFFFFF"
       d="M807.325,345.2v-18.382h23.126V345.2H807.325z M807.325,360.42h23.126v104.758h-23.126V360.42z"
       id="path4153"
       style="fill:#000000" /><path
       fill="#FFFFFF"
       d="M846.262,326.818h23.126v138.36h-23.126V326.818z"
       id="path4155"
       style="fill:#000000" /></g><path
     fill="#00834F"
     d="M49.068,0h180.176l179.312,192.303c0,0,19.056,20.789,0,40.713l-46.778,45.909H185.935l41.793-41.146  c0,0,25.339-23.388-0.649-51.324L49.068,0z"
     id="path4157" /><path
     fill="#354B9C"
     d="M255.665,0h180.177l179.31,192.303c0,0,19.055,20.789,0,40.713l-46.777,45.909H392.529l41.795-41.146  c0,0,25.336-23.388-0.65-51.324L255.665,0z"
     id="path4159" /><path
     fill="#FFCE2A"
     d="M459.661,0h180.18l179.309,192.303c0,0,19.055,20.789,0,40.713l-46.777,45.909H596.528l41.793-41.146  c0,0,25.34-23.388-0.648-51.324L459.661,0z"
     id="path4161" /><g
     id="g4163"><path
       fill="#FFCE2A"
       d="M856.837,497.632H18.828C11.743,497.632,6,503.377,6,510.459v114.588c0,7.08,5.743,12.824,12.828,12.824   h838.009c7.088,0,12.826-5.744,12.826-12.824V510.459C869.663,503.377,863.925,497.632,856.837,497.632z M100.364,582.527v21.952   H86.823v-21.952L56.46,532.675h14.566l22.567,37.646l22.567-37.646h14.566L100.364,582.527z M196.479,604.479h-46.673   c-1.574,0-3.043-0.085-4.411-0.257c-1.369-0.17-2.633-0.836-3.795-2c-1.231-1.162-1.984-2.513-2.257-4.052   c-0.274-1.539-0.41-2.991-0.41-4.359v-50.879c0-1.437,0.221-2.821,0.667-4.154c0.444-1.334,1.042-2.444,1.795-3.334   c1.162-1.299,2.547-2.085,4.154-2.359c1.606-0.272,3.093-0.41,4.462-0.41h46.058v10.771h-38.775c-0.615,0-1.249,0.052-1.897,0.154   c-0.651,0.103-1.249,0.394-1.795,0.871c-0.548,0.549-0.872,1.129-0.974,1.744s-0.154,1.197-0.154,1.744v14.463h42.57v10.771h-42.57   v16.822c0,1.3,0.342,2.224,1.026,2.77c0.411,0.411,1.008,0.667,1.795,0.77c0.785,0.103,1.726,0.154,2.821,0.154h38.364V604.479z    M268.077,604.479H220.07c-1.164,0-2.359-0.137-3.59-0.41c-1.231-0.272-2.256-0.752-3.077-1.437   c-0.548-0.478-1.112-1.195-1.692-2.154c-0.582-0.956-0.872-2.221-0.872-3.795v-64.009h13.54v57.136c0,0.41,0.016,0.907,0.052,1.487   c0.033,0.582,0.324,1.112,0.872,1.59c0.205,0.139,0.547,0.309,1.026,0.514c0.478,0.205,1.265,0.308,2.359,0.308h39.39V604.479z    M334.547,604.479H286.54c-1.164,0-2.359-0.137-3.59-0.41c-1.231-0.272-2.256-0.752-3.077-1.437   c-0.548-0.478-1.112-1.195-1.692-2.154c-0.582-0.956-0.872-2.221-0.872-3.795v-64.009h13.54v57.136c0,0.41,0.016,0.907,0.052,1.487   c0.033,0.582,0.324,1.112,0.872,1.59c0.205,0.139,0.547,0.309,1.026,0.514c0.478,0.205,1.265,0.308,2.359,0.308h39.39V604.479z    M411.02,576.116c-0.171,2.634-0.53,5.249-1.077,7.848c-0.548,2.6-1.369,5.095-2.462,7.488c-1.095,2.395-2.564,4.479-4.411,6.257   c-1.984,1.916-4.19,3.386-6.616,4.411c-2.428,1.025-4.924,1.779-7.488,2.257s-5.113,0.752-7.642,0.82   c-2.531,0.067-4.821,0.103-6.873,0.103c-2.12,0-4.428-0.035-6.924-0.103c-2.497-0.068-5.026-0.343-7.591-0.82   s-5.062-1.231-7.488-2.257c-2.428-1.025-4.634-2.495-6.616-4.411c-2.052-1.982-3.642-4.239-4.77-6.77   c-1.128-2.529-1.949-5.111-2.462-7.745c-0.513-2.632-0.821-5.214-0.923-7.744c-0.103-2.529-0.154-4.821-0.154-6.873   c0-2.462,0.067-5.009,0.205-7.643c0.136-2.632,0.478-5.231,1.026-7.796c0.547-2.564,1.367-5.026,2.462-7.386   c1.093-2.359,2.632-4.462,4.616-6.309c1.982-1.913,4.188-3.385,6.616-4.41c2.427-1.026,4.906-1.777,7.437-2.257   c2.529-0.478,5.042-0.752,7.54-0.821c2.496-0.066,4.837-0.103,7.026-0.103c2.119,0,4.427,0.036,6.924,0.103   c2.496,0.069,5.026,0.344,7.591,0.821c2.564,0.479,5.06,1.23,7.488,2.257c2.426,1.025,4.632,2.497,6.616,4.41   c1.846,1.779,3.316,3.864,4.411,6.258c1.093,2.395,1.932,4.89,2.513,7.488c0.581,2.6,0.939,5.231,1.077,7.898   c0.136,2.667,0.205,5.164,0.205,7.488C411.276,570.972,411.189,573.484,411.02,576.116z M508.931,595.247   c-0.343,1.164-0.736,2.344-1.18,3.539c-0.445,1.197-1.095,2.274-1.949,3.231c-0.855,0.959-1.949,1.744-3.282,2.359   c-1.334,0.615-3.062,0.923-5.181,0.923c-1.984,0-3.625-0.256-4.924-0.769c-1.3-0.514-2.377-1.196-3.23-2.052   c-0.856-0.854-1.539-1.829-2.052-2.924c-0.514-1.093-0.941-2.257-1.282-3.487L473.233,549.6c-0.343-1.298-0.821-1.948-1.437-1.948   c-0.41,0-0.702,0.24-0.872,0.718c-0.171,0.479-0.325,0.89-0.461,1.23l-12.72,46.469c-0.274,1.025-0.634,2.069-1.077,3.128   c-0.446,1.062-1.077,2.052-1.898,2.976c-0.82,0.923-1.897,1.676-3.23,2.256c-1.334,0.581-3.062,0.872-5.181,0.872   c-2.872,0-5.267-0.684-7.181-2.051c-1.915-1.367-3.42-4.035-4.513-8.002l-17.233-62.572h13.745l14.259,55.29   c0.136,0.343,0.29,0.786,0.461,1.333c0.17,0.548,0.529,0.82,1.077,0.82c0.342,0,0.649-0.205,0.924-0.615   c0.272-0.41,0.478-0.785,0.615-1.128l13.335-49.136c0.205-0.683,0.478-1.452,0.821-2.308c0.341-0.854,0.871-1.657,1.59-2.411   c0.718-0.751,1.675-1.385,2.872-1.897c1.195-0.513,2.752-0.77,4.667-0.77c1.777,0,3.247,0.241,4.411,0.719   c1.162,0.479,2.119,1.077,2.872,1.795c0.752,0.718,1.334,1.505,1.744,2.359c0.41,0.855,0.718,1.692,0.923,2.513l13.335,49.136   c0.137,0.343,0.342,0.718,0.616,1.128c0.272,0.41,0.58,0.615,0.923,0.615c0.205,0,0.478-0.136,0.82-0.41   c0.342-0.272,0.615-0.854,0.821-1.743l14.258-55.29h13.746L508.931,595.247z M620.738,604.479h-48.007   c-1.164,0-2.359-0.137-3.59-0.41c-1.231-0.272-2.257-0.752-3.078-1.437c-0.548-0.478-1.112-1.195-1.692-2.154   c-0.582-0.956-0.872-2.221-0.872-3.795v-64.009h13.541v57.136c0,0.41,0.016,0.907,0.051,1.487c0.034,0.582,0.324,1.112,0.872,1.59   c0.205,0.139,0.547,0.309,1.026,0.514c0.478,0.205,1.264,0.308,2.358,0.308h39.391V604.479z M643.511,604.479H629.97v-71.805   h13.541V604.479z M729.676,595.145c0,3.626-1.043,6.224-3.128,7.796c-2.087,1.572-4.601,2.359-7.54,2.359   c-2.189,0-4.274-0.376-6.257-1.128c-1.984-0.752-3.762-2.394-5.334-4.924l-30.261-47.802c-0.549-0.752-0.924-1.23-1.129-1.436   c-0.205-0.206-0.376-0.309-0.513-0.309c-0.274,0-0.582,0.154-0.923,0.462c-0.343,0.308-0.513,0.839-0.513,1.59v52.726h-13.131   v-62.881c0-3.077,0.975-5.47,2.924-7.181c1.949-1.708,4.632-2.564,8.053-2.564c3.213,0,5.675,0.549,7.386,1.642   c1.708,1.095,3.042,2.429,4,4.001l30.466,48.109c0.272,0.343,0.495,0.718,0.667,1.128c0.17,0.41,0.495,0.615,0.975,0.615   c0.547,0,0.872-0.221,0.975-0.666c0.103-0.444,0.153-0.804,0.153-1.077v-52.931h13.13V595.145z M804.66,604.479h-46.673   c-1.574,0-3.044-0.085-4.411-0.257c-1.369-0.17-2.634-0.836-3.796-2c-1.23-1.162-1.983-2.513-2.256-4.052   c-0.274-1.539-0.411-2.991-0.411-4.359v-50.879c0-1.437,0.222-2.821,0.667-4.154c0.444-1.334,1.042-2.444,1.795-3.334   c1.162-1.299,2.547-2.085,4.155-2.359c1.605-0.272,3.093-0.41,4.462-0.41h46.058v10.771h-38.774c-0.616,0-1.249,0.052-1.898,0.154   c-0.65,0.103-1.248,0.394-1.795,0.871c-0.548,0.549-0.872,1.129-0.975,1.744s-0.153,1.197-0.153,1.744v14.463h42.569v10.771   h-42.569v16.822c0,1.3,0.341,2.224,1.025,2.77c0.41,0.411,1.008,0.667,1.795,0.77c0.786,0.103,1.727,0.154,2.821,0.154h38.364   V604.479z"
       id="path4165" /><path
       fill="#FFCE2A"
       d="M395.992,554.935c-0.41-1.573-0.89-2.873-1.436-3.898c-0.548-1.025-1.095-1.88-1.641-2.564   c-2.121-2.599-4.821-4.222-8.104-4.872c-3.282-0.649-6.77-0.975-10.463-0.975c-3.762,0-7.25,0.325-10.463,0.975   c-3.215,0.65-5.882,2.273-8.001,4.872c-1.369,1.779-2.446,4.189-3.231,7.231c-0.787,3.044-1.18,7.335-1.18,12.874   c0,2.941,0.119,5.488,0.359,7.642c0.239,2.154,0.564,4.036,0.975,5.643c0.411,1.607,0.872,2.94,1.385,4   c0.513,1.062,1.077,1.967,1.693,2.719c1.025,1.368,2.221,2.445,3.59,3.231c1.367,0.786,2.837,1.385,4.411,1.795   c1.572,0.41,3.247,0.666,5.026,0.77c1.777,0.103,3.59,0.153,5.437,0.153c1.847,0,3.642-0.051,5.385-0.153   c1.744-0.104,3.419-0.359,5.026-0.77c1.606-0.41,3.094-1.009,4.462-1.795c1.367-0.786,2.598-1.863,3.693-3.231   c0.615-0.752,1.18-1.675,1.692-2.77c0.513-1.094,0.975-2.427,1.385-4.001c0.411-1.572,0.734-3.452,0.975-5.642   c0.239-2.188,0.359-4.719,0.359-7.591c0-3.077-0.12-5.727-0.359-7.95C396.726,558.405,396.402,556.508,395.992,554.935z"
       id="path4167" /></g><g
     id="g4169"
     style="fill:#000000"><path
       fill="#FFFFFF"
       d="M47.415,709.646h-4.707v-31.658l-10.654,31.658h-4.432l-10.599-31.658v31.658h-4.68v-37.246h7.433   l10.048,31.052l10.158-31.052h7.433V709.646z"
       id="path4171"
       style="fill:#000000" /><path
       fill="#FFFFFF"
       d="M89.187,709.646h-5.588l-4.322-11.314H63.668l-4.102,11.314h-5.203l14.287-37.246h5.34L89.187,709.646z    M77.845,694.367l-6.579-17.232l-6.249,17.232H77.845z"
       id="path4173"
       style="fill:#000000" /><path
       fill="#FFFFFF"
       d="M110.174,710.307c-2.625,0-4.919-0.313-6.882-0.937c-1.964-0.624-3.602-1.495-4.914-2.615   c-1.312-1.119-2.308-2.454-2.987-4.005c-0.679-1.551-1.046-3.253-1.101-5.107h4.735c0.128,1.414,0.505,2.639,1.129,3.676   c0.624,1.037,1.422,1.895,2.395,2.573c0.972,0.68,2.087,1.18,3.345,1.501c1.257,0.321,2.601,0.481,4.033,0.481   c1.395,0,2.661-0.146,3.799-0.44c1.138-0.293,2.11-0.716,2.918-1.267c0.808-0.55,1.432-1.215,1.872-1.995s0.661-1.666,0.661-2.657   c0-1.027-0.202-1.895-0.605-2.602c-0.404-0.706-1.06-1.325-1.968-1.857c-0.909-0.532-2.106-1.01-3.592-1.432   c-1.487-0.422-3.304-0.854-5.451-1.294c-2.092-0.477-3.896-1.019-5.41-1.624s-2.757-1.316-3.73-2.134   c-0.973-0.816-1.693-1.757-2.161-2.821c-0.468-1.064-0.702-2.285-0.702-3.661c0-1.505,0.321-2.891,0.963-4.157   c0.642-1.267,1.546-2.358,2.711-3.276c1.165-0.917,2.56-1.633,4.185-2.146c1.624-0.514,3.427-0.771,5.409-0.771   c2.092,0,3.996,0.258,5.712,0.771c1.715,0.514,3.197,1.252,4.446,2.216c1.248,0.964,2.229,2.138,2.945,3.523   s1.101,2.95,1.156,4.693h-4.79c-0.496-4.496-3.579-6.744-9.25-6.744c-2.771,0-4.905,0.514-6.4,1.542   c-1.496,1.027-2.244,2.413-2.244,4.156c0,0.79,0.138,1.464,0.413,2.023c0.275,0.561,0.743,1.051,1.404,1.473   c0.661,0.423,1.542,0.804,2.643,1.143c1.102,0.34,2.468,0.684,4.102,1.032c1.119,0.239,2.266,0.491,3.441,0.757   c1.174,0.267,2.317,0.593,3.427,0.978c1.11,0.386,2.161,0.85,3.152,1.391c0.991,0.541,1.858,1.197,2.601,1.968   c0.744,0.771,1.331,1.685,1.762,2.739c0.431,1.056,0.647,2.29,0.647,3.703c0,1.633-0.344,3.134-1.033,4.5   c-0.688,1.368-1.647,2.547-2.876,3.538c-1.23,0.991-2.689,1.767-4.377,2.326C114.019,710.026,112.174,710.307,110.174,710.307z"
       id="path4175"
       style="fill:#000000" /><path
       fill="#FFFFFF"
       d="M147.734,710.307c-2.625,0-4.919-0.313-6.882-0.937c-1.964-0.624-3.602-1.495-4.914-2.615   c-1.312-1.119-2.308-2.454-2.987-4.005c-0.679-1.551-1.046-3.253-1.101-5.107h4.735c0.128,1.414,0.505,2.639,1.129,3.676   c0.624,1.037,1.422,1.895,2.395,2.573c0.972,0.68,2.087,1.18,3.345,1.501c1.257,0.321,2.601,0.481,4.033,0.481   c1.395,0,2.661-0.146,3.799-0.44c1.138-0.293,2.11-0.716,2.918-1.267c0.808-0.55,1.432-1.215,1.872-1.995s0.661-1.666,0.661-2.657   c0-1.027-0.202-1.895-0.605-2.602c-0.404-0.706-1.06-1.325-1.968-1.857c-0.909-0.532-2.106-1.01-3.592-1.432   c-1.487-0.422-3.304-0.854-5.451-1.294c-2.092-0.477-3.896-1.019-5.41-1.624s-2.757-1.316-3.73-2.134   c-0.973-0.816-1.693-1.757-2.161-2.821c-0.468-1.064-0.702-2.285-0.702-3.661c0-1.505,0.321-2.891,0.963-4.157   c0.642-1.267,1.546-2.358,2.711-3.276c1.165-0.917,2.56-1.633,4.185-2.146c1.624-0.514,3.427-0.771,5.409-0.771   c2.092,0,3.996,0.258,5.712,0.771c1.715,0.514,3.197,1.252,4.446,2.216c1.248,0.964,2.229,2.138,2.945,3.523   s1.101,2.95,1.156,4.693h-4.79c-0.496-4.496-3.579-6.744-9.25-6.744c-2.771,0-4.905,0.514-6.4,1.542   c-1.496,1.027-2.244,2.413-2.244,4.156c0,0.79,0.138,1.464,0.413,2.023c0.275,0.561,0.743,1.051,1.404,1.473   c0.661,0.423,1.542,0.804,2.643,1.143c1.102,0.34,2.468,0.684,4.102,1.032c1.119,0.239,2.266,0.491,3.441,0.757   c1.174,0.267,2.317,0.593,3.427,0.978c1.11,0.386,2.161,0.85,3.152,1.391c0.991,0.541,1.858,1.197,2.601,1.968   c0.744,0.771,1.331,1.685,1.762,2.739c0.431,1.056,0.647,2.29,0.647,3.703c0,1.633-0.344,3.134-1.033,4.5   c-0.688,1.368-1.647,2.547-2.876,3.538c-1.23,0.991-2.689,1.767-4.377,2.326C151.579,710.026,149.734,710.307,147.734,710.307z"
       id="path4177"
       style="fill:#000000" /><path
       fill="#FFFFFF"
       d="M222.744,709.646h-5.368l-3.496-9.993c-0.313-0.862-0.729-1.655-1.253-2.381   c-0.523-0.725-1.138-1.349-1.844-1.872c-0.707-0.523-1.486-0.932-2.34-1.225c-0.854-0.294-1.758-0.44-2.711-0.44h-9.14v15.911   h-4.928v-37.246h16.49c1.009,0,1.968,0.023,2.876,0.068c0.909,0.047,1.771,0.151,2.588,0.317c0.816,0.165,1.587,0.408,2.313,0.729   c0.725,0.321,1.417,0.757,2.078,1.308c1.119,0.99,1.973,2.197,2.561,3.62c0.587,1.422,0.881,2.876,0.881,4.363   c0,1.303-0.193,2.5-0.578,3.592c-0.386,1.093-0.941,2.061-1.666,2.904c-0.725,0.845-1.606,1.556-2.643,2.134   s-2.198,0.995-3.482,1.252v0.083c2.605,0.826,4.597,3.074,5.974,6.744L222.744,709.646z M196.592,689.274h11.066   c1.523,0,2.835-0.114,3.937-0.344s2.005-0.597,2.711-1.102s1.225-1.17,1.556-1.996c0.33-0.825,0.496-1.835,0.496-3.027   c0-2.147-0.661-3.73-1.982-4.749c-1.321-1.019-3.322-1.528-6.001-1.528h-11.782V689.274z"
       id="path4179"
       style="fill:#000000" /><path
       fill="#FFFFFF"
       d="M262.699,709.646h-5.588l-4.322-11.314H237.18l-4.102,11.314h-5.203l14.287-37.246h5.34L262.699,709.646z    M251.357,694.367l-6.579-17.232l-6.249,17.232H251.357z"
       id="path4181"
       style="fill:#000000" /><path
       fill="#FFFFFF"
       d="M269.62,672.399h13.957c1.872,0,3.67,0.161,5.396,0.481c1.725,0.321,3.249,0.891,4.57,1.707   s2.376,1.927,3.166,3.331c0.789,1.404,1.184,3.188,1.184,5.354c0,3.762-1.188,6.616-3.565,8.562   c-2.377,1.945-5.85,2.918-10.419,2.918h-9.36v14.893h-4.928V672.399z M274.547,690.32h9.47c1.578,0,2.922-0.146,4.033-0.44   c1.11-0.293,2.019-0.733,2.725-1.321c0.706-0.587,1.22-1.312,1.542-2.175c0.321-0.862,0.482-1.862,0.482-3.001   c0-1.376-0.239-2.491-0.716-3.345c-0.478-0.853-1.125-1.518-1.941-1.995c-0.817-0.478-1.767-0.799-2.849-0.964   c-1.083-0.165-2.23-0.248-3.441-0.248h-9.305V690.32z"
       id="path4183"
       style="fill:#000000" /><path
       fill="#FFFFFF"
       d="M312.768,709.646h-4.928v-37.246h4.928V709.646z"
       id="path4185"
       style="fill:#000000" /><path
       fill="#FFFFFF"
       d="M355.283,690.816c0,12.553-6.332,18.829-18.995,18.829h-11.81v-37.246h11.81   C348.952,672.399,355.283,678.538,355.283,690.816z M350.19,690.816c0-2.166-0.216-4.116-0.647-5.851   c-0.432-1.734-1.175-3.202-2.23-4.404c-1.056-1.202-2.482-2.124-4.281-2.767c-1.799-0.643-4.065-0.964-6.799-0.964h-6.827v28.383   h6.827c2.716,0,4.973-0.326,6.772-0.978c1.798-0.651,3.23-1.597,4.294-2.836c1.064-1.238,1.812-2.748,2.244-4.528   C349.974,695.093,350.19,693.073,350.19,690.816z"
       id="path4187"
       style="fill:#000000" /><path
       fill="#FFFFFF"
       d="M411.821,676.831h-12.333v32.814h-4.928v-32.814h-12.25v-4.432h29.511V676.831z"
       id="path4189"
       style="fill:#000000" /><path
       fill="#FFFFFF"
       d="M451.005,709.646h-5.368l-3.496-9.993c-0.312-0.862-0.729-1.655-1.252-2.381   c-0.523-0.725-1.139-1.349-1.845-1.872c-0.707-0.523-1.486-0.932-2.34-1.225c-0.854-0.294-1.758-0.44-2.711-0.44h-9.14v15.911   h-4.928v-37.246h16.49c1.009,0,1.968,0.023,2.877,0.068c0.908,0.047,1.771,0.151,2.587,0.317c0.816,0.165,1.588,0.408,2.313,0.729   c0.726,0.321,1.418,0.757,2.079,1.308c1.119,0.99,1.973,2.197,2.56,3.62c0.587,1.422,0.881,2.876,0.881,4.363   c0,1.303-0.192,2.5-0.578,3.592c-0.385,1.093-0.94,2.061-1.665,2.904c-0.726,0.845-1.606,1.556-2.643,2.134   c-1.037,0.578-2.198,0.995-3.482,1.252v0.083c2.605,0.826,4.597,3.074,5.974,6.744L451.005,709.646z M424.853,689.274h11.067   c1.522,0,2.835-0.114,3.937-0.344c1.101-0.229,2.005-0.597,2.711-1.102s1.226-1.17,1.556-1.996c0.33-0.825,0.495-1.835,0.495-3.027   c0-2.147-0.66-3.73-1.981-4.749s-3.322-1.528-6.002-1.528h-11.782V689.274z"
       id="path4191"
       style="fill:#000000" /><path
       fill="#FFFFFF"
       d="M490.96,709.646h-5.588l-4.322-11.314h-15.608l-4.102,11.314h-5.203l14.287-37.246h5.341L490.96,709.646z    M479.618,694.367l-6.579-17.232l-6.249,17.232H479.618z"
       id="path4193"
       style="fill:#000000" /><path
       fill="#FFFFFF"
       d="M527.171,709.646h-5.065l-19.545-29.373v29.373h-4.68v-37.246h5.093l19.462,29.428v-29.428h4.735V709.646z"
       id="path4195"
       style="fill:#000000" /><path
       fill="#FFFFFF"
       d="M552.343,710.307c-2.624,0-4.918-0.313-6.882-0.937s-3.602-1.495-4.914-2.615   c-1.313-1.119-2.308-2.454-2.986-4.005c-0.68-1.551-1.047-3.253-1.102-5.107h4.735c0.128,1.414,0.504,2.639,1.128,3.676   s1.423,1.895,2.396,2.573c0.973,0.68,2.087,1.18,3.345,1.501c1.257,0.321,2.602,0.481,4.033,0.481c1.395,0,2.66-0.146,3.799-0.44   c1.138-0.293,2.11-0.716,2.918-1.267c0.807-0.55,1.432-1.215,1.872-1.995s0.66-1.666,0.66-2.657c0-1.027-0.202-1.895-0.605-2.602   c-0.404-0.706-1.06-1.325-1.969-1.857c-0.908-0.532-2.105-1.01-3.592-1.432s-3.304-0.854-5.451-1.294   c-2.092-0.477-3.895-1.019-5.409-1.624c-1.514-0.605-2.758-1.316-3.73-2.134c-0.973-0.816-1.692-1.757-2.16-2.821   c-0.469-1.064-0.702-2.285-0.702-3.661c0-1.505,0.32-2.891,0.963-4.157s1.546-2.358,2.712-3.276   c1.165-0.917,2.561-1.633,4.185-2.146s3.427-0.771,5.409-0.771c2.092,0,3.996,0.258,5.712,0.771s3.198,1.252,4.446,2.216   s2.229,2.138,2.945,3.523s1.102,2.95,1.156,4.693h-4.79c-0.495-4.496-3.579-6.744-9.249-6.744c-2.771,0-4.905,0.514-6.4,1.542   c-1.496,1.027-2.244,2.413-2.244,4.156c0,0.79,0.138,1.464,0.413,2.023c0.275,0.561,0.743,1.051,1.404,1.473   c0.66,0.423,1.541,0.804,2.643,1.143c1.101,0.34,2.468,0.684,4.102,1.032c1.119,0.239,2.267,0.491,3.441,0.757   c1.174,0.267,2.316,0.593,3.427,0.978c1.11,0.386,2.161,0.85,3.152,1.391s1.858,1.197,2.602,1.968   c0.743,0.771,1.33,1.685,1.762,2.739c0.431,1.056,0.646,2.29,0.646,3.703c0,1.633-0.344,3.134-1.032,4.5   c-0.688,1.368-1.647,2.547-2.877,3.538s-2.688,1.767-4.377,2.326S554.343,710.307,552.343,710.307z"
       id="path4197"
       style="fill:#000000" /><path
       fill="#FFFFFF"
       d="M581.424,709.646h-4.928v-37.246h4.928V709.646z"
       id="path4199"
       style="fill:#000000" /><path
       fill="#FFFFFF"
       d="M619.645,676.831h-12.333v32.814h-4.928v-32.814h-12.25v-4.432h29.511V676.831z"
       id="path4201"
       style="fill:#000000" /><path
       fill="#FFFFFF"
       d="M663.354,694.202h-15.526v-4.404h15.526V694.202z"
       id="path4203"
       style="fill:#000000" /><path
       fill="#FFFFFF"
       d="M717.635,709.646h-23.068v-37.246h4.927v32.814h18.142V709.646z"
       id="path4205"
       style="fill:#000000" /><path
       fill="#FFFFFF"
       d="M731.934,709.646h-4.928v-37.246h4.928V709.646z"
       id="path4207"
       style="fill:#000000" /><path
       fill="#FFFFFF"
       d="M772.935,709.646h-5.065l-19.545-29.373v29.373h-4.68v-37.246h5.093l19.462,29.428v-29.428h4.735V709.646z"
       id="path4209"
       style="fill:#000000" /><path
       fill="#FFFFFF"
       d="M811.844,709.646H784.04v-37.246h26.978v4.432h-22.051v11.314h20.592v4.433h-20.592v12.636h22.877V709.646z   "
       id="path4211"
       style="fill:#000000" /><path
       fill="#FFFFFF"
       d="M852.442,706.122c2.129,0,3.937-0.734,5.423-2.202c1.34-1.321,2.01-2.707,2.01-4.157   c0-2.202-0.674-3.927-2.023-5.176c-1.349-1.247-3.226-1.871-5.629-1.871h-2.863v-4.652h2.726c1.651,0,3.027-0.537,4.129-1.61   c1.102-1.074,1.651-2.427,1.651-4.061c0-1.688-0.505-3.051-1.514-4.088c-1.01-1.037-2.304-1.556-3.882-1.556   c-0.991,0-2.193,0.22-3.605,0.66c-1.304,0.404-2.313,0.826-3.028,1.267v-4.597c2.238-1.248,4.487-1.872,6.744-1.872   c2.753,0,5.093,0.936,7.02,2.808c2,1.927,3.001,4.313,3.001,7.157c0,3.341-1.258,5.992-3.771,7.956   c3.927,1.854,5.891,5.13,5.891,9.827c0,2.533-1.036,4.883-3.11,7.048c-2.404,2.496-5.46,3.744-9.167,3.744   c-3.561,0-6.781-0.991-9.662-2.974v-4.79C846.083,705.076,849.305,706.122,852.442,706.122z"
       id="path4213"
       style="fill:#000000" /></g></svg>