<?xml version="1.0" encoding="UTF-8" standalone="no"?>
<svg
   version="1.0"
   width="638.98322"
   height="294.1933"
   viewBox="0 0 6389.8322 2941.9329"
   preserveAspectRatio="xMidYMid"
   id="svg3410"
   inkscape:version="1.3.2 (091e20e, 2023-11-25, custom)"
   sodipodi:docname="National_Museum_of_the_Philippines.svg"
   xmlns:inkscape="http://www.inkscape.org/namespaces/inkscape"
   xmlns:sodipodi="http://sodipodi.sourceforge.net/DTD/sodipodi-0.dtd"
   xmlns="http://www.w3.org/2000/svg"
   xmlns:svg="http://www.w3.org/2000/svg"
   xmlns:rdf="http://www.w3.org/1999/02/22-rdf-syntax-ns#"
   xmlns:cc="http://creativecommons.org/ns#"
   xmlns:dc="http://purl.org/dc/elements/1.1/">
  <title
     id="title4460">National Museum of the Philippines</title>
  <metadata
     id="metadata3442">
    <rdf:RDF>
      <cc:Work
         rdf:about="">
        <dc:format>image/svg+xml</dc:format>
        <dc:type
           rdf:resource="http://purl.org/dc/dcmitype/StillImage" />
        <dc:title>National Museum of the Philippines</dc:title>
      </cc:Work>
    </rdf:RDF>
  </metadata>
  <defs
     id="defs3440" />
  <sodipodi:namedview
     pagecolor="#ffffff"
     bordercolor="#666666"
     borderopacity="1"
     objecttolerance="10"
     gridtolerance="10"
     guidetolerance="10"
     inkscape:pageopacity="0"
     inkscape:pageshadow="2"
     inkscape:window-width="1920"
     inkscape:window-height="1017"
     id="namedview3438"
     showgrid="false"
     inkscape:snap-bbox="true"
     inkscape:bbox-paths="true"
     inkscape:bbox-nodes="true"
     inkscape:snap-bbox-edge-midpoints="true"
     inkscape:snap-bbox-midpoints="true"
     inkscape:object-paths="true"
     inkscape:object-nodes="true"
     inkscape:snap-intersection-paths="true"
     inkscape:snap-smooth-nodes="true"
     inkscape:snap-object-midpoints="true"
     inkscape:snap-midpoints="true"
     inkscape:snap-center="true"
     inkscape:snap-page="true"
     inkscape:snap-global="true"
     fit-margin-top="0"
     fit-margin-left="0"
     fit-margin-right="0"
     fit-margin-bottom="0"
     inkscape:zoom="0.55352292"
     inkscape:cx="122.84947"
     inkscape:cy="208.66345"
     inkscape:window-x="-8"
     inkscape:window-y="-8"
     inkscape:window-maximized="1"
     inkscape:current-layer="svg3410"
     inkscape:showpageshadow="2"
     inkscape:pagecheckerboard="0"
     inkscape:deskcolor="#d1d1d1" />
  <path
     style="color:#000000;display:inline;overflow:visible;visibility:visible;fill:#af6538;fill-opacity:1;fill-rule:nonzero;stroke:none;stroke-width:0.463;marker:none;enable-background:accumulate"
     d=""
     id="path4279"
     inkscape:connector-curvature="0" />
  <path
     style="fill:#6b120d;fill-opacity:1;stroke:none"
     d="M 389.26865,16.405425 C 696.29239,117.65496 1182.4537,392.7671 1322.6545,796.73983 1380.0527,962.12594 1010.8747,1078.1293 798.6297,1410.2154 350.74864,2073.1 774.07792,2700.6329 1543.444,2432.2043 2287.435,2106.1187 2524.6926,1930.4149 2945.8279,1626.4238 3619.7947,1139.9294 4280.7487,257.74275 5131.9547,300.4433 c 502.3399,25.1998 1046.6986,383.49697 1205.3537,907.7146 122.2651,403.9804 40.8365,1233.5085 -347.7149,1209.4434 -203.9636,-12.6325 -148.6991,-315.3366 -75.5902,-604.7217 C 6063.3609,772.79601 5031.7384,584.87488 4442.5139,981.38732 4225.9699,1127.1084 3873.609,1306.1326 3999.0515,1586.109 c 98.1626,219.0902 343.0775,376.9218 375.073,614.8561 46.7182,459.0847 -348.2424,193.9973 -466.7193,45.7568 C 3767.4924,2071.6606 3539.1164,1760.4204 3275.726,1936.5227 2653.1078,2467.2873 1940.6121,3000.9261 1010.7186,2936.654 400.93917,2906.8855 216.88439,2361.4569 194.64292,2125.2573 147.72512,1627.0005 183.80009,1379.9305 592.45283,963.7496 633.44034,922.00709 661.01674,859.21179 657.65575,800.8071 650.71435,680.18649 594.95074,616.33796 516.8626,573.20018 273.90387,472.04329 -146.8236,285.06617 51.632394,81.916957 135.78199,4.0569876 280.39187,-19.499731 389.26865,16.405425 Z"
     id="path3455"
     inkscape:connector-curvature="0"
     sodipodi:nodetypes="ssccsasscsscsccsssccs" />
</svg>
