<?xml version="1.0" encoding="UTF-8" standalone="no"?>
<!-- Created with Inkscape (http://www.inkscape.org/) -->

<svg
   xmlns:dc="http://purl.org/dc/elements/1.1/"
   xmlns:cc="http://creativecommons.org/ns#"
   xmlns:rdf="http://www.w3.org/1999/02/22-rdf-syntax-ns#"
   xmlns:svg="http://www.w3.org/2000/svg"
   xmlns="http://www.w3.org/2000/svg"
   xmlns:sodipodi="http://sodipodi.sourceforge.net/DTD/sodipodi-0.dtd"
   xmlns:inkscape="http://www.inkscape.org/namespaces/inkscape"
   width="480"
   height="491.67746"
   id="svg17989"
   version="1.1"
   inkscape:version="0.48.5 r10040"
   sodipodi:docname="National Fisheries Research and Development Institute (NFRDI).svg">
  <title
     id="title19868">National Fisheries Research and Development Institute (NFRDI)</title>
  <defs
     id="defs17991" />
  <sodipodi:namedview
     id="base"
     pagecolor="#ffffff"
     bordercolor="#666666"
     borderopacity="1.0"
     inkscape:pageopacity="0.0"
     inkscape:pageshadow="2"
     inkscape:zoom="1.0372654"
     inkscape:cx="240"
     inkscape:cy="245.83873"
     inkscape:document-units="px"
     inkscape:current-layer="layer1"
     showgrid="false"
     inkscape:snap-object-midpoints="true"
     inkscape:snap-center="true"
     fit-margin-top="0"
     fit-margin-left="0"
     fit-margin-right="0"
     fit-margin-bottom="0"
     inkscape:window-width="1366"
     inkscape:window-height="705"
     inkscape:window-x="-8"
     inkscape:window-y="-8"
     inkscape:window-maximized="1" />
  <metadata
     id="metadata17994">
    <rdf:RDF>
      <cc:Work
         rdf:about="">
        <dc:format>image/svg+xml</dc:format>
        <dc:type
           rdf:resource="http://purl.org/dc/dcmitype/StillImage" />
        <dc:title>National Fisheries Research and Development Institute (NFRDI)</dc:title>
        <cc:license
           rdf:resource="http://creativecommons.org/licenses/publicdomain/" />
      </cc:Work>
      <cc:License
         rdf:about="http://creativecommons.org/licenses/publicdomain/">
        <cc:permits
           rdf:resource="http://creativecommons.org/ns#Reproduction" />
        <cc:permits
           rdf:resource="http://creativecommons.org/ns#Distribution" />
        <cc:permits
           rdf:resource="http://creativecommons.org/ns#DerivativeWorks" />
      </cc:License>
    </rdf:RDF>
  </metadata>
  <g
     inkscape:label="Layer 1"
     inkscape:groupmode="layer"
     id="layer1"
     transform="translate(22.194457,-434.1597)">
    <path
       style="color:#000000;fill:#002868;fill-opacity:1;stroke:none;stroke-width:1.2210654;marker:none;visibility:visible;display:inline;overflow:visible;enable-background:accumulate"
       d="m 219.02831,473.98442 c -107.06854,0 -193.868938,90.34859 -193.868938,201.78699 0,111.4384 86.800398,201.76939 193.868938,201.76939 59.62611,0 112.96261,-28.01369 148.52494,-72.08941 -21.84032,11.38068 -53.86649,27.22256 -75.04548,33.92443 -17.36827,5.496 -53.8427,9.34329 -53.8427,9.34329 0,0 36.83197,-38.3279 58.24162,-53.84271 32.92942,-23.86276 106.59449,-59.33255 106.59449,-59.33255 0,0 -66.32107,-15.50274 -127.48054,16.46954 -40.83829,21.34899 -110.9934,82.41805 -110.9934,82.41805 0,0 -66.449794,-7.49358 -61.82944,-105.97632 C 109.40051,596.24429 235.3501,506.93298 380.94354,579.23911 346.2653,524.54123 286.70256,473.98442 219.02831,473.98442 z"
       id="path18008"
       inkscape:connector-curvature="0"
       sodipodi:nodetypes="ssscscscscscs" />
    <path
       style="color:#000000;fill:#4b92db;fill-opacity:1;stroke:none;stroke-width:1.06709719;marker:none;visibility:visible;display:inline;overflow:visible;enable-background:accumulate"
       d="m 296.97707,586.24471 c -23.29415,-0.20104 -46.75267,4.64685 -68.90459,15.13226 -78.11253,36.97384 -112.32664,130.88465 -81.62625,215.98668 -3.03929,-53.51978 41.33544,-119.18516 112.59461,-159.575 52.92894,-30.00024 108.32479,-39.03549 149.59827,-28.29382 -31.72967,-27.48446 -71.44835,-42.90306 -111.66204,-43.25012 z"
       id="path18595"
       inkscape:connector-curvature="0" />
    <path
       style="color:#000000;fill:#4b92db;fill-opacity:1;stroke:none;stroke-width:1.00406194;marker:none;visibility:visible;display:inline;overflow:visible;enable-background:accumulate"
       d="m 328.4733,669.59533 c -85.53533,0 -156.12892,67.45534 -166.5253,154.64822 20.19935,-36.95769 58.91561,-73.42068 110.04324,-99.41545 47.89737,-24.35242 97.60416,-34.88985 139.23443,-32.25284 -24.42303,-14.6195 -52.6593,-22.97993 -82.75237,-22.97993 z"
       id="path18600"
       inkscape:connector-curvature="0" />
    <path
       sodipodi:type="arc"
       style="color:#000000;fill:none;stroke:none;stroke-width:1;marker:none;visibility:visible;display:inline;overflow:visible;enable-background:accumulate"
       id="path19762"
       sodipodi:cx="454.03775"
       sodipodi:cy="538.98212"
       sodipodi:rx="393.31537"
       sodipodi:ry="441.61725"
       d="M 749.45292,830.53784 C 606.04289,1013.7275 357.52422,1031.6981 194.37093,870.67633 31.217636,709.65455 15.212558,430.61605 158.62259,247.42639 302.03261,64.236733 550.55128,46.26612 713.70457,207.2879 811.24112,303.55019 860.17329,447.66448 844.465,592.40157"
       transform="matrix(0.54046538,0,0,0.49665329,-26.56523,410.80398)"
       sodipodi:start="0.72108507"
       sodipodi:end="6.4044455"
       sodipodi:open="true" />
    <g
       style="font-size:70px;font-style:normal;font-variant:normal;font-weight:normal;font-stretch:normal;text-align:center;line-height:100%;letter-spacing:4px;word-spacing:0px;writing-mode:lr-tb;text-anchor:middle;fill:#000000;fill-opacity:1;stroke:none;font-family:Swiss 721;-inkscape-font-specification:'Swiss 721,'"
       id="text19764"
       transform="matrix(0.563061,0,0,0.563061,-9.6976238,404.53436)">
      <path
         d="m 475.75513,921.01078 -6.00376,-49.96998 -7.99242,0.96027 4.49238,37.39061 -27.91364,-34.57661 -8.7569,1.05212 6.00376,49.96998 8.06191,-0.96862 -4.49238,-37.39061 27.77464,34.59331 z"
         style="font-size:70px"
         id="path19772"
         inkscape:connector-curvature="0" />
      <path
         d="m 394.5381,880.89116 c -0.008,-1.88725 -0.58568,-3.29911 -1.73253,-4.23558 -1.14679,-0.93648 -2.90649,-1.41553 -5.2791,-1.43714 -1.33,-0.002 -2.66184,0.17082 -3.99553,0.51871 l -0.0593,5.73962 c 0.28331,-0.0335 0.55779,-0.0628 0.82344,-0.0877 0.26572,-0.025 0.50502,-0.0371 0.71791,-0.0363 0.98139,0.0131 1.60542,0.31119 1.87208,0.8944 0.26672,0.58319 0.37749,1.43603 0.33231,2.55853 l -0.18888,18.26879 c -0.0315,3.60917 1.18867,6.34314 3.66035,8.20193 2.47175,1.85872 6.16034,2.81564 11.06577,2.87077 4.79517,0.004 8.5161,-1.03933 11.16282,-3.13097 2.64674,-2.09172 4.00647,-4.96236 4.0792,-8.61193 l 0.007,-0.62996 -7.41951,-0.0767 -0.003,0.27998 c -0.0266,1.86498 -0.67424,3.29043 -1.94304,4.27634 -1.26877,0.98585 -3.11428,1.47137 -5.53653,1.45657 -2.55051,-0.0191 -4.44482,-0.4558 -5.68293,-1.31006 -1.23807,-0.85432 -1.84574,-2.17024 -1.82302,-3.94776 -0.0487,-1.62955 0.51329,-2.67086 1.68612,-3.12394 1.17288,-0.45312 3.35561,-0.83016 6.54821,-1.1311 4.97652,-0.46921 8.83502,-1.55812 11.57549,-3.26671 2.74049,-1.70863 4.15101,-4.69541 4.23156,-8.96036 0.0118,-3.39503 -0.999,-6.06558 -3.0323,-8.01168 -2.03328,-1.9461 -4.95129,-2.9563 -8.75402,-3.03062 -2.43533,-0.0164 -4.70977,0.48507 -6.82333,1.50452 -2.11352,1.01944 -3.94312,2.50558 -5.48882,4.45843 z m 0.20959,13.58272 0.0478,-4.6197 c 0.0975,-2.66056 1.09933,-4.76487 3.00539,-6.31293 1.9061,-1.54807 4.29423,-2.3255 7.1644,-2.33228 1.93498,0.0317 3.41463,0.51365 4.43898,1.44595 1.02438,0.93229 1.53292,2.24427 1.52562,3.93594 -0.0126,1.50346 -0.46843,2.70921 -1.36745,3.61726 -0.89899,0.90802 -2.25878,1.5269 -4.07936,1.85665 -1.83178,0.2873 -3.65473,0.56597 -5.46886,0.83599 -1.8141,0.26999 -3.56959,0.79436 -5.26648,1.57312 z"
         style="font-size:70px"
         id="path19774"
         inkscape:connector-curvature="0" />
      <path
         d="m 369.48124,921.56976 1.00507,-10.09998 5.22413,0.51986 0.57531,-5.78137 -5.22413,-0.51987 2.2458,-22.56824 c 0.36318,-3.07516 0.004,-5.38248 -1.07859,-6.92198 -1.08223,-1.53951 -3.21546,-2.45817 -6.39972,-2.75599 -0.8,-0.0752 -1.6605,-0.11688 -2.58152,-0.125 -0.92099,-0.008 -1.90859,-0.01 -2.96281,-0.005 l -0.61691,6.1993 1.53935,0.0828 c 0.24265,0.0212 0.4905,0.0342 0.74355,0.0388 0.25309,0.005 0.51835,0.0193 0.79579,0.044 1.25656,0.11185 2.06439,0.44723 2.42349,1.00617 0.35914,0.55892 0.46201,1.43967 0.30862,2.64226 l -2.14876,21.59307 -6.12965,-0.60997 -0.57531,5.78137 6.12964,0.60997 -1.00506,10.09998 z"
         style="font-size:70px"
         id="path19776"
         inkscape:connector-curvature="0" />
      <path
         d="m 343.46329,921.77409 1.25176,-7.81023 -7.74111,-1.24068 -1.25175,7.81023 z m 2.12688,-13.27047 5.83784,-36.42468 -7.74111,-1.24067 -5.83784,36.42467 z"
         style="font-size:70px"
         id="path19778"
         inkscape:connector-curvature="0" />
      <path
         d="m 306.64846,901.88225 c 5.52161,1.34577 10.22908,0.74918 14.12242,-1.78976 3.89337,-2.539 6.62631,-6.82795 8.19882,-12.86686 1.47565,-6.06036 1.08918,-11.12392 -1.15941,-15.1907 -2.24858,-4.06678 -6.12438,-6.81585 -11.62742,-8.24721 -5.49223,-1.33689 -10.1905,-0.74099 -14.09483,1.78769 -3.90426,2.5287 -6.64069,6.79571 -8.20929,12.80105 -1.46883,6.03348 -1.08307,11.09987 1.15727,15.19919 2.24043,4.09928 6.11123,6.86814 11.61244,8.3066 z m 1.5753,-6.53304 c -3.13666,-0.80155 -5.27732,-2.47537 -6.42199,-5.02146 -1.14461,-2.54613 -1.2064,-5.87947 -0.18537,-10.00002 1.04684,-4.07949 2.67692,-6.96512 4.89023,-8.6569 2.21337,-1.69178 4.89106,-2.14751 8.03307,-1.36719 3.16887,0.81115 5.33004,2.48713 6.48352,5.02796 1.15351,2.54082 1.22312,5.85507 0.20882,9.94276 -1.04609,4.08265 -2.68184,6.97888 -4.90727,8.6887 -2.22539,1.70977 -4.92572,2.17182 -8.10101,1.38615 z"
         style="font-size:70px"
         id="path19780"
         inkscape:connector-curvature="0" />
      <path
         d="m 250.52833,867.7601 c -1.78819,4.34958 -2.26163,7.98608 -1.42033,10.9095 0.84139,2.92338 3.627,5.30076 8.35683,7.13213 2.17692,0.8277 4.34906,1.11927 6.51643,0.87468 2.16743,-0.24463 4.20506,-1.01724 6.11292,-2.31782 l -1.78381,4.63877 7.05616,2.71342 13.24045,-34.4315 -7.31751,-2.81391 -7.688,19.99248 c -1.14963,2.91242 -2.79247,4.85241 -4.92854,5.82 -2.13602,0.96755 -4.57555,0.93252 -7.3186,-0.10508 -2.03037,-0.79018 -3.36852,-1.94222 -4.01444,-3.45614 -0.64586,-1.51395 -0.56933,-3.32193 0.22958,-5.42394 l 8.69297,-22.60588 -7.31751,-2.8139 z"
         style="font-size:70px"
         id="path19782"
         inkscape:connector-curvature="0" />
      <path
         d="m 226.37207,835.02346 c 0.85114,-1.68443 0.97902,-3.20447 0.38363,-4.56011 -0.59534,-1.35562 -1.94457,-2.58265 -4.04771,-3.68108 -1.18351,-0.60681 -2.44825,-1.05862 -3.79422,-1.35543 l -2.66353,5.08453 c 0.26756,0.099 0.52531,0.1978 0.77324,0.2964 0.248,0.0986 0.46662,0.19669 0.65586,0.29419 0.86807,0.45802 1.2882,1.00736 1.2604,1.64803 -0.0277,0.64069 -0.317,1.45059 -0.86781,2.4297 l -8.47781,16.18367 c -1.66964,3.1999 -1.8266,6.18966 -0.47087,8.96929 1.35581,2.77959 4.20548,5.30955 8.54903,7.5899 4.26844,2.18494 8.0569,2.94797 11.36537,2.28909 3.30851,-0.65893 5.82516,-2.59695 7.54995,-5.81406 l 0.29234,-0.55806 -6.57268,-3.44309 -0.12993,0.24802 c -0.87194,1.64881 -2.09711,2.62367 -3.6755,2.92457 -1.57835,0.30086 -3.44274,-0.10618 -5.59318,-1.22113 -2.26271,-1.17713 -3.75109,-2.42765 -4.46515,-3.75159 -0.71399,-1.32397 -0.65662,-2.77228 0.17213,-4.34494 0.69779,-1.47341 1.67196,-2.14512 2.92253,-2.01515 1.25064,0.12995 3.366,0.787 6.3461,1.97115 4.64535,1.84571 8.57689,2.63102 11.79462,2.35591 3.21777,-0.27513 5.83247,-2.29348 7.84413,-6.05507 1.55472,-3.01814 1.86927,-5.8562 0.94367,-8.51418 -0.92559,-2.65797 -3.06478,-4.88489 -6.41756,-6.68076 -2.16135,-1.12234 -4.415,-1.71025 -6.76096,-1.76373 -2.34593,-0.0535 -4.65129,0.43785 -6.91609,1.47393 z m -5.99148,12.19165 2.14381,-4.09242 c 1.29703,-2.32505 3.14634,-3.74341 5.54795,-4.25508 2.40166,-0.51167 4.88206,-0.11777 7.44122,1.18169 1.70882,0.90833 2.80733,2.0106 3.29552,3.3068 0.48822,1.2962 0.34435,2.69592 -0.4316,4.19914 -0.69509,1.33319 -1.64946,2.19967 -2.86313,2.59943 -1.21363,0.39974 -2.70611,0.33239 -4.47744,-0.20204 -1.76201,-0.57732 -3.51222,-1.15833 -5.25065,-1.74302 -1.73837,-0.58469 -3.54027,-0.9162 -5.40568,-0.9945 z"
         style="font-size:70px"
         id="path19784"
         inkscape:connector-curvature="0" />
      <path
         d="m 184.67893,863.18278 26.97061,-42.4927 -6.61917,-4.20126 -26.97061,42.4927 z"
         style="font-size:70px"
         id="path19786"
         inkscape:connector-curvature="0" />
      <path
         d="m 143.35994,834.26573 32.78199,-38.18881 -6.26743,-5.38008 -14.45325,16.83707 -17.36821,-14.90919 -4.74176,5.52384 17.36821,14.90919 -8.79962,10.25096 -19.81144,-17.00651 -4.78736,5.57695 z"
         style="font-size:70px"
         id="path19788"
         inkscape:connector-curvature="0" />
      <path
         d="m 107.9085,802.27205 5.63195,-5.55405 -5.5049,-5.58212 -5.63196,5.55406 z m 9.56934,-9.43698 26.26585,-25.90255 -5.5049,-5.58211 -26.26586,25.90254 z"
         style="font-size:70px"
         id="path19790"
         inkscape:connector-curvature="0" />
      <path
         d="m 91.543136,747.95851 c -2.736032,2.37 -4.062475,5.25556 -3.979335,8.65669 0.08323,3.40112 1.633797,6.9253 4.651703,10.57253 2.995813,3.46737 6.087905,5.48996 9.276286,6.06778 3.18844,0.57779 6.12169,-0.24415 8.79978,-2.46584 2.25946,-1.90602 3.38533,-4.10266 3.37761,-6.58993 -0.008,-2.48728 -0.913,-5.48755 -2.71596,-9.00081 l -2.50063,-5.12708 c -0.86274,-1.66904 -1.37085,-3.08793 -1.52432,-4.25668 -0.15343,-1.16874 0.26003,-2.17508 1.24036,-3.01903 1.12241,-0.93342 2.43431,-1.20215 3.9357,-0.80618 1.50143,0.396 3.03355,1.49926 4.59638,3.30978 1.76473,2.08101 2.68995,4.02951 2.77566,5.84553 0.0857,1.81603 -0.68244,3.5232 -2.30453,5.1215 l 4.97064,5.88058 c 3.18696,-2.72438 4.78362,-5.84597 4.78998,-9.36481 0.006,-3.51882 -1.61416,-7.22064 -4.86157,-11.10546 -3.34348,-3.89906 -6.72504,-6.19635 -10.14471,-6.89187 -3.41963,-0.69549 -6.60863,0.18987 -9.567,2.65606 -2.527405,2.14019 -3.751655,4.47345 -3.672759,6.9998 0.07897,2.52638 1.068878,5.55443 2.969739,9.08418 l 2.22568,4.25962 c 0.96625,1.805 1.52106,3.33337 1.66442,4.58509 0.14342,1.25171 -0.27982,2.30069 -1.26971,3.14695 -0.87632,0.73882 -1.93505,0.95013 -3.1762,0.63393 -1.241087,-0.31622 -2.538657,-1.25494 -3.892714,-2.81616 -1.56013,-1.85482 -2.40359,-3.59364 -2.530384,-5.21649 -0.126717,-1.62286 0.470395,-3.06704 1.791338,-4.33256 z"
         style="font-size:70px"
         id="path19792"
         inkscape:connector-curvature="0" />
      <path
         d="m 63.077833,750.4126 41.701217,-28.17894 -4.38949,-6.49588 -18.09566,12.22786 c -2.426621,1.58168 -4.772284,2.14238 -7.036998,1.6821 -2.264649,-0.46029 -4.156182,-1.7905 -5.674605,-3.99064 -1.422625,-2.09233 -1.876907,-3.97837 -1.362847,-5.65813 0.514138,-1.67974 1.949583,-3.30093 4.30634,-4.86359 l 18.849643,-12.73735 -4.389487,-6.49588 -18.965641,12.81574 c -0.666523,0.45395 -1.223063,0.84411 -1.669622,1.17046 -0.446477,0.32639 -0.785522,0.56957 -1.017135,0.72955 -3.131764,2.13741 -4.911911,4.64979 -5.340444,7.53715 -0.428438,2.88737 0.493947,6.02354 2.767159,9.4085 1.40432,2.06252 3.043221,3.61273 4.916708,4.65062 1.873567,1.03789 3.903928,1.54211 6.09109,1.51267 l -15.079715,10.18988 z"
         style="font-size:70px"
         id="path19794"
         inkscape:connector-curvature="0" />
      <path
         d="m 50.224676,674.49757 8.238928,15.67661 c -2.824347,1.19935 -5.300774,1.50909 -7.42929,0.92921 -2.128452,-0.57988 -3.818932,-2.04729 -5.071446,-4.40223 -1.2828,-2.46912 -1.563852,-4.75305 -0.843159,-6.85178 0.720769,-2.09871 2.422423,-3.88264 5.104967,-5.35181 z m 1.274026,-9.76349 c -0.90544,0.38364 -1.732666,0.76568 -2.481682,1.14611 -5.363529,2.88806 -8.804169,6.41625 -10.321932,10.58456 -1.517675,4.16833 -1.089805,8.54973 1.283611,13.14419 2.556247,4.76037 6.040047,7.68397 10.451409,8.77082 4.411428,1.08684 9.360493,0.21565 14.847209,-2.61357 5.526977,-2.96898 9.105545,-6.57953 10.735715,-10.83168 1.630185,-4.25213 1.238365,-8.72166 -1.17546,-13.40861 -2.066647,-3.81005 -4.802931,-6.47742 -8.20886,-8.00212 -3.405896,-1.52464 -7.000261,-1.72456 -10.783107,-0.59977 l 3.614708,6.87788 c 1.922024,-0.43679 3.676174,-0.27137 5.262456,0.49624 1.586318,0.76765 2.878466,2.08526 3.876449,3.95283 1.34866,2.59436 1.5924,5.03299 0.731222,7.31588 -0.861152,2.28291 -2.81043,4.27277 -5.847842,5.96958 z"
         style="font-size:70px"
         id="path19796"
         inkscape:connector-curvature="0" />
      <path
         d="m 19.898261,644.64871 c 0.186977,0.4561 0.328805,0.82673 0.425486,1.11187 0.09677,0.28515 0.15781,0.46194 0.183126,0.53036 0.885223,2.13523 2.215585,3.75786 3.991092,4.86791 1.775586,1.11006 4.017181,1.68935 6.724793,1.73789 l -6.008912,2.5044 2.827541,6.78425 34.0505,-14.19156 -2.989115,-7.17193 -18.543631,7.72861 c -5.868891,2.44605 -10.009765,0.75929 -12.422636,-5.06027 l -0.807869,-1.93836 z"
         style="font-size:70px"
         id="path19798"
         inkscape:connector-curvature="0" />
      <path
         d="m 4.2498791,638.52223 7.4721069,-2.59502 -2.572052,-7.40598 -7.4721067,2.59502 z m 12.6959689,-4.40923 34.84779,-12.10242 -2.572052,-7.40598 -34.84779,12.10242 z"
         style="font-size:70px"
         id="path19800"
         inkscape:connector-curvature="0" />
      <path
         d="m 17.915634,585.42046 4.491958,17.13062 c -3.022045,0.53163 -5.504538,0.275 -7.447486,-0.76989 -1.942886,-1.04488 -3.258957,-2.85567 -3.948218,-5.43238 -0.693021,-2.69479 -0.451852,-4.98327 0.723508,-6.86544 1.175429,-1.88215 3.235506,-3.23645 6.180238,-4.06291 z m 3.442709,-9.22479 c -0.968628,0.16961 -1.860693,0.35528 -2.676199,0.55702 -5.876611,1.60431 -10.0241877,4.26583 -12.4427438,7.98457 -2.4184758,3.71878 -2.9895503,8.08382 -1.7132251,13.09512 1.4170388,5.21417 4.1519007,8.84802 8.2045939,10.90156 4.05276,2.05354 9.070811,2.32071 15.054166,0.80152 6.054094,-1.64629 10.35462,-4.35696 12.901592,-8.13203 2.546982,-3.77505 3.173053,-8.21783 1.878213,-13.32835 -1.154326,-4.17792 -3.218699,-7.39358 -6.193125,-9.64699 -2.974406,-2.25335 -6.431127,-3.25859 -10.370175,-3.01573 l 1.970781,7.51581 c 1.971014,0.008 3.642692,0.56453 5.01504,1.67005 1.372375,1.10557 2.33415,2.6806 2.885327,4.72511 0.728946,2.83165 0.416544,5.26243 -0.937209,7.29235 -1.35373,2.02995 -3.701487,3.52904 -7.043278,4.49727 z"
         style="font-size:70px"
         id="path19802"
         inkscape:connector-curvature="0" />
      <path
         d="m 5.0555426,538.4847 c -3.5691418,0.60331 -6.2018021,2.37954 -7.8979887,5.32869 -1.6961091,2.94921 -2.2024478,6.76597 -1.5190178,11.45031 0.7580126,4.51917 2.3489895,7.85394 4.77293541,10.00432 2.42401709,2.15038 5.35730429,2.97222 8.79987049,2.46552 2.920876,-0.45451 5.024204,-1.74634 6.30999,-3.8755 1.285827,-2.12915 2.07125,-5.16302 2.35627,-9.1016 l 0.527462,-5.67995 c 0.130098,-1.87432 0.433222,-3.35065 0.909373,-4.42899 0.476185,-1.0783 1.352338,-1.72329 2.628462,-1.935 1.444009,-0.21432 2.704538,0.23774 3.781592,1.35618 1.077074,1.11848 1.812884,2.85721 2.207432,5.21619 0.426519,2.69498 0.204592,4.84055 -0.66578,6.43671 -0.870355,1.59618 -2.413734,2.65565 -4.630142,3.17843 l 1.191424,7.60716 c 4.138557,-0.67179 7.124738,-2.50929 8.958552,-5.51251 1.83382,-3.00321 2.372691,-7.00811 1.616615,-12.0147 -0.83075,-5.06866 -2.526327,-8.78854 -5.086734,-11.15966 -2.560394,-2.37107 -5.745134,-3.27161 -9.55423,-2.70164 -3.271476,0.51536 -5.52985,1.87281 -6.77513,4.07234 -1.245233,2.19959 -1.972817,5.30115 -2.182754,9.30469 l -0.311656,4.79592 c -0.112299,2.04428 -0.432401,3.63841 -0.9603059,4.78238 -0.5278524,1.144 -1.4345216,1.82034 -2.7200105,2.02904 -1.1326255,0.17593 -2.1470138,-0.19364 -3.0431678,-1.1087 -0.8960896,-0.91505 -1.5169883,-2.39132 -1.8626979,-4.42881 -0.3692305,-2.39542 -0.1863972,-4.31935 0.5485004,-5.77181 0.7349646,-1.45243 1.9955398,-2.37609 3.7817292,-2.771 z"
         style="font-size:70px"
         id="path19804"
         inkscape:connector-curvature="0" />
      <path
         d="m -22.194457,499.70912 50.325845,0.59412 0.09833,-8.32931 -20.7182893,-0.24459 0.1495626,-12.66895 c 0.045374,-3.224 0.7558322,-5.34198 2.1313775,-6.35395 1.3755822,-1.01191 3.3796322,-1.52203 6.0121572,-1.53037 l 6.022809,-0.20891 c 1.327598,-0.0368 2.54207,-0.12747 3.643418,-0.27201 1.101353,-0.14447 2.108321,-0.4476 3.020906,-0.90939 l 0.110726,-9.37922 -1.469878,-0.0174 c -0.528357,0.89949 -1.267093,1.45955 -2.216212,1.68019 -0.949112,0.22073 -2.155144,0.33774 -3.618098,0.35106 l -7.214363,0.33485 c -2.713154,0.0438 -4.888206,0.46153 -6.5251623,1.25304 -1.6369153,0.7916 -2.8452702,2.34076 -3.6250683,4.64747 -0.8668152,-2.30136 -2.2953792,-4.08874 -4.28569607,-5.36214 -1.99026003,-1.27332 -4.42966713,-1.93507 -7.31822863,-1.98525 -4.4115367,-0.0112 -7.8532767,1.21407 -10.3252297,3.67582 -2.47186,2.46183 -3.752311,5.91774 -3.841356,10.36774 -0.0045,0.14144 -0.01968,0.43586 -0.04543,0.88326 -0.02565,0.44747 -0.04431,1.03936 -0.05596,1.77569 z m 7.166921,-8.17586 0.143779,-12.17899 c -0.0079,-3.159 0.565797,-5.54986 1.721018,-7.17259 1.155303,-1.62267 3.1627621,-2.42152 6.0223828,-2.39655 2.8989593,0.0343 4.9307459,0.88079 6.0953658,2.5396 1.16467816,1.65888 1.70716992,4.13292 1.62747691,7.42214 l -0.14129949,11.96901 z"
         style="font-size:70px"
         id="path19806"
         inkscape:connector-curvature="0" />
      <path
         d="m 10.919438,423.5016 -2.2443889,17.56698 c -3.0014325,-0.6378 -5.2075551,-1.80469 -6.6183745,-3.5007 -1.41076522,-1.69597 -1.953658,-3.86767 -1.62867997,-6.5151 0.36567346,-2.75834 1.44563727,-4.79033 3.23989477,-6.09598 1.7943083,-1.30558 4.2114886,-1.79065 7.2515486,-1.4552 z m 6.644387,-7.26643 c -0.961724,-0.20516 -1.85846,-0.36678 -2.690211,-0.48484 -6.050008,-0.71118 -10.8921816,0.20503 -14.52653519,2.74863 -3.63429611,2.54367 -5.79721641,6.37792 -6.48876721,11.50276 -0.6369655,5.36561 0.5394879,9.75882 3.5293637,13.17964 2.9899393,3.42084 7.5434768,5.54628 13.6606267,6.37633 6.230304,0.73866 11.232708,-0.1659 15.007224,-2.71368 3.774523,-2.54777 6.017534,-6.43353 6.729038,-11.6573 0.492849,-4.30635 -0.218303,-8.06086 -2.133458,-11.26355 -1.915158,-3.20263 -4.744616,-5.4283 -8.488383,-6.67702 l -0.984692,7.70726 c 1.824892,0.7448 3.166827,1.88655 4.02581,3.42528 0.858991,1.53877 1.161543,3.35927 0.907655,5.46149 -0.383569,2.8987 -1.582839,5.036 -3.597815,6.41191 -2.014963,1.37593 -4.753101,1.88762 -8.214421,1.53506 z"
         style="font-size:70px"
         id="path19808"
         inkscape:connector-curvature="0" />
      <path
         d="m 16.560307,375.15688 c -3.535385,-0.77706 -6.6416224,-0.11585 -9.3187213,1.9836 -2.6770441,2.09953 -4.5757364,5.44902 -5.6960827,10.04846 -0.98934605,4.47423 -0.76282712,8.16213 0.6795575,11.06371 1.4424494,2.90161 3.8545917,4.76203 7.236434,5.58126 2.8785635,0.67229 5.3125955,0.26203 7.3021025,-1.23076 1.989542,-1.49277 3.853856,-4.0118 5.592946,-7.55711 l 2.615952,-5.06921 c 0.822475,-1.68925 1.65636,-2.94466 2.501655,-3.76625 0.84531,-0.82154 1.89924,-1.09154 3.161794,-0.80999 1.419205,0.34198 2.418753,1.23316 2.998646,2.67353 0.579895,1.44042 0.611104,3.32818 0.09363,5.66327 -0.613652,2.65862 -1.622843,4.56499 -3.027576,5.71911 -1.404725,1.15415 -3.23254,1.55863 -5.48345,1.21343 l -1.743769,7.49985 c 4.089016,0.92677 7.545998,0.34113 10.370955,-1.75692 2.82496,-2.09804 4.824263,-5.60979 5.997917,-10.53524 1.127656,-5.01098 0.948354,-9.09514 -0.537906,-12.2525 -1.48627,-3.1573 -4.1021,-5.18486 -7.847497,-6.08268 -3.226443,-0.74714 -5.82881,-0.3341 -7.80711,1.23911 -1.978277,1.57329 -3.81431,4.17675 -5.508103,7.81041 l -2.084821,4.3303 c -0.869611,1.8535 -1.763346,3.21179 -2.681208,4.07486 -0.917819,0.86311 -2.011783,1.15075 -3.281896,0.86291 -1.1160995,-0.26099 -1.9183024,-0.98351 -2.4066116,-2.16756 -0.4882553,-1.18402 -0.5111911,-2.78538 -0.068808,-4.80409 0.5545983,-2.3594 1.4445495,-4.0749 2.6698566,-5.1465 1.225356,-1.07155 2.740088,-1.45599 4.544201,-1.15333 z"
         style="font-size:70px"
         id="path19810"
         inkscape:connector-curvature="0" />
      <path
         d="m 32.096347,340.62139 -5.750794,16.75006 c -2.81042,-1.23163 -4.734958,-2.82059 -5.77362,-4.76688 -1.038616,-1.94624 -1.131081,-4.18285 -0.277395,-6.70986 0.915969,-2.62738 2.38457,-4.39897 4.405807,-5.31475 2.021274,-0.91573 4.486605,-0.90191 7.396002,0.0414 z m 7.976663,-5.7725 c -0.900357,-0.39542 -1.745878,-0.73505 -2.536563,-1.01889 -5.781158,-1.92005 -10.708567,-2.00206 -14.782242,-0.24605 -4.073633,1.7561 -6.967304,5.07368 -8.681023,9.95276 -1.708956,5.12591 -1.445305,9.66626 0.790953,13.62107 2.236315,3.95484 6.265901,6.95728 12.088772,9.00733 5.952171,1.98342 11.034142,2.10925 15.24593,0.37749 4.21179,-1.73175 7.194315,-5.08359 8.947584,-10.05552 1.35359,-4.11768 1.416455,-7.93844 0.188594,-11.46227 -1.227876,-3.52377 -3.548741,-6.27569 -6.962601,-8.25574 l -2.523076,7.34884 c 1.636552,1.09847 2.719845,2.48804 3.249883,4.16868 0.530035,1.6807 0.458153,3.52477 -0.215646,5.5322 -0.961883,2.76123 -2.568623,4.61182 -4.820226,5.55178 -2.251597,0.93999 -5.036637,0.88734 -8.35513,-0.15796 z"
         style="font-size:70px"
         id="path19812"
         inkscape:connector-curvature="0" />
      <path
         d="m 64.22019,308.93092 c 1.721564,0.7733 3.245855,0.83159 4.57288,0.17489 1.327002,-0.65665 2.491102,-2.06054 3.492304,-4.21167 0.552102,-1.20999 0.945654,-2.49405 1.180658,-3.85218 l -5.200906,-2.42845 c -0.08667,0.27181 -0.173596,0.5338 -0.260769,0.78598 -0.08719,0.25224 -0.175166,0.47512 -0.263913,0.66862 -0.417882,0.88808 -0.947458,1.33287 -1.588729,1.33438 -0.641289,0.002 -1.46356,-0.2504 -2.466814,-0.7559 l -16.554103,-7.72955 c -3.272842,-1.5217 -6.26665,-1.5419 -8.981433,-0.0606 -2.714743,1.48139 -5.111869,4.44368 -7.191384,8.88687 -1.987646,4.36382 -2.576793,8.18317 -1.767441,11.45809 0.809407,3.27495 2.860385,5.70043 6.152937,7.27643 l 0.570831,0.26654 3.139205,-6.72312 -0.253703,-0.11846 c -1.686925,-0.79571 -2.716738,-1.97506 -3.089441,-3.53806 -0.37266,-1.56294 -0.05122,-3.44398 0.964315,-5.64312 1.072515,-2.31413 2.253735,-3.85809 3.543665,-4.6319 1.289965,-0.77373 2.739387,-0.78259 4.34827,-0.0266 1.503744,0.62975 2.219266,1.57222 2.146569,2.82741 -0.07268,1.25527 -0.63239,3.39844 -1.679148,6.42954 -1.631551,4.72483 -2.23641,8.68814 -1.814579,11.88994 0.421858,3.20183 2.557568,5.72159 6.407134,7.55929 3.086022,1.4152 5.935487,1.59976 8.548401,0.55368 2.612913,-1.04606 4.73977,-3.28475 6.380579,-6.71608 1.022424,-2.21038 1.506755,-4.48854 1.452993,-6.83449 -0.05378,-2.34592 -0.649904,-4.62642 -1.788378,-6.84153 z m -12.452658,-5.4282 4.186095,1.95459 c 2.381881,1.18945 3.883251,2.97203 4.504115,5.34775 0.620859,2.37578 0.340697,4.87159 -0.840485,7.48745 -0.829307,1.74853 -1.880232,2.89625 -3.152777,3.44315 -1.272544,0.54693 -2.677368,0.46717 -4.214477,-0.2393 -1.363558,-0.63345 -2.27273,-1.54724 -2.72752,-2.74137 -0.454773,-1.1941 -0.455688,-2.6881 -0.0027,-4.482 0.496216,-1.78654 0.99665,-3.56147 1.501303,-5.3248 0.504665,-1.76327 0.753495,-3.57843 0.746489,-5.44547 z"
         style="font-size:70px"
         id="path19814"
         inkscape:connector-curvature="0" />
      <path
         d="m 54.781984,258.09217 c -0.249799,0.42496 -0.458899,0.76224 -0.627301,1.01182 -0.16836,0.24967 -0.272102,0.40529 -0.311227,0.46686 -1.163422,1.99731 -1.64937,4.03856 -1.457848,6.12373 0.191568,2.08524 1.087705,4.22002 2.688412,6.40434 l -5.631322,-3.26607 -3.6875,6.35794 31.910825,18.50774 3.898214,-6.72126 -17.378381,-10.07916 c -5.50011,-3.18996 -6.664769,-7.50685 -3.493981,-12.95069 l 1.053571,-1.81656 z"
         style="font-size:70px"
         id="path19816"
         inkscape:connector-curvature="0" />
      <path
         d="m 89.939892,230.24353 c -3.720028,-2.25737 -7.369374,-2.9351 -10.948047,-2.03319 -3.578653,0.902 -6.736538,3.26623 -9.473664,7.09269 -3.050595,4.41905 -4.036788,8.84634 -2.958582,13.2819 1.078251,4.4356 4.155956,8.46999 9.233125,12.10318 5.031119,3.47063 9.782028,5.00551 14.252742,4.60463 4.470712,-0.40086 8.185775,-2.65476 11.145204,-6.76172 2.82591,-4.09208 4.01504,-8.06274 3.56739,-11.912 -0.44768,-3.84919 -2.44839,-7.23987 -6.002124,-10.17204 l -4.310188,6.12543 c 1.859078,1.75219 2.914738,3.597 3.166982,5.53444 0.252228,1.93749 -0.296577,3.873 -1.646417,5.80652 -1.687615,2.38063 -3.85655,3.58269 -6.506811,3.60617 -2.650262,0.0235 -5.686441,-1.1607 -9.108545,-3.55265 -3.491924,-2.46244 -5.672377,-4.94893 -6.541365,-7.45948 -0.868957,-2.5105 -0.42724,-5.01351 1.325151,-7.50904 1.337275,-1.86747 2.912553,-3.0165 4.725838,-3.44709 1.813305,-0.43051 3.696062,-0.10071 5.648276,0.98942 z"
         style="font-size:70px"
         id="path19818"
         inkscape:connector-curvature="0" />
      <path
         d="m 77.946711,203.54004 37.810029,33.21815 5.17445,-5.88974 -16.40713,-14.41455 c -2.14401,-1.94768 -3.27976,-4.07526 -3.40725,-6.38275 -0.12746,-2.30744 0.68108,-4.47391 2.42563,-6.49944 1.66449,-1.90557 3.37431,-2.82211 5.12946,-2.74962 1.75517,0.0726 3.68671,1.05131 5.79464,2.9362 l 17.09076,15.01516 5.17446,-5.88974 -17.19594,-15.10756 c -0.60777,-0.53004 -1.12601,-0.9698 -1.55469,-1.3193 -0.4287,-0.34941 -0.74973,-0.61592 -0.96309,-0.79954 -2.86002,-2.48933 -5.74095,-3.57615 -8.64282,-3.26047 -2.90186,0.31579 -5.70276,2.0014 -8.402709,5.05684 -1.640267,1.88033 -2.725548,3.85803 -3.255846,5.93311 -0.530266,2.07516 -0.504562,4.16703 0.07711,6.27563 L 83.121166,197.6503 z"
         style="font-size:70px"
         id="path19820"
         inkscape:connector-curvature="0" />
      <path
         d="m 175.69407,171.36526 c 1.20889,1.44926 2.55363,2.16935 4.03423,2.16027 1.48056,-0.009 3.14198,-0.76117 4.98428,-2.25639 1.02633,-0.8459 1.94257,-1.82783 2.74873,-2.9458 l -3.61168,-4.46123 c -0.19698,0.20638 -0.38988,0.40383 -0.5787,0.59234 -0.18888,0.18856 -0.36559,0.35039 -0.53013,0.48546 -0.76466,0.61531 -1.43556,0.78319 -2.0127,0.50365 -0.57718,-0.2795 -1.206,-0.86618 -1.88646,-1.76006 l -11.49572,-14.19974 c -2.27561,-2.80155 -4.95808,-4.13108 -8.04742,-3.9886 -3.08934,0.14258 -6.54183,1.75555 -10.35748,4.83892 -3.69829,3.05225 -5.9009,6.22764 -6.60783,9.52618 -0.7069,3.2986 0.0744,6.37739 2.34396,9.23639 l 0.3964,0.48965 5.76694,-4.66876 -0.17617,-0.21762 c -1.16794,-1.45423 -1.57712,-2.96551 -1.22752,-4.53384 0.34961,-1.56826 1.46252,-3.11845 3.33873,-4.65055 1.9778,-1.61051 3.71598,-2.48107 5.21452,-2.61166 1.49855,-0.13052 2.8054,0.49641 3.92056,1.88079 1.07596,1.2248 1.30636,2.38546 0.69119,3.48199 -0.61517,1.0966 -2.05711,2.77806 -4.32581,5.04438 -3.53631,3.53277 -5.8161,6.83069 -6.83937,9.89376 -1.02326,3.0631 -0.20707,6.26377 2.44857,9.60201 2.15432,2.62398 4.63503,4.03804 7.44215,4.24219 2.80711,0.20416 5.69969,-0.87671 8.67773,-3.24262 1.88733,-1.53919 3.32062,-3.37501 4.29989,-5.50748 0.97924,-2.13245 1.44227,-4.44365 1.38911,-6.93363 z m -8.81674,-10.33437 2.90696,3.59074 c 1.62021,2.1126 2.18906,4.37271 1.70655,6.78035 -0.48253,2.40768 -1.82762,4.5286 -4.03528,6.36276 -1.51142,1.2086 -2.95889,1.78002 -4.34242,1.71426 -1.38354,-0.0658 -2.61148,-0.75281 -3.68383,-2.06119 -0.94832,-1.16672 -1.36536,-2.38643 -1.25113,-3.65912 0.11422,-1.27265 0.76782,-2.6161 1.96078,-4.03034 1.22863,-1.38868 2.45597,-2.76506 3.68202,-4.12917 1.22604,-1.36406 2.24482,-2.88682 3.05635,-4.56829 z"
         style="font-size:70px"
         id="path19822"
         inkscape:connector-curvature="0" />
      <path
         d="m 208.54676,126.52785 c -2.43439,-4.02371 -5.07702,-6.5663 -7.92788,-7.6278 -2.85089,-1.0614 -6.41857,-0.23486 -10.70305,2.47962 -1.95974,1.25838 -3.48553,2.83165 -4.57736,4.71982 -1.09183,1.88825 -1.68196,3.98602 -1.77039,6.29332 l -2.66954,-4.19212 -6.37674,4.06069 19.8147,31.11615 6.61292,-4.21109 -11.50531,-18.06744 c -1.6584,-2.65584 -2.24167,-5.13018 -1.7498,-7.42301 0.49187,-2.29277 1.97034,-4.23356 4.43542,-5.82237 1.84243,-1.16285 3.56432,-1.55395 5.16565,-1.17331 1.60132,0.38072 3.00961,1.5171 4.22487,3.40915 l 13.00927,20.4292 6.61292,-4.21109 z"
         style="font-size:70px"
         id="path19824"
         inkscape:connector-curvature="0" />
      <path
         d="m 232.56165,84.177039 7.78265,16.219191 c -2.06016,-1.14491 -4.15478,-1.734692 -6.28385,-1.769349 -2.12908,-0.03457 -4.31218,0.485668 -6.54932,1.560719 -4.12753,2.04692 -6.74589,5.26698 -7.85507,9.66017 -1.10916,4.39326 -0.36737,9.39775 2.2254,15.01347 2.67668,5.38949 6.0591,9.01366 10.14728,10.87254 4.08816,1.85889 8.26619,1.80158 12.53409,-0.17193 2.16201,-1.02934 3.86562,-2.38705 5.11083,-4.07314 1.24517,-1.68607 2.12345,-3.79295 2.63485,-6.32066 l 2.08951,4.35457 6.75273,-3.24025 -21.77325,-45.375861 z m -0.44196,21.407951 c 2.88321,-1.37698 5.5304,-1.47613 7.94159,-0.29747 2.41116,1.17874 4.51594,3.63025 6.31437,7.35453 1.83786,3.86392 2.47586,7.14865 1.91399,9.85422 -0.5619,2.70561 -2.26749,4.74686 -5.11677,6.12376 -2.71988,1.27924 -5.31384,1.31404 -7.7819,0.10439 -2.46808,-1.20962 -4.58402,-3.61695 -6.34784,-7.22201 -1.79692,-3.81558 -2.40894,-7.09337 -1.83606,-9.83338 0.57288,-2.73995 2.21042,-4.76796 4.91262,-6.08404 z"
         style="font-size:70px"
         id="path19826"
         inkscape:connector-curvature="0" />
      <path
         d="m 281.83939,65.026528 12.62049,48.721322 17.48275,-4.52863 c 7.43264,-1.97201 12.54146,-5.5701 15.32646,-10.794278 2.78493,-5.224146 3.17007,-11.774505 1.15542,-19.651096 -2.08256,-8.033696 -5.43984,-13.608615 -10.07185,-16.724774 -4.63207,-3.116053 -10.52381,-3.75013 -17.67526,-1.902231 z m 9.78638,4.840553 10.50321,-2.720689 c 4.4516,-1.139516 8.19077,-0.580554 11.21751,1.676889 3.02668,2.257535 5.26191,6.152676 6.70566,11.685435 1.58031,6.042773 1.59321,10.814859 0.0387,14.316274 -1.55457,3.501455 -4.73273,5.86429 -9.53449,7.08852 l -9.9611,2.58027 z"
         style="font-size:70px"
         id="path19828"
         inkscape:connector-curvature="0" />
      <path
         d="m 366.56603,76.924555 -17.5728,2.198351 c -0.12928,-3.065725 0.45184,-5.492849 1.74335,-7.281382 1.29148,-1.788471 3.25973,-2.854779 5.90474,-3.198928 2.76256,-0.332336 4.99939,0.207919 6.71051,1.620765 1.71108,1.412911 2.78247,3.633307 3.2142,6.661194 z m 8.69145,4.626824 c -0.0406,-0.982524 -0.1073,-1.891266 -0.19996,-2.726229 -0.81694,-6.036636 -2.90946,-10.498415 -6.27754,-13.385351 -3.36815,-2.886862 -7.62006,-4.027445 -12.75575,-3.421752 -5.3553,0.718485 -9.31748,2.951313 -11.88653,6.698491 -2.56905,3.747245 -3.49432,8.686486 -2.7758,14.817736 0.8352,6.218099 2.95631,10.837966 6.36333,13.859613 3.40702,3.021653 7.72875,4.226993 12.96523,3.616003 4.29351,-0.59444 7.75289,-2.217647 10.37815,-4.869633 2.62521,-2.651974 4.07664,-5.94633 4.3543,-9.883077 l -7.70981,0.964494 c -0.26717,1.952837 -1.03902,3.536711 -2.31554,4.751626 -1.27657,1.214935 -2.96448,1.961056 -5.06374,2.238365 -2.90295,0.349937 -5.27148,-0.27966 -7.10558,-1.888793 -1.83413,-1.609113 -3.01119,-4.133741 -3.53119,-7.573891 z"
         style="font-size:70px"
         id="path19830"
         inkscape:connector-curvature="0" />
      <path
         d="m 382.15082,60.443772 14.08128,36.675196 8.11892,-0.126144 12.72514,-37.091689 -8.2589,0.128319 -8.59055,28.346514 -9.53703,-28.064864 z"
         style="font-size:70px"
         id="path19832"
         inkscape:connector-curvature="0" />
      <path
         d="m 451.44813,77.583255 -17.63232,-1.654432 c 0.53685,-3.02112 1.62917,-5.265108 3.27694,-6.73197 1.64774,-1.466808 3.80003,-2.082173 6.45686,-1.846097 2.76905,0.273032 4.83609,1.284294 6.20113,3.03379 1.36498,1.749548 1.93077,4.149116 1.69739,7.198709 z m 7.48501,6.397146 c 0.17282,-0.968059 0.3043,-1.869707 0.39442,-2.704948 0.50803,-6.070442 -0.56993,-10.879192 -3.23389,-14.426265 -2.66404,-3.547012 -6.56861,-5.580226 -11.71375,-6.099648 -5.38394,-0.456797 -9.73526,0.866218 -13.05396,3.969052 -3.31872,3.102897 -5.29037,7.725104 -5.91496,13.866634 -0.52946,6.251559 0.54223,11.22084 3.21507,14.907856 2.67283,3.687023 6.63157,5.798556 11.87625,6.334605 4.32045,0.348263 8.04902,-0.488313 11.18573,-2.509719 3.13665,-2.021408 5.26625,-4.923862 6.38881,-8.707372 l -7.73592,-0.725858 c -0.68323,1.848827 -1.77938,3.22827 -3.28845,4.138336 -1.50912,0.910075 -3.31846,1.273464 -5.42801,1.090168 -2.90993,-0.286214 -5.08622,-1.413187 -6.52887,-3.380922 -1.44269,-1.967721 -2.04585,-4.687173 -1.80948,-8.158365 z"
         style="font-size:70px"
         id="path19834"
         inkscape:connector-curvature="0" />
      <path
         d="m 476.28811,52.614794 -8.92318,49.532016 7.7157,1.38998 8.92317,-49.532016 z"
         style="font-size:70px"
         id="path19836"
         inkscape:connector-curvature="0" />
      <path
         d="m 512.7143,73.221508 c -5.4943,-1.453243 -10.21252,-0.948617 -14.15465,1.513877 -3.94217,2.462554 -6.75827,6.697364 -8.4483,12.704443 -1.59362,6.030418 -1.30602,11.100556 0.8628,15.210432 2.16881,4.10988 5.99023,6.93404 11.4643,8.4725 5.46509,1.44379 10.1741,0.93968 14.12702,-1.51235 3.95286,-2.45204 6.77202,-6.66485 8.45749,-12.638444 1.58627,-6.003665 1.29944,-11.076617 -0.8605,-15.218874 -2.16002,-4.142211 -5.97607,-6.98607 -11.44816,-8.531584 z m -1.70246,6.501058 c 3.12042,0.862601 5.22801,2.577869 6.32279,5.145807 1.09471,2.567978 1.09145,5.901884 -0.01,10.001729 -1.12623,4.058289 -2.8123,6.911568 -5.0582,8.559838 -2.24596,1.64827 -4.93203,2.05167 -8.05821,1.2102 -3.15244,-0.87282 -5.2805,-2.59065 -6.38419,-5.153501 -1.10372,-2.56284 -1.10865,-5.877819 -0.0148,-9.944947 1.12555,-4.061462 2.8175,-6.925225 5.07586,-8.591297 2.25832,-1.666025 4.96716,-2.075301 8.12652,-1.227829 z"
         style="font-size:70px"
         id="path19838"
         inkscape:connector-curvature="0" />
      <path
         d="m 557.85383,95.850266 c 2.74315,1.151546 4.49552,3.060349 5.25712,5.726414 0.76153,2.66609 0.39763,5.86413 -1.09171,9.59411 -1.62529,3.88867 -3.64258,6.5295 -6.05188,7.92252 -2.40936,1.39301 -5.00752,1.52684 -7.79449,0.40151 -2.95473,-1.21608 -4.80306,-3.11374 -5.545,-5.69301 -0.74198,-2.57925 -0.33414,-5.78451 1.2235,-9.61578 1.64631,-3.98245 3.65908,-6.666118 6.0383,-8.051 2.37917,-1.384841 5.03389,-1.479763 7.96416,-0.284764 z m -19.04492,21.020824 c 0.48658,2.24464 1.44039,4.17946 2.86145,5.80448 1.42102,1.62501 3.28352,2.91076 5.58751,3.85725 4.28428,1.69426 8.42558,1.48628 12.42391,-0.62395 3.99827,-2.11024 7.21745,-6.02389 9.65755,-11.74096 2.21587,-5.62763 2.64054,-10.57515 1.27402,-14.842579 -1.36662,-4.267398 -4.21354,-7.320857 -8.54076,-9.160386 -2.30529,-0.95486 -4.50416,-1.303621 -6.5966,-1.046285 -2.09251,0.257391 -4.23946,1.1212 -6.44087,2.591429 l 1.96272,-4.79369 -6.93142,-2.837979 -19.54757,47.74256 6.99619,2.8645 z"
         style="font-size:70px"
         id="path19840"
         inkscape:connector-curvature="0" />
      <path
         d="m 612.61807,122.34974 c -0.0265,-2.31655 -0.53511,-4.28328 -1.52588,-5.90021 -0.99085,-1.6169 -2.52009,-3.02926 -4.58774,-4.2371 -1.90624,-1.12557 -3.88264,-1.73835 -5.92919,-1.83835 -2.04662,-0.0999 -4.10485,0.31711 -6.17471,1.25115 l 2.42835,-4.09392 -6.38169,-3.78536 -18.81969,31.72785 6.68272,3.96392 11.21324,-18.90426 c 1.49814,-2.46855 3.2591,-4.00806 5.28287,-4.61853 2.02372,-0.61043 4.10618,-0.2908 6.24738,0.95889 1.63013,0.9907 2.61784,2.24123 2.96313,3.75159 0.34522,1.51039 0.0202,3.12168 -0.97502,4.83389 l -12.57026,21.19204 6.68271,3.96392 11.24896,-18.96447 c 1.49162,-2.46902 3.2416,-4.00147 5.24996,-4.59735 2.00827,-0.59586 4.10986,-0.25132 6.30478,1.03363 1.88083,1.11397 2.90613,2.47836 3.0759,4.09316 0.16966,1.6148 -0.42285,3.54557 -1.77752,5.79233 l -11.82033,19.92774 6.62251,3.9282 12.10602,-20.40937 c 2.44206,-4.03997 3.43577,-7.55041 2.98111,-10.53133 -0.45478,-2.98092 -2.54771,-5.57543 -6.27881,-7.78352 -1.93334,-1.13995 -3.93083,-1.76864 -5.99246,-1.88605 -2.06173,-0.11739 -4.14717,0.25978 -6.25634,1.13151 z"
         style="font-size:70px"
         id="path19842"
         inkscape:connector-curvature="0" />
      <path
         d="m 657.92635,167.13937 -13.82334,-11.07029 c 2.1085,-2.22926 4.2541,-3.50402 6.43683,-3.82428 2.18266,-0.32022 4.31907,0.34818 6.40923,2.00521 2.16361,1.74956 3.33506,3.73022 3.51434,5.94199 0.17921,2.21179 -0.66648,4.52757 -2.53706,6.94737 z m 2.7391,9.45761 c 0.67629,-0.71389 1.28154,-1.39501 1.81576,-2.04336 3.75984,-4.79291 5.5013,-9.40305 5.22439,-13.83044 -0.277,-4.42737 -2.42226,-8.27153 -6.43578,-11.53248 -4.24747,-3.33984 -8.61005,-4.62522 -13.08776,-3.85614 -4.47777,0.76912 -8.66478,3.5478 -12.56107,8.33607 -3.87725,4.93246 -5.71216,9.67328 -5.50472,14.22247 0.20742,4.54919 2.35491,8.48855 6.44247,11.81809 3.41852,2.66482 6.99351,4.01448 10.72498,4.04897 3.73141,0.0345 7.10549,-1.22053 10.12224,-3.76499 l -6.06478,-4.85693 c -1.58668,1.16936 -3.26047,1.71966 -5.02138,1.65089 -1.76095,-0.0688 -3.47237,-0.75928 -5.13426,-2.07151 -2.27407,-1.83798 -3.47322,-3.97535 -3.59745,-6.41211 -0.12425,-2.43676 0.86597,-5.04035 2.97068,-7.81077 z"
         style="font-size:70px"
         id="path19844"
         inkscape:connector-curvature="0" />
      <path
         d="m 696.86269,201.94986 c 3.4044,-3.24446 5.31763,-6.37301 5.73968,-9.38566 0.42196,-3.01265 -1.15415,-6.31831 -4.72832,-9.91699 -1.65121,-1.64244 -3.51637,-2.79325 -5.5955,-3.45243 -2.07921,-0.65916 -4.25486,-0.78326 -6.52699,-0.37229 l 3.51818,-3.51037 -5.33972,-5.35159 -26.11377,26.05587 5.53748,5.54979 15.16284,-15.12921 c 2.23595,-2.19187 4.5264,-3.29476 6.87136,-3.30866 2.3449,-0.0139 4.55874,1.0115 6.64154,3.07618 1.53265,1.54848 2.2857,3.14559 2.25917,4.79132 -0.0266,1.64574 -0.83274,3.26587 -2.41837,4.86039 l -17.14491,17.10688 5.53749,5.5498 z"
         style="font-size:70px"
         id="path19846"
         inkscape:connector-curvature="0" />
      <path
         d="m 724.62379,198.11893 -7.78461,6.51304 -3.36881,-4.02653 -4.45602,3.72816 3.36881,4.02652 -17.39457,14.55327 c -2.41104,1.94305 -3.76849,3.84313 -4.07238,5.70027 -0.30389,1.85713 0.57752,4.00603 2.64423,6.4467 0.51896,0.61346 1.10463,1.24529 1.757,1.89548 0.65235,0.65017 1.35688,1.34226 2.11361,2.07628 l 4.77814,-3.99766 -1.04188,-1.13619 c -0.15852,-0.18493 -0.32655,-0.36758 -0.50409,-0.54797 -0.17756,-0.18041 -0.35682,-0.37648 -0.53778,-0.58823 -0.81953,-0.95907 -1.16205,-1.7639 -1.02757,-2.4145 0.13446,-0.65061 0.67718,-1.35186 1.62818,-2.10377 l 16.64296,-13.92443 3.95274,4.72446 4.45602,-3.72816 -3.95274,-4.72445 7.78461,-6.51304 z"
         style="font-size:70px"
         id="path19848"
         inkscape:connector-curvature="0" />
      <path
         d="m 758.58691,237.52588 -42.11961,27.54964 4.598,7.02969 42.1196,-27.54964 z"
         style="font-size:70px"
         id="path19850"
         inkscape:connector-curvature="0" />
      <path
         d="m 763.9542,300.01138 c 4.18884,-2.13779 6.91545,-4.59011 8.17983,-7.35697 1.2643,-2.76689 0.69728,-6.3849 -1.70105,-10.85404 -1.11372,-2.04541 -2.57283,-3.68071 -4.37731,-4.90592 -1.80457,-1.22519 -3.85431,-1.96512 -6.14921,-2.21977 l 4.37377,-2.36016 -3.5901,-6.65306 -32.46449,17.51839 3.72307,6.89947 18.85035,-10.17197 c 2.76856,-1.46249 5.27852,-1.86574 7.5299,-1.20975 2.25131,0.65598 4.08039,2.27061 5.48723,4.84388 1.02691,1.92152 1.29278,3.66713 0.79761,5.23684 -0.49524,1.56968 -1.73026,2.89232 -3.70504,3.96792 l -21.31445,11.50164 3.72308,6.89948 z"
         style="font-size:70px"
         id="path19852"
         inkscape:connector-curvature="0" />
      <path
         d="m 783.20741,338.0502 c 3.3311,-1.41653 5.47869,-3.75613 6.44279,-7.01882 0.96402,-3.26271 0.56917,-7.09261 -1.18454,-11.48972 -1.78786,-4.21913 -4.11051,-7.09267 -6.96796,-8.62061 -2.85752,-1.52794 -5.9015,-1.64533 -9.13194,-0.35219 -2.73519,1.12109 -4.48057,2.86651 -5.23614,5.23625 -0.75562,2.36974 -0.81421,5.50308 -0.17579,9.40001 l 0.80746,5.64695 c 0.3092,1.85322 0.3576,3.35957 0.14518,4.51906 -0.21245,1.15945 -0.91465,1.99046 -2.1066,2.49304 -1.35462,0.54415 -2.68571,0.39752 -3.99326,-0.43988 -1.30759,-0.83745 -2.42746,-2.35748 -3.35961,-4.5601 -1.04135,-2.52199 -1.32431,-4.66036 -0.84885,-6.41513 0.47543,-1.75479 1.73022,-3.14404 3.76437,-4.16775 l -2.92729,-7.12177 c -3.86899,1.61551 -6.34617,4.09689 -7.43156,7.44415 -1.08539,3.34726 -0.67845,7.3677 1.22084,12.06134 1.98634,4.73666 4.50025,7.96044 7.54174,9.67136 3.04146,1.71086 6.3483,1.84635 9.92053,0.40646 3.06203,-1.26179 4.94296,-3.10706 5.64277,-5.53583 0.69976,-2.42882 0.68637,-5.61455 -0.0402,-9.5572 l -0.81184,-4.73698 c -0.36602,-2.01437 -0.42529,-3.63924 -0.1778,-4.8746 0.24744,-1.23536 0.97203,-2.10396 2.17378,-2.60579 1.06069,-0.43442 2.13321,-0.3108 3.21754,0.37086 1.08427,0.68166 2.03135,1.97313 2.84126,3.87443 0.916,2.24395 1.18545,4.15767 0.80835,5.74119 -0.37717,1.58349 -1.38847,2.77491 -3.03392,3.57425 z"
         style="font-size:70px"
         id="path19854"
         inkscape:connector-curvature="0" />
      <path
         d="m 807.53609,345.03187 -9.66376,3.10348 -1.60525,-4.9985 -5.53167,1.77648 1.60525,4.99849 -21.5935,6.93468 c -2.96512,0.89249 -4.938,2.14181 -5.91864,3.74794 -0.98064,1.60612 -0.973,3.92874 0.0229,6.96787 0.24986,0.7637 0.55459,1.56952 0.91421,2.41747 0.35961,0.84791 0.75179,1.75431 1.17653,2.71919 l 5.93155,-1.90489 -0.53752,-1.44482 c -0.0772,-0.231 -0.16416,-0.46347 -0.26073,-0.69742 -0.0966,-0.23398 -0.18885,-0.48311 -0.27679,-0.7474 -0.39821,-1.19703 -0.41256,-2.0716 -0.0431,-2.62371 0.36948,-0.55214 1.13627,-0.9975 2.30036,-1.3361 l 20.66045,-6.63503 1.88349,5.8649 5.53167,-1.77647 -1.88349,-5.86491 9.66376,-3.10348 z"
         style="font-size:70px"
         id="path19856"
         inkscape:connector-curvature="0" />
      <path
         d="m 818.06437,368.5709 -7.65255,2.00122 1.98351,7.58484 7.65256,-2.00123 z m -13.00257,3.40031 -35.68935,9.33314 1.98352,7.58483 35.68935,-9.33314 z"
         style="font-size:70px"
         id="path19858"
         inkscape:connector-curvature="0" />
      <path
         d="m 820.45322,392.31345 -9.94564,2.02584 -1.04785,-5.14429 -5.69303,1.15962 1.04786,5.1443 -22.22337,4.52672 c -3.04506,0.5622 -5.14296,1.58781 -6.29369,3.07681 -1.15073,1.48899 -1.39765,3.79846 -0.74076,6.92842 0.16467,0.78648 0.37927,1.62084 0.6438,2.50309 0.26453,0.88221 0.55503,1.82613 0.87148,2.83175 l 6.10457,-1.24345 -0.37596,-1.49503 c -0.0515,-0.23807 -0.11239,-0.47867 -0.18274,-0.72179 -0.0704,-0.24315 -0.13478,-0.50089 -0.19322,-0.77323 -0.26465,-1.23345 -0.18308,-2.10433 0.2447,-2.61263 0.42776,-0.50832 1.23873,-0.86698 2.43291,-1.07598 l 21.2631,-4.33112 1.22948,6.03597 5.69302,-1.15962 -1.22948,-6.03598 9.94564,-2.02584 z"
         style="font-size:70px"
         id="path19860"
         inkscape:connector-curvature="0" />
      <path
         d="m 815.44469,419.6387 -23.28976,2.73414 c -2.01298,0.20107 -3.80744,0.49983 -5.3834,0.89629 -1.57597,0.39645 -2.95239,1.10425 -4.12927,2.12341 -2.74801,2.50748 -3.82991,6.29943 -3.2457,11.37589 0.29554,2.41739 1.06757,4.541 2.31609,6.37082 1.24851,1.82977 2.8897,3.25226 4.92359,4.26747 l -5.00556,0.58764 0.87329,7.43882 36.63792,-4.30116 -0.90594,-7.71691 -20.57841,2.41583 c -3.38127,0.37784 -6.03464,-0.13587 -7.96013,-1.54111 -1.92551,-1.40529 -3.06642,-3.59425 -3.42273,-6.56687 -0.30258,-2.58987 0.199,-4.44599 1.50474,-5.56836 1.30572,-1.1224 3.37018,-1.82288 6.19339,-2.10144 l 22.38598,-2.62803 z"
         style="font-size:70px"
         id="path19862"
         inkscape:connector-curvature="0" />
      <path
         d="m 830.03315,466.90891 -10.14439,0.33366 -0.17258,-5.24709 -5.80679,0.191 0.17259,5.24709 -22.66745,0.74558 c -3.0962,0.0449 -5.33609,0.70516 -6.71968,1.9807 -1.38359,1.27552 -2.01334,3.51115 -1.88926,6.70689 0.0308,0.80294 0.1028,1.66144 0.21603,2.57551 0.11323,0.91404 0.24174,1.89324 0.38553,2.93763 l 6.22655,-0.20481 -0.12059,-1.53684 c -0.0109,-0.24333 -0.0307,-0.49073 -0.0594,-0.74219 -0.0287,-0.2515 -0.0491,-0.51638 -0.0611,-0.79466 -0.0546,-1.26034 0.17149,-2.1053 0.67827,-2.53488 0.50676,-0.42961 1.3663,-0.64757 2.57862,-0.65387 l 21.68799,-0.71336 0.2025,6.15659 5.80679,-0.19099 -0.20251,-6.15659 10.14439,-0.33367 z"
         style="font-size:70px"
         id="path19864"
         inkscape:connector-curvature="0" />
      <path
         d="m 804.42346,516.31819 0.86671,-17.68855 c 3.04205,0.40164 5.33251,1.39282 6.87137,2.97356 1.53881,1.58071 2.24952,3.70342 2.13212,6.36815 -0.14931,2.77846 -1.06742,4.88853 -2.75432,6.3302 -1.68695,1.44163 -4.05891,2.11384 -7.11588,2.01664 z m -6.05709,7.76277 c 0.9748,0.12949 1.88142,0.22063 2.71984,0.27343 6.08706,0.2369 10.84297,-1.05438 14.26775,-3.87382 3.42472,-2.81952 5.28184,-6.81086 5.57137,-11.97403 0.21632,-5.39896 -1.29937,-9.68696 -4.54707,-12.86404 -3.24777,-3.17709 -7.95328,-4.94072 -14.11655,-5.29089 -6.26894,-0.25022 -11.18551,1.04194 -14.7497,3.8765 -3.5642,2.83454 -5.49714,6.88348 -5.79884,12.14685 -0.1553,4.33167 0.84666,8.01925 3.0059,11.06272 2.15923,3.04341 5.15374,5.0415 8.98354,5.99426 l 0.38025,-7.76059 c -1.87744,-0.60012 -3.30438,-1.63368 -4.28082,-3.10068 -0.97645,-1.46705 -1.42014,-3.25839 -1.33108,-5.37401 0.1562,-2.91979 1.18503,-5.14416 3.0865,-6.67311 1.90144,-1.52897 4.5913,-2.25277 8.06958,-2.17139 z"
         style="font-size:70px"
         id="path19866"
         inkscape:connector-curvature="0" />
    </g>
  </g>
</svg>
