<?xml version="1.0" encoding="UTF-8" standalone="no"?>
<!-- Created with Inkscape (http://www.inkscape.org/) -->

<svg
   xmlns:dc="http://purl.org/dc/elements/1.1/"
   xmlns:cc="http://creativecommons.org/ns#"
   xmlns:rdf="http://www.w3.org/1999/02/22-rdf-syntax-ns#"
   xmlns:svg="http://www.w3.org/2000/svg"
   xmlns="http://www.w3.org/2000/svg"
   xmlns:sodipodi="http://sodipodi.sourceforge.net/DTD/sodipodi-0.dtd"
   xmlns:inkscape="http://www.inkscape.org/namespaces/inkscape"
   width="640"
   height="263.1525"
   id="svg2"
   version="1.1"
   inkscape:version="0.48.5 r10040"
   sodipodi:docname="National Dairy Authority (NDA).svg">
  <title
     id="title3962">National Dairy Authority (NDA)</title>
  <defs
     id="defs4" />
  <sodipodi:namedview
     id="base"
     pagecolor="#ffffff"
     bordercolor="#666666"
     borderopacity="1.0"
     inkscape:pageopacity="0.0"
     inkscape:pageshadow="2"
     inkscape:zoom="1.3324543"
     inkscape:cx="204.04856"
     inkscape:cy="131.57625"
     inkscape:document-units="px"
     inkscape:current-layer="layer1"
     showgrid="false"
     inkscape:snap-bbox="true"
     inkscape:bbox-paths="true"
     inkscape:bbox-nodes="true"
     inkscape:snap-bbox-edge-midpoints="true"
     inkscape:snap-bbox-midpoints="true"
     inkscape:object-paths="true"
     inkscape:snap-intersection-paths="true"
     inkscape:object-nodes="true"
     inkscape:snap-smooth-nodes="false"
     inkscape:snap-midpoints="true"
     inkscape:snap-global="true"
     fit-margin-top="0"
     fit-margin-left="0"
     fit-margin-right="0"
     fit-margin-bottom="0"
     inkscape:window-width="1366"
     inkscape:window-height="705"
     inkscape:window-x="-8"
     inkscape:window-y="-8"
     inkscape:window-maximized="1" />
  <metadata
     id="metadata7">
    <rdf:RDF>
      <cc:Work
         rdf:about="">
        <dc:format>image/svg+xml</dc:format>
        <dc:type
           rdf:resource="http://purl.org/dc/dcmitype/StillImage" />
        <dc:title>National Dairy Authority (NDA)</dc:title>
      </cc:Work>
    </rdf:RDF>
  </metadata>
  <g
     inkscape:label="Layer 1"
     inkscape:groupmode="layer"
     id="layer1"
     transform="translate(-38.641509,-129.63969)">
    <path
       style="fill:#000000;stroke:none"
       d="m 135.17702,143.69914 80.2453,6e-5 39.88471,63.15275 0,-63.15184 78.34613,0 0,170.4625 -78.34613,0.94919 -39.88471,-69.3243 0,68.37465 -80.2453,1.42447 z"
       id="path3787-7"
       inkscape:connector-curvature="0"
       sodipodi:nodetypes="ccccccccccc" />
    <path
       style="fill:#000000;stroke:none"
       d="m 351.12834,314.91159 -0.94965,-170.46153 c 0,0 64.00546,0.24179 89.2669,0 0,0 81.52728,14.28861 79.77041,89.26715 -1.75352,74.83589 -76.92148,81.19535 -76.92148,81.19535 -26.94711,1.5181 -91.16618,-9.7e-4 -91.16618,-9.7e-4 z"
       id="path3789-4"
       inkscape:connector-curvature="0"
       sodipodi:nodetypes="ccsssc" />
    <path
       style="fill:#000000;fill-opacity:1;stroke:none"
       d="m 528.23766,145.12549 1.42447,170.46153 59.35288,0 0,-32.28752 22.79126,0 0,32.28752 53.21061,0 0,-120.60477 -53.68504,-49.85676 z"
       id="path3791-0"
       inkscape:connector-curvature="0"
       sodipodi:nodetypes="cccccccccc" />
    <path
       style="fill:#006c35;fill-opacity:1;stroke:none"
       d="m 364.75249,300.10219 -0.94965,-170.46153 c 0,0 64.00546,0.24179 89.2669,0 0,0 81.52728,14.28861 79.77042,89.26716 -1.75353,74.83588 -76.92148,81.19534 -76.92148,81.19534 -26.94712,1.51811 -91.16619,-9.7e-4 -91.16619,-9.7e-4 z"
       id="path3789"
       inkscape:connector-curvature="0"
       sodipodi:nodetypes="ccsssc" />
    <path
       style="fill:#000000;stroke:none"
       d="m 400.24554,167.98295 c 12.85522,-1.60698 26.5252,4.57449 34.66218,4.74824 10.14155,0.67388 14.33516,-14.33237 22.07932,-11.39577 21.63708,8.20482 8.90615,12.15483 15.01208,15.46901 11.26398,-1.18008 20.14419,1.06713 21.9932,3.90028 1.63495,2.50515 -4.15398,5.75098 -6.71406,7.36805 -1.6856,1.06471 -5.24166,0.9882 -15.16043,-2.5849 0,0 4.07654,17.30573 0.0635,27.84077 -1.57565,4.13645 8.316,4.71215 7.83459,8.54683 -0.76555,6.09802 -8.83468,10.51749 -15.43177,10.09001 -6.52384,-0.42273 -9.30876,-4.54933 -9.22926,-8.79912 0.1358,-7.25881 -8.51731,-9.56645 -9.49361,-1.72728 -2.03415,16.33291 -12.11531,33.20323 -20.3314,44.71367 l -25.28438,0 z"
       id="path2996"
       inkscape:connector-curvature="0"
       sodipodi:nodetypes="ccscsscsasssccc" />
    <path
       style="fill:#006c35;fill-opacity:1;stroke:none"
       d="m 541.86181,129.64066 1.42447,170.46153 59.35288,0 0,-32.28751 22.79127,0 0,32.28751 53.21108,0 -4.8e-4,-120.60476 -53.68503,-49.85677 z"
       id="path3791"
       inkscape:connector-curvature="0"
       sodipodi:nodetypes="cccccccccc" />
    <path
       style="fill:#000000;stroke:none"
       d="m 597.33742,172.3926 c -1.83831,0.005 -3.5461,0.005 -4.83536,0.0304 -2.38064,0.0474 -6.8469,2.00839 -7.02495,4.22714 -0.31226,3.89103 8.03435,2.48452 7.66358,6.17344 -0.36456,3.6272 -0.78387,9.22905 -4.31837,9.91401 -3.19975,0.62008 -3.70526,-6.92476 -6.96413,-6.8729 -1.3952,0.0222 -2.90559,1.64584 -2.88905,3.0411 0.0315,2.65925 4.64026,3.15606 5.62605,5.62605 0.60081,1.50541 1.03937,3.73471 -0.12165,4.86577 -0.74663,0.72736 -3.12694,-1.04235 -3.13234,0 -0.0782,15.1113 -0.69205,24.31168 1.27727,47.25879 0.53522,6.23664 18.6849,8.0206 26.91379,7.87646 8.22888,0.14414 26.34815,-1.63982 26.88337,-7.87646 1.96932,-22.94711 1.35551,-32.14749 1.27727,-47.25879 -0.006,-1.04235 -2.38571,0.72736 -3.13234,0 -1.16102,-1.13106 -0.72246,-3.36036 -0.12165,-4.86577 0.98579,-2.46999 5.62493,-2.9668 5.65646,-5.62605 0.0165,-1.39526 -1.49385,-3.01891 -2.88905,-3.0411 -3.25887,-0.0519 -3.79479,7.49298 -6.99454,6.8729 -3.5345,-0.68496 -3.95381,-6.28681 -4.31837,-9.91401 -0.37077,-3.68892 7.97584,-2.28241 7.66358,-6.17344 -0.17805,-2.21875 -4.6139,-4.17975 -6.99454,-4.22714 -5.15701,-0.10265 -17.03019,0 -17.03019,0 0,0 -6.67993,-0.0449 -12.19484,-0.0304 z"
       id="path3766"
       inkscape:connector-curvature="0" />
    <path
       style="fill:#006c35;fill-opacity:1;stroke:none"
       d="m 150.13234,129.63969 80.24529,7e-5 39.88471,63.15274 0,-63.15184 78.34613,0 0,170.4625 -78.34613,0.94919 -39.88471,-69.32429 0,68.37465 -80.24529,1.42446 z"
       id="path3787"
       inkscape:connector-curvature="0"
       sodipodi:nodetypes="ccccccccccc" />
    <path
       style="fill:#006c35;fill-opacity:1;stroke:none"
       d="m 678.64151,320.51993 0,21.84244 -536.74985,0 -5.39287,-22.09425 z"
       id="path3914"
       inkscape:connector-curvature="0"
       sodipodi:nodetypes="ccccc" />
    <path
       style="fill:#006c35;fill-opacity:1;stroke:none"
       d="m 678.64151,348.63338 0,19.8173 -530.6008,0 -4.74714,-19.8173 z"
       id="path3914-9"
       inkscape:connector-curvature="0"
       sodipodi:nodetypes="ccccc" />
    <path
       style="fill:#006c35;fill-opacity:1;stroke:none"
       d="m 678.64103,372.97487 4.8e-4,19.81731 -524.74307,0 -4.80868,-19.81731 z"
       id="path3914-9-4"
       inkscape:connector-curvature="0"
       sodipodi:nodetypes="ccccc" />
    <path
       style="fill:#006c35;fill-opacity:1;stroke:none"
       d="m 38.641509,240.93944 17.58245,-6.00589 24.943782,102.24401 -22.71691,-17.33659 z"
       id="path3956"
       inkscape:connector-curvature="0" />
    <path
       style="fill:#006c35;fill-opacity:1;stroke:none"
       d="M 63.058975,232.59882 89.275142,343.36479 113.38238,361.76242 79.288414,227.0551 z"
       id="path3958"
       inkscape:connector-curvature="0" />
    <path
       style="fill:#006c35;fill-opacity:1;stroke:none"
       d="M 88.077778,224.05279 121.8192,368.20105 147.76065,387.99847 106.46326,217.7726 z"
       id="path3960"
       inkscape:connector-curvature="0" />
  </g>
</svg>
