<?xml version="1.0" encoding="UTF-8" standalone="no"?>
<!-- Created with Inkscape (http://www.inkscape.org/) -->

<svg
   xmlns:dc="http://purl.org/dc/elements/1.1/"
   xmlns:cc="http://creativecommons.org/ns#"
   xmlns:rdf="http://www.w3.org/1999/02/22-rdf-syntax-ns#"
   xmlns:svg="http://www.w3.org/2000/svg"
   xmlns="http://www.w3.org/2000/svg"
   xmlns:sodipodi="http://sodipodi.sourceforge.net/DTD/sodipodi-0.dtd"
   xmlns:inkscape="http://www.inkscape.org/namespaces/inkscape"
   width="476.8912"
   height="640"
   id="svg2"
   version="1.1"
   inkscape:version="0.48.5 r10040"
   sodipodi:docname="National Book Development Board (NBDB).svg">
  <title
     id="title3956">National Book Development Board (NBDB)</title>
  <defs
     id="defs4" />
  <sodipodi:namedview
     id="base"
     pagecolor="#ffffff"
     bordercolor="#666666"
     borderopacity="1.0"
     inkscape:pageopacity="0.0"
     inkscape:pageshadow="2"
     inkscape:zoom="1.1269514"
     inkscape:cx="306.99336"
     inkscape:cy="320"
     inkscape:document-units="px"
     inkscape:current-layer="layer1"
     showgrid="false"
     inkscape:object-paths="true"
     inkscape:snap-intersection-paths="true"
     inkscape:object-nodes="true"
     inkscape:snap-smooth-nodes="true"
     inkscape:snap-object-midpoints="true"
     inkscape:snap-center="true"
     inkscape:snap-bbox="true"
     inkscape:bbox-paths="true"
     inkscape:bbox-nodes="true"
     inkscape:snap-bbox-midpoints="true"
     fit-margin-top="0"
     fit-margin-left="0"
     fit-margin-right="0"
     fit-margin-bottom="0"
     inkscape:window-width="1366"
     inkscape:window-height="705"
     inkscape:window-x="-8"
     inkscape:window-y="-8"
     inkscape:window-maximized="1"
     inkscape:snap-global="false" />
  <metadata
     id="metadata7">
    <rdf:RDF>
      <cc:Work
         rdf:about="">
        <dc:format>image/svg+xml</dc:format>
        <dc:type
           rdf:resource="http://purl.org/dc/dcmitype/StillImage" />
        <dc:title>National Book Development Board (NBDB)</dc:title>
      </cc:Work>
    </rdf:RDF>
  </metadata>
  <g
     inkscape:label="Layer 1"
     inkscape:groupmode="layer"
     id="layer1"
     transform="translate(173.6875,-573.19099)">
    <path
       sodipodi:type="star"
       style="color:#000000;fill:#fcd116;fill-opacity:1;fill-rule:nonzero;stroke:none;stroke-width:0.463;marker:none;visibility:visible;display:inline;overflow:visible;enable-background:accumulate"
       id="path3954"
       sodipodi:sides="5"
       sodipodi:cx="219.81721"
       sodipodi:cy="-234.9131"
       sodipodi:r1="170.21445"
       sodipodi:r2="64.681488"
       sodipodi:arg1="0.49396813"
       sodipodi:arg2="1.1222867"
       inkscape:flatsided="false"
       inkscape:rounded="0"
       inkscape:randomized="0"
       d="m 369.68396,-154.21045 -121.81936,-22.41853 -58.4888,109.18611 -16.32296,-122.7848 -121.916193,-21.88579 111.731213,-53.46665 -16.85956,-122.71227 85.37665,89.74059 111.49642,-53.95456 -58.96554,108.92939 z"
       inkscape:transform-center-x="3.0792982"
       inkscape:transform-center-y="4.0677665"
       transform="matrix(0.43396849,-0.01938134,0.01938134,0.43396849,-62.855999,744.52748)" />
    <path
       sodipodi:type="star"
       style="color:#000000;fill:#fcd116;fill-opacity:1;stroke:none;stroke-width:0.463;marker:none;visibility:visible;display:inline;overflow:visible;enable-background:accumulate"
       id="path3835"
       sodipodi:sides="5"
       sodipodi:cx="421.56525"
       sodipodi:cy="312.6713"
       sodipodi:r1="130.8652"
       sodipodi:r2="49.728775"
       sodipodi:arg1="-1.8736812"
       sodipodi:arg2="-1.2453627"
       inkscape:flatsided="false"
       inkscape:rounded="0"
       inkscape:randomized="0"
       d="m 382.53143,187.76308 54.93308,77.7896 90.8334,-28.60351 -57.00705,76.28277 55.27262,77.54872 -90.16538,-30.64425 -56.67304,76.53126 1.28178,-95.22197 -90.29848,-30.2498 90.95756,-28.20616 z"
       inkscape:transform-center-x="2.5127452"
       inkscape:transform-center-y="2.9829181"
       transform="matrix(0.42723392,-0.0785841,0.0785841,0.42723392,-112.15669,667.28855)" />
    <path
       sodipodi:type="star"
       style="color:#000000;fill:#fcd116;fill-opacity:1;stroke:none;stroke-width:0.463;marker:none;visibility:visible;display:inline;overflow:visible;enable-background:accumulate"
       id="path3837"
       sodipodi:sides="5"
       sodipodi:cx="232.25122"
       sodipodi:cy="460.99982"
       sodipodi:r1="97.44783"
       sodipodi:r2="37.030174"
       sodipodi:arg1="-2.1421338"
       sodipodi:arg2="-1.5138153"
       inkscape:flatsided="false"
       inkscape:rounded="0"
       inkscape:randomized="0"
       d="m 179.55557,379.0288 54.80453,45.00094 59.56634,-38.47691 -25.86291,66.02827 55.00073,44.76094 -70.78869,-4.19324 -25.57403,66.14069 -17.8869,-68.61982 -70.80634,-3.88375 59.73397,-38.21614 z"
       inkscape:transform-center-x="1.6414203"
       inkscape:transform-center-y="2.4492584"
       transform="matrix(0.43337245,0.02987646,-0.02987646,0.43337245,-76.595174,638.17186)" />
    <path
       style="fill:#848482;fill-opacity:1;stroke:none"
       d="m -29.878569,901.93614 c -35.208459,0.11423 -67.383788,34.12206 -98.033921,37.92004 -22.82187,2.08234 -45.77501,-10.6021 -45.77501,-10.6021 l 0,36.02813 c 0,0 30.49754,6.62711 45.77501,5.09064 37.659395,-3.78743 57.943739,-39.93662 100.999196,-38.31506 34.1109665,1.28469 66.028018,43.82653 66.028018,43.82653 l 22.887506,0 22.887506,0 c 0,0 30.142354,-43.42919 64.253324,-44.71388 43.05545,-1.62156 65.11449,35.41498 102.77389,39.20241 15.27747,1.53647 45.77501,-5.09064 45.77501,-5.09064 l 0,-36.02813 c 0,0 -22.95314,12.68444 -45.77501,10.6021 -32.95121,-3.00658 -57.76448,-34.89336 -107.03726,-36.88337 -40.00623,-1.61576 -83.321135,46.95549 -83.321135,46.95549 0,0 -44.394955,-48.14478 -91.437124,-47.99216 z"
       id="path3839"
       inkscape:connector-curvature="0"
       sodipodi:nodetypes="scccsscccssccsscs" />
    <rect
       style="color:#000000;fill:#0038a8;fill-opacity:1;fill-rule:nonzero;stroke:none;stroke-width:0.463;marker:none;visibility:visible;display:inline;overflow:visible;enable-background:accumulate"
       id="rect3860"
       width="476.89117"
       height="21.618338"
       x="-173.6875"
       y="989.62225" />
    <g
       style="font-size:376.79309082px;font-style:normal;font-variant:normal;font-weight:bold;font-stretch:normal;text-align:center;line-height:125%;letter-spacing:3.76793075px;word-spacing:0px;writing-mode:lr-tb;text-anchor:middle;fill:#848482;fill-opacity:1;stroke:none;font-family:Montserrat;-inkscape-font-specification:Montserrat Bold"
       id="text3862"
       transform="matrix(0.43440107,0,0,0.43440107,-98.237464,686.17953)">
      <path
         d="m -173.68749,786.29698 0,264.12852 64.43079,0 0,-158.25102 119.818658,158.25102 60.286119,0 0,-264.12852 -64.0540011,0 0,159.00464 L -113.02458,786.29698 z"
         id="path3889"
         inkscape:connector-curvature="0" />
      <path
         d="m 251.3924,786.29698 -125.47049,0 0,264.12852 130.36874,0 c 31.43808,-0.2355 56.16478,-6.8292 74.18018,-19.7814 18.01493,-12.952 27.19914,-30.84944 27.55264,-53.69227 -0.1651,-17.19087 -5.01625,-31.69721 -14.55345,-43.51905 -9.53768,-11.8216 -22.77236,-19.54575 -39.70406,-23.17247 14.09794,-3.96398 25.18179,-11.01306 33.25156,-21.14725 8.0693,-10.13386 12.18257,-22.17537 12.33982,-36.12456 -0.33779,-20.58183 -9.1766,-36.78371 -26.51647,-48.60568 -17.34032,-11.82148 -41.15645,-17.85009 -71.44847,-18.08584 z m -3.76788,105.12392 -52.75036,0 0,-51.2432 52.75036,0 c 9.69429,-0.11753 17.24574,2.0019 22.65439,6.3583 5.4083,4.35682 8.15571,10.52672 8.24224,18.50972 -0.0865,8.35232 -2.83393,14.82051 -8.24224,19.40459 -5.40864,4.58442 -12.9601,6.90795 -22.65439,6.97059 z m 0,105.50071 -52.75036,0 0,-55.38787 52.75036,0 c 12.18266,-0.0862 21.72795,2.25298 28.6359,7.01768 6.9076,4.7649 10.42429,11.34299 10.55007,19.73428 -0.12578,9.10579 -3.64247,16.13917 -10.55007,21.10014 -6.90795,4.9611 -16.45324,7.47302 -28.6359,7.53577 z"
         id="path3891"
         inkscape:connector-curvature="0" />
      <path
         d="m 513.56398,786.29698 -113.79005,0 0,264.12852 111.15254,0 c 43.38541,-0.5887 77.94,-12.7872 103.66386,-36.5955 25.72338,-23.80828 38.89525,-55.69395 39.51567,-95.65714 -0.62826,-39.78238 -13.59605,-71.55815 -38.90339,-95.32742 -25.30783,-23.76881 -59.18734,-35.95162 -101.63863,-36.54846 z m 1.88394,208.3639 -46.72174,0 0,-152.22245 43.33065,0 c 21.28052,0.33774 38.44006,7.38682 51.47869,21.14724 13.03824,13.7608 19.74192,32.2077 20.11108,55.34077 -0.3456,22.93709 -6.7196,41.2113 -19.12201,54.82268 -12.40279,13.61154 -28.76166,20.58212 -49.07667,20.91176 z"
         id="path3893"
         inkscape:connector-curvature="0" />
      <path
         d="m 817.49454,786.29698 -125.47048,0 0,264.12852 130.36873,0 c 31.43808,-0.2355 56.16478,-6.8292 74.18018,-19.7814 18.01494,-12.952 27.19914,-30.84944 27.55264,-53.69227 -0.1651,-17.19087 -5.01625,-31.69721 -14.55345,-43.51905 -9.53768,-11.8216 -22.77236,-19.54575 -39.70405,-23.17247 14.09794,-3.96398 25.18178,-11.01306 33.25155,-21.14725 8.0693,-10.13386 12.18257,-22.17537 12.33982,-36.12456 -0.33778,-20.58183 -9.1766,-36.78371 -26.51647,-48.60568 -17.34032,-11.82148 -41.15645,-17.85009 -71.44847,-18.08584 z m -3.76788,105.12392 -52.75036,0 0,-51.2432 52.75036,0 c 9.69429,-0.11753 17.24575,2.0019 22.65439,6.3583 5.4083,4.35682 8.15571,10.52672 8.24224,18.50972 -0.0865,8.35232 -2.83393,14.82051 -8.24224,19.40459 -5.40864,4.58442 -12.9601,6.90795 -22.65439,6.97059 z m 0,105.50071 -52.75036,0 0,-55.38787 52.75036,0 c 12.18266,-0.0862 21.72795,2.25298 28.6359,7.01768 6.90761,4.7649 10.42429,11.34299 10.55008,19.73428 -0.12579,9.10579 -3.64247,16.13917 -10.55008,21.10014 -6.90795,4.9611 -16.45324,7.47302 -28.6359,7.53577 z"
         id="path3895"
         inkscape:connector-curvature="0" />
    </g>
    <rect
       style="color:#000000;fill:#ce1126;fill-opacity:1;fill-rule:nonzero;stroke:none;stroke-width:0.463;marker:none;visibility:visible;display:inline;overflow:visible;enable-background:accumulate"
       id="rect3860-4"
       width="476.89117"
       height="21.618338"
       x="-173.6875"
       y="1156.4323" />
    <g
       transform="matrix(0.43392345,0,0,0.43487921,-98.237464,686.17953)"
       style="font-size:51.61592484px;font-style:normal;font-variant:normal;font-weight:bold;font-stretch:normal;text-align:center;line-height:125%;letter-spacing:0.5161593px;word-spacing:0px;writing-mode:lr-tb;text-anchor:middle;fill:#848482;fill-opacity:1;stroke:none;font-family:Montserrat;-inkscape-font-specification:Montserrat Bold"
       id="text3884">
      <path
         d="m -173.87864,1175.2619 0,36.1823 8.82621,0 0,-21.6784 16.41365,21.6784 8.25844,0 0,-36.1823 -8.77459,0 0,21.7817 -16.41366,-21.7817 z"
         id="path3898"
         inkscape:connector-curvature="0" />
      <path
         d="m -106.25406,1211.4442 10.064976,0 -15.174886,-36.1823 -9.70367,0 -15.53619,36.1823 9.70367,0 2.52914,-6.4003 15.63943,0 z m -15.27812,-13.6264 5.0583,-12.9038 4.95506,12.9038 z"
         id="path3900"
         inkscape:connector-curvature="0" />
      <path
         d="m -95.546599,1175.2619 0,7.7939 10.735974,0 0,28.3884 9.445593,0 0,-28.3884 10.839204,0 0,-7.7939 z"
         id="path3902"
         inkscape:connector-curvature="0" />
      <path
         d="m -60.226826,1175.2619 0,36.1823 9.445592,0 0,-36.1823 z"
         id="path3904"
         inkscape:connector-curvature="0" />
      <path
         d="m -26.038759,1175.0038 c -5.71533,0.1055 -10.375754,1.8432 -13.981284,5.2132 -3.605544,3.3701 -5.465842,7.7401 -5.5809,13.1103 0.115058,5.4013 1.975356,9.8122 5.580901,13.2328 3.605531,3.4206 8.265954,5.1863 13.981283,5.297 5.715287,-0.1107 10.375711,-1.8764 13.981283,-5.297 3.6055032,-3.4206 5.4658015,-7.8315 5.5809005,-13.2328 -0.1151001,-5.3476 -1.9753986,-9.7112 -5.5809015,-13.091 -3.605572,-3.3797 -8.265995,-5.1238 -13.981282,-5.2325 z m 0.10323,8.052 c 2.777523,0.062 5.080852,1.0474 6.909993,2.955 1.829086,1.9076 2.777515,4.3637 2.845292,7.3681 -0.06778,3.0087 -1.016206,5.482 -2.845293,7.4197 -1.829142,1.9377 -4.13247,2.9399 -6.909992,3.0066 -2.763585,-0.067 -5.094872,-1.0689 -6.993868,-3.0066 -1.899024,-1.9377 -2.888315,-4.411 -2.967877,-7.4197 0.07634,-3.0044 1.059177,-5.4605 2.948522,-7.3681 1.889318,-1.9076 4.227057,-2.8926 7.013223,-2.955 z"
         id="path3906"
         inkscape:connector-curvature="0" />
      <path
         d="m -1.2274138,1175.2619 0,36.1823 8.8262095,0 0,-21.6784 16.4136523,21.6784 8.258442,0 0,-36.1823 -8.774594,0 0,21.7817 -16.4136529,-21.7817 z"
         id="path3908"
         inkscape:connector-curvature="0" />
      <path
         d="m 66.39717,1211.4442 10.064976,0 -15.174887,-36.1823 -9.703669,0 -15.536193,36.1823 9.703669,0 2.529147,-6.4003 15.639424,0 z m -15.278117,-13.6264 5.058295,-12.9038 4.955065,12.9038 z"
         id="path3910"
         inkscape:connector-curvature="0" />
      <path
         d="m 80.253162,1175.2619 0,36.1823 24.775328,0 0,-8.052 -15.329736,0 0,-28.1303 z"
         id="path3912"
         inkscape:connector-curvature="0" />
      <path
         d="m 143.03244,1175.2619 -17.18788,0 0,36.1823 17.85888,0 c 4.30662,-0.032 7.69387,-0.9355 10.16176,-2.7098 2.46782,-1.7743 3.72594,-4.226 3.77436,-7.3552 -0.0226,-2.3549 -0.68716,-4.3421 -1.99364,-5.9615 -1.30654,-1.6194 -3.11953,-2.6775 -5.43896,-3.1744 1.93125,-0.543 3.44959,-1.5086 4.55505,-2.8969 1.10539,-1.3882 1.66886,-3.0377 1.6904,-4.9486 -0.0463,-2.8194 -1.25708,-5.0389 -3.63242,-6.6584 -2.37541,-1.6193 -5.63792,-2.4452 -9.78755,-2.4775 z m -0.51615,14.4007 -7.22614,0 0,-7.0197 7.22614,0 c 1.328,-0.016 2.36245,0.2742 3.10337,0.871 0.74087,0.5968 1.11723,1.442 1.12908,2.5356 -0.0119,1.1442 -0.38821,2.0302 -1.12908,2.6582 -0.74092,0.628 -1.77537,0.9463 -3.10337,0.9549 z m 0,14.4522 -7.22614,0 0,-7.5874 7.22614,0 c 1.66887,-0.012 2.97646,0.3086 3.92276,0.9613 0.94626,0.6528 1.428,1.5539 1.44523,2.7034 -0.0172,1.2474 -0.49897,2.2109 -1.44523,2.8904 -0.9463,0.6796 -2.25389,1.0238 -3.92276,1.0323 z"
         id="path3914"
         inkscape:connector-curvature="0" />
      <path
         d="m 180.59834,1175.0038 c -5.71533,0.1055 -10.37575,1.8432 -13.98128,5.2132 -3.60555,3.3701 -5.46585,7.7401 -5.5809,13.1103 0.11505,5.4013 1.97535,9.8122 5.5809,13.2328 3.60553,3.4206 8.26595,5.1863 13.98128,5.297 5.71529,-0.1107 10.37571,-1.8764 13.98128,-5.297 3.60551,-3.4206 5.46581,-7.8315 5.5809,-13.2328 -0.1151,-5.3476 -1.97539,-9.7112 -5.5809,-13.091 -3.60557,-3.3797 -8.26599,-5.1238 -13.98128,-5.2325 z m 0.10323,8.052 c 2.77752,0.062 5.08085,1.0474 6.90999,2.955 1.82909,1.9076 2.77752,4.3637 2.8453,7.3681 -0.0678,3.0087 -1.01621,5.482 -2.8453,7.4197 -1.82914,1.9377 -4.13247,2.9399 -6.90999,3.0066 -2.76358,-0.067 -5.09487,-1.0689 -6.99387,-3.0066 -1.89902,-1.9377 -2.88831,-4.411 -2.96787,-7.4197 0.0763,-3.0044 1.05917,-5.4605 2.94852,-7.3681 1.88932,-1.9076 4.22706,-2.8926 7.01322,-2.955 z"
         id="path3916"
         inkscape:connector-curvature="0" />
      <path
         d="m 222.64918,1175.0038 c -5.71533,0.1055 -10.37575,1.8432 -13.98128,5.2132 -3.60554,3.3701 -5.46584,7.7401 -5.5809,13.1103 0.11506,5.4013 1.97536,9.8122 5.5809,13.2328 3.60553,3.4206 8.26595,5.1863 13.98128,5.297 5.71529,-0.1107 10.37571,-1.8764 13.98129,-5.297 3.6055,-3.4206 5.4658,-7.8315 5.5809,-13.2328 -0.1151,-5.3476 -1.9754,-9.7112 -5.5809,-13.091 -3.60558,-3.3797 -8.266,-5.1238 -13.98129,-5.2325 z m 0.10323,8.052 c 2.77753,0.062 5.08086,1.0474 6.91,2.955 1.82908,1.9076 2.77751,4.3637 2.84529,7.3681 -0.0678,3.0087 -1.01621,5.482 -2.84529,7.4197 -1.82915,1.9377 -4.13247,2.9399 -6.91,3.0066 -2.76358,-0.067 -5.09487,-1.0689 -6.99386,-3.0066 -1.89903,-1.9377 -2.88832,-4.411 -2.96788,-7.4197 0.0763,-3.0044 1.05918,-5.4605 2.94852,-7.3681 1.88932,-1.9076 4.22706,-2.8926 7.01322,-2.955 z"
         id="path3918"
         inkscape:connector-curvature="0" />
      <path
         d="m 282.24921,1211.4442 -14.24581,-21.2139 13.41997,-14.9684 -10.94244,0 -13.57481,15.1749 0,-15.1749 -9.44559,0 0,36.1823 9.44559,0 0,-8.8262 4.64537,-5.1615 9.39398,13.9877 z"
         id="path3920"
         inkscape:connector-curvature="0" />
      <path
         d="m 318.21692,1175.2619 -15.58781,0 0,36.1823 15.2265,0 c 5.94326,-0.081 10.6768,-1.7517 14.20065,-5.0131 3.52378,-3.2615 5.32816,-7.6294 5.41315,-13.1038 -0.0861,-5.4497 -1.86249,-9.8026 -5.32928,-13.0587 -3.46685,-3.256 -8.10792,-4.9249 -13.92321,-5.0067 z m 0.25807,28.5433 -6.40029,0 0,-20.8526 5.93576,0 c 2.91516,0.046 5.2658,1.0119 7.05193,2.8969 1.78607,1.8851 2.7044,4.412 2.75496,7.581 -0.0473,3.1421 -0.9205,5.6454 -2.61947,7.51 -1.69903,1.8646 -3.93999,2.8195 -6.72289,2.8647 z"
         id="path3922"
         inkscape:connector-curvature="0" />
      <path
         d="m 342.66371,1175.2619 0,36.1823 29.0594,0 0,-7.5358 -19.6138,0 0,-6.8132 17.23949,-0.052 0,-7.4843 -17.23949,0 0,-6.7616 19.09764,0 0,-7.5358 z"
         id="path3924"
         inkscape:connector-curvature="0" />
      <path
         d="m 374.44786,1175.2619 14.03935,36.1823 9.8069,0 14.14258,-36.1823 -9.70366,0 -9.08429,26.169 -9.03267,-26.169 z"
         id="path3926"
         inkscape:connector-curvature="0" />
      <path
         d="m 416.38173,1175.2619 0,36.1823 29.05939,0 0,-7.5358 -19.6138,0 0,-6.8132 17.2395,-0.052 0,-7.4843 -17.2395,0 0,-6.7616 19.09765,0 0,-7.5358 z"
         id="path3928"
         inkscape:connector-curvature="0" />
      <path
         d="m 451.77895,1175.2619 0,36.1823 24.77532,0 0,-8.052 -15.32973,0 0,-28.1303 z"
         id="path3930"
         inkscape:connector-curvature="0" />
      <path
         d="m 498.56856,1175.0038 c -5.71533,0.1055 -10.37576,1.8432 -13.98129,5.2132 -3.60554,3.3701 -5.46584,7.7401 -5.5809,13.1103 0.11506,5.4013 1.97536,9.8122 5.5809,13.2328 3.60553,3.4206 8.26596,5.1863 13.98129,5.297 5.71528,-0.1107 10.37571,-1.8764 13.98128,-5.297 3.6055,-3.4206 5.4658,-7.8315 5.5809,-13.2328 -0.1151,-5.3476 -1.9754,-9.7112 -5.5809,-13.091 -3.60557,-3.3797 -8.266,-5.1238 -13.98128,-5.2325 z m 0.10323,8.052 c 2.77752,0.062 5.08085,1.0474 6.90999,2.955 1.82908,1.9076 2.77751,4.3637 2.84529,7.3681 -0.0678,3.0087 -1.01621,5.482 -2.84529,7.4197 -1.82914,1.9377 -4.13247,2.9399 -6.90999,3.0066 -2.76359,-0.067 -5.09488,-1.0689 -6.99387,-3.0066 -1.89903,-1.9377 -2.88832,-4.411 -2.96788,-7.4197 0.0763,-3.0044 1.05918,-5.4605 2.94852,-7.3681 1.88932,-1.9076 4.22706,-2.8926 7.01323,-2.955 z"
         id="path3932"
         inkscape:connector-curvature="0" />
      <path
         d="m 539.2774,1175.2619 -15.8975,0 0,36.1823 9.44559,0 0,-10.0133 6.45191,0 c 4.64858,-0.029 8.22938,-1.2098 10.74243,-3.5421 2.51298,-2.3324 3.78401,-5.6422 3.81307,-9.9295 -0.0291,-4.0518 -1.30009,-7.1745 -3.81307,-9.3682 -2.51305,-2.1936 -6.09385,-3.3033 -10.74243,-3.3292 z m -0.46454,18.6331 -5.98737,0 0,-11.0973 5.98737,0 c 1.92265,0.01 3.40659,0.4721 4.45182,1.4001 1.04518,0.928 1.57424,2.2851 1.58717,4.0712 -0.0129,1.8377 -0.54199,3.2335 -1.58717,4.1872 -1.04523,0.9539 -2.52917,1.4335 -4.45182,1.4388 z"
         id="path3934"
         inkscape:connector-curvature="0" />
      <path
         d="m 558.97878,1175.2619 0,36.1823 8.41329,0 0,-22.9172 8.41328,19.3041 6.19383,0 8.41329,-19.3041 0.0516,22.9172 8.36167,0 0,-36.1823 -10.32305,0 -9.60044,21.1107 -9.60044,-21.1107 z"
         id="path3936"
         inkscape:connector-curvature="0" />
      <path
         d="m 606.3727,1175.2619 0,36.1823 29.05939,0 0,-7.5358 -19.6138,0 0,-6.8132 17.2395,-0.052 0,-7.4843 -17.2395,0 0,-6.7616 19.09765,0 0,-7.5358 z"
         id="path3938"
         inkscape:connector-curvature="0" />
      <path
         d="m 641.76992,1175.2619 0,36.1823 8.82621,0 0,-21.6784 16.41365,21.6784 8.25844,0 0,-36.1823 -8.77459,0 0,21.7817 -16.41366,-21.7817 z"
         id="path3940"
         inkscape:connector-curvature="0" />
      <path
         d="m 679.66411,1175.2619 0,7.7939 10.73597,0 0,28.3884 9.4456,0 0,-28.3884 10.8392,0 0,-7.7939 z"
         id="path3942"
         inkscape:connector-curvature="0" />
      <path
         d="m 748.21305,1175.2619 -17.18789,0 0,36.1823 17.85888,0 c 4.30663,-0.032 7.69388,-0.9355 10.16176,-2.7098 2.46782,-1.7743 3.72594,-4.226 3.77437,-7.3552 -0.0226,-2.3549 -0.68717,-4.3421 -1.99364,-5.9615 -1.30655,-1.6194 -3.11953,-2.6775 -5.43896,-3.1744 1.93124,-0.543 3.44959,-1.5086 4.55504,-2.8969 1.1054,-1.3882 1.66886,-3.0377 1.6904,-4.9486 -0.0463,-2.8194 -1.25708,-5.0389 -3.63242,-6.6584 -2.37541,-1.6193 -5.63792,-2.4452 -9.78754,-2.4775 z m -0.51616,14.4007 -7.22613,0 0,-7.0197 7.22613,0 c 1.328,-0.016 2.36246,0.2742 3.10337,0.871 0.74087,0.5968 1.11723,1.442 1.12909,2.5356 -0.0119,1.1442 -0.38822,2.0302 -1.12909,2.6582 -0.74091,0.628 -1.77537,0.9463 -3.10337,0.9549 z m 0,14.4522 -7.22613,0 0,-7.5874 7.22613,0 c 1.66888,-0.012 2.97646,0.3086 3.92276,0.9613 0.94626,0.6528 1.428,1.5539 1.44523,2.7034 -0.0172,1.2474 -0.49897,2.2109 -1.44523,2.8904 -0.9463,0.6796 -2.25388,1.0238 -3.92276,1.0323 z"
         id="path3944"
         inkscape:connector-curvature="0" />
      <path
         d="m 785.77894,1175.0038 c -5.71533,0.1055 -10.37575,1.8432 -13.98128,5.2132 -3.60554,3.3701 -5.46584,7.7401 -5.5809,13.1103 0.11506,5.4013 1.97536,9.8122 5.5809,13.2328 3.60553,3.4206 8.26595,5.1863 13.98128,5.297 5.71529,-0.1107 10.37571,-1.8764 13.98129,-5.297 3.6055,-3.4206 5.4658,-7.8315 5.5809,-13.2328 -0.1151,-5.3476 -1.9754,-9.7112 -5.5809,-13.091 -3.60558,-3.3797 -8.266,-5.1238 -13.98129,-5.2325 z m 0.10323,8.052 c 2.77753,0.062 5.08086,1.0474 6.91,2.955 1.82908,1.9076 2.77751,4.3637 2.84529,7.3681 -0.0678,3.0087 -1.01621,5.482 -2.84529,7.4197 -1.82915,1.9377 -4.13247,2.9399 -6.91,3.0066 -2.76358,-0.067 -5.09487,-1.0689 -6.99386,-3.0066 -1.89903,-1.9377 -2.88832,-4.411 -2.96788,-7.4197 0.0763,-3.0044 1.05918,-5.4605 2.94852,-7.3681 1.88932,-1.9076 4.22706,-2.8926 7.01322,-2.955 z"
         id="path3946"
         inkscape:connector-curvature="0" />
      <path
         d="m 837.17215,1211.4442 10.06497,0 -15.17488,-36.1823 -9.70367,0 -15.53619,36.1823 9.70366,0 2.52915,-6.4003 15.63943,0 z m -15.27812,-13.6264 5.0583,-12.9038 4.95506,12.9038 z"
         id="path3948"
         inkscape:connector-curvature="0" />
      <path
         d="m 883.44248,1211.4442 -7.53583,-11.8199 c 2.09791,-1.0925 3.69584,-2.6237 4.79377,-4.5937 1.09786,-1.97 1.65058,-4.3271 1.65814,-7.0713 -0.028,-4.0518 -1.33988,-7.1745 -3.93567,-9.3682 -2.59584,-2.1936 -6.30784,-3.3033 -11.13599,-3.3292 l -16.25881,0 0,36.1823 9.4456,0 0,-10.0133 6.81321,0 0.20646,0 5.26476,10.0133 z m -22.96879,-28.6465 6.86483,0 c 1.92264,0.01 3.40658,0.4721 4.45181,1.4001 1.04519,0.928 1.57424,2.2851 1.58717,4.0712 -0.0129,1.8377 -0.54198,3.2335 -1.58717,4.1872 -1.04523,0.9539 -2.52917,1.4335 -4.45181,1.4388 l -6.86483,0 z"
         id="path3950"
         inkscape:connector-curvature="0" />
      <path
         d="m 904.53351,1175.2619 -15.58781,0 0,36.1823 15.2265,0 c 5.94326,-0.081 10.6768,-1.7517 14.20065,-5.0131 3.52378,-3.2615 5.32816,-7.6294 5.41315,-13.1038 -0.0861,-5.4497 -1.86249,-9.8026 -5.32928,-13.0587 -3.46685,-3.256 -8.10792,-4.9249 -13.92321,-5.0067 z m 0.25807,28.5433 -6.40029,0 0,-20.8526 5.93575,0 c 2.91517,0.046 5.26581,1.0119 7.05194,2.8969 1.78607,1.8851 2.70439,4.412 2.75496,7.581 -0.0473,3.1421 -0.9205,5.6454 -2.61947,7.51 -1.69903,1.8646 -3.93999,2.8195 -6.72289,2.8647 z"
         id="path3952"
         inkscape:connector-curvature="0" />
    </g>
  </g>
</svg>
