<?xml version="1.0" encoding="UTF-8" standalone="no"?>
<!-- Created with Inkscape (http://www.inkscape.org/) -->

<svg
   xmlns:dc="http://purl.org/dc/elements/1.1/"
   xmlns:cc="http://creativecommons.org/ns#"
   xmlns:rdf="http://www.w3.org/1999/02/22-rdf-syntax-ns#"
   xmlns:svg="http://www.w3.org/2000/svg"
   xmlns="http://www.w3.org/2000/svg"
   xmlns:sodipodi="http://sodipodi.sourceforge.net/DTD/sodipodi-0.dtd"
   xmlns:inkscape="http://www.inkscape.org/namespaces/inkscape"
   width="707.40601"
   height="489.99997"
   id="svg4481"
   version="1.1"
   inkscape:version="0.48.5 r10040"
   sodipodi:docname="New document 7">
  <defs
     id="defs4483" />
  <sodipodi:namedview
     id="base"
     pagecolor="#ffffff"
     bordercolor="#666666"
     borderopacity="1.0"
     inkscape:pageopacity="0.0"
     inkscape:pageshadow="2"
     inkscape:zoom="0.49497475"
     inkscape:cx="302.95567"
     inkscape:cy="260.33653"
     inkscape:document-units="px"
     inkscape:current-layer="layer1"
     showgrid="false"
     inkscape:object-paths="true"
     inkscape:snap-intersection-paths="true"
     inkscape:object-nodes="true"
     inkscape:snap-smooth-nodes="true"
     fit-margin-top="0"
     fit-margin-left="0"
     fit-margin-right="0"
     fit-margin-bottom="0"
     inkscape:window-width="1366"
     inkscape:window-height="705"
     inkscape:window-x="-8"
     inkscape:window-y="-8"
     inkscape:window-maximized="1" />
  <metadata
     id="metadata4486">
    <rdf:RDF>
      <cc:Work
         rdf:about="">
        <dc:format>image/svg+xml</dc:format>
        <dc:type
           rdf:resource="http://purl.org/dc/dcmitype/StillImage" />
        <dc:title></dc:title>
      </cc:Work>
    </rdf:RDF>
  </metadata>
  <g
     inkscape:label="Layer 1"
     inkscape:groupmode="layer"
     id="layer1"
     transform="translate(-36.874998,-19.343749)">
    <g
       id="g8362"
       transform="matrix(1.0196384,0,0,1.0196384,-0.72416764,-10.002719)">
      <path
         id="path4500-0-4"
         d="m 485.71875,28.78125 c -133.72937,0 -242.41644,107.15469 -244.9375,240.28125 l -65.4375,0 c 2.12036,94.80756 79.6208,171 174.9375,171 79.52216,0 146.64085,-53.05351 167.9375,-125.6875 -21.2161,87.67432 -100.18049,152.8125 -194.375,152.8125 -109.82932,0 -198.95914,-88.5342 -199.96875,-198.125 l -87,0 c 2.52106,133.12656 111.20813,240.28125 244.9375,240.28125 133.72937,0 242.41644,-107.15469 244.9375,-240.28125 l 65.4375,0 c -2.12036,-94.80756 -79.6208,-171 -174.9375,-171 -79.52216,0 -146.64085,53.05351 -167.9375,125.6875 21.2161,-87.67432 100.18049,-152.8125 194.375,-152.8125 109.82932,0 198.95914,88.5342 199.96875,198.125 l 87,0 C 728.13519,135.93594 619.44812,28.78125 485.71875,28.78125 z m -102.5,100.09375 c 77.65207,0 140.59375,62.68013 140.59375,140 0,0.0625 8e-5,0.12503 0,0.1875 -0.11426,12.42909 -1.34196,24.58623 -3.625,36.375 -16.02382,59.78046 -70.78987,103.8125 -135.875,103.8125 -77.65207,0 -140.59375,-62.68013 -140.59375,-140 0,-0.0625 -8e-5,-0.12503 0,-0.1875 0.11426,-12.42909 1.34196,-24.58623 3.625,-36.375 16.02382,-59.78046 70.78987,-103.8125 135.875,-103.8125 z"
         style="fill:#0038a8;fill-opacity:1;stroke:none"
         inkscape:connector-curvature="0" />
    </g>
  </g>
</svg>
