<?xml version="1.0" encoding="UTF-8" standalone="no"?>
<!-- Created with Inkscape (http://www.inkscape.org/) -->

<svg
   version="1.1"
   id="svg2"
   xml:space="preserve"
   width="248"
   height="403"
   viewBox="0 0 508.76266 827.36871"
   sodipodi:docname="c750262a42049c7d1740b5a1de0f2612.ai"
   xmlns:inkscape="http://www.inkscape.org/namespaces/inkscape"
   xmlns:sodipodi="http://sodipodi.sourceforge.net/DTD/sodipodi-0.dtd"
   xmlns="http://www.w3.org/2000/svg"
   xmlns:svg="http://www.w3.org/2000/svg"><defs
     id="defs6"><clipPath
       clipPathUnits="userSpaceOnUse"
       id="clipPath16"><path
         d="M 0,792 H 612 V 0 H 0 Z"
         id="path14" /></clipPath><linearGradient
       x1="0"
       y1="0"
       x2="1"
       y2="0"
       gradientUnits="userSpaceOnUse"
       gradientTransform="matrix(-1.53e-5,-396.96515,-396.96515,1.53e-5,333.68848,736.25635)"
       spreadMethod="pad"
       id="linearGradient36"><stop
         style="stop-opacity:1;stop-color:#fff200"
         offset="0"
         id="stop30" /><stop
         style="stop-opacity:1;stop-color:#fff200"
         offset="0.05658597"
         id="stop32" /><stop
         style="stop-opacity:1;stop-color:#f47216"
         offset="1"
         id="stop34" /></linearGradient></defs><sodipodi:namedview
     id="namedview4"
     pagecolor="#ffffff"
     bordercolor="#666666"
     borderopacity="1.0"
     inkscape:pageshadow="2"
     inkscape:pageopacity="0.0"
     inkscape:pagecheckerboard="0" /><g
     id="g8"
     inkscape:groupmode="layer"
     inkscape:label="c750262a42049c7d1740b5a1de0f2612"
     transform="matrix(1.3333333,0,0,-1.3333333,-149.86666,969.98603)"><g
       id="g10"><g
         id="g12"
         clip-path="url(#clipPath16)"><g
           id="g18"><g
             id="g20"><g
               id="g26"><g
                 id="g28"><path
                   d="m 278.2,690.3 c 0,0 25.645,29.397 74.8,36.2 56,7.75 109.166,-31 125.5,-82 16.334,-51 13.272,-96.831 -21.334,-138.333 C 408.25,447.5 344.5,440.75 324.5,391.5 c -5.637,-13.881 -4.6,-43.067 2.7,-50.2 0,0 -82.434,30.866 -39.9,104.2 12.533,20 57.1,47.7 57.1,47.7 l -0.025,0.3 -17.175,15.8 c 0,0 -105.7,-44.3 -89.7,-100.466 C 250.209,375.883 287.6,355 287.6,355 c 0,0 -43.1,-6 -86.6,43 -43.5,49 -10,97.5 1.5,107.5 11.5,10 23.5,23.5 60,39.5 36.5,16 78,42.833 51,92 -14.657,26.691 -49.5,42.8 -54.5,43.4 -5,0.6 77.5,9.6 115,-54.4 5.5,-9.5 11.5,-34.2 -1.5,-64.6 l 24.3,-21.9 c 0,0 51.7,47 -0.3,122.5 -35,46.5 -99.1,40.1 -118.3,28.3"
                   style="fill:url(#linearGradient36);stroke:none"
                   id="path38" /></g></g></g></g><path
           d="M 478.5,307.5 H 127.167 L 112.4,338.9 h 378.766 z"
           style="fill:#fff200;fill-opacity:1;fill-rule:nonzero;stroke:none"
           id="path40" /><path
           d="M 445.167,268.974 H 160.833 l -11.75,31.052 h 308.102 z"
           style="fill:#f89c35;fill-opacity:1;fill-rule:nonzero;stroke:none"
           id="path42" /><path
           d="M 415.124,228.834 H 190.156 L 177.7,258.5 h 248.8 z"
           style="fill:#f47216;fill-opacity:1;fill-rule:nonzero;stroke:none"
           id="path44" /><path
           d="m 132.029,189.77 v -31.426 c 0,-13.035 0.153,-22.701 0.457,-28.998 0.305,-6.297 0.805,-9.883 1.502,-10.758 0.391,-0.527 1.85,-1.209 4.377,-2.043 2.526,-0.834 3.789,-1.889 3.789,-3.162 0,-1.582 -1.06,-2.735 -3.177,-3.459 -2.118,-0.723 -5.579,-1.086 -10.379,-1.086 -4.848,0 -8.362,0.363 -10.545,1.086 -2.184,0.724 -3.274,1.877 -3.274,3.459 0,1.273 1.282,2.326 3.846,3.162 2.563,0.834 4.021,1.492 4.373,1.976 0.699,0.875 1.193,4.067 1.479,9.579 0.285,5.509 0.427,15.591 0.427,30.244 0,14.519 -0.142,24.513 -0.427,29.98 -0.286,5.467 -0.78,8.639 -1.479,9.514 -0.352,0.48 -1.81,1.135 -4.373,1.965 -2.564,0.828 -3.846,1.853 -3.846,3.076 0,1.527 0.942,2.674 2.826,3.437 1.883,0.764 4.622,1.147 8.215,1.147 2.803,0 4.95,-0.328 6.44,-0.984 1.49,-0.657 2.935,-1.946 4.338,-3.87 0.789,-1.005 2.343,-3.082 4.666,-6.23 17.437,-23.613 35.4,-46.613 53.89,-69 v 30.767 c 0,15.657 -0.142,25.967 -0.427,30.932 -0.286,4.965 -0.78,7.885 -1.479,8.76 -0.352,0.48 -1.81,1.135 -4.373,1.965 -2.564,0.828 -3.846,1.853 -3.846,3.076 0,1.615 1.08,2.783 3.242,3.504 2.161,0.719 5.643,1.08 10.446,1.08 4.846,0 8.338,-0.361 10.478,-1.082 2.139,-0.723 3.209,-1.893 3.209,-3.51 0,-0.568 -0.273,-1.094 -0.816,-1.574 -0.545,-0.481 -1.383,-0.94 -2.516,-1.377 -0.304,-0.088 -0.74,-0.219 -1.306,-0.393 -2.395,-0.744 -3.745,-1.683 -4.049,-2.82 -0.481,-1.707 -0.84,-8.004 -1.078,-18.891 -0.241,-10.886 -0.36,-25.906 -0.36,-45.058 v -18.781 c 0,-2.623 -0.22,-4.219 -0.658,-4.788 -0.437,-0.566 -1.205,-0.851 -2.299,-0.851 -1.49,0 -2.783,0.328 -3.877,0.984 -1.095,0.657 -2.695,2.252 -4.797,4.789 -4.425,5.381 -12.105,15.104 -23.035,29.168 -10.929,14.063 -22.791,29.561 -35.584,46.491"
           style="fill:#f47216;fill-opacity:1;fill-rule:nonzero;stroke:none"
           id="path46" /><path
           d="m 267.765,106.963 c -5.252,0 -10.23,0.723 -14.933,2.164 -4.706,1.443 -9.004,3.543 -12.899,6.299 -6.697,4.853 -11.797,11.019 -15.297,18.5 -3.5,7.478 -5.25,16.008 -5.25,25.586 0,5.683 0.809,11.15 2.428,16.398 1.617,5.248 3.936,9.949 6.953,14.106 4.375,5.904 9.744,10.496 16.108,13.777 6.363,3.279 13.132,4.92 20.304,4.92 4.461,0 9.098,-0.641 13.91,-1.922 4.811,-1.281 7.391,-1.922 7.741,-1.922 0.918,0 2.087,0.182 3.509,0.547 1.422,0.363 2.352,0.547 2.789,0.547 1.924,0 3.532,-1.639 4.823,-4.914 1.289,-3.276 1.935,-7.424 1.935,-12.445 0,-1.836 -0.318,-3.256 -0.951,-4.26 -0.633,-1.004 -1.539,-1.506 -2.719,-1.506 -1.705,0 -3.213,1.6 -4.523,4.801 -0.875,2.148 -1.684,3.748 -2.426,4.8 -2.141,2.981 -5.232,5.272 -9.275,6.874 -4.043,1.599 -8.729,2.4 -14.059,2.4 -10.355,0 -18.494,-3.389 -24.416,-10.164 -5.922,-6.778 -8.881,-16.11 -8.881,-28 0,-6.035 0.709,-11.817 2.129,-17.346 1.42,-5.531 3.442,-10.394 6.065,-14.59 3.496,-5.597 7.603,-9.75 12.322,-12.461 4.719,-2.711 10.181,-4.064 16.387,-4.064 4.63,0 8.847,0.764 12.65,2.291 3.801,1.527 6.883,3.668 9.242,6.418 0.832,1.004 1.82,2.379 2.963,4.125 1.578,2.443 2.918,3.666 4.016,3.666 1.009,0 1.8,-0.471 2.371,-1.412 0.57,-0.942 0.855,-2.223 0.855,-3.844 0,-3.197 -0.713,-6.121 -2.135,-8.769 -1.421,-2.651 -2.898,-3.975 -4.429,-3.975 -0.133,0 -0.352,0.045 -0.656,0.137 -0.307,0.089 -0.526,0.136 -0.657,0.136 -0.613,0 -1.511,-0.33 -2.691,-0.986 -0.57,-0.262 -1.029,-0.48 -1.379,-0.656 -3.502,-1.797 -7.004,-3.119 -10.504,-3.975 -3.5,-0.853 -7.307,-1.281 -11.42,-1.281"
           style="fill:#f47216;fill-opacity:1;fill-rule:nonzero;stroke:none"
           id="path48" /><path
           d="m 357.687,106.963 c -5.252,0 -10.231,0.723 -14.934,2.164 -4.705,1.443 -9.004,3.543 -12.899,6.299 -6.697,4.853 -11.796,11.019 -15.296,18.5 -3.5,7.478 -5.25,16.008 -5.25,25.586 0,5.683 0.808,11.15 2.427,16.398 1.618,5.248 3.936,9.949 6.953,14.106 4.375,5.904 9.745,10.496 16.108,13.777 6.363,3.279 13.133,4.92 20.305,4.92 4.461,0 9.097,-0.641 13.91,-1.922 4.81,-1.281 7.39,-1.922 7.74,-1.922 0.918,0 2.088,0.182 3.51,0.547 1.422,0.363 2.351,0.547 2.789,0.547 1.924,0 3.531,-1.639 4.822,-4.914 1.289,-3.276 1.936,-7.424 1.936,-12.445 0,-1.836 -0.319,-3.256 -0.952,-4.26 -0.632,-1.004 -1.539,-1.506 -2.718,-1.506 -1.705,0 -3.213,1.6 -4.524,4.801 -0.875,2.148 -1.683,3.748 -2.426,4.8 -2.14,2.981 -5.232,5.272 -9.275,6.874 -4.043,1.599 -8.728,2.4 -14.059,2.4 -10.355,0 -18.494,-3.389 -24.416,-10.164 -5.921,-6.778 -8.88,-16.11 -8.88,-28 0,-6.035 0.709,-11.817 2.129,-17.346 1.419,-5.531 3.441,-10.394 6.064,-14.59 3.496,-5.597 7.603,-9.75 12.322,-12.461 4.719,-2.711 10.182,-4.064 16.387,-4.064 4.631,0 8.848,0.764 12.65,2.291 3.801,1.527 6.883,3.668 9.243,6.418 0.832,1.004 1.82,2.379 2.962,4.125 1.579,2.443 2.918,3.666 4.016,3.666 1.01,0 1.801,-0.471 2.371,-1.412 0.57,-0.942 0.856,-2.223 0.856,-3.844 0,-3.197 -0.713,-6.121 -2.135,-8.769 -1.422,-2.651 -2.899,-3.975 -4.43,-3.975 -0.133,0 -0.351,0.045 -0.656,0.137 -0.307,0.089 -0.525,0.136 -0.656,0.136 -0.614,0 -1.512,-0.33 -2.692,-0.986 -0.57,-0.262 -1.029,-0.48 -1.379,-0.656 -3.502,-1.797 -7.004,-3.119 -10.504,-3.975 -3.5,-0.853 -7.306,-1.281 -11.419,-1.281"
           style="fill:#f47216;fill-opacity:1;fill-rule:nonzero;stroke:none"
           id="path50" /><path
           d="m 426.091,149.703 c 1.75,0.086 3.709,0.152 5.875,0.195 2.166,0.043 5.568,0.065 10.209,0.065 4.945,0 8.742,-0.024 11.39,-0.067 2.649,-0.042 5.131,-0.13 7.452,-0.259 -3.371,8.875 -6.567,16.834 -9.586,23.873 -3.02,7.039 -5.471,12.351 -7.352,15.937 h -0.92 c -1.664,-3.105 -3.885,-7.881 -6.664,-14.33 -2.779,-6.449 -6.248,-14.922 -10.404,-25.414 m 17.068,-7.365 h -7.023 c -5.035,0 -8.371,-0.133 -10.012,-0.395 -1.641,-0.261 -2.682,-0.722 -3.119,-1.379 -0.307,-0.394 -0.668,-1.029 -1.084,-1.904 -0.416,-0.875 -1.106,-2.56 -2.067,-5.056 -0.175,-0.483 -0.439,-1.161 -0.787,-2.036 -1.97,-4.861 -2.955,-7.992 -2.955,-9.392 0,-1.184 0.307,-2.147 0.922,-2.891 0.613,-0.744 1.602,-1.357 2.965,-1.838 0.482,-0.176 1.119,-0.394 1.91,-0.656 2.899,-1.008 4.348,-2.146 4.348,-3.416 0,-1.621 -1.215,-2.803 -3.643,-3.547 -2.427,-0.742 -6.418,-1.115 -11.972,-1.115 -5.512,0 -9.461,0.361 -11.844,1.084 -2.385,0.723 -3.576,1.916 -3.576,3.58 0,1.312 1.443,2.408 4.33,3.285 1.355,0.395 2.363,0.744 3.019,1.051 2.143,1.353 4.811,5.896 8.004,13.627 l 0.328,0.853 c 2.973,7.215 6.977,16.834 12.008,28.858 10.76,25.84 16.445,40.138 17.059,42.892 0.043,0.262 0.131,0.678 0.263,1.246 0.438,2.098 1.86,3.149 4.266,3.149 1.441,0 2.578,-0.318 3.41,-0.951 0.832,-0.635 1.86,-2.285 3.084,-4.951 4.986,-11.02 12.029,-28.137 21.129,-51.354 4.285,-10.932 7.524,-19.131 9.711,-24.596 0.174,-0.394 0.371,-0.875 0.59,-1.443 1.662,-4.109 3.369,-6.647 5.119,-7.607 0.48,-0.262 1.332,-0.59 2.559,-0.985 2.58,-0.832 3.871,-1.902 3.871,-3.213 0,-1.531 -1.379,-2.668 -4.137,-3.41 -2.758,-0.742 -7.068,-1.115 -12.932,-1.115 -5.91,0 -10.232,0.373 -12.966,1.117 -2.735,0.746 -4.102,1.887 -4.102,3.422 0,1.316 1.553,2.521 4.66,3.619 0.656,0.219 1.203,0.416 1.641,0.592 1.269,0.219 2.209,0.699 2.822,1.443 0.613,0.744 0.92,1.75 0.92,3.02 0,1.398 -0.549,3.838 -1.643,7.316 -1.093,3.479 -2.515,6.947 -4.265,10.404 -0.571,1.006 -1.707,1.706 -3.414,2.1 -1.707,0.395 -5.055,0.592 -10.043,0.592 z"
           style="fill:#f47216;fill-opacity:1;fill-rule:nonzero;stroke:none"
           id="path52" /></g></g></g></svg>
