<?xml version="1.0" encoding="UTF-8" standalone="no"?>
<!-- Created with Inkscape (http://www.inkscape.org/) -->

<svg
   xmlns:dc="http://purl.org/dc/elements/1.1/"
   xmlns:cc="http://creativecommons.org/ns#"
   xmlns:rdf="http://www.w3.org/1999/02/22-rdf-syntax-ns#"
   xmlns:svg="http://www.w3.org/2000/svg"
   xmlns="http://www.w3.org/2000/svg"
   xmlns:sodipodi="http://sodipodi.sourceforge.net/DTD/sodipodi-0.dtd"
   xmlns:inkscape="http://www.inkscape.org/namespaces/inkscape"
   width="210"
   height="320"
   id="svg2"
   version="1.1"
   inkscape:version="0.48.5 r10040"
   sodipodi:docname="New document 1">
  <title
     id="title4592">Overseas Filipino Bank (OFBank)</title>
  <defs
     id="defs4" />
  <sodipodi:namedview
     id="base"
     pagecolor="#ffffff"
     bordercolor="#666666"
     borderopacity="1.0"
     inkscape:pageopacity="0.0"
     inkscape:pageshadow="2"
     inkscape:zoom="0.80937499"
     inkscape:cx="103.33333"
     inkscape:cy="146.13024"
     inkscape:document-units="px"
     inkscape:current-layer="layer1"
     showgrid="false"
     inkscape:snap-object-midpoints="true"
     inkscape:snap-center="true"
     inkscape:object-paths="true"
     inkscape:snap-intersection-paths="true"
     inkscape:object-nodes="false"
     inkscape:snap-smooth-nodes="true"
     inkscape:snap-global="false"
     fit-margin-top="0"
     fit-margin-left="0"
     fit-margin-right="0"
     fit-margin-bottom="0"
     inkscape:window-width="1366"
     inkscape:window-height="705"
     inkscape:window-x="-8"
     inkscape:window-y="-8"
     inkscape:window-maximized="1" />
  <metadata
     id="metadata7">
    <rdf:RDF>
      <cc:Work
         rdf:about="">
        <dc:format>image/svg+xml</dc:format>
        <dc:type
           rdf:resource="http://purl.org/dc/dcmitype/StillImage" />
        <dc:title>Overseas Filipino Bank (OFBank)</dc:title>
        <dc:creator>
          <cc:Agent>
            <dc:title>Overseas Filipino Bank (OFBank)</dc:title>
          </cc:Agent>
        </dc:creator>
        <dc:publisher>
          <cc:Agent>
            <dc:title>Overseas Filipino Bank (OFBank)</dc:title>
          </cc:Agent>
        </dc:publisher>
        <dc:source>Overseas Filipino Bank (OFBank)</dc:source>
        <dc:description>Overseas Filipino Bank (OFBank), a subsidiary of the Land Bank of the Philippines</dc:description>
      </cc:Work>
    </rdf:RDF>
  </metadata>
  <g
     inkscape:label="Layer 1"
     inkscape:groupmode="layer"
     id="layer1"
     transform="translate(25,-819.89111)">
    <g
       id="g4562">
      <rect
         y="819.89111"
         x="-25"
         height="320"
         width="210"
         id="rect4181"
         style="color:#000000;fill:#0038a8;fill-opacity:1;fill-rule:nonzero;stroke:none;stroke-width:1.5;marker:none;visibility:visible;display:inline;overflow:visible;enable-background:accumulate" />
      <g
         transform="matrix(0.26800566,0,0,0.26694475,-19.140632,837.64477)"
         id="g4245">
        <path
           style="color:#000000;fill:#fcd116;fill-opacity:1;stroke:none;stroke-width:1.54533422;marker:none;visibility:visible;display:inline;overflow:visible;enable-background:accumulate"
           d="m 457.28351,32.65625 0,87.53126 119.875,0 0,167.46875 -119.875,0 0,88.46874 119.875,0 0,167.43751 -260.6562,0 0,87.5312 303.9062,0 c 24.5385,0 44.2813,-19.7427 44.2813,-44.2812 l 0,-210.68751 0,-88.46874 0,-210.71876 c 0,-24.53848 -19.7428,-44.28125 -44.2813,-44.28125 l -163.125,0 z"
           id="rect3000-4-2"
           inkscape:connector-curvature="0" />
        <path
           inkscape:connector-curvature="0"
           style="color:#000000;fill:#ce1126;fill-opacity:1;stroke:none;stroke-width:1.53558898;marker:none;visibility:visible;display:inline;overflow:visible;enable-background:accumulate"
           d="m 230.28125,32.65625 0,87.53125 0,0.9375 0,166.53125 0,88.46875 0,254.96875 87.6875,0 0,-254.96875 140.78125,0 0,-88.46875 -140.78125,0 0,-166.53125 140.78125,0 0,-88.46875 -228.46875,0 z"
           id="rect3772" />
        <path
           style="color:#000000;fill:#ffffff;stroke:none;stroke-width:1.54533422;marker:none;visibility:visible;display:inline;overflow:visible;enable-background:accumulate"
           d="m 112,33.59375 c -24.5385,0 -44.3125,19.74277 -44.3125,44.28125 l 0,509.87505 c 0,24.5384 19.774,44.2812 44.3125,44.2812 l 118.28125,0 0,-87.5312 -75.0625,0 0,-423.37505 75.0625,0 0,-87.53125 -118.28125,0 z"
           id="rect3000"
           inkscape:connector-curvature="0" />
      </g>
      <g
         transform="matrix(0.26357277,0,0,0.26666667,-17.132229,837.73227)"
         id="text4186"
         style="font-size:156.68078613px;font-style:normal;font-variant:normal;font-weight:normal;font-stretch:normal;text-align:start;line-height:0%;letter-spacing:5.44369507px;word-spacing:0px;writing-mode:lr-tb;text-anchor:start;fill:#ffffff;fill-opacity:1;stroke:none;font-family:Trajan Pro;-inkscape-font-specification:Trajan Pro">
        <path
           id="path4430"
           style="font-weight:bold;line-height:0%;letter-spacing:0px;fill:#ffffff;font-family:Agenda;-inkscape-font-specification:Agenda Bold"
           d="m 172.63831,719.87482 c -0.15196,-10.70632 -2.75553,-19.95036 -7.81073,-27.73214 -5.05541,-7.78163 -11.65138,-13.78764 -19.78795,-18.01806 -8.13673,-4.23023 -16.903,-6.3715 -26.29882,-6.42383 -9.34468,0.0523 -18.07419,2.1936 -26.188565,6.42383 -8.11444,4.23042 -14.696876,10.23643 -19.747329,18.01806 -5.050479,7.78178 -7.652116,17.02582 -7.80492,27.73214 0.152804,10.80894 2.754442,20.12648 7.804923,27.95265 5.050454,7.82621 11.632889,13.85931 19.747326,18.0993 8.114375,4.24 16.843885,6.38514 26.188565,6.43544 9.39582,-0.0503 18.16209,-2.19544 26.29882,-6.43544 8.13656,-4.23999 14.73254,-10.27308 19.78795,-18.0993 5.0552,-7.82617 7.65877,-17.14371 7.81073,-27.95265 z m -24.59857,0 c -0.2808,9.51828 -3.28381,17.03885 -9.00903,22.56174 -5.72538,5.52295 -12.48867,8.34316 -20.2899,8.46065 -7.79482,-0.11748 -14.532,-2.9377 -20.211557,-8.46065 -5.67964,-5.52289 -8.656533,-13.04347 -8.93069,-22.56174 0.27416,-9.4431 3.251053,-16.91798 8.93069,-22.42465 5.679557,-5.50653 12.416737,-8.32021 20.211557,-8.44107 7.80123,0.12086 14.56453,2.93454 20.2899,8.44107 5.72522,5.50667 8.72823,12.98155 9.00903,22.42465 z"
           inkscape:connector-curvature="0" />
        <path
           id="path4432"
           style="font-weight:bold;line-height:0%;letter-spacing:0px;fill:#ffffff;font-family:Agenda;-inkscape-font-specification:Agenda Bold"
           d="m 252.51663,699.03654 -21.30831,0 -10.02744,26.94875 c -0.63981,1.98137 -1.31875,4.12918 -2.03682,6.44341 -0.71816,2.31431 -1.3971,4.65797 -2.03683,7.03096 l -0.31336,0 c -0.56147,-2.37299 -1.20124,-4.71665 -1.91932,-7.03096 -0.71814,-2.31423 -1.43625,-4.46204 -2.15432,-6.44341 l -9.87077,-26.94875 -22.24838,0 27.2621,71.6022 17.23467,0 z"
           inkscape:connector-curvature="0" />
        <path
           id="path4434"
           style="font-weight:bold;line-height:0%;letter-spacing:0px;fill:#ffffff;font-family:Agenda;-inkscape-font-specification:Agenda Bold"
           d="m 328.08086,725.04522 c -0.0915,-7.54991 -2.92475,-14.07166 -8.49983,-19.56527 -5.57521,-5.49348 -13.34386,-8.37244 -23.30596,-8.63691 -10.24618,0.11432 -18.89614,3.45027 -25.94993,10.00786 -7.05382,6.55771 -10.72924,15.6516 -11.02626,27.28169 0.28071,11.73134 4.30213,20.97538 12.06426,27.73214 7.7621,6.75677 17.58063,10.2037 29.45561,10.3408 4.69052,-0.0228 8.78375,-0.40802 12.2797,-1.15551 3.49583,-0.74749 6.45314,-1.7202 8.87193,-2.91814 l 2.03683,-18.95813 c -3.0194,1.80509 -6.18562,3.1695 -9.49866,4.09323 -3.31316,0.92377 -6.98857,1.38727 -11.02626,1.39052 -6.24435,-0.16971 -11.06874,-1.63205 -14.4732,-4.387 -3.40453,-2.75491 -5.52622,-5.78403 -6.36508,-9.08737 l 35.4094,0 9.24405,-9.08737 c 0.23821,-1.03796 0.42753,-2.17388 0.56796,-3.40776 0.14028,-1.2338 0.21209,-2.44806 0.21544,-3.64278 z m -20.99496,-0.15668 c 0.0261,0.60065 -0.0262,1.12291 -0.15668,1.56679 l -25.0686,0 c 0.85517,-3.66233 2.5917,-6.60005 5.20957,-8.81319 2.6178,-2.21303 5.68609,-3.34895 9.20488,-3.40776 3.32937,0.0915 5.95374,1.16209 7.8731,3.21191 1.91927,2.04993 2.89851,4.53068 2.93773,7.44225 z"
           inkscape:connector-curvature="0" />
        <path
           id="path4436"
           style="font-weight:bold;line-height:0%;letter-spacing:0px;fill:#ffffff;font-family:Agenda;-inkscape-font-specification:Agenda Bold"
           d="m 389.04456,717.68132 -1.72347,-19.89821 c -5.8298,-0.0424 -10.85658,0.90424 -15.08033,2.83981 -4.22384,1.9357 -7.44881,5.11497 -9.67491,9.53781 l -0.62672,-11.12419 -21.15163,0 0,70.97548 22.8751,0 0,-28.0455 c 0.2154,-8.48346 2.60475,-14.66574 7.16806,-18.54685 4.56322,-3.88101 10.0078,-5.7938 16.33375,-5.73835 0.53853,5e-5 0.94982,5e-5 1.23385,0 0.28393,5e-5 0.49936,5e-5 0.6463,0 z"
           inkscape:connector-curvature="0" />
        <path
           id="path4438"
           style="font-weight:bold;line-height:0%;letter-spacing:0px;fill:#ffffff;font-family:Agenda;-inkscape-font-specification:Agenda Bold"
           d="m 448.88194,749.48711 c -0.0196,-5.79709 -1.82145,-10.6933 -5.40542,-14.68864 -3.58408,-3.99527 -8.83281,-7.08967 -15.74622,-9.28322 -3.09444,-0.97919 -5.28794,-1.95844 -6.58051,-2.93772 -1.29262,-0.9792 -1.91934,-2.19346 -1.88014,-3.64278 0.0196,-1.51125 0.6071,-2.71898 1.76264,-3.6232 1.15547,-0.90411 2.76143,-1.36762 4.81787,-1.39053 3.46974,0.0458 6.59679,0.54191 9.38114,1.48845 2.78427,0.94665 5.08875,2.06952 6.91345,3.3686 l 1.72347,-17.39135 c -1.70067,-1.08036 -4.25323,-2.09224 -7.65768,-3.03565 -3.40454,-0.94327 -7.32803,-1.44594 -11.77049,-1.50803 -7.8764,0.11105 -14.17619,2.2001 -18.89938,6.26715 -4.72322,4.06718 -7.14521,9.44648 -7.26598,16.13791 0.062,5.56215 1.93563,10.30167 5.62086,14.2186 3.6852,3.91701 8.80989,7.01141 15.3741,9.28322 2.73858,0.96947 4.78193,1.9683 6.13005,2.99648 1.34806,1.02823 2.02047,2.37958 2.01724,4.05406 -0.0196,1.51785 -0.6855,2.75169 -1.99765,3.70154 -1.31222,0.94988 -3.15319,1.4395 -5.52293,1.46886 -4.53391,-0.0424 -8.90133,-0.85845 -13.10226,-2.4481 -4.20096,-1.58962 -7.82415,-3.69826 -10.86959,-6.32591 l 2.03683,20.05488 c 2.4024,1.61902 5.58819,3.00301 9.5574,4.15199 3.96918,1.14897 8.4084,1.74958 13.3177,1.80181 9.5998,-0.1828 16.68297,-2.44158 21.24955,-6.77636 4.56648,-4.33477 6.83179,-9.64879 6.79595,-15.94206 z"
           inkscape:connector-curvature="0" />
        <path
           id="path4440"
           style="font-weight:bold;line-height:0%;letter-spacing:0px;fill:#ffffff;font-family:Agenda;-inkscape-font-specification:Agenda Bold"
           d="m 526.68599,725.04522 c -0.0915,-7.54991 -2.92474,-14.07166 -8.49983,-19.56527 -5.57521,-5.49348 -13.34386,-8.37244 -23.30596,-8.63691 -10.24617,0.11432 -18.89614,3.45027 -25.94993,10.00786 -7.05381,6.55771 -10.72923,15.6516 -11.02626,27.28169 0.28071,11.73134 4.30213,20.97538 12.06426,27.73214 7.76211,6.75677 17.58063,10.2037 29.45561,10.3408 4.69052,-0.0228 8.78375,-0.40802 12.2797,-1.15551 3.49583,-0.74749 6.45314,-1.7202 8.87194,-2.91814 l 2.03682,-18.95813 c -3.0194,1.80509 -6.18561,3.1695 -9.49865,4.09323 -3.31316,0.92377 -6.98858,1.38727 -11.02627,1.39052 -6.24434,-0.16971 -11.06874,-1.63205 -14.4732,-4.387 -3.40453,-2.75491 -5.52622,-5.78403 -6.36507,-9.08737 l 35.4094,0 9.24404,-9.08737 c 0.23821,-1.03796 0.42753,-2.17388 0.56796,-3.40776 0.14028,-1.2338 0.2121,-2.44806 0.21544,-3.64278 z m -20.99496,-0.15668 c 0.0261,0.60065 -0.0262,1.12291 -0.15668,1.56679 l -25.0686,0 c 0.85518,-3.66233 2.5917,-6.60005 5.20957,-8.81319 2.6178,-2.21303 5.68609,-3.34895 9.20488,-3.40776 3.32938,0.0915 5.95374,1.16209 7.8731,3.21191 1.91927,2.04993 2.89851,4.53068 2.93773,7.44225 z"
           inkscape:connector-curvature="0" />
        <path
           id="path4442"
           style="font-weight:bold;line-height:0%;letter-spacing:0px;fill:#ffffff;font-family:Agenda;-inkscape-font-specification:Agenda Bold"
           d="m 604.25767,756.22429 c -2.53304,-0.38842 -4.51764,-1.45253 -5.95379,-3.19233 -1.43629,-1.73977 -2.16746,-4.17482 -2.1935,-7.30515 l 0,-20.36824 c -0.10452,-9.20808 -2.99002,-16.25209 -8.65651,-21.13205 -5.6666,-4.87982 -13.48747,-7.34098 -23.46264,-7.38348 -4.49801,0.0229 -8.89807,0.48643 -13.20019,1.39052 -4.30215,0.90424 -7.84048,2.11197 -10.61498,3.6232 l 1.72346,17.54802 c 2.34691,-1.36762 5.3695,-2.51007 9.06779,-3.42735 3.69824,-0.91717 7.62174,-1.39373 11.77049,-1.42969 3.95937,0.0327 6.81222,0.71164 8.55857,2.03682 1.74628,1.3253 2.60148,3.10099 2.56562,5.32708 l 0,2.50686 -14.10109,1.41011 c -7.10606,0.76385 -12.87052,3.1532 -17.29342,7.16805 -4.42292,4.01493 -6.70129,9.30284 -6.83511,15.86373 0.16973,7.34759 2.65048,13.05983 7.44224,17.13674 4.79174,4.07691 10.8761,6.14637 18.25308,6.2084 3.88429,-10e-6 7.55318,-0.66589 11.00668,-1.99766 3.45342,-1.33177 6.41726,-3.32942 8.89152,-5.99296 1.4982,2.42853 3.51543,4.30867 6.05172,5.64044 2.53618,1.33176 5.53266,2.11516 8.98945,2.35018 z m -29.76896,-10.65415 c -0.11755,3.0422 -1.29265,5.536 -3.52528,7.48141 -2.23271,1.94544 -4.81791,2.9508 -7.75559,3.01606 -2.23271,-0.0522 -4.03451,-0.73115 -5.40542,-2.03682 -1.37097,-1.30564 -2.07602,-2.92465 -2.11517,-4.85704 -0.0261,-2.26529 0.69198,-4.276 2.15434,-6.03214 1.46231,-1.75608 3.82554,-2.82672 7.08971,-3.21191 l 9.55741,-0.94007 z"
           inkscape:connector-curvature="0" />
        <path
           id="path4444"
           style="font-weight:bold;line-height:0%;letter-spacing:0px;fill:#ffffff;font-family:Agenda;-inkscape-font-specification:Agenda Bold"
           d="m 664.01203,749.48711 c -0.0196,-5.79709 -1.82144,-10.6933 -5.40542,-14.68864 -3.58407,-3.99527 -8.83281,-7.08967 -15.74621,-9.28322 -3.09444,-0.97919 -5.28794,-1.95844 -6.58051,-2.93772 -1.29263,-0.9792 -1.91934,-2.19346 -1.88014,-3.64278 0.0195,-1.51125 0.6071,-2.71898 1.76263,-3.6232 1.15548,-0.90411 2.76143,-1.36762 4.81787,-1.39053 3.46975,0.0458 6.59679,0.54191 9.38115,1.48845 2.78426,0.94665 5.08874,2.06952 6.91345,3.3686 l 1.72346,-17.39135 c -1.70067,-1.08036 -4.25322,-2.09224 -7.65767,-3.03565 -3.40454,-0.94327 -7.32804,-1.44594 -11.7705,-1.50803 -7.87639,0.11105 -14.17618,2.2001 -18.89938,6.26715 -4.72322,4.06718 -7.14521,9.44648 -7.26597,16.13791 0.062,5.56215 1.93563,10.30167 5.62085,14.2186 3.6852,3.91701 8.8099,7.01141 15.37411,9.28322 2.73858,0.96947 4.78193,1.9683 6.13005,2.99648 1.34806,1.02823 2.02047,2.37958 2.01724,4.05406 -0.0196,1.51785 -0.6855,2.75169 -1.99765,3.70154 -1.31222,0.94988 -3.15319,1.4395 -5.52293,1.46886 -4.53392,-0.0424 -8.90133,-0.85845 -13.10226,-2.4481 -4.20096,-1.58962 -7.82415,-3.69826 -10.86959,-6.32591 l 2.03682,20.05488 c 2.4024,1.61902 5.5882,3.00301 9.55741,4.15199 3.96917,1.14897 8.4084,1.74958 13.31769,1.80181 9.5998,-0.1828 16.68298,-2.44158 21.24956,-6.77636 4.56647,-4.33477 6.83179,-9.64879 6.79594,-15.94206 z"
           inkscape:connector-curvature="0" />
      </g>
      <g
         transform="matrix(0.26666667,0,0,0.26666667,-2.3333335,836.06561)"
         id="text4186-3"
         style="font-size:156.68078613px;font-style:normal;font-variant:normal;font-weight:normal;font-stretch:normal;text-align:start;line-height:0%;letter-spacing:5.44369507px;word-spacing:0px;writing-mode:lr-tb;text-anchor:start;fill:#ffffff;fill-opacity:1;stroke:none;font-family:Trajan Pro;-inkscape-font-specification:Trajan Pro">
        <path
           id="path4413"
           style="font-weight:bold;line-height:0%;letter-spacing:0px;fill:#ffffff;font-family:Agenda;-inkscape-font-specification:Agenda Bold"
           d="m 124.69461,826.10652 0,-19.8982 -59.69461,0 0,99.96105 24.285209,0 0,-39.95308 29.142251,0 0,-20.21156 -29.142251,0 0,-19.89821 z"
           inkscape:connector-curvature="0" />
        <path
           id="path4415"
           style="font-weight:bold;line-height:0%;letter-spacing:0px;fill:#ffffff;font-family:Agenda;-inkscape-font-specification:Agenda Bold"
           d="m 159.50514,811.84875 c -0.25137,-2.20972 -1.74635,-4.68394 -4.48493,-7.42266 -2.73865,-2.73851 -5.21286,-4.23348 -7.42266,-4.48492 -2.13477,0.25144 -4.56329,1.74642 -7.28556,4.48493 -2.72231,2.73871 -4.21076,5.21293 -4.46535,7.42265 0.2546,2.20339 1.74304,4.65149 4.46535,7.34432 2.72227,2.693 5.15079,4.16186 7.28556,4.40659 2.2098,-0.24473 4.68401,-1.71359 7.42265,-4.40659 2.73859,-2.69283 4.23356,-5.14093 4.48494,-7.34432 z m -0.15668,94.32062 0,-70.97548 -23.18846,0 0,70.97548 z"
           inkscape:connector-curvature="0" />
        <path
           id="path4417"
           style="font-weight:bold;line-height:0%;letter-spacing:0px;fill:#ffffff;font-family:Agenda;-inkscape-font-specification:Agenda Bold"
           d="m 209.27811,893.32171 c -2.42204,-0.5353 -4.47192,-1.73651 -6.14965,-3.60361 -1.6778,-1.86707 -2.55259,-4.47838 -2.62436,-7.83394 l 0,-87.27007 -22.71843,0 0,88.99354 c 0.2905,8.22891 2.64721,14.48953 7.07014,18.78187 4.42289,4.29234 9.16894,6.59682 14.23818,6.91345 z"
           inkscape:connector-curvature="0" />
        <path
           id="path4419"
           style="font-weight:bold;line-height:0%;letter-spacing:0px;fill:#ffffff;font-family:Agenda;-inkscape-font-specification:Agenda Bold"
           d="m 245.49596,811.84875 c -0.25137,-2.20972 -1.74635,-4.68394 -4.48493,-7.42266 -2.73864,-2.73851 -5.21286,-4.23348 -7.42266,-4.48492 -2.13476,0.25144 -4.56328,1.74642 -7.28556,4.48493 -2.72231,2.73871 -4.21075,5.21293 -4.46535,7.42265 0.2546,2.20339 1.74305,4.65149 4.46535,7.34432 2.72227,2.693 5.15079,4.16186 7.28556,4.40659 2.2098,-0.24473 4.68402,-1.71359 7.42266,-4.40659 2.73858,-2.69283 4.23356,-5.14093 4.48493,-7.34432 z m -0.15668,94.32062 0,-70.97548 -23.18846,0 0,70.97548 z"
           inkscape:connector-curvature="0" />
        <path
           id="path4421"
           style="font-weight:bold;line-height:0%;letter-spacing:0px;fill:#ffffff;font-family:Agenda;-inkscape-font-specification:Agenda Bold"
           d="m 336.00541,869.8199 c -0.43095,-11.59745 -4.26957,-20.56077 -11.51589,-26.89 -7.24646,-6.3291 -15.31541,-9.53448 -24.20687,-9.61615 -4.28586,7e-5 -8.13101,0.58761 -11.53548,1.76263 -3.40453,1.17516 -6.03542,2.9378 -7.89269,5.28791 l -0.62671,-5.1704 -18.01806,0 0,107.16828 22.24838,0 0,-36.97619 c 1.41661,0.87805 3.24453,1.58963 5.48376,2.13474 2.23916,0.54511 4.85047,0.82583 7.83394,0.84216 11.12087,-0.15669 20.21476,-3.68196 27.28169,-10.57582 7.06679,-6.89386 10.71609,-16.21623 10.94793,-27.96716 z m -22.09171,1.09675 c -0.10451,5.26182 -1.69741,9.5052 -4.7787,12.73015 -3.0814,3.22499 -7.02448,4.88317 -11.82925,4.97455 -2.75824,-0.0261 -5.23246,-0.4439 -7.42266,-1.25343 -2.19027,-0.80949 -3.9986,-1.85401 -5.425,-3.13358 l 0,-26.16535 c 1.57329,-1.50472 3.44038,-2.68634 5.60127,-3.54486 2.16082,-0.85842 4.57629,-1.29581 7.24639,-1.31218 4.80477,0.0915 8.74785,1.74963 11.82925,4.97455 3.08129,3.22502 4.67419,7.4684 4.7787,12.73015 z"
           inkscape:connector-curvature="0" />
        <path
           id="path4423"
           style="font-weight:bold;line-height:0%;letter-spacing:0px;fill:#ffffff;font-family:Agenda;-inkscape-font-specification:Agenda Bold"
           d="m 373.10512,811.84875 c -0.25137,-2.20972 -1.74635,-4.68394 -4.48493,-7.42266 -2.73864,-2.73851 -5.21286,-4.23348 -7.42266,-4.48492 -2.13476,0.25144 -4.56328,1.74642 -7.28556,4.48493 -2.72231,2.73871 -4.21075,5.21293 -4.46534,7.42265 0.25459,2.20339 1.74304,4.65149 4.46534,7.34432 2.72227,2.693 5.15079,4.16186 7.28556,4.40659 2.2098,-0.24473 4.68402,-1.71359 7.42266,-4.40659 2.73858,-2.69283 4.23356,-5.14093 4.48493,-7.34432 z m -0.15668,94.32062 0,-70.97548 -23.18846,0 0,70.97548 z"
           inkscape:connector-curvature="0" />
        <path
           id="path4425"
           style="font-weight:bold;line-height:0%;letter-spacing:0px;fill:#ffffff;font-family:Agenda;-inkscape-font-specification:Agenda Bold"
           d="m 457.5041,906.16937 0,-47.31699 c -0.12738,-7.91874 -2.57548,-14.13366 -7.34432,-18.64477 -4.76897,-4.51097 -11.09487,-6.80893 -18.97771,-6.89386 -5.08884,0.0294 -9.40404,0.83242 -12.94559,2.40893 -3.54163,1.57665 -6.3292,3.75056 -8.36273,6.52175 l -0.62671,-7.05054 -20.21156,0 0,70.97548 23.03178,0 0,-41.98991 c 0.0424,-2.89198 1.09345,-5.29439 3.15316,-7.20722 2.05964,-1.91274 4.87332,-2.90504 8.44106,-2.9769 3.60357,0.0882 6.30628,1.08701 8.10813,2.99649 1.80176,1.90957 2.70266,4.20099 2.70271,6.87427 l 0,42.30327 z"
           inkscape:connector-curvature="0" />
        <path
           id="path4427"
           style="font-weight:bold;line-height:0%;letter-spacing:0px;fill:#ffffff;font-family:Agenda;-inkscape-font-specification:Agenda Bold"
           d="m 546.55256,870.75997 c -0.27427,-11.30694 -4.03455,-20.38124 -11.28087,-27.22294 -7.24646,-6.84157 -16.33382,-10.35378 -27.26211,-10.53664 -11.00345,0.18286 -20.1365,3.69508 -27.3992,10.53664 -7.26272,6.8417 -11.02953,15.916 -11.30045,27.22294 0.27092,11.23193 4.03773,20.26054 11.30046,27.08584 7.26269,6.82532 16.39574,10.33101 27.39919,10.51707 10.9283,-0.18606 20.01566,-3.69175 27.26211,-10.51707 7.24631,-6.82531 11.0066,-15.85391 11.28087,-27.08584 z m -22.0917,0 c -0.13716,5.34343 -1.78229,9.65862 -4.93539,12.94558 -3.15321,3.28701 -6.99184,4.97783 -11.51589,5.07248 -4.59268,-0.0946 -8.45089,-1.78547 -11.57464,-5.07248 -3.12381,-3.28696 -4.74935,-7.60215 -4.87663,-12.94558 0.12728,-5.42496 1.75282,-9.81196 4.87663,-13.16102 3.12375,-3.34896 6.98196,-5.07242 11.57464,-5.1704 4.52405,0.098 8.36268,1.82145 11.51589,5.1704 3.1531,3.34906 4.79823,7.73606 4.93539,13.16102 z"
           inkscape:connector-curvature="0" />
      </g>
      <g
         transform="matrix(0.26666667,0,0,0.26666667,17.666666,835.39893)"
         id="text4186-3-2"
         style="font-size:156.68078613px;font-style:normal;font-variant:normal;font-weight:normal;font-stretch:normal;text-align:start;line-height:0%;letter-spacing:5.44369507px;word-spacing:0px;writing-mode:lr-tb;text-anchor:start;fill:#fcd116;fill-opacity:1;stroke:none;font-family:Trajan Pro;-inkscape-font-specification:Trajan Pro">
        <path
           id="path4404"
           style="font-weight:bold;line-height:0%;letter-spacing:0px;fill:#fcd116;font-family:Agenda;-inkscape-font-specification:Agenda Bold"
           d="m 136.91555,1024.1463 c -0.19592,-6.1888 -2.0369,-11.6725 -5.52292,-16.4513 -3.48618,-4.7786 -7.44231,-7.91219 -11.86842,-9.40069 2.67653,-1.62222 4.72641,-4.0181 6.14964,-7.18764 1.42309,-3.16941 2.14121,-6.30951 2.15434,-9.42031 -0.24162,-8.23208 -3.16629,-14.68202 -8.77401,-19.34983 -5.60786,-4.66763 -12.44949,-7.04392 -20.524924,-7.12888 l -33.529256,0 0,99.96105 37.75958,0 c 9.64875,-0.078 17.69158,-2.8202 24.12853,-8.2256 6.43681,-5.4054 9.77929,-13.0044 10.02744,-22.7968 z m -31.17907,-40.89315 c -0.1045,3.57103 -1.22737,6.14317 -3.3686,7.71642 -2.14132,1.57338 -4.674288,2.34372 -7.598914,2.31102 l -7.67726,0 0,-20.21156 7.67726,0 c 2.924629,-0.026 5.457604,0.77042 7.598914,2.38935 2.14123,1.61909 3.26409,4.21734 3.3686,7.79477 z m 7.67726,40.89315 c -0.14368,4.4425 -1.65824,7.7001 -4.54368,9.7728 -2.88556,2.0728 -6.28026,3.0977 -10.184125,3.0749 l -11.594229,0 0,-25.852 11.594229,0 c 3.903865,-0.01 7.298575,1.0641 10.184125,3.2119 2.88544,2.1478 4.4,5.412 4.54368,9.7924 z"
           inkscape:connector-curvature="0" />
        <path
           id="path4406"
           style="font-weight:bold;line-height:0%;letter-spacing:0px;fill:#fcd116;font-family:Agenda;-inkscape-font-specification:Agenda Bold"
           d="m 214.93044,1041.381 c -2.53305,-0.3884 -4.51764,-1.4526 -5.9538,-3.1924 -1.43629,-1.7397 -2.16745,-4.1748 -2.1935,-7.3051 l 0,-20.3682 c -0.10452,-9.2081 -2.99002,-16.25215 -8.6565,-21.1321 -5.6666,-4.87982 -13.48748,-7.34098 -23.46265,-7.38348 -4.49801,0.0229 -8.89807,0.48643 -13.20019,1.39052 -4.30215,0.90424 -7.84048,2.11197 -10.61498,3.6232 l 1.72347,17.54806 c 2.3469,-1.3677 5.36949,-2.5101 9.06778,-3.4274 3.69825,-0.9172 7.62174,-1.39372 11.77049,-1.42968 3.95937,0.0327 6.81222,0.71168 8.55858,2.03678 1.74627,1.3253 2.60147,3.101 2.56562,5.3271 l 0,2.5069 -14.10109,1.4101 c -7.10606,0.7638 -12.87053,3.1532 -17.29343,7.168 -4.42292,4.015 -6.70128,9.3029 -6.8351,15.8638 0.16973,7.3476 2.65047,13.0598 7.44224,17.1367 4.79174,4.0769 10.87609,6.1464 18.25307,6.2084 3.8843,0 7.55319,-0.6659 11.00669,-1.9977 3.45341,-1.3317 6.41725,-3.3294 8.89152,-5.9929 1.49819,2.4285 3.51543,4.3087 6.05172,5.6404 2.53617,1.3318 5.53265,2.1152 8.98944,2.3502 z m -29.76897,-10.6542 c -0.11755,3.0422 -1.29264,5.536 -3.52527,7.4814 -2.23272,1.9455 -4.81791,2.9508 -7.7556,3.0161 -2.2327,-0.052 -4.03451,-0.7312 -5.40542,-2.0368 -1.37097,-1.3057 -2.07602,-2.9247 -2.11516,-4.8571 -0.0261,-2.2653 0.69197,-4.276 2.15433,-6.0321 1.46231,-1.7561 3.82555,-2.8267 7.08972,-3.2119 l 9.5574,-0.9401 z"
           inkscape:connector-curvature="0" />
        <path
           id="path4408"
           style="font-weight:bold;line-height:0%;letter-spacing:0px;fill:#fcd116;font-family:Agenda;-inkscape-font-specification:Agenda Bold"
           d="m 293.17288,1055.1687 0,-47.317 c -0.12738,-7.91874 -2.57548,-14.13365 -7.34432,-18.64476 -4.76897,-4.51097 -11.09487,-6.80893 -18.97772,-6.89387 -5.08884,0.0294 -9.40403,0.83243 -12.94558,2.40894 -3.54163,1.57665 -6.3292,3.75056 -8.36273,6.52175 l -0.62671,-7.05054 -20.21157,0 0,70.97548 23.03178,0 0,-41.9899 c 0.0424,-2.892 1.09346,-5.2944 3.15316,-7.2072 2.05964,-1.9128 4.87333,-2.9051 8.44107,-2.9769 3.60357,0.088 6.30627,1.087 8.10813,2.9965 1.80175,1.9095 2.70265,4.2009 2.70271,6.8742 l 0,42.3033 z"
           inkscape:connector-curvature="0" />
        <path
           id="path4410"
           style="font-weight:bold;line-height:0%;letter-spacing:0px;fill:#fcd116;font-family:Agenda;-inkscape-font-specification:Agenda Bold"
           d="m 378.77441,1055.1687 -26.63539,-36.9762 24.44188,-33.99928 -24.28521,0 -21.46499,28.98558 0,-69.56538 -22.71842,0 0,111.55528 22.71842,0 0,-28.6722 21.15164,28.6722 z"
           inkscape:connector-curvature="0" />
      </g>
    </g>
  </g>
</svg>
