<?xml version="1.0" encoding="UTF-8" standalone="no"?>
<!-- Generator: Adobe Illustrator 16.0.0, SVG Export Plug-In . SVG Version: 6.00 Build 0)  -->

<svg
   version="1.0"
   id="Layer_1"
   x="0px"
   y="0px"
   width="316"
   height="316.00876"
   viewBox="0 0 316 316.00875"
   enable-background="new 0 0 74.488 75.079"
   xml:space="preserve"
   sodipodi:docname="Philippine Council for Agriculture, Aquatic, and Natural Resources Research and Development (PCAARD).svg"
   inkscape:version="1.2.2 (732a01da63, 2022-12-09)"
   xmlns:inkscape="http://www.inkscape.org/namespaces/inkscape"
   xmlns:sodipodi="http://sodipodi.sourceforge.net/DTD/sodipodi-0.dtd"
   xmlns="http://www.w3.org/2000/svg"
   xmlns:svg="http://www.w3.org/2000/svg"
   xmlns:rdf="http://www.w3.org/1999/02/22-rdf-syntax-ns#"
   xmlns:cc="http://creativecommons.org/ns#"
   xmlns:dc="http://purl.org/dc/elements/1.1/"><title
   id="title7778"> Philippine Council for Agriculture, Aquatic, and Natural Resources Research and Development (PCAARD)</title><defs
   id="defs4772">
	
	
	
	
	

		
		
		
	
		
		
		
	
		
		
		
	
		
		
		
	</defs><sodipodi:namedview
   id="namedview4770"
   pagecolor="#ffffff"
   bordercolor="#000000"
   borderopacity="0.25"
   inkscape:showpageshadow="2"
   inkscape:pageopacity="0.0"
   inkscape:pagecheckerboard="0"
   inkscape:deskcolor="#d1d1d1"
   showgrid="false"
   inkscape:zoom="5.5208512"
   inkscape:cx="49.901725"
   inkscape:cy="66.112994"
   inkscape:window-width="1920"
   inkscape:window-height="1009"
   inkscape:window-x="-8"
   inkscape:window-y="-8"
   inkscape:window-maximized="1"
   inkscape:current-layer="Layer_1" />










<g
   id="g6685"
   transform="matrix(4.3815863,0,0,4.3815863,-5.2359943,-7.0236828)"><circle
     fill="#48c4d3"
     cx="19.235001"
     cy="19.698999"
     r="18"
     id="circle4709" /><circle
     fill="#48c4d3"
     cx="19.195"
     cy="19.648001"
     r="18"
     id="circle4711"
     style="fill:#00acec;fill-opacity:1" /><path
     fill="#ffffff"
     d="M 19.323,37.598 C 29.241,37.571 37.276,29.527 37.276,19.601 37.276,9.676 29.242,1.629 19.324,1.603 Z"
     id="path4713" /><path
     d="M 37.192,19.601 C 37.166,9.682 29.12,1.648 19.195,1.648 9.27,1.648 1.224,9.682 1.198,19.601 Z"
     id="path4715" /><circle
     fill="#48c4d3"
     cx="55.314999"
     cy="19.650999"
     r="18"
     id="circle4719"
     style="fill:#00acec;fill-opacity:1" /><path
     fill="#ffffff"
     d="m 37.319,19.651 c 0.027,9.918 8.07,17.952 17.996,17.952 9.925,0 17.972,-8.034 17.998,-17.952 z"
     id="path4721" /><path
     d="M 55.315,37.648 C 65.234,37.621 73.268,29.576 73.268,19.651 73.268,9.726 65.234,1.679 55.316,1.653 Z"
     id="path4723" /><circle
     fill="#48c4d3"
     cx="55.314999"
     cy="55.648998"
     r="18"
     id="circle4727"
     style="fill:#00acec;fill-opacity:1" /><path
     fill="#ffffff"
     d="m 55.269,37.605 c -9.918,0.027 -17.953,8.071 -17.953,17.997 0,9.925 8.035,17.973 17.953,17.999 z"
     id="path4729" /><path
     d="m 37.317,55.649 c 0.028,9.919 8.073,17.952 17.999,17.952 9.923,0 17.97,-8.033 17.997,-17.952 z"
     id="path4731" /><circle
     fill="#48c4d3"
     cx="19.315001"
     cy="55.724998"
     r="18"
     id="circle4735"
     style="fill:#00acec;fill-opacity:1" /><path
     fill="#ffffff"
     d="M 37.313,55.627 C 37.286,45.709 29.241,37.674 19.316,37.674 9.39,37.674 1.344,45.709 1.317,55.627 Z"
     id="path4737" /><path
     d="M 19.268,37.682 C 9.349,37.709 1.315,45.754 1.315,55.679 c 0,9.925 8.034,17.971 17.953,17.997 z"
     id="path4739" /><rect
     x="19.235001"
     y="19.698999"
     fill="#ffffff"
     width="36"
     height="36"
     id="rect4745" /><path
     fill="#3cb848"
     d="m 45.838,39.832 c 1.607,0.86 3.653,0.101 5.333,-0.909 0.038,-0.404 0.078,-0.809 0.078,-1.223 0,-7.739 -6.273,-14.013 -14.014,-14.013 v 14.648 c 2.942,0.151 6.801,0.533 8.603,1.497 z"
     id="path4747" /><circle
     cx="37.049"
     cy="42.372002"
     r="3.0350001"
     id="circle4749" /><path
     fill="#00694a"
     d="m 37.235,36.342 c 2.926,0.155 6.7,0.539 8.476,1.489 1.607,0.86 3.654,0.101 5.334,-0.909 0.032,-0.349 0.063,-0.698 0.071,-1.053 C 50.218,28.996 44.353,23.685 37.235,23.685 Z"
     id="path4751" /><path
     fill="#8cc63e"
     d="M 51.013,35.292 C 49.872,28.725 44.187,23.721 37.301,23.688 v 10.968 c 2.926,0.155 6.7,0.539 8.476,1.489 1.577,0.846 3.575,0.128 5.236,-0.853 z"
     id="path4753" /><g
     id="g4759">
	<g
   id="g4757">
		<path
   fill="#3cb848"
   d="m 22.773,38.058 c 0,0 4.612,2.218 9.135,0 2.122,-1.041 3.992,-1.125 5.411,-0.96 V 22.683 c -0.353,-0.029 -0.705,-0.058 -1.064,-0.058 -7.495,0 -13.57,6.512 -13.57,14.546 0,0.297 0.025,0.587 0.042,0.88 z"
   id="path4755" />
	</g>
</g><path
     d="m 46.634,40.069 c -1.244,4.072 -4.957,7.035 -9.364,7.035 -4.693,0 -8.61,-3.355 -9.584,-7.839 -0.781,0.394 -1.535,0.772 -2.208,1.111 -0.022,0.333 -0.045,0.666 -0.045,1.006 0,5.783 3.184,10.708 7.657,12.655 l -0.17,-0.346 4.298,-4.974 4.406,5.223 -0.024,0.076 c 4.303,-1.896 7.391,-6.555 7.59,-12.071 z"
     id="path4761" /><path
     fill="#00694a"
     d="m 22.747,35.847 0.026,0.004 c 0,0 4.612,2.218 9.135,0 2.122,-1.041 3.992,-1.125 5.411,-0.96 V 22.683 c -0.353,-0.029 -0.705,-0.058 -1.064,-0.058 -7.078,0 -12.883,5.81 -13.508,13.222 z"
     id="path4763" /><path
     fill="#8cc63e"
     d="m 22.991,34.172 c 0.96,0.399 4.972,1.84 8.917,-0.095 2.122,-1.041 3.992,-1.125 5.411,-0.96 V 22.683 c -0.353,-0.029 -0.705,-0.058 -1.064,-0.058 -6.534,0 -11.974,4.955 -13.264,11.547 z"
     id="path4765" /><polygon
     fill="#8cc63e"
     points="37.319,33.117 40.084,33.506 40.084,27.829 37.47,23.689 36.209,23.689 35.192,30.104 "
     id="polygon4767" /></g>
<metadata
   id="metadata7776"><rdf:RDF><cc:Work
       rdf:about=""><dc:title> Philippine Council for Agriculture, Aquatic, and Natural Resources Research and Development (PCAARD)</dc:title></cc:Work></rdf:RDF></metadata></svg>
