<?xml version="1.0" encoding="UTF-8" standalone="no"?>
<svg
   xmlns:dc="http://purl.org/dc/elements/1.1/"
   xmlns:cc="http://creativecommons.org/ns#"
   xmlns:rdf="http://www.w3.org/1999/02/22-rdf-syntax-ns#"
   xmlns:svg="http://www.w3.org/2000/svg"
   xmlns="http://www.w3.org/2000/svg"
   xmlns:sodipodi="http://sodipodi.sourceforge.net/DTD/sodipodi-0.dtd"
   xmlns:inkscape="http://www.inkscape.org/namespaces/inkscape"
   version="1.0"
   width="640"
   height="350"
   viewBox="0 0 6400 3500"
   preserveAspectRatio="xMidYMid meet"
   id="svg2"
   inkscape:version="0.48.5 r10040"
   sodipodi:docname="PIDSLogowithDetails.svg">
  <title
     id="title3135">Philippine Institute for Development Studies</title>
  <metadata
     id="metadata107">
    <rdf:RDF>
      <cc:Work
         rdf:about="">
        <dc:format>image/svg+xml</dc:format>
        <dc:type
           rdf:resource="http://purl.org/dc/dcmitype/StillImage" />
        <dc:title>Philippine Institute for Development Studies</dc:title>
        <cc:license
           rdf:resource="http://creativecommons.org/licenses/publicdomain/" />
      </cc:Work>
      <cc:License
         rdf:about="http://creativecommons.org/licenses/publicdomain/">
        <cc:permits
           rdf:resource="http://creativecommons.org/ns#Reproduction" />
        <cc:permits
           rdf:resource="http://creativecommons.org/ns#Distribution" />
        <cc:permits
           rdf:resource="http://creativecommons.org/ns#DerivativeWorks" />
      </cc:License>
    </rdf:RDF>
  </metadata>
  <defs
     id="defs105" />
  <sodipodi:namedview
     pagecolor="#ffffff"
     bordercolor="#666666"
     borderopacity="1"
     objecttolerance="10"
     gridtolerance="10"
     guidetolerance="10"
     inkscape:pageopacity="0"
     inkscape:pageshadow="2"
     inkscape:window-width="1366"
     inkscape:window-height="705"
     id="namedview103"
     showgrid="false"
     fit-margin-top="0"
     fit-margin-left="0"
     fit-margin-right="0"
     fit-margin-bottom="0"
     inkscape:zoom="0.51398383"
     inkscape:cx="576.3"
     inkscape:cy="193.36269"
     inkscape:window-x="-8"
     inkscape:window-y="-8"
     inkscape:window-maximized="1"
     inkscape:current-layer="svg2" />
  <path
     style="fill:#ad5826;stroke:none"
     inkscape:connector-curvature="0"
     id="path19"
     d="m 4905.8018,3471.1348 c -117.2096,-66.0998 -190.5773,-141.1319 -237.1034,-240.2817 -21.4735,-47.3417 -22.3682,-52.7012 -22.3682,-255.4667 l 0,-208.1252 398.1546,0 398.1547,0 0,107.1889 c 0,90.2173 2.6841,113.4416 18.7893,147.3848 9.842,21.4377 24.1577,43.7687 30.4208,49.1282 17.8947,15.1851 42.947,3.5729 60.8416,-25.904 13.4209,-22.331 15.2104,-51.808 15.2104,-209.9115 l 0,-184.0075 -314.0501,0 c -217.4192,0 -325.6815,-3.5731 -349.8392,-10.719 -19.684,-5.3595 -56.368,-28.5837 -81.4204,-50.9147 -45.6312,-41.089 -137.7883,-158.9968 -164.6302,-209.9115 -25.9471,-49.1282 -39.3681,-140.2387 -44.7365,-313.5275 -6.2631,-196.5128 6.2631,-282.264 51.8943,-376.9475 49.2103,-101.8295 150.3147,-192.94 281.8398,-254.5735 53.6838,-25.0108 69.7889,-27.6905 203.1037,-35.7297 224.577,-13.3986 767.6778,-13.3986 847.3087,0 141.3673,23.2243 261.261,112.5483 348.0498,258.1465 l 36.6839,61.6337 0,198.2993 0,198.2995 -401.7335,0 -400.8387,0 -5.3685,-125.947 c -3.5789,-101.8294 -7.1578,-128.6266 -20.5788,-142.9185 -18.7893,-20.5445 -33.9997,-21.4377 -67.1047,-1.7865 l -25.9472,15.1851 0,194.7266 0,194.7263 331.05,0 c 309.5765,0 333.734,0.8932 365.9443,16.9715 86.7888,44.6621 179.8406,145.5984 224.5771,242.9615 16.1051,36.6229 17.8946,58.9539 17.8946,343.0044 l 0,303.7018 -22.3681,48.235 c -31.3157,66.0999 -100.2097,150.0645 -171.7882,209.0183 -118.999,96.47 -43.8417,86.6444 -687.1522,86.6444 l -563.6796,0 -49.2101,-28.5838 z" />
  <path
     style="fill:#ad5826;stroke:none"
     inkscape:connector-curvature="0"
     id="path21"
     d="M 5.3683769,3087.0414 C 8.9472948,2865.5177 11.631483,2405.4988 11.631483,2064.281 l 0,-619.0158 721.151977,0 721.15194,0 55.4732,33.0498 c 113.6307,67.8865 199.5247,144.7051 235.3139,209.9117 15.2104,27.6905 16.1051,67.8862 18.7893,563.6347 l 2.6842,533.2647 -51.8943,65.2065 c -66.21,83.9647 -188.7879,209.9116 -219.2087,225.9899 -18.7894,9.8257 -79.631,12.5054 -293.4713,12.5054 l -268.41885,0 0,-598.4712 0,-598.4711 -44.73646,0 -44.73648,0 0,799.4502 0,799.4503 -422.31232,0 -421.41759,0 5.3683769,-403.7447 z" />
  <path
     style="fill:#ad5826;stroke:none"
     inkscape:connector-curvature="0"
     id="path23"
     d="m 1863.7216,2769.0477 c 0,-397.492 2.6841,-861.9771 6.263,-1031.6928 l 5.3684,-309.9544 397.2599,0 396.3652,0 0,1031.6928 0,1031.6928 -402.6283,0 -402.6282,0 0,-721.7384 z" />
  <path
     style="fill:#ad5826;stroke:none"
     inkscape:connector-curvature="0"
     id="path25"
     d="m 2785.2929,2401.0327 0,-1080.8212 -456.3121,0 c -259.4715,0 -456.312,-3.5729 -456.312,-8.0391 0,-9.8257 1313.4629,-1308.5974175 1326.8838,-1312.17038746 6.2631,-0.89323 308.6818,295.66262746 672.8366,659.21151746 l 662.0998,660.99797 -467.9435,0 -467.0487,0 0,875.3758 0,875.3758 49.21,0 49.2102,0 0,-821.7814 0,-821.7812 258.5768,0 257.6821,0 70.6837,45.5552 c 91.2624,59.8471 182.5248,151.8509 212.9455,216.1642 l 23.263,50.0215 0,702.087 0,702.0871 -25.9472,51.808 c -51.8943,101.8294 -148.5251,203.6588 -245.1559,259.0399 l -48.3152,27.6903 -708.6259,0 -707.731,0 0,-1080.821 z" />
</svg>
