<?xml version="1.0" encoding="UTF-8" standalone="no"?>
<!-- Created with Inkscape (http://www.inkscape.org/) -->

<svg
   xmlns:dc="http://purl.org/dc/elements/1.1/"
   xmlns:cc="http://creativecommons.org/ns#"
   xmlns:rdf="http://www.w3.org/1999/02/22-rdf-syntax-ns#"
   xmlns:svg="http://www.w3.org/2000/svg"
   xmlns="http://www.w3.org/2000/svg"
   xmlns:sodipodi="http://sodipodi.sourceforge.net/DTD/sodipodi-0.dtd"
   xmlns:inkscape="http://www.inkscape.org/namespaces/inkscape"
   id="svg2"
   version="1.1"
   inkscape:version="0.48.4 r9939"
   width="250"
   height="250"
   sodipodi:docname="PNCC.JPG">
  <metadata
     id="metadata8">
    <rdf:RDF>
      <cc:Work
         rdf:about="">
        <dc:format>image/svg+xml</dc:format>
        <dc:type
           rdf:resource="http://purl.org/dc/dcmitype/StillImage" />
        <dc:title></dc:title>
      </cc:Work>
    </rdf:RDF>
  </metadata>
  <defs
     id="defs6" />
  <sodipodi:namedview
     pagecolor="#ffffff"
     bordercolor="#666666"
     borderopacity="1"
     objecttolerance="10"
     gridtolerance="10"
     guidetolerance="10"
     inkscape:pageopacity="0"
     inkscape:pageshadow="2"
     inkscape:window-width="1366"
     inkscape:window-height="705"
     id="namedview4"
     showgrid="false"
     fit-margin-top="0"
     fit-margin-left="0"
     fit-margin-right="0"
     fit-margin-bottom="0"
     inkscape:zoom="0.3375"
     inkscape:cx="713.34242"
     inkscape:cy="-227.69787"
     inkscape:window-x="-8"
     inkscape:window-y="-8"
     inkscape:window-maximized="1"
     inkscape:current-layer="svg2" />
  <g
     id="g3808"
     transform="matrix(0.31868546,0,0,0.31885643,-2.609226,-2.3403986)">
    <path
       transform="matrix(2.0479594,0,0,2.1923728,-262.55973,-427.41873)"
       d="m 515.25424,377.11865 c 0,98.756 -85.74885,178.81356 -191.52542,178.81356 -105.77657,0 -191.52542,-80.05756 -191.52542,-178.81356 0,-98.756 85.74885,-178.81355 191.52542,-178.81355 105.77657,0 191.52542,80.05755 191.52542,178.81355 z"
       sodipodi:ry="178.81355"
       sodipodi:rx="191.52542"
       sodipodi:cy="377.11865"
       sodipodi:cx="323.72882"
       id="path2989-1"
       style="fill:#000098;fill-opacity:1;fill-rule:evenodd;stroke:none"
       sodipodi:type="arc" />
    <path
       transform="matrix(1.9144151,0,0,2.0541312,-220.79888,-374.65119)"
       d="m 515.25424,377.11865 c 0,98.756 -85.74885,178.81356 -191.52542,178.81356 -105.77657,0 -191.52542,-80.05756 -191.52542,-178.81356 0,-98.756 85.74885,-178.81355 191.52542,-178.81355 105.77657,0 191.52542,80.05755 191.52542,178.81355 z"
       sodipodi:ry="178.81355"
       sodipodi:rx="191.52542"
       sodipodi:cy="377.11865"
       sodipodi:cx="323.72882"
       id="path2989"
       style="fill:#ffffff;fill-opacity:1;fill-rule:evenodd;stroke:none"
       sodipodi:type="arc" />
    <path
       transform="matrix(1.7831449,0,0,1.913529,-177.25538,-321.62749)"
       d="m 515.25424,377.11865 c 0,98.756 -85.74885,178.81356 -191.52542,178.81356 -105.77657,0 -191.52542,-80.05756 -191.52542,-178.81356 0,-98.756 85.74885,-178.81355 191.52542,-178.81355 105.77657,0 191.52542,80.05755 191.52542,178.81355 z"
       sodipodi:ry="178.81355"
       sodipodi:rx="191.52542"
       sodipodi:cy="377.11865"
       sodipodi:cx="323.72882"
       id="path2989-7"
       style="fill:#000098;fill-opacity:1;fill-rule:evenodd;stroke:none"
       sodipodi:type="arc" />
    <path
       sodipodi:nodetypes="cccccccccccccc"
       inkscape:connector-curvature="0"
       id="path3806"
       d="m 48.188018,294.02581 248.273052,-15.71348 31.42696,-20.95131 89.04308,-209.513122 4.19026,-9.428091 -46.09288,219.988773 20.95131,23.04645 353.02961,17.80861 -369.79066,16.76105 -24.09401,16.76105 -139.32623,364.55283 89.04308,-367.69553 -16.76105,-13.61835 z"
       style="fill:#ffffff;stroke:none" />
  </g>
</svg>
