<?xml version="1.0" encoding="UTF-8" standalone="no"?>
<!-- Created with Inkscape (http://www.inkscape.org/) -->

<svg
   xmlns:dc="http://purl.org/dc/elements/1.1/"
   xmlns:cc="http://creativecommons.org/ns#"
   xmlns:rdf="http://www.w3.org/1999/02/22-rdf-syntax-ns#"
   xmlns:svg="http://www.w3.org/2000/svg"
   xmlns="http://www.w3.org/2000/svg"
   xmlns:sodipodi="http://sodipodi.sourceforge.net/DTD/sodipodi-0.dtd"
   xmlns:inkscape="http://www.inkscape.org/namespaces/inkscape"
   width="640"
   height="827.9671"
   id="svg2"
   version="1.1"
   inkscape:version="0.48.5 r10040"
   sodipodi:docname="New document 1">
  <title
     id="title4638">Philippine International Trading Corporation (PITC)</title>
  <defs
     id="defs4" />
  <sodipodi:namedview
     id="base"
     pagecolor="#ffffff"
     bordercolor="#666666"
     borderopacity="1.0"
     inkscape:pageopacity="0.0"
     inkscape:pageshadow="2"
     inkscape:zoom="0.33835764"
     inkscape:cx="63.717726"
     inkscape:cy="287.22005"
     inkscape:document-units="px"
     inkscape:current-layer="layer1"
     showgrid="false"
     inkscape:snap-object-midpoints="true"
     inkscape:snap-center="true"
     inkscape:object-paths="true"
     inkscape:snap-intersection-paths="true"
     inkscape:object-nodes="true"
     inkscape:snap-smooth-nodes="true"
     inkscape:snap-midpoints="true"
     inkscape:snap-bbox="true"
     inkscape:bbox-paths="true"
     inkscape:bbox-nodes="true"
     inkscape:snap-bbox-edge-midpoints="true"
     inkscape:snap-bbox-midpoints="true"
     fit-margin-top="0"
     fit-margin-left="0"
     fit-margin-right="0"
     fit-margin-bottom="0"
     inkscape:window-width="1366"
     inkscape:window-height="705"
     inkscape:window-x="-8"
     inkscape:window-y="-8"
     inkscape:window-maximized="1" />
  <metadata
     id="metadata7">
    <rdf:RDF>
      <cc:Work
         rdf:about="">
        <dc:format>image/svg+xml</dc:format>
        <dc:type
           rdf:resource="http://purl.org/dc/dcmitype/StillImage" />
        <dc:title>Philippine International Trading Corporation (PITC)</dc:title>
      </cc:Work>
    </rdf:RDF>
  </metadata>
  <g
     inkscape:label="Layer 1"
     inkscape:groupmode="layer"
     id="layer1"
     transform="translate(35.75,-485.125)">
    <path
       style="color:#000000;fill:none;stroke:#cfb53b;stroke-width:22.11315155;stroke-miterlimit:4;stroke-opacity:1;marker:none;visibility:visible;display:inline;overflow:visible;enable-background:accumulate"
       d="m 32.807074,496.18899 502.897306,0 c 31.8521,0 57.49477,25.64267 57.49477,57.49478 l 0,502.89723 c 0,31.8522 -25.64267,57.4949 -57.49477,57.4949 l -502.897306,0 c -31.85210516,0 -57.494774,-25.6427 -57.494774,-57.4949 l 0,-502.89723 c 0,-31.85211 25.64266884,-57.49478 57.494774,-57.49478 z"
       id="rect4604"
       inkscape:connector-curvature="0" />
    <g
       id="g4606"
       transform="matrix(0.88452606,0,0,0.88452606,-55.372335,461.08088)">
      <path
         sodipodi:nodetypes="ccsccsc"
         inkscape:connector-curvature="0"
         id="path3779"
         d="m 477.30561,702.51047 42.02556,-17.94912 c 0,0 -125.53129,-45.77456 -122.93107,-68.78151 3.00124,-26.55517 133.73423,-503.99048 133.73423,-503.99048 L 473.24187,88.515165 c 0,0 -86.3745,451.237925 -89.03302,529.764895 -1.02633,30.31545 93.09676,84.23041 93.09676,84.23041 z"
         style="fill:#cfb53b;fill-opacity:1;stroke:none" />
      <path
         sodipodi:nodetypes="ccccccccc"
         inkscape:connector-curvature="0"
         id="path4549"
         d="m 603.28179,624.19097 -39.89862,36.94316 c 0,0 -91.61939,-14.7003 -141.86173,-25.49078 -20.92899,-8.06261 -21.20911,-20.37148 -10.79358,-38.40115 l 230.60538,-386.44518 27.33794,45.80952 c 0,0 -164.71389,221.629 -247.77062,342.54522 -6.23065,11.18361 -8.59909,23.2491 11.02711,25.24459 z"
         style="fill:#cfb53b;fill-opacity:1;stroke:none" />
      <path
         sodipodi:nodetypes="cccc"
         inkscape:connector-curvature="0"
         id="path4551"
         d="M 613.25644,176.80931 566.70806,134.69411 408.59134,584.66179 z"
         style="fill:#cfb53b;fill-opacity:1;stroke:none" />
      <path
         sodipodi:nodetypes="ccsasccsccc"
         inkscape:connector-curvature="0"
         id="path4553"
         d="m 698.2257,351.55046 -13.29953,-59.84792 c 0,0 -172.24578,206.20109 -255.27723,312.16969 -2.24409,2.86402 -5.46432,6.48535 -4.43318,9.97466 0.95829,3.24279 5.11962,5.70798 8.49693,5.54147 66.65161,-3.28603 192.10442,-14.77726 192.10442,-14.77726 l 32.14055,-48.76497 c 0,0 -70.80426,32.0629 -169.711,47.84561 -13.43692,2.14415 -26.24711,4.39637 -37.90955,6.83026 -9.55084,1.24561 -13.23898,-3.67706 -5.54147,-11.26766 C 526.05541,514.0415 698.2257,351.55046 698.2257,351.55046 z"
         style="fill:#cfb53b;fill-opacity:1;stroke:none" />
      <path
         sodipodi:nodetypes="cccccccc"
         inkscape:connector-curvature="0"
         id="path4555"
         d="m 668.30175,535.89682 20.31873,-47.65667 -159.22501,69.82257 170.30796,-119.32641 2.21659,-52.08985 c 0,0 -191.86195,165.29953 -230.71003,199.67777 -22.39224,18.07951 -6.79455,15.07703 15.70085,8.1275 63.49191,-19.5358 181.39091,-58.55491 181.39091,-58.55491 z"
         style="fill:#cfb53b;fill-opacity:1;stroke:none" />
      <path
         sodipodi:nodetypes="ccsccsc"
         inkscape:connector-curvature="0"
         id="path3779-1"
         d="m 477.30561,702.51047 42.02556,-17.94912 c 0,0 -125.53129,-45.77456 -122.93107,-68.78151 3.00124,-26.55517 133.73423,-503.99048 133.73423,-503.99048 L 473.24187,88.515163 c 0,0 -86.3745,451.237927 -89.03302,529.764897 -1.02633,30.31545 93.09676,84.23041 93.09676,84.23041 z"
         style="fill:#cfb53b;fill-opacity:1;stroke:none" />
      <path
         sodipodi:nodetypes="ccccccccc"
         inkscape:connector-curvature="0"
         id="path4549-7"
         d="m 603.28179,624.19097 -39.89862,36.94316 c 0,0 -91.61939,-14.7003 -141.86173,-25.49078 -20.92899,-8.06261 -21.20911,-20.37148 -10.79358,-38.40115 l 230.60538,-386.44518 27.33794,45.80952 c 0,0 -164.71389,221.629 -247.77062,342.54522 -6.23065,11.18361 -8.59909,23.2491 11.02711,25.24459 z"
         style="fill:#cfb53b;fill-opacity:1;stroke:none" />
      <path
         sodipodi:nodetypes="cccc"
         inkscape:connector-curvature="0"
         id="path4551-4"
         d="M 613.25644,176.80931 566.70806,134.69411 408.59134,584.66179 z"
         style="fill:#cfb53b;fill-opacity:1;stroke:none" />
      <path
         sodipodi:nodetypes="ccsasccsccc"
         inkscape:connector-curvature="0"
         id="path4553-0"
         d="m 698.2257,351.55046 -13.29953,-59.84792 c 0,0 -172.24578,206.20109 -255.27723,312.16969 -2.24409,2.86402 -5.46432,6.48535 -4.43318,9.97466 0.95829,3.24279 5.11962,5.70798 8.49693,5.54147 66.65161,-3.28603 192.10442,-14.77726 192.10442,-14.77726 l 32.14055,-48.76497 c 0,0 -70.80426,32.0629 -169.711,47.84561 -13.43692,2.14415 -26.24711,4.39637 -37.90955,6.83026 -9.55084,1.24561 -13.23898,-3.67706 -5.54147,-11.26766 C 526.05541,514.0415 698.2257,351.55046 698.2257,351.55046 z"
         style="fill:#cfb53b;fill-opacity:1;stroke:none" />
      <path
         sodipodi:nodetypes="cccccccc"
         inkscape:connector-curvature="0"
         id="path4555-9"
         d="m 668.30175,535.89682 20.31873,-47.65667 -159.22501,69.82257 170.30796,-119.32641 2.21659,-52.08985 c 0,0 -191.86195,165.29953 -230.71003,199.67777 -22.39224,18.07951 -6.79455,15.07703 15.70085,8.1275 63.49191,-19.5358 181.39091,-58.55491 181.39091,-58.55491 z"
         style="fill:#cfb53b;fill-opacity:1;stroke:none" />
      <path
         sodipodi:nodetypes="ccsccsc"
         inkscape:connector-curvature="0"
         id="path3779-4"
         d="M 282.54916,702.29052 240.52361,684.3414 c 0,0 125.53128,-45.77456 122.93106,-68.78151 C 360.45343,589.00472 229.72045,111.56941 229.72045,111.56941 L 286.6129,88.295206 c 0,0 86.3745,451.237934 89.03302,529.764904 1.02633,30.31545 -93.09676,84.23041 -93.09676,84.23041 z"
         style="fill:#cfb53b;fill-opacity:1;stroke:none" />
      <path
         sodipodi:nodetypes="ccccccccc"
         inkscape:connector-curvature="0"
         id="path4549-8"
         d="m 156.57299,623.97102 39.89862,36.94316 c 0,0 91.61938,-14.7003 141.86172,-25.49078 20.92899,-8.06261 21.20911,-20.37148 10.79358,-38.40115 L 118.52154,210.57707 91.183597,256.38659 c 0,0 164.713893,221.629 247.770613,342.54522 6.23065,11.18361 8.59909,23.2491 -11.02711,25.24459 z"
         style="fill:#cfb53b;fill-opacity:1;stroke:none" />
      <path
         sodipodi:nodetypes="cccc"
         inkscape:connector-curvature="0"
         id="path4551-8"
         d="m 146.59834,176.58936 46.54838,-42.1152 158.11671,449.96768 z"
         style="fill:#cfb53b;fill-opacity:1;stroke:none" />
      <path
         sodipodi:nodetypes="ccsasccsccc"
         inkscape:connector-curvature="0"
         id="path4553-2"
         d="m 61.629077,351.33051 13.29953,-59.84792 c 0,0 172.245783,206.20109 255.277223,312.16969 2.24409,2.86402 5.46432,6.48535 4.43318,9.97466 -0.95829,3.24279 -5.11962,5.70798 -8.49693,5.54147 -66.6516,-3.28603 -192.10441,-14.77726 -192.10441,-14.77726 l -32.14055,-48.76497 c 0,0 70.80426,32.0629 169.711,47.84561 13.43691,2.14415 26.2471,4.39637 37.90954,6.83026 9.55084,1.24561 13.23898,-3.67706 5.54147,-11.26766 C 233.79937,513.82155 61.629077,351.33051 61.629077,351.33051 z"
         style="fill:#cfb53b;fill-opacity:1;stroke:none" />
      <path
         sodipodi:nodetypes="cccccccc"
         inkscape:connector-curvature="0"
         id="path4555-4"
         d="M 91.553027,535.67687 71.234297,488.0202 230.45931,557.84277 60.151347,438.51636 57.934757,386.42651 c 0,0 191.861953,165.29953 230.710023,199.67777 22.39224,18.07951 6.79455,15.07703 -15.70084,8.1275 C 209.45203,574.69598 91.553027,535.67687 91.553027,535.67687 z"
         style="fill:#cfb53b;fill-opacity:1;stroke:none" />
      <path
         sodipodi:nodetypes="cccc"
         inkscape:connector-curvature="0"
         id="path4602"
         d="m 379.8249,557.59714 39.7066,-480.658957 -79.93564,0 z"
         style="fill:#cfb53b;fill-opacity:1;stroke:none" />
    </g>
    <g
       style="font-size:100px;font-style:normal;font-variant:normal;font-weight:normal;font-stretch:normal;text-align:center;line-height:125%;letter-spacing:0px;word-spacing:0px;writing-mode:lr-tb;text-anchor:middle;fill:#000000;fill-opacity:1;stroke:none;font-family:Swiss 721;-inkscape-font-specification:'Swiss 721,'"
       id="text4624"
       transform="matrix(0.88452606,0,0,0.88452606,-4.1275326,151.62792)">
      <path
         d="m 124.86537,1135.8444 -76.999012,0 0,175.2478 45.749411,0 0,-48.4994 31.249601,0 c 22.51522,-0.1406 39.85873,-5.8593 52.03058,-17.156 12.17155,-11.2967 18.32772,-27.3277 18.46851,-48.0932 -0.14079,-19.6246 -6.29695,-34.7494 -18.46851,-45.3744 -12.17185,-10.6247 -29.51536,-15.9996 -52.03058,-16.1248 z m -2.24997,90.2489 -28.999631,0 0,-53.7494 28.999631,0 c 9.31227,0.026 16.49967,2.2866 21.56221,6.7812 5.06232,4.4949 7.62479,11.0677 7.68741,19.7185 -0.0626,8.901 -2.62509,15.6614 -7.6874,20.281 -5.06254,4.6198 -12.24994,6.9427 -21.56222,6.9687 z"
         style="font-size:250px;font-weight:bold;font-family:Montserrat;-inkscape-font-specification:Montserrat Bold"
         id="path4629"
         inkscape:connector-curvature="0" />
      <path
         d="m 217.78823,1135.8444 0,175.2478 45.74941,0 0,-175.2478 z"
         style="font-size:250px;font-weight:bold;font-family:Montserrat;-inkscape-font-specification:Montserrat Bold"
         id="path4631"
         inkscape:connector-curvature="0" />
      <path
         d="m 282.12827,1135.8444 0,37.7495 51.99933,0 0,137.4983 45.74941,0 0,-137.4983 52.49933,0 0,-37.7495 z"
         style="font-size:250px;font-weight:bold;font-family:Montserrat;-inkscape-font-specification:Montserrat Bold"
         id="path4633"
         inkscape:connector-curvature="0" />
      <path
         d="m 577.44676,1196.3436 26.49966,-31.7496 c -8.97922,-9.3434 -19.70824,-16.6558 -32.18709,-21.9372 -12.47914,-5.281 -25.33312,-7.9684 -38.562,-8.0624 -27.31222,0.5315 -49.62442,8.9688 -66.93664,25.3122 -17.3123,16.3437 -26.24967,37.4059 -26.81216,63.1867 0.53645,26.281 9.27591,47.7182 26.21842,64.3117 16.94244,16.5935 38.86922,25.1559 65.7804,25.6871 13.23409,-0.1198 26.26516,-3.0676 39.09324,-8.8436 12.82782,-5.776 24.04641,-13.6613 33.65582,-23.6559 l -26.74965,-28.7497 c -6.26569,6.3229 -13.23434,11.302 -20.90599,14.9373 -7.67189,3.6354 -15.20303,5.4896 -22.59345,5.5625 -13.79158,-0.3073 -25.08309,-5.0676 -33.87457,-14.2811 -8.79161,-9.2134 -13.33321,-21.0361 -13.62482,-35.4683 0.29161,-14.3018 4.83321,-26.01 13.62482,-35.1245 8.79148,-9.1144 20.08299,-13.8226 33.87457,-14.1249 7.76542,0.083 15.48406,2.1668 23.15595,6.25 7.67165,4.0834 14.4528,9.6666 20.34349,16.7497 z"
         style="font-size:250px;font-weight:bold;font-family:Montserrat;-inkscape-font-specification:Montserrat Bold"
         id="path4635"
         inkscape:connector-curvature="0" />
    </g>
  </g>
</svg>
