<?xml version="1.0" encoding="UTF-8" standalone="no"?>
<!-- Created with Inkscape (http://www.inkscape.org/) -->

<svg
   width="150"
   height="399.28189"
   viewBox="0 0 150 399.2819"
   id="svg2"
   version="1.1"
   inkscape:version="1.3.2 (091e20e, 2023-11-25, custom)"
   sodipodi:docname="Philippine_Information_Agency_Logo.svg"
   xml:space="preserve"
   xmlns:inkscape="http://www.inkscape.org/namespaces/inkscape"
   xmlns:sodipodi="http://sodipodi.sourceforge.net/DTD/sodipodi-0.dtd"
   xmlns="http://www.w3.org/2000/svg"
   xmlns:svg="http://www.w3.org/2000/svg"
   xmlns:rdf="http://www.w3.org/1999/02/22-rdf-syntax-ns#"
   xmlns:cc="http://creativecommons.org/ns#"
   xmlns:dc="http://purl.org/dc/elements/1.1/"><defs
     id="defs4" /><sodipodi:namedview
     id="base"
     pagecolor="#ffffff"
     bordercolor="#666666"
     borderopacity="1.0"
     inkscape:pageopacity="0.0"
     inkscape:pageshadow="2"
     inkscape:zoom="0.98994949"
     inkscape:cx="30.809653"
     inkscape:cy="212.63711"
     inkscape:document-units="px"
     inkscape:current-layer="layer1"
     showgrid="false"
     units="px"
     fit-margin-top="0"
     fit-margin-left="0"
     fit-margin-right="0"
     fit-margin-bottom="0"
     inkscape:window-width="1920"
     inkscape:window-height="1017"
     inkscape:window-x="-8"
     inkscape:window-y="-8"
     inkscape:window-maximized="1"
     inkscape:showpageshadow="2"
     inkscape:pagecheckerboard="0"
     inkscape:deskcolor="#d1d1d1" /><metadata
     id="metadata7"><rdf:RDF><cc:Work
         rdf:about=""><dc:format>image/svg+xml</dc:format><dc:type
           rdf:resource="http://purl.org/dc/dcmitype/StillImage" /><dc:title /></cc:Work></rdf:RDF></metadata><g
     inkscape:label="Layer 1"
     inkscape:groupmode="layer"
     id="layer1"
     transform="translate(-297.04724,-326.54016)"><rect
       style="opacity:1;fill:#1e417f;fill-opacity:1;stroke:none;stroke-width:1;stroke-linecap:butt;stroke-linejoin:miter;stroke-miterlimit:4;stroke-dasharray:none;stroke-dashoffset:0;stroke-opacity:1"
       id="rect4147"
       width="150"
       height="240.68796"
       x="297.04724"
       y="485.13409" /><circle
       style="opacity:1;fill:#1e417f;fill-opacity:1;stroke:none;stroke-width:1;stroke-linecap:butt;stroke-linejoin:miter;stroke-miterlimit:4;stroke-dasharray:none;stroke-dashoffset:0;stroke-opacity:1"
       id="path4149"
       cx="372.04724"
       cy="396.18091"
       r="69.640747" /><g
       style="font-style:normal;font-weight:normal;font-size:82.37382507px;line-height:125%;font-family:sans-serif;text-align:center;letter-spacing:0px;word-spacing:0px;text-anchor:middle;fill:#ffffff;fill-opacity:1;stroke:none;stroke-width:1px;stroke-linecap:butt;stroke-linejoin:miter;stroke-opacity:1"
       id="text4151"><path
         d="m 322.77578,680.55382 0,15.12332 q 0,4.42437 0.52288,5.5908 0.5631,1.1262 1.93064,1.80997 1.40775,0.68377 5.10814,0.68377 l 0,1.4882 -27.71268,0 0,-1.4882 q 3.78083,0 5.10814,-0.68377 1.36754,-0.72399 1.89042,-1.85019 0.5631,-1.12621 0.5631,-5.55058 l 0,-35.395 q 0,-4.42438 -0.5631,-5.55058 -0.52288,-1.16643 -1.89042,-1.8502 -1.36753,-0.68376 -5.10814,-0.68376 l 0,-1.4882 23.77096,0 q 11.74471,0 16.85285,4.18304 5.10814,4.18305 5.10814,10.45762 0,5.30925 -3.29817,9.09008 -3.29817,3.78083 -9.09008,5.14836 -3.90149,0.96532 -13.19268,0.96532 z m 0,-26.70714 0,23.56985 q 1.32731,0.0805 2.01108,0.0805 4.90703,0 7.56166,-2.89596 2.65462,-2.93617 2.65462,-9.04986 0,-6.07346 -2.65462,-8.88897 -2.65463,-2.81551 -7.92365,-2.81551 l -1.64909,0 z"
         style="font-style:normal;font-variant:normal;font-weight:bold;font-stretch:normal;font-family:'Times New Roman';-inkscape-font-specification:'Times New Roman, Bold';fill:#ffffff;fill-opacity:1"
         id="path4167"
         inkscape:connector-curvature="0" /><path
         d="m 381.05687,703.76168 0,1.4882 -28.51711,0 0,-1.4882 1.80997,0 q 2.37308,0 3.82105,-0.84465 1.04577,-0.56311 1.60887,-1.93064 0.44244,-0.96532 0.44244,-5.06792 l 0,-35.87766 q 0,-4.18305 -0.44244,-5.22881 -0.44244,-1.04576 -1.80997,-1.80997 -1.32732,-0.80443 -3.61995,-0.80443 l -1.80997,0 0,-1.4882 28.51711,0 0,1.4882 -1.80997,0 q -2.37307,0 -3.82105,0.84465 -1.04576,0.5631 -1.64909,1.93064 -0.44243,0.96531 -0.44243,5.06792 l 0,35.87766 q 0,4.18304 0.44243,5.22881 0.48266,1.04576 1.80997,1.85019 1.36754,0.76421 3.66017,0.76421 l 1.80997,0 z"
         style="font-style:normal;font-variant:normal;font-weight:bold;font-stretch:normal;font-family:'Times New Roman';-inkscape-font-specification:'Times New Roman, Bold';fill:#ffffff;fill-opacity:1"
         id="path4169"
         inkscape:connector-curvature="0" /><path
         d="m 417.17586,689.72434 -19.26614,0 -2.29263,5.30925 q -1.12621,2.65463 -1.12621,4.38416 0,2.29263 1.8502,3.37861 1.08598,0.64355 5.34947,0.96532 l 0,1.4882 -18.13994,0 0,-1.4882 q 2.93618,-0.44244 4.82659,-2.4133 1.89042,-2.01108 4.66571,-8.24542 l 19.50747,-43.51977 0.76421,0 19.66836,44.72641 q 2.81551,6.35502 4.62548,8.0041 1.36754,1.24687 3.86127,1.44798 l 0,1.4882 -26.38536,0 0,-1.4882 1.08598,0 q 3.17751,0 4.4646,-0.88488 0.88487,-0.64354 0.88487,-1.85019 0,-0.72399 -0.24133,-1.4882 -0.0804,-0.36199 -1.20664,-3.01662 l -2.89596,-6.79745 z m -1.36753,-2.9764 -8.12476,-18.78348 -8.3661,18.78348 16.49086,0 z"
         style="font-style:normal;font-variant:normal;font-weight:bold;font-stretch:normal;font-family:'Times New Roman';-inkscape-font-specification:'Times New Roman, Bold';fill:#ffffff;fill-opacity:1"
         id="path4171"
         inkscape:connector-curvature="0" /></g></g></svg>
