<?xml version="1.0" encoding="UTF-8" standalone="no"?>
<!-- Created with Inkscape (http://www.inkscape.org/) -->

<svg
   xmlns:dc="http://purl.org/dc/elements/1.1/"
   xmlns:cc="http://creativecommons.org/ns#"
   xmlns:rdf="http://www.w3.org/1999/02/22-rdf-syntax-ns#"
   xmlns:svg="http://www.w3.org/2000/svg"
   xmlns="http://www.w3.org/2000/svg"
   xmlns:sodipodi="http://sodipodi.sourceforge.net/DTD/sodipodi-0.dtd"
   xmlns:inkscape="http://www.inkscape.org/namespaces/inkscape"
   width="379.99991"
   height="480.00009"
   id="svg16655"
   version="1.1"
   inkscape:version="0.48.5 r10040"
   sodipodi:docname="New document 9">
  <title
     id="title17987">Philippine Center for Postharvest Development and Mechanization (PHilMech)</title>
  <defs
     id="defs16657" />
  <sodipodi:namedview
     id="base"
     pagecolor="#ffffff"
     bordercolor="#666666"
     borderopacity="1.0"
     inkscape:pageopacity="0.0"
     inkscape:pageshadow="2"
     inkscape:zoom="1.0624998"
     inkscape:cx="189.99996"
     inkscape:cy="240.00004"
     inkscape:document-units="px"
     inkscape:current-layer="layer1"
     showgrid="false"
     inkscape:snap-bbox="true"
     inkscape:bbox-paths="true"
     inkscape:bbox-nodes="true"
     inkscape:snap-bbox-edge-midpoints="true"
     inkscape:snap-bbox-midpoints="true"
     inkscape:object-paths="true"
     inkscape:snap-intersection-paths="true"
     inkscape:object-nodes="true"
     inkscape:snap-smooth-nodes="true"
     inkscape:snap-midpoints="true"
     inkscape:snap-object-midpoints="true"
     inkscape:snap-center="true"
     inkscape:snap-global="true"
     fit-margin-top="0"
     fit-margin-left="0"
     fit-margin-right="0"
     fit-margin-bottom="0"
     inkscape:window-width="1366"
     inkscape:window-height="705"
     inkscape:window-x="-8"
     inkscape:window-y="-8"
     inkscape:window-maximized="1" />
  <metadata
     id="metadata16660">
    <rdf:RDF>
      <cc:Work
         rdf:about="">
        <dc:format>image/svg+xml</dc:format>
        <dc:type
           rdf:resource="http://purl.org/dc/dcmitype/StillImage" />
        <cc:license
           rdf:resource="http://creativecommons.org/licenses/publicdomain/" />
        <dc:title>Philippine Center for Postharvest Development and Mechanization (PHilMech)</dc:title>
      </cc:Work>
      <cc:License
         rdf:about="http://creativecommons.org/licenses/publicdomain/">
        <cc:permits
           rdf:resource="http://creativecommons.org/ns#Reproduction" />
        <cc:permits
           rdf:resource="http://creativecommons.org/ns#Distribution" />
        <cc:permits
           rdf:resource="http://creativecommons.org/ns#DerivativeWorks" />
      </cc:License>
    </rdf:RDF>
  </metadata>
  <g
     inkscape:label="Layer 1"
     inkscape:groupmode="layer"
     id="layer1"
     transform="translate(-621.59632,-753.39764)">
    <g
       id="g17968"
       transform="matrix(0.72849609,0,0,0.72815563,168.76581,335.29221)">
      <path
         sodipodi:nodetypes="caacaac"
         inkscape:connector-curvature="0"
         id="path16674"
         d="m 868.50247,1106.0337 c 0,0 -19.08456,-91.3981 -47.81642,-125.88408 -34.56583,-41.4883 -100.73592,-45.39151 -138.57006,-83.92271 -27.6746,-28.18449 -59.52658,-102.46378 -59.52658,-102.46378 0,0 -3.08083,101.28321 14.63769,147.35267 17.11854,44.50948 46.41067,86.9927 84.89855,115.1498 41.59306,30.4288 146.37682,49.7681 146.37682,49.7681 z"
         style="fill:#006c35;fill-opacity:1;stroke:none" />
      <path
         sodipodi:nodetypes="cacaac"
         inkscape:connector-curvature="0"
         id="path16676"
         d="m 761.15947,901.10613 c 0,0 -32.05358,-98.26979 -35.13043,-149.30435 -2.65896,-44.1032 14.63768,-131.73914 14.63768,-131.73914 0,0 -83.33711,79.69509 -89.77779,132.71498 -4.76557,39.23034 15.04102,81.43677 40.98551,111.24639 17.19717,19.75915 69.28503,37.08212 69.28503,37.08212 z"
         style="fill:#006c35;fill-opacity:1;stroke:none" />
      <path
         sodipodi:nodetypes="caacaac"
         inkscape:connector-curvature="0"
         id="path16678"
         d="m 771.89377,800.59405 c 0,0 42.96461,-54.70316 54.64735,-86.85025 9.86755,-27.15229 3.69639,-58.1184 11.71014,-85.8744 5.45128,-18.88078 24.39614,-53.6715 24.39614,-53.6715 0,0 -75.20994,26.7944 -96.6087,57.57488 -18.50069,26.61183 -19.63897,63.2884 -17.56522,95.63286 1.63892,25.5623 23.42029,73.18841 23.42029,73.18841 z"
         style="fill:#006c35;fill-opacity:1;stroke:none" />
      <path
         id="path16766"
         d="m 924.625,577.625 -14.46875,29.65625 -23.4375,-3.40625 -24.1875,131.0625 0.0312,0.5 c 83.71047,-0.0775 156.97425,75.59934 165.25005,172.46875 8.499,99.48425 -54.74028,183.64745 -141.25005,187.96875 -0.68625,0.034 -1.37748,0.038 -2.0625,0.062 l 0.59375,9.8437 c 69.91574,-2.4269 128.8696,-31.2644 173.1563,-73.9374 l -1.5,-25.9376 C 1061.1622,1000.5354 1069.9688,988 1069.9688,988 l 23.875,2.3125 c 5.7452,-8.12739 11.0786,-16.51426 15.9687,-25.125 l -13.4375,-28.46875 c 2.7144,-7.69791 8.75,-23.5625 8.75,-23.5625 l 30.5,-7.5 c 2.7983,-8.9929 5.1611,-18.06792 7.0625,-27.1875 0.1941,-1.76933 0.3633,-3.52779 0.5313,-5.28125 l -31.5938,-10.40625 0,-22.46875 c -0.2059,-4.52612 -1.1562,-15.1875 -1.1562,-15.1875 0,0 15.5333,-9.7454 32.5312,-18.375 -1.0589,-9.43612 -2.5495,-18.59667 -4.5,-27.46875 -17.4699,2.55578 -35.9375,5.34375 -35.9375,5.34375 0,0 -4.2493,-12.77107 -6.375,-19.15625 -2.7482,-7.22971 -10.4063,-23.8125 -10.4063,-23.8125 0,0 14.576,-16.22205 28.0938,-27.375 -5.3819,-9.55713 -11.3969,-18.69037 -18.0625,-27.375 -16.077,8.56911 -33.0313,17.59375 -33.0313,17.59375 0,0 -20.0046,-21.01118 -28.7812,-32.5 0,0 6.3995,-16.23395 13.125,-33.25 -9.3375,-7.14663 -19.2452,-13.86134 -29.7188,-20.15625 -12.7223,10.83969 -24.9062,21.21875 -24.9062,21.21875 0,0 -22.40009,-11.83596 -33.59375,-17.875 0,0 -0.28299,-15.95758 0.65625,-31.78125 -11.24396,-4.50679 -22.89798,-8.69266 -34.9375,-12.53125 z"
         style="fill:#c8c8c8;fill-opacity:1;stroke:none"
         inkscape:connector-curvature="0" />
      <path
         id="path16768"
         d="m 277.39085,875.71527 c 0,73.16954 -41.39737,132.48513 -92.46362,132.48513 -51.06624,0 -92.463615,-59.31559 -92.463615,-132.48513 0,-73.16954 41.397375,-132.48517 92.463615,-132.48517 51.06625,0 92.46362,59.31563 92.46362,132.48517 z"
         style="color:#000000;fill:#fcd116;fill-opacity:1;stroke:none;stroke-width:1.01699996;marker:none;visibility:visible;display:inline;overflow:visible;enable-background:accumulate"
         transform="matrix(0.40462336,-0.28892369,0.28578295,0.46688087,505.35708,532.0209)"
         inkscape:connector-curvature="0" />
      <path
         id="path16768-4-5"
         d="m 877.6875,805.53125 c -1.49664,-0.0127 -2.99811,0.0132 -4.5,0.0625 l 33.4375,136.875 c 1.42651,-0.27677 2.87125,-0.50098 4.34375,-0.59375 0.83792,-0.0528 1.66838,-0.0712 2.5,-0.0625 25.78014,0.26989 48.26056,29.75981 50.8125,67.4375 2.44193,36.0534 -14.22592,66.9292 -38.03125,72.5938 l -2.6875,3.5312 c 51.95059,-17.8294 86.7726,-76.1415 81.1563,-143.3125 -6.37924,-76.29388 -62.58817,-135.98474 -127.0313,-136.53125 z"
         style="color:#000000;fill:#c8c8c8;fill-opacity:1;stroke:none;stroke-width:1;marker:none;visibility:visible;display:inline;overflow:visible;enable-background:accumulate"
         inkscape:connector-curvature="0" />
      <path
         id="path16768-4-5-5-1"
         d="m 914.90625,1011.8125 -4.8125,36.875 c 5.64898,5.4309 7.37614,16.1251 3.65625,26.9063 -2.29948,6.6643 -6.2599,12.0939 -10.8125,15.5624 16.93704,-1.6513 29.2107,-21.5662 27.53125,-45.0624 -1.03156,-14.4322 -7.09431,-26.8901 -15.5625,-34.2813 z"
         style="color:#000000;fill:#c8c8c8;fill-opacity:1;stroke:none;stroke-width:1;marker:none;visibility:visible;display:inline;overflow:visible;enable-background:accumulate"
         inkscape:connector-curvature="0" />
      <rect
         ry="32.203129"
         y="1116.7676"
         x="622.09985"
         height="116.12644"
         width="519.76172"
         id="rect17844"
         style="color:#000000;fill:#002868;fill-opacity:1;fill-rule:nonzero;stroke:#000000;stroke-width:1.00724137;stroke-linecap:square;stroke-linejoin:bevel;stroke-miterlimit:4;stroke-opacity:1;stroke-dasharray:none;stroke-dashoffset:0;marker:none;visibility:visible;display:inline;overflow:visible;enable-background:accumulate" />
      <g
         id="text17840"
         style="font-size:101.38819885px;font-style:normal;font-variant:normal;font-weight:normal;font-stretch:normal;text-align:center;line-height:0%;letter-spacing:2px;word-spacing:0px;writing-mode:lr-tb;text-anchor:middle;fill:#ffffff;fill-opacity:1;stroke:#000000;stroke-opacity:1;font-family:Swiss 721;-inkscape-font-specification:'Swiss 721,'">
        <path
           id="path17951"
           style="font-weight:bold;line-height:0%;fill:#ffffff;stroke:#000000;-inkscape-font-specification:Swiss 721 Bold"
           d="m 666.17024,1184.4119 18.45242,0 c 7.22799,-0.042 12.74512,-2.0869 16.5514,-6.1339 3.80618,-4.047 5.72408,-9.8429 5.75371,-17.3879 -0.009,-7.6736 -1.96865,-13.4907 -5.88044,-17.4512 -3.9119,-3.9603 -9.72474,-5.9501 -17.43854,-5.9691 l -32.44381,0 0,72.8971 15.00526,0 z m 0,-13.1803 0,-21.0885 15.41081,0 c 3.49569,0.01 6.11062,0.9041 7.84481,2.6868 1.73409,1.7828 2.6001,4.4019 2.59804,7.8575 0.0126,3.7218 -0.89986,6.417 -2.73745,8.0856 -1.83768,1.6687 -4.67651,2.4882 -8.5165,2.4586 z"
           inkscape:connector-curvature="0" />
        <path
           id="path17953"
           style="font-weight:bold;line-height:0%;fill:#ffffff;stroke:#000000;-inkscape-font-specification:Swiss 721 Bold"
           d="m 720.88913,1210.3669 15.10665,0 0,-32.3424 30.11191,0 0,32.3424 15.10664,0 0,-72.8971 -15.10664,0 0,27.1717 -30.11191,0 0,-27.1717 -15.10665,0 z"
           inkscape:connector-curvature="0" />
        <path
           id="path17955"
           style="font-weight:bold;line-height:0%;fill:#ffffff;stroke:#000000;-inkscape-font-specification:Swiss 721 Bold"
           d="m 797.2257,1210.3669 14.39694,0 0,-53.8364 -14.39694,0 z m 0,-59.8182 14.39694,0 0,-13.0789 -14.39694,0 z"
           inkscape:connector-curvature="0" />
        <path
           id="path17957"
           style="font-weight:bold;line-height:0%;fill:#ffffff;stroke:#000000;-inkscape-font-specification:Swiss 721 Bold"
           d="m 826.95379,1210.3669 14.39694,0 0,-72.8971 -14.39694,0 z"
           inkscape:connector-curvature="0" />
        <path
           id="path17959"
           style="font-weight:bold;line-height:0%;fill:#ffffff;stroke:#000000;-inkscape-font-specification:Swiss 721 Bold"
           d="m 857.58486,1210.3669 14.09277,0 0,-58.8044 15.00526,58.8044 15.30943,0 14.80248,-58.8044 0,58.8044 14.09278,0 0,-72.8971 -22.30512,0 -14.29555,55.4586 -14.49832,-55.4586 -22.20373,0 z"
           inkscape:connector-curvature="0" />
        <path
           id="path17961"
           style="font-weight:bold;line-height:0%;fill:#ffffff;stroke:#000000;-inkscape-font-specification:Swiss 721 Bold"
           d="m 958.85326,1177.8218 c 0.31893,-3.6584 1.37926,-6.4296 3.18101,-8.3138 1.80171,-1.884 4.25612,-2.8303 7.36323,-2.8388 3.3584,0.01 5.94377,0.9548 7.75609,2.8388 1.81225,1.8842 2.77543,4.6554 2.88953,8.3138 z m 20.98709,16.2219 c -0.90408,2.0678 -2.16296,3.5844 -3.77667,4.5497 -1.61377,0.9653 -3.63306,1.4427 -6.05786,1.4321 -3.49999,-0.01 -6.18252,-1.0836 -8.04759,-3.2317 -1.86511,-2.1481 -2.9001,-5.3292 -3.10497,-9.5431 l 35.99235,0 c 0.0844,-1.3011 0.11823,-2.5515 0.10138,-3.7513 -0.0507,-9.3212 -2.3066,-16.4563 -6.76757,-21.4053 -4.46107,-4.9489 -10.82309,-7.4455 -19.08608,-7.4899 -7.83428,0.084 -13.96395,2.6276 -18.38905,7.6293 -4.42513,5.0018 -6.67676,11.9553 -6.7549,20.8604 0.0993,9.1523 2.41004,16.2705 6.93232,21.3546 4.52227,5.0841 10.66039,7.6653 18.4144,7.7434 6.44437,-0.053 11.83054,-1.6708 16.15854,-4.8539 4.3279,-3.1831 7.25544,-7.6146 8.78264,-13.2943 z"
           inkscape:connector-curvature="0" />
        <path
           id="path17963"
           style="font-weight:bold;line-height:0%;fill:#ffffff;stroke:#000000;-inkscape-font-specification:Swiss 721 Bold"
           d="m 1039.055,1190.0896 c -1.0308,6.4042 -4.2414,9.6148 -9.6318,9.6317 -3.4155,-0.019 -6.0388,-1.4004 -7.8701,-4.1442 -1.8313,-2.7437 -2.7565,-6.7358 -2.7755,-11.9763 -0.01,-5.5805 0.8681,-9.7796 2.6234,-12.5973 1.7552,-2.8177 4.4293,-4.2287 8.0222,-4.2329 2.6487,0.013 4.7779,0.7731 6.3874,2.2812 1.6095,1.5082 2.6234,3.688 3.0416,6.5394 l 14.2956,0 c -0.5619,-6.5964 -2.9107,-11.7291 -7.0464,-15.3981 -4.1358,-3.6689 -9.729,-5.5319 -16.7795,-5.5889 -7.9843,0.072 -14.2196,2.6149 -18.7059,7.6293 -4.4864,5.0145 -6.7676,12.0693 -6.8436,21.1645 0.074,9.1397 2.3086,16.2072 6.7042,21.2026 4.3955,4.9954 10.5083,7.5258 18.3383,7.5913 6.9746,-0.065 12.6184,-2.0383 16.9316,-5.9185 4.3131,-3.8801 6.814,-9.2747 7.5027,-16.1838 z"
           inkscape:connector-curvature="0" />
        <path
           id="path17965"
           style="font-weight:bold;line-height:0%;fill:#ffffff;stroke:#000000;-inkscape-font-specification:Swiss 721 Bold"
           d="m 1064.6567,1210.3669 14.2955,0 0,-31.9368 c 0.042,-3.5781 1.0477,-6.3578 3.0163,-8.3391 1.9686,-1.9812 4.6469,-2.9866 8.0349,-3.0163 3.9435,0.01 6.3725,1.2843 7.2872,3.8274 0.9145,2.5432 1.2905,6.3029 1.1279,11.2793 l 0,28.1855 14.2956,0 0,-35.8909 c 0.055,-2.6234 -0.08,-5.006 -0.4056,-7.1478 -0.3253,-2.1417 -1.1702,-4.1188 -2.5347,-5.9311 -1.5926,-1.9918 -3.6542,-3.5337 -6.1846,-4.6258 -2.5305,-1.092 -5.4031,-1.6454 -8.6178,-1.6602 -3.3036,0 -6.303,0.6105 -8.9981,1.8376 -2.6953,1.2273 -5.0356,3.0818 -7.0211,5.5636 l 0,-25.0425 -14.2955,0 z"
           inkscape:connector-curvature="0" />
      </g>
    </g>
  </g>
</svg>
