<?xml version="1.0" encoding="UTF-8" standalone="no"?>
<!-- Created with Inkscape (http://www.inkscape.org/) -->

<svg
   xmlns:dc="http://purl.org/dc/elements/1.1/"
   xmlns:cc="http://creativecommons.org/ns#"
   xmlns:rdf="http://www.w3.org/1999/02/22-rdf-syntax-ns#"
   xmlns:svg="http://www.w3.org/2000/svg"
   xmlns="http://www.w3.org/2000/svg"
   xmlns:sodipodi="http://sodipodi.sourceforge.net/DTD/sodipodi-0.dtd"
   xmlns:inkscape="http://www.inkscape.org/namespaces/inkscape"
   width="489.98767"
   height="320.04764"
   id="svg2"
   version="1.1"
   inkscape:version="0.48.5 r10040"
   sodipodi:docname="Philippine Drug Enforcement Agency (PDEA).svg">
  <title
     id="title4173">Philippine Drug Enforcement Agency (PDEA)</title>
  <defs
     id="defs4" />
  <sodipodi:namedview
     id="base"
     pagecolor="#ffffff"
     bordercolor="#666666"
     borderopacity="1.0"
     inkscape:pageopacity="0.0"
     inkscape:pageshadow="2"
     inkscape:zoom="0.57231461"
     inkscape:cx="244.98474"
     inkscape:cy="160.0146"
     inkscape:document-units="px"
     inkscape:current-layer="layer1"
     showgrid="false"
     inkscape:snap-bbox="true"
     inkscape:bbox-paths="true"
     inkscape:bbox-nodes="true"
     inkscape:snap-bbox-edge-midpoints="true"
     inkscape:object-paths="true"
     inkscape:snap-intersection-paths="true"
     inkscape:object-nodes="true"
     inkscape:snap-smooth-nodes="true"
     inkscape:snap-global="false"
     fit-margin-top="0"
     fit-margin-left="0"
     fit-margin-right="0"
     fit-margin-bottom="0"
     inkscape:window-width="1366"
     inkscape:window-height="705"
     inkscape:window-x="-8"
     inkscape:window-y="-8"
     inkscape:window-maximized="1" />
  <metadata
     id="metadata7">
    <rdf:RDF>
      <cc:Work
         rdf:about="">
        <dc:format>image/svg+xml</dc:format>
        <dc:type
           rdf:resource="http://purl.org/dc/dcmitype/StillImage" />
        <dc:title>Philippine Drug Enforcement Agency (PDEA)</dc:title>
      </cc:Work>
    </rdf:RDF>
  </metadata>
  <g
     inkscape:label="Layer 1"
     inkscape:groupmode="layer"
     id="layer1"
     transform="translate(-156.6475,-543.71588)">
    <g
       id="g4146">
      <path
         inkscape:connector-curvature="0"
         id="path3912"
         d="m 216.10635,788.18596 407.46018,-184.39069 16.81582,62.66021 -22.63668,65.92374 -40.74602,40.46805 -77.61146,48.95328 -74.37765,25.45571 -74.37765,12.4015 -64.67622,-5.22168 -44.62659,-9.79066 z"
         style="fill:#ce1126;fill-opacity:1;stroke:none" />
      <path
         sodipodi:nodetypes="cccccccccc"
         inkscape:connector-curvature="0"
         id="path3910"
         d="m 165.20062,737.32452 16.46388,-57.23046 47.56231,-51.69203 91.46598,-51.69202 75.91677,-23.0768 102.4419,-3.69229 70.42881,15.69222 52.14597,38.81484 -405.51989,183.73798 z"
         style="fill:#0038a8;fill-opacity:1;stroke:none" />
      <path
         sodipodi:nodetypes="ccccc"
         inkscape:connector-curvature="0"
         id="path3880"
         d="m 191.52939,667.76089 -23.60682,66.57647 2.91043,3.26355 25.54711,-69.51366 z"
         style="fill:#fcd116;fill-opacity:1;stroke:none" />
      <path
         inkscape:connector-curvature="0"
         id="path3882"
         d="m 176.97724,734.33736 30.72121,-79.63067 11.31834,-11.42244 -37.8356,92.68488 z"
         style="fill:#fcd116;fill-opacity:1;stroke:none" />
      <path
         inkscape:connector-curvature="0"
         id="path3884"
         d="m 262.34985,609.34331 -73.08413,125.3204 3.23381,2.61085 80.84528,-135.11106 z"
         style="fill:#fcd116;fill-opacity:1;stroke:none" />
      <path
         inkscape:connector-curvature="0"
         id="path3886"
         d="M 194.7632,737.60091 288.22034,594.65733 334.14045,574.74966 202.84773,741.51717 z"
         style="fill:#fcd116;fill-opacity:1;stroke:none" />
      <path
         inkscape:connector-curvature="0"
         id="path3888"
         d="m 343.5185,571.48611 -137.43696,172.96826 4.52733,0 140.99416,-174.60004 z"
         style="fill:#fcd116;fill-opacity:1;stroke:none" />
      <path
         inkscape:connector-curvature="0"
         id="path3890"
         d="m 449.5875,550.92573 -236.71495,197.77126 3.2338,3.26355 242.53582,-201.68752 z"
         style="fill:#fcd116;fill-opacity:1;stroke:none" />
      <path
         inkscape:connector-curvature="0"
         id="path3892"
         d="m 218.6934,755.22409 247.06316,-204.29836 59.50212,6.5271 -302.03794,206.90921 z"
         style="fill:#fcd116;fill-opacity:1;stroke:none" />
      <path
         inkscape:connector-curvature="0"
         id="path3894"
         d="m 539.48745,559.41097 -314.97319,208.21462 2.58705,2.61084 318.20699,-209.52004 z"
         style="fill:#fcd116;fill-opacity:1;stroke:none" />
      <path
         inkscape:connector-curvature="0"
         id="path3896"
         d="m 614.51186,601.18443 -382.23645,176.88452 3.23381,2.61085 384.8235,-176.23181 z"
         style="fill:#fcd116;fill-opacity:1;stroke:none" />
      <path
         inkscape:connector-curvature="0"
         id="path3898"
         d="m 628.09387,614.89135 c -5.1741,0 -393.87818,171.01013 -393.87818,171.01013 l 3.23381,11.74879 402.28609,-131.8475 z"
         style="fill:#fcd116;fill-opacity:1;stroke:none" />
      <path
         sodipodi:nodetypes="ccccc"
         inkscape:connector-curvature="0"
         id="path3900"
         d="m 238.41965,800.58746 396.14184,-122.05684 -1.29353,5.8744 -393.55478,119.77235 z"
         style="fill:#fcd116;fill-opacity:1;stroke:none" />
      <path
         inkscape:connector-curvature="0"
         id="path3902"
         d="m 239.06641,809.0727 359.59978,-63.96562 -4.52734,6.85346 -354.74906,60.70207 z"
         style="fill:#fcd116;fill-opacity:1;stroke:none" />
      <path
         sodipodi:nodetypes="cccccc"
         inkscape:connector-curvature="0"
         id="path3904"
         d="m 241.33008,817.23158 347.63467,-57.43851 -37.91955,30.1584 -47.77643,28.91189 -260.32179,9.4643 z"
         style="fill:#fcd116;fill-opacity:1;stroke:none" />
      <path
         inkscape:connector-curvature="0"
         id="path3906"
         d="m 243.59375,832.57028 250.29697,-9.79066 -8.40792,4.24262 -241.88905,8.48524 z"
         style="fill:none;stroke:none" />
      <path
         inkscape:connector-curvature="0"
         id="path3908"
         d="m 245.53403,840.07644 163.30746,8.48524 -11.64172,3.26355 -150.69559,-9.13795 z"
         style="fill:#fcd116;fill-opacity:1;stroke:none" />
      <path
         id="path3914"
         d="m 169.54239,724.86835 c -1.53165,0 -3.04953,0.0226 -4.56186,0.10096 -3.58241,15.23147 -3.54783,30.82133 1.08044,46.46225 11.25759,38.0443 43.75937,61.59522 84.95475,74.34767 3.95017,-10.06704 6.1025,-21.04413 6.1025,-32.52963 0,-48.81321 -39.20745,-88.38125 -87.57583,-88.38125 z"
         style="color:#000000;fill:#fcd116;fill-opacity:1;fill-rule:nonzero;stroke:none;stroke-width:1;marker:none;visibility:visible;display:inline;overflow:visible;enable-background:accumulate"
         inkscape:connector-curvature="0" />
      <path
         sodipodi:nodetypes="aaaaa"
         inkscape:connector-curvature="0"
         id="path3916"
         d="M 166.0543,771.42557 C 138.66355,678.86035 272.17607,588.15652 364.001,562.15179 c 90.7883,-25.71118 245.71201,-17.2805 273.17756,74.12208 25.87277,86.10189 -90.80262,175.51964 -175.243,203.37113 -96.18221,31.72438 -266.82285,29.98159 -295.88126,-68.21943 z"
         style="fill:none;stroke:#638c08;stroke-width:11.57758904;stroke-linecap:round;stroke-linejoin:round;stroke-miterlimit:4;stroke-opacity:1;stroke-dasharray:none" />
      <path
         transform="matrix(0.94372863,0,0,0.91896504,-187.62999,416.89387)"
         d="m 838.42662,304.67813 a 202.0305,118.18785 0 1 1 -404.061,0 202.0305,118.18785 0 1 1 404.061,0 z"
         sodipodi:ry="118.18785"
         sodipodi:rx="202.0305"
         sodipodi:cy="304.67813"
         sodipodi:cx="636.39612"
         id="path3951"
         style="color:#000000;fill:#638c08;fill-opacity:1;fill-rule:nonzero;stroke:none;stroke-width:18;marker:none;visibility:visible;display:inline;overflow:visible;enable-background:accumulate"
         sodipodi:type="arc" />
      <g
         id="text3975"
         style="font-size:194.09132385px;font-style:normal;font-weight:normal;line-height:125%;letter-spacing:-3.90669084px;word-spacing:0px;fill:#ffffff;fill-opacity:1;stroke:none;font-family:Sans"
         transform="matrix(0.63809223,0,0,0.65974548,55.6719,297.71397)">
        <path
           id="path4086"
           style="font-variant:normal;font-weight:bold;font-stretch:normal;fill:#ffffff;font-family:Gotham Bold;-inkscape-font-specification:Gotham Bold"
           d="m 348.14222,605.93847 c 7.50659,6e-5 13.33007,-1.97335 17.47047,-5.92024 4.14022,-3.94675 6.21038,-8.83239 6.21047,-14.65695 l 0,-0.38501 c -9e-5,-6.72866 -2.16699,-11.84037 -6.50071,-15.33516 -4.33389,-3.49458 -10.25412,-5.24192 -17.7607,-5.24203 l -23.09455,0 0,41.53939 z m -53.56347,-68.51955 55.50628,0 c 8.15419,1.4e-4 15.43379,1.13245 21.83883,3.39695 6.40485,2.26477 11.83937,5.46724 16.3036,9.60743 4.464,4.14043 7.89254,9.09025 10.28563,14.84946 2.39285,5.75942 3.58933,12.13179 3.58946,19.11711 l 0,0.39094 c -1.3e-4,7.89372 -1.42367,14.81596 -4.27063,20.76672 -2.8472,5.95091 -6.76144,10.93231 -11.74274,14.94423 -4.98151,4.01203 -10.80401,7.02101 -17.46751,9.02695 -6.66368,2.00603 -13.81198,3.00903 -21.44493,3.00899 l -22.70954,0 0,40.75752 -29.88845,0 z"
           inkscape:connector-curvature="0" />
        <path
           id="path4088"
           style="font-variant:normal;font-weight:bold;font-stretch:normal;fill:#ffffff;font-family:Gotham Bold;-inkscape-font-specification:Gotham Bold"
           d="m 473.302,646.30505 c 6.08107,3e-5 11.64492,-0.97038 16.69157,-2.91125 5.04647,-1.9408 9.34868,-4.72272 12.90664,-8.34578 3.55777,-3.62298 6.33969,-7.89262 8.34579,-12.80892 2.00588,-4.91619 3.00887,-10.41489 3.00898,-16.4961 l 0,-0.39093 c -1.1e-4,-5.95077 -1.0031,-11.44946 -3.00898,-16.4961 -2.0061,-5.04648 -4.78802,-9.38127 -8.34579,-13.00438 -3.55796,-3.62293 -7.86017,-6.43743 -12.90664,-8.44352 -5.04665,-2.00588 -10.6105,-3.00888 -16.69157,-3.00899 l -23.09455,0 0,81.90597 z m -52.983,-108.88613 52.983,0 c 10.61034,1.4e-4 20.34708,1.7149 29.21024,5.1443 8.86297,3.42966 16.49698,8.18499 22.90204,14.26602 6.40483,6.08126 11.35464,13.23055 14.84946,21.4479 3.49455,8.21753 5.24189,17.11416 5.24203,26.68992 l 0,0.38501 c -1.4e-4,9.57589 -1.74748,18.50412 -5.24203,26.7847 -3.49482,8.28066 -8.44463,15.46253 -14.84946,21.54563 -6.40506,6.08313 -14.03907,10.87105 -22.90204,14.36375 -8.86316,3.49271 -18.5999,5.23907 -29.21024,5.23907 l -52.983,0 z"
           inkscape:connector-curvature="0" />
        <path
           id="path4090"
           style="font-variant:normal;font-weight:bold;font-stretch:normal;fill:#ffffff;font-family:Gotham Bold;-inkscape-font-specification:Gotham Bold"
           d="m 568.04616,537.41892 102.47723,0 0,26.59516 -72.78425,0 0,27.56063 64.04753,0 0,26.58923 -64.04753,0 0,28.53205 73.75565,0 0,26.58923 -103.44863,0 z"
           inkscape:connector-curvature="0" />
        <path
           id="path4092"
           style="font-variant:normal;font-weight:bold;font-stretch:normal;fill:#ffffff;font-family:Gotham Bold;-inkscape-font-specification:Gotham Bold"
           d="m 772.18583,616.4166 -18.04798,-44.05674 -18.0539,44.05674 z m -31.44033,-79.96316 27.56064,0 58.22503,136.83178 -31.24487,0 -12.42687,-30.47485 -57.44909,0 -12.42094,30.47485 -30.47485,0 z"
           inkscape:connector-curvature="0" />
      </g>
    </g>
  </g>
</svg>
