<?xml version="1.0" encoding="UTF-8" standalone="no"?>
<!-- Created with Inkscape (http://www.inkscape.org/) -->

<svg
   xmlns:dc="http://purl.org/dc/elements/1.1/"
   xmlns:cc="http://creativecommons.org/ns#"
   xmlns:rdf="http://www.w3.org/1999/02/22-rdf-syntax-ns#"
   xmlns:svg="http://www.w3.org/2000/svg"
   xmlns="http://www.w3.org/2000/svg"
   xmlns:sodipodi="http://sodipodi.sourceforge.net/DTD/sodipodi-0.dtd"
   xmlns:inkscape="http://www.inkscape.org/namespaces/inkscape"
   width="480"
   height="640"
   id="svg2"
   version="1.1"
   inkscape:version="0.48.5 r10040"
   sodipodi:docname="Philippine Commission on Women (PCW).svg">
  <title
     id="title4905">Philippine Commission on Women (PCW)</title>
  <defs
     id="defs4" />
  <sodipodi:namedview
     id="base"
     pagecolor="#ffffff"
     bordercolor="#666666"
     borderopacity="1.0"
     inkscape:pageopacity="0.0"
     inkscape:pageshadow="2"
     inkscape:zoom="0.5123762"
     inkscape:cx="73.582797"
     inkscape:cy="303.03721"
     inkscape:document-units="px"
     inkscape:current-layer="layer1"
     showgrid="false"
     inkscape:snap-bbox="true"
     inkscape:bbox-paths="false"
     inkscape:bbox-nodes="false"
     inkscape:snap-bbox-edge-midpoints="false"
     inkscape:snap-bbox-midpoints="false"
     inkscape:object-paths="false"
     inkscape:snap-intersection-paths="false"
     inkscape:object-nodes="false"
     inkscape:snap-smooth-nodes="false"
     inkscape:snap-object-midpoints="true"
     inkscape:snap-midpoints="true"
     inkscape:snap-center="true"
     inkscape:snap-global="true"
     fit-margin-top="0"
     fit-margin-left="0"
     fit-margin-right="0"
     fit-margin-bottom="0"
     inkscape:snap-nodes="true"
     inkscape:window-width="1366"
     inkscape:window-height="705"
     inkscape:window-x="-8"
     inkscape:window-y="-8"
     inkscape:window-maximized="1" />
  <metadata
     id="metadata7">
    <rdf:RDF>
      <cc:Work
         rdf:about="">
        <dc:format>image/svg+xml</dc:format>
        <dc:type
           rdf:resource="http://purl.org/dc/dcmitype/StillImage" />
        <dc:title>Philippine Commission on Women (PCW)</dc:title>
      </cc:Work>
    </rdf:RDF>
  </metadata>
  <g
     inkscape:label="Layer 1"
     inkscape:groupmode="layer"
     id="layer1"
     transform="translate(-219.94136,-9.34876)">
    <g
       id="g4907">
      <path
         inkscape:connector-curvature="0"
         id="rect4587"
         d="m 219.94136,9.34876 480,0 0,640 -480,0 z"
         style="color:#000000;fill:#7030a0;fill-opacity:1;fill-rule:nonzero;stroke:none;stroke-width:0.30000001;marker:none;visibility:visible;display:inline;overflow:visible;enable-background:accumulate" />
      <path
         sodipodi:nodetypes="cccccccccsccccccscccscccccccccscccccccccccscscc"
         inkscape:connector-curvature="0"
         id="path2996"
         transform="translate(217.75386,8.6925097)"
         d="m 48.125,40.90625 c 0,0 -2.35696,21.51047 -3.53125,52.5625 l 89.6875,0 0,35.40625 -90.34375,0 c 0.0243,9.51727 0.23062,19.42495 0.65625,29.46875 l 89.6875,0 0,35.40625 -87.15625,0 c 4.0022,38.29697 12.43643,75.21719 28.78125,99 49.5759,72.13625 147.14685,82.84999 191.46875,83.8125 l 0,-39.90625 -34.375,0 0,-45.71875 34.375,0 0,-31.8125 c -30.49316,-9.67938 -52.59375,-38.1442 -52.59375,-71.78125 0,-28.60186 15.96962,-53.46788 39.5,-66.21875 0.0287,-0.0155 0.0651,-0.0161 0.0937,-0.0312 1.16639,-0.63241 2.35994,-1.20957 3.5625,-1.78125 2.10124,-0.99596 4.23489,-1.91625 6.4375,-2.71875 0.77203,-0.28129 1.5289,-0.52462 2.3125,-0.78125 0.36926,-0.12136 0.75322,-0.25921 1.125,-0.375 0.0219,-0.007 0.0406,-0.0246 0.0625,-0.0312 0.69932,-0.2171 1.38585,-0.39661 2.09375,-0.59375 2.86526,-0.7956 5.82091,-1.45025 8.8125,-1.90625 1.23657,-0.18858 2.49441,-0.37221 3.75,-0.5 1.26861,-0.12851 2.55738,-0.2162 3.84375,-0.28125 1.28387,-0.065 2.57497,-0.0937 3.875,-0.0937 l 0,-0.3125 c 19.47518,0 35.28125,-15.749165 35.28125,-35.1875 2e-5,-19.438555 -15.80607,-35.1875 -35.28125,-35.1875 z m 308.625,98.75 c 1.45029,16.02859 8.45351,32.8358 8.84375,47.5625 0,33.46764 -21.93481,61.81897 -52.21875,71.5625 -0.66529,10.25902 -0.25,20.55079 -0.25,32.15625 l 34.40625,0 0,45.71875 -34.40625,0 0,38.59375 c 184.72886,-36.83692 91.9081,-161.87364 90.53125,-207.125 1.28515,-17.8855 7.16438,-31.64632 20.30496,-40.91363 6.00844,-4.23741 9.07734,-6.53944 13.91741,-12.43037 0,0 -19.26276,3.41468 -37.78141,0.0526 -31.72677,-5.76003 -42.76909,5.83142 -43.34721,24.82261 z"
         style="color:#000000;fill:#ffffff;stroke:#ffc0cb;stroke-width:1.00845706;stroke-linecap:square;stroke-linejoin:miter;stroke-miterlimit:4;stroke-opacity:1;stroke-dasharray:none;marker:none;visibility:visible;display:inline;overflow:visible;enable-background:accumulate" />
      <path
         inkscape:connector-curvature="0"
         id="path3830"
         d="m 530.56579,158.5473 c 0,12.43195 -10.09719,22.51005 -22.55271,22.51005 -12.45552,0 -22.55272,-10.0781 -22.55272,-22.51005 0,-12.43196 10.0972,-22.51005 22.55272,-22.51005 12.45552,0 22.55271,10.07809 22.55271,22.51005 z"
         style="color:#000000;fill:#fcd116;fill-opacity:1;stroke:#ffc0cb;stroke-width:0.50422853;stroke-linecap:butt;stroke-linejoin:miter;stroke-miterlimit:4;stroke-opacity:1;stroke-dashoffset:0;marker:none;visibility:visible;display:inline;overflow:visible;enable-background:accumulate" />
      <path
         inkscape:connector-curvature="0"
         id="path3826-9"
         d="m 452.53251,172.89381 c -3.03115,7.23241 -4.59347,14.98667 -4.637,22.82624 -0.17406,31.34992 23.75177,57.20836 54.44518,60.07236 l 0,-62.11885 -49.80818,-20.77975 z"
         style="color:#000000;fill:#0038a8;fill-opacity:1;stroke:#ffc0cb;stroke-width:0.50422853;stroke-linecap:butt;stroke-linejoin:miter;stroke-miterlimit:4;stroke-opacity:1;stroke-dasharray:none;stroke-dashoffset:0;marker:none;visibility:visible;display:inline;overflow:visible;enable-background:accumulate" />
      <path
         inkscape:connector-curvature="0"
         id="path3826-9-4"
         d="m 563.47322,172.9253 -49.80819,20.81123 0,62.08736 c 30.69341,-2.864 54.65078,-28.72243 54.47672,-60.07235 -0.0435,-7.83958 -1.63739,-15.59383 -4.66853,-22.82624 z"
         style="color:#000000;fill:#ce1126;fill-opacity:1;stroke:#ffc0cb;stroke-width:0.50422853;stroke-linecap:butt;stroke-linejoin:miter;stroke-miterlimit:4;stroke-opacity:1;stroke-dasharray:none;stroke-dashoffset:0;marker:none;visibility:visible;display:inline;overflow:visible;enable-background:accumulate" />
      <g
         transform="matrix(1.0094122,0,0,1.0075028,-14.470466,-4.8674669)"
         id="text4777"
         style="font-size:70px;font-style:normal;font-variant:normal;font-weight:normal;font-stretch:normal;text-align:center;line-height:125%;letter-spacing:0px;word-spacing:0px;writing-mode:lr-tb;text-anchor:middle;fill:#ffffff;fill-opacity:1;stroke:#7030a0;stroke-width:2;stroke-miterlimit:4;stroke-opacity:1;font-family:Swiss 721;-inkscape-font-specification:'Swiss 721,'">
        <path
           inkscape:connector-curvature="0"
           id="path4789"
           style="font-weight:bold;line-height:100%;fill:#ffffff;stroke:#7030a0;-inkscape-font-specification:Swiss 721 Bold"
           d="m 313.65552,456.98346 12.73984,0 c 4.99032,-0.0291 8.79943,-1.4408 11.42735,-4.23495 2.62784,-2.7941 3.95199,-6.79571 3.97245,-12.00484 -0.006,-5.29802 -1.35919,-9.31421 -4.05995,-12.0486 -2.70083,-2.73429 -6.71411,-4.10802 -12.03984,-4.12119 l -22.39971,0 0,50.32935 10.35986,0 z m 0,-9.09988 0,-14.55982 10.63987,0 c 2.41348,0.006 4.21887,0.6242 5.41617,1.85498 1.19725,1.23085 1.79516,3.03916 1.79373,5.42493 0.009,2.56958 -0.62127,4.43039 -1.88997,5.58243 -1.26877,1.15209 -3.22874,1.71792 -5.87993,1.69748 z" />
        <path
           inkscape:connector-curvature="0"
           id="path4791"
           style="font-weight:bold;line-height:100%;fill:#ffffff;stroke:#7030a0;-inkscape-font-specification:Swiss 721 Bold"
           d="m 349.42348,474.90323 9.86987,0 0,-22.04972 c 0.0292,-2.47036 0.72331,-4.3895 2.08247,-5.75743 1.35913,-1.36787 3.20828,-2.06202 5.54743,-2.08247 2.72265,0.006 4.39971,0.88669 5.03119,2.64247 0.63142,1.75584 0.891,4.35163 0.77874,7.7874 l 0,19.45975 9.86987,0 0,-24.77968 c 0.0379,-1.8112 -0.0555,-3.45618 -0.28,-4.93494 -0.22462,-1.4787 -0.80794,-2.84368 -1.74997,-4.09495 -1.09961,-1.37515 -2.52292,-2.43972 -4.26995,-3.19371 -1.74709,-0.75391 -3.7304,-1.13599 -5.94992,-1.14623 -2.28083,-10e-4 -4.35164,0.42149 -6.21242,1.26873 -1.86083,0.84732 -3.47664,2.12772 -4.84744,3.8412 l 0,-17.28977 -9.86987,0 z" />
        <path
           inkscape:connector-curvature="0"
           id="path4793"
           style="font-weight:bold;line-height:100%;fill:#ffffff;stroke:#7030a0;-inkscape-font-specification:Swiss 721 Bold"
           d="m 391.53285,474.90323 9.93987,0 0,-37.16952 -9.93987,0 z m 0,-41.29947 9.93987,0 0,-9.02988 -9.93987,0 z" />
        <path
           inkscape:connector-curvature="0"
           id="path4795"
           style="font-weight:bold;line-height:100%;fill:#ffffff;stroke:#7030a0;-inkscape-font-specification:Swiss 721 Bold"
           d="m 410.67676,474.90323 9.93987,0 0,-50.32935 -9.93987,0 z" />
        <path
           inkscape:connector-curvature="0"
           id="path4797"
           style="font-weight:bold;line-height:100%;fill:#ffffff;stroke:#7030a0;-inkscape-font-specification:Swiss 721 Bold"
           d="m 429.8141,474.90323 9.93987,0 0,-37.16952 -9.93987,0 z m 0,-41.29947 9.93987,0 0,-9.02988 -9.93987,0 z" />
        <path
           inkscape:connector-curvature="0"
           id="path4799"
           style="font-weight:bold;line-height:100%;fill:#ffffff;stroke:#7030a0;-inkscape-font-specification:Swiss 721 Bold"
           d="m 448.81801,489.81304 9.65987,0 0,-19.52975 c 1.23226,1.92935 2.77516,3.39058 4.62869,4.38369 1.8535,0.99311 3.97389,1.49185 6.36117,1.49623 4.43325,-0.0685 8.06153,-1.87393 10.88486,-5.41618 2.82326,-3.54224 4.28157,-8.41009 4.37495,-14.60356 -0.0773,-6.02573 -1.51523,-10.7915 -4.3137,-14.29732 -2.79854,-3.50575 -6.4939,-5.29656 -11.08611,-5.37243 -2.39457,-0.009 -4.48288,0.49879 -6.26492,1.52248 -1.78207,1.02378 -3.38039,2.61626 -4.79493,4.77744 l 0,-5.03993 -9.44988,0 z m 26.03966,-33.24958 c -0.0292,3.48977 -0.75835,6.18765 -2.18747,8.09365 -1.42918,1.90602 -3.38331,2.87143 -5.86242,2.89621 -2.64395,-0.016 -4.68851,-0.96393 -6.13368,-2.84371 -1.4452,-1.87976 -2.17727,-4.59514 -2.19622,-8.14615 0.0102,-3.8193 0.70727,-6.69801 2.09123,-8.63614 1.38392,-1.93807 3.39348,-2.9093 6.02867,-2.91371 2.67161,0.009 4.71324,0.98877 6.12492,2.93997 1.41162,1.95124 2.12327,4.8212 2.13497,8.60988 z" />
        <path
           inkscape:connector-curvature="0"
           id="path4801"
           style="font-weight:bold;line-height:100%;fill:#ffffff;stroke:#7030a0;-inkscape-font-specification:Swiss 721 Bold"
           d="m 491.7477,489.81304 9.65987,0 0,-19.52975 c 1.23226,1.92935 2.77516,3.39058 4.62869,4.38369 1.8535,0.99311 3.97389,1.49185 6.36117,1.49623 4.43325,-0.0685 8.06153,-1.87393 10.88486,-5.41618 2.82326,-3.54224 4.28157,-8.41009 4.37494,-14.60356 -0.0773,-6.02573 -1.51523,-10.7915 -4.31369,-14.29732 -2.79854,-3.50575 -6.49391,-5.29656 -11.08611,-5.37243 -2.39457,-0.009 -4.48288,0.49879 -6.26492,1.52248 -1.78208,1.02378 -3.38039,2.61626 -4.79494,4.77744 l 0,-5.03993 -9.44987,0 z m 26.03966,-33.24958 c -0.0292,3.48977 -0.75835,6.18765 -2.18747,8.09365 -1.42918,1.90602 -3.38332,2.87143 -5.86243,2.89621 -2.64394,-0.016 -4.6885,-0.96393 -6.13367,-2.84371 -1.4452,-1.87976 -2.17728,-4.59514 -2.19622,-8.14615 0.0102,-3.8193 0.70727,-6.69801 2.09122,-8.63614 1.38393,-1.93807 3.39348,-2.9093 6.02868,-2.91371 2.6716,0.009 4.71324,0.98877 6.12492,2.93997 1.41162,1.95124 2.12327,4.8212 2.13497,8.60988 z" />
        <path
           inkscape:connector-curvature="0"
           id="path4803"
           style="font-weight:bold;line-height:100%;fill:#ffffff;stroke:#7030a0;-inkscape-font-specification:Swiss 721 Bold"
           d="m 534.67738,474.90323 9.93987,0 0,-37.16952 -9.93987,0 z m 0,-41.29947 9.93987,0 0,-9.02988 -9.93987,0 z" />
        <path
           inkscape:connector-curvature="0"
           id="path4805"
           style="font-weight:bold;line-height:100%;fill:#ffffff;stroke:#7030a0;-inkscape-font-specification:Swiss 721 Bold"
           d="m 553.47129,474.90323 9.93987,0 0,-22.04972 c 0.0292,-2.47036 0.72331,-4.3895 2.08248,-5.75743 1.35913,-1.36787 3.20827,-2.06202 5.54743,-2.08247 2.10724,-0.006 3.59763,0.60086 4.47119,1.81998 0.8735,1.21918 1.29641,3.08582 1.26873,5.59993 l 0,22.46971 9.93987,0 0,-25.33967 c 0.0116,-8.53986 -4.07164,-12.8098 -12.24984,-12.80984 -4.70163,0.0117 -8.45824,1.80835 -11.26985,5.38993 l 0,-4.40994 -9.72988,0 z" />
        <path
           inkscape:connector-curvature="0"
           id="path4807"
           style="font-weight:bold;line-height:100%;fill:#ffffff;stroke:#7030a0;-inkscape-font-specification:Swiss 721 Bold"
           d="m 603.70712,452.43352 c 0.22019,-2.52578 0.95227,-4.43908 2.19622,-5.73993 1.24393,-1.30079 2.93849,-1.95411 5.08369,-1.95997 2.31869,0.006 4.10367,0.65919 5.35493,1.95997 1.2512,1.30084 1.9162,3.21415 1.99497,5.73993 z m 14.48981,11.19985 c -0.62418,1.4277 -1.49334,2.47477 -2.60746,3.14121 -1.11418,0.66646 -2.50833,0.99604 -4.18245,0.98874 -2.41644,-0.004 -4.2685,-0.74811 -5.55618,-2.23122 -1.2877,-1.4831 -2.00228,-3.67932 -2.14372,-6.58867 l 24.84968,0 c 0.0583,-0.8983 0.0816,-1.76162 0.07,-2.58996 -0.035,-6.43552 -1.59251,-11.3617 -4.67244,-14.77856 -3.07999,-3.4168 -7.47243,-5.14052 -13.17733,-5.17119 -5.4089,0.0584 -9.64093,1.81419 -12.69609,5.26744 -3.05517,3.45331 -4.60973,8.25408 -4.66369,14.40231 0.0685,6.31889 1.66394,11.2334 4.78619,14.74356 3.12224,3.51016 7.3601,5.29222 12.71359,5.34618 4.44929,-0.0365 8.16799,-1.15352 11.1561,-3.3512 2.98806,-2.19768 5.00928,-5.25722 6.06368,-9.17864 z" />
        <path
           inkscape:connector-curvature="0"
           id="path4809"
           style="font-weight:bold;line-height:100%;fill:#ffffff;stroke:#7030a0;-inkscape-font-specification:Swiss 721 Bold"
           d="m 305.34751,527.61345 -10.14987,0 c -0.61107,3.02164 -1.90897,5.32578 -3.8937,6.91241 -1.9848,1.58666 -4.56018,2.38581 -7.72615,2.39747 -4.33267,-0.0233 -7.67221,-1.49914 -10.01862,-4.42744 -2.34644,-2.92828 -3.53351,-7.16906 -3.5612,-12.72234 0.0116,-5.65094 1.1958,-9.94129 3.55245,-12.87108 2.35662,-2.92972 5.81574,-4.40261 10.37737,-4.4187 3.22868,0.0103 5.78364,0.75983 7.6649,2.24873 1.88119,1.48897 3.03617,3.65603 3.46496,6.50116 l 10.21986,0 c -0.3865,-5.71072 -2.41355,-10.12649 -6.08117,-13.24733 -3.6677,-3.12074 -8.75721,-4.70155 -15.26855,-4.74244 -7.942,0.0336 -14.00275,2.31148 -18.18227,6.83367 -4.17953,4.52227 -6.28534,11.0876 -6.31742,19.69599 0.0554,8.48595 2.13206,15.01628 6.22992,19.591 4.09785,4.57473 9.88444,6.88762 17.35978,6.93866 6.57842,-0.07 11.83127,-1.76748 15.75855,-5.09243 3.92719,-3.32495 6.11758,-7.85739 6.57116,-13.59733 z" />
        <path
           inkscape:connector-curvature="0"
           id="path4811"
           style="font-weight:bold;line-height:100%;fill:#ffffff;stroke:#7030a0;-inkscape-font-specification:Swiss 721 Bold"
           d="m 310.88796,526.28347 c 0.0539,6.24889 1.73101,11.1109 5.03118,14.58606 3.30016,3.47516 7.89968,5.23972 13.79857,5.29368 5.89886,-0.054 10.49838,-1.81852 13.79858,-5.29368 3.30012,-3.47516 4.97718,-8.33717 5.03118,-14.58606 -0.054,-6.24886 -1.73105,-11.11087 -5.03118,-14.58607 -3.3002,-3.47512 -7.89972,-5.23968 -13.79858,-5.29368 -5.89889,0.054 -10.49841,1.81856 -13.79857,5.29369 -3.30017,3.47519 -4.97723,8.33721 -5.03118,14.58606 z m 10.07987,0 c 0.0189,-3.72452 0.78602,-6.56531 2.30122,-8.52239 1.51517,-1.95703 3.66472,-2.94285 6.44866,-2.95746 2.78099,0.0146 4.91887,1.00043 6.41367,2.95746 1.49474,1.95708 2.25015,4.79787 2.26622,8.52239 -0.0161,3.72746 -0.77147,6.57992 -2.26622,8.55739 -1.4948,1.97748 -3.63268,2.97497 -6.41367,2.99246 -2.78394,-0.0175 -4.93349,-1.01498 -6.44866,-2.99246 -1.51521,-1.97746 -2.28228,-4.82992 -2.30122,-8.55739 z" />
        <path
           inkscape:connector-curvature="0"
           id="path4813"
           style="font-weight:bold;line-height:100%;fill:#ffffff;stroke:#7030a0;-inkscape-font-specification:Swiss 721 Bold"
           d="m 355.29746,544.90323 9.79988,0 0,-22.46971 c 0.0262,-2.25745 0.60373,-4.00742 1.73248,-5.24993 1.12871,-1.24246 2.65119,-1.87245 4.56744,-1.88998 1.69453,0.007 3.01285,0.50023 3.95494,1.47873 0.94205,0.97856 1.42038,2.39895 1.43499,4.2612 l 0,23.86969 9.72987,0 0,-22.53971 c 0.0262,-2.22391 0.60371,-3.95347 1.73248,-5.18868 1.1287,-1.23517 2.65118,-1.86224 4.56744,-1.88123 1.73098,0.009 3.08137,0.49877 4.0512,1.46998 0.96973,0.97126 1.46264,2.37125 1.47873,4.19995 l 0,23.93969 9.79987,0 0,-25.96967 c -0.0438,-3.84846 -1.14629,-6.84384 -3.30746,-8.98613 -2.16127,-2.14223 -5.11873,-3.23013 -8.87238,-3.26371 -2.20793,0.004 -4.19707,0.46816 -5.96743,1.39123 -1.77043,0.92315 -3.30457,2.27938 -4.60243,4.0687 -1.21044,-1.88119 -2.65708,-3.26367 -4.33995,-4.14745 -1.68292,-0.8837 -3.68956,-1.32119 -6.01992,-1.31248 -4.12997,0.0117 -7.55992,1.73835 -10.28987,5.17993 l 0,-4.12994 -9.44988,0 z" />
        <path
           inkscape:connector-curvature="0"
           id="path4815"
           style="font-weight:bold;line-height:100%;fill:#ffffff;stroke:#7030a0;-inkscape-font-specification:Swiss 721 Bold"
           d="m 416.68418,544.90323 9.79988,0 0,-22.46971 c 0.0262,-2.25745 0.60373,-4.00742 1.73247,-5.24993 1.12872,-1.24246 2.6512,-1.87245 4.56745,-1.88998 1.69453,0.007 3.01285,0.50023 3.95494,1.47873 0.94205,0.97856 1.42038,2.39895 1.43499,4.2612 l 0,23.86969 9.72987,0 0,-22.53971 c 0.0262,-2.22391 0.60371,-3.95347 1.73248,-5.18868 1.1287,-1.23517 2.65117,-1.86224 4.56744,-1.88123 1.73097,0.009 3.08137,0.49877 4.0512,1.46998 0.96973,0.97126 1.46264,2.37125 1.47873,4.19995 l 0,23.93969 9.79987,0 0,-25.96967 c -0.0438,-3.84846 -1.14629,-6.84384 -3.30746,-8.98613 -2.16127,-2.14223 -5.11873,-3.23013 -8.87238,-3.26371 -2.20793,0.004 -4.19707,0.46816 -5.96743,1.39123 -1.77043,0.92315 -3.30457,2.27938 -4.60244,4.0687 -1.21043,-1.88119 -2.65708,-3.26367 -4.33994,-4.14745 -1.68292,-0.8837 -3.68956,-1.32119 -6.01992,-1.31248 -4.12997,0.0117 -7.55992,1.73835 -10.28987,5.17993 l 0,-4.12994 -9.44988,0 z" />
        <path
           inkscape:connector-curvature="0"
           id="path4817"
           style="font-weight:bold;line-height:100%;fill:#ffffff;stroke:#7030a0;-inkscape-font-specification:Swiss 721 Bold"
           d="m 478.2809,544.90323 9.93987,0 0,-37.16952 -9.93987,0 z m 0,-41.29947 9.93987,0 0,-9.02988 -9.93987,0 z" />
        <path
           inkscape:connector-curvature="0"
           id="path4819"
           style="font-weight:bold;line-height:100%;fill:#ffffff;stroke:#7030a0;-inkscape-font-specification:Swiss 721 Bold"
           d="m 494.97483,532.79338 0,0.42 c 0.035,4.03079 1.46998,7.18658 4.30495,9.46738 2.83495,2.2808 6.8599,3.44162 12.07484,3.48245 5.71803,-0.0146 10.04922,-1.1229 12.99358,-3.32496 2.94431,-2.20205 4.42304,-5.41034 4.4362,-9.62487 0.004,-3.27682 -1.0544,-5.71803 -3.17621,-7.32366 -2.12188,-1.60558 -5.33308,-2.87431 -9.63363,-3.8062 -3.51601,-0.76267 -6.09139,-1.40725 -7.72615,-1.93372 -1.63478,-0.52643 -2.44269,-1.3985 -2.42372,-2.61622 -0.003,-1.1535 0.4579,-2.0139 1.38249,-2.58122 0.92455,-0.56725 2.33037,-0.85016 4.21744,-0.84873 2.03871,0.0102 3.61368,0.44481 4.72494,1.30373 1.11121,0.85898 1.7062,2.08104 1.78498,3.6662 l 9.65987,0 c -0.20419,-4.01908 -1.70334,-7.12821 -4.49744,-9.32738 -2.79416,-2.1991 -6.70827,-3.31325 -11.74235,-3.34246 -4.80078,0.0482 -8.53406,1.1769 -11.19985,3.38621 -2.66581,2.20938 -4.01912,5.21059 -4.05995,9.00363 -0.0102,3.0829 1.04269,5.45704 3.15871,7.12241 2.11601,1.66542 5.35638,3.02456 9.72112,4.07745 3.28702,0.72917 5.74282,1.31833 7.36741,1.76748 1.62454,0.44917 2.43536,1.42333 2.43247,2.92246 -0.004,1.1652 -0.52065,2.07227 -1.54873,2.72121 -1.02814,0.64896 -2.54187,0.97854 -4.54119,0.98874 -2.55061,0.003 -4.46684,-0.4579 -5.74868,-1.38248 -1.28187,-0.92456 -1.95561,-2.33038 -2.02122,-4.21745 z" />
        <path
           inkscape:connector-curvature="0"
           id="path4821"
           style="font-weight:bold;line-height:100%;fill:#ffffff;stroke:#7030a0;-inkscape-font-specification:Swiss 721 Bold"
           d="m 533.25608,532.79338 0,0.42 c 0.035,4.03079 1.46998,7.18658 4.30495,9.46738 2.83495,2.2808 6.8599,3.44162 12.07484,3.48245 5.71803,-0.0146 10.04922,-1.1229 12.99358,-3.32496 2.94431,-2.20205 4.42304,-5.41034 4.4362,-9.62487 0.004,-3.27682 -1.0544,-5.71803 -3.17621,-7.32366 -2.12188,-1.60558 -5.33308,-2.87431 -9.63363,-3.8062 -3.51601,-0.76267 -6.09139,-1.40725 -7.72615,-1.93372 -1.63478,-0.52643 -2.44269,-1.3985 -2.42372,-2.61622 -0.003,-1.1535 0.4579,-2.0139 1.38249,-2.58122 0.92455,-0.56725 2.33037,-0.85016 4.21744,-0.84873 2.03871,0.0102 3.61368,0.44481 4.72494,1.30373 1.11121,0.85898 1.7062,2.08104 1.78498,3.6662 l 9.65987,0 c -0.20419,-4.01908 -1.70334,-7.12821 -4.49744,-9.32738 -2.79416,-2.1991 -6.70827,-3.31325 -11.74235,-3.34246 -4.80078,0.0482 -8.53406,1.1769 -11.19985,3.38621 -2.66581,2.20938 -4.01912,5.21059 -4.05995,9.00363 -0.0102,3.0829 1.04269,5.45704 3.15871,7.12241 2.11601,1.66542 5.35638,3.02456 9.72112,4.07745 3.28702,0.72917 5.74282,1.31833 7.36741,1.76748 1.62454,0.44917 2.43536,1.42333 2.43247,2.92246 -0.004,1.1652 -0.52065,2.07227 -1.54873,2.72121 -1.02814,0.64896 -2.54187,0.97854 -4.54119,0.98874 -2.55061,0.003 -4.46684,-0.4579 -5.74868,-1.38248 -1.28187,-0.92456 -1.95561,-2.33038 -2.02122,-4.21745 z" />
        <path
           inkscape:connector-curvature="0"
           id="path4823"
           style="font-weight:bold;line-height:100%;fill:#ffffff;stroke:#7030a0;-inkscape-font-specification:Swiss 721 Bold"
           d="m 573.8473,544.90323 9.93988,0 0,-37.16952 -9.93988,0 z m 0,-41.29947 9.93988,0 0,-9.02988 -9.93988,0 z" />
        <path
           inkscape:connector-curvature="0"
           id="path4825"
           style="font-weight:bold;line-height:100%;fill:#ffffff;stroke:#7030a0;-inkscape-font-specification:Swiss 721 Bold"
           d="m 590.75124,526.28347 c 0.0539,6.24889 1.73101,11.1109 5.03118,14.58606 3.30016,3.47516 7.89968,5.23972 13.79858,5.29368 5.89885,-0.054 10.49837,-1.81852 13.79857,-5.29368 3.30012,-3.47516 4.97719,-8.33717 5.03118,-14.58606 -0.054,-6.24886 -1.73105,-11.11087 -5.03118,-14.58607 -3.3002,-3.47512 -7.89972,-5.23968 -13.79857,-5.29368 -5.8989,0.054 -10.49842,1.81856 -13.79858,5.29369 -3.30017,3.47519 -4.97723,8.33721 -5.03118,14.58606 z m 10.07987,0 c 0.0189,-3.72452 0.78602,-6.56531 2.30122,-8.52239 1.51517,-1.95703 3.66472,-2.94285 6.44867,-2.95746 2.78098,0.0146 4.91886,1.00043 6.41366,2.95746 1.49474,1.95708 2.25015,4.79787 2.26622,8.52239 -0.0161,3.72746 -0.77147,6.57992 -2.26622,8.55739 -1.4948,1.97748 -3.63268,2.97497 -6.41366,2.99246 -2.78395,-0.0175 -4.9335,-1.01498 -6.44867,-2.99246 -1.5152,-1.97746 -2.28228,-4.82992 -2.30122,-8.55739 z" />
        <path
           inkscape:connector-curvature="0"
           id="path4827"
           style="font-weight:bold;line-height:100%;fill:#ffffff;stroke:#7030a0;-inkscape-font-specification:Swiss 721 Bold"
           d="m 635.16074,544.90323 9.93988,0 0,-22.04972 c 0.0291,-2.47036 0.72331,-4.3895 2.08247,-5.75743 1.35913,-1.36787 3.20827,-2.06202 5.54743,-2.08247 2.10724,-0.006 3.59764,0.60086 4.47119,1.81998 0.8735,1.21918 1.29641,3.08582 1.26873,5.59993 l 0,22.46971 9.93988,0 0,-25.33967 c 0.0116,-8.53986 -4.07165,-12.8098 -12.24985,-12.80984 -4.70162,0.0117 -8.45824,1.80835 -11.26985,5.38993 l 0,-4.40994 -9.72988,0 z" />
        <path
           inkscape:connector-curvature="0"
           id="path4829"
           style="font-weight:bold;line-height:100%;fill:#ffffff;stroke:#7030a0;-inkscape-font-specification:Swiss 721 Bold"
           d="m 289.35475,596.28347 c 0.054,6.24889 1.73102,11.1109 5.03119,14.58606 3.30015,3.47516 7.89967,5.23972 13.79857,5.29368 5.89886,-0.054 10.49838,-1.81852 13.79857,-5.29368 3.30013,-3.47516 4.97719,-8.33717 5.03119,-14.58606 -0.054,-6.24886 -1.73106,-11.11087 -5.03119,-14.58607 -3.30019,-3.47512 -7.89971,-5.23968 -13.79857,-5.29368 -5.8989,0.054 -10.49842,1.81856 -13.79857,5.29369 -3.30017,3.47519 -4.97723,8.33721 -5.03119,14.58606 z m 10.07987,0 c 0.019,-3.72452 0.78602,-6.56531 2.30122,-8.52239 1.51518,-1.95703 3.66473,-2.94285 6.44867,-2.95746 2.78098,0.0146 4.91887,1.00043 6.41367,2.95746 1.49474,1.95708 2.25015,4.79787 2.26622,8.52239 -0.0161,3.72746 -0.77148,6.57992 -2.26622,8.55739 -1.4948,1.97748 -3.63269,2.97497 -6.41367,2.99246 -2.78394,-0.0175 -4.93349,-1.01498 -6.44867,-2.99246 -1.5152,-1.97746 -2.28227,-4.82992 -2.30122,-8.55739 z" />
        <path
           inkscape:connector-curvature="0"
           id="path4831"
           style="font-weight:bold;line-height:100%;fill:#ffffff;stroke:#7030a0;-inkscape-font-specification:Swiss 721 Bold"
           d="m 333.76426,614.90323 9.93987,0 0,-22.04972 c 0.0292,-2.47036 0.72331,-4.3895 2.08248,-5.75743 1.35913,-1.36787 3.20827,-2.06202 5.54742,-2.08247 2.10725,-0.006 3.59764,0.60086 4.4712,1.81998 0.8735,1.21918 1.29641,3.08582 1.26873,5.59993 l 0,22.46971 9.93987,0 0,-25.33967 c 0.0116,-8.53986 -4.07164,-12.8098 -12.24984,-12.80984 -4.70163,0.0117 -8.45824,1.80835 -11.26985,5.38993 l 0,-4.40994 -9.72988,0 z" />
        <path
           inkscape:connector-curvature="0"
           id="path4833"
           style="font-weight:bold;line-height:100%;fill:#ffffff;stroke:#7030a0;-inkscape-font-specification:Swiss 721 Bold"
           d="m 406.06428,614.90323 9.86987,0 7.8399,-38.5695 7.7699,38.5695 9.86987,0 14.41982,-50.32935 -10.63986,0 -8.60989,35.48954 -7.27991,-35.48954 -11.05986,0 -7.2799,35.48954 -8.60989,-35.48954 -10.70986,0 z" />
        <path
           inkscape:connector-curvature="0"
           id="path4835"
           style="font-weight:bold;line-height:100%;fill:#ffffff;stroke:#7030a0;-inkscape-font-specification:Swiss 721 Bold"
           d="m 458.886,596.28347 c 0.054,6.24889 1.73102,11.1109 5.03119,14.58606 3.30015,3.47516 7.89967,5.23972 13.79857,5.29368 5.89886,-0.054 10.49838,-1.81852 13.79857,-5.29368 3.30013,-3.47516 4.97719,-8.33717 5.03119,-14.58606 -0.054,-6.24886 -1.73106,-11.11087 -5.03119,-14.58607 -3.30019,-3.47512 -7.89971,-5.23968 -13.79857,-5.29368 -5.8989,0.054 -10.49842,1.81856 -13.79857,5.29369 -3.30017,3.47519 -4.97723,8.33721 -5.03119,14.58606 z m 10.07987,0 c 0.019,-3.72452 0.78602,-6.56531 2.30122,-8.52239 1.51518,-1.95703 3.66473,-2.94285 6.44867,-2.95746 2.78098,0.0146 4.91887,1.00043 6.41367,2.95746 1.49474,1.95708 2.25015,4.79787 2.26622,8.52239 -0.0161,3.72746 -0.77148,6.57992 -2.26622,8.55739 -1.4948,1.97748 -3.63269,2.97497 -6.41367,2.99246 -2.78394,-0.0175 -4.93349,-1.01498 -6.44867,-2.99246 -1.5152,-1.97746 -2.28227,-4.82992 -2.30122,-8.55739 z" />
        <path
           inkscape:connector-curvature="0"
           id="path4837"
           style="font-weight:bold;line-height:100%;fill:#ffffff;stroke:#7030a0;-inkscape-font-specification:Swiss 721 Bold"
           d="m 503.29551,614.90323 9.79987,0 0,-22.46971 c 0.0262,-2.25745 0.60373,-4.00742 1.73248,-5.24993 1.12872,-1.24246 2.6512,-1.87245 4.56744,-1.88998 1.69454,0.007 3.01286,0.50023 3.95495,1.47873 0.94205,0.97856 1.42037,2.39895 1.43498,4.2612 l 0,23.86969 9.72988,0 0,-22.53971 c 0.0262,-2.22391 0.60371,-3.95347 1.73248,-5.18868 1.12869,-1.23517 2.65117,-1.86224 4.56744,-1.88123 1.73097,0.009 3.08137,0.49877 4.05119,1.46998 0.96974,0.97126 1.46265,2.37125 1.47874,4.19995 l 0,23.93969 9.79987,0 0,-25.96967 c -0.0438,-3.84846 -1.14629,-6.84384 -3.30746,-8.98613 -2.16127,-2.14223 -5.11873,-3.23013 -8.87238,-3.26371 -2.20794,0.004 -4.19708,0.46816 -5.96743,1.39123 -1.77043,0.92315 -3.30457,2.27938 -4.60244,4.0687 -1.21043,-1.88119 -2.65708,-3.26367 -4.33994,-4.14745 -1.68292,-0.8837 -3.68956,-1.32119 -6.01992,-1.31248 -4.12997,0.0117 -7.55992,1.73835 -10.28987,5.17993 l 0,-4.12994 -9.44988,0 z" />
        <path
           inkscape:connector-curvature="0"
           id="path4839"
           style="font-weight:bold;line-height:100%;fill:#ffffff;stroke:#7030a0;-inkscape-font-specification:Swiss 721 Bold"
           d="m 573.08212,592.43352 c 0.22019,-2.52578 0.95227,-4.43908 2.19622,-5.73993 1.24393,-1.30079 2.93849,-1.95411 5.08369,-1.95997 2.31869,0.006 4.10367,0.65919 5.35493,1.95997 1.2512,1.30084 1.9162,3.21415 1.99497,5.73993 z m 14.48981,11.19985 c -0.62418,1.4277 -1.49334,2.47477 -2.60746,3.14121 -1.11418,0.66646 -2.50833,0.99604 -4.18245,0.98874 -2.41644,-0.004 -4.2685,-0.74811 -5.55618,-2.23122 -1.2877,-1.4831 -2.00228,-3.67932 -2.14372,-6.58867 l 24.84968,0 c 0.0583,-0.8983 0.0816,-1.76162 0.07,-2.58996 -0.035,-6.43552 -1.59251,-11.3617 -4.67244,-14.77856 -3.07999,-3.4168 -7.47243,-5.14052 -13.17733,-5.17119 -5.4089,0.0584 -9.64093,1.81419 -12.69609,5.26744 -3.05517,3.45331 -4.60973,8.25408 -4.66369,14.40231 0.0685,6.31889 1.66394,11.2334 4.78619,14.74356 3.12224,3.51016 7.3601,5.29222 12.71359,5.34618 4.44929,-0.0365 8.16799,-1.15352 11.1561,-3.3512 2.98806,-2.19768 5.00928,-5.25722 6.06368,-9.17864 z" />
        <path
           inkscape:connector-curvature="0"
           id="path4841"
           style="font-weight:bold;line-height:100%;fill:#ffffff;stroke:#7030a0;-inkscape-font-specification:Swiss 721 Bold"
           d="m 604.6041,614.90323 9.93988,0 0,-22.04972 c 0.0291,-2.47036 0.72331,-4.3895 2.08247,-5.75743 1.35913,-1.36787 3.20827,-2.06202 5.54743,-2.08247 2.10724,-0.006 3.59763,0.60086 4.47119,1.81998 0.8735,1.21918 1.29641,3.08582 1.26873,5.59993 l 0,22.46971 9.93988,0 0,-25.33967 c 0.0116,-8.53986 -4.07165,-12.8098 -12.24985,-12.80984 -4.70162,0.0117 -8.45824,1.80835 -11.26985,5.38993 l 0,-4.40994 -9.72988,0 z" />
      </g>
    </g>
  </g>
</svg>
