<?xml version="1.0" encoding="UTF-8" standalone="no"?>
<!-- Created with Inkscape (http://www.inkscape.org/) -->

<svg
   xmlns:dc="http://purl.org/dc/elements/1.1/"
   xmlns:cc="http://creativecommons.org/ns#"
   xmlns:rdf="http://www.w3.org/1999/02/22-rdf-syntax-ns#"
   xmlns:svg="http://www.w3.org/2000/svg"
   xmlns="http://www.w3.org/2000/svg"
   xmlns:sodipodi="http://sodipodi.sourceforge.net/DTD/sodipodi-0.dtd"
   xmlns:inkscape="http://www.inkscape.org/namespaces/inkscape"
   width="334.79187"
   height="490"
   id="svg2"
   version="1.1"
   inkscape:version="0.48.5 r10040"
   sodipodi:docname="Philipine National Oil Company (PNOC).svg">
  <title
     id="title4122">Philippine National Oil Company (PNOC)</title>
  <defs
     id="defs4" />
  <sodipodi:namedview
     id="base"
     pagecolor="#ffffff"
     bordercolor="#666666"
     borderopacity="1.0"
     inkscape:pageopacity="0.0"
     inkscape:pageshadow="2"
     inkscape:zoom="1.0571429"
     inkscape:cx="167.39593"
     inkscape:cy="245"
     inkscape:document-units="px"
     inkscape:current-layer="layer1"
     showgrid="false"
     fit-margin-top="0"
     fit-margin-left="0"
     fit-margin-right="0"
     fit-margin-bottom="0"
     inkscape:window-width="1366"
     inkscape:window-height="705"
     inkscape:window-x="-8"
     inkscape:window-y="-8"
     inkscape:window-maximized="1" />
  <metadata
     id="metadata7">
    <rdf:RDF>
      <cc:Work
         rdf:about="">
        <dc:format>image/svg+xml</dc:format>
        <dc:type
           rdf:resource="http://purl.org/dc/dcmitype/StillImage" />
        <dc:title>Philippine National Oil Company (PNOC)</dc:title>
      </cc:Work>
    </rdf:RDF>
  </metadata>
  <g
     inkscape:label="Layer 1"
     inkscape:groupmode="layer"
     id="layer1"
     transform="translate(-29.631621,-488.03517)">
    <g
       id="g4082"
       transform="matrix(0.49512421,0,0,0.49512421,14.960288,493.78628)">
      <path
         inkscape:connector-curvature="0"
         id="path3229"
         d="m 437.84375,703.06696 c -54.83398,0 -99.28125,42.53295 -99.28125,95 0,52.46705 44.44727,95 99.28125,95 54.83398,0 99.3125,-42.53295 99.3125,-95 0,-52.46705 -44.47852,-95 -99.3125,-95 z m -1.1875,47.5 c 26.23353,0 47.5,21.26647 47.5,47.5 0,26.23353 -21.26647,47.5 -47.5,47.5 -26.23353,0 -47.5,-21.26647 -47.5,-47.5 0,-26.23353 21.26647,-47.5 47.5,-47.5 z"
         style="fill:#000000;fill-opacity:1;stroke:none" />
      <path
         id="path3232"
         d="m 658.21875,705.9375 c -59.37061,0 -107.5,42.35519 -107.5,94.625 0,52.26981 48.12939,94.65625 107.5,94.65625 7.4873,0 14.788,-0.68571 21.84375,-1.96875 l 2.53125,-52.21875 c -6.87342,2.28793 -14.45819,3.53125 -22.40625,3.53125 -31.45664,0 -56.96875,-19.84042 -56.96875,-44.3125 0,-24.47208 25.51211,-44.3125 56.96875,-44.3125 7.75662,0 15.16588,1.19033 21.90625,3.375 l -4.5,-51.84375 c -6.28506,-1.0068 -12.75979,-1.53125 -19.375,-1.53125 z"
         style="fill:#000000;fill-opacity:1;stroke:none"
         inkscape:connector-curvature="0" />
      <g
         style="fill:#ff0000;stroke:none"
         transform="matrix(0.062378,0,0,-0.062378,29.631621,947.07994)"
         id="g3106">
        <path
           style="fill:#ff0000"
           inkscape:connector-curvature="0"
           d="m 4930,15354 c -219,-23 -473,-63 -582,-90 -32,-8 -67,-14 -79,-14 -12,0 -45,-6 -73,-14 -28,-8 -80,-22 -116,-32 -142,-37 -176,-47 -208,-60 -18,-8 -43,-14 -55,-14 -12,0 -35,-7 -51,-15 -15,-8 -35,-15 -43,-15 -8,0 -31,-7 -51,-16 -21,-9 -52,-22 -70,-30 -18,-8 -37,-14 -43,-14 -12,0 -213,-78 -299,-116 -107,-48 -314,-147 -320,-154 -3,-3 -43,-25 -89,-48 -46,-24 -98,-52 -115,-63 -17,-10 -38,-22 -46,-26 -8,-3 -33,-18 -55,-32 -73,-46 -80,-51 -97,-57 -10,-3 -18,-10 -18,-15 0,-5 -7,-9 -15,-9 -8,0 -15,-4 -15,-10 0,-14 5856,-14 5865,0 3,5 2,10 -4,10 -6,0 -45,21 -87,48 -118,73 -164,100 -224,129 -30,15 -57,31 -60,34 -3,3 -16,10 -28,14 -13,4 -43,20 -67,36 -24,16 -46,29 -49,29 -4,0 -48,20 -99,45 -52,25 -97,45 -100,45 -4,0 -31,12 -60,26 -28,14 -77,34 -108,44 -31,10 -65,23 -75,28 -11,5 -34,16 -52,25 -19,9 -39,17 -45,17 -6,0 -47,13 -91,29 -112,40 -234,81 -276,91 -19,5 -69,18 -110,29 -288,78 -570,129 -920,166 -185,19 -786,19 -970,-1 z"
           id="path3108" />
        <path
           style="fill:#ff0000"
           inkscape:connector-curvature="0"
           d="m 2210,14293 c -14,-9 -29,-23 -33,-30 -4,-7 -15,-13 -22,-13 -8,0 -15,-4 -15,-9 0,-5 -8,-12 -17,-15 -10,-3 -34,-21 -54,-38 -48,-44 -75,-66 -137,-113 -28,-21 -52,-43 -52,-47 0,-4 -4,-8 -9,-8 -21,0 -395,-363 -384,-373 3,-4 290,-7 638,-7 l 631,0 45,32 c 24,18 46,36 47,40 2,5 10,8 17,8 7,0 15,7 19,15 5,13 293,15 2513,15 2189,-1 2510,-3 2527,-15 11,-8 28,-15 37,-15 10,0 19,-4 21,-8 2,-5 33,-23 69,-40 l 66,-32 616,0 c 408,0 617,3 617,10 0,16 -44,65 -175,195 -134,133 -165,161 -284,253 -19,15 -43,35 -53,45 -10,9 -20,17 -23,17 -7,0 -23,13 -70,58 -20,17 -40,32 -45,32 -6,0 -10,4 -10,9 0,5 -15,19 -34,30 -33,21 -38,21 -962,21 -537,0 -923,-4 -914,-9 20,-12 126,-47 167,-56 18,-3 35,-11 38,-16 4,-5 -604,-9 -1556,-9 -1376,0 -1561,2 -1543,15 10,8 28,15 40,15 11,0 24,4 30,9 5,5 33,16 62,26 28,9 52,18 52,21 0,2 -413,4 -918,4 -845,0 -920,-1 -942,-17 z"
           id="path3110" />
        <path
           style="fill:#ff0000"
           inkscape:connector-curvature="0"
           d="m 8330,13450 53,-50 -809,-2 c -474,-2 -801,-7 -789,-12 11,-5 43,-19 72,-32 28,-13 57,-24 62,-24 6,0 11,-4 11,-10 0,-7 -514,-10 -1521,-10 -926,0 -1518,4 -1514,9 3,5 20,13 38,16 17,4 38,12 45,17 6,6 26,13 44,17 17,4 33,12 36,19 3,9 -168,12 -790,12 l -793,0 44,43 45,42 -610,3 -609,3 -72,-78 c -40,-43 -73,-82 -73,-86 0,-4 -11,-18 -23,-30 -13,-12 -41,-44 -62,-72 -20,-27 -40,-52 -44,-55 -9,-7 -29,-41 -41,-67 -5,-13 -14,-23 -20,-23 -5,0 -10,-5 -10,-10 0,-10 -37,-68 -51,-80 -3,-3 -9,-12 -13,-20 -14,-30 -34,-63 -43,-69 -15,-11 -43,-68 -36,-75 3,-3 237,-6 520,-6 l 513,0 23,27 c 58,69 -9,63 667,63 547,0 614,2 643,16 18,9 34,20 37,24 3,4 25,21 49,38 l 44,32 2032,0 c 1202,0 2035,-4 2040,-9 6,-5 39,-21 75,-36 36,-15 68,-32 72,-39 5,-8 184,-12 651,-14 717,-3 647,4 707,-71 l 25,-31 522,0 c 337,0 524,4 528,10 3,6 2,10 -3,10 -6,0 -30,33 -55,73 -41,64 -109,162 -137,194 -5,7 -10,17 -10,23 0,5 -4,10 -9,10 -5,0 -19,16 -31,35 -12,20 -27,41 -34,48 -6,6 -34,41 -61,77 -27,36 -53,67 -57,68 -4,2 -8,7 -8,12 0,4 -23,33 -52,64 l -51,56 -610,0 -611,0 54,-50 z"
           id="path3112" />
        <path
           style="fill:#ff0000"
           inkscape:connector-curvature="0"
           d="m 631,12467 c -56,-112 -101,-208 -101,-214 0,-6 -7,-16 -15,-23 -8,-7 -15,-23 -15,-35 0,-13 -3,-25 -7,-27 -5,-1 -18,-30 -31,-63 -13,-33 -28,-68 -34,-79 -5,-11 -6,-22 -1,-27 5,-5 210,-8 473,-7 l 463,3 19,30 c 10,17 21,36 24,43 5,9 113,12 491,12 l 486,0 50,50 50,50 587,0 587,0 26,24 c 15,14 35,27 46,31 10,3 25,12 31,20 11,13 225,15 1645,15 1566,0 1633,-1 1656,-18 13,-10 31,-22 39,-25 24,-11 54,-31 62,-42 5,-6 220,-11 601,-13 l 594,-2 41,-45 41,-45 505,0 c 278,0 506,-3 506,-7 0,-5 16,-25 35,-45 l 34,-38 450,0 c 435,0 451,1 451,19 0,10 -7,24 -15,31 -8,7 -15,19 -15,27 0,8 -6,27 -14,41 -8,15 -26,52 -39,82 -82,176 -111,238 -166,353 l -62,127 -525,0 c -417,0 -524,-3 -518,-12 4,-7 20,-30 37,-50 l 29,-38 -546,0 c -300,0 -546,-3 -546,-7 0,-5 17,-19 37,-33 l 37,-25 -55,-7 c -30,-3 -227,-6 -439,-7 -480,-1 -880,-12 -880,-23 0,-4 9,-8 20,-8 11,0 20,-4 20,-9 0,-5 12,-12 27,-16 14,-3 36,-13 47,-21 18,-12 -164,-14 -1417,-14 -790,0 -1437,2 -1437,3 0,2 25,17 55,32 30,16 55,33 55,37 0,4 -302,8 -672,8 -523,0 -669,3 -660,12 7,7 12,22 12,35 0,13 5,23 10,23 6,0 10,7 10,15 0,13 -66,15 -536,15 l -536,0 6,23 c 3,12 9,32 12,45 l 6,22 -515,0 -515,0 -101,-203 z"
           id="path3114" />
        <path
           style="fill:#ff0000"
           inkscape:connector-curvature="0"
           d="m 333,11853 c -7,-2 -13,-13 -13,-23 0,-11 -4,-29 -9,-42 -5,-13 -23,-70 -41,-128 -17,-58 -38,-120 -46,-138 -8,-18 -14,-40 -14,-50 0,-9 -7,-38 -15,-64 -35,-110 -44,-145 -51,-180 l -6,-38 429,0 c 328,0 433,3 445,13 9,6 18,26 20,42 l 3,30 452,3 451,2 19,45 18,45 465,0 465,0 34,50 34,50 579,0 c 502,0 581,2 594,15 14,13 171,15 1294,15 1127,0 1279,-2 1284,-15 5,-13 77,-15 569,-15 l 563,0 24,-42 c 13,-24 28,-46 34,-50 6,-4 216,-8 467,-8 490,0 470,2 483,-52 l 6,-28 462,-2 462,-3 7,-32 c 13,-67 -12,-63 458,-61 l 426,3 -3,40 c -2,22 -10,65 -18,95 -9,30 -21,78 -29,105 -36,133 -53,189 -91,300 l -41,120 -457,3 c -361,2 -456,0 -456,-10 0,-7 9,-28 20,-46 11,-18 20,-35 20,-37 0,-3 -218,-5 -485,-5 -512,0 -504,1 -470,-44 35,-47 45,-46 -465,-46 -264,0 -480,-3 -480,-7 0,-3 11,-21 25,-39 14,-18 25,-35 25,-38 0,-3 -259,-6 -575,-6 -357,0 -575,-4 -575,-10 0,-5 8,-14 18,-19 11,-7 -371,-10 -1207,-11 -1223,0 -1224,0 -1206,20 18,20 17,20 -583,20 -528,0 -602,2 -602,15 0,8 4,15 8,15 4,0 16,14 25,30 l 18,30 -495,0 c -273,0 -496,3 -496,8 0,4 6,16 14,27 7,11 16,30 20,43 l 7,22 -461,0 -462,0 4,28 c 3,15 7,34 9,42 4,13 -51,15 -446,17 -247,1 -456,-1 -462,-4 z"
           id="path3116" />
        <path
           style="fill:#ff0000"
           inkscape:connector-curvature="0"
           d="m 106,10983 c -9,-49 -16,-99 -16,-113 0,-23 -9,-87 -46,-330 -8,-52 -14,-107 -14,-123 l 0,-27 423,2 422,3 3,37 3,38 416,2 c 358,3 417,5 423,18 4,8 16,34 26,57 l 19,43 432,0 433,0 6,40 7,40 449,0 c 390,0 449,2 454,15 5,13 70,15 501,15 322,0 501,4 514,10 10,6 19,17 19,25 0,13 -68,15 -500,15 -493,0 -500,0 -500,20 0,20 -7,20 -451,20 l -451,0 7,23 c 3,12 9,32 12,45 l 5,22 -441,0 -442,0 7,38 c 3,20 7,42 8,47 1,6 -149,11 -427,13 l -427,2 2,43 3,42 -431,3 -432,2 -16,-87 z"
           id="path3118" />
        <path
           style="fill:#ff0000"
           inkscape:connector-curvature="0"
           d="m 9833,11025 7,-45 -428,-2 c -420,-3 -427,-3 -426,-23 0,-11 3,-32 7,-47 l 7,-28 -445,0 c -421,0 -445,-1 -437,-17 5,-10 12,-30 16,-45 l 6,-28 -450,0 c -447,0 -451,0 -445,-20 6,-20 2,-20 -494,-20 -433,0 -501,-2 -501,-15 0,-8 9,-19 19,-25 13,-6 191,-10 511,-10 427,0 491,-2 496,-15 5,-13 65,-15 455,-15 l 449,0 6,-40 7,-40 431,0 431,0 27,-60 26,-60 421,0 421,0 0,-40 0,-40 420,0 420,0 0,21 c 0,12 -4,49 -9,83 -6,33 -17,113 -25,176 -8,63 -22,167 -31,230 -8,63 -16,126 -18,140 l -2,25 -439,3 -439,2 6,-45 z"
           id="path3120" />
        <path
           style="fill:#ff0000"
           inkscape:connector-curvature="0"
           d="m 0,9905 0,-335 427,2 427,3 -3,48 -3,47 426,0 426,0 0,40 0,40 425,0 425,0 0,50 0,50 425,0 c 371,0 425,2 425,15 0,13 53,15 420,15 399,0 420,1 429,19 6,10 7,21 4,25 -3,3 -197,6 -430,6 -398,0 -424,1 -421,18 3,16 -24,17 -424,20 l -428,2 0,40 0,40 -425,0 -425,0 0,50 0,50 -425,0 -425,0 0,45 0,45 -425,0 -425,0 0,-335 z"
           id="path3122" />
        <path
           style="fill:#ff0000"
           inkscape:connector-curvature="0"
           d="m 9997,10233 c -4,-3 -7,-24 -7,-45 l 0,-38 -422,-2 -423,-3 -3,-47 -3,-48 -422,-2 -422,-3 2,-37 2,-38 -427,-2 c -400,-3 -427,-4 -424,-20 3,-17 -23,-18 -421,-18 -233,0 -426,-3 -429,-6 -3,-3 -4,-14 -1,-25 5,-18 18,-19 429,-19 370,0 424,-2 424,-15 0,-13 54,-15 426,-15 l 426,0 -4,-47 -3,-48 423,-3 422,-2 0,-40 0,-40 430,0 429,0 -6,-50 -6,-50 427,0 426,0 0,335 0,335 -418,0 c -230,0 -422,-3 -425,-7 z"
           id="path3124" />
        <path
           style="fill:#ff0000"
           inkscape:connector-curvature="0"
           d="m 57,9443 c -9,-9 7,-156 48,-433 8,-52 17,-125 20,-162 6,-66 7,-67 38,-73 18,-3 214,-4 437,-3 l 405,3 -3,43 -4,42 426,0 426,0 0,45 0,45 423,1 c 232,1 427,1 434,0 20,-3 25,18 9,41 -35,49 -46,48 437,50 424,3 452,4 449,21 -3,16 27,17 490,18 271,1 496,1 501,0 4,-1 2,8 -5,19 -13,20 -23,20 -506,20 l -494,0 -20,25 -19,25 -438,0 -438,0 -19,43 -19,42 -428,3 -428,2 -9,26 c -6,14 -10,36 -10,50 l 0,24 -428,0 -428,0 -10,43 -9,42 -411,3 c -226,1 -414,-1 -417,-5 z"
           id="path3126" />
        <path
           style="fill:#ff0000"
           inkscape:connector-curvature="0"
           d="m 9970,9431 c -5,-11 -10,-31 -10,-45 l 0,-26 -418,0 -419,0 -10,-22 c -6,-13 -15,-35 -22,-50 l -11,-28 -429,0 -429,0 -14,-42 -15,-43 -437,-3 -437,-2 -9,-25 -9,-25 -508,-2 c -474,-3 -508,-4 -511,-20 -3,-17 26,-18 498,-18 471,0 501,-1 498,-17 -3,-17 24,-18 440,-21 450,-2 465,-4 433,-37 -5,-6 -12,-20 -16,-32 l -6,-23 440,0 441,0 0,-45 0,-45 426,0 425,0 -3,-42 -3,-43 435,0 435,0 7,65 c 4,36 15,112 23,170 8,58 17,130 20,160 3,30 9,75 14,100 5,25 11,74 13,110 l 3,65 -412,3 c -399,2 -412,2 -423,-17 z"
           id="path3128" />
        <path
           style="fill:#ff0000"
           inkscape:connector-curvature="0"
           d="m 153,8583 c 8,-42 28,-114 42,-153 7,-19 20,-62 29,-95 26,-93 48,-167 61,-205 7,-19 23,-69 37,-110 l 24,-75 457,-3 c 431,-2 457,-1 457,15 -1,10 -7,29 -15,43 -8,14 -14,28 -15,33 0,4 216,7 480,7 264,0 480,3 480,8 0,4 -9,18 -20,32 -11,14 -20,28 -20,33 0,4 223,7 495,7 305,0 495,4 495,9 0,6 -11,22 -25,37 -14,15 -25,31 -25,35 0,5 263,9 585,9 596,0 614,1 568,36 -15,11 181,13 1176,14 997,0 1192,-2 1182,-13 -6,-8 -8,-17 -4,-20 3,-4 265,-7 580,-7 l 574,0 -22,-32 c -13,-18 -27,-36 -32,-39 -5,-4 -6,-12 -3,-18 5,-8 150,-11 502,-11 525,0 515,1 479,-46 -8,-10 -15,-22 -15,-26 0,-5 212,-8 470,-8 259,0 470,-2 470,-5 0,-2 -9,-20 -20,-40 -11,-20 -20,-40 -20,-45 0,-6 168,-10 454,-10 l 454,0 20,43 c 11,23 39,103 62,177 23,74 48,154 56,178 8,23 14,50 14,60 0,9 7,35 14,57 8,22 16,65 18,95 l 3,55 -429,0 -429,0 -16,-42 -15,-43 -441,-2 -440,-3 -20,-42 -19,-43 -481,0 c -264,0 -484,-4 -490,-8 -5,-4 -20,-25 -31,-47 l -22,-40 -563,-3 c -487,-2 -564,-4 -572,-17 -7,-13 -161,-15 -1259,-15 -1180,0 -1252,1 -1264,18 -11,16 -55,17 -587,22 l -575,5 -19,25 c -11,14 -22,33 -26,42 -6,17 -40,18 -473,20 l -468,3 -20,40 -21,40 -461,3 -461,2 -13,45 -13,45 -439,0 -440,0 5,-27 z"
           id="path3130" />
        <path
           style="fill:#ff0000"
           inkscape:connector-curvature="0"
           d="m 425,7811 c -3,-5 -1,-12 5,-16 5,-3 10,-14 10,-23 0,-9 14,-46 31,-82 17,-36 37,-78 44,-95 7,-16 60,-124 117,-240 l 103,-210 514,-3 513,-2 -5,27 c -3,16 -8,38 -12,51 l -7,22 536,0 c 295,0 536,2 536,5 0,3 -4,14 -10,25 -5,11 -14,29 -20,40 -5,11 -10,22 -10,25 0,3 302,5 670,5 369,0 670,3 670,8 0,4 -19,16 -43,27 -23,10 -51,25 -62,32 -16,11 242,13 1430,13 l 1450,0 -67,-33 c -38,-17 -68,-35 -68,-38 0,-10 343,-19 769,-20 223,-1 451,-4 506,-8 94,-6 98,-7 73,-20 -16,-8 -28,-18 -28,-23 0,-4 -7,-8 -15,-8 -8,0 -15,-4 -15,-10 0,-6 194,-11 548,-12 l 547,-3 -32,-33 c -18,-19 -33,-38 -33,-43 0,-5 -5,-9 -12,-9 -8,0 -9,-3 -2,-10 7,-7 190,-9 529,-8 l 519,3 37,75 c 21,41 65,134 99,205 34,72 75,157 91,190 16,33 29,65 29,71 0,7 7,17 15,24 8,7 15,23 15,35 0,13 4,25 9,27 4,2 12,13 15,26 l 7,22 -453,0 c -361,-1 -457,-3 -470,-14 -10,-7 -18,-16 -18,-20 0,-3 -9,-15 -20,-26 -19,-19 -33,-20 -523,-20 l -503,0 -30,-36 c -16,-20 -33,-43 -37,-50 -7,-12 -110,-14 -600,-14 l -593,0 -72,-45 -72,-45 -1629,0 -1628,0 -25,23 c -13,12 -43,32 -65,45 l -41,22 -577,0 -578,0 -48,45 -48,45 -489,0 -488,0 -23,45 -22,45 -469,0 c -279,0 -471,-4 -475,-9 z"
           id="path3132" />
        <path
           style="fill:#ff0000"
           inkscape:connector-curvature="0"
           d="m 850,6996 c 0,-7 7,-19 15,-26 8,-7 15,-18 15,-26 0,-7 6,-17 13,-21 7,-4 21,-25 32,-46 11,-20 46,-74 77,-118 32,-44 58,-84 58,-90 0,-5 4,-9 9,-9 4,0 21,-20 37,-45 15,-25 32,-45 36,-45 4,0 8,-5 8,-10 0,-6 18,-29 39,-50 22,-22 41,-44 43,-49 1,-5 29,-37 61,-70 l 59,-61 597,0 c 329,0 601,3 604,6 4,4 -12,24 -34,45 l -41,39 634,0 c 623,0 938,7 938,20 0,3 -30,16 -67,29 -38,12 -75,26 -83,31 -10,6 542,9 1510,9 1502,-1 1524,-1 1485,-19 -22,-11 -57,-26 -77,-35 -21,-8 -38,-19 -38,-25 0,-7 269,-10 801,-10 711,0 799,-2 785,-15 -8,-8 -17,-15 -20,-15 -2,0 -20,-13 -38,-30 l -32,-30 613,0 614,0 33,36 c 19,19 34,40 34,45 0,5 4,9 8,9 5,0 34,36 66,80 32,44 65,88 75,98 10,9 28,33 41,52 14,19 35,46 47,60 13,14 26,33 29,43 3,9 10,17 15,17 5,0 9,7 9,15 0,8 4,15 9,15 5,0 13,9 16,20 3,11 12,26 19,32 20,21 76,106 76,116 0,6 7,13 16,16 56,22 -31,26 -519,26 l -522,-1 -20,-26 c -11,-14 -30,-36 -42,-49 l -22,-24 -621,0 -620,0 -63,-30 c -35,-17 -69,-30 -75,-30 -7,0 -12,-3 -12,-8 0,-31 -72,-32 -2106,-32 l -2025,0 -37,27 c -20,15 -41,32 -47,38 -32,34 -60,35 -680,35 l -613,0 -33,43 c -19,23 -38,45 -44,49 -5,4 -243,8 -527,8 -433,0 -518,-2 -518,-14 z"
           id="path3134" />
        <path
           style="fill:#ff0000"
           inkscape:connector-curvature="0"
           d="m 1490,6192 c 0,-20 344,-352 364,-352 4,0 27,-20 52,-45 24,-25 48,-45 54,-45 5,0 10,-4 10,-8 0,-5 21,-23 46,-41 25,-18 53,-41 62,-50 9,-9 34,-28 54,-41 21,-14 38,-28 38,-32 0,-5 5,-8 11,-8 7,0 18,-8 25,-17 12,-17 70,-18 935,-21 637,-1 920,1 913,8 -11,11 -93,44 -151,61 -18,6 -33,12 -33,14 0,3 701,5 1557,5 856,0 1553,-4 1548,-8 -6,-4 -37,-16 -70,-26 -178,-55 -238,-51 775,-54 509,-1 934,0 945,3 11,2 36,19 56,37 54,49 101,88 105,88 2,0 16,12 32,28 16,15 40,34 52,42 13,8 39,30 57,48 19,17 36,32 39,32 3,0 11,6 18,13 8,7 38,33 67,58 114,94 289,281 289,308 0,18 -1261,11 -1282,-7 -19,-15 -91,-56 -135,-77 -29,-13 -323,-15 -2532,-13 -2275,3 -2501,4 -2513,19 -7,9 -29,27 -48,39 -19,13 -38,29 -42,35 -9,13 -1298,20 -1298,7 z"
           id="path3136" />
        <path
           style="fill:#ff0000"
           inkscape:connector-curvature="0"
           d="m 2506,5326 c 3,-8 13,-17 22,-20 17,-6 25,-11 97,-57 22,-14 47,-29 55,-32 8,-4 29,-16 45,-27 17,-10 51,-29 78,-42 26,-13 47,-26 47,-30 0,-5 6,-8 13,-8 6,0 26,-7 42,-16 100,-55 200,-104 211,-104 6,0 17,-7 24,-15 7,-8 23,-15 36,-15 13,0 24,-4 24,-10 0,-5 5,-10 11,-10 6,0 25,-6 42,-14 82,-37 131,-56 143,-56 7,0 19,-6 26,-13 7,-8 25,-16 38,-19 14,-3 50,-16 80,-27 76,-30 331,-114 410,-135 36,-10 85,-24 110,-31 25,-8 70,-19 100,-25 30,-6 84,-17 120,-25 292,-63 533,-96 835,-115 459,-29 1012,15 1450,115 33,8 85,19 115,25 30,7 77,18 104,26 26,8 54,14 60,14 7,0 55,14 107,30 52,17 137,44 189,61 52,16 107,37 122,45 14,7 35,14 45,14 11,0 23,3 26,6 8,8 118,54 129,54 4,0 38,14 75,31 37,17 82,37 98,44 17,7 69,32 116,54 47,23 91,41 97,41 7,0 12,4 12,10 0,5 12,13 27,16 15,4 34,13 41,21 7,7 22,13 32,13 10,0 20,3 22,8 3,7 125,82 134,82 10,0 179,104 182,112 2,4 9,8 17,8 7,0 18,7 25,15 11,13 -314,15 -2913,15 -2506,0 -2926,-2 -2921,-14 z"
           id="path3138" />
      </g>
      <path
         inkscape:connector-curvature="0"
         d="m 178.65445,798.3573 0,90.13621 24.9512,0 24.9512,0 0.12476,-38.73674 0.18713,-38.73674 1.74658,1.62183 c 0.93567,0.87329 1.68421,1.68421 1.68421,1.87134 0,0.18714 2.99414,3.36841 6.73682,7.04872 3.68031,3.6803 13.28652,13.5984 21.33328,22.01943 8.04676,8.42103 17.96486,18.65102 21.95706,22.76797 4.05457,4.11695 10.54188,10.79139 14.47169,14.78359 l 7.11109,7.3606 9.10719,0 9.10719,0 0,-90.13621 0,-90.13621 -25.69974,0.12476 -25.76211,0.18713 -0.31189,38.54961 -0.31189,38.61198 -4.05457,-4.49122 c -2.24561,-2.49512 -5.05262,-5.61402 -6.2378,-6.92396 -1.18518,-1.24756 -4.55359,-4.92786 -7.48536,-8.10914 -2.93177,-3.18127 -6.2378,-6.73682 -7.29823,-7.85962 -1.1228,-1.18519 -2.05847,-2.24561 -2.05847,-2.37037 0,-0.12475 -1.30994,-1.62183 -2.93177,-3.30603 -1.6842,-1.62183 -4.92786,-5.23975 -7.3606,-7.98439 -2.37036,-2.68225 -5.55164,-6.11304 -6.98634,-7.61011 -1.49707,-1.49707 -2.68225,-2.80701 -2.68225,-2.93177 0,-0.18713 -1.06043,-1.37231 -2.30799,-2.68225 -1.30993,-1.24756 -4.74072,-4.99024 -7.67249,-8.2339 -2.93177,-3.24365 -6.30018,-7.04871 -7.48536,-8.35865 -1.18518,-1.37232 -3.1189,-3.43079 -4.30408,-4.55359 l -2.12085,-2.05848 -10.16762,0 -10.22999,0 0,90.13621 z"
         id="path3144-1"
         style="fill:#000000;stroke:none" />
      <path
         sodipodi:nodetypes="cscccccccscccsccccccssccccscscccccs"
         inkscape:connector-curvature="0"
         d="m 34.997911,708.65774 c -0.249512,0.18713 -0.436646,40.79521 -0.436646,90.13621 l 0,89.69956 24.63931,0 24.63931,0 0,-22.14419 0,-22.14419 4.553594,0 c 5.364508,-0.0624 18.962911,-1.55945 22.892721,-2.5575 6.05067,-1.55945 17.34109,-5.86353 18.08962,-6.86158 0.18714,-0.24951 1.06043,-0.81091 1.87134,-1.18518 0.8733,-0.31189 2.43275,-1.18518 3.43079,-1.87134 1.06043,-0.68616 2.37036,-1.43469 2.99414,-1.62183 0.56141,-0.24951 1.06043,-0.62378 1.06043,-0.87329 0,-0.24951 1.18518,-1.24756 2.61988,-2.18323 9.41907,-6.2378 18.40151,-20.58474 21.14614,-33.68412 0.24951,-1.37231 0.81091,-4.05457 1.18518,-5.92591 0.93567,-4.42884 0.49902,-24.76406 -0.62378,-29.00577 -2.24561,-8.73292 -6.48731,-19.08767 -9.04481,-22.14419 -0.37427,-0.49902 -0.93567,-1.43469 -1.1228,-2.05847 -0.24952,-0.5614 -0.68616,-1.06043 -1.06043,-1.06043 -0.31189,0 -0.62378,-0.24951 -0.62378,-0.62378 0,-0.5614 -1.18518,-2.05847 -4.05457,-5.23975 -2.74463,-2.99414 -10.79139,-8.48341 -15.28261,-10.41713 -0.87329,-0.37426 -2.05847,-0.93567 -2.68225,-1.24756 -2.68225,-1.43469 -11.22804,-3.92981 -16.65493,-4.92786 -10.41712,-1.93372 -20.834247,-2.49512 -48.717213,-2.49512 -15.656878,0 -28.631502,0.18714 -28.818636,0.43665 z m 78.576269,65.68335 c -0.31799,8.67059 -6.5782,18.8594 -21.438021,19.21311 l -8.296274,0.24951 0,-19.08767 0,-19.08767 7.111092,0 c 6.69165,-0.31137 23.214853,2.58012 22.623203,18.71272 z"
         id="path3142-7"
         style="fill:#000000;stroke:none" />
      <g
         id="text4045"
         style="font-size:60.47595596px;font-style:normal;font-weight:normal;line-height:125%;letter-spacing:0px;word-spacing:0px;fill:#000000;fill-opacity:1;stroke:none;font-family:Sans">
        <path
           id="path4050"
           style="font-variant:normal;font-stretch:normal;font-family:Swis721 Md BT;-inkscape-font-specification:Swis721 Md BT"
           d="m 55.576754,921.36849 33.988196,0 0,6.37832 -13.347233,0 0,37.1183 -7.205143,0 0,-37.1183 -13.43582,0 z"
           inkscape:connector-curvature="0" />
        <path
           id="path4052"
           style="font-variant:normal;font-stretch:normal;font-family:Swis721 Md BT;-inkscape-font-specification:Swis721 Md BT"
           d="m 94.230574,921.36849 6.791736,0 0,15.7391 c 1.02367,-1.59455 2.36725,-2.81017 4.03074,-3.64686 1.66347,-0.83663 3.55826,-1.25496 5.68439,-1.255 3.5238,4e-5 6.22081,0.86131 8.09102,2.58382 1.87016,1.72256 2.80525,4.20794 2.80528,7.45614 -3e-5,0.0788 0.01,0.43804 0.0295,1.07782 0.0197,0.63982 0.0295,1.22548 0.0295,1.75699 l 0,19.78461 -6.7622,0 0,-19.6665 c -3e-5,-2.5198 -0.48726,-4.3457 -1.4617,-5.47768 -0.97449,-1.13192 -2.52478,-1.6979 -4.65086,-1.69793 -2.34268,3e-5 -4.22763,0.72349 -5.65486,2.1704 -1.42726,1.44696 -2.14088,3.38113 -2.14087,5.80251 l 0,18.8692 -6.791736,0 z"
           inkscape:connector-curvature="0" />
        <path
           id="path4054"
           style="font-variant:normal;font-stretch:normal;font-family:Swis721 Md BT;-inkscape-font-specification:Swis721 Md BT"
           d="m 157.18699,950.77965 -22.23555,0 c 0.0591,2.97262 0.78744,5.25622 2.18517,6.85079 1.39771,1.59459 3.36632,2.39188 5.90586,2.39187 1.8111,1e-5 3.33678,-0.4577 4.57703,-1.37311 1.24021,-0.9154 2.06703,-2.19008 2.48046,-3.82404 l 6.73268,0 c -0.61031,3.32697 -2.21965,6.00429 -4.82804,8.03196 -2.60844,2.02768 -5.73362,3.04152 -9.37554,3.04152 -4.56721,0 -8.15994,-1.51584 -10.77819,-4.54751 -2.61827,-3.03167 -3.9274,-7.20513 -3.92739,-12.52041 -1e-5,-5.25619 1.31897,-9.38045 3.95692,-12.37277 2.63794,-2.99227 6.27988,-4.48842 10.92583,-4.48845 4.50812,3e-5 8.05162,1.46173 10.63054,4.3851 2.57886,2.92342 3.8683,6.94432 3.86834,12.06271 -4e-5,0.45279 -0.0296,1.17134 -0.0886,2.15563 -0.0197,0.0984 -0.0296,0.16735 -0.0295,0.20671 z m -6.96891,-4.90186 c -0.0197,-2.59856 -0.68904,-4.61147 -2.00799,-6.03874 -1.319,-1.42722 -3.17934,-2.14084 -5.58103,-2.14087 -2.28362,3e-5 -4.0849,0.69888 -5.40386,2.09658 -1.31899,1.39774 -2.08675,3.42542 -2.30329,6.08303 z"
           inkscape:connector-curvature="0" />
        <path
           id="path4056"
           style="font-variant:normal;font-stretch:normal;font-family:Swis721 Md BT;-inkscape-font-specification:Swis721 Md BT"
           d="m 180.6037,921.36849 31.18291,0 0,6.37832 -24.06636,0 0,11.36877 22.20602,0 0,6.08303 -22.20602,0 0,13.14053 24.86365,0 0,6.52597 -31.9802,0 z"
           inkscape:connector-curvature="0" />
        <path
           id="path4058"
           style="font-variant:normal;font-stretch:normal;font-family:Swis721 Md BT;-inkscape-font-specification:Swis721 Md BT"
           d="m 246.3654,944.60803 0,20.25708 -6.7622,0 0,-20.93625 c -2e-5,-1.92923 -0.50202,-3.40569 -1.50599,-4.4294 -1.00402,-1.02365 -2.44111,-1.53549 -4.31128,-1.53552 -2.55922,3e-5 -4.55244,0.73826 -5.97968,2.2147 -1.42726,1.47649 -2.14088,3.53369 -2.14087,6.17162 l 0,18.51485 -6.7622,0 0,-31.86209 6.52597,0 0,4.28175 c 1.1221,-1.63392 2.52474,-2.88892 4.20792,-3.76498 1.68315,-0.87601 3.52873,-1.31402 5.53674,-1.31406 4.01596,4e-5 6.88521,0.92036 8.60778,2.76099 1.72251,1.84069 2.58378,5.05445 2.58381,9.64131 z"
           inkscape:connector-curvature="0" />
        <path
           id="path4060"
           style="font-variant:normal;font-stretch:normal;font-family:Swis721 Md BT;-inkscape-font-specification:Swis721 Md BT"
           d="m 281.80054,950.77965 -22.23555,0 c 0.059,2.97262 0.78744,5.25622 2.18517,6.85079 1.3977,1.59459 3.36632,2.39188 5.90585,2.39187 1.81111,1e-5 3.33679,-0.4577 4.57704,-1.37311 1.24021,-0.9154 2.06703,-2.19008 2.48046,-3.82404 l 6.73268,0 c -0.61031,3.32697 -2.21965,6.00429 -4.82804,8.03196 -2.60844,2.02768 -5.73362,3.04152 -9.37555,3.04152 -4.5672,0 -8.15993,-1.51584 -10.77818,-4.54751 -2.61827,-3.03167 -3.9274,-7.20513 -3.9274,-12.52041 0,-5.25619 1.31898,-9.38045 3.95693,-12.37277 2.63794,-2.99227 6.27988,-4.48842 10.92583,-4.48845 4.50811,3e-5 8.05162,1.46173 10.63054,4.3851 2.57886,2.92342 3.8683,6.94432 3.86833,12.06271 -3e-5,0.45279 -0.0296,1.17134 -0.0886,2.15563 -0.0197,0.0984 -0.0296,0.16735 -0.0295,0.20671 z m -6.96891,-4.90186 c -0.0197,-2.59856 -0.68904,-4.61147 -2.00799,-6.03874 -1.319,-1.42722 -3.17934,-2.14084 -5.58104,-2.14087 -2.28361,3e-5 -4.08489,0.69888 -5.40385,2.09658 -1.31899,1.39774 -2.08675,3.42542 -2.30329,6.08303 z"
           inkscape:connector-curvature="0" />
        <path
           id="path4062"
           style="font-variant:normal;font-stretch:normal;font-family:Swis721 Md BT;-inkscape-font-specification:Swis721 Md BT"
           d="m 304.44948,932.32385 0,6.96891 -1.80129,0 c -2.71671,3e-5 -4.75915,0.68412 -6.12732,2.05228 -1.3682,1.36822 -2.0523,3.4205 -2.05229,6.15686 l 0,17.36321 -6.70314,0 0,-31.86209 6.34879,0 0,5.61057 c 0.92524,-2.12608 2.1261,-3.71574 3.60257,-4.76898 1.47645,-1.05318 3.21868,-1.57979 5.22668,-1.57982 0.0197,3e-5 0.0787,3e-5 0.17718,0 0.47245,0.0394 0.91539,0.0591 1.32882,0.0591 z"
           inkscape:connector-curvature="0" />
        <path
           id="path4064"
           style="font-variant:normal;font-stretch:normal;font-family:Swis721 Md BT;-inkscape-font-specification:Swis721 Md BT"
           d="m 314.57802,948.47636 c -10e-6,3.60259 0.72346,6.35865 2.1704,8.2682 1.44692,1.90957 3.52874,2.86435 6.24544,2.86434 2.79542,1e-5 4.88708,-0.90064 6.27498,-2.70193 1.38785,-1.80127 2.08178,-4.51304 2.08181,-8.13531 -3e-5,-3.58287 -0.72841,-6.29956 -2.18517,-8.15008 -1.4568,-1.85048 -3.59275,-2.77573 -6.40785,-2.77575 -2.53953,2e-5 -4.53768,0.94496 -5.99444,2.83481 -1.45679,1.88989 -2.18518,4.48847 -2.18517,7.79572 z m 16.65451,12.22512 c -1.04339,1.53553 -2.37221,2.70193 -3.98645,3.49922 -1.61429,0.79729 -3.47463,1.19594 -5.58103,1.19594 -4.23254,0 -7.61856,-1.51091 -10.15807,-4.53274 -2.53953,-3.02183 -3.80928,-7.03288 -3.80928,-12.03318 0,-5.13808 1.26975,-9.2328 3.80928,-12.28418 2.53951,-3.05133 5.94521,-4.57701 10.21713,-4.57704 2.08671,3e-5 3.90768,0.40852 5.46291,1.22546 1.55519,0.81701 2.92337,2.08185 4.10457,3.79452 l 0,-3.98646 6.46691,0 0,30.53327 c -3e-5,5.19715 -1.1812,8.91292 -3.54351,11.14731 -2.36237,2.23437 -6.22086,3.35156 -11.57548,3.35157 -4.31128,-10e-6 -7.67762,-0.85636 -10.09901,-2.56905 -2.4214,-1.7127 -3.65179,-4.09473 -3.69116,-7.14608 l 6.93938,0 c 0.0984,1.35834 0.72838,2.39186 1.88987,3.10057 1.16148,0.7087 2.81511,1.06305 4.96092,1.06306 3.03165,-10e-6 5.22174,-0.62505 6.57027,-1.87511 1.34848,-1.25008 2.02273,-3.32205 2.02275,-6.21592 z"
           inkscape:connector-curvature="0" />
        <path
           id="path4066"
           style="font-variant:normal;font-stretch:normal;font-family:Swis721 Md BT;-inkscape-font-specification:Swis721 Md BT"
           d="m 342.18789,933.00302 7.44138,0 7.94337,24.53883 7.85479,-24.53883 7.2642,0 -13.25864,37.1183 c -1.12213,3.14978 -2.38697,5.2562 -3.79451,6.31927 -1.40758,1.06304 -3.48939,1.59457 -6.24544,1.59458 -0.68903,-10e-6 -1.27961,-0.0246 -1.77176,-0.0738 -0.49216,-0.0492 -0.94494,-0.14274 -1.35835,-0.28053 l 0,-5.90586 c 0.47247,0.0984 0.92033,0.17225 1.34358,0.22147 0.42325,0.0492 0.8219,0.0738 1.19594,0.0738 1.25991,-10e-6 2.22453,-0.22148 2.89387,-0.66441 0.66932,-0.44295 1.191,-1.19594 1.56505,-2.25899 l 0.91541,-2.65764 z"
           inkscape:connector-curvature="0" />
        <path
           id="path4068"
           style="font-variant:normal;font-stretch:normal;font-family:Swis721 Md BT;-inkscape-font-specification:Swis721 Md BT"
           d="m 431.21865,934.98149 -7.14608,0 c -0.39376,-2.61823 -1.55032,-4.65083 -3.46969,-6.0978 -1.91943,-1.4469 -4.43434,-2.17036 -7.54473,-2.1704 -4.15381,4e-5 -7.36757,1.4076 -9.64131,4.22268 -2.27377,2.81516 -3.41064,6.79177 -3.41063,11.92983 -1e-5,5.17749 1.15163,9.25252 3.45492,12.22512 2.30327,2.97262 5.4629,4.45893 9.4789,4.45892 3.18914,10e-6 5.82216,-0.94001 7.89908,-2.82004 2.07686,-1.88002 3.23342,-4.3654 3.46969,-7.45615 l 7.08703,0 c -0.17722,4.92156 -2.01295,8.9523 -5.50721,12.09224 -3.49433,3.13995 -7.90895,4.70992 -13.24388,4.70992 -6.20117,0 -11.08826,-2.03752 -14.66129,-6.11256 -3.57304,-4.07503 -5.35956,-9.67574 -5.35956,-16.80216 0,-7.20511 1.81112,-12.82551 5.43339,-16.86121 3.62224,-4.03563 8.6619,-6.05346 15.11899,-6.0535 5.23649,4e-5 9.45425,1.30917 12.65329,3.92739 3.19897,2.6183 4.99533,6.22087 5.38909,10.80772 z"
           inkscape:connector-curvature="0" />
        <path
           id="path4070"
           style="font-variant:normal;font-stretch:normal;font-family:Swis721 Md BT;-inkscape-font-specification:Swis721 Md BT"
           d="m 451.80057,937.75724 c -2.81514,2e-5 -4.98062,0.96465 -6.49644,2.89387 -1.51585,1.92926 -2.27376,4.69517 -2.27375,8.29772 -10e-6,3.60259 0.75298,6.35865 2.25899,8.2682 1.50598,1.90957 3.67638,2.86434 6.5112,2.86434 2.8151,0 4.97074,-0.95477 6.46691,-2.86434 1.49613,-1.90955 2.2442,-4.66561 2.24423,-8.2682 -3e-5,-3.60255 -0.7481,-6.36846 -2.24423,-8.29772 -1.49617,-1.92922 -3.65181,-2.89385 -6.46691,-2.89387 z m -0.0591,-5.78774 c 4.88215,3e-5 8.71603,1.50602 11.50165,4.51798 2.78557,3.01201 4.17836,7.16579 4.1784,12.46135 -4e-5,5.2956 -1.38299,9.44446 -4.14887,12.44659 -2.76593,3.00215 -6.58997,4.50322 -11.47212,4.50322 -4.90187,0 -8.73575,-1.49615 -11.50165,-4.48845 -2.76591,-2.9923 -4.14887,-7.14608 -4.14887,-12.46136 0,-5.31525 1.37803,-9.47395 4.1341,-12.47612 2.75606,-3.00211 6.57518,-4.50318 11.45736,-4.50321 z"
           inkscape:connector-curvature="0" />
        <path
           id="path4072"
           style="font-variant:normal;font-stretch:normal;font-family:Swis721 Md BT;-inkscape-font-specification:Swis721 Md BT"
           d="m 498.36823,937.04853 c 1.18114,-1.59455 2.56902,-2.80032 4.16363,-3.61733 1.59455,-0.81695 3.34661,-1.22543 5.25621,-1.22547 3.6419,4e-5 6.30938,0.96958 8.00243,2.90864 1.69297,1.93911 2.53947,5.02492 2.53952,9.25743 l 0,20.49331 -6.67361,0 0,-20.02085 c -5e-5,-2.34263 -0.42822,-4.05533 -1.28453,-5.13809 -0.85639,-1.08271 -2.19997,-1.62408 -4.03074,-1.62411 -2.20489,3e-5 -3.92743,0.6792 -5.16763,2.03752 -1.24026,1.35837 -1.86037,3.25808 -1.86034,5.69915 l 0,19.04638 -6.70315,0 0,-21.29061 c -2e-5,-1.69298 -0.46757,-3.03164 -1.40264,-4.01598 -0.93511,-0.98428 -2.21963,-1.47643 -3.85357,-1.47646 -2.16549,3e-5 -3.86835,0.68904 -5.10856,2.06705 -1.24024,1.37806 -1.86036,3.28761 -1.86035,5.72868 l 0,18.98732 -6.70314,0 0,-31.86209 6.40785,0 0,4.10457 c 1.1221,-1.59455 2.4706,-2.81017 4.04551,-3.64686 1.57488,-0.83663 3.31711,-1.25496 5.22668,-1.255 2.1064,4e-5 3.87324,0.38392 5.30051,1.15165 1.42722,0.76779 2.66253,1.99817 3.70592,3.69115 z"
           inkscape:connector-curvature="0" />
        <path
           id="path4074"
           style="font-variant:normal;font-stretch:normal;font-family:Swis721 Md BT;-inkscape-font-specification:Swis721 Md BT"
           d="m 532.8289,960.93772 0,16.62498 -6.52597,0 0,-44.55968 6.46691,0 0,4.45892 c 1.31897,-1.92921 2.7659,-3.32693 4.34081,-4.19315 1.57488,-0.86616 3.43522,-1.29926 5.58103,-1.29929 4.0947,3e-5 7.39706,1.53555 9.90707,4.60657 2.50996,3.07107 3.76495,7.13626 3.76499,12.19559 -4e-5,5.1381 -1.25503,9.27712 -3.76499,12.41706 -2.51001,3.13994 -5.79268,4.70992 -9.84801,4.70992 -2.14581,0 -4.05537,-0.41834 -5.72868,-1.255 -1.67334,-0.83666 -3.07106,-2.07197 -4.19316,-3.70592 z m 8.35679,-23.03284 c -2.75608,3e-5 -4.85758,0.95481 -6.3045,2.86434 -1.44695,1.90959 -2.17041,4.70502 -2.1704,8.38632 -10e-6,3.52384 0.71853,6.20608 2.15563,8.04673 1.43708,1.84066 3.5435,2.76099 6.31927,2.76098 2.63793,10e-6 4.69021,-0.97938 6.15685,-2.93816 1.4666,-1.95877 2.19991,-4.70991 2.19993,-8.25343 -2e-5,-3.38601 -0.7481,-6.04364 -2.24422,-7.97291 -1.49618,-1.92922 -3.53369,-2.89384 -6.11256,-2.89387 z"
           inkscape:connector-curvature="0" />
        <path
           id="path4076"
           style="font-variant:normal;font-stretch:normal;font-family:Swis721 Md BT;-inkscape-font-specification:Swis721 Md BT"
           d="m 581.25691,948.88977 c -1.41742,0.72841 -3.67149,1.31899 -6.7622,1.77176 -1.12213,0.17719 -1.94895,0.31499 -2.48046,0.41341 -1.57491,0.29531 -2.74623,0.8416 -3.51398,1.63888 -0.76777,0.7973 -1.15165,1.84559 -1.15165,3.14486 0,1.45679 0.45278,2.58382 1.35835,3.38111 0.90556,0.79729 2.18516,1.19594 3.83881,1.19593 2.50013,1e-5 4.57702,-0.7087 6.23067,-2.12611 1.65362,-1.41739 2.48044,-3.22852 2.48046,-5.43338 z m 0.2953,11.75266 c -1.29931,1.67332 -2.86436,2.96769 -4.69516,3.8831 -1.83083,0.9154 -3.7896,1.37311 -5.87632,1.37311 -3.20886,0 -5.72377,-0.83667 -7.54473,-2.50999 -1.82098,-1.67332 -2.73146,-3.98645 -2.73146,-6.93938 0,-3.22852 0.97446,-5.65484 2.9234,-7.27897 1.94892,-1.62409 5.48259,-2.76097 10.60101,-3.41063 0.15747,-0.0197 0.38386,-0.0492 0.67917,-0.0886 4.27188,-0.55119 6.40783,-1.77173 6.40785,-3.66163 -2e-5,-1.53549 -0.53155,-2.66745 -1.59458,-3.39586 -1.06307,-0.72837 -2.70687,-1.09256 -4.93139,-1.09259 -2.06706,3e-5 -3.6518,0.43313 -4.75421,1.29929 -1.10244,0.86622 -1.65365,2.10645 -1.65364,3.72069 l 0,0.23623 -6.40785,0 0,-0.53152 c -10e-6,-3.16945 1.1664,-5.67452 3.49922,-7.5152 2.3328,-1.84063 5.51704,-2.76096 9.55272,-2.76099 4.23251,3e-5 7.42659,0.7924 9.58225,2.37711 2.15561,1.58476 3.23342,3.93234 3.23345,7.04273 l 0,15.79816 c -3e-5,1.22055 0.1427,2.01784 0.42818,2.39187 0.28542,0.37404 0.79233,0.56106 1.52075,0.56106 0.13778,0 0.29034,-0.005 0.45771,-0.0148 0.1673,-0.01 0.45767,-0.0344 0.87111,-0.0738 l 0,4.93139 c -0.6103,0.15749 -1.20581,0.27561 -1.78652,0.35435 -0.58077,0.0787 -1.13691,0.11812 -1.6684,0.11812 -2.04739,0 -3.56815,-0.39373 -4.56228,-1.18117 -0.99417,-0.78745 -1.51093,-1.99815 -1.55028,-3.6321 z"
           inkscape:connector-curvature="0" />
        <path
           id="path4078"
           style="font-variant:normal;font-stretch:normal;font-family:Swis721 Md BT;-inkscape-font-specification:Swis721 Md BT"
           d="m 623.27707,944.60803 0,20.25708 -6.7622,0 0,-20.93625 c -3e-5,-1.92923 -0.50202,-3.40569 -1.506,-4.4294 -1.00401,-1.02365 -2.4411,-1.53549 -4.31127,-1.53552 -2.55922,3e-5 -4.55244,0.73826 -5.97968,2.2147 -1.42726,1.47649 -2.14088,3.53369 -2.14087,6.17162 l 0,18.51485 -6.76221,0 0,-31.86209 6.52597,0 0,4.28175 c 1.12211,-1.63392 2.52474,-2.88892 4.20793,-3.76498 1.68315,-0.87601 3.52873,-1.31402 5.53674,-1.31406 4.01595,4e-5 6.88521,0.92036 8.60778,2.76099 1.72251,1.84069 2.58378,5.05445 2.58381,9.64131 z"
           inkscape:connector-curvature="0" />
        <path
           id="path4080"
           style="font-variant:normal;font-stretch:normal;font-family:Swis721 Md BT;-inkscape-font-specification:Swis721 Md BT"
           d="m 627.55883,933.00302 7.44138,0 7.94338,24.53883 7.85478,-24.53883 7.2642,0 -13.25864,37.1183 c -1.12213,3.14978 -2.38697,5.2562 -3.79451,6.31927 -1.40758,1.06304 -3.48939,1.59457 -6.24544,1.59458 -0.68903,-10e-6 -1.27961,-0.0246 -1.77176,-0.0738 -0.49216,-0.0492 -0.94494,-0.14274 -1.35835,-0.28053 l 0,-5.90586 c 0.47247,0.0984 0.92033,0.17225 1.34359,0.22147 0.42324,0.0492 0.82189,0.0738 1.19593,0.0738 1.25991,-10e-6 2.22453,-0.22148 2.89387,-0.66441 0.66932,-0.44295 1.191,-1.19594 1.56505,-2.25899 l 0.91541,-2.65764 z"
           inkscape:connector-curvature="0" />
      </g>
    </g>
  </g>
</svg>
