<?xml version="1.0" encoding="UTF-8" standalone="no"?>
<!-- Created with Inkscape (http://www.inkscape.org/) -->

<svg
   xmlns:dc="http://purl.org/dc/elements/1.1/"
   xmlns:cc="http://creativecommons.org/ns#"
   xmlns:rdf="http://www.w3.org/1999/02/22-rdf-syntax-ns#"
   xmlns:svg="http://www.w3.org/2000/svg"
   xmlns="http://www.w3.org/2000/svg"
   xmlns:sodipodi="http://sodipodi.sourceforge.net/DTD/sodipodi-0.dtd"
   xmlns:inkscape="http://www.inkscape.org/namespaces/inkscape"
   width="480"
   height="480"
   id="svg2"
   version="1.1"
   inkscape:version="0.48.5 r10040"
   sodipodi:docname="New document 1">
  <title
     id="title5519">Philippine Fiber Industry Development Authority (PhilFIDA)</title>
  <defs
     id="defs4" />
  <sodipodi:namedview
     id="base"
     pagecolor="#ffffff"
     bordercolor="#666666"
     borderopacity="1.0"
     inkscape:pageopacity="0.0"
     inkscape:pageshadow="2"
     inkscape:zoom="0.70710678"
     inkscape:cx="429.92935"
     inkscape:cy="171.15079"
     inkscape:document-units="px"
     inkscape:current-layer="layer1"
     showgrid="false"
     inkscape:snap-bbox="false"
     inkscape:bbox-paths="true"
     inkscape:bbox-nodes="true"
     inkscape:snap-bbox-edge-midpoints="true"
     inkscape:snap-bbox-midpoints="true"
     inkscape:object-paths="false"
     inkscape:snap-intersection-paths="true"
     inkscape:object-nodes="false"
     inkscape:snap-smooth-nodes="false"
     inkscape:snap-midpoints="true"
     inkscape:snap-object-midpoints="true"
     inkscape:snap-center="true"
     inkscape:snap-global="true"
     fit-margin-top="0"
     fit-margin-left="0"
     fit-margin-right="0"
     fit-margin-bottom="0"
     inkscape:window-width="1366"
     inkscape:window-height="705"
     inkscape:window-x="-8"
     inkscape:window-y="-8"
     inkscape:window-maximized="1" />
  <metadata
     id="metadata7">
    <rdf:RDF>
      <cc:Work
         rdf:about="">
        <dc:format>image/svg+xml</dc:format>
        <dc:type
           rdf:resource="http://purl.org/dc/dcmitype/StillImage" />
        <dc:title>Philippine Fiber Industry Development Authority (PhilFIDA)</dc:title>
        <cc:license
           rdf:resource="http://creativecommons.org/licenses/publicdomain/" />
      </cc:Work>
      <cc:License
         rdf:about="http://creativecommons.org/licenses/publicdomain/">
        <cc:permits
           rdf:resource="http://creativecommons.org/ns#Reproduction" />
        <cc:permits
           rdf:resource="http://creativecommons.org/ns#Distribution" />
        <cc:permits
           rdf:resource="http://creativecommons.org/ns#DerivativeWorks" />
      </cc:License>
    </rdf:RDF>
  </metadata>
  <g
     inkscape:label="Layer 1"
     inkscape:groupmode="layer"
     id="layer1"
     transform="translate(-160.98833,108.98834)">
    <path
       style="color:#000000;fill:#000000;fill-opacity:1;stroke:#000000;stroke-width:1.40867567;stroke-miterlimit:4;stroke-opacity:1;stroke-dasharray:none;marker:none;visibility:visible;display:inline;overflow:visible;enable-background:accumulate"
       d="m 400.96806,-108.284 c -132.16218,0 -239.27539,107.1537605 -239.27539,239.31594 0,132.16217 107.11321,239.27539 239.27539,239.27539 132.16218,0 239.31594,-107.11322 239.31594,-239.27539 0,-132.1621795 -107.15376,-239.31594 -239.31594,-239.31594 z m 0,16.176025 c 123.23231,0 223.13991,99.9076131 223.13991,223.139915 0,123.23229 -99.9076,223.09937 -223.13991,223.09937 -123.2323,0 -223.13991,-99.86708 -223.13991,-223.09937 0,-123.2323019 99.90761,-223.139915 223.13991,-223.139915 z"
       id="path5439-4"
       inkscape:connector-curvature="0" />
    <path
       sodipodi:type="arc"
       style="color:#000000;fill:#ffffff;stroke:#000000;stroke-width:1;stroke-miterlimit:4;stroke-opacity:1;stroke-dasharray:none;marker:none;visibility:visible;display:inline;overflow:visible;enable-background:accumulate"
       id="path5439"
       sodipodi:cx="135.5"
       sodipodi:cy="236"
       sodipodi:rx="153.5"
       sodipodi:ry="188"
       d="M 289,236 C 289,339.82953 220.27571,424 135.5,424 50.724291,424 -18,339.82953 -18,236 -18,132.17047 50.724291,48 135.5,48 220.27571,48 289,132.17047 289,236 z"
       transform="matrix(1.4957618,0,0,1.2212735,198.3126,-157.20888)" />
    <path
       sodipodi:type="arc"
       style="color:#000000;fill:#ffffff;stroke:none;stroke-width:0.99989659;marker:none;visibility:visible;display:inline;overflow:visible;enable-background:accumulate"
       id="path5439-3"
       sodipodi:cx="135.5"
       sodipodi:cy="236"
       sodipodi:rx="153.5"
       sodipodi:ry="188"
       d="M 289,236 C 289,339.82953 220.27571,424 135.5,424 50.724291,424 -18,339.82953 -18,236 -18,132.17047 50.724291,48 135.5,48 220.27571,48 289,132.17047 289,236 z"
       transform="matrix(0,-1.3482923,-1.1008662,0,660.78113,313.71105)" />
    <g
       id="g5296"
       transform="matrix(2.26819,0,0,1.3033589,-321.28662,-199.16779)">
      <path
         sodipodi:nodetypes="cc"
         inkscape:connector-curvature="0"
         id="path3018"
         d="m 338.49578,174.22377 12.43918,28.81562"
         style="fill:none;stroke:#fcd116;stroke-width:4;stroke-linecap:round;stroke-linejoin:miter;stroke-miterlimit:4;stroke-opacity:1;stroke-dasharray:none" />
      <path
         sodipodi:nodetypes="cc"
         inkscape:connector-curvature="0"
         id="path3020"
         d="m 331.68778,189.76943 7.74795,18.87083"
         style="fill:none;stroke:#fcd116;stroke-width:4;stroke-linecap:round;stroke-linejoin:miter;stroke-miterlimit:4;stroke-opacity:1;stroke-dasharray:none" />
      <path
         sodipodi:nodetypes="cc"
         inkscape:connector-curvature="0"
         id="path3022"
         d="M 361.35832,200.32193 322.32567,215.4003"
         style="fill:none;stroke:#fcd116;stroke-width:4;stroke-linecap:round;stroke-linejoin:miter;stroke-miterlimit:4;stroke-opacity:1;stroke-dasharray:none" />
      <path
         sodipodi:nodetypes="cc"
         inkscape:connector-curvature="0"
         id="path3024"
         d="m 316.2771,229.14055 50.8018,-18.23056"
         style="fill:none;stroke:#fcd116;stroke-width:4;stroke-linecap:round;stroke-linejoin:miter;stroke-miterlimit:4;stroke-opacity:1;stroke-dasharray:none" />
      <path
         sodipodi:nodetypes="cc"
         inkscape:connector-curvature="0"
         id="path3026"
         d="m 312.92142,242.18907 56.56715,-21.75761"
         style="fill:none;stroke:#fcd116;stroke-width:4;stroke-linecap:round;stroke-linejoin:miter;stroke-miterlimit:4;stroke-opacity:1;stroke-dasharray:none" />
      <path
         sodipodi:nodetypes="cc"
         inkscape:connector-curvature="0"
         id="path3028"
         d="m 306.44001,271.04271 68.12478,-24.67447"
         style="fill:none;stroke:#fcd116;stroke-width:4;stroke-linecap:round;stroke-linejoin:miter;stroke-miterlimit:4;stroke-opacity:1;stroke-dasharray:none" />
      <path
         sodipodi:nodetypes="cc"
         inkscape:connector-curvature="0"
         id="path3030"
         d="m 353.52905,227.78522 8.5475,22.4052"
         style="fill:none;stroke:#fcd116;stroke-width:4;stroke-linecap:round;stroke-linejoin:miter;stroke-miterlimit:4;stroke-opacity:1;stroke-dasharray:none" />
      <path
         sodipodi:nodetypes="cc"
         inkscape:connector-curvature="0"
         id="path3032"
         d="m 340.91807,231.8068 8.86841,22.64146"
         style="fill:none;stroke:#fcd116;stroke-width:4;stroke-linecap:round;stroke-linejoin:miter;stroke-miterlimit:4;stroke-opacity:1;stroke-dasharray:none" />
      <path
         sodipodi:nodetypes="cc"
         inkscape:connector-curvature="0"
         id="path3034"
         d="m 327.3668,236.78958 8.66905,22.87066"
         style="fill:none;stroke:#fcd116;stroke-width:4;stroke-linecap:round;stroke-linejoin:miter;stroke-miterlimit:4;stroke-opacity:1;stroke-dasharray:none" />
      <path
         sodipodi:nodetypes="cc"
         inkscape:connector-curvature="0"
         id="path3036"
         d="m 322.70424,264.91408 -8.54531,-23.16"
         style="fill:none;stroke:#fcd116;stroke-width:4;stroke-linecap:round;stroke-linejoin:miter;stroke-miterlimit:4;stroke-opacity:1;stroke-dasharray:none" />
      <path
         sodipodi:nodetypes="cc"
         inkscape:connector-curvature="0"
         id="path3038"
         d="m 305.16442,283.32714 71.5903,-24.84097"
         style="fill:none;stroke:#fcd116;stroke-width:4;stroke-linecap:round;stroke-linejoin:miter;stroke-miterlimit:4;stroke-opacity:1;stroke-dasharray:none" />
      <path
         sodipodi:nodetypes="cc"
         inkscape:connector-curvature="0"
         id="path3040"
         d="M 305.43798,295.70577 378.8248,269.5266"
         style="fill:none;stroke:#fcd116;stroke-width:4;stroke-linecap:round;stroke-linejoin:miter;stroke-miterlimit:4;stroke-opacity:1;stroke-dasharray:none" />
      <path
         sodipodi:nodetypes="cc"
         inkscape:connector-curvature="0"
         id="path3042"
         d="m 308.23994,306.44304 70.92987,-25.53099"
         style="fill:none;stroke:#fcd116;stroke-width:4;stroke-linecap:round;stroke-linejoin:miter;stroke-miterlimit:4;stroke-opacity:1;stroke-dasharray:none" />
      <path
         sodipodi:nodetypes="cc"
         inkscape:connector-curvature="0"
         id="path3044"
         d="m 315.68601,303.8887 9.96684,23.61362"
         style="fill:none;stroke:#fcd116;stroke-width:4;stroke-linecap:round;stroke-linejoin:miter;stroke-miterlimit:4;stroke-opacity:1;stroke-dasharray:none" />
      <path
         sodipodi:nodetypes="cc"
         inkscape:connector-curvature="0"
         id="path3046"
         d="m 326.90824,299.74136 8.47766,24.3321"
         style="fill:none;stroke:#fcd116;stroke-width:4;stroke-linecap:round;stroke-linejoin:miter;stroke-miterlimit:4;stroke-opacity:1;stroke-dasharray:none" />
      <path
         sodipodi:nodetypes="cc"
         inkscape:connector-curvature="0"
         id="path3048"
         d="m 339.1063,295.35006 7.92875,24.51811"
         style="fill:none;stroke:#fcd116;stroke-width:4;stroke-linecap:round;stroke-linejoin:miter;stroke-miterlimit:4;stroke-opacity:1;stroke-dasharray:none" />
      <path
         sodipodi:nodetypes="cc"
         inkscape:connector-curvature="0"
         id="path3050"
         d="m 351.92334,292.21479 7.67572,23.1401"
         style="fill:none;stroke:#fcd116;stroke-width:4;stroke-linecap:round;stroke-linejoin:miter;stroke-miterlimit:4;stroke-opacity:1;stroke-dasharray:none" />
      <path
         sodipodi:nodetypes="cc"
         inkscape:connector-curvature="0"
         id="path3052"
         d="m 361.85907,287.143 8.50823,24.30246"
         style="fill:none;stroke:#fcd116;stroke-width:4;stroke-linecap:round;stroke-linejoin:miter;stroke-miterlimit:4;stroke-opacity:1;stroke-dasharray:none" />
      <path
         sodipodi:nodetypes="cc"
         inkscape:connector-curvature="0"
         id="path3054"
         d="m 320.0528,329.61796 54.3589,-19.58017"
         style="fill:none;stroke:#fcd116;stroke-width:4;stroke-linecap:round;stroke-linejoin:miter;stroke-miterlimit:4;stroke-opacity:1;stroke-dasharray:none" />
      <path
         sodipodi:nodetypes="cc"
         inkscape:connector-curvature="0"
         id="path3056"
         d="m 326.48918,339.64447 41.6085,-15.84031"
         style="fill:none;stroke:#fcd116;stroke-width:4;stroke-linecap:round;stroke-linejoin:miter;stroke-miterlimit:4;stroke-opacity:1;stroke-dasharray:none" />
      <path
         sodipodi:nodetypes="cscac"
         inkscape:connector-curvature="0"
         id="path3058"
         d="m 342.59838,360.95517 c 0,0 34.57299,-32.62472 36.57143,-80.04312 2.13999,-50.77697 -33.03075,-123.92716 -33.03075,-123.92716 0,0 -45.28977,87.41943 -40.70108,138.72088 2.70645,30.25797 37.1604,65.2494 37.1604,65.2494 z"
         style="fill:none;stroke:#fcd116;stroke-width:4;stroke-linecap:round;stroke-linejoin:miter;stroke-miterlimit:4;stroke-opacity:1;stroke-dasharray:none" />
      <path
         sodipodi:nodetypes="cc"
         inkscape:connector-curvature="0"
         id="path3060"
         d="m 333.80054,349.05221 26.5888,-11.28006"
         style="fill:none;stroke:#fcd116;stroke-width:4;stroke-linecap:round;stroke-linejoin:miter;stroke-miterlimit:4;stroke-opacity:1;stroke-dasharray:none" />
    </g>
    <g
       id="g4453"
       transform="matrix(2.0135743,0,0,1.973041,-232.32078,-396.02778)">
      <g
         transform="matrix(0.97577277,0,0,0.97495822,-543.42426,402.8877)"
         id="g4259">
        <path
           style="color:#000000;fill:#006c35;fill-opacity:1;stroke:none;stroke-width:0.1;marker:none;visibility:visible;display:inline;overflow:visible;enable-background:accumulate"
           d="m 907.5429,-163.48569 c -6.75919,0 -13.08885,1.80379 -18.5625,4.9375 l 37.15625,0 c -5.47654,-3.13822 -11.82932,-4.9375 -18.59375,-4.9375 z m -20.9375,6.4375 c -1.45145,0.98305 -2.8275,2.079 -4.125,3.25 l 50.15625,0 c -1.29636,-1.171 -2.67355,-2.26695 -4.125,-3.25 l -41.90625,0 z m -5.6875,4.75 c -1.33056,1.34704 -2.53978,2.80986 -3.65625,4.34375 l 60.59375,0 c -1.11395,-1.53389 -2.32731,-2.99671 -3.65625,-4.34375 l -53.28125,0 z m -4.71875,5.84375 c -0.84593,1.29072 -1.5967,2.63662 -2.28125,4.03125 l 67.28125,0 c -0.68161,-1.39463 -1.43749,-2.74053 -2.28125,-4.03125 l -62.71875,0 z m -2.96875,5.53125 c -0.54429,1.24581 -0.99566,2.53158 -1.40625,3.84375 l 71.46875,0 c -0.40693,-1.31289 -0.86469,-2.5977 -1.40625,-3.84375 l -68.65625,0 z m -1.875,5.34375 c -0.28457,1.06422 -0.49772,2.15071 -0.6875,3.25 l 73.75,0 c -0.18988,-1.09941 -0.40594,-2.18564 -0.6875,-3.25 l -72.375,0 z m -0.9375,4.75 c -0.18058,1.38893 -0.2599,2.81489 -0.28125,4.25 l 74.8125,0 c -0.0212,-1.43483 -0.0997,-2.86101 -0.28125,-4.25 l -74.25,0 z m -0.28125,5.71875 c 0.0292,1.19113 0.11216,2.37023 0.25,3.53125 l 74.3125,-0.0625 c 0.1336,-1.14123 0.22131,-2.29849 0.25,-3.46875 l -74.8125,0 z m 74.34375,4.96875 -73.875,0.0625 c 0.17652,1.10513 0.41666,2.17949 0.6875,3.25 l 72.5,-0.0625 c 0.26629,-1.06315 0.51411,-2.15289 0.6875,-3.25 z m -1.09375,4.75 -71.6875,0.0625 c 0.3919,1.31703 0.84676,2.59201 1.375,3.84375 l 68.9375,-0.0625 c 0.52352,-1.24819 0.98671,-2.53101 1.375,-3.84375 z m -2.03125,5.34375 -67.625,0.0625 c 0.6616,1.39474 1.42742,2.73823 2.25,4.03125 l 63.125,-0.0625 c 0.82077,-1.29565 1.59027,-2.63407 2.25,-4.03125 z m -3.25,5.53125 -61.125,0.0625 c 1.08569,1.53692 2.29452,2.98992 3.59375,4.34375 l 53.9375,-0.0625 c 1.29772,-1.35863 2.50967,-2.802 3.59375,-4.34375 z m -5.15625,5.875003 -50.84375,0.03125 c 1.2614,1.17243 2.58635,2.25876 4,3.25 l 42.8125,-0.03125 c 1.41882,-0.99735 2.76558,-2.07082 4.03125,-3.25 z m -6.34375,4.75 -38.15625,0.03125 c 5.58609,3.33044 12.10942,5.25 19.09375,5.25 6.98452,0 13.48628,-1.94134 19.0625,-5.28125 z"
           id="path3062"
           inkscape:connector-curvature="0" />
        <path
           style="color:#000000;fill:#009246;fill-opacity:1;stroke:none;stroke-width:0.1;marker:none;visibility:visible;display:inline;overflow:visible;enable-background:accumulate"
           d="m 907.5429,-163.48569 0,4.9375 18.5625,0 c -5.47364,-3.1337 -11.80331,-4.9375 -18.5625,-4.9375 z m 0,6.4375 0,3.25 25.09375,0 c -1.29636,-1.171 -2.67355,-2.26695 -4.125,-3.25 l -20.96875,0 z m 0,4.75 0,4.34375 30.3125,0 c -1.11395,-1.53389 -2.32731,-2.99672 -3.65625,-4.34375 l -26.65625,0 z m 0,5.84375 0,4.03125 33.65625,0 c -0.68161,-1.39463 -1.43749,-2.74053 -2.28125,-4.03125 l -31.375,0 z m 0,5.53125 0,3.84375 35.75,0 c -0.40693,-1.31289 -0.86469,-2.5977 -1.40625,-3.84375 l -34.34375,0 z m 0,5.34375 0,3.25 36.875,0 c -0.18988,-1.09941 -0.40594,-2.18564 -0.6875,-3.25 l -36.1875,0 z m 0,4.75 0,4.25 37.40625,0 c -0.0212,-1.43483 -0.0997,-2.86101 -0.28125,-4.25 l -37.125,0 z m 0,5.71875 0,3.5 37.15625,-0.0312 c 0.1336,-1.14123 0.22131,-2.29849 0.25,-3.46875 l -37.40625,0 z m 36.9375,4.96875 -36.9375,0.0312 0,3.25 36.25,-0.0312 c 0.26791,-1.06995 0.51307,-2.14631 0.6875,-3.25 z m -1.09375,4.75 -35.84375,0.0312 0,3.84375 34.5,-0.0312 c 0.52274,-1.24647 0.95682,-2.53201 1.34375,-3.84375 z m -2,5.34375 -33.84375,0.0312 0,4.03125 31.59375,-0.0312 c 0.82136,-1.29614 1.59022,-2.63326 2.25,-4.03125 z m -3.25,5.53125 -30.59375,0.0312 0,4.34375 27,-0.0312 c 1.29927,-1.35883 2.50873,-2.80154 3.59375,-4.34375 z m -5.15625,5.875003 -25.4375,0.03125 0,3.25 21.40625,-0.03125 c 1.421,-0.99739 2.76398,-2.07071 4.03125,-3.25 z m -6.34375,4.75 -19.09375,0.03125 0,5.25 c 6.98736,0 13.50878,-1.94131 19.09375,-5.28125 z"
           id="path3062-1"
           inkscape:connector-curvature="0" />
      </g>
      <g
         transform="translate(-198.57039,-17.183495)"
         id="g4447">
        <path
           style="fill:#ffffff;stroke:#000000;stroke-width:0.03;stroke-linecap:butt;stroke-linejoin:miter;stroke-miterlimit:4;stroke-opacity:1;stroke-dasharray:none"
           d="m 540.625,267.40625 c -4.97298,0 -9.0514,3.66859 -9.78125,8.4375 -0.88855,-0.26059 -1.83966,-0.40625 -2.8125,-0.40625 -5.48833,0 -9.9375,4.44918 -9.9375,9.9375 0,3.07124 1.40482,5.80213 3.59375,7.625 -2.1885,1.82287 -3.59375,4.55412 -3.59375,7.625 0,5.48832 4.44917,9.9375 9.9375,9.9375 2.87678,0 5.46656,-1.2338 7.28125,-3.1875 2.26604,0.0663 3.5,0 3.5,0 L 538.375,319.5 c -1.35647,0.99794 -2.84185,2.33806 -4.25,3.75 0,0 -0.31358,-0.84257 -0.6875,-1.40625 -0.32304,-0.48697 -1.17781,-1.41332 -1.4375,-1.6875 0.13115,0.0304 0.26597,0.0625 0.40625,0.0625 0.92668,0 1.6875,-0.72957 1.6875,-1.65625 0,-0.92668 -0.76082,-1.6875 -1.6875,-1.6875 -0.34751,0 -0.66971,0.10033 -0.9375,0.28125 0,-0.92668 -0.76082,-1.6875 -1.6875,-1.6875 -0.92668,0 -1.65625,0.76082 -1.65625,1.6875 0,0.69501 0.39778,1.27653 1,1.53125 -0.44632,0.30153 -0.71875,0.79582 -0.71875,1.375 0,0.92668 0.72957,1.6875 1.65625,1.6875 0.82236,0 1.511,-0.59259 1.65625,-1.375 0.22502,0.5003 0.70127,1.56783 0.90625,2.3125 0.16244,0.59013 0.28125,1.8125 0.28125,1.8125 -2.6903,2.82677 -5.67548,6.6065 -5.67548,6.6065 l 5.31169,1.65523 c 0,0 3.71058,-6.16238 7.48879,-10.73048 0.47317,0.31857 1.44627,0.9348 2.0625,1.125 0.68186,0.21046 2.1988,0.44166 2.65625,0.5 -0.14745,0.0727 -0.30493,0.14154 -0.4375,0.25 -0.87584,0.71653 -1.02905,1.99917 -0.3125,2.875 0.71653,0.87582 2.03041,0.99779 2.90625,0.28125 0.32845,-0.26869 0.54304,-0.62195 0.65625,-1 0.71652,0.87581 2.03041,1.02904 2.90625,0.3125 0.87583,-0.71654 0.96677,-2.03041 0.25,-2.90625 -0.53741,-0.65688 -1.35887,-0.88116 -2.125,-0.65625 0.18867,-0.6301 0.0728,-1.29636 -0.375,-1.84375 -0.71653,-0.87584 -1.99916,-1.02904 -2.875,-0.3125 -0.77722,0.63586 -0.9677,1.71071 -0.5,2.5625 -0.59955,-0.29881 -1.88674,-0.92345 -2.65625,-1.46875 -0.31338,-0.22207 -0.7482,-0.612 -1.09375,-0.9375 0.58794,-0.6394 1.15599,-1.2258 1.71875,-1.6875 3.76969,-3.09271 13.3125,-6.09375 13.3125,-6.09375 0,0 -7.72826,1.74242 -13.3125,4.0625 -1.36396,-3.16154 -1.44238,-6.15763 -1.09375,-9.65625 0,0 2.16865,0.0639 4.3125,-0.0625 1.81495,1.95715 4.40157,3.1875 7.28125,3.1875 5.48833,0 9.9375,-4.44918 9.9375,-9.9375 0,-3.0713 -1.40474,-5.80213 -3.59375,-7.625 2.1894,-1.82286 3.59375,-4.55338 3.59375,-7.625 0,-5.48832 -4.44917,-9.9375 -9.9375,-9.9375 -0.99419,0 -1.93803,0.13453 -2.84375,0.40625 -0.72786,-4.77121 -4.86913,-8.4375 -9.84375,-8.4375 z"
           id="path4263"
           inkscape:connector-curvature="0"
           sodipodi:nodetypes="scsscssccccscssscsscsscsccccsccsccscccscscsccccsscsscs" />
        <path
           style="fill:#009246;fill-opacity:1;stroke:none"
           d="m 540.70178,301.79968 c 0,0 1.21291,-2.24566 1.6576,-3.4375 0.35465,-0.95055 0.80372,-2.13945 0.79687,-2.9375 -0.008,-0.91795 -0.40594,-2.08279 -0.79687,-3.0625 -0.42343,-1.06113 -1.6576,-3 -1.6576,-3 0,0 -1.2599,1.93862 -1.70178,3 -0.41576,0.99864 -0.86961,2.11333 -0.875,3.125 -0.004,0.84112 0.5057,1.94382 0.875,2.875 0.47135,1.18851 1.70178,3.4375 1.70178,3.4375 z"
           id="path4372"
           inkscape:connector-curvature="0"
           sodipodi:nodetypes="casacasac" />
        <path
           style="fill:#009246;fill-opacity:1;stroke:none"
           d="m 537.99998,304.98649 c 0,0 -1.33832,-2.17325 -2.14816,-3.15427 -0.64588,-0.78242 -1.45096,-1.76577 -2.14552,-2.15887 -0.79896,-0.45204 -2.00671,-0.68983 -3.05063,-0.84113 -1.13069,-0.16386 -3.42688,-0.0645 -3.42688,-0.0645 0,0 1.04894,2.06041 1.74718,2.97379 0.65696,0.85938 1.39539,1.80977 2.26883,2.32027 0.72642,0.42403 1.93624,0.53396 2.92732,0.67973 1.26495,0.18605 3.82785,0.24496 3.82785,0.24496 z"
           id="path4372-1"
           inkscape:connector-curvature="0"
           sodipodi:nodetypes="casacasac" />
        <path
           style="fill:#009246;fill-opacity:1;stroke:none"
           d="m 542.55684,304.98649 c 0,0 1.33832,-2.17325 2.14816,-3.15427 0.64588,-0.78242 1.45096,-1.76577 2.14552,-2.15887 0.79896,-0.45204 2.00671,-0.68983 3.05063,-0.84113 1.13069,-0.16386 3.42688,-0.0645 3.42688,-0.0645 0,0 -1.04894,2.06041 -1.74718,2.97379 -0.65696,0.85938 -1.39539,1.80977 -2.26883,2.32027 -0.72642,0.42403 -1.93624,0.53396 -2.92732,0.67973 -1.26495,0.18605 -3.82785,0.24496 -3.82785,0.24496 z"
           id="path4372-1-2"
           inkscape:connector-curvature="0"
           sodipodi:nodetypes="casacasac" />
      </g>
    </g>
    <g
       style="font-size:35px;font-style:normal;font-variant:normal;font-weight:bold;font-stretch:normal;text-align:center;line-height:100%;letter-spacing:4px;word-spacing:0px;writing-mode:lr-tb;text-anchor:middle;fill:#006c35;fill-opacity:1;stroke:none;font-family:Swiss 721;-inkscape-font-specification:Swiss 721 Bold"
       id="text5427"
       transform="matrix(1.2973251,0,0,1.2973251,-47.865867,-110.31107)">
      <path
         d="m 251.43654,301.00224 6.05145,4.67003 c 2.3811,1.81544 4.70791,2.54121 6.98042,2.17729 2.27247,-0.36392 4.3683,-1.77931 6.28753,-4.24616 1.93929,-2.51872 2.76867,-4.92251 2.48814,-7.21136 -0.28059,-2.28884 -1.68335,-4.4125 -4.20825,-6.37101 L 258.3959,281.81 l -18.44915,23.90658 4.92096,3.7976 z m 3.33573,-4.32247 5.33717,-6.91595 5.05396,3.90024 c 1.14426,0.8875 1.77516,1.84301 1.89272,2.86652 0.1175,1.02353 -0.26136,2.10166 -1.13658,3.23438 -0.93779,1.22376 -1.91915,1.87671 -2.94409,1.95887 -1.02498,0.0822 -2.16339,-0.36754 -3.41522,-1.34909 z"
         style="font-size:42px;letter-spacing:8px;fill:#006c35;-inkscape-font-specification:Swiss 721 Bold"
         id="path5501"
         inkscape:connector-curvature="0" />
      <path
         d="m 269.14337,326.21609 5.35792,2.52226 5.63484,-11.96983 c 0.64713,-1.33361 1.5144,-2.19803 2.60181,-2.59328 1.08737,-0.39523 2.26858,-0.29951 3.54364,0.28717 1.47651,0.69896 2.16181,1.60569 2.05592,2.72021 -0.10593,1.11452 -0.62838,2.59001 -1.56734,4.42645 l -4.97297,10.56385 5.35793,2.52226 6.33249,-13.45181 c 0.48342,-0.97354 0.85313,-1.89038 1.10913,-2.75052 0.25595,-0.86012 0.28811,-1.75018 0.0965,-2.67018 -0.2455,-1.02752 -0.7461,-1.96915 -1.50181,-2.82492 -0.75575,-0.85573 -1.73476,-1.56998 -2.93703,-2.14275 -1.2378,-0.58364 -2.47003,-0.88326 -3.69668,-0.89885 -1.2267,-0.0156 -2.43106,0.26658 -3.61309,0.84645 l 4.41843,-9.38587 -5.35793,-2.52226 z"
         style="font-size:42px;letter-spacing:8px;fill:#006c35;-inkscape-font-specification:Swiss 721 Bold"
         id="path5503"
         inkscape:connector-curvature="0" />
      <path
         d="m 299.88823,338.82148 5.74178,1.61254 6.03001,-21.47103 -5.74179,-1.61255 z m 6.7,-23.85671 5.74179,1.61254 1.46491,-5.21612 -5.74178,-1.61255 z"
         style="font-size:42px;letter-spacing:8px;fill:#006c35;-inkscape-font-specification:Swiss 721 Bold"
         id="path5505"
         inkscape:connector-curvature="0" />
      <path
         d="m 318.84826,343.28151 5.89607,0.89707 4.54219,-29.85405 -5.89607,-0.89707 z"
         style="font-size:42px;letter-spacing:8px;fill:#006c35;-inkscape-font-specification:Swiss 721 Bold"
         id="path5507"
         inkscape:connector-curvature="0" />
      <path
         d="m 338.58409,345.65734 6.13143,-0.0777 -0.16294,-12.8508 13.10278,-0.16614 -0.0666,-5.24951 -13.10277,0.16614 -0.0868,-6.84536 14.95061,-0.18957 -0.0666,-5.24951 -21.08204,0.26731 z"
         style="font-size:42px;letter-spacing:8px;fill:#006c35;-inkscape-font-specification:Swiss 721 Bold"
         id="path5509"
         inkscape:connector-curvature="0" />
      <path
         d="m 371.7889,343.50397 6.11449,-1.11835 -5.43305,-29.70484 -6.11449,1.11834 z"
         style="font-size:42px;letter-spacing:8px;fill:#006c35;-inkscape-font-specification:Swiss 721 Bold"
         id="path5511"
         inkscape:connector-curvature="0" />
      <path
         d="m 392.06736,339.27657 9.4822,-3.65952 c 2.01662,-0.74077 3.76194,-1.57942 5.23597,-2.51596 1.47399,-0.93652 2.68435,-2.19897 3.63107,-3.78735 1.02049,-1.75191 1.54827,-3.7526 1.58334,-6.00207 0.035,-2.24944 -0.45164,-4.69146 -1.45996,-7.32609 -1.83124,-4.75457 -4.26235,-7.88489 -7.29334,-9.39095 -3.03101,-1.50599 -6.69851,-1.42426 -11.00249,0.24522 l -11.04951,4.2644 z m 3.71563,-7.28643 -7.00149,-18.14157 5.36802,-2.07171 c 2.37656,-0.92843 4.4173,-0.86067 6.12223,0.20328 1.7049,1.06401 3.15545,3.16029 4.35165,6.28886 1.23318,3.14434 1.51413,5.66576 0.84283,7.56426 -0.67133,1.89854 -2.34483,3.35099 -5.02051,4.35736 z"
         style="font-size:42px;letter-spacing:8px;fill:#006c35;-inkscape-font-specification:Swiss 721 Bold"
         id="path5513"
         inkscape:connector-curvature="0" />
      <path
         d="m 416.43149,294.56017 8.33053,30.9532 5.38912,-3.72626 -1.91152,-6.23541 9.63824,-6.66426 5.2279,3.94233 5.35457,-3.70237 -26.12153,-18.65178 z m 6.41055,2.92035 10.76376,8.18234 -6.90913,4.77726 z"
         style="font-size:42px;letter-spacing:8px;fill:#006c35;-inkscape-font-specification:Swiss 721 Bold"
         id="path5515"
         inkscape:connector-curvature="0" />
    </g>
    <path
       style="fill:#006c35;fill-opacity:1;stroke:none"
       d="M 452.52095,277.85377 C 316.90666,195.68082 335.86464,142.94394 454.73591,-8.1848208 L 440.98979,-23.0322 c -165.3599,198.06212 -121.19664,250.01818 9.78086,301.46066 z"
       id="path5433"
       inkscape:connector-curvature="0"
       sodipodi:nodetypes="ccccc" />
    <path
       style="fill:#006c35;fill-opacity:1;stroke:none"
       d="M 449.26718,279.06035 C 275.91371,220.05942 292.14153,149.16758 433.5436,-31.524879 L 423.08648,-42.512081 C 274.333,136.06805 238.03507,227.18872 447.8599,279.80997 z"
       id="path5435"
       inkscape:connector-curvature="0"
       sodipodi:nodetypes="ccccc" />
    <path
       style="fill:#006c35;fill-opacity:1;stroke:none"
       d="M 446.56268,279.98885 C 253.08057,243.98811 237.56053,158.18111 413.88327,-52.699339 L 398.66952,-70.648848 C 218.25975,151.94519 214.79462,274.98636 437.99803,282.06936 z"
       id="path5437"
       inkscape:connector-curvature="0"
       sodipodi:nodetypes="ccccc" />
  </g>
</svg>
